<svg width="600pt" height="574.74pt" version="1.1" viewBox="0 0 600 574.74" xmlns="http://www.w3.org/2000/svg">
 <g transform="matrix(4.9968 0 0 4.9968 -414.4 -129.92)">
  <path d="m173.38 31.5c16.08 8.68 26.03 26.01 29.03 43.64 1.85 9.68-0.82 19.52-4.7 28.36-8.19 18.14-25.38 31.65-44.66 36.18-7.19 1.65-14.92 2.09-21.95-0.49-11.05-3.71-22.33-7.56-31.87-14.45-6.52-4.65-11.72-11.27-14.11-18.96-3.25-10.23-2.4-21.23-0.53-31.64 1.81-10.25 5.06-20.64 11.93-28.68 10.6-12.5 27.46-16.76 43.07-18.67 11.39-1.68 23.54-0.93 33.79 4.71z" fill="#ef4a4a"/>
 </g>
 <g transform="matrix(.36158 0 0 .36413 221.6 67.353)" fill="#fff">
  <path d="m57.733 0.28c15.151-0.238 33.573 5.428 46 20.761 5.629 5.446 15.973 31.626 15.973 31.626l61.955 164.54c7.968 19.756 31.928 21.236 38.963 1.488l19.245-51.893 32.859 86.48c-15.973 29.158-31.435 36.305-49.765 42.967-21.346 6.68-46.932 4.477-65.245-6.9-6.086-3.947-22.059-14.318-32.86-40.516l-65.242-182.34v166.04l24.417-70.16 31.325 87.586c-4.569 20.113-19.116 36.918-36.021 44.822-18.495 8.717-40.554 5.629-57.276-4.945-16.651-12.354-21.348-26.929-22.061-52.872l0.22-179.6c1.9-29.908 21.017-46.192 37.794-53.484 7.657-2.723 10.929-3.464 19.719-3.601z"/>
  <path d="m343.15 299.71c-15.15 0.266-33.572-5.428-46.019-20.734-5.629-5.445-15.955-31.625-15.955-31.625l-61.953-164.54c-7.986-19.784-31.928-21.264-38.964-1.499l-19.245 51.895-32.86-86.481c15.955-29.131 31.453-36.305 49.765-42.984 21.364-6.68 46.95-4.45 65.245 6.926 6.104 3.948 22.059 14.319 32.859 40.518l65.244 182.31v-166.01l-24.397 70.16-31.344-87.586c4.569-20.14 19.135-36.926 36.04-44.821 18.478-8.699 40.555-5.638 57.258 4.943 16.668 12.327 21.347 26.93 22.06 52.845l-0.237 179.62c-1.864 29.908-20.999 46.201-37.795 53.484-7.603 2.713-10.893 3.443-19.702 3.572z"/>
 </g>
 <g transform="matrix(.75992 0 0 .75992 29.214 -33.81)" fill="#fff">
  <ellipse cx="260.61" cy="333.97" rx="26.451" ry="25.599" style="paint-order:stroke fill markers"/>
  <path d="m499.33 326.81c2.3 5.86 1.06 12.21 0.24 18.23l-23.03 176.95c-0.78 5.86-1.05 12.12-4.38 17.23-11.13 17.18-40.66 14.35-49.48-3.73-30.34 14.07-69.32 6.51-91.91-18.22-12.97-13.86-20.16-32.47-21.74-51.25-1.6-20.12 1.66-40.97 11.06-58.97 5.78-11.24 14.14-21.2 24.62-28.32 17.1-12.08 38.51-17.75 59.34-15.8 12.56 1.23 25.41 3.94 36.15 10.88l5.41-41.71c0.54-4.78 2.13-9.56 5.33-13.23 12.82-15.05 41.3-10.77 48.39 7.94zm-103.12 84.41c-6.82 0.81-13.45 3.83-18.23 8.83-5.38 5.98-9.26 13.36-11.31 21.13-3.16 12.96-2.92 27.84 5.06 39.08 9.41 12.55 27.05 16.82 41.85 13.12 5.85-1.6 11.765-5.9822 12.69-12.43l6.05-47c1.07-8.87-5.36-17.04-13.39-20.09-7.19-2.7-15.1-3.43-22.72-2.64z"/>
  <path d="m152.05 335.99c5.8578-13.069 21.61-18.98 35.03-15.71 8.35 1.61 15.92 7.68 18.61 15.86 1.78 5.25 0.78 10.584-1.56 15.92l-42.38 92.78 79.56 72.79c3.72 3.42 6.14 8.28 6.27 13.37 0.23 8.21-4.12 16.16-10.71 20.93-8.55 5.59-19.65 8.15-29.46 4.42-6.5-2.06-11.19-7.2-16.09-11.65l-69.39-63.71 12.07 66.02c1.09 5.86 0.5 12.16-2.47 17.41-8.53 15.31-31.76 19.39-45.13 8.17-4.71-3.91-7.49-9.7-8.51-15.66l-33.17-180.99c-1.1546-6.6044-2.28-13 0.16-19.15 3.84-10.25 14.36-16.82 25.03-17.65 9.99-1.24 20.86 3.1 26.25 11.81 3.1114 4.9906 4.01 11.55 5.14 17.52l10.47 56.99z"/>
  <path d="m261.48 368.7c9.88-1.89 21.16 1.25 27.25 9.6 2.74 3.66 3.6778 8.1772 4.33 12.71l13.48 126.1c0.61 5.67-0.83 11.6-4.36 16.12-9.68 12.6-30.49 14.46-42.23 3.74-4.22-3.8-6.4773-9.4095-7.04-14.94l-12.95-121.09c-0.61-5.24-1.44-10.71 0.43-15.79 3.12-8.96 11.92-15.05 21.09-16.45z"/>
  <path d="m553.5 388.79c16.21-2.76 32.86-0.24 48.53 4.21 12.85 3.89 24.57 10.8 35.31 18.77 4.77 3.75 9.83 7.51 12.94 12.86 5 8.31 4.76 19.7-1.17 27.48-3.83 5.11-9.55 9.06-16 9.78-8.18 1.15-16.49-1.91-22.65-7.26-9.46-7.88-20.01-15.29-32.4-17.46-4.65-0.72-9.99-0.98-14 1.88-3.18 2.67-2.67 7.81 0.23 10.5 7.49 7.72 17.7 11.82 26.73 17.38 11.94 7.24 25.23 12.79 35.11 22.94 9.43 9.23 13.71 23.05 12.26 36.05-1.73 15.84-9.19 31.66-22.47 40.97-14.87 10.47-33.93 13.23-51.7 11.39-25.64-2.82-50.72-13.12-69.89-30.57-5.41-4.44-9.64-10.62-10.46-17.7-1.8-11.9 5.44-25.4 17.46-28.52 8.41-2.37 17.52 0.64 24 6.2 11.04 9.71 24.37 16.89 38.69 20.37 4.8 1.13 10.15 1.9 14.77-0.33 4.24-2.05 5.88-7.96 3.36-11.94-2.92-4.72-7.68-7.93-12.44-10.59-14.23-7.84-28.92-15.13-41.61-25.4-6.01-5.03-11.99-10.52-15.29-17.78-5.03-10.08-5.43-21.97-2.45-32.72 3.12-12.36 9.99-24.1 20.61-31.43 6.69-4.7 14.5-7.66 22.53-9.08z"/>
 </g>
 <g transform="matrix(.51237 0 0 .51237 124.75 171.09)" fill="#fff" stroke-width="31.265">
  <path d="m421.55 576.52-44.364 25.606v-51.211z"/>
  <path d="m98.68 493.04v102.17c0 11.599 5.1899 14.694 12.85 14.694 4.9711 0 10.13-3.314 10.755-3.9081l4.7835 18.415c-2.9076 1.8759-12.037 7.4722-23.417 7.4722-21.541 0-30.639-14.507-30.639-34.172v-99.015z"/>
  <path d="m161.96 523.37v108.55h-25.887v-87.228l0.0938-21.354z"/>
  <path d="m179.28 599.66s13.475 12.006 35.204 12.006c12.443 0 19.697-3.7205 19.697-12.631 0-21.135-62.779-7.0345-60.716-46.803 0.84415-19.478 15.132-31.077 43.927-31.077 21.322 0 39.143 10.161 39.143 10.161l-9.098 18.227s-13.881-9.1292-31.077-8.9104c-10.161 0-18.634 3.314-18.227 11.787 1.2506 17.196 61.529 3.9393 61.529 45.803 0 22.354-20.103 33.953-45.803 33.766-27.951-0.21885-44.521-14.1-44.521-14.1z"/>
  <path d="m301.49 491.48v31.702h27.356l-3.5329 20.697h-23.824v49.711c0 11.818 5.3775 16.383 14.069 16.383 6.6594 0 14.726-4.1582 16.383-4.7835l4.7522 19.697c-2.2823 1.0317-14.288 7.0345-27.544 7.0345-25.481 0-33.359-16.977-33.359-34.797v-53.244h-15.101v-20.697h16.351l3.1264-28.795z"/>
  <path d="m468.38 523.37 3.9393 19.259c7.0345-13.881 21.541-20.072 37.08-20.291 25.481-0.21885 37.674 16.351 37.674 38.737v70.845h-25.668v-62.56c0-16.57-6.2216-25.481-20.291-25.481-19.697 0-27.356 15.945-27.356 33.359v54.682h-25.668v-108.55z"/>
  <path d="m387.78 610.29c-18.665 0-33.797-15.132-33.797-33.797 0-18.634 15.132-33.797 33.797-33.797 18.634 0 33.797 15.132 33.797 33.797h21.604c0-30.577-24.793-55.401-55.401-55.401s-55.401 24.824-55.401 55.401c0 30.608 24.793 55.432 55.401 55.432 22.823 0 42.395-13.819 50.899-33.547h-25.168c-6.1904 7.2846-15.445 11.912-25.731 11.912"/>
  <path d="m163.59 496.48c0-8.0663-6.503-14.569-14.569-14.569-8.035 0-14.538 6.503-14.538 14.569 0 8.035 6.503 14.569 14.538 14.569 8.0662 0 14.569-6.5343 14.569-14.569"/>
 </g>
</svg>
