<svg width="800" height="394.3" space="preserve" version="1.1" viewBox="0 0 800 394.3" xmlns="http://www.w3.org/2000/svg">
 <link href="" rel="stylesheet" type="text/css"/>
 <style type="text/css"/>
 <path d="m319.29 0.14407c8.612-0.09162 19.148 3.115 26.294 11.819 3.2066 3.115 9.1617 18.049 9.1617 18.049l35.364 93.999c4.5808 11.269 18.232 12.093 22.263 0.82456l10.994-29.684 18.781 49.382c-9.1617 16.674-17.957 20.705-28.401 24.553-12.185 3.8479-26.844 2.5653-37.288-3.9395-3.4814-2.2904-12.643-8.1539-18.781-23.179l-37.288-103.99v94.824l13.926-40.128 17.865 50.023c-2.5653 11.452-10.902 21.072-20.614 25.653-10.536 4.9473-23.179 3.2066-32.707-2.8401-9.5282-7.0545-12.185-15.392-12.643-30.234l0.0916-102.61c1.0994-17.132 12.002-26.386 21.622-30.6 4.4892-1.4659 6.4132-1.8323 11.361-1.924zm163.08 171.05c-8.612 0.18323-19.148-3.115-26.294-11.819-3.2066-3.115-9.0701-18.049-9.0701-18.049l-35.456-94.091c-4.5808-11.269-18.232-12.185-22.263-0.82455l-10.994 29.684-18.781-49.382c9.0701-16.674 17.957-20.705 28.401-24.553 12.185-3.8479 26.844-2.5653 37.288 3.9395 3.4814 2.2904 12.643 8.1539 18.781 23.179l37.288 104.17v-94.915l-13.926 40.128-17.865-50.023c2.5653-11.544 10.902-21.072 20.614-25.653 10.536-4.9473 23.179-3.2066 32.707 2.8401 9.5282 7.0545 12.185 15.392 12.643 30.234l-0.0916 102.61c-1.0994 17.132-12.002 26.386-21.622 30.6-4.3976 1.4659-6.3216 1.8323-11.361 1.924z" stroke-width=".91617"/>
 <g transform="matrix(.91617 0 0 .91617 0 -.039163)">
  <path d="m123.5 262.8c-5-18.2-20.5-32.8-43.2-32.8-27 0-49 18.5-49 61.5 0 33.8 15.2 63 48.2 63 19.8 0 36.2-11.2 43.5-30.5l26.8 12.2c-11.8 27-39 46.5-74 45.2-49-1.3-75.8-37.1-75.8-88.6 0-60.2 35.8-88 77.5-89 36.2-1 63.2 19 72.2 46.5-1.7 1-24.7 11.8-26.2 12.5z"/>
  <path d="m217.5 247.8c32.8 0 61.2 22.2 61.2 67 0 36.8-21.8 66.8-62.5 66.8-44.2 0-62.5-30-62.5-66.8 0-44.7 28.3-67 63.8-67zm-31.3 67c0 20.8 7 40.5 30.5 40.5 21.2 0 30.8-19.8 30.8-40.5 0-29-14.2-40.8-30-40.8-17.3 0.1-31.3 11.3-31.3 40.8z"/>
  <path d="m323.5 249.1v75.5c0 20 8 30.8 26.2 30.8 23.8 0 33.5-24.5 33.5-49.2v-57h31v131h-24.8l-4.5-28.5c-8.5 20.2-26.5 30-45.2 30-32 0-47.2-19.8-47.2-52.8v-79.8z"/>
  <path d="m458.7 249.1 4.8 23.2c8.5-16.8 26-24.2 44.8-24.5 30.8-0.2 45.5 19.8 45.5 46.8v85.5h-31v-75.5c0-20-7.5-30.8-24.5-30.8-23.8 0-33 19.2-33 40.2v66h-31v-131h24.4z"/>
  <path d="m605.5 212.1v38.2h33l-4.2 25h-28.8v60c0 14.2 6.5 19.8 17 19.8 8 0 17.8-5 19.8-5.8l5.8 23.8c-2.8 1.2-17.2 8.5-33.2 8.5-30.8 0-40.2-20.5-40.2-42v-64.2h-18.2v-25h19.5l3.8-34.8z"/>
  <path d="m678.5 249.1 5.8 27c6-20 21.2-28.8 42.5-28.2 5.8 0.2 10.5 1.2 13.5 2.2l-4.8 27.2c-3.8-1.2-10-2.8-18.8-2.5-23 0.8-31.8 18.5-31.8 39.5v65.8h-31v-131z"/>
  <path d="m777.5 249.1 32.2 92.5h2l29.5-92.5h32l-48.5 133c-16 43.8-31 54.8-77.2 45l5.5-26.2c29.5 7.2 33.5 0.5 42.8-25.2l-49.2-126.5h30.9z"/>
 </g>
</svg>
