<svg width="800" height="267.52" space="preserve" version="1.1" viewBox="0 0 800 267.52" xmlns="http://www.w3.org/2000/svg">
 <link href="" rel="stylesheet" type="text/css"/>
 <style type="text/css"/>
 <style type="text/css">.st0{fill:#22CFFD;}</style>
 <g transform="matrix(1.2424 0 0 1.2424 -111.15 -332.91)">
  <g transform="matrix(.80492 0 0 .80492 17.454 94.283)">
   <path d="m335.62 371.88v-154.26h32.38l61.964 112.2v-112.2h27.539v154.26h-33.671l-60.673-108.65v108.65z" stroke-width=".8008"/>
   <path d="m471.18 371.88v-154.26h93.913l-3.3349 22.914h-63.254v39.911h61.103v23.559h-61.103v44.321h67.02v23.559h-94.344z" stroke-width=".8008"/>
   <path d="m574.66 217.62h29.153l28.185 122.31h0.86062l28.615-122.31h26.464l29.691 122.31h0.96825l27.001-122.31h29.368l-39.265 154.26h-32.595l-28.185-107.47-27.97 107.47h-32.811z" stroke-width=".8008"/>
   <path d="m773.61 355.89 13.662-21.018c0.50234 0.43788 1.2372 1.04 2.2052 1.8062 0.96817 0.76637 3.0121 2.0982 6.1319 3.9955 3.1197 1.8975 6.2931 3.5577 9.5204 4.9807 3.2272 1.4231 7.2613 2.7367 12.102 3.9408 4.8408 1.2042 9.5921 1.8063 14.254 1.8062 9.3231 8e-5 16.656-1.9339 21.999-5.8017 5.3428-3.8679 8.0143-9.1588 8.0143-15.873-8e-5 -3.284-0.93237-6.2579-2.797-8.9216-1.8647-2.6636-4.3749-4.9259-7.5302-6.787-3.1557-1.8608-6.7953-3.5941-10.919-5.1996-4.1238-1.6055-8.4447-3.211-12.963-4.8167-4.5182-1.6054-9.0365-3.2839-13.555-5.0354-4.5182-1.7514-8.8391-3.8495-12.963-6.2943-4.1238-2.4446-7.7634-5.1813-10.919-8.21-3.1556-3.0285-5.6657-6.7686-7.5302-11.22-1.8648-4.4516-2.797-9.4141-2.797-14.888 0-13.939 4.7692-24.52 14.308-31.745 9.5383-7.2247 22.304-10.837 38.297-10.837 5.4505 1.6e-4 11.044 0.52933 16.782 1.5874 5.7373 1.0583 10.775 2.3354 15.114 3.8313 4.3387 1.4962 8.2833 2.9739 11.833 4.4334 2.67 1.098 4.8633 2.0719 6.58 2.9219l-10.772 21.565c-0.74338-0.37013-1.5334-0.76028-2.3704-1.1708-2.9763-1.4594-8.3372-3.3933-16.083-5.8016-7.7455-2.4082-14.595-3.6123-20.547-3.6124-17.069 8e-5 -25.603 5.8384-25.603 17.515 0 3.2111 0.93229 6.0572 2.797 8.5384 1.8646 2.4814 4.3926 4.5612 7.5841 6.2396 3.1914 1.6786 6.8489 3.2476 10.973 4.7071 4.1236 1.4596 8.4625 2.9193 13.017 4.3787 4.554 1.4596 9.1081 3.0104 13.662 4.6523 4.5538 1.6421 8.8928 3.6673 13.017 6.0754 4.1236 2.4083 7.7812 5.1267 10.973 8.1553 3.1913 3.0286 5.7193 6.8235 7.5841 11.385 1.8644 4.5612 2.7969 9.6879 2.797 15.38-0.0721 7.8816-1.5421 14.942-4.4106 21.182-2.8688 6.2396-6.8492 11.33-11.941 15.271-5.092 3.9408-11.044 6.9511-17.858 9.031-6.8132 2.0798-14.272 3.1198-22.376 3.1198-6.9566 0-13.77-0.65674-20.439-1.9704-6.6698-1.3136-12.246-2.9191-16.728-4.8165-4.4824-1.8974-8.4626-3.7948-11.941-5.6922-3.4783-1.8974-6.0422-3.5029-7.6917-4.8165z" stroke-width=".8008"/>
   <g transform="matrix(.52009 0 0 .52376 89.87 216.62)">
    <path d="m56.963-0.4845c15.151-0.238 33.573 5.428 46 20.761 5.629 5.446 15.973 31.626 15.973 31.626l61.955 164.54c7.968 19.756 31.928 21.236 38.963 1.488l19.245-51.893 32.859 86.48c-15.973 29.158-31.435 36.305-49.765 42.967-21.346 6.68-46.932 4.477-65.245-6.9-6.086-3.947-22.059-14.318-32.86-40.516l-65.242-182.34v166.04l24.417-70.16 31.325 87.586c-4.569 20.113-19.116 36.918-36.021 44.822-18.495 8.717-40.554 5.629-57.276-4.945-16.651-12.354-21.348-26.929-22.061-52.872l0.22-179.6c1.9-29.908 21.017-46.192 37.794-53.484 7.657-2.7231 10.929-3.4641 19.719-3.6011z"/>
    <path d="m342.38 298.95c-15.15 0.266-33.572-5.428-46.019-20.734-5.629-5.445-15.955-31.625-15.955-31.625l-61.953-164.54c-7.986-19.784-31.928-21.264-38.964-1.499l-19.245 51.895-32.86-86.481c15.955-29.131 31.453-36.305 49.765-42.984 21.364-6.68 46.95-4.45 65.245 6.926 6.104 3.948 22.059 14.319 32.859 40.518l65.244 182.31v-166.01l-24.397 70.16-31.344-87.586c4.569-20.14 19.135-36.926 36.04-44.821 18.478-8.699 40.555-5.638 57.258 4.943 16.668 12.327 21.347 26.93 22.06 52.845l-0.237 179.62c-1.864 29.908-20.999 46.201-37.795 53.484-7.6031 2.713-10.893 3.443-19.702 3.572z"/>
   </g>
  </g>
 </g>
 <g transform="translate(-193.89 -39.649)" fill="#22cffd">
  <path class="st0" d="m635.81 247.79c14.54 0 27.193 9.8779 27.193 29.746 0 16.315-9.6562 29.635-27.748 29.635-19.646 0-27.748-13.319-27.748-29.635-2e-4 -19.868 12.542-29.746 28.303-29.746zm-13.874 29.746c0 9.2119 3.1074 17.98 13.541 17.98 9.4346 0 13.652-8.7686 13.652-17.98 0-12.875-6.3271-18.092-13.319-18.092-7.6582 1e-4 -13.874 4.9942-13.874 18.092z"/>
  <path class="st0" d="m681.21 248.34 2.1094 10.322c3.7734-7.4365 11.543-10.766 19.867-10.877 13.652-0.1113 20.201 8.7686 20.201 20.756v37.959h-13.764v-33.52c0-8.8799-3.3291-13.652-10.877-13.652-10.544 0-14.651 8.5469-14.651 17.87v29.302h-13.763v-58.16z"/>
  <path class="st0" d="m761.69 248.34 2.5527 11.987c2.6641-8.8799 9.4346-12.764 18.869-12.542 2.5527 0.1113 4.6621 0.5547 5.9932 0.999l-2.1084 12.098c-1.665-0.5547-4.4395-1.2207-8.3242-1.1094-10.212 0.333-14.097 8.2129-14.097 17.536v29.192h-13.763v-58.16z"/>
  <path class="st0" d="m791.54 252c5.1055-1.665 12.875-4.2178 21.977-4.2178 17.537 0.1113 23.975 8.6572 23.975 22.198v23.53c0 1.665 0.666 3.1084 2.7744 3.3301 2.3311 0.2217 4.5508-0.666 4.5508-0.666v9.2119c-1.8867 0.7773-4.6611 1.7764-9.2119 1.7764-5.5498 0-9.2129-3.3301-10.545-7.8809-1.7754 1.4434-7.5469 7.8809-17.536 7.8809-11.321 0-19.757-5.7715-19.868-17.87-0.2217-12.542 9.1016-18.425 23.642-18.425 4.4395 0 9.6562 0.666 12.542 1.1104v-3.4404c0-6.3271-3.9951-9.7676-11.987-9.6572-10.322 0-17.98 3.5518-17.98 3.5518zm32.188 27.193c-1.998-0.333-7.1035-0.8887-11.321-0.666-6.6602 0.333-10.878 3.4404-10.988 9.3232 0 5.3271 3.3291 8.6572 9.4336 8.5459 6.1055-0.1104 10.767-3.1074 12.876-4.6611z"/>
  <path class="st0" d="m903.87 221.7v84.798h-11.544l-1.5537-9.9893c-3.4404 5.8828-8.9902 10.544-18.535 10.655-15.65 0.2217-24.974-12.765-24.974-29.857 0-20.866 13.319-29.524 24.862-29.524 7.9912 0 14.983 3.8848 17.87 10.988v-35.296zm-42.399 55.496c0 9.8779 3.8848 17.648 14.207 17.648 9.9893 0 14.651-7.7695 14.651-17.537 0-13.208-7.1035-17.98-14.763-17.98-7.6582 0-14.096 5.1055-14.096 17.87z"/>
  <path class="st0" d="m931.18 248.34v58.16h-13.874v-46.728h-8.1025v-11.433h21.976zm-6.9922-22.642c4.4395 0 8.2129 2.6641 8.2129 6.9932 0 4.7725-3.7734 7.2139-8.2129 7.2139-5.2168 0-8.1025-3.3291-8.1025-7.3252 0-3.7736 2.8857-6.8819 8.1025-6.8819z"/>
  <path class="st0" d="m966.7 247.79c14.54 0 27.193 9.8779 27.193 29.746 0 16.315-9.6562 29.635-27.748 29.635-19.646 0-27.748-13.319-27.748-29.635-1e-4 -19.868 12.542-29.746 28.303-29.746zm-13.874 29.746c0 9.2119 3.1074 17.98 13.541 17.98 9.4346 0 13.652-8.7686 13.652-17.98 0-12.875-6.3271-18.092-13.319-18.092-7.6582 1e-4 -13.874 4.9942-13.874 18.092z"/>
 </g>
</svg>
