<svg width="406.05pt" height="207.11pt" version="1.1" viewBox="0 0 406.05 207.11" xmlns="http://www.w3.org/2000/svg">
 <g transform="matrix(1.928 0 0 1.928 -8.6865 218.93)" fill="#e633cc">
  <path d="m4.5055-113.13h9q1.98 0 3.6 0.51 1.62 0.48 2.76 1.44 1.14 0.93 1.74 2.31 0.63 1.38 0.63 3.12v0.06q0 1.86-0.69 3.27-0.66 1.41-1.86 2.37t-2.88 1.44q-1.65 0.48-3.6 0.48h-2.88v6h-5.82zm8.58 10.44q1.56 0 2.43-0.72 0.9-0.75 0.9-2.01v-0.06q0-1.35-0.9-2.04-0.87-0.72-2.46-0.72h-2.73v5.55z"/>
  <path d="m29.812-113.28h5.61l8.94 21.15h-6.24l-1.53-3.75h-8.1l-1.5 3.75h-6.12zm5.1 12.87-2.34-5.97-2.37 5.97z"/>
  <path d="m46.4-113.13h5.82v15.9h10.17v5.1h-15.99z"/>
  <path d="m64.857-113.13h6.15l5.01 8.13 5.01-8.13h6.15v21h-5.79v-12.06l-5.37 8.22h-0.12l-5.34-8.16v12h-5.7z"/>
  <path d="m90.873-113.13h16.89v4.95h-11.13v3.18h10.08v4.59h-10.08v3.33h11.28v4.95h-17.04z"/>
  <path d="m110.91-113.13h9.93q2.43 0 4.11 0.6t2.73 1.68q1.86 1.8 1.86 4.89v0.06q0 2.43-1.17 4.02t-3.15 2.43l5.01 7.32h-6.72l-4.23-6.36h-2.55v6.36h-5.82zm9.66 10.08q1.5 0 2.31-0.66 0.81-0.69 0.81-1.83v-0.06q0-1.26-0.84-1.86-0.84-0.63-2.31-0.63h-3.81v5.04z"/>
  <path d="m140.72-91.774q-2.82 0-5.37-0.87-2.52-0.87-4.47-2.61l3.24-3.87q3.15 2.52 6.81 2.52 1.17 0 1.77-0.36 0.63-0.39 0.63-1.08v-0.06q0-0.33-0.15-0.57-0.15-0.27-0.57-0.51-0.39-0.24-1.08-0.45-0.66-0.24-1.74-0.48-1.68-0.39-3.12-0.84-1.44-0.48-2.52-1.2-1.05-0.75-1.68-1.83-0.6-1.11-0.6-2.73v-0.06q0-1.47 0.54-2.7 0.57-1.23 1.62-2.13 1.08-0.9 2.58-1.38 1.5-0.51 3.39-0.51 2.7 0 4.8 0.72 2.13 0.69 3.84 2.07l-2.91 4.11q-1.44-1.02-2.97-1.53-1.5-0.54-2.91-0.54-1.05 0-1.59 0.39-0.51 0.39-0.51 0.96v0.06q0 0.36 0.15 0.63 0.18 0.27 0.57 0.51 0.42 0.21 1.11 0.45 0.72 0.21 1.8 0.45 1.8 0.39 3.24 0.93 1.47 0.51 2.49 1.26t1.56 1.83q0.54 1.05 0.54 2.52v0.06q0 1.62-0.63 2.88-0.6 1.26-1.71 2.16-1.11 0.87-2.67 1.35-1.56 0.45-3.48 0.45z"/>
  <path d="m156.59-108.03h-6.3v-5.1h18.42v5.1h-6.3v15.9h-5.82z"/>
  <path d="m180.94-91.714q-2.43 0-4.5-0.84-2.07-0.87-3.57-2.34t-2.37-3.45q-0.84-1.98-0.84-4.23v-0.06q0-2.25 0.84-4.23 0.87-2.01 2.4-3.48 1.53-1.5 3.6-2.34 2.07-0.87 4.5-0.87t4.5 0.87q2.07 0.84 3.57 2.31t2.34 3.45q0.87 1.98 0.87 4.23v0.06q0 2.25-0.87 4.26-0.84 1.98-2.37 3.48-1.53 1.47-3.6 2.34-2.07 0.84-4.5 0.84zm0.06-5.25q1.2 0 2.19-0.45t1.68-1.2q0.69-0.78 1.08-1.8t0.39-2.16v-0.06q0-1.14-0.39-2.16t-1.11-1.8-1.71-1.23q-0.99-0.48-2.19-0.48t-2.19 0.45q-0.96 0.45-1.68 1.23-0.69 0.75-1.08 1.77-0.36 1.02-0.36 2.16v0.06q0 1.14 0.39 2.16t1.08 1.8q0.72 0.78 1.71 1.26 0.99 0.45 2.19 0.45z"/>
  <path d="m195.29-113.13h5.43l8.64 11.1v-11.1h5.76v21h-5.1l-8.97-11.52v11.52h-5.76z"/>
 </g>
 <g transform="translate(-16.425 221.77)" fill="#e633cc">
  <path d="m28.351-78.205h66.224v15.171h-43.282v10.62h39.143v14.368h-39.143v22.311h-22.942z"/>
  <path d="m103.72-78.205h25.799l21.017 24.185 21.017-24.185h25.799v62.471h-24.289v-35.876l-22.527 24.453h-0.50339l-22.401-24.274v35.698h-23.911z"/>
  <path d="m285.62-14.663q-8.3516 0-15.378-1.3387t-12.063-3.7482q-5.0375-2.4096-7.9539-5.7116-2.7839-3.3913-2.7839-7.4965v-0.17849q0-5.7116 4.1095-9.2814 4.2421-3.5698 11.798-5.7116-5.4352-2.0526-9.147-5.2654-3.5793-3.2128-3.5793-8.2997v-0.17849q0-3.7482 2.5187-6.8718 2.5187-3.2128 7.1585-5.5331 4.6398-2.4096 11.003-3.659 6.4957-1.3387 14.317-1.3387t14.184 1.3387q6.4957 1.2494 11.135 3.659 4.6398 2.3203 7.1585 5.5331 2.5187 3.1235 2.5187 6.8718v0.17849q0 5.0869-3.7118 8.2997-3.5793 3.2128-9.0144 5.2654 3.5793 1.0709 6.4957 2.4988 2.9164 1.3387 4.9049 3.1235 2.121 1.7849 3.3141 4.1052 1.1931 2.2311 1.1931 5.1761v0.17849q0 4.1945-2.9164 7.5857-2.7839 3.3913-7.8214 5.8008-5.0375 2.4096-12.063 3.7482-7.026 1.2494-15.378 1.2494zm0-38.196q5.17 0 8.219-1.8741 3.1816-1.9634 3.1816-4.9084v-0.17849q0-2.5881-3.049-4.5514-3.049-2.0526-8.3516-2.0526t-8.3516 1.9634q-3.049 1.9634-3.049 4.5514v0.17849q0 2.945 3.049 4.9084 3.1816 1.9634 8.3516 1.9634zm0 25.256q6.4957 0 9.9424-2.0526 3.4467-2.1419 3.4467-4.9977v-0.17849q0-3.0343-3.7118-4.9084t-9.6773-1.8741-9.6772 1.8741q-3.7118 1.8741-3.7118 4.9084v0.17849q0 2.8558 3.4467 4.9977 3.4467 2.0526 9.9424 2.0526z"/>
  <path d="m372.37-14.663q-8.3516 0-15.378-1.3387t-12.063-3.7482q-5.0375-2.4096-7.9539-5.7116-2.7839-3.3913-2.7839-7.4965v-0.17849q0-5.7116 4.1095-9.2814 4.2421-3.5698 11.798-5.7116-5.4352-2.0526-9.147-5.2654-3.5793-3.2128-3.5793-8.2997v-0.17849q0-3.7482 2.5187-6.8718 2.5187-3.2128 7.1585-5.5331 4.6398-2.4096 11.003-3.659 6.4957-1.3387 14.317-1.3387t14.184 1.3387q6.4957 1.2494 11.135 3.659 4.6398 2.3203 7.1585 5.5331 2.5187 3.1235 2.5187 6.8718v0.17849q0 5.0869-3.7118 8.2997-3.5793 3.2128-9.0144 5.2654 3.5793 1.0709 6.4957 2.4988 2.9164 1.3387 4.9049 3.1235 2.121 1.7849 3.3141 4.1052 1.1931 2.2311 1.1931 5.1761v0.17849q0 4.1945-2.9164 7.5857-2.7839 3.3913-7.8214 5.8008-5.0375 2.4096-12.063 3.7482-7.026 1.2494-15.378 1.2494zm0-38.196q5.17 0 8.219-1.8741 3.1816-1.9634 3.1816-4.9084v-0.17849q0-2.5881-3.049-4.5514-3.049-2.0526-8.3516-2.0526t-8.3516 1.9634q-3.049 1.9634-3.049 4.5514v0.17849q0 2.945 3.049 4.9084 3.1816 1.9634 8.3516 1.9634zm0 25.256q6.4957 0 9.9424-2.0526 3.4467-2.1419 3.4467-4.9977v-0.17849q0-3.0343-3.7118-4.9084t-9.6772-1.8741-9.6773 1.8741q-3.7118 1.8741-3.7118 4.9084v0.17849q0 2.8558 3.4467 4.9977 3.4467 2.0526 9.9424 2.0526z"/>
 </g>
 <g transform="translate(16.532 -.74635)" fill="#fff" stroke="#000" stroke-width="1.5">
  <path d="m213.77 60.029h56.218v45.644h2.6025l-1e-5 -26.926h43.521l1e-5 41.001 12.11-1e-5v17.572h-6.8932v-11.89l-12.186-1e-5 -1e-5 -40.755h-30.211v26.031h-16.683l1e-5 -44.692-41.408 1e-6 1e-5 39.171 11.077 0.19167 1e-5 14.284-39.292-1e-5v-49.85l-26.69-3e-6 -1e-5 36.335-24.599-1e-5 1e-5 -19.18h-37.088v36.48h-51.503v13.876h-7.9725v-19.97l52.151 1e-5 -1e-5 -36.505h51.64l-1e-5 19.12 10.226 1e-5v-35.949l41.211-1e-6v49.424l24.562 0.11901-1e-5 -2.6557-10.792-1e-5 -1e-5 -50.875z"/>
  <path d="m124.89 104.86h7.7123l-1e-5 6.2092h-7.7122z"/>
  <path d="m63.449 126.83h7.7123l-1e-5 6.2092h-7.7123z"/>
  <path d="m77.442 126.83h7.7123l-1e-5 6.2092h-7.7122z"/>
  <path d="m124.89 116.5h7.7123l-1e-5 6.2092h-7.7122z"/>
  <path d="m143.15 116.5h7.7123l-1e-5 6.2092h-7.7122z"/>
  <path d="m176.17 116.5h7.7122l-1e-5 6.2092h-7.7122z"/>
  <path d="m260.91 116.5h7.7122l-1e-5 6.2092h-7.7122z"/>
  <path d="m274.46 116.5h7.7123l-1e-5 6.2092h-7.7122z"/>
  <path d="m289.81 116.5h7.7123l-1e-5 6.2092h-7.7122z"/>
  <path d="m124.89 93.218h7.7123l-1e-5 6.2092h-7.7122z"/>
  <path d="m111.01 93.218h7.7123l-1e-5 6.2092h-7.7122z"/>
  <path d="m176.17 87.495h7.7122l-1e-5 6.2092h-7.7122z"/>
  <path d="m176.17 77.148h7.7122l-1e-5 6.2092h-7.7122z"/>
  <path d="m289.81 104.86h7.7123l-1e-5 6.2092h-7.7122z"/>
  <path d="m289.81 93.218h7.7123l-1e-5 6.2092h-7.7122z"/>
  <path d="m242.45 93.218h7.7123l-1e-5 6.2092h-7.7122z"/>
  <path d="m242.45 81.286h7.7123l-1e-5 6.2092h-7.7122z"/>
  <path d="m228.88 81.286h7.7123l-1e-5 6.2092h-7.7122z"/>
  <path d="m228.88 70.939h7.7123l-1e-5 6.2092h-7.7122z"/>
 </g>
</svg>
