<svg width="414.06pt" height="283.11pt" version="1.1" viewBox="0 0 414.06 283.11" xmlns="http://www.w3.org/2000/svg">
 <path d="m171.53 202.17c7.2 0.05 14.4-0.07 21.6 0.05 4.02 0.08 8.32 1.52 10.7 4.94 3.99 5.89 1.86 15.65-5.38 17.88 2.12 0.81 4.4 1.93 5.19 4.25 2.13 5.53 0.33 11.97 3.54 17.19-2.33-0.02-4.65-0.05-6.98-0.16-1.07-5.03-0.25-10.4-2.24-15.22-0.78-2.04-2.84-3.37-4.98-3.42-5.16-0.3-10.34-0.02-15.5-0.12-0.04 6.29 0 12.58-0.02 18.88-1.98 0-3.96-0.01-5.94 0.01 0-14.76-0.01-29.52 0.01-44.28m5.93 5.03c0.01 5.11 0 10.23 0.01 15.35 5.83-0.26 11.8 0.67 17.53-0.71 6.76-1.64 6.39-13.31-0.55-14.35-5.64-0.66-11.34-0.14-16.99-0.29z" fill="#fff"/>
 <path d="m264.96 202.18h5.31c0.01 14.75 0.01 29.51 0 44.26-1.78-0.01-3.56-0.01-5.34 0 0.03-1.05 0.09-3.17 0.12-4.23-5.2 7.58-18.22 6.22-22.55-1.62-3.76-6.72-3.6-15.87 1.1-22.09 5.15-6.48 16.28-6.52 21.44-0.01-0.17-5.44-0.06-10.88-0.08-16.31m-12.53 16.5c-3.06 0.74-5.27 3.44-6.08 6.39-1.3 4.58-1.21 10.02 1.76 13.96 3.43 4.63 11.44 4.61 14.68-0.22 2.91-4.5 3.03-10.57 0.85-15.39-1.87-4.15-6.97-5.92-11.21-4.74z" fill="#fff"/>
 <path d="m276.32 202.18c1.77 0 3.55 0 5.33 0.01-0.01 2.16-0.01 4.33 0 6.5-1.78 0-3.56 0-5.32 0.01-0.01-2.18-0.01-4.35-0.01-6.52z" fill="#fff"/>
 <path d="m324.02 206.01c4.24-4.16 11.04-4.24 16.32-2.31 5.24 1.9 7.81 8.27 6.12 13.42-0.87 2.65-3.11 4.49-5.35 5.98 9.07 2.01 10.05 15.15 3.49 20.47-5.39 4.37-13.63 4.79-19.61 1.4-4.26-2.43-5.97-7.48-6.04-12.14 1.76-0.02 3.53-0.03 5.29-0.04 0.26 4.43 2.93 9.21 7.8 9.56 5.97 1.3 12.75-4 10.92-10.38-1.06-5.54-7.49-6.89-12.27-6.22 0-1.47 0-2.92 0.01-4.37 4.69 0.66 11.03-1.69 10.62-7.35 0.19-6.28-8.2-8.71-12.62-5.33-2.58 1.83-3.09 5.13-3.49 8.05-1.77 0-3.54 0-5.3 0.01 0.34-3.86 1.22-7.96 4.11-10.75z" fill="#fff"/>
 <path d="m214.23 216.18c4.3-2.93 9.95-2.93 14.89-2.01 3.44 0.56 6.51 3.38 6.62 7 0.34 7.02-0.19 14.06 0.29 21.08 0.78 0.03 2.34 0.08 3.12 0.1-0.08 1.47-0.19 2.95-0.28 4.43-2.41 0.25-5.65 1.13-7.25-1.3-0.24-0.75-0.73-2.23-0.97-2.98-4.11 4.62-11.16 5.85-16.8 3.59-6.35-2.46-6.57-12.86-0.51-15.78 4.75-2.51 10.35-2.01 15.32-3.78 3.15-1.32 2.14-6.39-0.77-7.41-4.64-1.89-12.05-0.83-12.53 5.26-1.76 0-3.51-0.01-5.26-0.01 0.4-3.09 1.39-6.38 4.13-8.19m3.78 16.74c-3.54 1.01-4.71 6.42-1.51 8.49 3.8 1.96 9 1.18 12.08-1.82 2.53-2.44 1.84-6.22 2.03-9.37-4.08 1.47-8.52 1.3-12.6 2.7z" fill="#fff"/>
 <path d="m276.33 214.37h5.31c-0.02 10.71 0.08 21.42-0.05 32.13-1.77-0.05-3.54-0.09-5.31-0.12 0.11-10.67 0-21.34 0.05-32.01z" fill="#fff"/>
 <path d="m295.43 214.59c6.24-2.15 14.2-0.81 18.18 4.84 4.15 6.05 4.29 14.6 0.68 20.94-5.52 9.53-21.88 9.03-26.6-1.02-4.17-8.41-1.97-21.34 7.74-24.76m4 3.93c-8.05 1.64-9.78 12.2-6.63 18.62 2.28 5.15 9.45 7 13.93 3.59 4.8-3.62 5.35-10.69 3.48-16.01-1.48-4.34-6.26-7.22-10.78-6.2z" fill="#fff"/>
 <g transform="matrix(.94498 0 0 .94498 -149.16 550.18)" fill="#fff">
  <g transform="matrix(1.4437 0 0 1.4437 -105.43 -917.76)" fill="#fff">
   <path d="m182.38 346.6c10.131-9.7379 19.358-23.01 26.17-38.696 6.8126-15.706 10.189-31.511 10.366-45.568l-0.1178 0.1178c-10.091 9.7182-19.279 22.951-26.072 38.598-6.7733 15.628-10.15 31.373-10.366 45.391"/>
   <path d="m193.34 368.63c13.647-13.063 26.075-30.864 35.271-51.954 9.1962-21.11 13.779-42.345 14.064-61.249l-0.17612 0.15474c-13.588 13.044-25.978 30.825-35.134 51.838-9.1567 21.013-13.739 42.17-14.063 61.015"/>
   <path d="m208.21 399.51c18.559-17.759 35.491-41.949 47.996-70.605 12.525-28.655 18.798-57.539 19.202-83.231l-0.24197 0.19716c-18.479 17.74-35.33 41.871-47.814 70.427s-18.736 57.32-19.198 82.912"/>
   <path d="m228.74 439.94c24.957-23.973 47.678-56.673 64.424-95.325 16.785-38.672 25.113-77.622 25.554-112.25l-0.31829 0.27585c-24.839 23.973-47.459 56.555-64.165 95.089s-25.014 77.662-25.514 112.17"/>
  </g>
 </g>
 <g transform="matrix(.414 0 0 .414 -62.118 46.081)" fill="#fff">
  <path d="m703.58 185.78h39.82c-0.93811-43.827-34.38-73.695-88.25-73.695-46.017 0-82.778 27.208-82.778 66.917 0 88.635 137.22 45.639 137.22 104.83 0 23.23-23.197 34.953-47.597 34.953-33.359 0-56.898-16.105-58.47-48.767h-39.442c0 60.35 48.748 80.774 93.943 80.774 52.858 0 91.485-24.9 91.485-70 0-91.446-137.67-50.684-137.67-106.35 0-18.923 17.558-29.235 42.151-29.235 36.54 0 47.652 19.039 49.586 40.576z"/>
  <path d="m764.66 117.54v227.69h111.14c43.989 0 77.486-21.436 77.486-63.255 0-29.147-10.254-48.93-42.549-59.27 17.898-7.7594 31.734-19.808 31.734-49.309 0-37.636-24.99-55.855-66.386-55.855zm39.632 31.877h64.678c25.176 0 34.723 14.336 34.723 31.948 0 19.938-13.386 31.805-32.446 31.805h-66.955zm3e-4 92.442h69.766c27.829 0 39.951 15.383 39.951 35.846 0 22.492-18.151 35.648-38.778 35.648h-70.939z"/>
  <path d="m1103.5 185.78h39.82c-0.9381-43.827-34.38-73.695-88.25-73.695-46.017 0-82.778 27.208-82.778 66.917 0 88.635 137.22 45.639 137.22 104.83 0 23.23-23.197 34.953-47.597 34.953-33.359 0-56.898-16.105-58.47-48.767h-39.442c0 60.35 48.748 80.774 93.943 80.774 52.858 0 91.485-24.9 91.485-70 0-91.446-137.67-50.684-137.67-106.35 0-18.923 17.558-29.235 42.151-29.235 36.54 0 47.652 19.039 49.586 40.576z"/>
 </g>
</svg>
