<svg width="790.43" height="800" space="preserve" version="1.1" viewBox="0 0 790.43 800" xmlns="http://www.w3.org/2000/svg">
 <link href="" rel="stylesheet" type="text/css"/>
 <style type="text/css"/>
 <style type="text/css">.st0{fill:#458328;}</style>
 <g transform="scale(.58043)">
  <rect x="178.96" y="1078.1" width="15.498" height="87.636"/>
  <rect x="288.62" y="1078.2" width="15.498" height="15.939"/>
  <rect x="86.188" y="1098.6" width="15.498" height="67.198"/>
  <polygon points="16.286 1078.1 16.286 1098.6 0 1098.6 0 1114.1 16.286 1114.1 16.286 1165.8 31.784 1165.8 31.784 1114.1 48.11 1114.1 48.11 1098.6 31.784 1098.6 31.784 1078.1"/>
  <path d="m46.865 1132.6v33.168h15.503v-33.168c0-10.252 8.3108-18.563 18.563-18.563v-15.503c-18.813 0-34.063 15.253-34.065 34.065z"/>
  <path d="m141.01 1098.5c-18.812 0-34.06 15.254-34.06 34.065v52.802h15.498v-18.736h18.563c18.814 0 34.065-15.252 34.065-34.065 0-18.814-15.252-34.065-34.065-34.065zm0 52.628h-18.563v-18.563c8e-3 -10.255 8.3279-18.561 18.582-18.553 10.255 0.01 18.561 8.3279 18.553 18.582-8e-3 10.251-8.3218 18.556-18.573 18.553v-0.02z"/>
  <path d="m288.62 1098.6v52.782c0 10.252-8.3107 18.563-18.563 18.563h-5e-3v15.483c18.814 0 34.065-15.252 34.065-34.065v-52.762h-15.498z"/>
  <path d="m232.25 1098.1c-18.812-0.2271-34.247 14.839-34.474 33.652-0.2271 18.812 14.839 34.247 33.652 34.474h19.92v-15.513h-19.098c-7.5482-2e-4 -14.345-4.5701-17.194-11.56h51.254v-7.0026c-5e-3 -18.807-15.253-34.05-34.06-34.05zm-16.51 25.57c4.6892-9.1166 15.881-12.706 24.998-8.0165 3.4427 1.7709 6.2456 4.5737 8.0164 8.0165z"/>
 </g>
 <g fill="#458328">
  <g transform="scale(.58043)">
   <path class="st0" d="m597.32 1030.1c-37.39-6.0559-72.854-16.332-104.67-37.482-27.114-18.03-43.882-43.446-56.384-73.152-34.752-82.58-70.72-164.75-106.21-247.07-1.858-4.3354-6.2852-9.4737-0.5505-13.236s8.9232 2.2939 12.02 5.7806c51.796 58.204 103.54 116.44 155.23 174.72 27.419 30.814 54.946 61.545 82.58 92.191 2.2938 2.6151 4.3354 7.3633 8.8773 5.8035 3.5096-1.1927 3.4867-5.5512 4.4042-8.7855 22.694-81.173 45.38-162.35 68.059-243.52 3.8996-13.97 7.7533-15.162 17.938-5.1842 58.983 57.729 117.92 115.49 176.81 173.28 1.9039 1.881 3.762 3.7849 5.6429 5.6888 6.1247 6.2164 9.4049 4.5878 11.056-3.6243 6.1171-30.677 12.372-61.323 18.764-91.939 17.846-86.632 35.716-173.27 53.608-259.92 0.3212-1.491 1.1011-2.8903 1.2845-4.3813 0.4817-3.8079 1.7433-6.6981 6.1935-6.744s5.3447 3.3491 5.7806 6.8817c2.8673 23.099 5.8494 46.176 8.6708 69.275 7.4168 60.604 14.773 121.21 22.067 181.81 3.739 31.312 10.735 62.531-1.7205 93.797-13.763 34.191-35.632 64.523-63.724 88.383-67.188 58.402-147.15 86.273-234.11 97.742-28.605 2.8215-66.958 3.6702-91.618-0.3211z"/>
   <path class="st0" d="m393.17 0c12.249 4.863 17.686 14.841 22.09 26.678 31.243 84.323 62.799 168.54 94.668 252.65 2.9132 7.7533 2.1333 11.102-6.1017 14.038-20.806 7.4322-20.645 7.8221-29.362-12.456-33.965-78.328-67.945-156.67-101.94-235.03-10.942-25.233-10.254-28.444 9.1755-45.878z"/>
   <path class="st0" d="m37.618 525.3c7.4551-15.438 20.003-18.993 36.404-18.466 64.458 2.0416 128.96 3.0968 193.47 4.2666 6.4458 0.1147 8.9232 1.1469 9.3361 8.6479 0 1.1011 0.2065 2.2939 0.367 3.4179 3.0738 23.994 3.0738 23.971-21.884 24.682-60.65 1.7433-121.32 3.0508-181.95 5.597-16.676 0.7111-28.857-2.9132-35.739-18.97v-9.1753z"/>
   <path class="st0" d="m718.65 302.56c-1.9498 26.104-3.6931 51.842-26.242 69.573-22.549 17.732-47.942 9.7719-73.129 6.5605 7.5239 6.8816 15.231 13.121 21.723 20.645 20.966 24.269 21.425 44.777 1.3763 69.573-8.3268 10.3-18.351 18.947-28.696 28.605 12.593 1.101 23.375-3.6931 34.729-4.3583 47.369-2.8215 63.793 9.5425 73.152 55.764 0.8257 4.106 1.6974 8.2121 2.7985 13.58 5.4365-13.35 7.7074-26.517 13.35-38.583 13.052-27.848 30.944-36.542 61.361-28.995 9.1755 2.2939 18.168 4.886 28.674 7.7304-5.3447-12.685-11.102-23.673-13.029-36.106-2.6379-16.929 2.2939-27.205 17.778-35.716 14.406-7.8451 30.44-11.882 48.309-20.026-14.222-1.6057-25.714 0-36.932-2.2939-18.213-3.7161-24.178-14.796-14.245-30.348 14.612-22.801 35.624-39.638 55.856-57.095 4.886-4.2207 7.5469-0.4588 10.483 2.4545 30.417 30.142 38.583 65.834 25.233 106.16-12.089 36.702-36.519 65.077-65.215 89.76-66.522 57.141-144.97 89.461-229.39 108.78-42.077 9.9293-85.232 14.553-128.46 13.763-48.057-1.124-95.173-7.7074-138.85-29.614-24.728-12.387-45.763-29.04-58.999-54.067-6.3082-11.928-5.4824-13.373 7.5239-13.763 42.001-1.3076 84.025-2.4315 126.03-3.9684 4.8791-0.3391 9.6184 1.7142 12.708 5.5052 10.032 10.407 26.601 10.711 37.008 0.6794 10.407-10.032 10.711-26.601 0.6794-37.008-10.032-10.407-26.601-10.711-37.008-0.6794-0.1051 0.1011-0.209 0.2032-0.3124 0.3062-5.1154 5.3907-10.231 6.6064-17.066 6.4458-42.804-1.0323-85.585-2.0875-128.46-2.2939-10.942 0-12.777-4.2666-11.102-13.763 5.987-33.995 23.398-61.935 46.336-86.64 40.694-44.02 91.021-73.817 145.32-97.719 5.9411-2.615 8.7168-1.5598 11.194 4.4272 7.7533 18.695 15.897 37.23 24.178 55.672 1.5632 3.4404 1.3318 7.4301-0.6194 10.666-6.8816 15.254-1.4681 29.82 13.006 36.289 13.169 5.7099 28.473-0.3368 34.184-13.506 0.0929-0.2145 0.1831-0.4304 0.2703-0.6473 5.8723-13.763-0.39-28.559-15.208-34.546-4.3467-1.3538-7.7671-4.7314-9.1755-9.0608-6.6064-18.351-13.35-36.564-20.645-54.617-2.7756-6.8816-0.7111-9.1755 5.7576-11.332 84.277-27.114 169.93-40.212 258.29-25.508 10.873 1.7892 21.517 4.7483 32.275 7.2028 4.9548 1.1469 7.7074 2.7297 3.3032 8.2121-15.3 19.062-30.509 38.239-49.594 53.768-14.36 11.676-26.288 9.4278-35.739-6.5605-2.9174-5.3576-5.5214-10.88-7.7992-16.539-2.3857-5.597-4.6337-11.194-6.9734-16.768z"/>
   <path class="st0" d="m743.63 447.31c-15.19 0.6272-28.012-11.178-28.639-26.368-5e-3 -0.111-8e-3 -0.2223-0.0117-0.3333-0.5276-14.841 10.575-27.94 25.508-28.306 6.0253 0.025 11.694-2.8522 15.231-7.7304 71.753-84.109 143.63-168.22 215.62-252.33 8.1662-9.5196 15.461-19.796 25.003-28.146 10.988-9.5884 23.581-10.093 32.596-0.8946 9.4967 9.6572 9.9325 23.26 0.2982 33.881-13.327 14.681-27.16 28.949-40.808 43.354-49.12 51.796-98.254 103.59-147.4 155.39-21.792 22.939-43.607 45.878-65.444 68.816-3.395 3.5555-5.7117 6.3082-4.7942 12.57 2.2941 15.988-11.171 29.889-27.159 30.096z"/>
  </g>
  <g transform="scale(.58043)">
   <polygon class="st0" points="789.82 1172.1 789.82 1220 751.7 1220 751.7 1256.2 789.82 1256.2 789.82 1377.2 826.09 1377.2 826.09 1256.2 864.3 1256.2 864.3 1220 826.09 1220 826.09 1172.1"/>
   <path class="st0" d="m665.76 1299.6v77.627h36.283v-77.627c0-23.994 19.451-43.445 43.445-43.445v-36.283c-44.03 0.01-79.722 35.698-79.728 79.728z"/>
   <path class="st0" d="m415.64 1218.8c-44.03-0.5315-80.153 34.73-80.685 78.76s34.731 80.153 78.76 80.685c0.6415 0.01 1.2833 0.01 1.9248 0h44.698v-36.307h-44.698c-17.666-6e-4 -33.574-10.696-40.241-27.056h119.96v-16.389c-0.0128-44.017-35.699-79.694-79.717-79.694zm-38.64 59.846c10.975-21.337 37.169-29.737 58.506-18.762 8.0576 4.1444 14.618 10.704 18.762 18.762z"/>
   <path class="st0" d="m1117.3 1218.8c-44.029-0.5315-80.153 34.73-80.685 78.76s34.73 80.153 78.76 80.685c0.6415 0.01 1.2833 0.01 1.9248 0h44.698v-36.307h-44.698c-17.666-6e-4 -33.574-10.696-40.241-27.056h119.96v-16.389c-0.013-44.017-35.699-79.694-79.717-79.694zm-38.64 59.846c10.975-21.337 37.169-29.737 58.506-18.762 8.0576 4.1444 14.618 10.704 18.762 18.762z"/>
   <path class="st0" d="m123.19 1218.8v79.728c0 24.004-19.459 43.462-43.462 43.462-24.004 0-43.462-19.459-43.462-43.462v-79.728h-36.266v79.728c0 44.033 35.696 79.728 79.728 79.728s79.728-35.696 79.728-79.728v-79.728z"/>
   <path class="st0" d="m204.65 1378.3v-79.728c0-24.004 19.459-43.462 43.462-43.462 24.004 0 43.462 19.459 43.462 43.462v79.728h36.266v-79.728c0-44.033-35.696-79.728-79.728-79.728s-79.728 35.696-79.728 79.728v79.728z"/>
   <path class="st0" d="m951.76 1218.8c-16.036 0-30.954 4.7512-43.456 12.898v-58.548h-36.272v205.11h36.272v-79.952c0.1215-23.9 19.528-43.238 43.456-43.238 24.004 0 43.462 19.459 43.462 43.462v79.728h36.266v-79.728c0-44.033-35.696-79.728-79.728-79.728z"/>
   <path class="st0" d="m1325.5 1172.1v59.564c-12.5-8.1448-27.413-12.896-43.445-12.898-44.033 0-79.728 35.696-79.728 79.728 0 44.033 35.695 79.728 79.728 79.728l79.717 0.035v-206.16h-36.272zm-43.445 169.84v0.047c-23.991 0.01-43.449-19.43-43.468-43.422-0.019-24 19.421-43.472 43.422-43.491 24-0.019 43.472 19.421 43.491 43.422v43.445z"/>
   <path class="st0" d="m578.75 1218.8c-44.033 0-79.728 35.695-79.728 79.728s35.696 79.728 79.728 79.728l27.879 0.012v-36.296h-27.879v0.046c-23.991 0.01-43.449-19.43-43.468-43.422-0.0193-24 19.421-43.472 43.422-43.491 24-0.019 43.472 19.421 43.491 43.422v79.747l36.272 0.016v-79.763c0-44.028-35.689-79.722-79.717-79.728z"/>
  </g>
 </g>
</svg>
