<svg width="619.99" height="800" version="1.1" viewBox="0 0 619.99 800" xml:space="preserve" xmlns="http://www.w3.org/2000/svg"><g transform="matrix(1.3333 0 0 -1.3333 83.838 1071)"><g transform="matrix(23.449 0 0 23.449 1411.6 -4562.8)"><path d="m-47.058 228.84s-0.427-0.319-0.427-0.854c0-0.536 0.427-0.855 0.427-0.855s0.427 0.319 0.427 0.855c0 0.535-0.427 0.854-0.427 0.854" fill="#79b943" fill-rule="evenodd"/><path d="m-45.429 228.1s-0.422 0.061-0.725-0.242-0.242-0.725-0.242-0.725 0.423-0.061 0.725 0.242c0.304 0.303 0.242 0.725 0.242 0.725" fill="#79b943" fill-rule="evenodd"/><path d="m-48.687 228.1s0.422 0.061 0.725-0.242 0.242-0.725 0.242-0.725-0.422-0.061-0.725 0.242-0.242 0.725-0.242 0.725" fill="#79b943" fill-rule="evenodd"/><path d="m-44.324 224.07c0-1.51-1.224-2.734-2.734-2.734s-2.734 1.224-2.734 2.734 1.224 2.734 2.734 2.734 2.734-1.224 2.734-2.734" fill="#f4a11e"/><path d="m-47.058 221.74 1.494 4.104c-0.404 0.339-0.925 0.544-1.494 0.544s-1.09-0.205-1.494-0.544z" fill="#eb6723"/><path d="m-57.654 228.34s-0.527 0.077-0.906-0.302-0.302-0.906-0.302-0.906 0.527-0.077 0.906 0.302 0.302 0.906 0.302 0.906" fill="#79b943" fill-rule="evenodd"/><path d="m-56.135 224.07c0-1.51-1.224-2.734-2.734-2.734s-2.734 1.224-2.734 2.734 1.224 2.734 2.734 2.734 2.734-1.224 2.734-2.734" fill="#e31e26"/><path d="m-58.869 226.39c-1.284 0-2.324-1.04-2.324-2.324 0-1.283 1.04-2.324 2.324-2.324z" fill="#ffdd9e"/><path d="m-59.517 224.9c0.166-0.166 0.14-0.511 0.14-0.511s-0.346-0.026-0.512 0.139c-0.103 0.103-0.102 0.269 0 0.372 0.103 0.103 0.269 0.103 0.372 0" fill="#0e0f0f"/><path d="m-59.517 223.24c0.166 0.166 0.139 0.511 0.139 0.511s-0.345 0.026-0.511-0.139c-0.103-0.103-0.103-0.269 0-0.372s0.269-0.103 0.372 0" fill="#0e0f0f"/><path d="m-50.229 224.07c0-1.51-1.224-2.734-2.734-2.734s-2.734 1.224-2.734 2.734 1.224 2.734 2.734 2.734 2.734-1.224 2.734-2.734" fill="#fed500"/><path d="m-55.264 224.54c-0.031-0.151-0.047-0.308-0.047-0.468v-3e-3c0-0.16 0.016-0.317 0.047-0.468h4.6c0.031 0.152 0.047 0.309 0.047 0.47 0 0.16-0.016 0.317-0.047 0.469z" fill="#0e0f0f"/><path d="m-54.841 222.66c0.428-0.57 1.11-0.939 1.878-0.939s1.449 0.369 1.878 0.939z" fill="#0e0f0f"/><path d="m-54.841 225.47h3.756c-0.429 0.57-1.11 0.939-1.878 0.939s-1.45-0.369-1.878-0.939" fill="#0e0f0f"/><path d="m-52.031 227.46-0.246-0.748c0.113-0.029 0.224-0.066 0.33-0.108l0.246 0.748c0.209 0.023 0.372 0.2 0.372 0.415 0 0.231-0.187 0.418-0.418 0.418s-0.419-0.187-0.419-0.418c0-0.121 0.052-0.231 0.135-0.307" fill="#0e0f0f"/><path d="m-54.225 227.35 0.246-0.748c0.106 0.043 0.216 0.079 0.33 0.108l-0.246 0.748c0.083 0.077 0.134 0.186 0.134 0.308 0 0.231-0.187 0.418-0.418 0.418s-0.418-0.187-0.418-0.418c0-0.216 0.163-0.393 0.372-0.416" fill="#0e0f0f"/></g><g transform="matrix(23.449 0 0 23.449 1411.6 -4562.8)" fill="#0cad4b"><path d="m-54.948 207.42c0.206 0 0.469-0.075 0.638-0.291 0.075-0.074 0.225-0.441 0.225-0.441l0.863-2.289c0.113-0.272 0.441-0.291 0.544-0.019l0.263 0.723 0.46-1.211c-0.226-0.403-0.441-0.497-0.694-0.591-0.3-0.093-0.657-0.065-0.91 0.094-0.085 0.057-0.31 0.197-0.46 0.563l-0.9 2.543v-2.317l0.337 0.975 0.432-1.22c-0.057-0.272-0.263-0.506-0.498-0.619-0.263-0.122-0.562-0.075-0.797 0.066-0.235 0.178-0.3 0.375-0.309 0.741v2.496c0.027 0.422 0.299 0.648 0.534 0.751 0.103 0.037 0.15 0.046 0.272 0.046m3.968-4.166c-0.206-9e-3 -0.459 0.075-0.638 0.282-0.074 0.075-0.225 0.44-0.225 0.44l-0.863 2.299c-0.103 0.272-0.441 0.291-0.534 0.019l-0.273-0.722-0.459 1.2c0.226 0.404 0.441 0.508 0.694 0.601 0.3 0.094 0.657 0.056 0.91-0.093 0.085-0.057 0.31-0.207 0.46-0.573l0.91-2.533v2.308l-0.348-0.976-0.431 1.22c0.065 0.281 0.263 0.516 0.497 0.629 0.263 0.121 0.573 0.074 0.799-0.075 0.234-0.169 0.3-0.376 0.308-0.733v-2.504c-0.028-0.414-0.29-0.639-0.525-0.742-0.112-0.037-0.159-0.047-0.282-0.047"/><path d="m-43.051 215.94c-0.022 0.459-0.212 1.094-0.996 1.508-0.436 0.231-0.948 0.339-1.356 0.421-0.736 0.147-0.988 0.295-0.958 0.609 0.028 0.284 0.351 0.436 0.758 0.436 0.609 0 0.853-0.197 1.222-0.349 0.3-0.123 0.795-0.192 1.025 0.235 0.22 0.41 0.011 0.757-0.258 0.982-0.312 0.261-1.027 0.59-1.999 0.59-1.145 0-2.321-0.624-2.321-2.016 0-0.635 0.319-1.59 2.217-1.923 0.522-0.092 1.093-0.239 1.093-0.652 0-0.417-0.478-0.546-0.954-0.546-0.538 0-1.084 0.291-1.365 0.467-0.417 0.263-0.815 0.233-1.059-0.026-0.252-0.268-0.274-0.604-0.021-0.947 0.028-0.039 0.713-0.943 2.412-0.943 0.888 0 1.597 0.252 2.052 0.729 0.359 0.376 0.534 0.869 0.508 1.425"/><path d="m-57.759 215.21-1.963 1.871 1.963 1.818c0.316 0.323 0.311 0.841-0.012 1.157-0.322 0.316-0.84 0.311-1.156-0.012l-2.315-2.321v1.8c0 0.452-0.367 0.819-0.818 0.819-0.452 0-0.819-0.367-0.819-0.819v-4.886c0-0.451 0.367-0.818 0.819-0.818 0.451 0 0.818 0.367 0.818 0.818v1.79l2.315-2.362c0.16-0.164 0.372-0.246 0.584-0.246 0.206 0 0.413 0.078 0.572 0.234 0.323 0.316 0.328 0.834 0.012 1.157"/><path d="m-55.986 213.82c-0.452 0-0.818 0.366-0.818 0.818v4.886c0 0.452 0.366 0.818 0.818 0.818s0.818-0.366 0.818-0.818v-4.886c0-0.452-0.366-0.818-0.818-0.818"/><path d="m-52.675 215.51h0.924c0.962 0 1.584 0.618 1.584 1.573 0 0.956-0.622 1.574-1.584 1.574h-0.924zm0.924-1.636h-1.742c-0.452 0-0.818 0.366-0.818 0.818v4.783c0 0.452 0.366 0.818 0.818 0.818h1.742c1.866 0 3.22-1.35 3.22-3.21 0-1.859-1.354-3.209-3.22-3.209"/><path d="m-49.397 210.4-1.419-0.819v1.638z"/><path d="m-59.724 213.07v-3.268c0-0.371 0.166-0.47 0.411-0.47 0.159 0 0.324 0.106 0.344 0.125l0.153-0.589c-0.093-0.06-0.385-0.239-0.749-0.239-0.689 0-0.98 0.464-0.98 1.093v3.167z"/><path d="m-57.7 212.1v-3.472h-0.828v2.79l3e-3 0.683z"/><path d="m-57.146 209.66s0.431-0.384 1.126-0.384c0.398 0 0.63 0.119 0.63 0.404 0 0.676-2.008 0.225-1.942 1.497 0.027 0.623 0.484 0.994 1.405 0.994 0.682 0 1.252-0.325 1.252-0.325l-0.291-0.583s-0.444 0.292-0.994 0.285c-0.325 0-0.596-0.106-0.583-0.377 0.04-0.55 1.968-0.126 1.968-1.465 0-0.715-0.643-1.086-1.465-1.08-0.894 7e-3 -1.424 0.451-1.424 0.451z"/><path d="m-53.237 213.12v-1.014h0.875l-0.113-0.662h-0.762v-1.59c0-0.378 0.172-0.524 0.45-0.524 0.213 0 0.471 0.133 0.524 0.153l0.152-0.63c-0.073-0.033-0.457-0.225-0.881-0.225-0.815 0-1.067 0.543-1.067 1.113v1.703h-0.483v0.662h0.523l0.1 0.921z"/><path d="m-47.899 212.1 0.126-0.616c0.225 0.444 0.689 0.642 1.186 0.649 0.815 7e-3 1.205-0.523 1.205-1.239v-2.266h-0.821v2.001c0 0.53-0.199 0.815-0.649 0.815-0.63 0-0.875-0.51-0.875-1.067v-1.749h-0.821v3.472z"/><path d="m-50.477 209.32c-0.597 0-1.081 0.484-1.081 1.081 0 0.596 0.484 1.081 1.081 1.081 0.596 0 1.081-0.484 1.081-1.081h0.691c0 0.978-0.793 1.772-1.772 1.772s-1.772-0.794-1.772-1.772c0-0.979 0.793-1.773 1.772-1.773 0.73 0 1.356 0.442 1.628 1.073h-0.805c-0.198-0.233-0.494-0.381-0.823-0.381"/><path d="m-57.648 212.96c0 0.258-0.208 0.466-0.466 0.466-0.257 0-0.465-0.208-0.465-0.466 0-0.257 0.208-0.466 0.465-0.466 0.258 0 0.466 0.209 0.466 0.466"/></g></g></svg>
