<?xml version="1.0" encoding="UTF-8"?>
<!-- Generator: Adobe Illustrator 23.0.3, SVG Export Plug-In . SVG Version: 6.00 Build 0)  -->
<svg id="Layer_1" width="1953.7" height="1877.3" xmlns:cc="http://creativecommons.org/ns#" xmlns:dc="http://purl.org/dc/elements/1.1/" xmlns:rdf="http://www.w3.org/1999/02/22-rdf-syntax-ns#" space="preserve" version="1.1" viewBox="0 0 1953.7 1877.3" xmlns="http://www.w3.org/2000/svg">
 <metadata id="metadata19">
  <rdf:RDF>
   <cc:Work rdf:about="">
    <dc:format>image/svg+xml</dc:format>
    <dc:type rdf:resource="http://purl.org/dc/dcmitype/StillImage"/>
    <dc:title/>
   </cc:Work>
  </rdf:RDF>
 </metadata>
 <link id="dark-mode" href="" rel="stylesheet" type="text/css"/>
 <style id="dark-mode-custom-style" type="text/css"/>
 <path id="path2" d="m651 0.70963c37.8-0.6 83.7 13.5 114.7 51.8 14 13.6 39.8 78.9 39.8 78.9l154.5 410.4c19.9 49.3 79.6 53 97.2 3.7l48-129.4 82 215.7c-39.8 72.7-78.4 90.6-124.1 107.2-53.2 16.7-117.1 11.2-162.8-17.2-15.2-9.8-55-35.7-82-101.1l-162.6-454.8v414.1l60.9-175 78.1 218.5c-11.4 50.2-47.7 92.1-89.9 111.8-46 21.8-101.1 14.1-142.8-12.3-41.5-30.8-53.2-67.2-55-131.9l0.5-448c4.8-74.6 52.5-115.2 94.3-133.4 19.1-6.8 27.3-8.7 49.2-9zm712 746.9c-37.8 0.7-83.7-13.5-114.8-51.7-14-13.6-39.8-78.9-39.8-78.9l-154.6-410.4c-19.9-49.4-79.6-53-97.2-3.7l-48 129.5-82-215.7c39.9-72.8 78.5-90.7 124.2-107.4 53.3-16.6 117.1-11.1 162.8 17.3 15.2 9.8 55 35.7 82 101.1l162.8 454.8v-414.1l-60.9 175-78.2-218.5c11.4-50.2 47.7-92.1 89.9-111.8 46-21.7 101.1-14.1 142.8 12.3 41.6 30.7 53.3 67.2 55 131.8l-0.6 448.1c-4.6 74.6-52.4 115.2-94.3 133.4-18.9 6.8-27.1 8.6-49.1 8.9z" fill="#fff"/>
 <g id="g12" transform="translate(0 .0096314)" fill="#fff">
  <path id="path4" d="m313 843.1v826.9c0 98.9-43 207.3-180.7 207.3-67.3 0.1-113.6-22.5-132.3-33.3l22-88.2c19.8 9.5 44.1 19.1 74.9 19.1 50.7 0 78.2-36.9 78.2-97.7v-834.1z"/>
  <path id="path6" d="m404.4 1092.2c50.7-17.9 127.8-45.3 218.2-45.3 174.1 1.2 238 92.9 238 238.3v252.6c0 17.9 6.6 33.4 27.5 35.7 23.1 2.4 45.2-7.1 45.2-7.1v98.9c-18.7 8.3-46.3 19.1-91.5 19.1-55.1 0-91.5-35.7-104.7-84.6-17.6 15.5-74.9 84.6-174.1 84.6-112.4 0-196.1-62-197.2-191.8-2.2-134.6 90.4-197.8 234.7-197.8 44.1 0 95.9 7.1 124.5 11.9v-36.9c0-67.9-39.7-104.9-119-103.7-102.5 0-178.5 38.1-178.5 38.1zm319.6 291.9c-19.8-3.6-70.5-9.5-112.4-7.1-66.1 3.6-108 36.9-109.1 100.1 0 57.2 33.1 92.9 93.7 91.8 60.6-1.2 106.9-33.4 127.8-50z"/>
  <path id="path8" d="m1431.4 1052.8 20.9 126.3-322.9 381.3h313l-12.1 116.8h-449.6l-16.5-112 337.2-394.4h-310.8v-118z"/>
  <path id="path10" d="m1932.8 1052.8 20.9 126.3-322.9 381.3h313l-12.1 116.8h-449.6l-16.5-112 337.2-394.4h-310.8v-118z"/>
 </g>
</svg>
