<svg width="800" height="689.91" space="preserve" version="1.1" viewBox="0 0 800 689.91" xmlns="http://www.w3.org/2000/svg">
 <g transform="scale(1.4679)">
  <path d="m113.46 190.36h-26.668v42.487h26.668c11.732 0 21.243-9.5109 21.243-21.243s-9.5109-21.243-21.243-21.243z"/>
  <path d="m324.5 232.95v89.751h-33.027l-66.055-108.99v108.99h-31.486v-160.73h34.349l66.403 109.65v-271.62l-203.93 46.545-90.755 188.46 90.755 188.46 203.93 46.545 163.54-130.42zm-188.04 89.751-31.486-63.413h-18.055v63.413h-32.587v-160.73h62.798c27.628 0 50.025 22.397 50.025 50.025 0 19.869-12.261 35.81-29.043 43.884l37.101 66.825h-38.752z"/>
 </g>
 <path class="st0" d="m522.94 0.22507c12.233-0.19216 27.107 4.3826 37.141 16.763 4.5449 4.3972 12.897 25.535 12.897 25.535l50.023 132.85c6.4334 15.951 25.779 17.146 31.459 1.2014l15.539-41.899 26.531 69.825c-12.897 23.542-25.381 29.313-40.181 34.692-17.235 5.3935-37.893 3.6148-52.679-5.5711-4.9138-3.1868-17.811-11.56-26.531-32.713l-52.677-147.22v134.06l19.715-56.648 25.292 70.718c-3.689 16.239-15.434 29.808-29.084 36.19-14.933 7.0382-32.744 4.5449-46.245-3.9926-13.444-9.9747-17.237-21.743-17.812-42.689l0.17762-145.01c1.5341-24.148 16.969-37.296 30.515-43.183 6.1823-2.1986 8.8242-2.7969 15.921-2.9075zm230.44 241.76c-12.232 0.21479-27.106-4.3826-37.156-16.741-4.5449-4.3963-12.882-25.534-12.882-25.534l-50.021-132.85c-6.448-15.974-25.779-17.169-31.46-1.2103l-15.539 41.9-26.531-69.825c12.882-23.521 25.395-29.313 40.181-34.706 17.249-5.3935 37.908-3.593 52.679 5.5921 4.9284 3.1877 17.811 11.561 26.531 32.715l52.679 147.2v-134.04l-19.698 56.648-25.307-70.718c3.689-16.261 15.45-29.814 29.099-36.189 14.919-7.0236 32.744-4.5522 46.231 3.991 13.458 9.9529 17.236 21.744 17.811 42.668l-0.19137 145.03c-1.505 24.148-16.955 37.303-30.516 43.183-6.1387 2.1905-8.7952 2.7799-15.908 2.8841z" stroke-width="1.4679"/>
 <linearGradient id="SVGID_1_" x1="90.755" x2="294.68" y1="104.58" y2="104.58" gradientUnits="userSpaceOnUse">
  <stop stop-color="#4D4C4D" offset="0"/>
  <stop stop-color="#454345" offset=".35591"/>
  <stop stop-color="#393839" offset=".68428"/>
  <stop offset="1"/>
 </linearGradient>
 <polygon class="st1" transform="scale(1.4679)" points="294.68 0 90.755 46.545 294.68 209.17" fill="url(#SVGID_1_)"/>
</svg>
