<svg width="800" height="396.53" space="preserve" version="1.1" viewBox="0 0 800 396.53" xmlns="http://www.w3.org/2000/svg">
 <link href="" rel="stylesheet" type="text/css"/>
 <style type="text/css"/>
 <path d="m319.88 0.14904c8.507-0.2316 18.837 3.0379 25.813 11.657 3.1505 3.0611 8.9568 17.756 8.9568 17.756l34.77 92.358c4.4785 11.099 17.914 11.928 21.875 0.8421l10.802-29.124 18.454 48.543c-8.9566 16.364-17.644 20.392-27.929 24.126-11.972 3.7579-26.353 2.52-36.637-3.8695-3.4206-2.2126-12.378-8.0379-18.454-22.754l-36.593-102.35v93.189l13.705-39.381 17.576 49.173c-2.5657 11.295-10.735 20.726-20.232 25.158-10.352 4.9074-22.752 3.1747-32.137-2.7684-9.3394-6.9305-11.973-15.122-12.377-29.682l0.12631-100.82c1.08-16.787 11.815-25.922 21.222-30.019 4.2985-1.5158 6.1438-1.9579 11.072-2zm160.23 168.09c-8.507 0.2316-18.837-3.04-25.836-11.638-3.1507-3.0589-8.9568-17.756-8.9568-17.756l-34.793-92.362c-4.4781-11.116-17.913-11.924-21.875-0.821l-10.802 29.143-18.454-48.541c8.9794-16.385 17.666-20.415 27.951-24.168 11.995-3.7369 26.353-2.5011 36.638 3.8926 3.4208 2.2126 12.378 8.0337 18.454 22.752l36.638 102.35v-93.194l-13.705 39.383-17.599-49.173c2.5655-11.297 10.735-20.726 20.232-25.16 10.352-4.8821 22.752-3.1747 32.137 2.7684 9.3621 6.9095 11.995 15.124 12.377 29.661l-0.14737 100.85c-1.0337 16.787-11.793 25.926-21.222 30.019-4.2533 1.5158-6.0985 1.9158-11.05 2z" stroke-width=".22505"/>
 <g transform="matrix(2.326 0 0 2.326 -287.24 537.06)">
  <path d="m123.49-115.17c0 10.494 2.6235 18.899 7.9191 25.312 5.247 6.413 12.68 9.7166 22.251 10.008h1.3118c6.2186 0 11.757-1.5547 16.664-4.664 5.1984-3.3036 9.0365-7.7247 11.466-13.312l-10.64-4.9069c-1.4575 3.8381-3.6923 6.8016-6.753 8.9393-3.1094 2.1377-6.6074 3.2065-10.543 3.2065-3.2065 0-6.0243-0.63156-8.502-1.9919-2.5263-1.3603-4.5183-3.2065-6.0729-5.5385-1.5547-2.332-2.7207-4.9555-3.498-7.9191-0.7774-2.9635-1.166-6.17-1.166-9.6194 0-4.1296 0.4858-7.7733 1.5061-10.98 1.0202-3.2065 2.4291-5.7328 4.2267-7.6761s3.8381-3.4008 6.1701-4.3725 4.8583-1.4575 7.6275-1.4575c4.3239 0 8.0162 1.2146 11.077 3.6438 3.0122 2.4292 5.0527 5.587 6.1215 9.3765 0.049 0 1.749-0.82588 5.0526-2.3806 3.3037-1.5546 5.1013-2.3806 5.3928-2.5749-1.8462-5.6356-5.3441-10.202-10.494-13.652-4.907-3.2065-10.64-4.8583-17.15-4.8583h-1.1174c-3.4008 0.0972-6.6073 0.583-9.6195 1.5061-3.0121 0.97166-5.8299 2.3806-8.4534 4.2753-2.6235 1.8948-4.8583 4.1782-6.7045 6.8988-1.8948 2.7206-3.4008 6.0243-4.4696 9.911-1.0689 3.8866-1.6033 8.162-1.6033 12.826z"/>
  <path d="m184.97-106.43c0 3.7895 0.4858 7.2389 1.4575 10.348 0.9716 3.1579 2.4291 5.9757 4.3724 8.4048 1.9434 2.4778 4.5183 4.4211 7.7733 5.7814 3.2065 1.3603 6.996 2.0405 11.271 2.0405 3.9353 0 7.4818-0.68016 10.688-2.0891 3.2065-1.3603 5.83-3.3036 7.8705-5.7328s3.5951-5.1984 4.6639-8.4048c1.0689-3.2065 1.6519-6.6559 1.6519-10.348 0-4.2753-0.6802-8.162-1.9919-11.611-1.3118-3.4494-3.1093-6.2672-5.3442-8.4049-2.2834-2.1376-4.8583-3.7895-7.7733-4.9069-2.9149-1.1174-5.9757-1.7004-9.2794-1.7004-3.5951 0-6.9473 0.583-9.9595 1.7004-3.0607 1.1174-5.7328 2.7692-8.0162 4.9069-2.332 2.1377-4.1295 4.9555-5.4413 8.3563-1.3117 3.4494-1.9433 7.3361-1.9433 11.66zm12.923 0c0-5.5385 1.1174-9.6195 3.4008-12.243s5.2956-3.9352 9.0364-3.9352c3.4009 0 6.2673 1.3603 8.5507 4.0324 2.2348 2.6721 3.4008 6.7045 3.4008 12.146 0 2.915-0.4372 5.5385-1.2632 7.8705-0.8745 2.3806-2.2348 4.3725-4.1295 5.9271-1.8948 1.5547-4.1782 2.332-6.8503 2.332-2.2833 0-4.2267-0.43723-5.8299-1.3117-1.6519-0.8745-2.915-2.1377-3.7895-3.6923s-1.5547-3.2065-1.9433-5.0526c-0.3887-1.8462-0.583-3.8381-0.583-6.0729z"/>
  <path d="m238.42-100.84c0 6.7045 1.5547 11.903 4.7125 15.547 3.1093 3.6437 7.8219 5.4413 14.089 5.4413 3.8867 0 7.4818-0.97166 10.688-3.0122s5.6357-5.0041 7.2875-8.8907l1.7976 11.32h9.8623v-52.13h-12.34v22.688c0 2.5749-0.2915 5.004-0.7773 7.2389-0.5344 2.2834-1.3117 4.3725-2.332 6.2186-1.0202 1.8948-2.4292 3.4008-4.1782 4.4696-1.7489 1.1174-3.7894 1.6518-6.0243 1.6518-6.9959 0-10.445-4.081-10.445-12.243v-30.024h-12.34z"/>
  <path d="m292.17-80.436h12.34v-26.283c0-2.1376 0.2429-4.1781 0.7288-6.0243 0.4858-1.8462 1.2146-3.5465 2.2348-5.0526 1.0203-1.506 2.3806-2.7206 4.1296-3.5952 1.7004-0.8745 3.6923-1.3117 6.0243-1.3117 6.5101 0 9.7652 4.081 9.7652 12.243v30.024h12.34v-34.008c0-5.5385-1.5547-10.057-4.664-13.506-3.1093-3.3523-7.579-5.0526-13.312-5.1013h-0.1457c-3.9353 0.0972-7.4818 0.9231-10.64 2.5263-3.1579 1.6033-5.5385 3.9838-7.1417 7.1903l-1.8948-9.2308h-9.7652z"/>
  <path d="m342.39-122.12h7.2875v25.555c0 2.2834 0.2429 4.3725 0.7773 6.2672 0.5344 1.8948 1.4089 3.6438 2.5749 5.247 1.166 1.6518 2.8664 2.915 5.0041 3.8381 2.1376 0.92305 4.7125 1.3603 7.6761 1.3603 0.7773 0 1.5547 0 2.3805-0.0972 0.7774-0.0972 1.5061-0.19433 2.1863-0.34011 0.6802-0.0972 1.3603-0.29149 2.0891-0.48583 0.7287-0.19433 1.3603-0.34005 1.8947-0.53438 0.4859-0.19434 1.0689-0.38867 1.6518-0.63161 0.583-0.19434 1.0689-0.38866 1.3604-0.53439 0.2915-0.0972 0.6315-0.29149 1.0202-0.48583l0.6316-0.24294-2.2834-9.4737-1.0689 0.48583c-0.7287 0.2915-1.4088 0.583-1.9918 0.77733-0.6316 0.24289-1.409 0.48583-2.332 0.68016-0.9231 0.24289-1.749 0.34006-2.4778 0.34006-4.5182 0-6.753-2.6235-6.753-7.8705v-23.854h11.417l1.7004-9.9596h-13.117v-15.206l-10.251 1.3603-1.506 13.846h-7.8705z"/>
  <path d="m381.53-80.436h12.34v-26.186c0-2.1376 0.1943-4.1295 0.6801-5.9271 0.4859-1.7976 1.2146-3.4494 2.1863-4.9069 0.9716-1.4575 2.2834-2.5749 3.9352-3.4494 1.6518-0.87449 3.5952-1.3117 5.83-1.4089h0.6802c2.4777 0 4.7611 0.34005 6.8016 0.97166l1.8947-10.834c-1.5547-0.48583-3.3522-0.77732-5.3927-0.87449h-0.6802c-8.5992 0-13.992 3.7409-16.227 11.223l-2.2835-10.737h-9.7651z"/>
  <path d="m416.96-132.57 19.628 50.332c-0.7288 1.9919-1.3118 3.498-1.749 4.5668-0.4373 1.0688-1.0203 2.1377-1.7004 3.2065-0.6802 1.0688-1.3604 1.8462-2.0405 2.2348-0.6802 0.38867-1.6032 0.72877-2.7207 0.92311-0.6315 0.19433-1.3117 0.24288-2.0405 0.24288-0.583 0-1.1174-0.0487-1.6518-0.14571-1.4089-0.14578-3.1093-0.48583-5.1012-0.97167l-2.1863 10.445c3.1094 0.68016 5.8786 1.0688 8.2592 1.2146 0.6801 0.0972 1.4089 0.0972 2.1376 0.0972 1.5061 0 2.9636-0.0972 4.3239-0.38866 1.9434-0.38866 3.6924-1.0203 5.1498-1.8948 1.4575-0.8745 2.8179-2.089 4.1296-3.7409 1.2632-1.6033 2.4291-3.4494 3.498-5.5385 1.0202-2.0891 2.0891-4.664 3.2065-7.6761l19.336-52.907h-12.729l-11.757 36.826h-0.7774l-12.874-36.826z"/>
 </g>
</svg>
