<svg height="482.77853pt" viewBox="0 0 1243.5999 482.77853" width="1243.5999pt" xmlns="http://www.w3.org/2000/svg"><path d="m0 264.70176c30.89-.3 61.8-.05 92.7-.13 18.05-.26 36.26.53 53.9 4.66 17.43 4 34.69 11.48 47.25 24.55 12.84 12.67 19.98 30.07 23.06 47.61 3 18.01 3.15 36.5.62 54.58-2.93 19.78-10.69 39.45-25.06 53.72-15.04 15.32-35.87 23.45-56.67 27.14-20.15 3.85-40.72 2.7-61.1 2.86-24.88-.02-49.75.06-74.63-.04-.01-12.51.01-25.03-.01-37.54 3.69-.2 7.48.22 11.08-.72 3.17-1.67 6.34-4.68 6.34-8.5-.03-40 .02-80-.03-120 .16-3.83-3.27-6.68-6.34-8.34-3.6-.87-7.39-.21-11.06-.48.01-13.12.1-26.25-.05-39.37m89.59 42.49c-.27 44.2-.06 88.41-.11 132.62 6.73.28 13.55.53 20.18-.81 9.09-1.59 17.63-6.51 23.16-13.95 8.21-10.89 10.99-24.75 12.2-38.06.64-15.36.94-31.03-3.12-45.99-2.72-10.21-7.7-20.5-16.61-26.68-10.23-7.34-23.57-8.16-35.7-7.13z"/><path d="m594.1 264.70176c24.21-.32 48.43-.02 72.65-.15 2.75-.28 5.5.95 7.34 2.99 2.55 3.18 3.11 7.43 3.03 11.39-.07 19.31.06 38.62-.07 57.94 9.41-10.16 21.3-18.53 35.1-21.21 14.38-2.63 29.99-1.34 42.88 5.98 11.51 6.49 19.58 17.89 23.96 30.17 5.64 15.68 6.53 32.58 6.13 49.1-.76 22.36-5.93 46.03-21.46 62.99-11.93 12.78-29.6 19.45-46.97 18.82-12.8.53-26.04-2.63-36.41-10.37-3.67-2.64-6.69-6.04-9.66-9.4-3.73 6.11-7.15 13.73-14.12 16.6-41.87.33-83.77.08-125.65.12-5.17-.01-7.8-5.36-9.11-9.62-1.19-3.93-1.68-8.01-2.02-12.08-10.28 10.4-22.82 19.07-37.25 22.39-12.68 2.89-26.29 3.44-38.8-.56-9.04-2.74-16.98-9.34-20.64-18.14-3.11-6.8-3.33-14.39-3.54-21.73-.01-24.66 0-49.31 0-73.97.14-2.81-1.87-5.17-3.98-6.77-2.75-2.05-6.33-1.44-9.52-1.5 0-13.35.18-26.71-.09-40.06 27.06-.29 54.14-.06 81.2-.12-.01 33.83-.01 67.66 0 101.49-.09 3.9.83 8.06 3.6 10.96 3.19 2.94 7.77 3.59 11.95 3.72 5.07.07 10.21.14 15.24-.67.26-.28.79-.83 1.05-1.1.13-24.74.03-49.48.05-74.21-5.37.24-10.82-.57-16.11.55-.65-13.56-.12-27.15-.31-40.72 27.96.01 55.93-.18 83.89.1-.16 39.08-.07 78.18-.05 117.26 1.32 3.42 4.11 7.23 8.19 7.03 5.13.26 10.28.17 15.4-.16.14-42.96 0-85.93.07-128.89.24-3.67-2.74-6.79-5.82-8.32-3.3-.85-6.77-.2-10.13-.54.08-13.1.12-26.21-.02-39.31m83.02 100.56c0 24.41-.07 48.81.03 73.22 6.27 3.18 13.52 4.98 20.49 3.24 7.36-1.4 13.01-7.47 15.49-14.32 4.43-11.92 4.63-24.94 3.68-37.47-1.08-8.78-3.18-18.95-11.29-23.96-8.66-5.15-19.19-3.03-28.4-.71z"/><path d="m784.41 264.58176c24.78-.03 49.57 0 74.35-.01 4.09-.33 7.65 2.8 8.91 6.52 1.58 4.78 1.22 9.88 1.25 14.84-.01 49.32 0 98.65 0 147.98-.16 2.08 1.05 3.91 2.4 5.39 3.46 4.14 9.4 1.94 14.06 2.8-.15 12.53-.16 25.06.01 37.59-33.47-.01-66.93.04-100.39-.03-.04-12.52.01-25.04-.03-37.56 4.43-.9 10.01 1.32 13.43-2.47 1.52-1.55 3.12-3.41 2.94-5.74.05-40.33 0-80.66.03-120.98.41-3.61-2.51-6.53-5.29-8.32-3.8-.98-7.81-.28-11.69-.47.02-13.18.01-26.36.02-39.54z"/><path d="m1150.47 264.62176c27.76-.13 55.53 0 83.29-.07 6.39-.24 9.9 6.71 9.72 12.32.04 42.68 0 85.37.02 128.06.58 18.75-1.05 39.27-13.43 54.37-10.64 12.91-27.28 18.79-43.35 21.18-11.91 1.91-23.99 1.96-36.02 1.71-16.8-.89-33.98-3.37-49.12-11.1-1.77-.61-1.04-2.77-1.2-4.13.05-14.16.02-28.32.02-42.49 11.47-.16 22.94.08 34.42-.13 3.15 4.95 7.14 9.77 12.9 11.7 6.6 2.38 15.48 1.92 19.95-4.15 3.18-4.28 3.52-9.82 3.56-14.96.01-32.66-.03-65.33.02-97.99-.1-3.57.63-7.69-1.95-10.6-1.69-1.96-3.73-4.23-6.53-4.18-4.1-.12-8.2-.02-12.29-.04.01-13.17.03-26.34-.01-39.5z"/><path d="m302.05 315.18176c21.75-2.39 44.64.63 63.91 11.44 15.41 8.49 27.8 22.28 34.32 38.65 6.19 14.29 6.98 30.21 5.8 45.55-1.9 17.36-9.26 34.36-21.83 46.64-14.46 14.5-34.55 22.28-54.67 24.41-19.31 1.95-39.36.19-57.32-7.49-14.17-5.94-26.79-15.91-35.17-28.84-8.94-13.73-13.07-30.31-12.72-46.61-.13-17.9 5.05-36.11 15.82-50.55 14.39-19.59 38.02-30.81 61.86-33.2m10.04 43.29c-4.64.76-8.94 3.4-11.65 7.26-4.16 5.21-5.85 11.83-6.97 18.27-.94 8.61-1.79 17.35-.61 25.99.74 9.37 2.66 19.41 9.16 26.62 5.35 6.11 15.05 7.86 22.13 3.84 5.47-2.92 8.98-8.52 10.87-14.27 4.35-12.22 3.69-25.43 3.09-38.18-1.09-8.81-3.14-18.32-9.72-24.77-4.12-4.32-10.54-5.79-16.3-4.76z"/><path d="m933.13 321.39176c12.56-4.91 26.1-7.17 39.57-6.93 15.29-.17 30.94 1.98 44.87 8.57 14.83 6.98 25.9 20.71 30.58 36.32 5.88 17.28 5.43 35.8 4.75 53.8-33.59-.05-67.18.17-100.77-.11.24 7.55 2.36 15.34 7.01 21.39 5.84 7.17 15.81 8.68 24.53 8.08 10.82-.1 21.48-5.18 27.97-13.92 11.79.19 23.59.05 35.4.08-.06 13.09.02 26.18-.05 39.28-22.66 12.25-48.97 14.68-74.3 14.66-20.78-.04-42.66-3.43-59.94-15.76-14.64-10.2-23.23-27.09-26.32-44.34-3.97-23.29-2.52-48.56 9.46-69.41 8.3-14.44 21.71-25.72 37.24-31.71m26.64 36.61c-5.36 6.51-6.52 15.21-7.66 23.29 12.87-.03 25.74-.03 38.62 0-.58-6.84-1.18-13.91-4.31-20.13-1.78-3.66-5.05-6.72-9.08-7.63-6.09-1.08-13.29-.57-17.57 4.47z"/><path d="m1086.0885 129.35131c.3503-1.64977 1.9369-1.07061 2.2005-.38336.5711 1.48923.7124 3.36194.9219 5.07353 2.6919 21.98678 5.4029 43.96659 8.2426 65.93192.627 5.16937 1.6473 10.42859.6147 15.62192-1.4691 6.79865-4.8681 13.08814-9.1461 18.59295-6.6629 8.56571-15.4955 15.34039-25.0288 20.65951-17.8558 9.71578-38.2378 14.83723-58.6506 15.36435-9.1215-.1797-18.32907-1.12013-27.00802-4.01928-9.09692-3.00699-17.92954-7.9727-23.64585-15.67584-2.42174-3.15673-3.81702-6.88849-5.40283-10.47651-9.66241-21.71974-19.29056-43.45352-28.9319-65.18916-.30466-.68684-.80517-1.69295-.27044-2.2103.66234-.64083 1.95565-.34076 2.72906.49717l67.29264 72.90427 19.68744-67.6211c.2273-.78048.3998-1.52713.8728-2.26422.6853-1.06771 2.2565.87354 3.1532 1.70715l51.8402 48.18955z"/><g transform="matrix(.99999966 0 0 .99999821 .000641 .000134)"><path d="m931.14 2.35176c2.57-3.56 9.22-3.04 10.73 1.3 9.26 23.83 18.27 47.76 27.55 71.58l-8.08 2.72c-10.2-23.29-20.66-46.47-30.95-69.72-.69-1.91-.61-4.26.75-5.88z"/><path d="m1101.15 25.42176c3-.89 6.67-.11 8.1 2.95 1.59 2.26.59 5.16-1.17 6.98-22.68 23.29-45.37 46.57-67.98 69.93-3.03 2.11-.36 6.56-3.27 8.81-2.8 3.68-9.19 3.29-11.65-.58-2.93-3.48-.84-9.18 3.22-10.69 2.06-.57 4.71-.03 6-2.18 20.31-23.04 40.54-46.15 60.75-69.26 1.99-1.96 3.44-4.67 6-5.96z"/><path d="m970.72 78.48176c26.22-8.63 54.93-12.17 81.91-4.98-4.14 5.55-8.74 10.8-13.95 15.36-2.16 1.96-5.55 3.31-7.99 1.04-3.4-3.35-4.14-8.34-6.58-12.3-.15 6.77-.42 14.89-6.39 19.33-6.45 4.6-14.88 2.54-21.87.45 2.5 2.66 6.03 4.17 8.24 7.15 2.82 3.5 5.45 8.46 3.26 12.92-2.68 5.63-7.74 9.67-12.6 13.37 7.6-1.24 16-4.23 23.31-.32 5.95 3.3 6.83 10.68 8.12 16.69 2.54-5.95 3.31-13.54 9.32-17.24 6.17-3.05 13.01-.12 19.09 1.74-2.51-4.93-6.3-11.34-2.71-16.61 4.85-4.81 12.18-5.27 17.93-8.6-5.03-.16-10.73 1.29-15.21-1.57-2.92-2.53-.33-6.27 1.56-8.51 4.45-4.85 9.12-9.64 14.54-13.39 6.03 4.69 10.17 12.14 9.78 19.9.28 9.2-4.81 17.47-10.46 24.32-13.73 15.52-32.76 25.15-52.05 31.93-22.82 7.27-47.36 10.89-71.14 6.65-9.72-2.02-19.66-5.06-27.35-11.61-3.88-2.98-6.55-7.19-8.56-11.58 12.27-.62 24.55-1.12 36.84-1.31 3.26-.56 4.9 3.49 8.13 3.46 4.29.55 8.42-3.37 7.89-7.67-.38-3.54-3.59-6.32-7.07-6.5-2.74.03-4.98 1.82-6.58 3.88-13.52-.04-27.03-.55-40.53-.74.41-10.33 6.29-19.45 13.26-26.69 11.21-11.46 25.44-19.4 40.07-25.64 3.02 5.7 5.4 11.72 8.13 17.56-1.22 2.55-2.48 5.64-.62 8.24 2.64 5.43 11.91 4.39 13.2-1.58 1.64-4.48-2.65-7.84-6.29-9.39-2.35-5.85-4.87-11.69-6.63-17.76z"/><path d="m842.69 135.94176c1.14-2.09 3.5-3.65 5.95-3.43 19.01.12 38.01.96 57.02.97l1.15 9.13-59.12 1.79c-4.03.07-6.89-4.98-5-8.46z"/></g></svg>