<svg height="207.10913pt" viewBox="0 0 406.05225 207.10913" width="406.05225pt" xmlns="http://www.w3.org/2000/svg"><g fill="#e633cc" transform="matrix(1.9279704 0 0 1.9279704 -8.686486 218.92871)"><path d="m4.5055078-113.13398h9.0000002q1.98 0 3.6.51 1.62.48 2.76 1.44 1.14.93 1.74 2.31.63 1.38.63 3.12v.06q0 1.86-.69 3.27-.66 1.41-1.86 2.37-1.2.959999-2.88 1.439999-1.65.48-3.6.48h-2.88v6h-5.8200002zm8.5800002 10.44q1.56 0 2.43-.72.9-.75.9-2.01v-.06q0-1.35-.9-2.04-.87-.72-2.46-.72h-2.73v5.55z"/><path d="m29.812383-113.28398h5.61l8.939999 21.149999h-6.24l-1.529999-3.75h-8.1l-1.5 3.75h-6.12zm5.1 12.87-2.34-5.97-2.37 5.97z"/><path d="m46.400039-113.13398h5.82v15.899999h10.169999v5.1h-15.989999z"/><path d="m64.85707-113.13398h6.15l5.009996 8.13 5.01-8.13h6.15v20.999999h-5.79v-12.059999l-5.37 8.219999h-.12l-5.339996-8.159999v11.999999h-5.7z"/><path d="m90.872691-113.13398h16.889999v4.95h-11.129999v3.18h10.079999v4.59h-10.079999v3.329999h11.279999v4.95h-17.039999z"/><path d="m110.91175-113.13398h9.93q2.43 0 4.11.6 1.68.6 2.73 1.68 1.86 1.8 1.86 4.89v.06q0 2.43-1.17 4.02-1.17 1.59-3.15 2.429999l5.01 7.32h-6.72l-4.23-6.36h-.06-2.49v6.36h-5.82zm9.66 10.08q1.5 0 2.31-.66.81-.69.81-1.83v-.06q0-1.26-.84-1.86-.84-.63-2.31-.63h-3.81v5.04z"/><path d="m140.72425-91.773981q-2.82 0-5.37-.87-2.52-.87-4.47-2.61l3.24-3.87q3.15 2.52 6.81 2.52 1.17 0 1.77-.36.63-.39.63-1.08v-.06q0-.33-.15-.57-.15-.27-.57-.51-.39-.24-1.08-.45-.66-.24-1.74-.479999-1.68-.39-3.12-.84-1.44-.48-2.52-1.2-1.05-.75-1.68-1.83-.6-1.11-.6-2.73v-.06q0-1.47.54-2.7.57-1.23 1.62-2.13 1.08-.9 2.58-1.38 1.5-.51 3.39-.51 2.7 0 4.8.72 2.13.69 3.84 2.07l-2.91 4.11q-1.44-1.02-2.97-1.53-1.5-.54-2.91-.54-1.05 0-1.59.39-.51.39-.51.96v.06q0 .36.15.63.18.27.57.51.42.21 1.11.45.72.21 1.8.45 1.8.39 3.24.93 1.47.51 2.49 1.26 1.02.75 1.56 1.83.54 1.05.54 2.519999v.06q0 1.62-.63 2.88-.6 1.26-1.71 2.16-1.11.87-2.67 1.35-1.56.45-3.48.45z"/><path d="m156.58863-108.03398h-6.3v-5.1h18.42v5.1h-6.3v15.899999h-5.82z"/><path d="m180.94441-91.713981q-2.43 0-4.5-.84-2.07-.87-3.57-2.34-1.5-1.47-2.37-3.45-.84-1.979999-.84-4.229999v-.06q0-2.25.84-4.23.87-2.01 2.4-3.48 1.53-1.5 3.6-2.34 2.07-.87 4.5-.87 2.43 0 4.5.87 2.07.84 3.57 2.31 1.5 1.47 2.34 3.45.87 1.98.87 4.23v.06q0 2.25-.87 4.259999-.84 1.98-2.37 3.48-1.53 1.47-3.6 2.34-2.07.84-4.5.84zm.06-5.25q1.2 0 2.19-.45.99-.45 1.68-1.2.69-.78 1.08-1.799999.39-1.02.39-2.16v-.06q0-1.14-.39-2.16-.39-1.02-1.11-1.8-.72-.78-1.71-1.23-.99-.48-2.19-.48-1.2 0-2.19.45-.96.45-1.68 1.23-.69.75-1.08 1.77-.36 1.02-.36 2.16v.06q0 1.14.39 2.16.39 1.019999 1.08 1.799999.72.78 1.71 1.26.99.45 2.19.45z"/><path d="m195.28675-113.13398h5.43l8.64 11.1v-11.1h5.76v20.999999h-5.1l-8.97-11.519999v11.519999h-5.76z"/></g><g fill="#e633cc" transform="translate(-16.424624 221.77226)"><path d="m28.351499-78.204716h66.224249v15.171443h-43.282276v10.62001h39.14326v14.36825h-39.14326v22.310946h-22.941973z"/><path d="m103.7235-78.204716h25.79879l21.01658 24.185065 21.01658-24.185065h25.7988v62.470649h-24.28862v-35.876002l-22.52676 24.452797h-.50339l-22.40091-24.274309v35.697514h-23.91107z"/><path d="m285.6225-14.663142q-8.3516 0-15.37755-1.338657-7.02595-1.338657-12.06342-3.748239-5.03748-2.409582-7.95391-5.711602-2.78387-3.391264-2.78387-7.496478v-.178487q0-5.711603 4.10952-9.281354 4.24208-3.569751 11.7983-5.711602-5.43518-2.052607-9.147-5.265383-3.57926-3.212777-3.57926-8.299672v-.178488q0-3.748239 2.51874-6.871771 2.51874-3.212776 7.15852-5.533115 4.63977-2.409582 11.0029-3.658995 6.49569-1.338657 14.31703-1.338657 7.82134 0 14.18447 1.338657 6.49568 1.249413 11.13546 3.658995 4.63979 2.320339 7.15852 5.533115 2.51874 3.123532 2.51874 6.871771v.178488q0 5.086895-3.71183 8.299672-3.57926 3.212776-9.01442 5.265383 3.57926 1.070925 6.49568 2.498826 2.91645 1.338657 4.90491 3.123532 2.12104 1.784876 3.31414 4.105214 1.19308 2.231095 1.19308 5.17614v.178487q0 4.194458-2.91643 7.585722-2.78387 3.391264-7.82135 5.800846-5.03747 2.409582-12.06342 3.748239-7.02595 1.249413-15.37755 1.249413zm0-38.19634q5.17004 0 8.21904-1.874119 3.18156-1.963363 3.18156-4.908408v-.178488q0-2.58807-3.049-4.551433-3.049-2.052607-8.3516-2.052607-5.3026 0-8.3516 1.963363-3.04899 1.963364-3.04899 4.551433v.178488q0 2.945045 3.04899 4.908408 3.18156 1.963363 8.3516 1.963363zm0 25.255991q6.4957 0 9.94239-2.052607 3.44668-2.141851 3.44668-4.997652v-.178487q0-3.034289-3.71181-4.908408-3.71183-1.87412-9.67726-1.87412-5.96543 0-9.67724 1.87412-3.71183 1.874119-3.71183 4.908408v.178487q0 2.855801 3.44669 4.997652 3.4467 2.052607 9.94238 2.052607z"/><path d="m372.37124-14.663142q-8.3516 0-15.37755-1.338657-7.02595-1.338657-12.06342-3.748239-5.03748-2.409582-7.95391-5.711602-2.78387-3.391264-2.78387-7.496478v-.178487q0-5.711603 4.10952-9.281354 4.24208-3.569751 11.79829-5.711602-5.43517-2.052607-9.14699-5.265383-3.57926-3.212777-3.57926-8.299672v-.178488q0-3.748239 2.51874-6.871771 2.51873-3.212776 7.15852-5.533115 4.63977-2.409582 11.0029-3.658995 6.49569-1.338657 14.31703-1.338657 7.82134 0 14.18446 1.338657 6.49569 1.249413 11.13547 3.658995 4.63977 2.320339 7.15852 5.533115 2.51874 3.123532 2.51874 6.871771v.178488q0 5.086895-3.71183 8.299672-3.57926 3.212776-9.01443 5.265383 3.57927 1.070925 6.49569 2.498826 2.91643 1.338657 4.90491 3.123532 2.12104 1.784876 3.31412 4.105214 1.1931 2.231095 1.1931 5.17614v.178487q0 4.194458-2.91643 7.585722-2.78387 3.391264-7.82135 5.800846-5.03747 2.409582-12.06342 3.748239-7.02595 1.249413-15.37755 1.249413zm0-38.19634q5.17004 0 8.21903-1.874119 3.18156-1.963363 3.18156-4.908408v-.178488q0-2.58807-3.04899-4.551433-3.049-2.052607-8.3516-2.052607-5.3026 0-8.3516 1.963363-3.04901 1.963364-3.04901 4.551433v.178488q0 2.945045 3.04901 4.908408 3.18156 1.963363 8.3516 1.963363zm0 25.255991q6.49568 0 9.94238-2.052607 3.44669-2.141851 3.44669-4.997652v-.178487q0-3.034289-3.71183-4.908408-3.71181-1.87412-9.67724-1.87412-5.96543 0-9.67726 1.87412-3.71181 1.874119-3.71181 4.908408v.178487q0 2.855801 3.44668 4.997652 3.44669 2.052607 9.94239 2.052607z"/></g><g fill="#fff" stroke="#000" stroke-width="1.5" transform="translate(16.531876 -.746349)"><path d="m213.76733 60.028871h56.21766v45.644249h2.60251l-.00001-26.926498h43.521l.00001 41.000998 12.11024-.00001v17.5725h-6.89324v-11.89049l-12.186-.00001-.00001-40.754988h-30.21149v26.030998h-16.68301l.00001-44.6925-41.40826.000001.00001 39.170619 11.07674.19167.00001 14.28371-39.29176-.00001v-49.85024l-26.69024-.000003-.00001 36.335253-24.59925-.00001.00001-19.180488h-37.0875v36.479998h-51.502501v13.8765h-7.9725v-19.96951l52.150501.00001-.00001-36.505498h51.63976l-.00001 19.12049 10.22626.00001v-35.949001l41.21099-.000001v49.42449l24.56176.11901-.00001-2.65574-10.79174-.00001-.00001-50.875493z"/><path d="m124.89403 104.85911h7.71226l-.00001 6.20925h-7.71225z"/><path d="m63.448612 126.83403h7.712261l-.00001 6.20925h-7.712251z"/><path d="m77.442481 126.83403h7.712259l-.00001 6.20925h-7.712249z"/><path d="m124.89403 116.50019h7.71226l-.00001 6.20925h-7.71225z"/><path d="m143.154 116.50019h7.71226l-.00001 6.20925h-7.71225z"/><path d="m176.17438 116.50019h7.71225l-.00001 6.20925h-7.71224z"/><path d="m260.90743 116.50019h7.71225l-.00001 6.20925h-7.71224z"/><path d="m274.46454 116.50019h7.71226l-.00001 6.20925h-7.71225z"/><path d="m289.80592 116.50019h7.71226l-.00001 6.20925h-7.71225z"/><path d="m124.89403 93.218042h7.71226l-.00001 6.20925h-7.71225z"/><path d="m111.00526 93.218042h7.71226l-.00001 6.20925h-7.71225z"/><path d="m176.17438 87.495202h7.71225l-.00001 6.20925h-7.71224z"/><path d="m176.17438 77.148102h7.71225l-.00001 6.20925h-7.71224z"/><path d="m289.80592 104.85937h7.71226l-.00001 6.20925h-7.71225z"/><path d="m289.80592 93.217872h7.71226l-.00001 6.20925h-7.71225z"/><path d="m242.4456 93.217872h7.71226l-.00001 6.20925h-7.71225z"/><path d="m242.4456 81.286122h7.71226l-.00001 6.20925h-7.71225z"/><path d="m228.88212 81.286122h7.71226l-.00001 6.20925h-7.71225z"/><path d="m228.88212 70.939122h7.71226l-.00001 6.20925h-7.71225z"/></g></svg>