<svg id="b" width="517.43pt" height="283.19pt" version="1.1" viewBox="0 0 517.43 283.19" xmlns="http://www.w3.org/2000/svg">
 <defs id="c">
  <clipPath id="a">
   <path id="d" d="m189.14 257.39h89.788v49.141h-89.788z"/>
  </clipPath>
 </defs>
 <g id="e" transform="matrix(5.7628 0 0 -5.7628 -1090 1766.5)" fill="#fff">
  <g id="f" clip-path="url(#a)" fill="#fff">
   <g id="g" transform="translate(232.05 291.64)">
    <path id="h" d="m0 0h3.215c1.071 0 1.654-0.41 1.654-1.544 0-1.009-0.709-1.56-1.654-1.56h-3.215zm-1.969-9.644h5.168c2.915 0 4.144 1.371 4.144 3.136 0 1.529-0.74 2.6-2.111 2.9v0.031c1.023 0.441 1.607 1.261 1.607 2.395 0 1.875-1.324 2.789-3.34 2.789h-5.468zm1.969 5.122h3.483c1.197 0 1.891-0.631 1.891-1.734 0-1.134-0.694-1.78-1.891-1.78h-3.483z" fill="#fff"/>
   </g>
   <g id="i" transform="translate(220.12 285.75)">
    <path id="j" d="m0 0c0.048-2.789 2.127-4.018 4.696-4.018 2.237 0 4.475 1.008 4.475 3.529 0 1.166-0.709 2.427-2.19 2.868-0.584 0.173-3.073 0.819-3.246 0.867-0.804 0.22-1.34 0.662-1.34 1.45 0 1.134 1.151 1.465 2.064 1.465 1.356 0 2.333-0.536 2.427-1.985h1.97c0 2.348-1.97 3.592-4.318 3.592-2.032 0-4.112-1.055-4.112-3.309 0-1.166 0.567-2.332 2.489-2.852 1.544-0.425 2.569-0.63 3.356-0.93 0.458-0.173 0.93-0.52 0.93-1.386 0-0.851-0.646-1.702-2.379-1.702-1.576 0-2.853 0.677-2.853 2.411z" fill="#fff"/>
   </g>
   <g id="k" transform="translate(239.91 285.75)">
    <path id="l" d="m0 0c0.047-2.789 2.127-4.018 4.696-4.018 2.237 0 4.475 1.008 4.475 3.529 0 1.166-0.71 2.427-2.191 2.868-0.583 0.173-3.073 0.819-3.245 0.867-0.804 0.22-1.34 0.662-1.34 1.45 0 1.134 1.15 1.465 2.064 1.465 1.355 0 2.332-0.536 2.427-1.985h1.969c0 2.348-1.969 3.592-4.317 3.592-2.033 0-4.113-1.055-4.113-3.309 0-1.166 0.567-2.332 2.49-2.852 1.544-0.425 2.568-0.63 3.356-0.93 0.458-0.173 0.93-0.52 0.93-1.386 0-0.851-0.646-1.702-2.379-1.702-1.576 0-2.853 0.677-2.853 2.411z" fill="#fff"/>
   </g>
   <g id="m" transform="translate(220.14 269.27)">
    <path id="n" d="m0 0h1.54l1.256 3.378h4.745l1.226-3.378h1.65l-4.384 11.218h-1.65zm5.169 9.867h0.031l1.87-5.232h-3.802zm5.805-9.867h1.336v3.614c0 2.058 0.785 3.283 2.938 3.283v1.414c-1.446 0.048-2.341-0.597-2.985-1.901h-0.032v1.713h-1.257zm9.86 2.828c0-0.738-0.722-1.838-2.482-1.838-0.817 0-1.571 0.314-1.571 1.194 0 0.99 0.754 1.304 1.634 1.461 0.895 0.157 1.901 0.173 2.419 0.55zm2.169-1.76c-0.173-0.063-0.299-0.078-0.409-0.078-0.424 0-0.424 0.283-0.424 0.911v4.179c0 1.901-1.587 2.231-3.048 2.231-1.807 0-3.362-0.707-3.441-2.718h1.336c0.063 1.194 0.895 1.54 2.026 1.54 0.849 0 1.807-0.189 1.807-1.351 0-1.006-1.257-0.912-2.733-1.194-1.383-0.267-2.75-0.66-2.75-2.498 0-1.619 1.21-2.278 2.687-2.278 1.131 0 2.121 0.392 2.859 1.256 0-0.88 0.44-1.256 1.131-1.256 0.424 0 0.723 0.078 0.959 0.22zm7.112 3.064c0-1.587-0.613-3.142-2.435-3.142-1.838 0-2.561 1.477-2.561 3.079 0 1.524 0.691 3.064 2.482 3.064 1.728 0 2.514-1.477 2.514-3.001m-6.285-4.132h1.336v1.084h0.031c0.597-0.958 1.791-1.272 2.624-1.272 2.483 0 3.708 1.932 3.708 4.226s-1.241 4.273-3.739 4.273c-1.116 0-2.153-0.393-2.593-1.288h-0.031v4.195h-1.336zm8.858 0h1.336v8.123h-1.336zm1.336 11.218h-1.336v-1.634h1.336zm8.473-5.703c-0.189 1.932-1.666 2.796-3.504 2.796-2.577 0-3.833-1.917-3.833-4.352 0-2.419 1.319-4.147 3.801-4.147 2.043 0 3.284 1.178 3.583 3.157h-1.367c-0.173-1.225-0.943-1.979-2.231-1.979-1.697 0-2.373 1.477-2.373 2.969 0 1.65 0.597 3.174 2.53 3.174 1.1 0 1.807-0.597 2.011-1.618z" fill="#fff"/>
   </g>
   <g id="o" transform="translate(270.85 270.87)">
    <path id="p" d="m0 0h-5.355c0.314 0.974 1.649 1.649 2.921 2.528 1.256 0.88 2.45 1.964 2.45 3.707 0 1.413-0.848 3.376-3.534 3.376-2.45 0-3.785-1.806-3.785-4.24h1.791c0.047 1.539 0.471 2.748 1.884 2.748 1.539 0 1.869-1.162 1.853-1.947-0.031-1.712-1.884-2.576-3.313-3.612-1.477-0.989-2.403-2.356-2.419-4.162h7.507zm8.083 2.419h-1.413v6.973h-1.696l-4.712-6.612v-1.775h4.712v-2.607h1.696v2.607h1.413zm-3.141 4.837h0.032v-4.837h-3.33z" fill="#fff"/>
   </g>
   <g id="q" transform="translate(197.83 299.48)">
    <path id="r" d="m0 0s-3.423-2.968-6.139-9.214c-2.715-6.246-2.552-10.773-2.552-10.773s3.423 2.968 6.139 9.214 2.552 10.773 2.552 10.773" fill="#fff"/>
   </g>
   <g id="s" transform="translate(203.47 301.16)">
    <path id="t" d="m0 0s-4.612-3.999-8.272-12.416-3.439-14.518-3.439-14.518 4.612 3.999 8.272 12.416 3.439 14.518 3.439 14.518" fill="#fff"/>
   </g>
   <g id="u" transform="translate(211.11 303.44)">
    <path id="v" d="m0 0s-6.227-5.399-11.168-16.763c-4.941-11.363-4.643-19.6-4.643-19.6s6.227 5.4 11.168 16.763 4.643 19.6 4.643 19.6" fill="#fff"/>
   </g>
   <g id="w" transform="translate(221.47 306.53)">
    <path id="x" d="m0 0s-8.415-7.297-15.093-22.653c-6.677-15.357-6.274-26.488-6.274-26.488s8.415 7.297 15.093 22.653c6.677 15.357 6.274 26.488 6.274 26.488" fill="#fff"/>
   </g>
  </g>
 </g>
</svg>
