<svg height="283.19025pt" viewBox="0 0 518.73944 283.19025" width="518.73944pt" xmlns="http://www.w3.org/2000/svg"><g fill="#fff"><g transform="matrix(1.364273341736 0 0 1.364273240677 -248.787014032247 -317.010420991365)"><path d="m182.37826 346.59814c10.13052-9.73786 19.35792-23.00961 26.17049-38.6962 6.81258-15.70622 10.18942-31.5106 10.36611-45.56767l-.1178.1178c-10.09125 9.71822-19.27939 22.95071-26.07232 38.59803-6.77331 15.62769-10.15015 31.37318-10.36611 45.39098"/><path d="m193.34192 368.63462c13.64685-13.06265 26.07527-30.86362 35.27139-51.95442 9.19623-21.11027 13.77879-42.34482 14.06433-61.24857l-.17612.15474c-13.58834 13.04351-25.97771 30.82525-35.13443 51.83839-9.15673 21.01314-13.73883 42.16982-14.06298 61.01492"/><path d="m208.21437 399.5065c18.55911-17.75864 35.49077-41.94935 47.99581-70.60485 12.52504-28.65528 18.79834-57.53941 19.20179-83.23133l-.24197.19716c-18.47896 17.73954-35.33003 41.87119-47.814 70.42702-12.48397 28.55581-18.73598 57.3203-19.19826 82.91165"/><path d="m228.74286 439.94168c24.95743-23.97263 47.67792-56.67299 64.42367-95.32534 16.78549-38.67198 25.1127-77.62178 25.55423-112.25044l-.31829.27585c-24.83857 23.9732-47.45941 56.55515-64.16499 95.08884-16.70559 38.53368-25.01384 77.66189-25.51424 112.17137"/></g><g transform="matrix(.28506191 0 0 .28506191 17.942089 43.089734)"><path d="m703.57778 185.78249h39.82005c-.93811-43.82677-34.38014-73.69492-88.25038-73.69492-46.01739 0-82.77808 27.20808-82.77808 66.91747 0 88.63535 137.22093 45.63874 137.22093 104.83144 0 23.22971-23.19717 34.95251-47.59675 34.95251-33.35925 0-56.89841-16.105-58.46993-48.76697h-39.44201c0 60.34982 48.74818 80.77422 93.94254 80.77422 52.85752 0 91.48529-24.90007 91.48529-70.00012 0-91.44569-137.66898-50.68365-137.66898-106.35479 0-18.92299 17.55838-29.23498 42.15129-29.23498 36.53991 0 47.65192 19.03905 49.58603 40.57614z"/><path d="m764.6641 117.54423v227.68937h111.14088c43.98931 0 77.48554-21.43604 77.48554-63.25495 0-29.14747-10.25438-48.93024-42.54946-59.27039 17.89789-7.75936 31.73421-19.80818 31.73421-49.30898 0-37.63632-24.98961-55.85505-66.38568-55.85505zm39.63218 31.87652h64.67802c25.17561 0 34.72262 14.3355 34.72262 31.94766 0 19.93798-13.3862 31.80536-32.44573 31.80536h-66.95491zm.0003 92.44229h69.76644c27.82931 0 39.95108 15.38303 39.95108 35.84643 0 22.49162-18.15081 35.64762-38.77835 35.64762h-70.93947z"/><path d="m1103.4788 185.78249h39.82c-.9381-43.82677-34.3801-73.69492-88.2503-73.69492-46.0174 0-82.77812 27.20808-82.77812 66.91747 0 88.63535 137.22092 45.63874 137.22092 104.83144 0 23.22971-23.1972 34.95251-47.5967 34.95251-33.3593 0-56.8984-16.105-58.47-48.76697h-39.44197c0 60.34982 48.74817 80.77422 93.94257 80.77422 52.8575 0 91.4853-24.90007 91.4853-70.00012 0-91.44569-137.669-50.68365-137.669-106.35479 0-18.92299 17.5584-29.23498 42.1513-29.23498 36.5399 0 47.6519 19.03905 49.586 40.57614z"/></g><g transform="matrix(1.2343209 0 0 1.2343209 -35.648934 -145.42769)"><path d="m285.45 239.49h6.29c-.08 6.51.04 13.03-.1 19.55 5.62-8.36 19.43-7.69 25.43-.1 4.32 5.28 5.02 12.55 4.12 19.09-.85 3.42-2.1 6.87-4.53 9.5-6.3 7.22-19.18 7.02-25.02-.7.03 1.66.06 3.32.1 4.99-2.11-.01-4.21-.04-6.3.02.03-17.45.03-34.9.01-52.35m12.92 20.04c-7.36 3.66-8.13 13.81-5.52 20.72 2.31 6.8 11.71 9.24 17.27 4.92 3.61-2.87 4.77-7.75 4.72-12.16.14-3.97-.87-8.19-3.68-11.11-3.13-3.51-8.6-4.2-12.79-2.37z"/><path d="m178.97 278.86c5.26-13.1 10.26-26.3 15.54-39.38 2.54.02 5.09.02 7.63.02 6.96 17.4 13.57 34.95 20.65 52.31-2.62-.02-5.24-.01-7.86 0-1.91-5.22-3.77-10.46-5.72-15.66-7.41.09-14.82.01-22.23.05-1.94 5.21-3.87 10.43-5.83 15.64-2.41-.03-4.82-.05-7.23-.06 1.71-4.3 3.43-8.59 5.05-12.92m19.14-33.13c-2.91 8.21-5.91 16.38-8.93 24.55 5.95-.02 11.89.01 17.83-.02-2.98-8.17-5.72-16.43-8.9-24.53z"/><path d="m326.85 239.53c2.13-.03 4.26-.04 6.4-.04-.01 2.57-.02 5.13-.03 7.7-2.12 0-4.24 0-6.36-.01-.01-2.55-.01-5.1-.01-7.65z"/><path d="m384.99 242.2c6.07-3.78 14.57-3.72 20.44.43 7.23 5.41 7.9 17.04 1.79 23.56-5.81 7.48-16.38 9.75-21.15 18.13 8.43.1 16.86.01 25.3.05-.02 2.47-.02 4.95-.01 7.44-11.76-.06-23.51-.03-35.26-.02.16-4.7 1.59-9.4 4.54-13.11 5.24-6.97 14.23-9.65 19.78-16.3 3.09-3.63 3.52-9.54.51-13.33-3.34-3.61-10.35-3.65-13.11.68-1.87 2.83-2.19 6.31-2.36 9.61-2.8-.01-5.59-.01-8.38-.01-.03-6.47 2.26-13.46 7.91-17.13z"/><path d="m434.45 240.62c2.73-.09 5.47-.05 8.21-.15-.24 10.6-.04 21.2-.11 31.81v.91c2.19-.01 4.39-.02 6.59-.01.01 2.16 0 4.32 0 6.49-2.22-.01-4.43-.02-6.63-.02 0 4.06.01 8.11.02 12.17-2.67-.03-5.33-.04-7.99-.06.05-4.04.05-8.07.05-12.1-7.36.02-14.71-.02-22.07.02.34-3.29-.97-7.15 1.2-9.98 6.91-9.69 13.92-19.32 20.73-29.08m-15.45 32.57c5.18-.01 10.36-.02 15.55 0 .05-7.6.09-15.2-.02-22.8-5.19 7.59-10.44 15.15-15.53 22.8z"/><path d="m237.68 254.68c2.29-1.42 5.05-1.4 7.64-1.67.01 2.17.01 4.34.02 6.52-2.9.38-6.02.52-8.5 2.27-3.7 2.4-5.06 7.05-5.21 11.24-.15 6.23-.02 12.47-.03 18.7-2.11.12-4.21.1-6.31.1.06-12.66-.01-25.32.04-37.98 1.96 0 3.92 0 5.88.01 0 2.7.01 5.4.02 8.1 1.7-2.77 3.5-5.7 6.45-7.29z"/><path d="m251.48 256.55c4.86-3.87 11.53-3.75 17.38-3.04 4.1.53 8.3 3.43 8.69 7.83.33 7.21.01 14.43.11 21.64-.12 1.56.38 3.03.97 4.45.76-.09 2.27-.27 3.03-.36-.03 1.69-.07 3.38-.1 5.08-2.49.22-5.3 1.32-7.58-.19-1.64-.99-1.77-3.08-2.37-4.7-5.99 6.47-17.46 7.75-23.99 1.42-2.57-4.49-2.65-10.95 1.45-14.55 5.77-4.48 13.58-3.42 20.15-5.73 3.77-1.54 2.64-7.38-.68-8.82-3.62-1.48-8.03-1.45-11.58.22-2.37 1.07-2.92 3.75-3.65 5.97-2.06-.02-4.12-.04-6.17-.07.53-3.37 1.5-6.97 4.34-9.15m3.93 19.85c-3.58 1.84-4.13 7.73-.43 9.74 5.66 2.85 14.41.48 16.33-6.03.27-2.55.13-5.13.19-7.68-5.05 2.53-11.11 1.33-16.09 3.97z"/><path d="m343.93 257.93c4.99-5.28 13.2-5.76 19.79-3.71 5.17 1.63 8.88 6.56 9.17 11.95-2.09.01-4.17.02-6.25.03-.93-2.19-1.74-4.68-3.88-6-4.64-2.97-11.73-1.96-14.93 2.69-3.86 6.5-4.01 16.25 1.52 21.87 4.21 3.82 11.69 3.35 15.18-1.22 1.31-1.6 1.74-3.67 2.32-5.6 2.06.1 4.13.16 6.21.19-.63 4.21-2.4 8.44-5.81 11.16-4.71 3.8-11.39 4.19-17.04 2.61-6.19-1.74-10.39-7.62-11.33-13.81-1.02-6.96-.05-14.91 5.05-20.16z"/><path d="m326.81 254.15c2.12-.28 4.27-.36 6.41-.3.03 12.66 0 25.31.02 37.96-2.13 0-4.26-.02-6.39-.04-.02-12.54.07-25.08-.04-37.62z"/></g></g></svg>