<?xml version="1.0" encoding="UTF-8" standalone="no"?>
<svg
   xmlns:dc="http://purl.org/dc/elements/1.1/"
   xmlns:cc="http://creativecommons.org/ns#"
   xmlns:rdf="http://www.w3.org/1999/02/22-rdf-syntax-ns#"
   xmlns:svg="http://www.w3.org/2000/svg"
   xmlns="http://www.w3.org/2000/svg"
   xmlns:sodipodi="http://sodipodi.sourceforge.net/DTD/sodipodi-0.dtd"
   xmlns:inkscape="http://www.inkscape.org/namespaces/inkscape"
   width="518.73944pt"
   height="283.19025pt"
   viewBox="0 0 518.73944 283.19025"
   version="1.1"
   id="svg45"
   sodipodi:docname="SBS Arabic24.svg"
   inkscape:version="0.92.0 r15299">
  <metadata
     id="metadata51">
    <rdf:RDF>
      <cc:Work
         rdf:about="">
        <dc:format>image/svg+xml</dc:format>
        <dc:type
           rdf:resource="http://purl.org/dc/dcmitype/StillImage" />
        <dc:title></dc:title>
      </cc:Work>
    </rdf:RDF>
  </metadata>
  <defs
     id="defs49" />
  <sodipodi:namedview
     pagecolor="#ffffff"
     bordercolor="#666666"
     borderopacity="1"
     objecttolerance="10"
     gridtolerance="10"
     guidetolerance="10"
     inkscape:pageopacity="0"
     inkscape:pageshadow="2"
     inkscape:window-width="1920"
     inkscape:window-height="1017"
     id="namedview47"
     showgrid="false"
     inkscape:zoom="1.0429825"
     inkscape:cx="206.96589"
     inkscape:cy="195.9015"
     inkscape:window-x="-8"
     inkscape:window-y="-8"
     inkscape:window-maximized="1"
     inkscape:current-layer="svg45"
     fit-margin-top="0"
     fit-margin-left="0"
     fit-margin-right="0"
     fit-margin-bottom="0" />
  <g
     transform="matrix(0.94498409,0,0,0.94498402,-149.15874,550.25834)"
     id="layer1-7"
     inkscape:label="Layer 1"
     style="fill:#ffffff;fill-opacity:1">
    <g
       id="g3049"
       transform="matrix(1.4436998,0,0,1.4436998,-105.42852,-917.76024)"
       style="fill:#ffffff;fill-opacity:1">
      <path
         inkscape:connector-curvature="0"
         id="path25087"
         d="m 182.37826,346.59814 c 10.13052,-9.73786 19.35792,-23.00961 26.17049,-38.6962 6.81258,-15.70622 10.18942,-31.5106 10.36611,-45.56767 l -0.1178,0.1178 c -10.09125,9.71822 -19.27939,22.95071 -26.07232,38.59803 -6.77331,15.62769 -10.15015,31.37318 -10.36611,45.39098"
         style="fill:#ffffff;fill-opacity:1;fill-rule:nonzero;stroke:none" />
      <path
         inkscape:connector-curvature="0"
         id="path25091"
         d="m 193.34192,368.63462 c 13.64685,-13.06265 26.07527,-30.86362 35.27139,-51.95442 9.19623,-21.11027 13.77879,-42.34482 14.06433,-61.24857 l -0.17612,0.15474 c -13.58834,13.04351 -25.97771,30.82525 -35.13443,51.83839 -9.15673,21.01314 -13.73883,42.16982 -14.06298,61.01492"
         style="fill:#ffffff;fill-opacity:1;fill-rule:nonzero;stroke:none" />
      <path
         inkscape:connector-curvature="0"
         style="fill:#ffffff;fill-opacity:1;fill-rule:nonzero;stroke:none"
         d="m 208.21437,399.5065 c 18.55911,-17.75864 35.49077,-41.94935 47.99581,-70.60485 12.52504,-28.65528 18.79834,-57.53941 19.20179,-83.23133 l -0.24197,0.19716 c -18.47896,17.73954 -35.33003,41.87119 -47.814,70.42702 -12.48397,28.55581 -18.73598,57.3203 -19.19826,82.91165"
         id="path25095" />
      <path
         inkscape:connector-curvature="0"
         id="path25101"
         d="m 228.74286,439.94168 c 24.95743,-23.97263 47.67792,-56.67299 64.42367,-95.32534 16.78549,-38.67198 25.1127,-77.62178 25.55423,-112.25044 l -0.31829,0.27585 c -24.83857,23.9732 -47.45941,56.55515 -64.16499,95.08884 -16.70559,38.53368 -25.01384,77.66189 -25.51424,112.17137"
         style="fill:#ffffff;fill-opacity:1;fill-rule:nonzero;stroke:none" />
    </g>
  </g>
  <g
     id="#72147dff"
     style="fill:#72147d;fill-opacity:1"
     transform="translate(-28.881415,-64.05975)" />
  <g
     id="#6d1371ff"
     style="fill:#72147d;fill-opacity:1"
     transform="translate(-28.881415,-64.05975)" />
  <g
     transform="matrix(0.28506191,0,0,0.28506191,17.942089,43.089734)"
     id="g828"
     style="fill:#ffffff;fill-opacity:1">
    <path
       sodipodi:nodetypes="ccccccccccccc"
       inkscape:connector-curvature="0"
       id="path2998"
       d="m 703.57778,185.78249 h 39.82005 c -0.93811,-43.82677 -34.38014,-73.69492 -88.25038,-73.69492 -46.01739,0 -82.77808,27.20808 -82.77808,66.91747 0,88.63535 137.22093,45.63874 137.22093,104.83144 0,23.22971 -23.19717,34.95251 -47.59675,34.95251 -33.35925,0 -56.89841,-16.105 -58.46993,-48.76697 h -39.44201 c 0,60.34982 48.74818,80.77422 93.94254,80.77422 52.85752,0 91.48529,-24.90007 91.48529,-70.00012 0,-91.44569 -137.66898,-50.68365 -137.66898,-106.35479 0,-18.92299 17.55838,-29.23498 42.15129,-29.23498 36.53991,0 47.65192,19.03905 49.58603,40.57614 z"
       style="fill:#ffffff;fill-opacity:1;stroke:none" />
    <path
       sodipodi:nodetypes="ccsscssccssscccssscc"
       inkscape:connector-curvature="0"
       id="path3055"
       d="M 764.6641,117.54423 V 345.2336 h 111.14088 c 43.98931,0 77.48554,-21.43604 77.48554,-63.25495 0,-29.14747 -10.25438,-48.93024 -42.54946,-59.27039 17.89789,-7.75936 31.73421,-19.80818 31.73421,-49.30898 0,-37.63632 -24.98961,-55.85505 -66.38568,-55.85505 z m 39.63218,31.87652 h 64.67802 c 25.17561,0 34.72262,14.3355 34.72262,31.94766 0,19.93798 -13.3862,31.80536 -32.44573,31.80536 h -66.95491 z m 3e-4,92.44229 h 69.76644 c 27.82931,0 39.95108,15.38303 39.95108,35.84643 0,22.49162 -18.15081,35.64762 -38.77835,35.64762 h -70.93947 z"
       style="fill:#ffffff;fill-opacity:1;stroke:none" />
    <path
       style="fill:#ffffff;fill-opacity:1;stroke:none"
       d="m 1103.4788,185.78249 h 39.82 c -0.9381,-43.82677 -34.3801,-73.69492 -88.2503,-73.69492 -46.0174,0 -82.77812,27.20808 -82.77812,66.91747 0,88.63535 137.22092,45.63874 137.22092,104.83144 0,23.22971 -23.1972,34.95251 -47.5967,34.95251 -33.3593,0 -56.8984,-16.105 -58.47,-48.76697 h -39.44197 c 0,60.34982 48.74817,80.77422 93.94257,80.77422 52.8575,0 91.4853,-24.90007 91.4853,-70.00012 0,-91.44569 -137.669,-50.68365 -137.669,-106.35479 0,-18.92299 17.5584,-29.23498 42.1513,-29.23498 36.5399,0 47.6519,19.03905 49.586,40.57614 z"
       id="path3061"
       inkscape:connector-curvature="0"
       sodipodi:nodetypes="ccccccccccccc" />
  </g>
  <g
     style="fill:#ffffff;fill-opacity:1"
     id="g4534"
     transform="matrix(1.2343209,0,0,1.2343209,-35.648934,-145.42769)">
    <path
       d="m 285.45,239.49 c 2.09,0 4.19,0 6.29,0 -0.08,6.51 0.04,13.03 -0.1,19.55 5.62,-8.36 19.43,-7.69 25.43,-0.1 4.32,5.28 5.02,12.55 4.12,19.09 -0.85,3.42 -2.1,6.87 -4.53,9.5 -6.3,7.22 -19.18,7.02 -25.02,-0.7 0.03,1.66 0.06,3.32 0.1,4.99 -2.11,-0.01 -4.21,-0.04 -6.3,0.02 0.03,-17.45 0.03,-34.9 0.01,-52.35 m 12.92,20.04 c -7.36,3.66 -8.13,13.81 -5.52,20.72 2.31,6.8 11.71,9.24 17.27,4.92 3.61,-2.87 4.77,-7.75 4.72,-12.16 0.14,-3.97 -0.87,-8.19 -3.68,-11.11 -3.13,-3.51 -8.6,-4.2 -12.79,-2.37 z"
       id="path12"
       style="opacity:1;fill:#ffffff;fill-opacity:1"
       inkscape:connector-curvature="0" />
    <path
       d="m 178.97,278.86 c 5.26,-13.1 10.26,-26.3 15.54,-39.38 2.54,0.02 5.09,0.02 7.63,0.02 6.96,17.4 13.57,34.95 20.65,52.31 -2.62,-0.02 -5.24,-0.01 -7.86,0 -1.91,-5.22 -3.77,-10.46 -5.72,-15.66 -7.41,0.09 -14.82,0.01 -22.23,0.05 -1.94,5.21 -3.87,10.43 -5.83,15.64 -2.41,-0.03 -4.82,-0.05 -7.23,-0.06 1.71,-4.3 3.43,-8.59 5.05,-12.92 m 19.14,-33.13 c -2.91,8.21 -5.91,16.38 -8.93,24.55 5.95,-0.02 11.89,0.01 17.83,-0.02 -2.98,-8.17 -5.72,-16.43 -8.9,-24.53 z"
       id="path14"
       style="opacity:1;fill:#ffffff;fill-opacity:1"
       inkscape:connector-curvature="0" />
    <path
       d="m 326.85,239.53 c 2.13,-0.03 4.26,-0.04 6.4,-0.04 -0.01,2.57 -0.02,5.13 -0.03,7.7 -2.12,0 -4.24,0 -6.36,-0.01 -0.01,-2.55 -0.01,-5.1 -0.01,-7.65 z"
       id="path16"
       style="opacity:1;fill:#ffffff;fill-opacity:1"
       inkscape:connector-curvature="0" />
    <path
       d="m 384.99,242.2 c 6.07,-3.78 14.57,-3.72 20.44,0.43 7.23,5.41 7.9,17.04 1.79,23.56 -5.81,7.48 -16.38,9.75 -21.15,18.13 8.43,0.1 16.86,0.01 25.3,0.05 -0.02,2.47 -0.02,4.95 -0.01,7.44 -11.76,-0.06 -23.51,-0.03 -35.26,-0.02 0.16,-4.7 1.59,-9.4 4.54,-13.11 5.24,-6.97 14.23,-9.65 19.78,-16.3 3.09,-3.63 3.52,-9.54 0.51,-13.33 -3.34,-3.61 -10.35,-3.65 -13.11,0.68 -1.87,2.83 -2.19,6.31 -2.36,9.61 -2.8,-0.01 -5.59,-0.01 -8.38,-0.01 -0.03,-6.47 2.26,-13.46 7.91,-17.13 z"
       id="path18"
       style="opacity:1;fill:#ffffff;fill-opacity:1"
       inkscape:connector-curvature="0" />
    <path
       d="m 434.45,240.62 c 2.73,-0.09 5.47,-0.05 8.21,-0.15 -0.24,10.6 -0.04,21.2 -0.11,31.81 v 0.91 c 2.19,-0.01 4.39,-0.02 6.59,-0.01 0.01,2.16 0,4.32 0,6.49 -2.22,-0.01 -4.43,-0.02 -6.63,-0.02 0,4.06 0.01,8.11 0.02,12.17 -2.67,-0.03 -5.33,-0.04 -7.99,-0.06 0.05,-4.04 0.05,-8.07 0.05,-12.1 -7.36,0.02 -14.71,-0.02 -22.07,0.02 0.34,-3.29 -0.97,-7.15 1.2,-9.98 6.91,-9.69 13.92,-19.32 20.73,-29.08 M 419,273.19 c 5.18,-0.01 10.36,-0.02 15.55,0 0.05,-7.6 0.09,-15.2 -0.02,-22.8 -5.19,7.59 -10.44,15.15 -15.53,22.8 z"
       id="path20"
       style="opacity:1;fill:#ffffff;fill-opacity:1"
       inkscape:connector-curvature="0" />
    <path
       d="m 237.68,254.68 c 2.29,-1.42 5.05,-1.4 7.64,-1.67 0.01,2.17 0.01,4.34 0.02,6.52 -2.9,0.38 -6.02,0.52 -8.5,2.27 -3.7,2.4 -5.06,7.05 -5.21,11.24 -0.15,6.23 -0.02,12.47 -0.03,18.7 -2.11,0.12 -4.21,0.1 -6.31,0.1 0.06,-12.66 -0.01,-25.32 0.04,-37.98 1.96,0 3.92,0 5.88,0.01 0,2.7 0.01,5.4 0.02,8.1 1.7,-2.77 3.5,-5.7 6.45,-7.29 z"
       id="path22"
       style="opacity:1;fill:#ffffff;fill-opacity:1"
       inkscape:connector-curvature="0" />
    <path
       d="m 251.48,256.55 c 4.86,-3.87 11.53,-3.75 17.38,-3.04 4.1,0.53 8.3,3.43 8.69,7.83 0.33,7.21 0.01,14.43 0.11,21.64 -0.12,1.56 0.38,3.03 0.97,4.45 0.76,-0.09 2.27,-0.27 3.03,-0.36 -0.03,1.69 -0.07,3.38 -0.1,5.08 -2.49,0.22 -5.3,1.32 -7.58,-0.19 -1.64,-0.99 -1.77,-3.08 -2.37,-4.7 -5.99,6.47 -17.46,7.75 -23.99,1.42 -2.57,-4.49 -2.65,-10.95 1.45,-14.55 5.77,-4.48 13.58,-3.42 20.15,-5.73 3.77,-1.54 2.64,-7.38 -0.68,-8.82 -3.62,-1.48 -8.03,-1.45 -11.58,0.22 -2.37,1.07 -2.92,3.75 -3.65,5.97 -2.06,-0.02 -4.12,-0.04 -6.17,-0.07 0.53,-3.37 1.5,-6.97 4.34,-9.15 m 3.93,19.85 c -3.58,1.84 -4.13,7.73 -0.43,9.74 5.66,2.85 14.41,0.48 16.33,-6.03 0.27,-2.55 0.13,-5.13 0.19,-7.68 -5.05,2.53 -11.11,1.33 -16.09,3.97 z"
       id="path24"
       style="opacity:1;fill:#ffffff;fill-opacity:1"
       inkscape:connector-curvature="0" />
    <path
       d="m 343.93,257.93 c 4.99,-5.28 13.2,-5.76 19.79,-3.71 5.17,1.63 8.88,6.56 9.17,11.95 -2.09,0.01 -4.17,0.02 -6.25,0.03 -0.93,-2.19 -1.74,-4.68 -3.88,-6 -4.64,-2.97 -11.73,-1.96 -14.93,2.69 -3.86,6.5 -4.01,16.25 1.52,21.87 4.21,3.82 11.69,3.35 15.18,-1.22 1.31,-1.6 1.74,-3.67 2.32,-5.6 2.06,0.1 4.13,0.16 6.21,0.19 -0.63,4.21 -2.4,8.44 -5.81,11.16 -4.71,3.8 -11.39,4.19 -17.04,2.61 -6.19,-1.74 -10.39,-7.62 -11.33,-13.81 -1.02,-6.96 -0.05,-14.91 5.05,-20.16 z"
       id="path26"
       style="opacity:1;fill:#ffffff;fill-opacity:1"
       inkscape:connector-curvature="0" />
    <path
       d="m 326.81,254.15 c 2.12,-0.28 4.27,-0.36 6.41,-0.3 0.03,12.66 0,25.31 0.02,37.96 -2.13,0 -4.26,-0.02 -6.39,-0.04 -0.02,-12.54 0.07,-25.08 -0.04,-37.62 z"
       id="path28"
       style="opacity:1;fill:#ffffff;fill-opacity:1"
       inkscape:connector-curvature="0" />
  </g>
  <g
     id="#691368ff"
     style="fill:#72147d;fill-opacity:1"
     transform="translate(-28.881415,-64.05975)" />
  <g
     id="#661263ff"
     style="fill:#72147d;fill-opacity:1"
     transform="translate(-28.881415,-64.05975)" />
  <g
     id="#64125dff"
     style="fill:#72147d;fill-opacity:1"
     transform="translate(-28.881415,-64.05975)" />
  <g
     id="#671263ff"
     style="fill:#72147d;fill-opacity:1"
     transform="translate(-28.881415,-64.05975)" />
  <g
     id="#5b0a4bff"
     style="fill:#72147d;fill-opacity:1"
     transform="translate(-28.881415,-64.05975)" />
  <g
     id="#6a136aff"
     style="fill:#72147d;fill-opacity:1"
     transform="translate(-28.881415,-64.05975)" />
  <g
     id="#681367ff"
     style="fill:#72147d;fill-opacity:1"
     transform="translate(-28.881415,-64.05975)" />
  <g
     id="#671365ff"
     style="fill:#72147d;fill-opacity:1"
     transform="translate(-28.881415,-64.05975)" />
  <g
     id="#5c0b50ff"
     style="fill:#72147d;fill-opacity:1"
     transform="translate(-28.881415,-64.05975)" />
  <g
     id="#63125aff"
     style="fill:#72147d;fill-opacity:1"
     transform="translate(-28.881415,-64.05975)" />
  <g
     id="#65036cff"
     style="fill:#72147d;fill-opacity:1"
     transform="translate(-28.881415,-64.05975)" />
  <g
     id="#6b136cff"
     style="fill:#72147d;fill-opacity:1"
     transform="translate(-28.881415,-64.05975)" />
  <g
     id="#6d1372ff"
     style="fill:#72147d;fill-opacity:1"
     transform="translate(-28.881415,-64.05975)" />
  <g
     id="#6c136eff"
     style="fill:#72147d;fill-opacity:1"
     transform="translate(-28.881415,-64.05975)" />
</svg>
