<?xml version="1.0" encoding="UTF-8" standalone="no"?>
<svg
   xmlns:dc="http://purl.org/dc/elements/1.1/"
   xmlns:cc="http://creativecommons.org/ns#"
   xmlns:rdf="http://www.w3.org/1999/02/22-rdf-syntax-ns#"
   xmlns:svg="http://www.w3.org/2000/svg"
   xmlns="http://www.w3.org/2000/svg"
   xmlns:sodipodi="http://sodipodi.sourceforge.net/DTD/sodipodi-0.dtd"
   xmlns:inkscape="http://www.inkscape.org/namespaces/inkscape"
   width="414.06467pt"
   height="283.19pt"
   viewBox="0 0 414.06467 283.19"
   version="1.1"
   id="svg2"
   inkscape:version="0.91 r13725"
   sodipodi:docname="SBS Radio 2.svg">
  <metadata
     id="metadata32">
    <rdf:RDF>
      <cc:Work
         rdf:about="">
        <dc:format>image/svg+xml</dc:format>
        <dc:type
           rdf:resource="http://purl.org/dc/dcmitype/StillImage" />
        <dc:title />
      </cc:Work>
    </rdf:RDF>
  </metadata>
  <defs
     id="defs30" />
  <sodipodi:namedview
     pagecolor="#ffffff"
     bordercolor="#666666"
     borderopacity="1"
     objecttolerance="10"
     gridtolerance="10"
     guidetolerance="10"
     inkscape:pageopacity="0"
     inkscape:pageshadow="2"
     inkscape:window-width="1920"
     inkscape:window-height="1017"
     id="namedview28"
     showgrid="false"
     fit-margin-top="0"
     fit-margin-left="0"
     fit-margin-right="0"
     fit-margin-bottom="0"
     inkscape:zoom="0.89001173"
     inkscape:cx="-52.749014"
     inkscape:cy="39.995205"
     inkscape:window-x="-8"
     inkscape:window-y="-8"
     inkscape:window-maximized="1"
     inkscape:current-layer="svg2" />
  <g
     id="#e6e6e6e6"
     transform="translate(-92.98,-158.91)" />
  <path
     style="opacity:1;fill:#ffffff;fill-opacity:1"
     inkscape:connector-curvature="0"
     id="path14"
     d="m 171.52,202.27 c 7.17,0.03 14.35,-0.07 21.52,0.03 4.07,0.07 8.44,1.52 10.83,5 3.92,5.89 1.8,15.34 -5.19,17.84 2,0.88 4.2,2 4.95,4.23 2.16,5.52 0.31,11.98 3.56,17.19 -2.21,-0.04 -4.42,-0.03 -6.62,0.05 -1.93,-5.16 -0.28,-11.09 -2.94,-16.06 -1.02,-2.07 -3.43,-2.88 -5.6,-2.85 -4.85,-0.14 -9.71,0.01 -14.56,-0.04 -0.02,6.29 0,12.58 -0.01,18.87 -1.98,-0.01 -3.96,0 -5.94,0 0,-14.75 0,-29.51 0,-44.26 m 5.94,5.02 c 0.01,5.11 0,10.23 0.01,15.35 5.8,-0.25 11.73,0.64 17.43,-0.68 6.85,-1.56 6.53,-13.36 -0.48,-14.39 -5.62,-0.64 -11.31,-0.13 -16.96,-0.28 z" />
  <path
     style="opacity:1;fill:#ffffff;fill-opacity:1"
     inkscape:connector-curvature="0"
     id="path16"
     d="m 264.96,202.27 c 1.76,0 3.53,0 5.31,0 0.01,14.75 0.01,29.51 0,44.26 -1.78,-0.01 -3.56,-0.01 -5.33,0.01 0.02,-1.07 0.07,-3.19 0.1,-4.25 -5.18,7.62 -18.26,6.22 -22.55,-1.64 -3.64,-6.51 -3.56,-15.23 0.65,-21.46 4.89,-7.03 16.62,-7.36 21.89,-0.58 -0.15,-5.45 -0.05,-10.9 -0.07,-16.34 m -12.43,16.48 c -3.45,0.77 -5.74,3.98 -6.42,7.29 -1.05,4.54 -0.78,9.88 2.39,13.55 3.77,4.4 11.87,3.86 14.71,-1.32 2.55,-4.66 2.59,-10.73 0.07,-15.41 -2.04,-3.73 -6.79,-5.14 -10.75,-4.11 z" />
  <path
     style="opacity:1;fill:#ffffff;fill-opacity:1"
     inkscape:connector-curvature="0"
     id="path18"
     d="m 276.32,202.27 c 1.77,0 3.55,0 5.33,0 -0.01,2.17 -0.01,4.34 0,6.51 -1.78,-0.01 -3.56,0 -5.32,0.01 -0.01,-2.18 -0.01,-4.35 -0.01,-6.52 z" />
  <path
     style="opacity:1;fill:#ffffff;fill-opacity:1"
     inkscape:connector-curvature="0"
     id="path20"
     d="m 324.47,205.46 c 5.54,-4.14 14.18,-3.87 19.33,0.82 5.28,5.2 4.4,14.71 -1.04,19.49 -5.73,5.88 -15.58,7.6 -18.58,15.98 7.57,0.18 15.15,0.03 22.72,0.09 -0.01,1.56 -0.01,3.12 0,4.69 -9.57,0.03 -19.15,-0.03 -28.72,0.03 0.35,-4.03 1.41,-8.13 4.01,-11.32 4.38,-5.52 11.49,-7.73 16.44,-12.61 2.94,-2.79 3.96,-7.52 2.12,-11.18 -2.47,-4.56 -9.6,-5.64 -13.19,-1.82 -2.22,2.26 -2.66,5.53 -2.92,8.54 -1.79,-0.03 -3.58,-0.06 -5.36,-0.07 0.07,-4.65 1.29,-9.7 5.19,-12.64 z" />
  <path
     style="opacity:1;fill:#ffffff;fill-opacity:1"
     inkscape:connector-curvature="0"
     id="path22"
     d="m 214.21,216.28 c 4.29,-2.93 9.91,-2.94 14.84,-2.03 3.49,0.54 6.61,3.4 6.69,7.07 0.33,6.99 -0.16,14 0.27,20.99 0.78,0.03 2.35,0.1 3.13,0.14 -0.08,1.45 -0.16,2.92 -0.24,4.38 -2.4,0.29 -5.61,1.18 -7.25,-1.22 -0.25,-0.76 -0.75,-2.27 -1,-3.03 -4.09,4.64 -11.17,5.86 -16.8,3.6 -6.36,-2.46 -6.56,-12.9 -0.48,-15.8 4.73,-2.48 10.29,-2 15.24,-3.74 3.22,-1.28 2.2,-6.43 -0.74,-7.44 -4.63,-1.87 -12.05,-0.82 -12.5,5.28 -1.77,-0.01 -3.53,-0.02 -5.28,-0.03 0.42,-3.08 1.39,-6.36 4.12,-8.17 m 3.15,17.04 c -3.39,1.42 -3.77,7.06 -0.23,8.53 3.96,1.49 9.11,0.66 11.91,-2.69 2.05,-2.48 1.35,-5.91 1.56,-8.86 -4.27,1.63 -9.06,1.18 -13.24,3.02 z" />
  <path
     style="opacity:1;fill:#ffffff;fill-opacity:1"
     inkscape:connector-curvature="0"
     id="path24"
     d="m 276.33,214.46 c 1.77,0 3.54,0 5.32,0 0,10.7 0.01,21.39 -0.01,32.08 -1.78,-0.02 -3.55,-0.02 -5.32,-0.02 0.01,-10.69 -0.01,-21.37 0.01,-32.06 z" />
  <path
     style="opacity:1;fill:#ffffff;fill-opacity:1"
     inkscape:connector-curvature="0"
     id="path26"
     d="m 295.46,214.67 c 6.24,-2.13 14.18,-0.79 18.15,4.85 4.14,6.03 4.28,14.54 0.72,20.87 -5.47,9.57 -21.86,9.14 -26.61,-0.9 -4.22,-8.42 -2.01,-21.41 7.74,-24.82 m 3.9,3.95 c -8.04,1.71 -9.73,12.33 -6.49,18.74 2.31,5.04 9.36,6.82 13.8,3.5 4.85,-3.6 5.42,-10.71 3.54,-16.05 -1.48,-4.36 -6.3,-7.24 -10.85,-6.19 z" />
  <g
     transform="matrix(0.944984,0,0,0.944984,-149.15873,550.2581)"
     id="layer1-7"
     inkscape:label="Layer 1"
     style="fill:#ffffff;fill-opacity:1">
    <g
       id="g3049"
       transform="matrix(1.4436998,0,0,1.4436998,-105.42852,-917.76024)"
       style="fill:#ffffff;fill-opacity:1">
      <path
         inkscape:connector-curvature="0"
         id="path25087"
         d="m 182.37826,346.59814 c 10.13052,-9.73786 19.35792,-23.00961 26.17049,-38.6962 6.81258,-15.70622 10.18942,-31.5106 10.36611,-45.56767 l -0.1178,0.1178 c -10.09125,9.71822 -19.27939,22.95071 -26.07232,38.59803 -6.77331,15.62769 -10.15015,31.37318 -10.36611,45.39098"
         style="fill:#ffffff;fill-opacity:1;fill-rule:nonzero;stroke:none" />
      <path
         inkscape:connector-curvature="0"
         id="path25091"
         d="m 193.34192,368.63462 c 13.64685,-13.06265 26.07527,-30.86362 35.27139,-51.95442 9.19623,-21.11027 13.77879,-42.34482 14.06433,-61.24857 l -0.17612,0.15474 c -13.58834,13.04351 -25.97771,30.82525 -35.13443,51.83839 -9.15673,21.01314 -13.73883,42.16982 -14.06298,61.01492"
         style="fill:#ffffff;fill-opacity:1;fill-rule:nonzero;stroke:none" />
      <path
         inkscape:connector-curvature="0"
         style="fill:#ffffff;fill-opacity:1;fill-rule:nonzero;stroke:none"
         d="m 208.21437,399.5065 c 18.55911,-17.75864 35.49077,-41.94935 47.99581,-70.60485 12.52504,-28.65528 18.79834,-57.53941 19.20179,-83.23133 l -0.24197,0.19716 c -18.47896,17.73954 -35.33003,41.87119 -47.814,70.42702 -12.48397,28.55581 -18.73598,57.3203 -19.19826,82.91165"
         id="path25095" />
      <path
         inkscape:connector-curvature="0"
         id="path25101"
         d="m 228.74286,439.94168 c 24.95743,-23.97263 47.67792,-56.67299 64.42367,-95.32534 16.78549,-38.67198 25.1127,-77.62178 25.55423,-112.25044 l -0.31829,0.27585 c -24.83857,23.9732 -47.45941,56.55515 -64.16499,95.08884 -16.70559,38.53368 -25.01384,77.66189 -25.51424,112.17137"
         style="fill:#ffffff;fill-opacity:1;fill-rule:nonzero;stroke:none" />
    </g>
  </g>
  <g
     id="g4255"
     transform="matrix(0.41400423,0,0,0.41400423,-62.117769,46.161331)"
     style="fill:#ffffff;fill-opacity:1">
    <path
       sodipodi:nodetypes="ccccccccccccc"
       inkscape:connector-curvature="0"
       id="path2998"
       d="m 703.57778,185.78249 39.82005,0 c -0.93811,-43.82677 -34.38014,-73.69492 -88.25038,-73.69492 -46.01739,0 -82.77808,27.20808 -82.77808,66.91747 0,88.63535 137.22093,45.63874 137.22093,104.83144 0,23.22971 -23.19717,34.95251 -47.59675,34.95251 -33.35925,0 -56.89841,-16.105 -58.46993,-48.76697 l -39.44201,0 c 0,60.34982 48.74818,80.77422 93.94254,80.77422 52.85752,0 91.48529,-24.90007 91.48529,-70.00012 0,-91.44569 -137.66898,-50.68365 -137.66898,-106.35479 0,-18.92299 17.55838,-29.23498 42.15129,-29.23498 36.53991,0 47.65192,19.03905 49.58603,40.57614 z"
       style="fill:#ffffff;fill-opacity:1;stroke:none" />
    <path
       sodipodi:nodetypes="ccsscssccssscccssscc"
       inkscape:connector-curvature="0"
       id="path3055"
       d="m 764.6641,117.54423 0,227.68937 111.14088,0 c 43.98931,0 77.48554,-21.43604 77.48554,-63.25495 0,-29.14747 -10.25438,-48.93024 -42.54946,-59.27039 17.89789,-7.75936 31.73421,-19.80818 31.73421,-49.30898 0,-37.63632 -24.98961,-55.85505 -66.38568,-55.85505 z m 39.63218,31.87652 64.67802,0 c 25.17561,0 34.72262,14.3355 34.72262,31.94766 0,19.93798 -13.3862,31.80536 -32.44573,31.80536 l -66.95491,0 z m 3e-4,92.44229 69.76644,0 c 27.82931,0 39.95108,15.38303 39.95108,35.84643 0,22.49162 -18.15081,35.64762 -38.77835,35.64762 l -70.93947,0 z"
       style="fill:#ffffff;fill-opacity:1;stroke:none" />
    <path
       style="fill:#ffffff;fill-opacity:1;stroke:none"
       d="m 1103.4788,185.78249 39.82,0 c -0.9381,-43.82677 -34.3801,-73.69492 -88.2503,-73.69492 -46.0174,0 -82.77812,27.20808 -82.77812,66.91747 0,88.63535 137.22092,45.63874 137.22092,104.83144 0,23.22971 -23.1972,34.95251 -47.5967,34.95251 -33.3593,0 -56.8984,-16.105 -58.47,-48.76697 l -39.44197,0 c 0,60.34982 48.74817,80.77422 93.94257,80.77422 52.8575,0 91.4853,-24.90007 91.4853,-70.00012 0,-91.44569 -137.669,-50.68365 -137.669,-106.35479 0,-18.92299 17.5584,-29.23498 42.1513,-29.23498 36.5399,0 47.6519,19.03905 49.586,40.57614 z"
       id="path3061"
       inkscape:connector-curvature="0"
       sodipodi:nodetypes="ccccccccccccc" />
  </g>
</svg>
