<?xml version="1.0" encoding="UTF-8" standalone="no"?>
<svg
   xmlns:dc="http://purl.org/dc/elements/1.1/"
   xmlns:cc="http://creativecommons.org/ns#"
   xmlns:rdf="http://www.w3.org/1999/02/22-rdf-syntax-ns#"
   xmlns:svg="http://www.w3.org/2000/svg"
   xmlns="http://www.w3.org/2000/svg"
   xmlns:sodipodi="http://sodipodi.sourceforge.net/DTD/sodipodi-0.dtd"
   xmlns:inkscape="http://www.inkscape.org/namespaces/inkscape"
   width="414.06345pt"
   height="283.10999pt"
   viewBox="0 0 414.06345 283.10999"
   version="1.1"
   id="svg2"
   inkscape:version="0.91 r13725"
   sodipodi:docname="SBS Radio 3.svg">
  <metadata
     id="metadata32">
    <rdf:RDF>
      <cc:Work
         rdf:about="">
        <dc:format>image/svg+xml</dc:format>
        <dc:type
           rdf:resource="http://purl.org/dc/dcmitype/StillImage" />
        <dc:title></dc:title>
      </cc:Work>
    </rdf:RDF>
  </metadata>
  <defs
     id="defs30" />
  <sodipodi:namedview
     pagecolor="#ffffff"
     bordercolor="#666666"
     borderopacity="1"
     objecttolerance="10"
     gridtolerance="10"
     guidetolerance="10"
     inkscape:pageopacity="0"
     inkscape:pageshadow="2"
     inkscape:window-width="1920"
     inkscape:window-height="1017"
     id="namedview28"
     showgrid="false"
     fit-margin-top="0"
     fit-margin-left="0"
     fit-margin-right="0"
     fit-margin-bottom="0"
     inkscape:zoom="0.31466667"
     inkscape:cx="258.775"
     inkscape:cy="177.6375"
     inkscape:window-x="-8"
     inkscape:window-y="-8"
     inkscape:window-maximized="1"
     inkscape:current-layer="svg2" />
  <g
     id="#e6e6e6e6"
     transform="translate(-92.98,-159)" />
  <path
     style="opacity:1;fill:#264c5a"
     inkscape:connector-curvature="0"
     id="path14"
     d="m 171.53,202.17 c 7.2,0.05 14.4,-0.07 21.6,0.05 4.02,0.08 8.32,1.52 10.7,4.94 3.99,5.89 1.86,15.65 -5.38,17.88 2.12,0.81 4.4,1.93 5.19,4.25 2.13,5.53 0.33,11.97 3.54,17.19 -2.33,-0.02 -4.65,-0.05 -6.98,-0.16 -1.07,-5.03 -0.25,-10.4 -2.24,-15.22 -0.78,-2.04 -2.84,-3.37 -4.98,-3.42 -5.16,-0.3 -10.34,-0.02 -15.5,-0.12 -0.04,6.29 0,12.58 -0.02,18.88 -1.98,0 -3.96,-0.01 -5.94,0.01 0,-14.76 -0.01,-29.52 0.01,-44.28 m 5.93,5.03 c 0.01,5.11 0,10.23 0.01,15.35 5.83,-0.26 11.8,0.67 17.53,-0.71 6.76,-1.64 6.39,-13.31 -0.55,-14.35 -5.64,-0.66 -11.34,-0.14 -16.99,-0.29 z" />
  <path
     style="opacity:1;fill:#264c5a"
     inkscape:connector-curvature="0"
     id="path16"
     d="m 264.96,202.18 c 1.76,0 3.53,0 5.31,0 0.01,14.75 0.01,29.51 0,44.26 -1.78,-0.01 -3.56,-0.01 -5.34,0 0.03,-1.05 0.09,-3.17 0.12,-4.23 -5.2,7.58 -18.22,6.22 -22.55,-1.62 -3.76,-6.72 -3.6,-15.87 1.1,-22.09 5.15,-6.48 16.28,-6.52 21.44,-0.01 -0.17,-5.44 -0.06,-10.88 -0.08,-16.31 m -12.53,16.5 c -3.06,0.74 -5.27,3.44 -6.08,6.39 -1.3,4.58 -1.21,10.02 1.76,13.96 3.43,4.63 11.44,4.61 14.68,-0.22 2.91,-4.5 3.03,-10.57 0.85,-15.39 -1.87,-4.15 -6.97,-5.92 -11.21,-4.74 z" />
  <path
     style="opacity:1;fill:#264c5a"
     inkscape:connector-curvature="0"
     id="path18"
     d="m 276.32,202.18 c 1.77,0 3.55,0 5.33,0.01 -0.01,2.16 -0.01,4.33 0,6.5 -1.78,0 -3.56,0 -5.32,0.01 -0.01,-2.18 -0.01,-4.35 -0.01,-6.52 z" />
  <path
     style="opacity:1;fill:#264c5a"
     inkscape:connector-curvature="0"
     id="path20"
     d="m 324.02,206.01 c 4.24,-4.16 11.04,-4.24 16.32,-2.31 5.24,1.9 7.81,8.27 6.12,13.42 -0.87,2.65 -3.11,4.49 -5.35,5.98 9.07,2.01 10.05,15.15 3.49,20.47 -5.39,4.37 -13.63,4.79 -19.61,1.4 -4.26,-2.43 -5.97,-7.48 -6.04,-12.14 1.76,-0.02 3.53,-0.03 5.29,-0.04 0.26,4.43 2.93,9.21 7.8,9.56 5.97,1.3 12.75,-4 10.92,-10.38 -1.06,-5.54 -7.49,-6.89 -12.27,-6.22 0,-1.47 0,-2.92 0.01,-4.37 4.69,0.66 11.03,-1.69 10.62,-7.35 0.19,-6.28 -8.2,-8.71 -12.62,-5.33 -2.58,1.83 -3.09,5.13 -3.49,8.05 -1.77,0 -3.54,0 -5.3,0.01 0.34,-3.86 1.22,-7.96 4.11,-10.75 z" />
  <path
     style="opacity:1;fill:#264c5a"
     inkscape:connector-curvature="0"
     id="path22"
     d="m 214.23,216.18 c 4.3,-2.93 9.95,-2.93 14.89,-2.01 3.44,0.56 6.51,3.38 6.62,7 0.34,7.02 -0.19,14.06 0.29,21.08 0.78,0.03 2.34,0.08 3.12,0.1 -0.08,1.47 -0.19,2.95 -0.28,4.43 -2.41,0.25 -5.65,1.13 -7.25,-1.3 -0.24,-0.75 -0.73,-2.23 -0.97,-2.98 -4.11,4.62 -11.16,5.85 -16.8,3.59 -6.35,-2.46 -6.57,-12.86 -0.51,-15.78 4.75,-2.51 10.35,-2.01 15.32,-3.78 3.15,-1.32 2.14,-6.39 -0.77,-7.41 -4.64,-1.89 -12.05,-0.83 -12.53,5.26 -1.76,0 -3.51,-0.01 -5.26,-0.01 0.4,-3.09 1.39,-6.38 4.13,-8.19 m 3.78,16.74 c -3.54,1.01 -4.71,6.42 -1.51,8.49 3.8,1.96 9,1.18 12.08,-1.82 2.53,-2.44 1.84,-6.22 2.03,-9.37 -4.08,1.47 -8.52,1.3 -12.6,2.7 z" />
  <path
     style="opacity:1;fill:#264c5a"
     inkscape:connector-curvature="0"
     id="path24"
     d="m 276.33,214.37 c 1.77,0 3.54,0 5.31,0 -0.02,10.71 0.08,21.42 -0.05,32.13 -1.77,-0.05 -3.54,-0.09 -5.31,-0.12 0.11,-10.67 0,-21.34 0.05,-32.01 z" />
  <path
     style="opacity:1;fill:#264c5a"
     inkscape:connector-curvature="0"
     id="path26"
     d="m 295.43,214.59 c 6.24,-2.15 14.2,-0.81 18.18,4.84 4.15,6.05 4.29,14.6 0.68,20.94 -5.52,9.53 -21.88,9.03 -26.6,-1.02 -4.17,-8.41 -1.97,-21.34 7.74,-24.76 m 4,3.93 c -8.05,1.64 -9.78,12.2 -6.63,18.62 2.28,5.15 9.45,7 13.93,3.59 4.8,-3.62 5.35,-10.69 3.48,-16.01 -1.48,-4.34 -6.26,-7.22 -10.78,-6.2 z" />
  <g
     transform="matrix(0.94498439,0,0,0.944984,-149.15879,550.17808)"
     id="layer1-7"
     inkscape:label="Layer 1"
     style="fill:#264c5a;fill-opacity:1">
    <g
       id="g3049"
       transform="matrix(1.4436998,0,0,1.4436998,-105.42852,-917.76024)"
       style="fill:#264c5a;fill-opacity:1">
      <path
         inkscape:connector-curvature="0"
         id="path25087"
         d="m 182.37826,346.59814 c 10.13052,-9.73786 19.35792,-23.00961 26.17049,-38.6962 6.81258,-15.70622 10.18942,-31.5106 10.36611,-45.56767 l -0.1178,0.1178 c -10.09125,9.71822 -19.27939,22.95071 -26.07232,38.59803 -6.77331,15.62769 -10.15015,31.37318 -10.36611,45.39098"
         style="fill:#264c5a;fill-opacity:1;fill-rule:nonzero;stroke:none" />
      <path
         inkscape:connector-curvature="0"
         id="path25091"
         d="m 193.34192,368.63462 c 13.64685,-13.06265 26.07527,-30.86362 35.27139,-51.95442 9.19623,-21.11027 13.77879,-42.34482 14.06433,-61.24857 l -0.17612,0.15474 c -13.58834,13.04351 -25.97771,30.82525 -35.13443,51.83839 -9.15673,21.01314 -13.73883,42.16982 -14.06298,61.01492"
         style="fill:#264c5a;fill-opacity:1;fill-rule:nonzero;stroke:none" />
      <path
         inkscape:connector-curvature="0"
         style="fill:#264c5a;fill-opacity:1;fill-rule:nonzero;stroke:none"
         d="m 208.21437,399.5065 c 18.55911,-17.75864 35.49077,-41.94935 47.99581,-70.60485 12.52504,-28.65528 18.79834,-57.53941 19.20179,-83.23133 l -0.24197,0.19716 c -18.47896,17.73954 -35.33003,41.87119 -47.814,70.42702 -12.48397,28.55581 -18.73598,57.3203 -19.19826,82.91165"
         id="path25095" />
      <path
         inkscape:connector-curvature="0"
         id="path25101"
         d="m 228.74286,439.94168 c 24.95743,-23.97263 47.67792,-56.67299 64.42367,-95.32534 16.78549,-38.67198 25.1127,-77.62178 25.55423,-112.25044 l -0.31829,0.27585 c -24.83857,23.9732 -47.45941,56.55515 -64.16499,95.08884 -16.70559,38.53368 -25.01384,77.66189 -25.51424,112.17137"
         style="fill:#264c5a;fill-opacity:1;fill-rule:nonzero;stroke:none" />
    </g>
  </g>
  <g
     id="g4255"
     transform="matrix(0.4140044,0,0,0.41400423,-62.117805,46.081307)"
     style="fill:#264c5a;fill-opacity:1">
    <path
       sodipodi:nodetypes="ccccccccccccc"
       inkscape:connector-curvature="0"
       id="path2998"
       d="m 703.57778,185.78249 39.82005,0 c -0.93811,-43.82677 -34.38014,-73.69492 -88.25038,-73.69492 -46.01739,0 -82.77808,27.20808 -82.77808,66.91747 0,88.63535 137.22093,45.63874 137.22093,104.83144 0,23.22971 -23.19717,34.95251 -47.59675,34.95251 -33.35925,0 -56.89841,-16.105 -58.46993,-48.76697 l -39.44201,0 c 0,60.34982 48.74818,80.77422 93.94254,80.77422 52.85752,0 91.48529,-24.90007 91.48529,-70.00012 0,-91.44569 -137.66898,-50.68365 -137.66898,-106.35479 0,-18.92299 17.55838,-29.23498 42.15129,-29.23498 36.53991,0 47.65192,19.03905 49.58603,40.57614 z"
       style="fill:#264c5a;fill-opacity:1;stroke:none" />
    <path
       sodipodi:nodetypes="ccsscssccssscccssscc"
       inkscape:connector-curvature="0"
       id="path3055"
       d="m 764.6641,117.54423 0,227.68937 111.14088,0 c 43.98931,0 77.48554,-21.43604 77.48554,-63.25495 0,-29.14747 -10.25438,-48.93024 -42.54946,-59.27039 17.89789,-7.75936 31.73421,-19.80818 31.73421,-49.30898 0,-37.63632 -24.98961,-55.85505 -66.38568,-55.85505 z m 39.63218,31.87652 64.67802,0 c 25.17561,0 34.72262,14.3355 34.72262,31.94766 0,19.93798 -13.3862,31.80536 -32.44573,31.80536 l -66.95491,0 z m 3e-4,92.44229 69.76644,0 c 27.82931,0 39.95108,15.38303 39.95108,35.84643 0,22.49162 -18.15081,35.64762 -38.77835,35.64762 l -70.93947,0 z"
       style="fill:#264c5a;fill-opacity:1;stroke:none" />
    <path
       style="fill:#264c5a;fill-opacity:1;stroke:none"
       d="m 1103.4788,185.78249 39.82,0 c -0.9381,-43.82677 -34.3801,-73.69492 -88.2503,-73.69492 -46.0174,0 -82.77812,27.20808 -82.77812,66.91747 0,88.63535 137.22092,45.63874 137.22092,104.83144 0,23.22971 -23.1972,34.95251 -47.5967,34.95251 -33.3593,0 -56.8984,-16.105 -58.47,-48.76697 l -39.44197,0 c 0,60.34982 48.74817,80.77422 93.94257,80.77422 52.8575,0 91.4853,-24.90007 91.4853,-70.00012 0,-91.44569 -137.669,-50.68365 -137.669,-106.35479 0,-18.92299 17.5584,-29.23498 42.1513,-29.23498 36.5399,0 47.6519,19.03905 49.586,40.57614 z"
       id="path3061"
       inkscape:connector-curvature="0"
       sodipodi:nodetypes="ccccccccccccc" />
  </g>
</svg>
