<svg height="283.19pt" viewBox="0 0 414.06506 283.19" width="414.06506pt" xmlns="http://www.w3.org/2000/svg"><g fill="#264c5a"><path d="m171.52 202.27c7.19.04 14.39-.07 21.58.04 4.04.07 8.37 1.52 10.75 4.97 3.99 5.92 1.81 15.86-5.6 17.86 1.97.65 4.11 1.53 5.05 3.54 2.71 5.62.48 12.46 3.89 17.88-2.24-.04-4.47-.04-6.7.01-1.76-5.19-.25-11.07-2.86-16.04-1.04-2.07-3.47-2.87-5.64-2.83-4.84-.14-9.68.01-14.52-.05-.02 6.3 0 12.59-.01 18.88-1.98-.01-3.96-.01-5.94.01 0-14.76 0-29.52 0-44.27m5.94 5.02c.01 5.11 0 10.23.01 15.35 4.5-.04 9 .1 13.5-.05 2.71-.16 5.81-.68 7.52-3.02 2.79-3.98 1.31-11.17-4.04-11.99-5.64-.66-11.33-.14-16.99-.29z"/><path d="m264.96 202.27h5.31c.01 14.75.01 29.51 0 44.26-1.78-.01-3.56-.01-5.33.01.02-1.06.07-3.19.09-4.25-5.17 7.62-18.24 6.22-22.54-1.63-3.74-6.7-3.59-15.82 1.08-22.03 5.12-6.51 16.33-6.6 21.46-.02-.15-5.45-.05-10.9-.07-16.34m-12.52 16.5c-3.07.74-5.29 3.44-6.09 6.4-1.29 4.56-1.21 9.96 1.72 13.9 3.41 4.69 11.5 4.68 14.74-.19 2.89-4.5 3-10.58.82-15.39-1.87-4.14-6.96-5.89-11.19-4.72z"/><path d="m276.32 202.27c1.77.01 3.55.01 5.33 0-.01 2.17-.01 4.34 0 6.52-1.78-.02-3.56-.02-5.33 0 0-2.18 0-4.35 0-6.52z"/><path d="m333.13 202.6c1.31-.01 2.63-.01 3.95-.01 0 14.65.01 29.3 0 43.95-1.8-.02-3.59-.02-5.37 0-.01-10.48-.01-20.96 0-31.44-3.8-.01-7.6-.02-11.4-.02.01-1.4.02-2.79.02-4.18 3.36-.29 7.07-.46 9.72-2.82 1.7-1.37 2.33-3.53 3.08-5.48z"/><path d="m214.2 216.28c4.3-2.94 9.95-2.94 14.89-2.02 3.49.55 6.59 3.43 6.66 7.1.32 6.99-.18 14 .27 20.99.79.03 2.36.08 3.14.11-.12 1.46-.19 2.93-.28 4.41-2.39.23-5.57 1.13-7.22-1.23-.25-.77-.76-2.3-1.01-3.06-4.09 4.65-11.19 5.86-16.82 3.59-6.32-2.47-6.54-12.81-.53-15.75 4.75-2.52 10.35-2.03 15.32-3.78 3.21-1.3 2.18-6.44-.76-7.45-4.63-1.86-12.05-.81-12.5 5.29-1.76-.02-3.52-.03-5.27-.03.42-3.08 1.39-6.35 4.11-8.17m3.11 17.06c-3.39 1.47-3.69 7.15-.1 8.55 3.95 1.43 9.03.6 11.81-2.71 2.07-2.48 1.38-5.92 1.58-8.88-4.29 1.65-9.1 1.17-13.29 3.04z"/><path d="m276.33 214.46c1.77.01 3.54.01 5.32 0 0 10.69.01 21.39-.01 32.08-1.78-.02-3.55-.02-5.32-.01.01-10.69-.01-21.38.01-32.07z"/><path d="m295.39 214.69c6.25-2.16 14.24-.83 18.22 4.84 4.14 6.03 4.28 14.53.72 20.86-5.37 9.37-21.23 9.19-26.32-.36-4.61-8.42-2.51-21.8 7.38-25.34m4.04 3.92c-7.87 1.57-9.68 11.74-6.86 18.14 1.99 5.16 8.79 7.45 13.48 4.52 5.4-3.36 6.13-10.95 4.15-16.48-1.48-4.33-6.25-7.19-10.77-6.18z"/><g transform="matrix(1.364273341736 0 0 1.364273211803 -248.787014032247 -317.01064263616)"><path d="m182.37826 346.59814c10.13052-9.73786 19.35792-23.00961 26.17049-38.6962 6.81258-15.70622 10.18942-31.5106 10.36611-45.56767l-.1178.1178c-10.09125 9.71822-19.27939 22.95071-26.07232 38.59803-6.77331 15.62769-10.15015 31.37318-10.36611 45.39098"/><path d="m193.34192 368.63462c13.64685-13.06265 26.07527-30.86362 35.27139-51.95442 9.19623-21.11027 13.77879-42.34482 14.06433-61.24857l-.17612.15474c-13.58834 13.04351-25.97771 30.82525-35.13443 51.83839-9.15673 21.01314-13.73883 42.16982-14.06298 61.01492"/><path d="m208.21437 399.5065c18.55911-17.75864 35.49077-41.94935 47.99581-70.60485 12.52504-28.65528 18.79834-57.53941 19.20179-83.23133l-.24197.19716c-18.47896 17.73954-35.33003 41.87119-47.814 70.42702-12.48397 28.55581-18.73598 57.3203-19.19826 82.91165"/><path d="m228.74286 439.94168c24.95743-23.97263 47.67792-56.67299 64.42367-95.32534 16.78549-38.67198 25.1127-77.62178 25.55423-112.25044l-.31829.27585c-24.83857 23.9732-47.45941 56.55515-64.16499 95.08884-16.70559 38.53368-25.01384 77.66189-25.51424 112.17137"/></g><g transform="matrix(.41400427 0 0 .41400423 -62.117784 46.161332)"><path d="m703.57778 185.78249h39.82005c-.93811-43.82677-34.38014-73.69492-88.25038-73.69492-46.01739 0-82.77808 27.20808-82.77808 66.91747 0 88.63535 137.22093 45.63874 137.22093 104.83144 0 23.22971-23.19717 34.95251-47.59675 34.95251-33.35925 0-56.89841-16.105-58.46993-48.76697h-39.44201c0 60.34982 48.74818 80.77422 93.94254 80.77422 52.85752 0 91.48529-24.90007 91.48529-70.00012 0-91.44569-137.66898-50.68365-137.66898-106.35479 0-18.92299 17.55838-29.23498 42.15129-29.23498 36.53991 0 47.65192 19.03905 49.58603 40.57614z"/><path d="m764.6641 117.54423v227.68937h111.14088c43.98931 0 77.48554-21.43604 77.48554-63.25495 0-29.14747-10.25438-48.93024-42.54946-59.27039 17.89789-7.75936 31.73421-19.80818 31.73421-49.30898 0-37.63632-24.98961-55.85505-66.38568-55.85505zm39.63218 31.87652h64.67802c25.17561 0 34.72262 14.3355 34.72262 31.94766 0 19.93798-13.3862 31.80536-32.44573 31.80536h-66.95491zm.0003 92.44229h69.76644c27.82931 0 39.95108 15.38303 39.95108 35.84643 0 22.49162-18.15081 35.64762-38.77835 35.64762h-70.93947z"/><path d="m1103.4788 185.78249h39.82c-.9381-43.82677-34.3801-73.69492-88.2503-73.69492-46.0174 0-82.77812 27.20808-82.77812 66.91747 0 88.63535 137.22092 45.63874 137.22092 104.83144 0 23.22971-23.1972 34.95251-47.5967 34.95251-33.3593 0-56.8984-16.105-58.47-48.76697h-39.44197c0 60.34982 48.74817 80.77422 93.94257 80.77422 52.8575 0 91.4853-24.90007 91.4853-70.00012 0-91.44569-137.669-50.68365-137.669-106.35479 0-18.92299 17.5584-29.23498 42.1513-29.23498 36.5399 0 47.6519 19.03905 49.586 40.57614z"/></g></g></svg>