<svg height="283.10999pt" viewBox="0 0 414.06345 283.10999" width="414.06345pt" xmlns="http://www.w3.org/2000/svg"><g fill="#fff"><path d="m171.53 202.17c7.2.05 14.4-.07 21.6.05 4.02.08 8.32 1.52 10.7 4.94 3.99 5.89 1.86 15.65-5.38 17.88 2.12.81 4.4 1.93 5.19 4.25 2.13 5.53.33 11.97 3.54 17.19-2.33-.02-4.65-.05-6.98-.16-1.07-5.03-.25-10.4-2.24-15.22-.78-2.04-2.84-3.37-4.98-3.42-5.16-.3-10.34-.02-15.5-.12-.04 6.29 0 12.58-.02 18.88-1.98 0-3.96-.01-5.94.01 0-14.76-.01-29.52.01-44.28m5.93 5.03c.01 5.11 0 10.23.01 15.35 5.83-.26 11.8.67 17.53-.71 6.76-1.64 6.39-13.31-.55-14.35-5.64-.66-11.34-.14-16.99-.29z"/><path d="m264.96 202.18h5.31c.01 14.75.01 29.51 0 44.26-1.78-.01-3.56-.01-5.34 0 .03-1.05.09-3.17.12-4.23-5.2 7.58-18.22 6.22-22.55-1.62-3.76-6.72-3.6-15.87 1.1-22.09 5.15-6.48 16.28-6.52 21.44-.01-.17-5.44-.06-10.88-.08-16.31m-12.53 16.5c-3.06.74-5.27 3.44-6.08 6.39-1.3 4.58-1.21 10.02 1.76 13.96 3.43 4.63 11.44 4.61 14.68-.22 2.91-4.5 3.03-10.57.85-15.39-1.87-4.15-6.97-5.92-11.21-4.74z"/><path d="m276.32 202.18c1.77 0 3.55 0 5.33.01-.01 2.16-.01 4.33 0 6.5-1.78 0-3.56 0-5.32.01-.01-2.18-.01-4.35-.01-6.52z"/><path d="m324.02 206.01c4.24-4.16 11.04-4.24 16.32-2.31 5.24 1.9 7.81 8.27 6.12 13.42-.87 2.65-3.11 4.49-5.35 5.98 9.07 2.01 10.05 15.15 3.49 20.47-5.39 4.37-13.63 4.79-19.61 1.4-4.26-2.43-5.97-7.48-6.04-12.14 1.76-.02 3.53-.03 5.29-.04.26 4.43 2.93 9.21 7.8 9.56 5.97 1.3 12.75-4 10.92-10.38-1.06-5.54-7.49-6.89-12.27-6.22 0-1.47 0-2.92.01-4.37 4.69.66 11.03-1.69 10.62-7.35.19-6.28-8.2-8.71-12.62-5.33-2.58 1.83-3.09 5.13-3.49 8.05-1.77 0-3.54 0-5.3.01.34-3.86 1.22-7.96 4.11-10.75z"/><path d="m214.23 216.18c4.3-2.93 9.95-2.93 14.89-2.01 3.44.56 6.51 3.38 6.62 7 .34 7.02-.19 14.06.29 21.08.78.03 2.34.08 3.12.1-.08 1.47-.19 2.95-.28 4.43-2.41.25-5.65 1.13-7.25-1.3-.24-.75-.73-2.23-.97-2.98-4.11 4.62-11.16 5.85-16.8 3.59-6.35-2.46-6.57-12.86-.51-15.78 4.75-2.51 10.35-2.01 15.32-3.78 3.15-1.32 2.14-6.39-.77-7.41-4.64-1.89-12.05-.83-12.53 5.26-1.76 0-3.51-.01-5.26-.01.4-3.09 1.39-6.38 4.13-8.19m3.78 16.74c-3.54 1.01-4.71 6.42-1.51 8.49 3.8 1.96 9 1.18 12.08-1.82 2.53-2.44 1.84-6.22 2.03-9.37-4.08 1.47-8.52 1.3-12.6 2.7z"/><path d="m276.33 214.37h5.31c-.02 10.71.08 21.42-.05 32.13-1.77-.05-3.54-.09-5.31-.12.11-10.67 0-21.34.05-32.01z"/><path d="m295.43 214.59c6.24-2.15 14.2-.81 18.18 4.84 4.15 6.05 4.29 14.6.68 20.94-5.52 9.53-21.88 9.03-26.6-1.02-4.17-8.41-1.97-21.34 7.74-24.76m4 3.93c-8.05 1.64-9.78 12.2-6.63 18.62 2.28 5.15 9.45 7 13.93 3.59 4.8-3.62 5.35-10.69 3.48-16.01-1.48-4.34-6.26-7.22-10.78-6.2z"/><g transform="matrix(1.364273774846 0 0 1.364273211803 -248.787095660803 -317.09066263616)"><path d="m182.37826 346.59814c10.13052-9.73786 19.35792-23.00961 26.17049-38.6962 6.81258-15.70622 10.18942-31.5106 10.36611-45.56767l-.1178.1178c-10.09125 9.71822-19.27939 22.95071-26.07232 38.59803-6.77331 15.62769-10.15015 31.37318-10.36611 45.39098"/><path d="m193.34192 368.63462c13.64685-13.06265 26.07527-30.86362 35.27139-51.95442 9.19623-21.11027 13.77879-42.34482 14.06433-61.24857l-.17612.15474c-13.58834 13.04351-25.97771 30.82525-35.13443 51.83839-9.15673 21.01314-13.73883 42.16982-14.06298 61.01492"/><path d="m208.21437 399.5065c18.55911-17.75864 35.49077-41.94935 47.99581-70.60485 12.52504-28.65528 18.79834-57.53941 19.20179-83.23133l-.24197.19716c-18.47896 17.73954-35.33003 41.87119-47.814 70.42702-12.48397 28.55581-18.73598 57.3203-19.19826 82.91165"/><path d="m228.74286 439.94168c24.95743-23.97263 47.67792-56.67299 64.42367-95.32534 16.78549-38.67198 25.1127-77.62178 25.55423-112.25044l-.31829.27585c-24.83857 23.9732-47.45941 56.55515-64.16499 95.08884-16.70559 38.53368-25.01384 77.66189-25.51424 112.17137"/></g><g transform="matrix(.4140044 0 0 .41400423 -62.117805 46.081307)"><path d="m703.57778 185.78249h39.82005c-.93811-43.82677-34.38014-73.69492-88.25038-73.69492-46.01739 0-82.77808 27.20808-82.77808 66.91747 0 88.63535 137.22093 45.63874 137.22093 104.83144 0 23.22971-23.19717 34.95251-47.59675 34.95251-33.35925 0-56.89841-16.105-58.46993-48.76697h-39.44201c0 60.34982 48.74818 80.77422 93.94254 80.77422 52.85752 0 91.48529-24.90007 91.48529-70.00012 0-91.44569-137.66898-50.68365-137.66898-106.35479 0-18.92299 17.55838-29.23498 42.15129-29.23498 36.53991 0 47.65192 19.03905 49.58603 40.57614z"/><path d="m764.6641 117.54423v227.68937h111.14088c43.98931 0 77.48554-21.43604 77.48554-63.25495 0-29.14747-10.25438-48.93024-42.54946-59.27039 17.89789-7.75936 31.73421-19.80818 31.73421-49.30898 0-37.63632-24.98961-55.85505-66.38568-55.85505zm39.63218 31.87652h64.67802c25.17561 0 34.72262 14.3355 34.72262 31.94766 0 19.93798-13.3862 31.80536-32.44573 31.80536h-66.95491zm.0003 92.44229h69.76644c27.82931 0 39.95108 15.38303 39.95108 35.84643 0 22.49162-18.15081 35.64762-38.77835 35.64762h-70.93947z"/><path d="m1103.4788 185.78249h39.82c-.9381-43.82677-34.3801-73.69492-88.2503-73.69492-46.0174 0-82.77812 27.20808-82.77812 66.91747 0 88.63535 137.22092 45.63874 137.22092 104.83144 0 23.22971-23.1972 34.95251-47.5967 34.95251-33.3593 0-56.8984-16.105-58.47-48.76697h-39.44197c0 60.34982 48.74817 80.77422 93.94257 80.77422 52.8575 0 91.4853-24.90007 91.4853-70.00012 0-91.44569-137.669-50.68365-137.669-106.35479 0-18.92299 17.5584-29.23498 42.1513-29.23498 36.5399 0 47.6519 19.03905 49.586 40.57614z"/></g></g></svg>