<?xml version="1.0" encoding="UTF-8"?>
<svg id="svg57" width="293.51pt" height="165.76pt" version="1.1" viewBox="0 0 293.51 165.76" xmlns="http://www.w3.org/2000/svg" xmlns:cc="http://creativecommons.org/ns#" xmlns:dc="http://purl.org/dc/elements/1.1/" xmlns:rdf="http://www.w3.org/1999/02/22-rdf-syntax-ns#">
 <metadata id="metadata63">
  <rdf:RDF>
   <cc:Work rdf:about="">
    <dc:format>image/svg+xml</dc:format>
    <dc:type rdf:resource="http://purl.org/dc/dcmitype/StillImage"/>
    <dc:title/>
   </cc:Work>
  </rdf:RDF>
 </metadata>
 <g id="g1796" transform="matrix(3.4131 0 0 -3.4131 -191.08 820.55)">
  <path id="path590" d="m97.288 237.9h3.575v2.422h-3.575z" fill="#58595b"/>
  <path id="path592" d="m100.86 215.67h-3.574v20.723h3.574z" fill="#58595b"/>
  <g id="g602" transform="translate(93.371 230.25)">
   <path id="path604" d="m0 0c-0.551 1.219-1.29 2.286-2.22 3.2s-2.008 1.635-3.235 2.161c-1.228 0.527-2.509 0.79-3.845 0.79-1.461 0-2.752-0.227-3.87-0.679-1.12-0.453-2.157-1.085-3.115-1.898v6.592h-3.492v-14.701l-0.011-0.115c-0.094-0.935-0.37-1.94-0.811-2.739-0.454-0.822-1.027-1.527-1.719-2.113-0.693-0.587-1.483-1.031-2.372-1.332-0.89-0.3-1.813-0.408-2.769-0.322-0.975 0.087-1.874 0.357-2.695 0.811-0.822 0.454-1.526 1.032-2.112 1.733-0.586 0.702-1.03 1.497-1.331 2.386-0.3 0.889-0.408 1.812-0.322 2.769 0.087 0.975 0.357 1.859 0.808 2.654 0.451 0.794 1.025 1.461 1.723 2.001 0.697 0.54 1.488 0.942 2.375 1.206 0.885 0.264 1.816 0.352 2.791 0.265l0.316 3.533c-1.453 0.13-2.835-0.03-4.145-0.478-1.311-0.448-2.468-1.1-3.472-1.956-1.003-0.856-1.828-1.882-2.473-3.076-0.644-1.193-1.028-2.48-1.152-3.86-0.13-1.453 0.015-2.843 0.434-4.17 0.419-1.326 1.045-2.513 1.879-3.561 0.833-1.048 1.855-1.91 3.065-2.583 1.21-0.674 2.541-1.076 3.994-1.206 1.435-0.128 2.803 0.032 4.105 0.481 1.301 0.449 2.46 1.115 3.475 1.997 1.015 0.883 1.842 1.94 2.481 3.172 0.557 1.073 0.92 2.23 1.09 3.472l0.166 0.882 0.174 1.11c0.119 0.892 0.302 1.722 0.691 2.507 0.388 0.785 0.889 1.473 1.502 2.065 0.614 0.59 1.327 1.057 2.139 1.399s1.696 0.512 2.653 0.512c0.867 0 1.701-0.189 2.505-0.567 0.803-0.38 1.507-0.878 2.111-1.497 0.605-0.619 1.092-1.339 1.462-2.161s0.556-1.676 0.556-2.562v-10.723h3.492v10.723c0 1.366-0.275 2.659-0.826 3.878" fill="#58595b"/>
  </g>
  <g id="g606" transform="translate(138.75 225.6)">
   <path id="path608" d="m0 0c-0.089-0.956-0.362-1.844-0.82-2.664-0.457-0.82-1.033-1.522-1.728-2.106-0.694-0.584-1.487-1.024-2.378-1.321-0.89-0.297-1.814-0.401-2.77-0.311-0.974 0.091-1.871 0.366-2.691 0.822-0.82 0.458-1.521 1.038-2.104 1.742-0.584 0.704-1.024 1.502-1.321 2.392-0.153 0.459-0.194 0.899-0.229 1.367l5e-3 0.286v14.469h-3.574v-14.537l1e-3 -0.041c-0.041-0.548-0.07-1.045-0.245-1.57-0.297-0.89-0.737-1.688-1.32-2.392s-1.284-1.285-2.105-1.742c-0.815-0.454-1.707-0.727-2.675-0.819-0.035-4e-3 -0.071-4e-3 -0.107-6e-3 -0.159-0.014-0.317-0.019-0.474-0.021-0.212 0-0.425 7e-3 -0.641 0.027-0.974 0.092-1.871 0.366-2.691 0.823s-1.521 1.038-2.104 1.742c-0.584 0.703-1.025 1.501-1.321 2.392-0.175 0.525-0.203 1.022-0.244 1.57l1e-3 0.04v14.538h-3.574v-14.469l0.016-0.179 0.028-0.204c0.132-0.984 0.318-1.47 0.563-2.242 0.196-0.674 0.455-1.32 0.779-1.937 0.069-0.132 0.149-0.254 0.223-0.382 0.04-0.071 0.08-0.142 0.123-0.212 0.145-0.239 0.298-0.471 0.459-0.696 0.035-0.049 0.069-0.098 0.104-0.146 0.273-0.371 0.563-0.727 0.881-1.057 0.702-0.739 1.513-1.369 2.437-1.889 0.655-0.369 1.348-0.655 2.076-0.864 0.945-0.285 1.925-0.419 2.939-0.405 0.045 0 0.09 2e-3 0.136 3e-3 0.08 2e-3 0.16 4e-3 0.24 8e-3 0.639 0.026 1.266 0.113 1.877 0.261 0.914 0.212 1.774 0.541 2.578 0.994 1.207 0.679 2.226 1.544 3.054 2.596 7e-3 8e-3 0.012 0.017 0.019 0.025 0.055 0.068 0.104 0.139 0.158 0.208 0.118 0.157 0.233 0.318 0.343 0.481 0.086 0.127 0.17 0.257 0.251 0.388 0.232-0.372 0.483-0.732 0.755-1.076 0.829-1.052 1.847-1.917 3.054-2.596 1.206-0.68 2.537-1.087 3.989-1.223 1.435-0.135 2.804 0.02 4.106 0.464 1.304 0.444 2.465 1.105 3.484 1.983 1.02 0.878 1.851 1.932 2.495 3.161s1.034 2.57 1.17 4.022z" fill="#58595b"/>
  </g>
 </g>
 <g id="g1788" transform="matrix(3.4131 0 0 -3.4131 -191.08 820.55)">
  <g id="g610" transform="translate(140.46 205.06)">
   <path id="path612" d="m0 0h-0.742c-0.285 0-0.524 0.098-0.719 0.294-0.195 0.195-0.292 0.435-0.292 0.72v4.904c0 0.27 0.097 0.506 0.292 0.71 0.195 0.202 0.434 0.303 0.719 0.303h0.742c0.286 0 0.523-0.101 0.72-0.303 0.192-0.204 0.292-0.44 0.292-0.71v-4.904c0-0.285-0.1-0.525-0.292-0.72-0.197-0.196-0.434-0.294-0.72-0.294" fill="#0ca9ce"/>
  </g>
  <g id="g614" transform="translate(136.52 208.83)">
   <path id="path616" d="m0 0h-0.742c-0.285 0-0.523 0.096-0.719 0.289-0.194 0.192-0.293 0.431-0.293 0.713v1.179c0 0.282 0.099 0.523 0.293 0.724 0.196 0.2 0.434 0.3 0.719 0.3h0.742c0.285 0 0.524-0.1 0.72-0.3 0.194-0.201 0.29-0.442 0.29-0.724v-1.179c0-0.282-0.096-0.521-0.29-0.713-0.196-0.193-0.435-0.289-0.72-0.289" fill="#0ca9ce"/>
  </g>
  <g id="g618" transform="translate(132.58 206.95)">
   <path id="path620" d="m0 0h-0.741c-0.282 0-0.523 0.098-0.718 0.293-0.195 0.196-0.292 0.435-0.292 0.72v3.04c0 0.285 0.097 0.528 0.292 0.731 0.195 0.204 0.436 0.304 0.718 0.304h0.741c0.287 0 0.526-0.1 0.721-0.304 0.195-0.203 0.293-0.446 0.293-0.731v-3.04c0-0.285-0.098-0.524-0.293-0.72-0.195-0.195-0.434-0.293-0.721-0.293" fill="#0ca9ce"/>
  </g>
  <g id="g622" transform="translate(128.64 202.66)">
   <path id="path624" d="m0 0h-0.742c-0.284 0-0.524 0.097-0.718 0.291-0.196 0.194-0.293 0.433-0.293 0.717v7.277c0 0.27 0.097 0.505 0.293 0.706 0.194 0.202 0.434 0.302 0.718 0.302h0.742c0.285 0 0.524-0.1 0.72-0.302 0.194-0.201 0.29-0.436 0.29-0.706v-7.277c0-0.284-0.096-0.523-0.29-0.717-0.196-0.194-0.435-0.291-0.72-0.291" fill="#0ca9ce"/>
  </g>
  <g id="g626" transform="translate(124.7 202.66)">
   <path id="path628" d="m0 0h-0.742c-0.284 0-0.524 0.097-0.718 0.291-0.196 0.194-0.294 0.433-0.294 0.717v7.277c0 0.27 0.098 0.505 0.294 0.706 0.194 0.202 0.434 0.302 0.718 0.302h0.742c0.284 0 0.526-0.1 0.72-0.302 0.194-0.201 0.292-0.436 0.292-0.706v-7.277c0-0.284-0.098-0.523-0.292-0.717s-0.436-0.291-0.72-0.291" fill="#0ca9ce"/>
  </g>
  <g id="g630" transform="translate(120.76 196.57)">
   <path id="path632" d="m0 0h-0.742c-0.283 0-0.525 0.099-0.718 0.294-0.196 0.196-0.293 0.436-0.293 0.721v13.351c0 0.286 0.097 0.528 0.293 0.723 0.193 0.195 0.435 0.292 0.718 0.292h0.742c0.286 0 0.525-0.097 0.72-0.292s0.29-0.437 0.29-0.723v-13.351c0-0.285-0.095-0.525-0.29-0.721-0.195-0.195-0.434-0.294-0.72-0.294" fill="#0ca9ce"/>
  </g>
  <g id="g634" transform="translate(116.82 199.34)">
   <path id="path636" d="m0 0h-0.741c-0.284 0-0.523 0.101-0.718 0.303-0.196 0.204-0.293 0.441-0.293 0.71v10.588c0 0.285 0.097 0.527 0.293 0.721 0.195 0.197 0.434 0.294 0.718 0.294h0.741c0.286 0 0.525-0.097 0.721-0.294 0.193-0.194 0.292-0.436 0.292-0.721v-10.588c0-0.269-0.099-0.506-0.292-0.71-0.196-0.202-0.435-0.303-0.721-0.303" fill="#0ca9ce"/>
  </g>
  <g id="g638" transform="translate(112.89 196.57)">
   <path id="path640" d="m0 0h-0.742c-0.284 0-0.523 0.099-0.72 0.294-0.193 0.196-0.291 0.436-0.291 0.721v13.351c0 0.286 0.098 0.528 0.291 0.723 0.197 0.195 0.436 0.292 0.72 0.292h0.742c0.285 0 0.524-0.097 0.719-0.292 0.194-0.195 0.293-0.437 0.293-0.723v-13.351c0-0.285-0.099-0.525-0.293-0.721-0.195-0.195-0.434-0.294-0.719-0.294" fill="#0ca9ce"/>
  </g>
  <g id="g642" transform="translate(108.95 193.77)">
   <path id="path644" d="m0 0h-0.742c-0.284 0-0.523 0.102-0.718 0.305-0.194 0.202-0.294 0.439-0.294 0.708v16.12c0 0.27 0.1 0.507 0.294 0.71 0.195 0.202 0.434 0.303 0.718 0.303h0.742c0.285 0 0.525-0.101 0.72-0.303 0.194-0.203 0.291-0.44 0.291-0.71v-16.12c0-0.269-0.097-0.506-0.291-0.708-0.195-0.203-0.435-0.305-0.72-0.305" fill="#0ca9ce"/>
  </g>
  <g id="g646" transform="translate(105.01 206.95)">
   <path id="path648" d="m0 0h-0.74c-0.286 0-0.525 0.098-0.721 0.293-0.194 0.196-0.291 0.435-0.291 0.72v3.04c0 0.285 0.097 0.528 0.291 0.731 0.196 0.204 0.435 0.304 0.721 0.304h0.74c0.286 0 0.525-0.1 0.721-0.304 0.193-0.203 0.291-0.446 0.291-0.731v-3.04c0-0.285-0.098-0.524-0.291-0.72-0.196-0.195-0.435-0.293-0.721-0.293" fill="#0ca9ce"/>
  </g>
  <g id="g650" transform="translate(101.07 205.06)">
   <path id="path652" d="m0 0h-0.742c-0.287 0-0.524 0.098-0.719 0.294-0.195 0.195-0.292 0.435-0.292 0.72v4.904c0 0.27 0.097 0.506 0.292 0.71 0.195 0.202 0.432 0.303 0.719 0.303h0.742c0.285 0 0.524-0.101 0.718-0.303 0.195-0.204 0.293-0.44 0.293-0.71v-4.904c0-0.285-0.098-0.525-0.293-0.72-0.194-0.196-0.433-0.294-0.718-0.294" fill="#0ca9ce"/>
  </g>
  <g id="g654" transform="translate(97.129 202.66)">
   <path id="path656" d="m0 0h-0.741c-0.285 0-0.524 0.097-0.719 0.291s-0.292 0.433-0.292 0.717v7.277c0 0.27 0.097 0.505 0.292 0.706 0.195 0.202 0.434 0.302 0.719 0.302h0.741c0.285 0 0.525-0.1 0.721-0.302 0.195-0.201 0.29-0.436 0.29-0.706v-7.277c0-0.284-0.095-0.523-0.29-0.717-0.196-0.194-0.436-0.291-0.721-0.291" fill="#0ca9ce"/>
  </g>
  <g id="g658" transform="translate(93.189 196.57)">
   <path id="path660" d="m0 0h-0.742c-0.284 0-0.522 0.099-0.718 0.294-0.195 0.196-0.292 0.436-0.292 0.721v13.351c0 0.286 0.097 0.528 0.292 0.723 0.196 0.195 0.434 0.292 0.718 0.292h0.742c0.287 0 0.525-0.097 0.72-0.292 0.194-0.195 0.292-0.437 0.292-0.723v-13.351c0-0.285-0.098-0.525-0.292-0.721-0.195-0.195-0.433-0.294-0.72-0.294" fill="#0ca9ce"/>
  </g>
  <g id="g662" transform="translate(89.25 191.85)">
   <path id="path664" d="m0 0h-0.741c-0.285 0-0.524 0.102-0.719 0.303-0.195 0.205-0.292 0.44-0.292 0.709v18.005c0 0.269 0.097 0.506 0.292 0.708 0.195 0.204 0.434 0.304 0.719 0.304h0.741c0.285 0 0.526-0.1 0.721-0.304 0.194-0.202 0.29-0.439 0.29-0.708v-18.005c0-0.269-0.096-0.504-0.29-0.709-0.195-0.201-0.436-0.303-0.721-0.303" fill="#0ca9ce"/>
  </g>
  <g id="g666" transform="translate(85.311 191.85)">
   <path id="path668" d="m0 0h-0.741c-0.284 0-0.525 0.102-0.719 0.303-0.195 0.205-0.292 0.44-0.292 0.709v18.005c0 0.269 0.097 0.506 0.292 0.708 0.194 0.204 0.435 0.304 0.719 0.304h0.741c0.285 0 0.526-0.1 0.719-0.304 0.196-0.202 0.293-0.439 0.293-0.708v-18.005c0-0.269-0.097-0.504-0.293-0.709-0.193-0.201-0.434-0.303-0.719-0.303" fill="#0ca9ce"/>
  </g>
  <g id="g670" transform="translate(81.371 206.95)">
   <path id="path672" d="m0 0h-0.74c-0.285 0-0.525 0.098-0.718 0.293-0.196 0.196-0.294 0.435-0.294 0.72v3.04c0 0.285 0.098 0.528 0.294 0.731 0.193 0.204 0.433 0.304 0.718 0.304h0.74c0.285 0 0.526-0.1 0.721-0.304 0.193-0.203 0.291-0.446 0.291-0.731v-3.04c0-0.285-0.098-0.524-0.291-0.72-0.195-0.195-0.436-0.293-0.721-0.293" fill="#0ca9ce"/>
  </g>
  <g id="g674" transform="translate(77.432 209.75)">
   <path id="path676" d="m0 0h-0.74c-0.286 0-0.525 0.101-0.72 0.299-0.194 0.2-0.292 0.433-0.292 0.699v0.288c0 0.267 0.098 0.498 0.292 0.698 0.195 0.2 0.434 0.3 0.72 0.3h0.74c0.285 0 0.526-0.1 0.719-0.3 0.197-0.2 0.293-0.431 0.293-0.698v-0.288c0-0.266-0.096-0.499-0.293-0.699-0.193-0.198-0.434-0.299-0.719-0.299" fill="#0ca9ce"/>
  </g>
  <g id="g678" transform="translate(73.494 208.83)">
   <path id="path680" d="m0 0h-0.742c-0.285 0-0.524 0.096-0.719 0.289-0.193 0.192-0.293 0.431-0.293 0.713v1.179c0 0.282 0.1 0.523 0.293 0.724 0.195 0.2 0.434 0.3 0.719 0.3h0.742c0.285 0 0.524-0.1 0.719-0.3 0.195-0.201 0.291-0.442 0.291-0.724v-1.179c0-0.282-0.096-0.521-0.291-0.713-0.195-0.193-0.434-0.289-0.719-0.289" fill="#0ca9ce"/>
  </g>
  <g id="g682" transform="translate(69.553 205.06)">
   <path id="path684" d="m0 0h-0.74c-0.284 0-0.525 0.098-0.72 0.294-0.195 0.195-0.292 0.435-0.292 0.72v4.904c0 0.27 0.097 0.506 0.292 0.71 0.195 0.202 0.436 0.303 0.72 0.303h0.74c0.287 0 0.526-0.101 0.721-0.303 0.194-0.204 0.292-0.44 0.292-0.71v-4.904c0-0.285-0.098-0.525-0.292-0.72-0.195-0.196-0.434-0.294-0.721-0.294" fill="#0ca9ce"/>
  </g>
  <g id="g686" transform="translate(65.615 208.83)">
   <path id="path688" d="m0 0h-0.741c-0.285 0-0.525 0.096-0.72 0.289-0.195 0.192-0.292 0.431-0.292 0.713v1.179c0 0.282 0.097 0.523 0.292 0.724 0.195 0.2 0.435 0.3 0.72 0.3h0.741c0.286 0 0.525-0.1 0.72-0.3 0.195-0.201 0.291-0.442 0.291-0.724v-1.179c0-0.282-0.096-0.521-0.291-0.713-0.195-0.193-0.434-0.289-0.72-0.289" fill="#0ca9ce"/>
  </g>
  <g id="g690" transform="translate(61.675 206.95)">
   <path id="path692" d="m0 0h-0.74c-0.287 0-0.525 0.098-0.721 0.293-0.193 0.196-0.292 0.435-0.292 0.72v3.04c0 0.285 0.099 0.528 0.292 0.731 0.196 0.204 0.434 0.304 0.721 0.304h0.74c0.286 0 0.525-0.1 0.72-0.304 0.194-0.203 0.292-0.446 0.292-0.731v-3.04c0-0.285-0.098-0.524-0.292-0.72-0.195-0.195-0.434-0.293-0.72-0.293" fill="#0ca9ce"/>
  </g>
  <g id="g694" transform="translate(57.736 205.06)">
   <path id="path696" d="m0 0h-0.742c-0.285 0-0.524 0.098-0.719 0.294-0.193 0.195-0.291 0.435-0.291 0.72v4.904c0 0.27 0.098 0.506 0.291 0.71 0.195 0.202 0.434 0.303 0.719 0.303h0.742c0.285 0 0.525-0.101 0.72-0.303 0.193-0.204 0.292-0.44 0.292-0.71v-4.904c0-0.285-0.099-0.525-0.292-0.72-0.195-0.196-0.435-0.294-0.72-0.294" fill="#0ca9ce"/>
  </g>
 </g>
</svg>
