<?xml version="1.0" encoding="UTF-8" standalone="no"?>
<svg
   xmlns:dc="http://purl.org/dc/elements/1.1/"
   xmlns:cc="http://creativecommons.org/ns#"
   xmlns:rdf="http://www.w3.org/1999/02/22-rdf-syntax-ns#"
   xmlns:svg="http://www.w3.org/2000/svg"
   xmlns="http://www.w3.org/2000/svg"
   xmlns:sodipodi="http://sodipodi.sourceforge.net/DTD/sodipodi-0.dtd"
   xmlns:inkscape="http://www.inkscape.org/namespaces/inkscape"
   width="414.06506pt"
   height="283.19pt"
   viewBox="0 0 414.06506 283.19"
   version="1.1"
   id="svg2"
   inkscape:version="0.91 r13725"
   sodipodi:docname="SBS Radio 1.svg">
  <metadata
     id="metadata32">
    <rdf:RDF>
      <cc:Work
         rdf:about="">
        <dc:format>image/svg+xml</dc:format>
        <dc:type
           rdf:resource="http://purl.org/dc/dcmitype/StillImage" />
        <dc:title />
      </cc:Work>
    </rdf:RDF>
  </metadata>
  <defs
     id="defs30" />
  <sodipodi:namedview
     pagecolor="#ffffff"
     bordercolor="#666666"
     borderopacity="1"
     objecttolerance="10"
     gridtolerance="10"
     guidetolerance="10"
     inkscape:pageopacity="0"
     inkscape:pageshadow="2"
     inkscape:window-width="1920"
     inkscape:window-height="1017"
     id="namedview28"
     showgrid="false"
     fit-margin-top="0"
     fit-margin-left="0"
     fit-margin-right="0"
     fit-margin-bottom="0"
     inkscape:zoom="0.89001173"
     inkscape:cx="182.93243"
     inkscape:cy="-23.154452"
     inkscape:window-x="-8"
     inkscape:window-y="-8"
     inkscape:window-maximized="1"
     inkscape:current-layer="svg2" />
  <g
     id="#e6e6e6e6"
     transform="translate(-92.98,-158.91)" />
  <path
     style="opacity:1;fill:#ffffff;fill-opacity:1"
     inkscape:connector-curvature="0"
     id="path14"
     d="m 171.52,202.27 c 7.19,0.04 14.39,-0.07 21.58,0.04 4.04,0.07 8.37,1.52 10.75,4.97 3.99,5.92 1.81,15.86 -5.6,17.86 1.97,0.65 4.11,1.53 5.05,3.54 2.71,5.62 0.48,12.46 3.89,17.88 -2.24,-0.04 -4.47,-0.04 -6.7,0.01 -1.76,-5.19 -0.25,-11.07 -2.86,-16.04 -1.04,-2.07 -3.47,-2.87 -5.64,-2.83 -4.84,-0.14 -9.68,0.01 -14.52,-0.05 -0.02,6.3 0,12.59 -0.01,18.88 -1.98,-0.01 -3.96,-0.01 -5.94,0.01 0,-14.76 0,-29.52 0,-44.27 m 5.94,5.02 c 0.01,5.11 0,10.23 0.01,15.35 4.5,-0.04 9,0.1 13.5,-0.05 2.71,-0.16 5.81,-0.68 7.52,-3.02 2.79,-3.98 1.31,-11.17 -4.04,-11.99 -5.64,-0.66 -11.33,-0.14 -16.99,-0.29 z" />
  <path
     style="opacity:1;fill:#ffffff;fill-opacity:1"
     inkscape:connector-curvature="0"
     id="path16"
     d="m 264.96,202.27 c 1.76,0 3.53,0 5.31,0 0.01,14.75 0.01,29.51 0,44.26 -1.78,-0.01 -3.56,-0.01 -5.33,0.01 0.02,-1.06 0.07,-3.19 0.09,-4.25 -5.17,7.62 -18.24,6.22 -22.54,-1.63 -3.74,-6.7 -3.59,-15.82 1.08,-22.03 5.12,-6.51 16.33,-6.6 21.46,-0.02 -0.15,-5.45 -0.05,-10.9 -0.07,-16.34 m -12.52,16.5 c -3.07,0.74 -5.29,3.44 -6.09,6.4 -1.29,4.56 -1.21,9.96 1.72,13.9 3.41,4.69 11.5,4.68 14.74,-0.19 2.89,-4.5 3,-10.58 0.82,-15.39 -1.87,-4.14 -6.96,-5.89 -11.19,-4.72 z" />
  <path
     style="opacity:1;fill:#ffffff;fill-opacity:1"
     inkscape:connector-curvature="0"
     id="path18"
     d="m 276.32,202.27 c 1.77,0.01 3.55,0.01 5.33,0 -0.01,2.17 -0.01,4.34 0,6.52 -1.78,-0.02 -3.56,-0.02 -5.33,0 0,-2.18 0,-4.35 0,-6.52 z" />
  <path
     style="opacity:1;fill:#ffffff;fill-opacity:1"
     inkscape:connector-curvature="0"
     id="path20"
     d="m 333.13,202.6 c 1.31,-0.01 2.63,-0.01 3.95,-0.01 0,14.65 0.01,29.3 0,43.95 -1.8,-0.02 -3.59,-0.02 -5.37,0 -0.01,-10.48 -0.01,-20.96 0,-31.44 -3.8,-0.01 -7.6,-0.02 -11.4,-0.02 0.01,-1.4 0.02,-2.79 0.02,-4.18 3.36,-0.29 7.07,-0.46 9.72,-2.82 1.7,-1.37 2.33,-3.53 3.08,-5.48 z" />
  <path
     style="opacity:1;fill:#ffffff;fill-opacity:1"
     inkscape:connector-curvature="0"
     id="path22"
     d="m 214.2,216.28 c 4.3,-2.94 9.95,-2.94 14.89,-2.02 3.49,0.55 6.59,3.43 6.66,7.1 0.32,6.99 -0.18,14 0.27,20.99 0.79,0.03 2.36,0.08 3.14,0.11 -0.12,1.46 -0.19,2.93 -0.28,4.41 -2.39,0.23 -5.57,1.13 -7.22,-1.23 -0.25,-0.77 -0.76,-2.3 -1.01,-3.06 -4.09,4.65 -11.19,5.86 -16.82,3.59 -6.32,-2.47 -6.54,-12.81 -0.53,-15.75 4.75,-2.52 10.35,-2.03 15.32,-3.78 3.21,-1.3 2.18,-6.44 -0.76,-7.45 -4.63,-1.86 -12.05,-0.81 -12.5,5.29 -1.76,-0.02 -3.52,-0.03 -5.27,-0.03 0.42,-3.08 1.39,-6.35 4.11,-8.17 m 3.11,17.06 c -3.39,1.47 -3.69,7.15 -0.1,8.55 3.95,1.43 9.03,0.6 11.81,-2.71 2.07,-2.48 1.38,-5.92 1.58,-8.88 -4.29,1.65 -9.1,1.17 -13.29,3.04 z" />
  <path
     style="opacity:1;fill:#ffffff;fill-opacity:1"
     inkscape:connector-curvature="0"
     id="path24"
     d="m 276.33,214.46 c 1.77,0.01 3.54,0.01 5.32,0 0,10.69 0.01,21.39 -0.01,32.08 -1.78,-0.02 -3.55,-0.02 -5.32,-0.01 0.01,-10.69 -0.01,-21.38 0.01,-32.07 z" />
  <path
     style="opacity:1;fill:#ffffff;fill-opacity:1"
     inkscape:connector-curvature="0"
     id="path26"
     d="m 295.39,214.69 c 6.25,-2.16 14.24,-0.83 18.22,4.84 4.14,6.03 4.28,14.53 0.72,20.86 -5.37,9.37 -21.23,9.19 -26.32,-0.36 -4.61,-8.42 -2.51,-21.8 7.38,-25.34 m 4.04,3.92 c -7.87,1.57 -9.68,11.74 -6.86,18.14 1.99,5.16 8.79,7.45 13.48,4.52 5.4,-3.36 6.13,-10.95 4.15,-16.48 -1.48,-4.33 -6.25,-7.19 -10.77,-6.18 z" />
  <g
     transform="matrix(0.94498409,0,0,0.944984,-149.15874,550.2581)"
     id="layer1-7"
     inkscape:label="Layer 1"
     style="fill:#ffffff;fill-opacity:1">
    <g
       id="g3049"
       transform="matrix(1.4436998,0,0,1.4436998,-105.42852,-917.76024)"
       style="fill:#ffffff;fill-opacity:1">
      <path
         inkscape:connector-curvature="0"
         id="path25087"
         d="m 182.37826,346.59814 c 10.13052,-9.73786 19.35792,-23.00961 26.17049,-38.6962 6.81258,-15.70622 10.18942,-31.5106 10.36611,-45.56767 l -0.1178,0.1178 c -10.09125,9.71822 -19.27939,22.95071 -26.07232,38.59803 -6.77331,15.62769 -10.15015,31.37318 -10.36611,45.39098"
         style="fill:#ffffff;fill-opacity:1;fill-rule:nonzero;stroke:none" />
      <path
         inkscape:connector-curvature="0"
         id="path25091"
         d="m 193.34192,368.63462 c 13.64685,-13.06265 26.07527,-30.86362 35.27139,-51.95442 9.19623,-21.11027 13.77879,-42.34482 14.06433,-61.24857 l -0.17612,0.15474 c -13.58834,13.04351 -25.97771,30.82525 -35.13443,51.83839 -9.15673,21.01314 -13.73883,42.16982 -14.06298,61.01492"
         style="fill:#ffffff;fill-opacity:1;fill-rule:nonzero;stroke:none" />
      <path
         inkscape:connector-curvature="0"
         style="fill:#ffffff;fill-opacity:1;fill-rule:nonzero;stroke:none"
         d="m 208.21437,399.5065 c 18.55911,-17.75864 35.49077,-41.94935 47.99581,-70.60485 12.52504,-28.65528 18.79834,-57.53941 19.20179,-83.23133 l -0.24197,0.19716 c -18.47896,17.73954 -35.33003,41.87119 -47.814,70.42702 -12.48397,28.55581 -18.73598,57.3203 -19.19826,82.91165"
         id="path25095" />
      <path
         inkscape:connector-curvature="0"
         id="path25101"
         d="m 228.74286,439.94168 c 24.95743,-23.97263 47.67792,-56.67299 64.42367,-95.32534 16.78549,-38.67198 25.1127,-77.62178 25.55423,-112.25044 l -0.31829,0.27585 c -24.83857,23.9732 -47.45941,56.55515 -64.16499,95.08884 -16.70559,38.53368 -25.01384,77.66189 -25.51424,112.17137"
         style="fill:#ffffff;fill-opacity:1;fill-rule:nonzero;stroke:none" />
    </g>
  </g>
  <g
     id="g4255"
     transform="matrix(0.41400427,0,0,0.41400423,-62.117784,46.161332)"
     style="fill:#ffffff;fill-opacity:1">
    <path
       sodipodi:nodetypes="ccccccccccccc"
       inkscape:connector-curvature="0"
       id="path2998"
       d="m 703.57778,185.78249 39.82005,0 c -0.93811,-43.82677 -34.38014,-73.69492 -88.25038,-73.69492 -46.01739,0 -82.77808,27.20808 -82.77808,66.91747 0,88.63535 137.22093,45.63874 137.22093,104.83144 0,23.22971 -23.19717,34.95251 -47.59675,34.95251 -33.35925,0 -56.89841,-16.105 -58.46993,-48.76697 l -39.44201,0 c 0,60.34982 48.74818,80.77422 93.94254,80.77422 52.85752,0 91.48529,-24.90007 91.48529,-70.00012 0,-91.44569 -137.66898,-50.68365 -137.66898,-106.35479 0,-18.92299 17.55838,-29.23498 42.15129,-29.23498 36.53991,0 47.65192,19.03905 49.58603,40.57614 z"
       style="fill:#ffffff;fill-opacity:1;stroke:none" />
    <path
       sodipodi:nodetypes="ccsscssccssscccssscc"
       inkscape:connector-curvature="0"
       id="path3055"
       d="m 764.6641,117.54423 0,227.68937 111.14088,0 c 43.98931,0 77.48554,-21.43604 77.48554,-63.25495 0,-29.14747 -10.25438,-48.93024 -42.54946,-59.27039 17.89789,-7.75936 31.73421,-19.80818 31.73421,-49.30898 0,-37.63632 -24.98961,-55.85505 -66.38568,-55.85505 z m 39.63218,31.87652 64.67802,0 c 25.17561,0 34.72262,14.3355 34.72262,31.94766 0,19.93798 -13.3862,31.80536 -32.44573,31.80536 l -66.95491,0 z m 3e-4,92.44229 69.76644,0 c 27.82931,0 39.95108,15.38303 39.95108,35.84643 0,22.49162 -18.15081,35.64762 -38.77835,35.64762 l -70.93947,0 z"
       style="fill:#ffffff;fill-opacity:1;stroke:none" />
    <path
       style="fill:#ffffff;fill-opacity:1;stroke:none"
       d="m 1103.4788,185.78249 39.82,0 c -0.9381,-43.82677 -34.3801,-73.69492 -88.2503,-73.69492 -46.0174,0 -82.77812,27.20808 -82.77812,66.91747 0,88.63535 137.22092,45.63874 137.22092,104.83144 0,23.22971 -23.1972,34.95251 -47.5967,34.95251 -33.3593,0 -56.8984,-16.105 -58.47,-48.76697 l -39.44197,0 c 0,60.34982 48.74817,80.77422 93.94257,80.77422 52.8575,0 91.4853,-24.90007 91.4853,-70.00012 0,-91.44569 -137.669,-50.68365 -137.669,-106.35479 0,-18.92299 17.5584,-29.23498 42.1513,-29.23498 36.5399,0 47.6519,19.03905 49.586,40.57614 z"
       id="path3061"
       inkscape:connector-curvature="0"
       sodipodi:nodetypes="ccccccccccccc" />
  </g>
</svg>
