<?xml version="1.0" encoding="UTF-8"?>
<svg id="svg2" width="414.07pt" height="283.19pt" version="1.1" viewBox="0 0 414.07 283.19" xmlns="http://www.w3.org/2000/svg" xmlns:cc="http://creativecommons.org/ns#" xmlns:dc="http://purl.org/dc/elements/1.1/" xmlns:rdf="http://www.w3.org/1999/02/22-rdf-syntax-ns#">
 <metadata id="metadata32">
  <rdf:RDF>
   <cc:Work rdf:about="">
    <dc:format>image/svg+xml</dc:format>
    <dc:type rdf:resource="http://purl.org/dc/dcmitype/StillImage"/>
    <dc:title/>
   </cc:Work>
  </rdf:RDF>
 </metadata>
 <path id="path14" d="m171.52 202.27c7.19 0.04 14.39-0.07 21.58 0.04 4.04 0.07 8.37 1.52 10.75 4.97 3.99 5.92 1.81 15.86-5.6 17.86 1.97 0.65 4.11 1.53 5.05 3.54 2.71 5.62 0.48 12.46 3.89 17.88-2.24-0.04-4.47-0.04-6.7 0.01-1.76-5.19-0.25-11.07-2.86-16.04-1.04-2.07-3.47-2.87-5.64-2.83-4.84-0.14-9.68 0.01-14.52-0.05-0.02 6.3 0 12.59-0.01 18.88-1.98-0.01-3.96-0.01-5.94 0.01v-44.27m5.94 5.02c0.01 5.11 0 10.23 0.01 15.35 4.5-0.04 9 0.1 13.5-0.05 2.71-0.16 5.81-0.68 7.52-3.02 2.79-3.98 1.31-11.17-4.04-11.99-5.64-0.66-11.33-0.14-16.99-0.29z" fill="#fff"/>
 <path id="path16" d="m264.96 202.27h5.31c0.01 14.75 0.01 29.51 0 44.26-1.78-0.01-3.56-0.01-5.33 0.01 0.02-1.06 0.07-3.19 0.09-4.25-5.17 7.62-18.24 6.22-22.54-1.63-3.74-6.7-3.59-15.82 1.08-22.03 5.12-6.51 16.33-6.6 21.46-0.02-0.15-5.45-0.05-10.9-0.07-16.34m-12.52 16.5c-3.07 0.74-5.29 3.44-6.09 6.4-1.29 4.56-1.21 9.96 1.72 13.9 3.41 4.69 11.5 4.68 14.74-0.19 2.89-4.5 3-10.58 0.82-15.39-1.87-4.14-6.96-5.89-11.19-4.72z" fill="#fff"/>
 <path id="path18" d="m276.32 202.27c1.77 0.01 3.55 0.01 5.33 0-0.01 2.17-0.01 4.34 0 6.52-1.78-0.02-3.56-0.02-5.33 0v-6.52z" fill="#fff"/>
 <path id="path20" d="m333.13 202.6c1.31-0.01 2.63-0.01 3.95-0.01 0 14.65 0.01 29.3 0 43.95-1.8-0.02-3.59-0.02-5.37 0-0.01-10.48-0.01-20.96 0-31.44-3.8-0.01-7.6-0.02-11.4-0.02 0.01-1.4 0.02-2.79 0.02-4.18 3.36-0.29 7.07-0.46 9.72-2.82 1.7-1.37 2.33-3.53 3.08-5.48z" fill="#fff"/>
 <path id="path22" d="m214.2 216.28c4.3-2.94 9.95-2.94 14.89-2.02 3.49 0.55 6.59 3.43 6.66 7.1 0.32 6.99-0.18 14 0.27 20.99 0.79 0.03 2.36 0.08 3.14 0.11-0.12 1.46-0.19 2.93-0.28 4.41-2.39 0.23-5.57 1.13-7.22-1.23-0.25-0.77-0.76-2.3-1.01-3.06-4.09 4.65-11.19 5.86-16.82 3.59-6.32-2.47-6.54-12.81-0.53-15.75 4.75-2.52 10.35-2.03 15.32-3.78 3.21-1.3 2.18-6.44-0.76-7.45-4.63-1.86-12.05-0.81-12.5 5.29-1.76-0.02-3.52-0.03-5.27-0.03 0.42-3.08 1.39-6.35 4.11-8.17m3.11 17.06c-3.39 1.47-3.69 7.15-0.1 8.55 3.95 1.43 9.03 0.6 11.81-2.71 2.07-2.48 1.38-5.92 1.58-8.88-4.29 1.65-9.1 1.17-13.29 3.04z" fill="#fff"/>
 <path id="path24" d="m276.33 214.46c1.77 0.01 3.54 0.01 5.32 0 0 10.69 0.01 21.39-0.01 32.08-1.78-0.02-3.55-0.02-5.32-0.01 0.01-10.69-0.01-21.38 0.01-32.07z" fill="#fff"/>
 <path id="path26" d="m295.39 214.69c6.25-2.16 14.24-0.83 18.22 4.84 4.14 6.03 4.28 14.53 0.72 20.86-5.37 9.37-21.23 9.19-26.32-0.36-4.61-8.42-2.51-21.8 7.38-25.34m4.04 3.92c-7.87 1.57-9.68 11.74-6.86 18.14 1.99 5.16 8.79 7.45 13.48 4.52 5.4-3.36 6.13-10.95 4.15-16.48-1.48-4.33-6.25-7.19-10.77-6.18z" fill="#fff"/>
 <g id="layer1-7" transform="matrix(.94498 0 0 .94498 -149.16 550.26)" fill="#fff">
  <g id="g3049" transform="matrix(1.4437 0 0 1.4437 -105.43 -917.76)" fill="#fff">
   <path id="path25087" d="m182.38 346.6c10.131-9.7379 19.358-23.01 26.17-38.696 6.8126-15.706 10.189-31.511 10.366-45.568l-0.1178 0.1178c-10.091 9.7182-19.279 22.951-26.072 38.598-6.7733 15.628-10.15 31.373-10.366 45.391"/>
   <path id="path25091" d="m193.34 368.63c13.647-13.063 26.075-30.864 35.271-51.954 9.1962-21.11 13.779-42.345 14.064-61.249l-0.17612 0.15474c-13.588 13.044-25.978 30.825-35.134 51.838-9.1567 21.013-13.739 42.17-14.063 61.015"/>
   <path id="path25095" d="m208.21 399.51c18.559-17.759 35.491-41.949 47.996-70.605 12.525-28.655 18.798-57.539 19.202-83.231l-0.24197 0.19716c-18.479 17.74-35.33 41.871-47.814 70.427-12.484 28.556-18.736 57.32-19.198 82.912"/>
   <path id="path25101" d="m228.74 439.94c24.957-23.973 47.678-56.673 64.424-95.325 16.785-38.672 25.113-77.622 25.554-112.25l-0.31829 0.27585c-24.839 23.973-47.459 56.555-64.165 95.089-16.706 38.534-25.014 77.662-25.514 112.17"/>
  </g>
 </g>
 <g id="g4255" transform="matrix(.414 0 0 .414 -62.118 46.161)" fill="#fff">
  <path id="path2998" d="m703.58 185.78h39.82c-0.93811-43.827-34.38-73.695-88.25-73.695-46.017 0-82.778 27.208-82.778 66.917 0 88.635 137.22 45.639 137.22 104.83 0 23.23-23.197 34.953-47.597 34.953-33.359 0-56.898-16.105-58.47-48.767h-39.442c0 60.35 48.748 80.774 93.943 80.774 52.858 0 91.485-24.9 91.485-70 0-91.446-137.67-50.684-137.67-106.35 0-18.923 17.558-29.235 42.151-29.235 36.54 0 47.652 19.039 49.586 40.576z"/>
  <path id="path3055" d="m764.66 117.54v227.69h111.14c43.989 0 77.486-21.436 77.486-63.255 0-29.147-10.254-48.93-42.549-59.27 17.898-7.7594 31.734-19.808 31.734-49.309 0-37.636-24.99-55.855-66.386-55.855zm39.632 31.877h64.678c25.176 0 34.723 14.336 34.723 31.948 0 19.938-13.386 31.805-32.446 31.805h-66.955zm3e-4 92.442h69.766c27.829 0 39.951 15.383 39.951 35.846 0 22.492-18.151 35.648-38.778 35.648h-70.939z"/>
  <path id="path3061" d="m1103.5 185.78h39.82c-0.9381-43.827-34.38-73.695-88.25-73.695-46.017 0-82.778 27.208-82.778 66.917 0 88.635 137.22 45.639 137.22 104.83 0 23.23-23.197 34.953-47.597 34.953-33.359 0-56.898-16.105-58.47-48.767h-39.442c0 60.35 48.748 80.774 93.943 80.774 52.858 0 91.485-24.9 91.485-70 0-91.446-137.67-50.684-137.67-106.35 0-18.923 17.558-29.235 42.151-29.235 36.54 0 47.652 19.039 49.586 40.576z"/>
 </g>
</svg>
