<svg id="a" width="414.06pt" height="283.19pt" version="1.1" viewBox="0 0 414.06 283.19" xmlns="http://www.w3.org/2000/svg">
 <path id="b" d="m171.52 202.27c7.17 0.03 14.35-0.07 21.52 0.03 4.07 0.07 8.44 1.52 10.83 5 3.92 5.89 1.8 15.34-5.19 17.84 2 0.88 4.2 2 4.95 4.23 2.16 5.52 0.31 11.98 3.56 17.19-2.21-0.04-4.42-0.03-6.62 0.05-1.93-5.16-0.28-11.09-2.94-16.06-1.02-2.07-3.43-2.88-5.6-2.85-4.85-0.14-9.71 0.01-14.56-0.04-0.02 6.29 0 12.58-0.01 18.87-1.98-0.01-3.96 0-5.94 0v-44.26m5.94 5.02c0.01 5.11 0 10.23 0.01 15.35 5.8-0.25 11.73 0.64 17.43-0.68 6.85-1.56 6.53-13.36-0.48-14.39-5.62-0.64-11.31-0.13-16.96-0.28z" fill="#fff"/>
 <path id="c" d="m264.96 202.27h5.31c0.01 14.75 0.01 29.51 0 44.26-1.78-0.01-3.56-0.01-5.33 0.01 0.02-1.07 0.07-3.19 0.1-4.25-5.18 7.62-18.26 6.22-22.55-1.64-3.64-6.51-3.56-15.23 0.65-21.46 4.89-7.03 16.62-7.36 21.89-0.58-0.15-5.45-0.05-10.9-0.07-16.34m-12.43 16.48c-3.45 0.77-5.74 3.98-6.42 7.29-1.05 4.54-0.78 9.88 2.39 13.55 3.77 4.4 11.87 3.86 14.71-1.32 2.55-4.66 2.59-10.73 0.07-15.41-2.04-3.73-6.79-5.14-10.75-4.11z" fill="#fff"/>
 <path id="d" d="m276.32 202.27h5.33c-0.01 2.17-0.01 4.34 0 6.51-1.78-0.01-3.56 0-5.32 0.01-0.01-2.18-0.01-4.35-0.01-6.52z" fill="#fff"/>
 <path id="e" d="m324.47 205.46c5.54-4.14 14.18-3.87 19.33 0.82 5.28 5.2 4.4 14.71-1.04 19.49-5.73 5.88-15.58 7.6-18.58 15.98 7.57 0.18 15.15 0.03 22.72 0.09-0.01 1.56-0.01 3.12 0 4.69-9.57 0.03-19.15-0.03-28.72 0.03 0.35-4.03 1.41-8.13 4.01-11.32 4.38-5.52 11.49-7.73 16.44-12.61 2.94-2.79 3.96-7.52 2.12-11.18-2.47-4.56-9.6-5.64-13.19-1.82-2.22 2.26-2.66 5.53-2.92 8.54-1.79-0.03-3.58-0.06-5.36-0.07 0.07-4.65 1.29-9.7 5.19-12.64z" fill="#fff"/>
 <path id="f" d="m214.21 216.28c4.29-2.93 9.91-2.94 14.84-2.03 3.49 0.54 6.61 3.4 6.69 7.07 0.33 6.99-0.16 14 0.27 20.99 0.78 0.03 2.35 0.1 3.13 0.14-0.08 1.45-0.16 2.92-0.24 4.38-2.4 0.29-5.61 1.18-7.25-1.22-0.25-0.76-0.75-2.27-1-3.03-4.09 4.64-11.17 5.86-16.8 3.6-6.36-2.46-6.56-12.9-0.48-15.8 4.73-2.48 10.29-2 15.24-3.74 3.22-1.28 2.2-6.43-0.74-7.44-4.63-1.87-12.05-0.82-12.5 5.28-1.77-0.01-3.53-0.02-5.28-0.03 0.42-3.08 1.39-6.36 4.12-8.17m3.15 17.04c-3.39 1.42-3.77 7.06-0.23 8.53 3.96 1.49 9.11 0.66 11.91-2.69 2.05-2.48 1.35-5.91 1.56-8.86-4.27 1.63-9.06 1.18-13.24 3.02z" fill="#fff"/>
 <path id="g" d="m276.33 214.46h5.32c0 10.7 0.01 21.39-0.01 32.08-1.78-0.02-3.55-0.02-5.32-0.02 0.01-10.69-0.01-21.37 0.01-32.06z" fill="#fff"/>
 <path id="h" d="m295.46 214.67c6.24-2.13 14.18-0.79 18.15 4.85 4.14 6.03 4.28 14.54 0.72 20.87-5.47 9.57-21.86 9.14-26.61-0.9-4.22-8.42-2.01-21.41 7.74-24.82m3.9 3.95c-8.04 1.71-9.73 12.33-6.49 18.74 2.31 5.04 9.36 6.82 13.8 3.5 4.85-3.6 5.42-10.71 3.54-16.05-1.48-4.36-6.3-7.24-10.85-6.19z" fill="#fff"/>
 <g id="i" transform="matrix(.94498 0 0 .94498 -149.16 550.26)" fill="#fff">
  <g id="j" transform="matrix(1.4437 0 0 1.4437 -105.43 -917.76)" fill="#fff">
   <path id="k" d="m182.38 346.6c10.131-9.7379 19.358-23.01 26.17-38.696 6.8126-15.706 10.189-31.511 10.366-45.568l-0.1178 0.1178c-10.091 9.7182-19.279 22.951-26.072 38.598-6.7733 15.628-10.15 31.373-10.366 45.391"/>
   <path id="l" d="m193.34 368.63c13.647-13.063 26.075-30.864 35.271-51.954 9.1962-21.11 13.779-42.345 14.064-61.249l-0.17612 0.15474c-13.588 13.044-25.978 30.825-35.134 51.838-9.1567 21.013-13.739 42.17-14.063 61.015"/>
   <path id="m" d="m208.21 399.51c18.559-17.759 35.491-41.949 47.996-70.605 12.525-28.655 18.798-57.539 19.202-83.231l-0.24197 0.19716c-18.479 17.74-35.33 41.871-47.814 70.427s-18.736 57.32-19.198 82.912"/>
   <path id="n" d="m228.74 439.94c24.957-23.973 47.678-56.673 64.424-95.325 16.785-38.672 25.113-77.622 25.554-112.25l-0.31829 0.27585c-24.839 23.973-47.459 56.555-64.165 95.089s-25.014 77.662-25.514 112.17"/>
  </g>
 </g>
 <g id="o" transform="matrix(.414 0 0 .414 -62.118 46.161)" fill="#fff">
  <path id="p" d="m703.58 185.78h39.82c-0.93811-43.827-34.38-73.695-88.25-73.695-46.017 0-82.778 27.208-82.778 66.917 0 88.635 137.22 45.639 137.22 104.83 0 23.23-23.197 34.953-47.597 34.953-33.359 0-56.898-16.105-58.47-48.767h-39.442c0 60.35 48.748 80.774 93.943 80.774 52.858 0 91.485-24.9 91.485-70 0-91.446-137.67-50.684-137.67-106.35 0-18.923 17.558-29.235 42.151-29.235 36.54 0 47.652 19.039 49.586 40.576z"/>
  <path id="q" d="m764.66 117.54v227.69h111.14c43.989 0 77.486-21.436 77.486-63.255 0-29.147-10.254-48.93-42.549-59.27 17.898-7.7594 31.734-19.808 31.734-49.309 0-37.636-24.99-55.855-66.386-55.855zm39.632 31.877h64.678c25.176 0 34.723 14.336 34.723 31.948 0 19.938-13.386 31.805-32.446 31.805h-66.955zm3e-4 92.442h69.766c27.829 0 39.951 15.383 39.951 35.846 0 22.492-18.151 35.648-38.778 35.648h-70.939z"/>
  <path id="r" d="m1103.5 185.78h39.82c-0.9381-43.827-34.38-73.695-88.25-73.695-46.017 0-82.778 27.208-82.778 66.917 0 88.635 137.22 45.639 137.22 104.83 0 23.23-23.197 34.953-47.597 34.953-33.359 0-56.898-16.105-58.47-48.767h-39.442c0 60.35 48.748 80.774 93.943 80.774 52.858 0 91.485-24.9 91.485-70 0-91.446-137.67-50.684-137.67-106.35 0-18.923 17.558-29.235 42.151-29.235 36.54 0 47.652 19.039 49.586 40.576z"/>
 </g>
</svg>
