<svg id="a" width="526.06pt" height="234.2pt" version="1.1" viewBox="0 0 526.06 234.2" xmlns="http://www.w3.org/2000/svg">
 <g id="b" transform="matrix(1.0014 0 0 1.0014 -182.62 -232.69)" fill="#e52927">
  <g id="c" fill="#c7177c">
   <path id="d" d="m182.38 346.6c10.131-9.7379 19.358-23.01 26.17-38.696 6.8126-15.706 10.189-31.511 10.366-45.568l-0.1178 0.1178c-10.091 9.7182-19.279 22.951-26.072 38.598-6.7733 15.628-10.15 31.373-10.366 45.391"/>
   <path id="e" d="m193.34 368.63c13.647-13.063 26.075-30.864 35.271-51.954 9.1962-21.11 13.779-42.345 14.064-61.249l-0.17612 0.15474c-13.588 13.044-25.978 30.825-35.134 51.838-9.1567 21.013-13.739 42.17-14.063 61.015"/>
   <path id="f" d="m208.21 399.51c18.559-17.759 35.491-41.949 47.996-70.605 12.525-28.655 18.798-57.539 19.202-83.231l-0.24197 0.19716c-18.479 17.74-35.33 41.871-47.814 70.427s-18.736 57.32-19.198 82.912"/>
   <path id="g" transform="matrix(.74894 0 0 .74894 145.45 49.765)" d="m231.35 243.81-0.42382 0.36914c-33.166 32.009-63.369 75.513-85.676 126.96-22.306 51.452-33.399 103.7-34.066 149.77l0.0254 0.0527c18.101-17.387 35.318-38.219 50.857-61.889l0.17773-67.045c1.6267-32.8 26.467-62.427 58.254-70.307 0.3387-0.0768 0.53894-0.10975 0.85938-0.16992 6.386-26.933 9.679-53.158 9.9922-77.75z" stroke-width="1.3352"/>
  </g>
 </g>
 <path id="h" d="m397.84 11.941c2.45 4.06 4.23 8.49 6.51 12.65 4.65 0.61 9.28 1.31 13.92 1.99-3.29 3.4-6.72 6.65-10.11 9.95 0.79 4.71 1.58 9.42 2.44 14.13-4.2-2.26-8.44-4.45-12.65-6.69-4.22 2.22-8.45 4.43-12.66 6.67 0.84-4.73 1.68-9.45 2.41-14.2-3.5-3.21-6.78-6.64-10.28-9.84 4.73-0.67 9.45-1.39 14.18-2.05 2.1-4.19 4.15-8.41 6.24-12.61z" fill="#c7177c"/>
 <path id="i" d="m205.25 36.951c7.19-7.67 17.28-12.63 27.84-13.13 12.03-0.78 24.2 4.21 32.33 13.1 8.37-1.31 17.22-0.14 24.58 4.2 8.09 4.54 13.95 12.4 16.76 21.17 13.88 0.45 28.09-1.51 41.66 2.23 10.78 2.96 20.67 8.93 28.41 16.98 2.17-1.41 4.58-2.93 7.31-2.46 3.9 0.29 7.64 4.4 6.16 8.37-0.55 2.31-3.31 2.18-5.04 3.04-1.12 2.34 1.83 3.67 3.73 3.65 5.01-0.22 8.58-4.53 10.46-8.79 3.95-9.56 4.44-20.56 10.6-29.17 5.72-8.26 15.99-13.14 26.02-12.13 10.25 0.92 20.5 7.26 24.11 17.2 4.36 11.38-2.17 25.84-14.02 29.34-6.7 1.97-15.51 0.69-19.37-5.75 1.55-0.61 3.75-0.66 4.49-2.45 1.44-2.49 0.13-5.89-2.55-6.86-3.64-1.55-7.45 0.78-9.96 3.32-3.85 4.09-7.07 8.72-10.74 12.97 7.73 0.38 15.41 2.22 22.3 5.82 9.55-6.52 21.45-5.69 32.44-5.58 1.47-9.62 7.38-18.49 15.96-23.18 11.86-6.74 27.99-4.74 37.71 4.89 8.66 8.17 11.78 21.32 8.09 32.59v55.8c-0.02 4.66 0.4 9.56-1.63 13.91-2.86 6.58-9.7 11.23-16.91 11.28h-22.86c-2.71 0.05-5.29-0.78-7.91-1.26-3.41 0.42-6.76 1.31-10.21 1.26h-60.98c-12.32-0.09-24.31-5.36-33.09-13.92-8.6 6.91-18.99 11.46-29.81 13.47-6.05 1.18-12.48 0.53-18.27 2.88-2.19 0.71-3.29 3.38-1.9 5.32 2.55 0.36 4.26-3.33 7.01-1.96 3.82 1.4 3.38 6.68 1.59 9.56-2.95 4.53-9.56 4.88-13.75 1.91-2.87 6.47-7.74 12.12-14.13 15.29-9.16 4.81-20.94 4.11-29.38-1.92-2.07-1.45-3.22-3.5122-4.51-5.86 1.92-0.32 4.19-0.02 5.74-1.44 1.93-1.79 2.76-4.9 1.44-7.28-1.67-3.19-5.69-4.59-9.11-3.93-4.89 0.79-8.57 4.43-12.91 6.52-5.51 2.69-11.6 5.07-17.85 4.33-6.85-0.71-13.05-5.54-15.47-11.98-1.54-3.7-1.27-7.79-1.29-11.7-10.68 2.82-22.3 2.19-32.41-2.35-9.36-4.1-17.29-11.26-22.4-20.1-21.51-0.79104-33.469 19.929-51.43 23.05-10.44 1.41-20.72-7.46-20.86-17.99-0.15-18.35-0.08-36.71-0.01-55.06 0.05-15.94 7.99-31.51 20.65-41.14 14.31-11.22 34.53-14.02 51.4-7.3 2.62-14.18 14.32-26.19 28.59-28.68 4.41-0.9 8.95-0.7 13.38-0.08" fill="#c7177c"/>
 <path id="j" d="m381.6 54.761c7.09-3.75 16.34 0.91 18.84 8.23 1.93 5.67 0.64 11.78-0.82 17.39-0.95-3.96-0.76-8.79-4.21-11.62-1.47-1.52-4.01-0.55-4.42 1.41-0.07 1.84 1.8 2.64 2.9 3.77-4.47 3.76-11.68 3.33-15.51-1.13-4.88-5.27-3.28-14.85 3.22-18.05z" fill="#c7177c"/>
 <path id="k" d="m224.8 60.571c4.74 0.14 9.52-0.3 14.24 0.27 5.42 0.91 4.99 10.02-0.24 10.99-4.63 0.67-9.34 0.16-14.01 0.3 0-3.85 0-7.7 0.01-11.56z" fill="#c7177c"/>
 <path id="l" d="m224.8 77.451c5.05 0.15 10.14-0.34 15.17 0.29 5.98 0.8 6.48 10.44 0.96 12.27-5.29 1.08-10.77 0.25-16.13 0.5-0.01-4.35-0.01-8.71 0-13.06z" fill="#c7177c"/>
 <path id="m" d="m249.86 218.03c1.26-2.53 2.63-5.01 4.09-7.43 1.28 2.46 2.45 4.97 3.53 7.52 2.88 0.59 5.77 1.1 8.67 1.57-2.09 1.96-4.19 3.9-6.34 5.8 0.35 2.91 0.75 5.81 1.2 8.71-2.55-1.42-5.09-2.83-7.64-4.23-2.6 1.29-5.19 2.57-7.78 3.88 0.59-2.86 1.16-5.73 1.71-8.59-1.99-2.04-3.99-4.08-5.97-6.12 2.83-0.45 5.68-0.83 8.53-1.11z" fill="#c7177c"/>
 <g id="n" transform="matrix(.18502 0 0 .18514 103.42 12.176)" fill="#fff">
  <path id="o" d="m553.67 296.67h39.82c-0.93811-43.827-34.38-73.695-88.25-73.695-46.017 0-82.778 27.208-82.778 66.917 0 88.635 137.22 45.639 137.22 104.83 0 23.23-23.197 34.953-47.597 34.953-33.359 0-56.898-16.105-58.47-48.767h-39.442c0 60.35 48.748 80.774 93.943 80.774 52.858 0 91.485-24.9 91.485-70 0-91.446-137.67-50.684-137.67-106.35 0-18.923 17.558-29.235 42.151-29.235 36.54 0 47.652 19.039 49.586 40.576z"/>
  <path id="p" d="m614.75 228.43v227.69h111.14c43.989 0 77.486-21.436 77.486-63.255 0-29.147-10.254-48.93-42.549-59.27 17.898-7.7594 31.734-19.808 31.734-49.309 0-37.636-24.99-55.855-66.386-55.855zm39.632 31.877h64.678c25.176 0 34.723 14.336 34.723 31.948 0 19.938-13.386 31.805-32.446 31.805h-66.955zm3e-4 92.442h69.766c27.829 0 39.951 15.383 39.951 35.846 0 22.492-18.151 35.648-38.778 35.648h-70.939z"/>
  <path id="q" d="m953.59 296.67h39.82c-0.9381-43.827-34.38-73.695-88.25-73.695-46.017 0-82.778 27.208-82.778 66.917 0 88.635 137.22 45.639 137.22 104.83 0 23.23-23.197 34.953-47.597 34.953-33.359 0-56.898-16.105-58.47-48.767h-39.442c0 60.35 48.748 80.774 93.943 80.774 52.858 0 91.485-24.9 91.485-70 0-91.446-137.67-50.684-137.67-106.35 0-18.923 17.558-29.235 42.151-29.235 36.54 0 47.652 19.039 49.586 40.576z"/>
 </g>
 <path id="r" d="m113.65 100.79c5.87-13.84 21.8-22.3 36.56-19.4 15.17 2.41 27.36 16.42 27.65 31.77 0.85 15.08-9.81 29.75-24.4 33.61-6.23 1.82-12.955 1.51-19.175-0.13v-24.3c3.88 3.71 10.095 4.86 14.655 1.71 5.49-3.35 6.95-11.53 2.88-16.53-3.52-4.86-11-6.01-15.78-2.35-3.19 2.23-4.92 6.14-4.74 10v26.94c0.48 12.07-9.4 22.43-20.57 25.52v-43.54c0.11-7.82-0.62-16.04 2.92-23.3z" fill="#fff"/>
 <path id="s" d="m299.66 81.596h32.385c11.82 0.05 23.46 5.365 31.3 14.205 8.91 9.79 12.69 23.87 10 36.82-2.91 15.1-14.62 28.04-29.34 32.49-6.63 2.22-13.69 1.965-20.59 1.905v-20.375c5.69-0.09 11.74 0.66 17.03-1.94 8.8-3.9 14.26-13.94 12.87-23.44-1.22-9.68-9.48-18.05-19.22-19.12-4.59-0.4-8.5368-0.14-13.8-0.14v65.015h-20.635z" fill="#fff"/>
 <path id="t" d="m492.26 84.361c6.98-1.48 14.16 4.68 13.76 11.81 0.03 6.23-5.68 11.67-11.9 11.42-5.78 0.09-11.06-4.74-11.43-10.52-0.73-5.89 3.71-11.79 9.57-12.71z" fill="#fff"/>
 <path id="u" d="m198.43 111.73c15.17-4.39 32.31 6.21 35.28 21.68 3.69 14.96-7.06 31.22-22.13 34-14.51 3.47-30.35-6.51-33.59-21.04-4-14.61 5.71-31.1 20.44-34.64m5 19.89c-3.3 0.92-5.81 4.07-5.95 7.51-0.27 4.91 4.64 9.43 9.53 8.45 4.6-0.76 8.08-5.84 6.58-10.38-1.15-4.2-5.99-6.87-10.16-5.58z" fill="#fff"/>
 <path id="v" d="m253.97 113.93c9.74-5.11 22.42-3.69 30.77 3.47 6.94 5.7 10.86 14.82 10.18 23.78-0.61 10.04-7.26 19.28-16.32 23.5-4.96 2.46-10.64 3-16.1 2.54v-21.58c3.37 1.45 7.68 1.1 10.08-1.92 3.38-4.01 0.65-11.05-4.53-11.77-4.31-0.94-8.735 2.77-8.705 7.12v25c-0.57 11.92-9.615 22.5-20.905 25.92v-50.9c-0.01-10.42 6.2-20.52 15.53-25.16z" fill="#fff"/>
 <path id="w" d="m382.82 121.98c5.57-7.38 14.96-11.57 24.18-10.89 8.57 0.34 17.94 3.97 21.96 12.04 2.98 6.29 3.6 14.325-0.57 20.235h-23.7c2.69-1.19 6.47-2.655 6.38-6.255 0.13-4.7-5.93-6.79-9.51-4.5-4.26 2.13-5.19 8.43-1.7 11.69 2.57 2.86 6.73 2.225 10.18 2.255h44.28l-14.03-11.575c-5.18-5.26-6.09-14.81-0.35-20 2.95-2.73 7.1-3.69 11.03-3.65h26.88v20.005h-17.03c4.53 4.15 9.27 8.065 13.79 12.235 4.56 4.17 5.98 11.55 2.67 16.9-2.66 4.54-8.11 6.63-13.19 6.54h-59.08c-9.49 0.1-18.77-5.08-23.73-13.15-6.17-9.58-5.53-22.93 1.54-31.88z" fill="#fff"/>
 <path id="x" d="m483.87 111.48h20.625v55.535h-20.655z" fill="#fff"/>
</svg>
