<?xml version="1.0" encoding="UTF-8"?>
<svg id="svg45" width="518.74pt" height="283.19pt" version="1.1" viewBox="0 0 518.74 283.19" xmlns="http://www.w3.org/2000/svg" xmlns:cc="http://creativecommons.org/ns#" xmlns:dc="http://purl.org/dc/elements/1.1/" xmlns:rdf="http://www.w3.org/1999/02/22-rdf-syntax-ns#">
 <metadata id="metadata51">
  <rdf:RDF>
   <cc:Work rdf:about="">
    <dc:format>image/svg+xml</dc:format>
    <dc:type rdf:resource="http://purl.org/dc/dcmitype/StillImage"/>
    <dc:title/>
   </cc:Work>
  </rdf:RDF>
 </metadata>
 <g id="layer1-7" transform="matrix(.94498 0 0 .94498 -149.16 550.26)" fill="#72147d">
  <g id="g3049" transform="matrix(1.4437 0 0 1.4437 -105.43 -917.76)" fill="#72147d">
   <path id="path25087" d="m182.38 346.6c10.131-9.7379 19.358-23.01 26.17-38.696 6.8126-15.706 10.189-31.511 10.366-45.568l-0.1178 0.1178c-10.091 9.7182-19.279 22.951-26.072 38.598-6.7733 15.628-10.15 31.373-10.366 45.391"/>
   <path id="path25091" d="m193.34 368.63c13.647-13.063 26.075-30.864 35.271-51.954 9.1962-21.11 13.779-42.345 14.064-61.249l-0.17612 0.15474c-13.588 13.044-25.978 30.825-35.134 51.838-9.1567 21.013-13.739 42.17-14.063 61.015"/>
   <path id="path25095" d="m208.21 399.51c18.559-17.759 35.491-41.949 47.996-70.605 12.525-28.655 18.798-57.539 19.202-83.231l-0.24197 0.19716c-18.479 17.74-35.33 41.871-47.814 70.427-12.484 28.556-18.736 57.32-19.198 82.912"/>
   <path id="path25101" d="m228.74 439.94c24.957-23.973 47.678-56.673 64.424-95.325 16.785-38.672 25.113-77.622 25.554-112.25l-0.31829 0.27585c-24.839 23.973-47.459 56.555-64.165 95.089-16.706 38.534-25.014 77.662-25.514 112.17"/>
  </g>
 </g>
 <g id="g828" transform="matrix(.28506 0 0 .28506 17.942 43.09)" fill="#72147d">
  <path id="path2998" d="m703.58 185.78h39.82c-0.93811-43.827-34.38-73.695-88.25-73.695-46.017 0-82.778 27.208-82.778 66.917 0 88.635 137.22 45.639 137.22 104.83 0 23.23-23.197 34.953-47.597 34.953-33.359 0-56.898-16.105-58.47-48.767h-39.442c0 60.35 48.748 80.774 93.943 80.774 52.858 0 91.485-24.9 91.485-70 0-91.446-137.67-50.684-137.67-106.35 0-18.923 17.558-29.235 42.151-29.235 36.54 0 47.652 19.039 49.586 40.576z"/>
  <path id="path3055" d="m764.66 117.54v227.69h111.14c43.989 0 77.486-21.436 77.486-63.255 0-29.147-10.254-48.93-42.549-59.27 17.898-7.7594 31.734-19.808 31.734-49.309 0-37.636-24.99-55.855-66.386-55.855zm39.632 31.877h64.678c25.176 0 34.723 14.336 34.723 31.948 0 19.938-13.386 31.805-32.446 31.805h-66.955zm3e-4 92.442h69.766c27.829 0 39.951 15.383 39.951 35.846 0 22.492-18.151 35.648-38.778 35.648h-70.939z"/>
  <path id="path3061" d="m1103.5 185.78h39.82c-0.9381-43.827-34.38-73.695-88.25-73.695-46.017 0-82.778 27.208-82.778 66.917 0 88.635 137.22 45.639 137.22 104.83 0 23.23-23.197 34.953-47.597 34.953-33.359 0-56.898-16.105-58.47-48.767h-39.442c0 60.35 48.748 80.774 93.943 80.774 52.858 0 91.485-24.9 91.485-70 0-91.446-137.67-50.684-137.67-106.35 0-18.923 17.558-29.235 42.151-29.235 36.54 0 47.652 19.039 49.586 40.576z"/>
 </g>
 <g id="g4534" transform="matrix(1.2343 0 0 1.2343 -35.649 -145.43)" fill="#72147d">
  <path id="path12" d="m285.45 239.49h6.29c-0.08 6.51 0.04 13.03-0.1 19.55 5.62-8.36 19.43-7.69 25.43-0.1 4.32 5.28 5.02 12.55 4.12 19.09-0.85 3.42-2.1 6.87-4.53 9.5-6.3 7.22-19.18 7.02-25.02-0.7 0.03 1.66 0.06 3.32 0.1 4.99-2.11-0.01-4.21-0.04-6.3 0.02 0.03-17.45 0.03-34.9 0.01-52.35m12.92 20.04c-7.36 3.66-8.13 13.81-5.52 20.72 2.31 6.8 11.71 9.24 17.27 4.92 3.61-2.87 4.77-7.75 4.72-12.16 0.14-3.97-0.87-8.19-3.68-11.11-3.13-3.51-8.6-4.2-12.79-2.37z"/>
  <path id="path14" d="m178.97 278.86c5.26-13.1 10.26-26.3 15.54-39.38 2.54 0.02 5.09 0.02 7.63 0.02 6.96 17.4 13.57 34.95 20.65 52.31-2.62-0.02-5.24-0.01-7.86 0-1.91-5.22-3.77-10.46-5.72-15.66-7.41 0.09-14.82 0.01-22.23 0.05-1.94 5.21-3.87 10.43-5.83 15.64-2.41-0.03-4.82-0.05-7.23-0.06 1.71-4.3 3.43-8.59 5.05-12.92m19.14-33.13c-2.91 8.21-5.91 16.38-8.93 24.55 5.95-0.02 11.89 0.01 17.83-0.02-2.98-8.17-5.72-16.43-8.9-24.53z"/>
  <path id="path16" d="m326.85 239.53c2.13-0.03 4.26-0.04 6.4-0.04-0.01 2.57-0.02 5.13-0.03 7.7-2.12 0-4.24 0-6.36-0.01-0.01-2.55-0.01-5.1-0.01-7.65z"/>
  <path id="path18" d="m384.99 242.2c6.07-3.78 14.57-3.72 20.44 0.43 7.23 5.41 7.9 17.04 1.79 23.56-5.81 7.48-16.38 9.75-21.15 18.13 8.43 0.1 16.86 0.01 25.3 0.05-0.02 2.47-0.02 4.95-0.01 7.44-11.76-0.06-23.51-0.03-35.26-0.02 0.16-4.7 1.59-9.4 4.54-13.11 5.24-6.97 14.23-9.65 19.78-16.3 3.09-3.63 3.52-9.54 0.51-13.33-3.34-3.61-10.35-3.65-13.11 0.68-1.87 2.83-2.19 6.31-2.36 9.61-2.8-0.01-5.59-0.01-8.38-0.01-0.03-6.47 2.26-13.46 7.91-17.13z"/>
  <path id="path20" d="m434.45 240.62c2.73-0.09 5.47-0.05 8.21-0.15-0.24 10.6-0.04 21.2-0.11 31.81v0.91c2.19-0.01 4.39-0.02 6.59-0.01 0.01 2.16 0 4.32 0 6.49-2.22-0.01-4.43-0.02-6.63-0.02 0 4.06 0.01 8.11 0.02 12.17-2.67-0.03-5.33-0.04-7.99-0.06 0.05-4.04 0.05-8.07 0.05-12.1-7.36 0.02-14.71-0.02-22.07 0.02 0.34-3.29-0.97-7.15 1.2-9.98 6.91-9.69 13.92-19.32 20.73-29.08m-15.45 32.57c5.18-0.01 10.36-0.02 15.55 0 0.05-7.6 0.09-15.2-0.02-22.8-5.19 7.59-10.44 15.15-15.53 22.8z"/>
  <path id="path22" d="m237.68 254.68c2.29-1.42 5.05-1.4 7.64-1.67 0.01 2.17 0.01 4.34 0.02 6.52-2.9 0.38-6.02 0.52-8.5 2.27-3.7 2.4-5.06 7.05-5.21 11.24-0.15 6.23-0.02 12.47-0.03 18.7-2.11 0.12-4.21 0.1-6.31 0.1 0.06-12.66-0.01-25.32 0.04-37.98 1.96 0 3.92 0 5.88 0.01 0 2.7 0.01 5.4 0.02 8.1 1.7-2.77 3.5-5.7 6.45-7.29z"/>
  <path id="path24" d="m251.48 256.55c4.86-3.87 11.53-3.75 17.38-3.04 4.1 0.53 8.3 3.43 8.69 7.83 0.33 7.21 0.01 14.43 0.11 21.64-0.12 1.56 0.38 3.03 0.97 4.45 0.76-0.09 2.27-0.27 3.03-0.36-0.03 1.69-0.07 3.38-0.1 5.08-2.49 0.22-5.3 1.32-7.58-0.19-1.64-0.99-1.77-3.08-2.37-4.7-5.99 6.47-17.46 7.75-23.99 1.42-2.57-4.49-2.65-10.95 1.45-14.55 5.77-4.48 13.58-3.42 20.15-5.73 3.77-1.54 2.64-7.38-0.68-8.82-3.62-1.48-8.03-1.45-11.58 0.22-2.37 1.07-2.92 3.75-3.65 5.97-2.06-0.02-4.12-0.04-6.17-0.07 0.53-3.37 1.5-6.97 4.34-9.15m3.93 19.85c-3.58 1.84-4.13 7.73-0.43 9.74 5.66 2.85 14.41 0.48 16.33-6.03 0.27-2.55 0.13-5.13 0.19-7.68-5.05 2.53-11.11 1.33-16.09 3.97z"/>
  <path id="path26" d="m343.93 257.93c4.99-5.28 13.2-5.76 19.79-3.71 5.17 1.63 8.88 6.56 9.17 11.95-2.09 0.01-4.17 0.02-6.25 0.03-0.93-2.19-1.74-4.68-3.88-6-4.64-2.97-11.73-1.96-14.93 2.69-3.86 6.5-4.01 16.25 1.52 21.87 4.21 3.82 11.69 3.35 15.18-1.22 1.31-1.6 1.74-3.67 2.32-5.6 2.06 0.1 4.13 0.16 6.21 0.19-0.63 4.21-2.4 8.44-5.81 11.16-4.71 3.8-11.39 4.19-17.04 2.61-6.19-1.74-10.39-7.62-11.33-13.81-1.02-6.96-0.05-14.91 5.05-20.16z"/>
  <path id="path28" d="m326.81 254.15c2.12-0.28 4.27-0.36 6.41-0.3 0.03 12.66 0 25.31 0.02 37.96-2.13 0-4.26-0.02-6.39-0.04-0.02-12.54 0.07-25.08-0.04-37.62z"/>
 </g>
</svg>
