<?xml version="1.0" encoding="UTF-8"?>
<svg id="svg57" width="293.25pt" height="165.75pt" version="1.1" viewBox="0 0 293.25 165.75" xmlns="http://www.w3.org/2000/svg" xmlns:cc="http://creativecommons.org/ns#" xmlns:dc="http://purl.org/dc/elements/1.1/" xmlns:rdf="http://www.w3.org/1999/02/22-rdf-syntax-ns#">
 <metadata id="metadata63">
  <rdf:RDF>
   <cc:Work rdf:about="">
    <dc:format>image/svg+xml</dc:format>
    <dc:type rdf:resource="http://purl.org/dc/dcmitype/StillImage"/>
    <dc:title/>
   </cc:Work>
  </rdf:RDF>
 </metadata>
 <g id="g1154" transform="translate(.75 -434.25)" fill="#0aa8cf">
  <path id="rect930" d="m4.5 531a5.25 3 0 0 0-5.25 3v18a5.25 3 0 0 0 5.25 3 5.25 3 0 0 0 5.25-3v-18a5.25 3 0 0 0-5.25-3z" style="paint-order:markers fill stroke"/>
  <path id="rect930-9" d="m18 531c-2.8995 0-5.25 1.3432-5.25 3v12c0 1.6568 2.3505 3 5.25 3s5.25-1.3432 5.25-3v-12c0-1.6568-2.3505-3-5.25-3z" style="paint-order:markers fill stroke"/>
  <path id="rect930-7" d="m31.5 531c-2.8995 0-5.25 1.3432-5.25 3v5.25c0 1.6568 2.3505 3 5.25 3s5.25-1.3432 5.25-3v-5.25c0-1.6568-2.3505-3-5.25-3z" style="paint-order:markers fill stroke"/>
  <path id="rect930-5" d="m45 531a5.25 3 0 0 0-5.25 3v18a5.25 3 0 0 0 5.25 3 5.25 3 0 0 0 5.25-3v-18a5.25 3 0 0 0-5.25-3z" style="paint-order:markers fill stroke"/>
  <path id="rect930-70" d="m58.5 531c-2.8995 0-5.25 1.3432-5.25 3v5.25c0 1.6568 2.3505 3 5.25 3s5.25-1.3432 5.25-3v-5.25c0-1.6568-2.3505-3-5.25-3z" style="paint-order:markers fill stroke"/>
  <path id="rect930-59" d="m72 531c-2.8995 0-5.25 1.3432-5.25 3v2.25c0 1.6568 2.3505 3 5.25 3s5.25-1.3432 5.25-3v-2.25c0-1.6568-2.3505-3-5.25-3z" style="paint-order:markers fill stroke"/>
  <path id="rect930-6" d="m85.5 531c-2.8995 0-5.25 1.3431-5.25 3v12c0 1.6568 2.3505 3 5.25 3s5.25-1.3432 5.25-3v-12c-1e-5 -1.6568-2.3505-3-5.25-3z" style="paint-order:markers fill stroke"/>
  <path id="rect930-1" d="m99 531c-2.8995 0-5.25 1.3431-5.25 3v63c0 1.6569 2.3505 3 5.25 3 2.8995 1e-5 5.25-1.3431 5.25-3v-63c-1e-5 -1.6568-2.3505-3-5.25-3z" style="paint-order:markers fill stroke"/>
  <path id="rect930-68" d="m112.5 531c-2.8995 0-5.25 1.3432-5.25 3v63c0 1.6569 2.3505 3 5.25 3 2.8995 1e-5 5.25-1.3431 5.25-3v-63c0-1.6568-2.3505-3-5.25-3z" style="paint-order:markers fill stroke"/>
  <path id="rect930-0" d="m125.25 531c-2.8995 0-5.25 1.3432-5.25 3v47.25c0 1.6568 2.3505 3 5.25 3s5.25-1.3432 5.25-3v-47.25c0-1.6568-2.3505-3-5.25-3z" style="paint-order:markers fill stroke"/>
  <path id="rect930-50" d="m138.75 531c-2.8995 0-5.25 1.3432-5.25 3v26.25c0 1.6568 2.3505 3 5.25 3s5.25-1.3432 5.25-3v-26.25c0-1.6568-2.3505-3-5.25-3z" style="paint-order:markers fill stroke"/>
  <path id="rect930-11" d="m152.25 531a5.25 3 0 0 0-5.25 3v18a5.25 3 0 0 0 5.25 3 5.25 3 0 0 0 5.25-3v-18a5.25 3 0 0 0-5.25-3z" style="paint-order:markers fill stroke"/>
  <path id="rect930-4" d="m165.75 531c-2.8995 0-5.25 1.3431-5.25 3v12c0 1.6568 2.3505 3 5.25 3s5.25-1.3432 5.25-3v-12c-1e-5 -1.6568-2.3505-3-5.25-3z" style="paint-order:markers fill stroke"/>
  <path id="rect930-19" d="m179.25 531c-2.8995 0-5.25 1.3432-5.25 3v57c0 1.6568 2.3505 3 5.25 3s5.25-1.3432 5.25-3v-57c0-1.6568-2.3505-3-5.25-3z" style="paint-order:markers fill stroke"/>
  <path id="rect930-94" d="m192.75 531c-2.8995 0-5.25 1.3432-5.25 3v47.25c0 1.6568 2.3505 3 5.25 3s5.25-1.3432 5.25-3v-47.25c0-1.6568-2.3505-3-5.25-3z" style="paint-order:markers fill stroke"/>
  <path id="rect930-40" d="m206.25 531c-2.8995 0-5.25 1.3431-5.25 3v37.5c0 1.6568 2.3505 3 5.25 3s5.25-1.3432 5.25-3v-37.5c-1e-5 -1.6568-2.3505-3-5.25-3z" style="paint-order:markers fill stroke"/>
  <path id="rect930-12" d="m219.75 531c-2.8995 0-5.25 1.3432-5.25 3v47.25c0 1.6568 2.3505 3 5.25 3 2.8995 0 5.25-1.3431 5.25-3v-47.25c0-1.6569-2.3505-3-5.25-3z" style="paint-order:markers fill stroke"/>
  <path id="rect930-01" d="m233.25 531c-2.8995 0-5.25 1.3432-5.25 3v26.25c0 1.6568 2.3505 3 5.25 3s5.25-1.3432 5.25-3v-26.25c0-1.6568-2.3505-3-5.25-3z" style="paint-order:markers fill stroke"/>
  <path id="rect930-47" d="m246 531c-2.8995 0-5.25 1.3432-5.25 3v26.25c0 1.6568 2.3505 3 5.25 3s5.25-1.3432 5.25-3v-26.25c0-1.6568-2.3505-3-5.25-3z" style="paint-order:markers fill stroke"/>
  <path id="rect930-3" d="m259.5 531c-2.8995 0-5.25 1.3432-5.25 3v12c0 1.6568 2.3505 3 5.25 3s5.25-1.3432 5.25-3v-12c0-1.6568-2.3505-3-5.25-3z" style="paint-order:markers fill stroke"/>
  <path id="rect930-15" d="m273 531c-2.8995 0-5.25 1.3432-5.25 3v5.25c0 1.6568 2.3505 3 5.25 3s5.25-1.3432 5.25-3v-5.25c0-1.6568-2.3505-3-5.25-3z" style="paint-order:markers fill stroke"/>
  <path id="rect930-96" d="m286.5 531a5.25 3 0 0 0-5.25 3v18a5.25 3 0 0 0 5.25 3 5.25 3 0 0 0 5.25-3v-18a5.25 3 0 0 0-5.25-3z" style="paint-order:markers fill stroke"/>
 </g>
 <g id="#58585aff" transform="matrix(.75126 0 0 .75615 -77.955 -143.16)" fill="#fff">
  <path id="path3" d="m183.82 189.32h16.005v29.525c8.84-7.64 20.385-12.14 32.135-11.62 23.49-0.26 44.935 20.26 45.675 43.73v50.85h-15.995v-43.82c-0.02-3.65 0.18-7.34-0.62-10.93-2.58-11.44-11.74-21.15-23.11-24.17-12.82-3.23-26.87 3.41-33.44 14.69-4.65 7.29-4.52 16.21-6.3 24.4-2.37 15.25-12.47 29.13-26.42 35.79-8.24 4.08-17.74 5.53-26.82 4.08-13.09-1.7-25.09-9.64-32.16-20.74-6.43-9.9-9.24-22.14-7.5-33.85 2.23-16.3 13.75-30.93 29.02-37.02 6.91-2.93 14.52-3.95 21.98-3.39l-1.45 16.28c-10.29-0.82-21.03 2.93-27.82 10.86-7.77 8.75-9.49 22.11-4.5 32.65 4.74 10.84 15.68 18.71 27.53 19.44 16.88 1.16 33.08-13.11 33.79-30.07z"/>
  <path id="path5" d="m291.56 189.32h16.295v11.195h-16.295z"/>
  <path id="path7" d="m320.36 189.32h16.425v64.655c0 16.751 14.66 31.73 31.21 31.69 16.77 0.44 31.835-14.297 31.835-31.66v-64.685h16.455v64.695c0 17.895 15.07 31.87 31.71 31.58 15.98 0.09 30.55-13.4 31.9-29.28l14.22 1.42c-0.31 24.11-23.1 45.19-47.14 44.06-15.76 0.17-30.83-8.9-38.94-22.26-7.9 13.17-22.6 22.19-38.06 22.35-11.03 0.57-22.18-3.13-30.7-10.15-10.89-8.72-18.218-22.24-18.915-35.88z"/>
  <path id="path9" d="m291.56 207.2h16.295v94.415h-16.295z"/>
 </g>
</svg>
