<?xml version="1.0" encoding="UTF-8" standalone="no"?>
<svg
   xmlns:dc="http://purl.org/dc/elements/1.1/"
   xmlns:cc="http://creativecommons.org/ns#"
   xmlns:rdf="http://www.w3.org/1999/02/22-rdf-syntax-ns#"
   xmlns:svg="http://www.w3.org/2000/svg"
   xmlns="http://www.w3.org/2000/svg"
   xmlns:sodipodi="http://sodipodi.sourceforge.net/DTD/sodipodi-0.dtd"
   xmlns:inkscape="http://www.inkscape.org/namespaces/inkscape"
   width="1080.1154pt"
   height="449.68488pt"
   viewBox="0 0 1080.1154 449.68488"
   version="1.1"
   id="svg2"
   inkscape:version="0.91 r13725"
   sodipodi:docname="Triple J.svg">
  <metadata
     id="metadata36">
    <rdf:RDF>
      <cc:Work
         rdf:about="">
        <dc:format>image/svg+xml</dc:format>
        <dc:type
           rdf:resource="http://purl.org/dc/dcmitype/StillImage" />
        <dc:title />
      </cc:Work>
    </rdf:RDF>
  </metadata>
  <defs
     id="defs34" />
  <sodipodi:namedview
     pagecolor="#ffffff"
     bordercolor="#666666"
     borderopacity="1"
     objecttolerance="10"
     gridtolerance="10"
     guidetolerance="10"
     inkscape:pageopacity="0"
     inkscape:pageshadow="2"
     inkscape:window-width="1920"
     inkscape:window-height="1017"
     id="namedview32"
     showgrid="false"
     fit-margin-top="0"
     fit-margin-left="0"
     fit-margin-right="0"
     fit-margin-bottom="0"
     inkscape:zoom="0.54305801"
     inkscape:cx="384.08768"
     inkscape:cy="777.52997"
     inkscape:window-x="-8"
     inkscape:window-y="-8"
     inkscape:window-maximized="1"
     inkscape:current-layer="svg2" />
  <g
     id="#ffffffff"
     transform="translate(-56.644605,-65.595127)" />
  <path
     style="opacity:1;fill:#f04033"
     inkscape:connector-curvature="0"
     id="path12"
     d="m 503.13539,172.16487 c 10.26,-0.02 20.52,0.06 30.78,-0.04 0.3,13.87 0.01,27.74 0.14,41.61 11,-0.15 21.99,0.02 32.99,-0.09 -0.17999,9.68 0.04,19.37 -0.12,29.06 -10.98,-0.12 -21.97,-0.08 -32.95,-0.03 0.13,35.37 0.07,70.73 0.03,106.1 -10.3,-0.16 -20.6,-0.02 -30.89,-0.07 -0.08,-35.35 -0.1,-70.71 0.01,-106.07 -10.98,0.03 -21.96,-0.06 -32.93,0.06 -0.11,-9.64 0.1,-19.29 -0.11,-28.92 10.94,-0.16 21.89,-0.15 32.83,0 0.39,-13.86 -0.03,-27.74 0.22,-41.61 z" />
  <path
     style="opacity:1;fill:#f04033"
     inkscape:connector-curvature="0"
     id="path14"
     d="m 831.4954,172.16487 c 10.15999,-0.04 20.32,0.11 30.48,-0.08 0.27,58.89 0.12,117.79 0.07,176.69 -10.18,-0.15 -20.37,-0.03 -30.55,-0.06 0.03,-58.85 0.03,-117.7 0,-176.55 z" />
  <path
     style="opacity:1;fill:#f04033"
     inkscape:connector-curvature="0"
     id="path16"
     d="m 1049.6454,204.68487 c -0.16,-10.86 -0.19,-21.72 0.02,-32.58 10.1,0.11 20.21,0.11 30.32,0 0.15,10.87 0.17,21.74 -0.02,32.61 -10.1,-0.06 -20.21,-0.18 -30.32,-0.03 z" />
  <path
     style="opacity:1;fill:#f04033"
     inkscape:connector-curvature="0"
     id="path18"
     d="m 719.6854,221.68487 c 13.85,-8.42 30.77,-11.62 46.74,-8.78 18.74,3.03 35.69,14.58 45.99,30.45 13.38,20.47 14.34,48.23 2.53,69.62 -8.32,15.34 -22.71,27.32 -39.38,32.51 -7.79,2.52 -16.03,3.44 -24.18,3.23 -11.48,0.03 -22.96,-0.1 -34.44,0.07 0.13,13.06 0.06,26.13 0.06,39.19 -10.15,0.03 -20.3,0 -30.44,0.02 -0.06,-30.18 -0.03,-60.36 -0.04,-90.55 0.29,-11.06 -0.96,-22.34 1.83,-33.18 4.12,-17.67 15.79,-33.29 31.33,-42.58 m 11.8,28.94 c -9.07,6.99 -14.52,18.34 -14.49,29.77 0.06,12.6 -0.02,25.2 0.05,37.79 12.75,-0.19 25.51,0.02 38.28,-0.1 7.49,0 14.96,-2.39 21.04,-6.76 10.95,-7.38 17.24,-20.91 16.17999,-34.03 -0.78,-8.23 -4.17999,-16.2 -9.7,-22.37 -7.01,-7.57 -17.11,-12.52 -27.52,-12.33 -8.58,-0.31 -17.15,2.7 -23.84,8.03 z" />
  <path
     style="opacity:1;fill:#f04033"
     inkscape:connector-curvature="0"
     id="path20"
     d="m 923.40539,213.81487 c 14.31,-3.37 29.69001,-1.79 43.08001,4.27 15.45999,6.8 28.1,19.65 34.8,35.14 5.81,13.02 6.96,27.8 4.32,41.74 -34.01,0.26 -68.02,-0.09 -102.02,0.18 5.27,11.57 16.11,20.78 28.84,22.72 7.96,0.77 15.96,0.68 23.95,0.71 6.79,-0.73 13.6,0.35 20.42,-0.04 0.02,10.09 -0.05,20.19 0.07,30.28 -13.51,-0.02 -27.02,0 -40.53,0 -17.95,-0.45 -35.54,-8.51 -47.7,-21.7 -9.43,-10.02 -15.76,-22.96 -17.68,-36.6 -2.63,-16.55 1.42,-33.97 10.69,-47.89 9.67,-14.36 24.81,-25.04 41.76,-28.81 m -1.08,32.61 c -8.32,3.95 -14.98,11.05 -18.62,19.49 23.21,0.01 46.42,0.05 69.64,-0.03 -3.81,-9.37 -11.72,-17 -21.17,-20.6 -9.51,-3.83 -20.65,-3.39 -29.85,1.14 z" />
  <path
     style="opacity:1;fill:#f04033"
     inkscape:connector-curvature="0"
     id="path22"
     d="m 578.89539,238.88487 c 12.61001,-16.41 33.41,-26.18 54.12,-25.21 -0.1,9.64 0.21001,19.28 -0.17999,28.91 -10.01,-0.71 -20.23,2.84 -27.43,9.85 -6.73,6.88 -10.25,16.49 -10.47,26.04 -0.06,23.42 0.06,46.85 -0.06,70.27 -9.97,-0.07 -19.93,-0.05 -29.9,-0.01 0.04,-22.77 0.01,-45.55 0.02,-68.32 0.1,-14.83 4.69,-29.8 13.9,-41.53 z" />
  <path
     style="opacity:1;fill:#f04033"
     inkscape:connector-curvature="0"
     id="path24"
     d="m 643.9854,213.75487 c 10.32,-0.15 20.65,-0.08 30.98,-0.04 -0.12,45.01 0.03,90.03 -0.07,135.04 -10.28999,-0.1 -20.58,-0.05 -30.87,-0.03 0.02,-44.99 0.11001,-89.98 -0.04,-134.97 z" />
  <path
     sodipodi:nodetypes="ccccccccccc"
     style="opacity:1;fill:#f04033"
     inkscape:connector-curvature="0"
     id="path28"
     d="m 1049.5454,214.04487 30.57,0.08 -0.03,90.21 c -0.1,7.7 0.19,15.41 -0.17,23.11 -1.76,25.11 -19.32,48.2 -42.99,56.73 -7.27,2.67 -15.03,4.48 -22.82,3.93 0.07,-10.07 0.15,-20.14 -0.03,-30.2 3.79,-0.96 7.78,-1.05 11.46,-2.49 10.89,-3.71 19.44,-13.14 22.51,-24.17 1.73,-5.78 0.93,-11.89 1.14,-17.83 z" />
  <path
     sodipodi:nodetypes="sssccccccccssscssscs"
     style="opacity:1;fill:#f04033"
     inkscape:connector-curvature="0"
     id="path26"
     d="m 395.94539,214.52487 c 0.56981,-2.75421 3.15125,-1.78733 3.58,-0.64 0.92908,2.48619 1.15908,5.61259 1.5,8.47 4.37946,36.70581 8.79,73.4 13.41,110.07 1.02,8.63 2.68,17.41 1,26.08 -2.39,11.35 -7.92,21.85 -14.88,31.04 -10.84,14.3 -25.21,25.61 -40.72,34.49 -29.05,16.22 -62.20999,24.77 -95.42,25.65 -14.83999,-0.3 -29.82,-1.87 -43.94,-6.71 -14.8,-5.02 -29.17,-13.31 -38.46999,-26.17 -3.94,-5.27 -6.21001,-11.5 -8.79001,-17.49 -15.71999,-36.26 -31.38428,-72.54345 -47.06999,-108.83 -0.49567,-1.14665 -1.30996,-2.8263 -0.44,-3.69 1.07758,-1.06983 3.18171,-0.56886 4.43999,0.83 l 109.48,121.71 32.03,-112.89 c 0.36969,-1.30297 0.65042,-2.54947 1.42001,-3.78 1.11477,-1.78249 3.67104,1.45833 5.12999,2.85 l 84.34001,80.45 z" />
  <g
     transform="matrix(1.6215764,0,0,1.6645001,-1365.5198,6.9001297e-5)"
     id="g4204"
     style="fill:#f04033;fill-opacity:1">
    <path
       d="m 931.14,2.35176 c 2.57,-3.56 9.22,-3.04 10.73,1.3 9.26,23.83 18.27,47.76 27.55,71.58 l -8.08,2.72 c -10.2,-23.29 -20.66,-46.47 -30.95,-69.72 -0.69,-1.91 -0.61,-4.26 0.75,-5.88 z"
       id="path6-7"
       inkscape:connector-curvature="0"
       style="opacity:1;fill:#f04033;fill-opacity:1"
       sodipodi:nodetypes="cccccc" />
    <path
       d="m 1101.15,25.42176 c 3,-0.89 6.67,-0.11 8.1,2.95 1.59,2.26 0.59,5.16 -1.17,6.98 -22.68,23.29 -45.37,46.57 -67.98,69.93 -3.03,2.11 -0.36,6.56 -3.27,8.81 -2.8,3.68 -9.19,3.29 -11.65,-0.58 -2.93,-3.48 -0.84,-9.18 3.22,-10.69 2.06,-0.57 4.71,-0.03 6,-2.18 20.31,-23.04 40.54,-46.15 60.75,-69.26 1.99,-1.96 3.44,-4.67 6,-5.96 z"
       id="path8-1"
       inkscape:connector-curvature="0"
       style="opacity:1;fill:#f04033;fill-opacity:1" />
    <path
       d="m 970.72,78.48176 c 26.22,-8.63 54.93,-12.17 81.91,-4.98 -4.14,5.55 -8.74,10.8 -13.95,15.36 -2.16,1.96 -5.55,3.31 -7.99,1.04 -3.4,-3.35 -4.14,-8.34 -6.58,-12.3 -0.15,6.77 -0.42,14.89 -6.39,19.33 -6.45,4.6 -14.88,2.54 -21.87,0.45 2.5,2.66 6.03,4.17 8.24,7.15 2.82,3.5 5.45,8.46 3.26,12.92 -2.68,5.63 -7.74,9.67 -12.6,13.37 7.6,-1.24 16,-4.23 23.31,-0.32 5.95,3.3 6.83,10.68 8.12,16.69 2.54,-5.95 3.31,-13.54 9.32,-17.24 6.17,-3.05 13.01,-0.12 19.09,1.74 -2.51,-4.93 -6.3,-11.34 -2.71,-16.61 4.85,-4.81 12.18,-5.27 17.93,-8.6 -5.03,-0.16 -10.73,1.29 -15.21,-1.57 -2.92,-2.53 -0.33,-6.27 1.56,-8.51 4.45,-4.85 9.12,-9.64 14.54,-13.39 6.03,4.69 10.17,12.14 9.78,19.9 0.28,9.2 -4.81,17.47 -10.46,24.32 -13.73,15.52 -32.76,25.15 -52.05,31.93 -22.82,7.27 -47.36,10.89 -71.14,6.65 -9.72,-2.02 -19.66,-5.06 -27.35,-11.61 -3.88,-2.98 -6.55,-7.19 -8.56,-11.58 12.27,-0.62 24.55,-1.12 36.84,-1.31 3.26,-0.56 4.9,3.49 8.13,3.46 4.29,0.55 8.42,-3.37 7.89,-7.67 -0.38,-3.54 -3.59,-6.32 -7.07,-6.5 -2.74,0.03 -4.98,1.82 -6.58,3.88 -13.52,-0.04 -27.03,-0.55 -40.53,-0.74 0.41,-10.33 6.29,-19.45 13.26,-26.69 11.21,-11.46 25.44,-19.4 40.07,-25.64 3.02,5.7 5.4,11.72 8.13,17.56 -1.22,2.55 -2.48,5.64 -0.62,8.24 2.64,5.43 11.91,4.39 13.2,-1.58 1.64,-4.48 -2.65,-7.84 -6.29,-9.39 -2.35,-5.85 -4.87,-11.69 -6.63,-17.76 z"
       id="path10-6"
       inkscape:connector-curvature="0"
       style="opacity:1;fill:#f04033;fill-opacity:1" />
    <path
       d="m 842.69,135.94176 c 1.14,-2.09 3.5,-3.65 5.95,-3.43 19.01,0.12 38.01,0.96 57.02,0.97 l 1.15,9.13 -59.12,1.79 c -4.03,0.07 -6.89,-4.98 -5,-8.46 z"
       id="path14-3"
       inkscape:connector-curvature="0"
       style="opacity:1;fill:#f04033;fill-opacity:1"
       sodipodi:nodetypes="cccccc" />
  </g>
</svg>
