<svg width="746.19" height="800" space="preserve" version="1.1" viewBox="0 0 746.19 800" xmlns="http://www.w3.org/2000/svg">
 <link href="" rel="stylesheet" type="text/css"/>
 <style type="text/css"/>
 <style type="text/css">.st0{fill:#EF4134;}</style>
 <g transform="scale(1.1435)" fill="#ef4134">
  <rect class="st0" transform="matrix(.9669 -.2553 .2553 .9669 -120.93 121.13)" x="390.55" y="438.09" width="31.25" height="176.71"/>
  <rect class="st0" transform="matrix(.9659 -.2589 .2589 .9659 -82.578 170.32)" x="589.64" y="382.54" width="31.382" height="32.276"/>
  <rect class="st0" transform="matrix(.9669 -.2553 .2553 .9669 -144.03 78.546)" x="214.95" y="526.37" width="31.25" height="135.5"/>
  <polygon class="st0" points="51.38 528.73 61.91 568.58 30.15 576.96 38.13 607.18 69.88 598.79 96.5 699.59 126.71 691.61 100.1 590.81 131.93 582.41 123.95 552.19 92.12 560.6 81.6 520.75"/>
  <path class="st0" d="m139 619.18 17.08 64.66 30.21-8-17.03-64.64c-5.2741-19.99 6.6519-40.47 26.64-45.75l-8-30.21c-36.682 9.6748-58.576 47.254-48.901 83.936 3e-4 1e-3 6e-4 2e-3 9e-4 3e-3z"/>
  <path class="st0" d="m305.05 504.31c-36.677 9.6887-58.559 47.271-48.88 83.95l27.19 103 30.22-8-9.66-36.56 36.2-9.56c36.572-10.081 58.048-47.901 47.967-84.473-9.9271-36.015-46.817-57.493-83.037-48.347zm27.09 102.6-36.14 9.56-9.56-36.19c-5.2856-19.99 6.635-40.481 26.626-45.767s40.481 6.635 45.767 26.626c5.2856 19.99-6.6351 40.481-26.626 45.767-6e-3 1e-3 -0.0111 3e-3 -0.0166 4e-3z"/>
  <path class="st0" d="m592.84 428.4 27.16 102.9c5.2791 19.987-6.6438 40.468-26.63 45.747-3e-3 9e-4 -6e-3 2e-3 -0.01 3e-3l8 30.22c36.677-9.6887 58.559-47.271 48.88-83.95l-27.17-102.9z"/>
  <path class="st0" d="m482.71 456.49c-36.572 10.081-58.048 47.901-47.967 84.474 9.9272 36.014 46.816 57.492 83.037 48.346l37.22-9.83-8-30.22-37.2 9.84c-14.713 3.8848-30.314-1.5276-39.46-13.69l99.92-26.41-3.6-13.66c-9.702-36.665-47.28-58.531-83.95-48.85zm-19 58.35c4.4439-20.189 24.413-32.952 44.601-28.508 7.6291 1.6793 14.542 5.7034 19.769 11.508z"/>
  <path class="st0" d="m244 449.07c-16.3-2.64-31.76-7.12-45.63-16.34-11.82-7.86-19.13-18.94-24.58-31.89-15.15-36-30.83-71.82-46.3-107.71-0.81-1.89-2.74-4.13-0.24-5.77s3.89 1 5.24 2.52c22.58 25.373 45.137 50.763 67.67 76.17 11.953 13.433 23.953 26.83 36 40.19 1 1.14 1.89 3.21 3.87 2.53 1.53-0.52 1.52-2.42 1.92-3.83 9.8933-35.387 19.783-70.773 29.67-106.16 1.7-6.09 3.38-6.61 7.82-2.26 25.713 25.167 51.407 50.347 77.08 75.54 0.83 0.82 1.64 1.65 2.46 2.48 2.67 2.71 4.1 2 4.82-1.58 2.6667-13.373 5.3933-26.733 8.18-40.08 7.78-37.767 15.57-75.537 23.37-113.31 0.14-0.65 0.48-1.26 0.56-1.91 0.21-1.66 0.76-2.92 2.7-2.94s2.33 1.46 2.52 3c1.25 10.07 2.55 20.13 3.78 30.2 3.2333 26.42 6.44 52.84 9.62 79.26 1.63 13.65 4.68 27.26-0.75 40.89-5.9999 14.905-15.534 28.128-27.78 38.53-29.29 25.46-64.15 37.61-102.06 42.61-12.47 1.2301-29.19 1.6001-39.94-0.1399z"/>
  <path class="st0" d="m155 0c5.34 2.12 7.71 6.47 9.63 11.63 13.62 36.76 27.377 73.473 41.27 110.14 1.27 3.38 0.93 4.84-2.66 6.12-9.07 3.24-9 3.41-12.8-5.43-14.807-34.147-29.62-68.3-44.44-102.46-4.77-11-4.47-12.4 4-20z"/>
  <path class="st0" d="m0 229c3.25-6.73 8.72-8.28 15.87-8.05 28.1 0.89 56.22 1.35 84.34 1.86 2.81 0.05 3.89 0.5 4.07 3.77 0 0.48 0.09 1 0.16 1.49 1.34 10.46 1.34 10.45-9.54 10.76-26.44 0.76-52.89 1.33-79.32 2.44-7.27 0.31-12.58-1.27-15.58-8.27z"/>
  <path class="st0" d="m296.89 131.9c-0.85 11.38-1.61 22.6-11.44 30.33s-20.9 4.26-31.88 2.86c3.28 3 6.64 5.72 9.47 9 9.14 10.58 9.34 19.52 0.6 30.33-3.63 4.49-8 8.26-12.51 12.47 5.49 0.48 10.19-1.61 15.14-1.9 20.65-1.23 27.81 4.16 31.89 24.31 0.36 1.79 0.74 3.58 1.22 5.92 2.37-5.82 3.36-11.56 5.82-16.82 5.69-12.14 13.49-15.93 26.75-12.64 4 1 7.92 2.13 12.5 3.37-2.33-5.53-4.84-10.32-5.68-15.74-1.15-7.38 1-11.86 7.75-15.57 6.28-3.42 13.27-5.18 21.06-8.73-6.2-0.7-11.21 0-16.1-1-7.94-1.62-10.54-6.45-6.21-13.23 6.37-9.94 15.53-17.28 24.35-24.89 2.13-1.84 3.29-0.2 4.57 1.07 13.26 13.14 16.82 28.7 11 46.28-5.27 16-15.92 28.37-28.43 39.13-29 24.91-63.2 39-100 47.42-18.343 4.3286-37.156 6.3442-56 6-20.95-0.49-41.49-3.36-60.53-12.91-10.78-5.4-19.95-12.66-25.72-23.57-2.75-5.2-2.39-5.83 3.28-6 18.31-0.57 36.63-1.06 54.94-1.73 2.127-0.1478 4.1931 0.7473 5.54 2.4 4.3734 4.5369 11.596 4.6695 16.134 0.2962s4.6695-11.596 0.2962-16.134c-4.3733-4.5369-11.596-4.6695-16.134-0.2962-0.0458 0.0441-0.0911 0.0886-0.1362 0.1335-2.23 2.35-4.46 2.88-7.44 2.81-18.66-0.45-37.31-0.91-56-1-4.77 0-5.57-1.86-4.84-6 2.61-14.82 10.2-27 20.2-37.77 17.74-19.19 39.68-32.18 63.35-42.6 2.59-1.14 3.8-0.68 4.88 1.93 3.38 8.15 6.93 16.23 10.54 24.27 0.6815 1.4998 0.5806 3.2391-0.27 4.65-3 6.65-0.64 13 5.67 15.82 5.741 2.4892 12.413-0.1468 14.902-5.8878 0.0405-0.0935 0.0798-0.1876 0.1178-0.2822 2.56-6-0.17-12.45-6.63-15.06-1.8949-0.5902-3.386-2.0626-4-3.95-2.88-8-5.82-15.94-9-23.81-1.21-3-0.31-4 2.51-4.94 36.74-11.82 74.08-17.53 112.6-11.12 4.74 0.78 9.38 2.07 14.07 3.14 2.16 0.5 3.36 1.19 1.44 3.58-6.67 8.31-13.3 16.67-21.62 23.44-6.26 5.09-11.46 4.11-15.58-2.86-1.2718-2.3356-2.407-4.743-3.4-7.21-1.0399-2.44-2.0199-4.88-3.0399-7.31z"/>
  <path class="st0" d="m307.78 195c-6.6218 0.2734-12.212-4.8729-12.485-11.495-2e-3 -0.0484-4e-3 -0.0969-5e-3 -0.1453-0.23-6.47 4.61-12.18 11.12-12.34 2.6267 0.0109 5.0981-1.2434 6.64-3.37 31.28-36.667 62.613-73.333 94-110 3.56-4.15 6.74-8.63 10.9-12.27 4.79-4.18 10.28-4.4 14.21-0.39 4.14 4.21 4.33 10.14 0.13 14.77-5.81 6.4-11.84 12.62-17.79 18.9-21.413 22.58-42.833 45.16-64.26 67.74-9.5 10-19.01 20-28.53 30-1.48 1.55-2.49 2.75-2.09 5.48 1 6.97-4.87 13.03-11.84 13.12z"/>
 </g>
</svg>
