<?xml version="1.0" encoding="UTF-8" standalone="no"?>
<svg
   xmlns:dc="http://purl.org/dc/elements/1.1/"
   xmlns:cc="http://creativecommons.org/ns#"
   xmlns:rdf="http://www.w3.org/1999/02/22-rdf-syntax-ns#"
   xmlns:svg="http://www.w3.org/2000/svg"
   xmlns="http://www.w3.org/2000/svg"
   xmlns:sodipodi="http://sodipodi.sourceforge.net/DTD/sodipodi-0.dtd"
   xmlns:inkscape="http://www.inkscape.org/namespaces/inkscape"
   width="477.02713pt"
   height="77.558006pt"
   viewBox="0 0 477.02713 77.558006"
   version="1.1"
   id="svg2"
   inkscape:version="0.91 r13725"
   sodipodi:docname="Vision Australia Radio - Original.svg">
  <metadata
     id="metadata60">
    <rdf:RDF>
      <cc:Work
         rdf:about="">
        <dc:format>image/svg+xml</dc:format>
        <dc:type
           rdf:resource="http://purl.org/dc/dcmitype/StillImage" />
        <dc:title></dc:title>
      </cc:Work>
    </rdf:RDF>
  </metadata>
  <defs
     id="defs58" />
  <sodipodi:namedview
     pagecolor="#ffffff"
     bordercolor="#666666"
     borderopacity="1"
     objecttolerance="10"
     gridtolerance="10"
     guidetolerance="10"
     inkscape:pageopacity="0"
     inkscape:pageshadow="2"
     inkscape:window-width="1920"
     inkscape:window-height="1017"
     id="namedview56"
     showgrid="false"
     fit-margin-top="0"
     fit-margin-left="0"
     fit-margin-right="0"
     fit-margin-bottom="0"
     inkscape:zoom="0.96"
     inkscape:cx="149.47073"
     inkscape:cy="268.19149"
     inkscape:window-x="-8"
     inkscape:window-y="-8"
     inkscape:window-maximized="1"
     inkscape:current-layer="svg2" />
  <g
     id="#fae100ff"
     transform="translate(-1.3816608,-1.3056736)" />
  <path
     style="opacity:1;fill:#00205b"
     inkscape:connector-curvature="0"
     id="path6"
     d="m 12.538339,0.61432637 c 5.8,-1.3 11.89,-0.4 17.48,1.42000003 11.25,4.05 21.11,11.3199996 29.28,19.9599996 8.58,-9.1 19.09,-16.7599996 31.11,-20.5399996 9.940001,-3.1 20.710001,-0.92000003 29.670001,3.98 15.57,8.3799996 28.57,21.7999996 36,37.8799996 2.89,7.33 5.56,15.75 2.48,23.45 -2.06,6.25 -8.38,10.52 -14.87,10.69 -8.32,0.7 -16.35,-2.43 -23.52,-6.35 -7.37,-4.04 -13.82,-9.53 -19.72,-15.48 -9.630001,9.67 -21.140001,18.29 -34.690001,21.3 -11.84,2.47 -23.56,-2.64 -33.22,-9.11 -11.35,-7.83 -21.06,-18.26 -27.3999998,-30.56 -3.72,-7.16 -6.05999995,-15.37 -4.78999995,-23.48 C 1.1983392,7.4543264 6.2783392,1.9143264 12.538339,0.61432637 M 7.3883392,11.624326 c -3.35,6.81 -0.45,14.6 2.26,21.11 6.8899998,14.22 18.4899998,26.02 32.2399998,33.71 -3.51,-14.67 4.66,-28.78 13.32,-39.97 -8.88,-9.36 -19.86,-17.4499996 -32.69,-20.1799996 -5.41,-1.09 -12.45,-0.19 -15.1299998,5.3299996 m 82.8899998,-1.23 c -2.48,3.97 -2.24,8.97 -1.4,13.4 1.83,8.31 6.32,15.84 11.570001,22.44 5.43,-6.91 9.97,-14.77 11.78,-23.45 0.87,-4.88 0.69,-10.83 -3.48,-14.2199996 -5.35,-4.09 -14.190001,-3.61 -18.470001,1.8299996 m 27.350001,0.58 c 3.59,14.57 -4.28,28.93 -13.22,39.89 9.17,9.69 20.62,18.25 34.07,20.46 5.33,0.96 12.29,-0.73 14.32,-6.34 1.84,-5.55 0.7,-11.65 -1.35,-16.98 -6.46,-15.79 -18.98,-28.82 -33.82,-37.03 m -54.260001,15.52 c 8.67,11.17 16.82,25.29 13.28,39.95 7.44,-4.01 13.99,-9.46 19.84,-15.51 -4.31,-5.05 -7.82,-10.75 -10.58,-16.78 -2.99,-7.31 -5.25,-15.51 -2.7,-23.31 -7.33,4.22 -14.12,9.4 -19.84,15.65 m -15.97,29.26 c -0.79,4.26 -0.17,9.08 2.65,12.51 4.28,3.73 10.85,4.29 15.87,1.76 4.24,-1.87 5.78,-7.05 5.71,-11.33 -0.84,-10.28 -6.19,-19.5 -12.33,-27.53 -5.62,7.22 -10.53,15.4 -11.9,24.59 z" />
  <path
     style="opacity:1;fill:#00205b"
     inkscape:connector-curvature="0"
     id="path44"
     d="m 178.64834,45.634326 c 4.3,0.11 8.66,-0.38 12.92,0.38 3.67,1.27 5.97,5.62 4.56,9.35 -0.84,2.48 -3.27,3.8 -5.41,4.99 l 9.69,12.86 -4.79,0.01 -9.84,-12.98 -3.18,0.05 0,12.91 -3.94,0.03 -0.01,-27.6 m 3.95,3.73 0,7.18 c 2.55,-0.05 5.14,0.2 7.66,-0.3 2.89,-0.67 3.14,-5.57 0.31,-6.49 -2.6,-0.65 -5.32,-0.33 -7.97,-0.39 z"
     sodipodi:nodetypes="cccccccccccccccc" />
  <path
     style="opacity:1;fill:#00205b"
     inkscape:connector-curvature="0"
     id="path46"
     d="m 242.83834,45.254326 -0.01,28.1296 -3.474,0 0,-1.1696 c -3.48,1.69 -8.546,2.1 -11.606,-0.64 -5.01,-3.82 -4.61,-12.69 0.92,-15.84 3.14,-2.42 7.656,-1.66 10.686,0.55 l 0,-11.03 m -11.036,20.7 c 0.89,3.78 5.86,5.12 8.95,3.2 l 1.91,-1.3104 0,-7.5496 c -1.64,-1.26 -3.39,-2.81 -5.64,-2.48 -3.98,-0.03 -6.52,4.61 -5.22,8.14 z"
     sodipodi:nodetypes="cccccccccccccc" />
  <path
     style="opacity:1;fill:#00205b"
     inkscape:connector-curvature="0"
     id="path48"
     d="m 249.77834,45.874326 c 2.86998,-1.859575 5.46882,3.013793 2.44,4.43 -2.8319,1.324132 -4.91236,-2.828057 -2.44,-4.43 z"
     sodipodi:nodetypes="sss" />
  <path
     style="opacity:1;fill:#00205b"
     inkscape:connector-curvature="0"
     id="path50"
     d="m 205.17834,56.274326 c 3.05,-2.78 7.9556,-2.54 11.1856,-0.21 l 0,-1.47 3.9044,0 -0.05,18.8 -3.8544,0 0,-1.28 c -3.64,2.05 -9.0556,2.13 -11.9956,-1.16 -4.22,-3.81 -3.82,-11.36 0.81,-14.68 m 2.05,3.06 c -3.27,2.63 -2.49,8.74 1.56,10.17 2.7,1.38 5.1696,-0.1304 7.3996,-1.6604 l 0,-7.7796 c -2.16,-2.51 -6.5096,-3.19 -8.9596,-0.73 z"
     sodipodi:nodetypes="cccccccccccccc" />
  <path
     style="opacity:1;fill:#00205b"
     inkscape:connector-curvature="0"
     id="path52"
     d="m 249.26834,54.614326 3.76,0 0,18.6 -3.76,0 z"
     sodipodi:nodetypes="ccccc" />
  <path
     style="opacity:1;fill:#00205b"
     inkscape:connector-curvature="0"
     id="path54"
     d="m 263.79293,54.926788 c 5.89439,-2.667853 13.08613,2.282167 13.20462,8.785858 0.10289,5.647048 -4.81881,10.285771 -10.45323,9.899136 -6.23122,-0.427587 -10.25204,-7.399761 -8.10352,-12.968169 0.97631,-2.530376 2.82167,-4.723903 5.35213,-5.716825 m 1.18491,3.369918 c -4.11431,1.929406 -4.69722,8.257051 -0.8937,10.801792 3.56126,2.382659 8.74871,-0.0058 9.12776,-4.463136 0.3774,-4.437962 -4.11218,-8.271613 -8.23406,-6.338656 z"
     sodipodi:nodetypes="cssscssss" />
  <path
     style="opacity:1;fill:#00205b"
     inkscape:connector-curvature="0"
     id="path7"
     d="m 206.29759,7.8668562 c 2.11076,-1.36113 5.31861,0.35954 5.10048,2.9405398 0.0385,2.61953 -3.36824,4.10906 -5.36994,2.54248 -1.89904,-1.24555 -1.74506,-4.4300796 0.26946,-5.4830198 z" />
  <path
     style="opacity:1;fill:#00205b"
     inkscape:connector-curvature="0"
     id="path9"
     d="m 237.07366,7.9117962 c 2.10435,-1.43817 5.38276,0.26323 5.18388,2.8763398 0.0385,2.45902 -2.98971,4.01276 -5.0299,2.76719 -2.16209,-1.05294 -2.24549,-4.4750096 -0.15398,-5.6435298 z" />
  <path
     style="opacity:1;fill:#00205b"
     inkscape:connector-curvature="0"
     id="path11"
     d="m 175.52794,8.9647364 c 1.83489,-0.006 3.66978,-0.006 5.51108,0 2.51495,6.2470596 4.99141,12.5133796 7.50636,18.7668496 2.4957,-6.25347 5.02348,-12.49411 7.51277,-18.7539996 1.8413,-0.0192 3.68261,-0.0192 5.53033,-0.0192 -3.69544,9.2068596 -7.43579,18.4008696 -11.14406,27.6077266 -1.25747,0 -2.50853,0.0064 -3.76601,0.0064 -3.7211,-9.200442 -7.43579,-18.407292 -11.15047,-27.6077416 z" />
  <path
     style="opacity:1;fill:#00205b"
     inkscape:connector-curvature="0"
     id="path13"
     d="m 205.45072,17.426826 c 1.71941,0 3.43881,0 5.15822,0 0.0128,6.38189 0.0128,12.76377 0.006,19.139227 -1.72582,0.0064 -3.44522,0.0064 -5.17104,0.0064 0,-6.381882 -0.006,-12.763762 0.006,-19.145652 z" />
  <path
     style="opacity:1;fill:#00205b"
     inkscape:connector-curvature="0"
     id="path15"
     d="m 218.87876,18.389896 c 3.41956,-2.18936 7.8913,-1.43175 11.24671,0.51363 -0.78913,1.25198 -1.59751,2.49112 -2.39306,3.74309 -1.66807,-0.82181 -3.64411,-1.75919 -5.47258,-0.86033 -0.75064,0.32744 -0.98802,0.89244 -0.71856,1.68215 2.35456,1.71425 5.65223,1.72066 7.71808,3.9036 2.25832,2.27925 1.68091,6.49103 -1.06501,8.12823 -3.96489,2.548901 -9.1616,1.43817 -12.86987,-1.046522 0.80838,-1.232718 1.64242,-2.459008 2.45721,-3.691738 1.94395,1.2263 4.33701,2.34988 6.6659,1.56658 1.09067,-0.29534 1.49486,-1.87475 0.39136,-2.44617 -2.44438,-1.50879 -5.74204,-1.64362 -7.64109,-4.00633 -1.80922,-2.36271 -0.82121,-6.02876 1.68091,-7.48619 z" />
  <path
     style="opacity:1;fill:#00205b"
     inkscape:connector-curvature="0"
     id="path17"
     d="m 236.32302,17.426826 c 1.70658,0 3.41957,0 5.13256,0.006 0,6.37546 0,12.75734 -0.006,19.132797 -1.71299,0.0064 -3.41956,0.0064 -5.12614,0 -0.006,-6.381877 -0.006,-12.757337 0,-19.139227 z" />
  <path
     style="opacity:1;fill:#00205b"
     inkscape:connector-curvature="0"
     id="path19"
     d="m 253.13855,17.516716 c 4.45249,-1.43817 9.84167,0.41733 12.07433,4.61628 2.5342,4.35945 1.11633,10.52303 -3.20785,13.181078 -4.89517,3.300088 -12.49135,1.470273 -14.92289,-4.038428 -2.62402,-5.21337 0.40419,-12.22445 6.05641,-13.75893 m 1.8798,4.4686 c -4.13171,0.89244 -5.00424,7.14591 -1.52694,9.36095 2.78441,1.99675 7.23049,0.26324 7.69883,-3.19736 0.97519,-3.56332 -2.56627,-7.29358 -6.17189,-6.16359 z" />
  <path
     style="opacity:1;fill:#00205b"
     inkscape:connector-curvature="0"
     id="path21"
     d="m 270.77528,17.426826 c 1.636,0 3.27842,0 4.92084,0 -0.006,0.35313 -0.0192,1.05937 -0.0257,1.40608 4.34342,-3.42208 11.65731,-1.66931 13.40879,3.73667 1.12274,4.56491 0.34645,9.34169 0.571,13.996477 -1.71299,0.0064 -3.42598,0.0064 -5.13256,0 -0.0385,-3.467007 0.0642,-6.934037 -0.0257,-10.401047 -0.0192,-1.37397 -0.37853,-2.91486 -1.62317,-3.69816 -2.25191,-1.39964 -5.52391,-0.39806 -6.90328,1.76562 -0.17964,4.10263 -0.006,8.22454 -0.0706,12.333587 -1.70657,0.0064 -3.41956,0.0064 -5.12613,0 -0.006,-6.375457 -0.0128,-12.757337 0.006,-19.139227 z" />
  <path
     style="opacity:1;fill:#00205b"
     inkscape:connector-curvature="0"
     id="path23"
     d="m 448.68494,7.6693962 c 2.30879,-1.05892 5.22211,1.1359102 4.61115,3.6644598 -0.37944,2.5863 -4.00662,3.54895 -5.73661,1.68142 -1.65924,-1.53381 -1.01612,-4.6142798 1.12546,-5.3458798 z" />
  <path
     style="opacity:1;fill:#00205b"
     inkscape:connector-curvature="0"
     id="path25"
     d="m 315.60457,8.9850064 c 1.24765,0 2.4953,0 3.74938,-0.006 3.97446,9.1900396 7.91035,18.3993296 11.85909,27.6022116 -1.87147,0 -3.73652,0 -5.60156,0 -0.87464,-2.027972 -1.74285,-4.055942 -2.60462,-6.090322 -3.67221,-0.0129 -7.35084,0.006 -11.02304,-0.0129 -0.88751,2.0344 -1.75571,4.0752 -2.63679,6.10959 -1.86504,-0.0064 -3.72365,-0.0064 -5.58869,-0.01283 3.94231,-9.196467 7.88462,-18.392917 11.84623,-27.5893766 m -1.60136,16.7179196 c 2.30236,0.0129 4.61115,0.0129 6.91994,0 -1.14475,-2.67616 -2.30236,-5.35231 -3.45354,-8.02846 -1.17047,2.66973 -2.32165,5.3523 -3.4664,8.02846 z" />
  <path
     style="opacity:1;fill:#00205b"
     inkscape:connector-curvature="0"
     id="path27"
     d="m 436.34994,8.6256162 c 1.72355,0 3.45354,0 5.18353,0 0,9.3183898 0.006,18.6367798 0,27.9551828 -1.72999,0 -3.45998,0 -5.18353,0 0,-9.318403 0,-18.636793 0,-27.9551828 z" />
  <path
     style="opacity:1;fill:#00205b"
     inkscape:connector-curvature="0"
     id="path29"
     d="m 379.83275,12.155306 c 1.71712,0 3.42781,0 5.13851,0 0.0129,1.76485 0,3.5297 0.0193,5.29454 2.09656,0 4.19956,0 6.30255,0 0,1.45681 -0.006,2.91361 0,4.37041 -2.10299,0 -4.20599,0 -6.30898,0 0.13505,3.01629 -0.33442,6.10958 0.2894,9.08094 0.89394,1.93171 3.35065,1.39905 5.05491,1.39905 0.25725,1.45037 0.52092,2.900763 0.77174,4.357565 -3.62718,0.667432 -8.36053,0.436398 -10.34133,-3.202395 -1.6078,-3.64522 -0.67528,-7.77175 -0.92609,-11.62875 -1.78144,-0.006 -3.56288,0 -5.34431,-0.0129 0,-1.4568 0,-2.90718 0,-4.35757 1.7943,0.006 3.58216,0 5.37646,-0.0578 -0.0322,-1.75201 -0.0386,-3.4976 -0.0322,-5.2432 z" />
  <path
     style="opacity:1;fill:#00205b"
     inkscape:connector-curvature="0"
     id="path31"
     d="m 334.10064,17.443436 c 1.71712,0.006 3.44068,0.006 5.16423,0.006 0.0836,3.74789 -0.0965,7.49579 0.0772,11.24368 0,1.71992 1.35055,3.29224 3.08696,3.4591 2.01296,0.35939 3.77511,-0.91131 5.11279,-2.24617 -0.0514,-4.1522 -0.0129,-8.30441 -0.0193,-12.45661 1.71069,0 3.42781,0 5.14494,0 0,6.37912 0,12.75182 -0.006,19.130944 -1.63995,0 -3.2799,0 -4.91985,0.0064 0,-0.346553 -0.006,-1.039656 -0.006,-1.392626 -4.2896,3.523277 -11.60185,1.450384 -13.11318,-3.953265 -1.04828,-4.50516 -0.31512,-9.20929 -0.52092,-13.79789 z" />
  <path
     style="opacity:1;fill:#00205b"
     inkscape:connector-curvature="0"
     id="path33"
     d="m 359.96684,18.540846 c 3.43425,-2.35527 8.05826,-1.6044 11.48608,0.38506 -0.8039,1.2386 -1.60779,2.47721 -2.40526,3.72223 -2.02582,-1.15518 -5.09349,-2.06648 -6.65627,0.27595 2.12229,2.31035 5.73018,2.06005 7.9618,4.23563 2.40526,2.13708 2.07084,6.42405 -0.62383,8.188898 -3.94874,2.746745 -9.36379,1.668584 -13.12603,-0.911305 0.82319,-1.219343 1.65281,-2.432283 2.48244,-3.651633 1.90362,1.20652 4.21242,2.25259 6.50835,1.61725 1.04828,-0.22463 1.76214,-1.73918 0.68813,-2.39378 -2.38596,-1.61724 -5.69159,-1.68783 -7.66596,-3.95967 -1.91649,-2.259 -1.08044,-5.96198 1.35055,-7.50863 z" />
  <path
     style="opacity:1;fill:#00205b"
     inkscape:connector-curvature="0"
     id="path35"
     d="m 401.51868,19.144106 c 2.01939,-1.75843 4.69476,-2.32318 7.31225,-2.02155 -0.19294,1.59798 -0.38587,3.18956 -0.57881,4.78113 -2.48243,-0.46207 -4.93914,0.45565 -6.50835,2.41944 -0.006,4.08161 0,8.16964 -0.006,12.257673 -1.72999,0 -3.45354,0 -5.1771,0 -0.006,-6.379123 -0.006,-12.751833 -0.006,-19.130953 1.66567,0 3.32492,0 4.99059,0 -0.006,0.42357 -0.0193,1.27069 -0.0257,1.69426 z" />
  <path
     style="opacity:1;fill:#00205b"
     inkscape:connector-curvature="0"
     id="path37"
     d="m 414.74118,18.688456 c 3.177,-2.29751 7.64019,-2.04081 10.81076,0.14761 l 0,-1.39263 c 1.63995,0.006 3.27995,0.006 4.92633,0.006 0.0129,6.3727 0,12.75182 0.006,19.130944 -1.64638,0 -3.29238,0 -4.93233,0.0064 l 0,-1.392626 c -3.82655,2.894351 -9.7046,2.072894 -12.69509,-1.623665 -3.66578,-4.31906 -2.85545,-11.66724 1.88433,-14.88247 m 3.6722,3.66446 c -3.37637,1.69425 -3.60789,7.16849 -0.34085,9.1002 2.40526,1.52739 5.53724,0.55191 7.29296,-1.50172 l 5e-5,-5.8593 c -1.70427,-1.88679 -4.55333,-2.9842 -6.95216,-1.73918 z"
     sodipodi:nodetypes="cccccccccccccc" />
  <path
     style="opacity:1;fill:#00205b"
     inkscape:connector-curvature="0"
     id="path39"
     d="m 460.83986,19.144106 c 3.15771,-2.70823 8.06476,-2.70182 11.38968,-0.28238 l 0,-1.43112 c 1.5692,0.0192 3.22195,0.0192 4.79759,0.0256 -0.006,6.37912 0.006,12.75182 -0.006,19.124533 l -4.79159,0 0,-1.424713 c -3.65291,2.798085 -9.17046,2.207663 -12.27029,-1.13593 -3.91015,-4.0431 -3.53071,-11.33994 0.88107,-14.87605 m 4.48897,3.10613 c -3.65934,1.57873 -3.90373,7.50862 -0.33442,9.33123 2.39239,1.35411 5.35717,0.34014 7.07429,-1.61082 l 0.006,-5.86572 c -1.65281,-1.83543 -4.36677,-2.93927 -6.7463,-1.85469 z"
     sodipodi:nodetypes="ccccccccccccccc" />
  <path
     style="opacity:1;fill:#00205b"
     inkscape:connector-curvature="0"
     id="path41"
     d="m 447.3987,17.449846 c 1.71713,0 3.42782,0 5.14495,0 0.006,6.37912 0.006,12.75183 0,19.130953 -1.71713,0 -3.42782,0 -5.13852,0 -0.006,-6.379123 0,-12.751833 -0.006,-19.130953 z" />
</svg>
