<?xml version="1.0" encoding="UTF-8" standalone="no"?>
<svg
   xmlns:dc="http://purl.org/dc/elements/1.1/"
   xmlns:cc="http://creativecommons.org/ns#"
   xmlns:rdf="http://www.w3.org/1999/02/22-rdf-syntax-ns#"
   xmlns:svg="http://www.w3.org/2000/svg"
   xmlns="http://www.w3.org/2000/svg"
   xmlns:sodipodi="http://sodipodi.sourceforge.net/DTD/sodipodi-0.dtd"
   xmlns:inkscape="http://www.inkscape.org/namespaces/inkscape"
   width="1255.3126pt"
   height="384.84763pt"
   viewBox="0 0 1255.3126 384.84763"
   version="1.1"
   id="svg2"
   inkscape:version="0.91 r13725"
   sodipodi:docname="Vision Christian Radio.svg">
  <metadata
     id="metadata50">
    <rdf:RDF>
      <cc:Work
         rdf:about="">
        <dc:format>image/svg+xml</dc:format>
        <dc:type
           rdf:resource="http://purl.org/dc/dcmitype/StillImage" />
        <dc:title></dc:title>
      </cc:Work>
    </rdf:RDF>
  </metadata>
  <defs
     id="defs48" />
  <sodipodi:namedview
     pagecolor="#ffffff"
     bordercolor="#666666"
     borderopacity="1"
     objecttolerance="10"
     gridtolerance="10"
     guidetolerance="10"
     inkscape:pageopacity="0"
     inkscape:pageshadow="2"
     inkscape:window-width="690"
     inkscape:window-height="480"
     id="namedview46"
     showgrid="false"
     fit-margin-top="0"
     fit-margin-left="0"
     fit-margin-right="0"
     fit-margin-bottom="0"
     inkscape:zoom="0.16259704"
     inkscape:cx="791.275"
     inkscape:cy="237.1931"
     inkscape:window-x="0"
     inkscape:window-y="0"
     inkscape:window-maximized="0"
     inkscape:current-layer="svg2" />
  <g
     id="#faa61aff"
     transform="translate(-75.48,-76.406843)" />
  <g
     id="#faa61a"
     transform="translate(-75.48,-76.406843)">
    <path
       d="m 532.6,82.4 c 20.86,-6.17 43.02,-6.48 64.49,-3.98 27.99,3.3 55.45,13.37 77.83,30.69 1.07,1.04 4.06,2.14 2.02,3.81 -13.07,17.31 -26.14,34.62 -39.21,51.92 -17.63,-13.21 -38.9,-21.34 -60.74,-23.88 -6.69,-0.67 -13.5,-1.21 -20.17,-0.05 -3.4,0.64 -6.99,1.89 -9.07,4.83 -2.21,3.1 -2.29,8.1 1.1,10.42 5,3.73 11.29,4.93 17.21,6.45 22.39,4.8 45.34,7.88 66.79,16.28 14.87,5.77 29.26,14.31 38.82,27.37 8.67,11.63 12.34,26.38 12.11,40.75 0.11,17.73 -4.73,35.86 -15.64,50.05 -10.18,13.49 -25.11,22.75 -40.96,28.16 -20.27,6.88 -41.99,8.33 -63.24,7.19 -18.85,-0.95 -37.7,-4.17 -55.42,-10.75 -17.25,-6.34 -33.31,-15.97 -46.9,-28.35 13.01,-18.64 26.11,-37.22 39.11,-55.87 23.02,21.98 55.43,34.22 87.27,31.6 5.96,-0.69 12.33,-1.95 16.94,-6.08 2.86,-2.67 4.22,-7.89 1.08,-10.86 -4.68,-4.24 -11.23,-5.19 -17.12,-6.71 -21,-4.22 -42.47,-6.72 -62.79,-13.82 -15.53,-5.39 -30.79,-13.45 -41.31,-26.41 -10.41,-12.53 -15.02,-29.1 -14.82,-45.2 -0.51,-17.43 5.74,-34.83 16.76,-48.27 C 498.36,97.3 514.99,87.58 532.6,82.4 Z"
       id="path6"
       inkscape:connector-curvature="0"
       style="opacity:1;fill:#faa61a" />
    <path
       d="m 916.53,77.81 c 35.79,-4.67 73.85,2.16 103.86,22.85 24.59,16.64 42.58,42.67 49.36,71.59 8.07,33.93 3.44,71.45 -15.47,101.09 -15.03,23.88 -38.81,41.7 -65.38,50.83 -22.58,7.91 -47.01,10 -70.71,7.2 -30.42,-3.59 -60.17,-16.76 -81.5,-39.04 -14.56,-14.84 -24.83,-33.69 -30.04,-53.78 -9.19,-36.5 -3.58,-77.44 18.65,-108.29 20.98,-29.66 55.52,-48 91.23,-52.45 m -19.1,59.84 c -10.64,3.1 -15.01,15.24 -14.45,25.38 0.04,28.3 0.02,56.61 0.01,84.92 -0.02,6.46 1.73,13.13 5.88,18.19 4.08,4.85 10.82,7.12 17.04,6.12 5.55,-0.68 10.65,-3.18 15.38,-6.04 23.66,-13.69 47.34,-27.32 71,-41 5.68,-3.34 10.93,-8.06 13.3,-14.36 1.88,-4.69 1.42,-10.12 -0.94,-14.56 -3.51,-6.66 -9.93,-11.09 -16.42,-14.53 -23.05,-13.3 -46.1,-26.61 -69.15,-39.91 -6.45,-3.75 -14.22,-6.23 -21.65,-4.21 z"
       id="path8"
       inkscape:connector-curvature="0"
       style="opacity:1;fill:#faa61a" />
    <path
       d="m 75.48,80.76 c 28.44,0.01 56.88,-0.05 85.32,0.02 14.3,44.76 28.7,89.48 43.04,134.23 3.55,10.38 6.33,21.06 10.35,31.25 17.77,-55.15 35.4,-110.34 53.13,-165.5 28.42,-0.02 56.84,-0.02 85.26,0.01 -30.43,82.5 -60.83,165.02 -91.34,247.49 -31.47,-0.03 -62.93,-0.01 -94.4,-0.01 -30.53,-82.47 -60.88,-165 -91.36,-247.49 z"
       id="path10"
       inkscape:connector-curvature="0"
       style="opacity:1;fill:#faa61a" />
    <path
       d="m 365.76,80.76 c 24.99,-0.02 49.99,-0.01 74.99,0 0.01,82.49 -0.01,164.98 0.01,247.47 -25,0.03 -50,0.02 -75,0.01 -0.01,-82.49 -0.01,-164.99 0,-247.48 z"
       id="path12"
       inkscape:connector-curvature="0"
       style="opacity:1;fill:#faa61a" />
    <path
       d="m 708.01,80.75 c 25.07,0 50.15,-0.01 75.23,0.01 0.01,82.49 0.01,164.99 0,247.48 -25.08,0.02 -50.16,0.01 -75.23,0.01 -0.01,-82.5 -0.01,-165 0,-247.5 z"
       id="path14"
       inkscape:connector-curvature="0"
       style="opacity:1;fill:#faa61a" />
    <path
       d="m 1092.25,80.76 c 25.84,-0.03 51.67,0.02 77.5,-0.03 28.63,38.84 57.07,77.83 85.75,116.63 0,-38.87 -0.01,-77.74 0,-116.61 25.09,0 50.17,-0.01 75.25,0.01 0,82.49 0,164.99 0,247.49 -24.13,-0.06 -48.26,0.12 -72.39,-0.09 -30.17,-41.73 -60.66,-83.24 -90.84,-124.96 -0.04,41.68 0,83.36 -0.02,125.04 -25.09,0.01 -50.17,0.01 -75.25,0 0,-82.49 0,-164.99 0,-247.48 z"
       id="path16"
       inkscape:connector-curvature="0"
       style="opacity:1;fill:#faa61a" />
    <path
       d="m 116.16,374.18 c 9.77,-9.97 24,-14.98 37.85,-14.18 13.14,0.17 25.53,7.07 33.58,17.3 -2.43,1.59 -4.87,3.17 -7.32,4.75 -4.34,-5.63 -10.21,-10.1 -16.99,-12.34 -13.26,-4.52 -28.78,-0.95 -38.98,8.59 -17.31,16.12 -17.68,46.68 -1.03,63.4 11.48,11.89 31.1,15.31 45.65,7.2 4.46,-2.36 8.24,-5.82 11.34,-9.79 2.5,1.47 4.98,2.99 7.44,4.55 -6.2,7.46 -14.27,13.66 -23.81,16.04 -16.47,4.24 -35.15,-0.3 -47.33,-12.32 -19.3,-19.1 -19.51,-53.91 -0.4,-73.2 z"
       id="path18"
       inkscape:connector-curvature="0"
       style="opacity:1;fill:#faa61a" />
    <path
       d="m 430.82,369.77 c 6.82,-7.4 17.37,-10.16 27.16,-9.8 11.93,-0.02 24.2,4.54 32.03,13.8 -1.91,2.1 -3.79,4.22 -5.66,6.35 -4.72,-5.05 -10.49,-9.32 -17.32,-10.93 -8.76,-2.36 -18.94,-2.18 -26.54,3.28 -5.44,3.74 -8.49,11.06 -6.33,17.44 1.59,4.62 5.97,7.5 10.25,9.39 12.67,5.37 27.26,6.38 38.61,14.71 12.19,8.96 11.83,29.06 0.8,38.81 -7.71,7.04 -18.76,8.68 -28.83,8.39 -12.72,-0.41 -25.56,-5.68 -33.74,-15.64 1.87,-2.19 3.75,-4.37 5.65,-6.53 6.91,7.79 16.58,13.37 27.09,14.13 7.81,0.51 16.41,-0.33 22.68,-5.5 6.41,-5.19 8.43,-15.24 3.97,-22.29 -3.87,-5.68 -10.62,-8.2 -16.87,-10.27 -10.73,-3.54 -22.58,-5.12 -31.74,-12.23 -10.06,-7.8 -9.87,-24.34 -1.21,-33.11 z"
       id="path20"
       inkscape:connector-curvature="0"
       style="opacity:1;fill:#faa61a" />
    <path
       d="m 1266.59,360.76 c 17.46,-2.88 36.75,1.35 49.6,14.01 16.62,15.79 19.09,43.38 7.22,62.64 -7.93,13.04 -22.37,21.27 -37.34,23.19 -17.77,2.6 -37.3,-2.54 -49.71,-15.98 -15.02,-16.08 -16.92,-42.23 -5.54,-60.83 7.66,-12.58 21.36,-20.76 35.77,-23.03 m 5.85,25.91 c -8.11,1.35 -14.96,7.66 -17.3,15.49 -3.39,10.12 -0.27,22.77 8.85,28.85 8.84,6.01 21.89,5 29.5,-2.6 9.5,-9.6 9.36,-27.13 -0.71,-36.28 -5.29,-5.12 -13.24,-6.79 -20.34,-5.46 z"
       id="path22"
       inkscape:connector-curvature="0"
       style="opacity:1;fill:#faa61a" />
    <path
       d="m 504.5,361.51 c 24.16,-0.04 48.32,0 72.48,-0.02 0.02,2.67 0.02,5.34 0.01,8.01 -10.57,-0.01 -21.15,0.01 -31.72,-0.01 -0.05,30 0,60 -0.03,90.01 -2.91,0 -5.83,0 -8.73,-0.01 -0.03,-29.99 0,-59.99 -0.02,-89.98 -10.66,-0.02 -21.33,0.01 -31.99,-0.02 -0.01,-2.66 -0.01,-5.32 0,-7.98 z"
       id="path24"
       inkscape:connector-curvature="0"
       style="opacity:1;fill:#faa61a" />
    <path
       d="m 1075.51,361.5 c 14.83,-0.01 29.67,0 44.5,0 13,0.09 26.45,3.42 36.69,11.73 9.4,7.4 15.02,18.95 16.11,30.77 1.54,13.88 -1.72,28.96 -11.52,39.33 -10.12,11.18 -25.55,15.89 -40.27,16.15 -15.17,0.05 -30.34,0.02 -45.51,0.02 -0.02,-32.67 -0.02,-65.33 0,-98 m 30,26.01 c -0.01,15.33 -0.01,30.65 0,45.98 9.07,-0.33 19.12,1.55 27.17,-3.77 13.03,-8.02 13.78,-29.85 1.02,-38.44 -8.39,-5.4 -18.79,-3.39 -28.19,-3.77 z"
       id="path26"
       inkscape:connector-curvature="0"
       style="opacity:1;fill:#faa61a" />
    <path
       d="m 1183.5,361.51 c 9.92,-0.01 19.83,-0.03 29.75,0.01 -0.01,32.65 0,65.31 0,97.97 -9.92,0.02 -19.83,0.01 -29.75,0 -0.01,-32.66 -0.01,-65.32 0,-97.98 z"
       id="path28"
       inkscape:connector-curvature="0"
       style="opacity:1;fill:#faa61a" />
    <path
       d="m 204,361.5 c 2.91,0 5.82,-0.01 8.73,-0.01 0.05,14.58 0,29.17 0.03,43.75 20.49,0.01 40.99,0.01 61.48,0 0.01,-14.57 0.02,-29.14 -0.01,-43.71 2.92,-0.04 5.85,-0.05 8.77,-0.03 0,32.67 0,65.33 0,98 -2.92,0.01 -5.84,0 -8.76,-0.01 0.01,-15.5 0.01,-30.99 0.01,-46.48 -20.5,-0.02 -41,-0.01 -61.49,0 0.05,15.45 -0.14,30.9 0.1,46.35 -2.95,0.18 -5.91,0.18 -8.86,0.13 0,-32.67 0,-65.33 0,-97.99 z"
       id="path30"
       inkscape:connector-curvature="0"
       style="opacity:1;fill:#faa61a" />
    <path
       d="m 307,361.5 c 12.31,-0.01 24.63,0 36.94,-0.01 8.23,0.03 16.8,2.85 22.46,9.04 8.07,8.74 9.06,22.5 4.3,33.1 -4.26,9.18 -14.19,14.37 -24.01,14.95 9.38,13.65 18.81,27.27 28.22,40.91 -3.58,0.02 -7.16,0.07 -10.73,-0.08 -8.94,-13.57 -18.16,-26.97 -27.3,-40.41 -7.04,0 -14.08,-0.01 -21.13,0.01 -0.02,13.5 0.03,27 -0.02,40.5 -2.91,-0.01 -5.82,-0.01 -8.73,-0.01 0,-32.67 0,-65.33 0,-98 m 8.76,8.01 c -0.01,13.91 -0.02,27.82 0,41.73 8.41,0.02 16.82,-0.01 25.23,0.02 4.84,0.04 9.85,-0.68 14.02,-3.3 9.82,-5.69 12.21,-19.94 6.31,-29.26 -3.58,-5.9 -10.56,-9.18 -17.34,-9.21 -9.41,0.02 -18.82,0 -28.22,0.02 z"
       id="path32"
       inkscape:connector-curvature="0"
       style="opacity:1;fill:#faa61a" />
    <path
       d="m 394,361.5 c 2.92,-0.02 5.84,-0.01 8.77,0.04 0,32.62 -0.1,65.24 0.05,97.86 -2.94,0.12 -5.88,0.14 -8.82,0.09 0,-32.66 0,-65.32 0,-97.99 z"
       id="path34"
       inkscape:connector-curvature="0"
       style="opacity:1;fill:#faa61a" />
    <path
       d="m 594.2,361.57 c 2.85,-0.08 5.7,-0.11 8.55,-0.06 -0.06,32.69 0.13,65.37 -0.1,98.05 -2.82,-0.03 -5.63,-0.08 -8.44,-0.13 0.07,-32.62 0.07,-65.24 -0.01,-97.86 z"
       id="path36"
       inkscape:connector-curvature="0"
       style="opacity:1;fill:#faa61a" />
    <path
       d="m 616.75,459.49 c 13.34,-32.68 26.73,-65.33 40.1,-97.99 3.54,0 7.07,-0.01 10.61,-0.01 13.39,32.66 26.8,65.32 40.13,98 -3.33,0.01 -6.65,0.01 -9.96,0.01 -3.34,-7.95 -6.44,-16.01 -9.68,-24 -17.22,0.04 -34.44,-0.08 -51.65,0.07 -3.03,8.03 -6.4,15.94 -9.56,23.93 -3.33,0.01 -6.66,0 -9.99,-0.01 m 22.62,-32.01 c 15.21,0.03 30.42,0.02 45.64,0 -7.62,-18.8 -15.21,-37.62 -22.74,-56.46 -7.69,18.8 -15.28,37.63 -22.9,56.46 z"
       id="path38"
       inkscape:connector-curvature="0"
       style="opacity:1;fill:#faa61a" />
    <path
       d="m 721.76,361.51 c 2.86,-0.01 5.73,-0.02 8.61,-0.03 20.26,27.44 40.57,54.85 60.87,82.26 0.04,-27.42 -0.03,-54.83 0.03,-82.25 2.9,0 5.81,0.01 8.73,0.01 0,32.67 0,65.33 0,98 -2.78,-0.02 -5.55,0 -8.31,0.06 -20.61,-27.78 -40.95,-55.76 -61.42,-83.64 -0.05,27.86 -0.01,55.72 -0.02,83.58 -2.84,0 -5.67,0 -8.5,0 0,-32.67 0,-65.33 0.01,-97.99 z"
       id="path40"
       inkscape:connector-curvature="0"
       style="opacity:1;fill:#faa61a" />
    <path
       d="m 863.5,459.49 c 0,-32.66 -0.02,-65.33 0.01,-97.99 17.17,-0.02 34.33,0.02 51.5,-0.02 9.2,-0.13 18.87,2.3 25.76,8.69 10.53,9.48 12.78,25.8 7.83,38.65 -2.77,6.98 -8.29,12.6 -14.89,16.06 5.75,11.6 11.81,23.06 17.66,34.61 -11.36,0 -22.72,0.05 -34.08,-0.03 -4.5,-10.24 -8.95,-20.51 -13.49,-30.73 -3.52,0.02 -7.04,0.02 -10.55,0.03 -0.01,10.24 0,20.48 0,30.73 -9.92,0.03 -19.83,0.01 -29.75,0 m 29.75,-71.98 c 0,5.08 -0.01,10.16 0,15.24 5.58,-0.01 11.17,0.02 16.76,0.01 3.11,-0.09 6.66,-0.44 8.91,-2.86 2.51,-2.58 2.54,-7.2 -0.08,-9.71 -2.09,-2.03 -5.1,-2.64 -7.91,-2.68 -5.89,-0.05 -11.79,0.01 -17.68,0 z"
       id="path42"
       inkscape:connector-curvature="0"
       style="opacity:1;fill:#faa61a" />
    <path
       d="m 994.17,361.52 c 12.49,-0.05 24.99,-0.02 37.48,-0.01 12.03,32.67 24.08,65.34 36.15,98 -11.29,-0.02 -22.59,0 -33.89,-0.01 -1.19,-3.84 -2.39,-7.67 -3.57,-11.5 -11.65,0.03 -23.29,-0.07 -34.93,0.05 -1.14,3.84 -2.29,7.68 -3.56,11.48 -11.26,-0.1 -22.53,0.05 -33.79,-0.08 12.01,-32.65 24.1,-65.28 36.11,-97.93 m 18.65,30.15 c -3.25,10.06 -6.24,20.21 -9.36,30.31 6.29,0.03 12.58,0.02 18.88,0.01 -3.17,-10.11 -5.94,-20.36 -9.52,-30.32 z"
       id="path44"
       inkscape:connector-curvature="0"
       style="opacity:1;fill:#faa61a" />
  </g>
</svg>
