<svg enable-background="new 0 0 970.7 360" version="1.1" viewBox="0 0 970.7 360" xmlns="http://www.w3.org/2000/svg">
 <radialGradient id="a" cx="92.703" cy="670.28" r="31.771" gradientTransform="matrix(-.3674 3.4817 2.1597 .2279 -1317.6 -290.79)" gradientUnits="userSpaceOnUse">
  <stop offset="0"/>
  <stop stop-color="#808080" offset=".8834"/>
  <stop stop-color="#fff" offset="1"/>
 </radialGradient>
 <path d="m402.7 98.5v162.7h100.3c3.2 0 5.6-1.1 7.2-2.9l20.7-20.6c2.8-2.7 4.5-5.3 4.5-8.4v-28.5c0-2.5-1.5-4.4-3.2-6.5l-14.2-14.2 13-13c3.1-3 4.6-5.9 4.5-8.6v-25.1c0-5.1-1-7.3-3.3-9.8l-19.4-19.3c-3.8-3.3-6.4-6-11.7-6l-98.4 0.2zm28.5 29.1h59.6c4.1 0 5.5 1.4 7.4 3.4l5.5 5.5c1.5 1.5 2.6 3.3 2.6 4.9v7c0 1.9-0.8 3.2-1.9 4.6l-9.7 9.6c-1.7 1.6-3 3.3-6.5 3.3h-57v-38.3zm0 66.7h57c3.5 0 4.8 1.7 6.5 3.3l9.7 9.6c1.2 1.4 1.9 2.7 1.9 4.6v7c0 1.6-1.1 3.4-2.6 4.9l-5.5 5.5c-1.9 2-3.3 3.4-7.4 3.4h-59.6v-38.3z" fill="#e5113a"/>
 <path d="m591.8 98.5c-5.3 0-7.9 2.6-11.7 6l-19.4 19.3c-2.2 2.4-3.3 4.6-3.3 9.8v95.9c0 3.1 1.8 5.7 4.5 8.4l20.7 20.6c1.6 1.8 4 2.9 7.2 2.9h67.8c3.2 0 5.6-1.1 7.2-2.9l20.7-20.6c2.8-2.7 4.5-5.3 4.5-8.4v-95.9c0-5.1-1-7.3-3.3-9.8l-19.4-19.3c-3.8-3.3-6.4-6-11.7-6h-63.8zm9.8 29.1h44.7c4.1 0 5.5 1.4 7.4 3.4l5.5 5.5c1.5 1.5 2.6 3.3 2.6 4.9v77.6c0 1.6-1.1 3.4-2.6 4.9l-5.5 5.5c-1.9 2-3.3 3.4-7.4 3.4h-44.7c-4.1 0-5.5-1.4-7.4-3.4l-5.5-5.5c-1.5-1.5-2.6-3.3-2.6-4.9v-77.6c0-1.6 1.1-3.4 2.6-4.9l5.5-5.5c1.8-1.9 3.2-3.4 7.4-3.4z" fill="#e5113a"/>
 <g transform="matrix(1.0112 0 0 1.0112 -7.201 -110.14)">
  <path d="m363.2 287c0 98.3-79.7 178-178 178s-178-79.7-178-178 79.7-178 178-178 178 79.6 178 178z" fill="#e5113a"/>
  <path d="m222.4 203c-34.9 0-61.7 21-73.4 44.1l-33 2.9-19.7 49.2v68.8h52.7v-40.7c9.8 19.7 35.4 44.2 73.2 44.2 48.4 0 83.9-39.3 83.9-83.3 0-52.6-41.9-85.2-83.7-85.2zm0.2 52.6c16.8 0 31 13.9 31 31.4 0 16.1-12.6 31.6-31 31.6-18.3 0-31.5-15-31.5-31.5 0.1-15.6 12.1-31.5 31.5-31.5z" fill="#fff"/>
  <path d="m96.3 282.9v16.3l52.8-14.7-0.1-78.3-52.7 76.7z" fill="url(#a)"/>
  <path d="m65.2 290.8v-52.8c11.9 0 31.1-8.8 31.1-31.8h52.7c-0.1 47.7-37.7 84.6-83.8 84.6z" fill="#fff"/>
 </g>
 <g fill="#e5113a">
  <path d="m967.5 123.7-19.4-19.3c-3.8-3.3-6.4-6-11.7-6h-98.5v162.7h100.3c3.2 0 5.6-1.1 7.2-2.9l20.7-20.6c2.8-2.7 4.5-5.3 4.5-8.4v-95.9c0.1-5-0.9-7.2-3.1-9.6zm-25.9 95.3c0 1.6-1.1 3.4-2.6 4.9l-5.5 5.5c-1.9 2-3.3 3.4-7.4 3.4h-59.6v-105.2h59.5c4.1 0 5.5 1.4 7.4 3.4l5.5 5.5c1.5 1.5 2.6 3.3 2.6 4.9l0.1 77.6z"/>
  <path d="m741.1 98.5h-28.8v162.7h103.8v-28.5h-75.3l0.3-134.2z"/>
 </g>
</svg>
