<svg width="800" height="255" version="1.1" viewBox="0 0 211.67 67.469" xmlns="http://www.w3.org/2000/svg">
 <defs>
  <mask id="mask_1_" x="63.7" y="70" width="37.4" height="62.7" maskUnits="userSpaceOnUse">
   <radialGradient id="rect29_2_" cx="-280.27" cy="-110.05" r="1" gradientTransform="matrix(162.77,0,0,162.77,45720,18081)" gradientUnits="userSpaceOnUse">
    <stop stop-color="#fff" offset="0"/>
    <stop stop-color="#fff" offset=".6"/>
    <stop stop-color="#FDFDFD" offset=".7"/>
    <stop stop-color="#F4F4F4" offset=".75"/>
    <stop stop-color="#E7E7E7" offset=".8"/>
    <stop stop-color="#D3D3D3" offset=".83"/>
    <stop stop-color="#B9B9B9" offset=".87"/>
    <stop stop-color="#9A9A9A" offset=".9"/>
    <stop stop-color="#747474" offset=".93"/>
    <stop stop-color="#494949" offset=".96"/>
    <stop stop-color="#191919" offset=".99"/>
    <stop offset="1"/>
   </radialGradient>
   <rect x="155.7" y="171.3" width="91.6" height="153.3" fill="url(#rect29_2_)" filter="url(#Adobe_OpacityMaskFilter)"/>
  </mask>
  <filter id="Adobe_OpacityMaskFilter" x="63.7" y="70" width="37.4" height="62.7" filterUnits="userSpaceOnUse">
   <feColorMatrix values="1 0 0 0 0  0 1 0 0 0  0 0 1 0 0  0 0 0 1 0"/>
  </filter>
  <radialGradient id="rect73_1_" cx="-679.4" cy="-263.61" r="1" gradientTransform="matrix(66.546,0,0,66.546,45312,17711)" gradientUnits="userSpaceOnUse">
   <stop offset="0"/>
   <stop offset=".6"/>
   <stop stop-color="#020202" offset=".7"/>
   <stop stop-color="#0B0B0B" offset=".75"/>
   <stop stop-color="#181818" offset=".8"/>
   <stop stop-color="#2C2C2C" offset=".83"/>
   <stop stop-color="#464646" offset=".87"/>
   <stop stop-color="#656565" offset=".9"/>
   <stop stop-color="#8B8B8B" offset=".93"/>
   <stop stop-color="#B6B6B6" offset=".96"/>
   <stop stop-color="#E6E6E6" offset=".99"/>
   <stop stop-color="#fff" offset="1"/>
  </radialGradient>
  <radialGradient id="a-2" cx="92.703" cy="670.28" r="31.771" gradientTransform="matrix(-.3674 3.4817 2.1597 .2279 -1317.6 -290.79)" gradientUnits="userSpaceOnUse">
   <stop offset="0"/>
   <stop stop-color="#808080" offset=".8834"/>
   <stop stop-color="#fff" offset="1"/>
  </radialGradient>
 </defs>
 <g transform="translate(2.2e-7 -115.1)">
  <g transform="matrix(.18952 0 0 .18952 -1.3645 94.442)">
   <path d="m363.2 287c0 98.3-79.7 178-178 178s-178-79.7-178-178 79.7-178 178-178 178 79.6 178 178z" fill="#ff5a00"/>
   <path d="m222.4 203c-34.9 0-61.7 21-73.4 44.1l-33 2.9-19.7 49.2v68.8h52.7v-40.7c9.8 19.7 35.4 44.2 73.2 44.2 48.4 0 83.9-39.3 83.9-83.3 0-52.6-41.9-85.2-83.7-85.2zm0.2 52.6c16.8 0 31 13.9 31 31.4 0 16.1-12.6 31.6-31 31.6-18.3 0-31.5-15-31.5-31.5 0.1-15.6 12.1-31.5 31.5-31.5z" fill="#fff"/>
   <path d="m96.3 282.9v16.3l52.8-14.7-0.1-78.3z" fill="url(#a-2)"/>
   <path d="m65.2 290.8v-52.8c11.9 0 31.1-8.8 31.1-31.8h52.7c-0.1 47.7-37.7 84.6-83.8 84.6z" fill="#fff"/>
  </g>
  <g transform="matrix(.26458 0 0 .26458 2.8808e-6 115.1)" fill="#ff5a00">
   <path d="m488.7 178.7c-0.7 1.7 0.2 3.7 2 4.4 0.4 0.1 0.8 0.2 1.2 0.2h24.2c1.8 0 3.5-1.1 4.1-2.9l6.4-17c0.6-1.7 2.3-2.9 4.1-2.9h23.5c1.8 0 3.5 1.1 4.1 2.9l6.5 17.1c0.6 1.7 2.3 2.9 4.1 2.9h24.2c1.9 0 3.3-1.6 3.3-3.4 0-0.4-0.1-0.7-0.2-1.1l-0.5-1.4-38.7-105c-0.6-1.7-2.3-2.9-4.1-2.9h-20.7c-1.8 0-3.1 0.4-4.1 2.9l-38.9 105zm65.7-54c-2 1.9-2.9 4.7-2.4 7.4l1.3 7.7-6.9-3.6c-2.4-1.3-5.3-1.3-7.7 0l-6.9 3.6 1.3-7.7c0.5-2.7-0.4-5.4-2.4-7.4l-5.6-5.4 7.7-1.1c2.7-0.4 5-2.1 6.3-4.5l3.4-7 3.5 7c1.2 2.4 3.6 4.1 6.3 4.5l7.7 1.1z"/>
   <path d="m476.3 69.4c2.1 0 3.8 1.7 3.8 3.8v106.2c0 2.1-1.7 3.8-3.8 3.8h-24c-2.1 0-3.8-1.7-3.8-3.8v-36.1c0-2.1-1.7-3.8-3.8-3.8h-26.5c-2.1 0-3.8 1.7-3.8 3.8v36.1c0 2.1-1.7 3.8-3.8 3.8h-24c-2.1 0-3.8-1.7-3.8-3.8v-106.2c0-2.1 1.7-3.8 3.8-3.8h24c2.1 0 3.8 1.7 3.8 3.8v33.5c0 2.1 1.7 3.8 3.8 3.8h26.5c2.1 0 3.8-1.7 3.8-3.8v-33.5c0-2.1 1.7-3.8 3.8-3.8z"/>
   <path d="m672.7 183.2c-2.1 0-4.7-1.4-5.9-3.2l-28.5-43.9c-1.1-1.8-2.1-1.5-2.1 0.6v42.7c0 2.1-1.7 3.8-3.8 3.8h-23.7c-2.1 0-3.8-1.7-3.8-3.8v-106.2c0-2.1 1.7-3.8 3.8-3.8h23.7c2.1 0 3.8 1.7 3.8 3.8v40.4c0 2.1 0.9 2.4 2 0.6l26-41.5c1.1-1.8 3.7-3.2 5.8-3.2h26.9c1.7 0 3 1.4 3 3 0 0.6-0.2 1.2-0.5 1.7l-31.2 47.3c-1.2 2-1.1 4.4 0 6.3l34.5 50.8c0.9 1.4 0.6 3.3-0.8 4.2-0.5 0.3-1.1 0.5-1.7 0.5z"/>
   <path d="m796.2 156c2.1 0 3.8 1.7 3.8 3.8v19.6c0 2.1-1.7 3.8-3.8 3.8h-79.3c-2.1 0-3.8-1.7-3.8-3.8v-106.2c0-2.1 1.7-3.8 3.8-3.8h77.9c2.1 0 3.8 1.7 3.8 3.8v19.5c0 2.1-1.7 3.8-3.8 3.8h-46.7c-2.1 0-3.8 1.7-3.8 3.8v9.1c0 2.1 1.7 3.8 3.8 3.8h41.6c2.1 0 3.8 1.7 3.8 3.8v18.1c0 2.1-1.7 3.8-3.8 3.8h-41.6c-2.1 0-3.8 1.7-3.8 3.8v9.4c0 2.1 1.7 3.8 3.8 3.8z"/>
   <path d="m317.3 187.4c-7.5-0.3-14.9-1.6-22.1-3.7s-17.2-7.9-17.2-7.9c-1.7-1-2.3-3.2-1.4-4.9 0-0.1 0.1-0.1 0.1-0.2 0 0 3.1-4.7 5.5-8.6s5.5-8.6 5.5-8.6c1.2-1.8 3.5-2.4 5.4-1.5 0 0 7.5 3.8 12.7 5.7 5.5 2 11.2 3.2 17 3.4l3.7 0.2c1.7 0 3.4-0.1 5.3-0.2 1.8-0.1 3.5-0.5 5.2-1.1 1.5-0.5 2.8-1.5 3.9-2.7 1-1.2 1.5-3 1.5-5.2 0-1-0.3-2-0.9-2.9s-1.3-1.6-2.2-2.2-1.8-1.2-2.8-1.7l-1-0.5c-1-0.4-3.4-1.2-5.4-1.9l-2.7-0.6c-2.1-0.4-4.3-0.8-6.4-1.3-2.8-0.7-5.6-1.3-8.3-1.9s-5.4-1.3-7.9-2c-2.6-0.8-5.1-1.6-7.5-2.6-1.1-0.4-2.2-0.9-3.3-1.4-2.2-1.3-4.3-2.7-6.3-4.2 0 0-4.5-3.6-7-7.8s-3.7-9.9-3.7-16.9c0-2.5 0.3-5 0.8-7.4 0.2-1.2 0.6-2.4 1-3.6 1-2.3 2.1-4.6 3.4-6.8 0 0 3-4.9 6.4-7.9 3.4-2.9 7.2-5.2 11.3-6.9 4.2-1.7 8.6-2.9 13.1-3.5 4.5-0.7 9.1-1 13.7-1 7.5 0 15 0.9 22.2 2.7 7.3 1.8 17.5 7.1 17.5 7.1 1.8 0.9 2.5 3 1.6 4.8 0 0.1-0.1 0.1-0.1 0.2 0 0-2.9 4.9-5.2 8.8-2.3 4-5.1 8.8-5.1 8.8-1.1 1.8-3.4 2.6-5.4 1.7 0 0-7.7-3.4-13-5.2-5.5-1.8-11.3-2.7-17.2-2.6-1.5 0-3 0.1-4.6 0.2-1.5 0.1-3 0.5-4.5 1.1-1.3 0.6-2.5 1.4-3.4 2.6-0.9 1.1-1.3 2.6-1.3 4.4 0 1.2 0.3 2.4 0.9 3.5 0.7 1.1 1.9 2 3.7 2.9 2.1 0.9 4.4 1.7 6.7 2.3 2.6 0.7 5.5 1.3 8.6 2 3.1 0.6 6.4 1.4 9.8 2.3 3.3 0.9 6.7 1.9 10 3s6.5 2.5 9.5 4.1c2.9 1.5 5.6 3.5 8 5.7s4.2 4.9 5.6 7.8c1.1 2.3 1.8 4.7 2.2 7.2s0.6 5.1 0.5 7.6c0 7.4-1.5 13.5-4.5 18.2-2.9 4.7-7 8.6-11.9 11.3-5.1 2.9-10.7 4.8-16.5 5.8-6.1 1.1-12.2 1.7-18.4 1.7z"/>
  </g>
  <g transform="matrix(.10817 0 0 .10817 2.8808e-6 115.1)" mask="url(#mask_1_)">
   <rect x="155.7" y="171.3" width="91.6" height="153.3" fill="url(#rect73_1_)"/>
  </g>
 </g>
</svg>
