<svg width="800" height="226.12" version="1.1" viewBox="0 0 211.67 59.828" xmlns="http://www.w3.org/2000/svg">
 <defs>
  <filter id="filter64026-2" x="-.097141" y="-.063419" width="1.1943" height="1.1268" color-interpolation-filters="sRGB">
   <feGaussianBlur stdDeviation="0.73988808"/>
  </filter>
 </defs>
 <g transform="translate(-191.61 118.57)">
  <g transform="matrix(2.9732 0 0 2.9732 -378.09 115.92)">
   <path transform="matrix(.62701 0 0 .62701 179.44 -344.74)" d="m29.774 436.64c-1 0-2.12 0.08-3.36 0.28l0.76-7.84h10.92l0.12-3.24h-14.16l-1.32 14.16c2.24-0.28 4-0.44 5.24-0.44 5.04 0 7.48 2.4 7.48 5.6 0 3.24-2.16 5.72-6.96 5.72-2.6 0-5-0.56-7.2-1.64l-0.12 3.56c2.16 1 4.64 1.52 7.44 1.52 7.36 0 10.84-4.24 10.84-9.16 0-5.16-3.32-8.52-9.68-8.52z" filter="url(#filter64026-2)" style="white-space:pre"/>
   <path transform="matrix(.62701 0 0 .62701 179.44 -344.74)" d="m58.599 443.32v-17.48h-4.76l-12.16 17.68v3.04h13.12v7.28h3.8v-7.28h3.48l0.12-3.24zm-3.76-13.6-0.04 4.28v9.32h-9.36z" filter="url(#filter64026-2)" style="white-space:pre"/>
   <path transform="matrix(.62701 0 0 .62701 179.44 -344.74)" d="m82.689 453.84 5.76-23.44h0.08l5.72 23.44h4.32l7.12-28h-4.12l-4.44 19.32-0.88 4.12h-0.08l-1-4.12-4.64-19.32h-4.08l-4.68 19.32-1 4.12h-0.08l-0.88-4.12-4.4-19.32h-4.16l7.16 28z" filter="url(#filter64026-2)" style="white-space:pre"/>
   <path transform="matrix(.62701 0 0 .62701 179.44 -344.74)" d="m130.51 453.84-10.44-28h-4.12l-10.4 28h4.16l2.84-8.08h10.92l2.84 8.08zm-13.96-19.32 1.44-4.08h0.08l4.24 12h-8.56z" filter="url(#filter64026-2)" style="white-space:pre"/>
  </g>
  <g transform="matrix(2.9732 0 0 2.9732 -378.09 115.92)" fill="#fff" stroke-width=".62701">
   <path d="m197.05-72.022c-0.627 0-1.3292 0.05016-2.1067 0.17556l0.47653-4.9157h6.8469l0.0752-2.0315h-8.8784l-0.82765 8.8784c1.4045-0.17556 2.508-0.27588 3.2855-0.27588 3.1601 0 4.69 1.5048 4.69 3.5112 0 2.0315-1.3543 3.5865-4.364 3.5865-1.6302 0-3.135-0.35112-4.5145-1.0283l-0.0752 2.2321c1.3543 0.62701 2.9093 0.95305 4.6649 0.95305 4.6148 0 6.7968-2.6585 6.7968-5.7434 0-3.2354-2.0817-5.3421-6.0694-5.3421z" style="white-space:pre"/>
   <path d="m215.13-67.834v-10.96h-2.9846l-7.6244 11.085v1.9061h8.2263v4.5646h2.3826v-4.5646h2.182l0.0752-2.0315zm-2.3576-8.5273-0.0251 2.6836v5.8437h-5.8688z" style="white-space:pre"/>
   <path d="m230.23-61.238 3.6116-14.697h0.0502l3.5865 14.697h2.7087l4.4643-17.556h-2.5833l-2.7839 12.114-0.55176 2.5833h-0.0502l-0.62701-2.5833-2.9093-12.114h-2.5582l-2.9344 12.114-0.62701 2.5833h-0.0502l-0.55177-2.5833-2.7588-12.114h-2.6084l4.4894 17.556z" style="white-space:pre"/>
   <path d="m260.22-61.238-6.546-17.556h-2.5833l-6.5209 17.556h2.6084l1.7807-5.0662h6.8469l1.7807 5.0662zm-8.753-12.114 0.90289-2.5582h0.0502l2.6585 7.5241h-5.3672z" style="white-space:pre"/>
  </g>
 </g>
</svg>
