<svg width="800" height="208.38" version="1.1" viewBox="0 0 211.67 55.133" xmlns="http://www.w3.org/2000/svg">
 <g transform="translate(-191.77 120.39)">
  <g transform="matrix(3.0875 0 0 3.0875 -399.98 122.88)" stroke-width=".62701">
   <path d="m197.05-72.022c-0.627 0-1.3292 0.05016-2.1067 0.17556l0.47653-4.9157h6.8469l0.0752-2.0315h-8.8784l-0.82765 8.8784c1.4045-0.17556 2.508-0.27588 3.2855-0.27588 3.1601 0 4.69 1.5048 4.69 3.5112 0 2.0315-1.3543 3.5865-4.364 3.5865-1.6302 0-3.135-0.35112-4.5145-1.0283l-0.0752 2.2321c1.3543 0.62701 2.9093 0.95305 4.6649 0.95305 4.6148 0 6.7968-2.6585 6.7968-5.7434 0-3.2354-2.0817-5.3421-6.0694-5.3421z" style="white-space:pre"/>
   <path d="m215.13-67.834v-10.96h-2.9846l-7.6244 11.085v1.9061h8.2263v4.5646h2.3826v-4.5646h2.182l0.0752-2.0315zm-2.3576-8.5273-0.0251 2.6836v5.8437h-5.8688z" style="white-space:pre"/>
   <path d="m230.23-61.238 3.6116-14.697h0.0502l3.5865 14.697h2.7087l4.4643-17.556h-2.5833l-2.7839 12.114-0.55176 2.5833h-0.0502l-0.62701-2.5833-2.9093-12.114h-2.5582l-2.9344 12.114-0.62701 2.5833h-0.0502l-0.55177-2.5833-2.7588-12.114h-2.6084l4.4894 17.556z" style="white-space:pre"/>
   <path d="m260.22-61.238-6.546-17.556h-2.5833l-6.5209 17.556h2.6084l1.7807-5.0662h6.8469l1.7807 5.0662zm-8.753-12.114 0.90289-2.5582h0.0502l2.6585 7.5241h-5.3672z" style="white-space:pre"/>
  </g>
 </g>
</svg>
