<svg width="800" height="363.4" version="1.1" viewBox="0 0 211.66 96.151" xmlns="http://www.w3.org/2000/svg">
 <link rel="stylesheet" type="text/css"/>
 <link rel="stylesheet" type="text/css"/>
 <style type="text/css"/>
 <g transform="matrix(.80005 0 0 .80005 228.65 -395.47)" fill="#9100ce">
  <g transform="matrix(1.4169,0,0,1.4169,-489.29,-552.03)">
   <g transform="matrix(.081154 0 0 .081154 128.58 764.06)" fill="#9100ce">
    <polygon transform="matrix(25.756,0,0,25.756,-2587.4,-10697)" points="131.47 443.66 146.47 417.47 137.83 403.08 114.08 443.66" clip-path="url(#SVGID_2_)"/>
    <polygon transform="matrix(25.756,0,0,25.756,-2587.4,-10697)" points="116.12 417.47 128.27 417.47 136.67 403.08 107.65 403.08" clip-path="url(#SVGID_2_)"/>
   </g>
  </g>
  <path d="m-142.46 575.68h-15.844v-28.125h-11.931l6.1868-10.613h5.7445v-5.0414c0-7.1848 4.6276-10.447 13.523-10.447h12.504v9.552h-8.6233c-1.3244 0-1.5589 0.57635-1.5589 1.5588v4.3781h10.182v10.613h-10.182z"/>
  <path d="m-108.73 575.68h-16.077v-54.227h16.077z"/>
  <path d="m-84.183 575.68h-16.077v-38.805h16.077z"/>
  <path d="m-84.183 532.56h-16.077v-11.111h16.077z"/>
  <path d="m-61.962 575.68h-17.91l20.232-19.734-19.568-19.071h18.905l10.125 10.149 10.107-10.149h18.242z"/>
  <path d="m-48.52 566.89 8.9788 8.789h18.308l-18-17.91z"/>
 </g>
</svg>
