<svg width="18.946mm" height="5.654mm" version="1.1" viewBox="0 0 67.13 20.034" xmlns="http://www.w3.org/2000/svg">
 <defs>
  <clipPath id="a">
   <path d="m332.44 203.64h53.704v16.027h-53.704v-16.027z"/>
  </clipPath>
 </defs>
 <g transform="translate(-120.72 -302.35)">
  <g transform="matrix(1.25 0 0 -1.25 -294.83 576.92)">
   <g clip-path="url(#a)">
    <g transform="translate(385.41 209.94)">
     <path d="m0 0h-5.636s0.1-0.468 0.376-0.701c-0.025 0.025 0.434-0.41 1.102-0.418 0.81 0 1.077 0.526 1.077 0.526h1.244s-0.317-0.768-0.977-1.202c-0.067-0.042-0.501-0.426-1.461-0.401-0.167 8e-3 -0.76 0.042-1.52 0.576-0.075 0.059-0.885 0.643-0.943 1.837 0 0.067-0.067 1.086 0.659 1.845 0.234 0.234 0.885 0.769 1.879 0.802s1.603-0.518 1.703-0.61c0.435-0.359 0.635-0.977 0.635-0.977l-1.294 9e-3s-0.317 0.568-1.119 0.526c-0.874-0.018-1.13-0.798-1.13-0.798l3.944-4e-3s-0.192 0.835-0.844 1.436c-0.563 0.539-1.339 0.752-1.862 0.719-0.646-0.065-1.313-0.144-2.095-0.869-0.431-0.423-0.755-1.155-0.768-1.929 0.016-1.135 0.464-1.626 0.738-1.976 0.718-0.759 1.764-0.88 1.917-0.888 0.872-0.089 1.507 0.253 2.037 0.668 0.499 0.451 0.708 1 0.787 1.238 0.018-4e-3 1.437-3e-3 1.44 0-0.144-0.53-0.343-1.422-1.308-2.256-1.095-0.941-2.149-1.013-2.923-0.985-1.42 0.091-2.121 0.624-2.672 1.083-1.205 1.065-1.324 2.566-1.319 2.899-0.042 1.395 0.518 2.264 0.827 2.672 0.893 1.22 2.184 1.626 3.361 1.667 0.155 0 1.472 0.098 2.792-1.107 1.453-1.261 1.353-3.382 1.353-3.382m-9.09-0.01s-0.28 4e-3 -0.377 0.048c-0.359 0.088-0.351 0.316-0.364 0.399-4e-3 0.031 0 0.35 0 0.35l0.767 5e-3c-0.022-0.333-0.026-0.802-0.026-0.802m-2.2-1.22c-0.574 0.567-0.664 1.263-0.658 1.848 1e-3 0-9e-3 2.254-9e-3 2.254l2.738-3e-3 -3e-3 -1.324h-1.357v-1.086s0.029-0.621 0.472-0.953c0.307-0.216 0.884-0.274 0.884-0.274l8e-3 -1.335s-1.209-7e-3 -2.075 0.873m2.075-2.464s-0.744-0.011-1.099 0.083c-0.253 0.057-0.597 0.115-1.008 0.335-0.61 0.321-1.242 0.874-1.699 1.631-0.322 0.621-0.571 1.061-0.539 2.847v6.167h1.275v-6.287c0 0.025-0.041-1.349 0.409-2.079 0.139-0.215 0.633-0.937 1.506-1.258 0.469-0.184 1.155-0.169 1.155-0.169v-1.27zm-2.733 11.058h1.369l0.011-2.839 1.342-3e-3v-1.285l-2.728 4e-3 6e-3 4.123zm-4.058-11.063v3.866s0.025 1.277-0.61 2.012c-0.793 0.952-1.653 1.044-2.137 1.077-0.084 0-1.478 0.017-2.238-0.918-0.835-1.027-0.76-2.012-0.76-2.012s0.034-1.136 0.777-1.879c1.048-1.05 2.534-0.875 2.997-0.893 6e-3 -4e-3 3e-3 -1.251 3e-3 -1.251l-0.89-3e-3c-0.69 0.032-1.714-0.077-2.828 0.928-0.025 0.017-1.378 1.135-1.445 3.106-8e-3 0.334-0.033 1.511 1.111 2.881 0.05 0.041 1.244 1.402 3.156 1.427 1.837-0.075 2.713-0.684 3.415-1.594 0.893-1.119 0.768-2.338 0.801-2.981 0-0.025 0.011-3.765 0.011-3.765l-1.363-1e-3zm-2.375 3.965v-0.298c-0.013-9e-3 -0.456-0.018-0.491-9e-3 -0.18 0.013-0.311 0.118-0.337 0.149-0.097 0.114-0.11 0.303-0.11 0.342-4e-3 0.206 0.123 0.364 0.123 0.364s0.083 0.105 0.329 0.118c0.254 0 0.319-0.114 0.39-0.237 0.07-0.122 0.096-0.368 0.096-0.429m2.032-0.349v-3.608h-1.285l8e-3 3.614s0.033 0.575-0.15 1.016c-0.051 0.08-0.225 0.73-1.111 0.723-0.284-6e-3 -0.59-0.039-0.852-0.318-0.281-0.25-0.323-0.797-0.325-0.835 5e-3 -0.188-0.123-0.668 0.512-1.076 0.463-0.322 1.584-0.218 1.584-0.218l-9e-3 -1.344h-0.509c-0.218-3e-3 -1.296-0.069-2.079 0.673-0.043 0.047-0.861 0.694-0.805 1.961 0 0.075-0.026 0.94 0.743 1.663 0.089 0.078 0.529 0.651 1.732 0.721 1.358-3e-3 1.881-0.76 1.937-0.804 0.701-0.757 0.609-2.168 0.609-2.168m-9.02-3.621-0.011 4.252s0.05 0.973-0.748 1.876c-0.623 0.71-1.422 0.988-2.013 0.969-2.243-0.066-2.841-1.762-2.841-1.762s-0.599 1.756-2.715 1.751c-0.895 7e-3 -1.552-0.388-1.98-0.788-0.805-0.753-0.891-1.787-0.869-2.051 3e-3 -0.066 0-4.242 0-4.242l-1.336-0.011v4.258s-0.059 1.492 1.113 2.759c1.033 1.162 2.335 1.357 2.928 1.377 1.716 0.05 2.839-1.013 2.839-1.013s1.237 1.013 2.672 1.008c0.9-5e-3 2.165-0.387 3.12-1.412 1.252-1.342 1.132-2.73 1.132-2.73l0.012-4.241h-1.303zm-1.662 7e-3s-0.015 4.205-0.016 4.251c1e-3 0.134-0.074 1.087-1.267 1.137-1.127-0.065-1.208-1.142-1.208-1.142v-4.247l-1.326-4e-3c0.019 3.36 8e-3 4.124 5e-3 4.25-1e-3 0.021-1e-3 0.035 0 0v-5e-3c6e-3 1.175 0.489 1.487 0.799 1.816 0.409 0.345 0.861 0.684 1.691 0.701 0.913 0.043 1.626-0.411 2.02-0.925 0.139-0.195 0.596-0.729 0.574-1.592-0.011-0.061 5e-3 -4.245 5e-3 -4.245l-1.277 5e-3zm-4.155 4.24c-0.011-0.062-6e-3 -4.242-6e-3 -4.242h-1.274l-0.011 4.247s-0.039 1.063-1.208 1.141c-1.225-0.044-1.208-1.141-1.208-1.141v-4.247h-1.303s0 4.147-5e-3 4.242c5e-3 1.174 0.729 1.789 0.779 1.837 0.372 0.358 0.868 0.662 1.698 0.679 0.935-6e-3 1.712-0.342 2.098-0.902 0.139-0.195 0.462-0.751 0.44-1.614m-11.957-6.14-6.273 5e-3 8.556 14.607 3.122-5.183-5.405-9.429zm-5.544 9.429-3.061 5.177h10.476l-3.034-5.171-4.381-6e-3zm48.992-1.524c-0.022 0.035-0.214 0.588-0.823 1.297-0.023 0.022-0.513 0.61-1.355 1.07-0.026 0.017-0.779 0.509-2.16 0.574-0.697 8e-3 -1.284-0.149-1.284-0.149s-1.052-0.245-1.723-0.776c-0.99-0.727-1.442-1.608-1.442-1.608l1e-3 2.559-1.35 1e-3 -4e-3 2.839-4.475-4e-3 0.013-5.522s-0.236 0.469-0.359 0.64c-0.027 0.04-0.6 0.902-1.403 1.398-0.53 0.293-0.867 0.477-1.687 0.644-0.306 0.052-1.192 0.175-2.112 0.013-0.088-0.026-0.719-0.162-1.433-0.547-0.412-0.229-0.908-0.645-0.908-0.645s-0.631-0.609-0.802-0.92c-0.376-0.583-0.587-1.131-0.587-1.131s-0.346 0.973-1.012 1.67c-0.061 0.07-0.587 0.67-1.192 0.99-0.194 0.106-0.719 0.43-1.688 0.649-0.303 0.049-0.893 0.105-1.293 0.057-0.158-0.022-0.657-0.062-1.441-0.395-0.224-0.087-0.772-0.424-0.772-0.424s-0.289 0.192-0.399 0.249c-0.11 0.058-0.657 0.359-1.271 0.478s-1.406 0.14-1.95 0.053c-0.806-0.141-1.512-0.557-1.564-0.588-0.526-0.329-0.908-0.696-0.908-0.696l-3.396 5.636-12.495-5e-3 3.874-6.583 3.979 5e-3 -5.531-9.445 7.902 5e-3 4.142 7.213s-0.026-0.175-0.031-0.399c1e-3 -8e-3 5e-3 -4.961 5e-3 -4.961l4.483 9e-3 5e-3 4.909s-0.066 0.451 0.411 0.469c0.47 8e-3 0.513-0.43 0.513-0.43v-4.957l4.44 5e-3v4.921s-4e-3 0.465 0.512 0.465c0.461-0.022 0.469-0.421 0.469-0.421v-4.97l4.462 9e-3 4e-3 2.511s0.452-0.71 0.561-0.824 0.693-0.78 1.153-1.008c0.052-0.022 0.522-0.35 1.218-0.53 0.048-0.018 0.588-0.158 1.324-0.153 0.026-5e-3 5.176 0 5.176 0l-1e-3 2.87s0.233-0.482 0.364-0.653c0.078-0.105 0.492-0.732 0.789-0.946 0.03-0.022 0.654-0.688 1.64-1.008 0.048-0.013 0.644-0.25 1.743-0.263 0.03 4e-3 0.886 0 0.886 0v2.344s0.373-0.622 0.618-0.863c0.025-0.031 0.605-0.648 1.144-0.942 0.038-0.023 0.657-0.39 1.485-0.566 0.043-8e-3 1.166-0.275 2.323 0.022 0.227 0.061 1.105 0.307 1.788 0.89 0.803 0.697 1.267 1.258 1.644 2.463 3e-3 0.044 0.206 0.71 0.21 1.499-8e-3 0.158-0.035 1.008-0.43 1.906" fill="#231f20"/>
    </g>
    <g transform="translate(344.55 218.96)">
     <path d="m0 0-8.556-14.606 6.274-6e-3 5.405 9.43-3.123 5.182z" fill="#59caf5"/>
    </g>
    <g transform="translate(344.14 218.95)">
     <path d="m0 0h-10.476l3.062-5.177 4.38 6e-3 3.034 5.171z" fill="#59caf5"/>
    </g>
    <g transform="translate(360.2 213.21)">
     <path d="m0 0c-0.955 1.024-2.22 1.407-3.12 1.412-1.435 5e-3 -2.672-1.008-2.672-1.008s-1.123 1.063-2.839 1.013c-0.593-0.02-1.895-0.215-2.928-1.377-1.172-1.267-1.113-2.759-1.113-2.759v-4.258l1.336 0.011s3e-3 4.176 0 4.242c-0.022 0.264 0.064 1.298 0.869 2.051 0.429 0.4 1.086 0.794 1.981 0.787 2.115 6e-3 2.714-1.75 2.714-1.75s0.598 1.696 2.841 1.762c0.591 0.018 1.391-0.259 2.013-0.969 0.798-0.903 0.748-1.876 0.748-1.876l0.011-4.253h1.303l-0.012 4.242s0.12 1.388-1.132 2.73" fill="#59caf5"/>
    </g>
    <g transform="translate(351.69 213)">
     <path d="m0 0c-0.829-0.017-1.326-0.321-1.698-0.679-0.049-0.048-0.773-0.663-0.779-1.837 6e-3 -0.095 6e-3 -4.242 6e-3 -4.242h1.302v4.248s-0.017 1.096 1.208 1.141c1.169-0.078 1.208-1.141 1.208-1.141l0.011-4.248h1.275s-6e-3 4.181 5e-3 4.242c0.023 0.863-0.3 1.419-0.439 1.614-0.387 0.56-1.164 0.896-2.099 0.902" fill="#59caf5"/>
    </g>
    <g transform="translate(354.57 210.49)">
     <path d="m0 0c-1e-3 0.034-1e-3 0.021 0 0" fill="#59caf5"/>
    </g>
    <g transform="translate(359.65 210.49)">
     <path d="m0 0c0.022 0.863-0.435 1.397-0.574 1.591-0.394 0.514-1.107 0.968-2.02 0.926-0.829-0.017-1.282-0.357-1.691-0.701-0.31-0.329-0.793-0.642-0.798-1.816-1e-3 2e-3 -1e-3 3e-3 -1e-3 5e-3 3e-3 -0.126 0.014-0.89-4e-3 -4.25l1.325 4e-3v4.247s0.081 1.077 1.208 1.141c1.193-0.049 1.268-1.002 1.268-1.136 0-0.046 0.015-4.251 0.015-4.251l1.277-5e-3s-0.016 4.184-5e-3 4.245" fill="#59caf5"/>
    </g>
    <g transform="translate(366.52 212.83)">
     <path d="m0 0c-1.202-0.07-1.643-0.643-1.732-0.721-0.768-0.723-0.743-1.588-0.743-1.663-0.056-1.267 0.763-1.914 0.805-1.961 0.783-0.742 1.861-0.676 2.079-0.673h0.509l9e-3 1.344s-1.121-0.104-1.584 0.218c-0.635 0.408-0.506 0.888-0.512 1.076 2e-3 0.038 0.045 0.585 0.326 0.835 0.261 0.279 0.567 0.312 0.851 0.318 0.887 7e-3 1.061-0.643 1.111-0.723 0.183-0.441 0.15-1.016 0.15-1.016l-8e-3 -3.614h1.286v3.608s0.091 1.411-0.61 2.168c-0.056 0.044-0.579 0.801-1.937 0.804" fill="#59caf5"/>
    </g>
    <g transform="translate(369.96 212.99)">
     <path d="m0 0c-0.701 0.91-1.578 1.52-3.415 1.595-1.912-0.025-3.106-1.386-3.156-1.428-1.144-1.369-1.119-2.547-1.111-2.881 0.067-1.97 1.42-3.089 1.445-3.106 1.114-1.005 2.139-0.895 2.828-0.928l0.89 4e-3s4e-3 1.246-3e-3 1.25c-0.463 0.019-1.949-0.156-2.997 0.893-0.743 0.743-0.777 1.879-0.777 1.879s-0.075 0.985 0.76 2.012c0.76 0.935 2.154 0.919 2.238 0.919 0.484-0.034 1.344-0.126 2.137-1.077 0.635-0.735 0.61-2.013 0.61-2.013v-3.866l1.363 2e-3s-0.01 3.739-0.01 3.764c-0.034 0.643 0.091 1.862-0.802 2.981" fill="#59caf5"/>
    </g>
    <g transform="translate(375.04 207.69)">
     <path d="m0 0c-0.873 0.321-1.368 1.043-1.506 1.257-0.45 0.731-0.409 2.104-0.409 2.079v6.288l-1.275-1e-3v-6.166c-0.032-1.786 0.217-2.227 0.539-2.847 0.457-0.758 1.089-1.31 1.698-1.631 0.412-0.22 0.756-0.279 1.009-0.335 0.355-0.095 1.099-0.084 1.099-0.084v1.27s-0.686-0.014-1.155 0.17" fill="#59caf5"/>
    </g>
    <g transform="translate(376.19 214.46)">
     <path d="m0 0-1.342 4e-3 -0.011 2.839h-1.369l-6e-3 -4.124 2.728-4e-3v1.285z" fill="#59caf5"/>
    </g>
    <g transform="translate(375.31 209.45)">
     <path d="m0 0c-0.444 0.332-0.472 0.953-0.472 0.953v1.085l1.356 1e-3 4e-3 1.324-2.738 3e-3s0.01-2.255 8e-3 -2.254c-5e-3 -0.585 0.085-1.282 0.658-1.848 0.866-0.881 2.075-0.873 2.075-0.873l-7e-3 1.335s-0.577 0.058-0.884 0.274" fill="#59caf5"/>
    </g>
    <g transform="translate(384.06 213.32)">
     <path d="m0 0c-1.32 1.205-2.637 1.108-2.793 1.108-1.177-0.042-2.468-0.448-3.361-1.667-0.308-0.408-0.868-1.278-0.826-2.672-5e-3 -0.334 0.114-1.835 1.319-2.899 0.551-0.46 1.252-0.993 2.672-1.084 0.774-0.028 1.827 0.044 2.922 0.985 0.966 0.835 1.165 1.727 1.308 2.256-2e-3 -3e-3 -1.421-3e-3 -1.439 0-0.08-0.238-0.289-0.786-0.787-1.237-0.53-0.415-1.165-0.758-2.038-0.668-0.152 7e-3 -1.198 0.128-1.916 0.888-0.275 0.35-0.722 0.84-0.739 1.976 0.013 0.773 0.338 1.506 0.768 1.929 0.783 0.724 1.45 0.804 2.096 0.868 0.523 0.033 1.299-0.18 1.862-0.718 0.651-0.601 0.843-1.436 0.843-1.436l-3.943 4e-3s0.256 0.779 1.13 0.797c0.801 0.042 1.118-0.526 1.118-0.526l1.295-8e-3s-0.201 0.618-0.635 0.977c-0.1 0.092-0.71 0.643-1.703 0.609-0.994-0.033-1.645-0.567-1.879-0.801-0.726-0.76-0.66-1.779-0.66-1.846 0.059-1.193 0.869-1.778 0.944-1.836 0.76-0.535 1.353-0.568 1.52-0.577 0.96-0.025 1.394 0.359 1.461 0.401 0.659 0.434 0.977 1.203 0.977 1.203h-1.244s-0.268-0.526-1.077-0.526c-0.668 8e-3 -1.128 0.442-1.103 0.417-0.275 0.234-0.375 0.701-0.375 0.701h5.636s0.1 2.121-1.353 3.382" fill="#59caf5"/>
    </g>
   </g>
  </g>
 </g>
</svg>
