<svg width="600pt" height="192.31pt" version="1.1" viewBox="0 0 600 192.31" xmlns="http://www.w3.org/2000/svg">
 <g transform="matrix(1.7338 0 0 1.7338 -591.11 -580.47)" fill="#0080fd" style="shape-inside:url(#rect882);white-space:pre" aria-label="HD">
  <path d="m633.26 439.01h7.65v-7.86h8.94v7.86h7.65v-20.01h-7.65v7.05h-8.94v-7.05h-7.65z"/>
  <path d="m661.43 439.01h13.38c4.05 0 5.67-0.18 7.14-0.75 3.36-1.35 5.04-4.35 5.04-9 0-4.32-1.5-7.35-4.47-8.97-1.77-0.96-3.72-1.29-7.83-1.29h-13.26zm7.65-5.1v-9.81h3.6c2.37 0 2.61 0.03 3.27 0.21 1.86 0.45 2.85 2.13 2.85 4.71 0 1.71-0.42 3.06-1.2 3.84-0.72 0.72-2.22 1.05-4.83 1.05z"/>
 </g>
 <g transform="matrix(2.8346 0 0 2.8346 .0090747 -1.5042e-5)" fill="#0180ff">
  <g transform="matrix(.064924 0 0 .064924 -12.023 20.458)">
   <polygon transform="matrix(25.756 0 0 25.756 -2587.4 -10697)" points="114.08 443.66 131.47 443.66 146.47 417.47 137.83 403.08" clip-path="url(#SVGID_2_)"/>
   <polygon transform="matrix(25.756 0 0 25.756 -2587.4 -10697)" points="107.65 403.08 116.12 417.47 128.27 417.47 136.67 403.08" clip-path="url(#SVGID_2_)"/>
  </g>
  <path d="m159.58 18.475v6.5922h-4.2117v7.05h4.2117v8.8812c0 4.1174 2.7411 5.8598 6.0429 5.8598h9.4306v-7.6909h-2.6552c-1.1176 0-1.5565-0.69032-1.5565-1.4782v-5.5719h4.2085l4.0887-7.05h-8.2972v-6.5922zm-69.037 5.9513c-6.0532 0-9.1537 3.937-9.1537 3.937v-3.2961h-11.353v21.791h11.445v-11.072c0-1.9181 1.4269-3.2321 3.559-3.2321 2.474 0 3.5826 1.4233 3.5826 3.1341v11.17h11.353v-10.804c0-2.2814 1.3937-3.5118 3.6985-3.5118 2.3819 0 3.5347 1.4761 3.5347 3.1455v11.17h11.353v-14.283c0-4.7832-2.9328-8.1487-9.4177-8.1487-6.6404-0.0604-9.9885 4.3126-9.9885 4.3126s-1.8385-4.3126-8.613-4.3126zm47.253 0.0064c-11.982 0-14.383 3.6084-14.383 7.3183h11.161s0.13826-1.6423 3.2997-1.6423c2.0653 0 3.162 0.70532 3.162 1.8787 0 0.5744-0.29721 1.137-1.4152 1.137-11.264 0.40101-16.776 0.78749-16.776 7.0368 0 3.6748 1.9316 7.1777 9.5972 7.1777 6.7279 0 8.8451-3.0819 8.8451-3.0819s0.96935 2.6012 3.8276 2.6012h9.2292v-7.5078h-1.3551c-0.50233 0-0.73248-0.26269-0.73248-0.73247v-6.8948c0-3.8512-2.346-7.2904-14.46-7.2904zm57.34 0.0048c-12.027 0-16.197 4.3505-16.197 11.596 0 10.97 11.102 11.387 16.531 11.387 6.736 0 15.208-0.79225 16.116-7.4295h-12.452s-0.78797 1.232-3.4316 1.3258c-4.5998 0-4.8086-3.5232-4.8086-3.5232h20.76c0.26795-8.2157-2.8886-13.356-16.518-13.356zm-0.0461 5.7689c4.5991 0 4.3297 3.1005 4.3297 3.1005h-8.6508s0.12237-3.1005 4.3211-3.1005zm-54.553 6.9459v0.91559c0 1.2799-1.2978 3.4739-4.3562 3.4739-1.6704 0-2.6302-0.59667-2.6302-1.6877 0-1.3938 0.66663-1.8375 6.9864-2.7017z"/>
 </g>
</svg>
