<svg width="800" height="341" version="1.1" viewBox="0 0 211.66 90.225" xmlns="http://www.w3.org/2000/svg">
 <link rel="stylesheet" type="text/css"/>
 <link rel="stylesheet" type="text/css"/>
 <style type="text/css"/>
 <g transform="matrix(.80003 0 0 .80003 239.45 -294.69)" fill="#f2661a">
  <path d="m-167.83 408.98v-10.841h-12.521v10.841h-5.497l-5.2302 9.009h10.727v16.491c0 6.6438 2.2552 10.383 10.383 10.383h11.452v-9.7725h-6.1078c-2.0519 0-3.2066-1.0682-3.2066-3.9701v-13.132h9.3144v-9.009z"/>
  <path d="m-141.05 444.87-14.156-36.036h13.601l8.5303 24.851 7.3716-24.851h14.292l7.9972 24.791 7.8938-24.791h12.105l-12.768 36.036h-14.819l-7.834-23.15-7.5348 23.15z"/>
  <path d="m-57.908 407.9c-17.224 0-23.677 7.5958-23.677 19.146 0 17.459 15.166 18.779 23.716 18.779 16.812 0 23.137-7.5067 23.137-18.741-7e-6 -14.641-10.104-19.184-23.176-19.184zm0.42409 9.3126c7.114 0 10.238 4.1365 10.238 9.5441 0 6.2247-3.9485 9.5632-10.315 9.5632-7.1318 0-10.257-3.9034-10.257-9.6019 0-6.3728 3.8114-9.5053 10.334-9.5053z"/>
  <g transform="matrix(1.3296,0,0,1.3296,-490.26,-613.53)">
   <g transform="matrix(.081154 0 0 .081154 128.58 764.06)" fill="#f2661a">
    <polygon transform="matrix(25.756,0,0,25.756,-2587.4,-10697)" points="146.47 417.47 137.83 403.08 114.08 443.66 131.47 443.66" clip-path="url(#SVGID_2_)"/>
    <polygon transform="matrix(25.756,0,0,25.756,-2587.4,-10697)" points="128.27 417.47 136.67 403.08 107.65 403.08 116.12 417.47" clip-path="url(#SVGID_2_)"/>
   </g>
  </g>
 </g>
</svg>
