<svg width="2157.6" height="790.41" version="1.1" viewBox="0 0 570.87 209.13" xmlns="http://www.w3.org/2000/svg">
 <g transform="matrix(.35278 0 0 .35278 -.00023283 264.59)" fill="#7efd41">
  <g transform="scale(.75)" stroke-width=".70772">
   <path d="m161.36-1e3c-29.917 0-57.96 8.1321-81.953 22.371a33.617 33.617 0 0 0-6.8457 4.3008c-0.07685 0.051-0.15567 0.0992-0.23242 0.15039-43.595 28.875-72.328 78.344-72.328 134.54 0 89.102 72.258 161.36 161.36 161.36 42.817 0 81.74-16.703 110.62-43.879l-0.14844-0.1582a33.617 33.617 0 0 0 11.969-25.674 33.617 33.617 0 0 0-33.617-33.615 33.617 33.617 0 0 0-24.646 10.818c-16.806 15.718-39.371 25.275-64.172 25.275-52.017 0-94.127-42.11-94.127-94.127 0-32.767 16.773-61.643 42.18-78.486l-0.19922-0.29883h2e-3l0.19727 0.29883c14.862-9.908 32.768-15.641 51.947-15.641 23.496 0 44.939 8.6343 61.5 22.859l0.0898-0.10352a33.617 33.617 0 0 0 23.689 9.7988 33.617 33.617 0 0 0 33.617-33.615 33.617 33.617 0 0 0-13.553-26.924l0.0352-0.041c-28.309-24.416-65.11-39.207-105.38-39.207z"/>
   <path d="m441.62-1e3c-35.81 0-68.932 11.677-95.684 31.422-0.0487 0.0359-0.0959 0.0734-0.14453 0.10937a33.617 33.617 0 0 0-2.2793 1.7324c-37.764 28.95-62.333 74.229-63.209 125.28a33.617 33.617 0 0 0-0.0879 1.7598 33.617 33.617 0 0 0 0.0488 1.3887c0.17762 88.95 72.364 161.03 161.36 161.03 37.792 0 72.541-13.021 100-34.748 0.35414-0.27968 0.69906-0.57091 1.0508-0.85351a33.617 33.617 0 0 0 0.41992-0.3418c36.52-29.545 59.889-74.787 59.889-125.42 0-89.102-72.258-161.36-161.36-161.36zm0 67.232c52.017 0 94.127 42.11 94.127 94.127 0 29.376-13.5 55.612-34.602 72.9a33.617 33.617 0 0 0-0.24218 0.19726c-0.32257 0.26251-0.64073 0.5288-0.9668 0.78711-15.994 12.668-36.306 20.242-58.316 20.242-52.017 0-94.127-42.11-94.127-94.127 0-31.069 15.076-58.67 38.289-75.797 15.641-11.536 34.96-18.33 55.838-18.33z"/>
   <path d="m652.16-873.32c-18.471 0-33.615 15.144-33.615 33.615v254.78c0 18.471 15.144 33.617 33.615 33.617h162.07c18.471 0 33.615-15.146 33.615-33.617s-15.144-33.617-33.615-33.617h-128.45v-60.156h115.71c18.471 0 33.617-15.144 33.617-33.615s-15.146-33.617-33.617-33.617h-115.71v-60.156h128.45c18.471 0 33.615-15.146 33.615-33.617s-15.144-33.615-33.615-33.615z"/>
   <path d="m565.11-693.56c-9.625 0-18.329 4.1042-24.486 10.615-0.63696 0.63695-1.2034 1.3446-1.7695 2.123l-1.0625 1.4163-96.461 123.85-97.381-125.05c-3.352-4.3097-7.6254-7.579-12.287-9.7324-0.25867-0.12206-0.52301-0.23215-0.78515-0.34766-0.21584-0.093-0.42722-0.19889-0.64453-0.28711 0.0996 0.0437 0.17572 0.086 0.26757 0.12891-0.46973-0.20012-0.93397-0.41114-1.4141-0.58985-0.21232-0.0708-0.42394-0.14211-0.70703-0.21289-0.21231-0.0708-0.4244-0.14016-0.63672-0.21094-0.51413-0.1661-1.0316-0.31576-1.5508-0.45703-0.17287-0.047-0.34615-0.0905-0.51953-0.13476-0.36402-0.093-0.72958-0.17906-1.0957-0.25977-0.16603-0.0366-0.3316-0.0753-0.49804-0.10937-1.0471-0.21433-2.1018-0.37702-3.1621-0.49024-0.18732-0.02-0.37485-0.0359-0.5625-0.0527-0.36539-0.0327-0.73118-0.0595-1.0977-0.0801-0.17387-0.01-0.3474-0.0223-0.52148-0.0293-0.53645-0.0217-1.0733-0.0338-1.6113-0.0293-0.5999 5e-3 -1.2016 0.0267-1.8027 0.0644-0.6015 0.0376-1.2031 0.0913-1.8047 0.16211h-0.14063c-0.42404 0.0707-0.92149 0.14222-1.3457 0.21289-0.21232 0.0708-0.49471 0.0699-0.70703 0.14062-0.28308 0.0708-0.49427 0.0718-0.77734 0.14258-5.131 1.097-9.8384 3.3615-13.828 6.502-0.99749 0.78504-1.9502 1.6257-2.8535 2.5156-0.9033 0.89004-1.7566 1.8286-2.5566 2.8144-0.40004 0.49289-0.78764 0.9966-1.1602 1.5117-1.1179 1.5458-2.1075 3.1885-2.957 4.9141-0.14154 0.21232-0.21199 0.42589-0.35352 0.70898-0.0532 0.15945-0.12973 0.28473-0.21289 0.42383-3.4e-4 7.7e-4 -2e-3 1e-3 -2e-3 2e-3 -0.0272 0.0454-0.0337 0.0867-0.0684 0.13867v2e-3c-0.0734 0.1686-0.13263 0.34205-0.20313 0.51171-0.19246 0.45616-0.37531 0.91676-0.54687 1.3828-0.0211 0.0579-0.0476 0.11387-0.0684 0.17187-0.0278 0.0775-0.049 0.15672-0.0762 0.23438-0.20346 0.57654-0.39145 1.1593-0.5625 1.75-0.0193 0.0665-0.0398 0.13259-0.0586 0.19922-0.36028 1.275-0.64888 2.5808-0.85351 3.916-6.2e-4 4e-3 -1e-3 8e-3 -2e-3 0.0117-0.0177 0.11178-0.044 0.22203-0.0605 0.33398v2e-3c-0.052 0.35141-0.0802 0.7057-0.1211 1.0586-9e-3 0.0861-0.0205 0.1715-0.0293 0.25781-0.0319 0.29459-0.0774 0.58744-0.10157 0.88282-0.11427 1.3957-0.13538 2.7988-0.0762 4.2012v251.75c0 18.471 15.144 33.617 33.615 33.617s33.617-15.146 33.617-33.617v-155.48l63.6 81.467c1.7215 2.2821 3.7584 4.3798 6.1113 6.2188 14.579 11.323 35.809 8.7059 47.203-5.873l1.9121-2.4062c0.12474-0.19984 0.2293-0.4093 0.3496-0.61133l61.293-78.654v155.34c0 18.471 15.144 33.617 33.615 33.617s33.617-15.146 33.617-33.617v-253.36c0-18.471-15.146-33.617-33.617-33.617z"/>
  </g>
  <path d="m567.08-399.27c-0.77347-7.5e-4 -1.5459 5e-3 -2.3188 0.0175v0.0527h-75.372l-0.0205 0.0586c-0.0824-7.5e-4 -0.16354-6e-3 -0.24609-6e-3 -1.0087 0-1.9684 0.18326-2.9473 0.30029-12.464 1.4901-22.264 12.068-22.264 24.913 0 0.43293 0.0104 0.86421 0.0323 1.292-0.0219-0.42778-0.0337-0.85906-0.0337-1.292v191.08c0 13.787 11.251 25.1 25.014 25.208l-0.0659 5e-3 75.902 0.42481c28.981 0.4777 57.697-9.4477 80.361-28.715l-0.051-0.0615 0.0323-0.0264 0.0735 0.0879c7.6961-6.5284 14.703-14.119 20.754-22.824 38.376-54.724 25.105-130.2-29.619-168.58-21.082-14.809-45.252-21.896-69.23-21.939zm-75.187 0.28125c0.0392 5e-3 0.078 0.0101 0.11718 0.0146-0.0392-5e-3 -0.0779-0.0103-0.11718-0.0146zm22.443 50.266v2e-3h50.426c14.703-0.42463 29.617 3.6091 42.621 12.686 31.9 22.399 39.65 66.401 17.304 98.301-3.3298 4.7642-7.1572 8.9798-11.38 12.656-0.17115 0.1321-0.34065 0.26638-0.50835 0.40284v-1e-3c-12.527 10.828-28.291 16.668-44.32 17.039l-54.142-0.4248v-140.66z" stroke-width=".53079"/>
  <path transform="scale(.75)" d="m1175-530.46c-10.25-0.22664-20.483 4.1875-27.248 12.844l-96.293 122.68-0.027-0.0352-0.027 0.0352-96.223-122.68c-6.7653-8.6563-16.998-13.07-27.248-12.828-7.013 0.16521-14.034 2.5103-19.957 7.168-14.579 11.394-17.127 32.624-5.6621 47.203l115.36 147.06v83.086c0 18.471 15.146 33.617 33.617 33.617s33.615-15.146 33.615-33.617v-82.732l115.71-147.49c11.394-14.579 8.8481-35.811-5.6601-47.205-5.9227-4.6289-12.944-6.9563-19.957-7.1113z" stroke-width=".70772"/>
 </g>
 <g transform="matrix(.18725 0 0 .18725 -.00023283 .0035821)" fill="#fff">
  <path d="m1315.8 168.4c23.8-0.4 52.8 8.5 72.4 32.7 8.9 8.6 25.1 49.8 25.1 49.8l97.5 258.9c12.5 31.1 50.2 33.4 61.3 2.3l30.3-81.6 51.7 136.1c-25.1 45.9-49.5 57.1-78.3 67.6-33.6 10.5-73.8 7-102.7-10.9-9.6-6.2-34.7-22.5-51.7-63.7l-102.6-286.9v261.2l38.4-110.4 49.3 137.8c-7.2 31.6-30.1 58.1-56.7 70.5-29.1 13.7-63.8 8.9-90.1-7.8-26.2-19.4-33.6-42.4-34.7-83.2l0.3-282.6c3-47.1 33.1-72.7 59.5-84.1 12.1-4.3 17.2-5.4 31-5.7z"/>
  <path d="m1764.9 639.5c-23.8 0.4-52.8-8.5-72.4-32.6-8.9-8.6-25.1-49.8-25.1-49.8l-97.5-258.9c-12.6-31.1-50.2-33.5-61.3-2.4l-30.3 81.6-51.7-136.1c25.1-45.8 49.5-57.1 78.3-67.6 33.6-10.5 73.9-7 102.7 10.9 9.6 6.2 34.7 22.5 51.7 63.7l102.7 286.8v-260.9l-38.4 110.4-49.3-137.8c7.2-31.7 30.1-58.1 56.7-70.5 29.1-13.7 63.8-8.9 90.1 7.8 26.2 19.4 33.6 42.4 34.7 83.1l-0.4 282.6c-2.9 47.1-33 72.7-59.5 84.1-12 4.3-17.2 5.4-31 5.6z"/>
 </g>
 <g transform="matrix(.36387 0 0 .36387 352.55 1.4885e-6)">
  <g transform="matrix(4.9968,0,0,4.9968,-414.4,-129.92)">
   <path d="m173.38 31.5c16.08 8.68 26.03 26.01 29.03 43.64 1.85 9.68-0.82 19.52-4.7 28.36-8.19 18.14-25.38 31.65-44.66 36.18-7.19 1.65-14.92 2.09-21.95-0.49-11.05-3.71-22.33-7.56-31.87-14.45-6.52-4.65-11.72-11.27-14.11-18.96-3.25-10.23-2.4-21.23-0.53-31.64 1.81-10.25 5.06-20.64 11.93-28.68 10.6-12.5 27.46-16.76 43.07-18.67 11.39-1.68 23.54-0.93 33.79 4.71z" fill="#ef4a4a"/>
  </g>
  <g transform="matrix(.40234 0 0 .40518 211.81 57.069)" fill="#fff">
   <path d="m57.733 0.28c15.151-0.238 33.573 5.428 46 20.761 5.629 5.446 15.973 31.626 15.973 31.626l61.955 164.54c7.968 19.756 31.928 21.236 38.963 1.488l19.245-51.893 32.859 86.48c-15.973 29.158-31.435 36.305-49.765 42.967-21.346 6.68-46.932 4.477-65.245-6.9-6.086-3.947-22.059-14.318-32.86-40.516l-65.242-182.34v166.04l24.417-70.16 31.325 87.586c-4.569 20.113-19.116 36.918-36.021 44.822-18.495 8.717-40.554 5.629-57.276-4.945-16.651-12.354-21.348-26.929-22.061-52.872l0.22-179.6c1.9-29.908 21.017-46.192 37.794-53.484 7.657-2.723 10.929-3.464 19.719-3.601z"/>
   <path d="m343.15 299.71c-15.15 0.266-33.572-5.428-46.019-20.734-5.629-5.445-15.955-31.625-15.955-31.625l-61.953-164.54c-7.986-19.784-31.928-21.264-38.964-1.499l-19.245 51.895-32.86-86.481c15.955-29.131 31.453-36.305 49.765-42.984 21.364-6.68 46.95-4.45 65.245 6.926 6.104 3.948 22.059 14.319 32.859 40.518l65.244 182.31v-166.01l-24.397 70.16-31.344-87.586c4.569-20.14 19.135-36.926 36.04-44.821 18.478-8.699 40.555-5.638 57.258 4.943 16.668 12.327 21.347 26.93 22.06 52.845l-0.237 179.62c-1.864 29.908-20.999 46.201-37.795 53.484-7.603 2.713-10.893 3.443-19.702 3.572z"/>
  </g>
  <g transform="matrix(.84587 0 0 .84587 -1.9024 -42.529)" fill="#fff">
   <ellipse cx="260.61" cy="333.97" rx="26.451" ry="25.599" style="paint-order:stroke fill markers"/>
   <path d="m499.33 326.81c2.3 5.86 1.06 12.21 0.24 18.23l-23.03 176.95c-0.78 5.86-1.05 12.12-4.38 17.23-11.13 17.18-40.66 14.35-49.48-3.73-30.34 14.07-69.32 6.51-91.91-18.22-12.97-13.86-20.16-32.47-21.74-51.25-1.6-20.12 1.66-40.97 11.06-58.97 5.78-11.24 14.14-21.2 24.62-28.32 17.1-12.08 38.51-17.75 59.34-15.8 12.56 1.23 25.41 3.94 36.15 10.88l5.41-41.71c0.54-4.78 2.13-9.56 5.33-13.23 12.82-15.05 41.3-10.77 48.39 7.94zm-103.12 84.41c-6.82 0.81-13.45 3.83-18.23 8.83-5.38 5.98-9.26 13.36-11.31 21.13-3.16 12.96-2.92 27.84 5.06 39.08 9.41 12.55 27.05 16.82 41.85 13.12 5.85-1.6 11.765-5.9822 12.69-12.43l6.05-47c1.07-8.87-5.36-17.04-13.39-20.09-7.19-2.7-15.1-3.43-22.72-2.64z"/>
   <path d="m152.05 335.99c5.8578-13.069 21.61-18.98 35.03-15.71 8.35 1.61 15.92 7.68 18.61 15.86 1.78 5.25 0.78 10.584-1.56 15.92l-42.38 92.78 79.56 72.79c3.72 3.42 6.14 8.28 6.27 13.37 0.23 8.21-4.12 16.16-10.71 20.93-8.55 5.59-19.65 8.15-29.46 4.42-6.5-2.06-11.19-7.2-16.09-11.65l-69.39-63.71 12.07 66.02c1.09 5.86 0.5 12.16-2.47 17.41-8.53 15.31-31.76 19.39-45.13 8.17-4.71-3.91-7.49-9.7-8.51-15.66l-33.17-180.99c-1.1546-6.6044-2.28-13 0.16-19.15 3.84-10.25 14.36-16.82 25.03-17.65 9.99-1.24 20.86 3.1 26.25 11.81 3.1114 4.9906 4.01 11.55 5.14 17.52l10.47 56.99z"/>
   <path d="m261.48 368.7c9.88-1.89 21.16 1.25 27.25 9.6 2.74 3.66 3.6778 8.1772 4.33 12.71l13.48 126.1c0.61 5.67-0.83 11.6-4.36 16.12-9.68 12.6-30.49 14.46-42.23 3.74-4.22-3.8-6.4773-9.4095-7.04-14.94l-12.95-121.09c-0.61-5.24-1.44-10.71 0.43-15.79 3.12-8.96 11.92-15.05 21.09-16.45z"/>
   <path d="m553.5 388.79c16.21-2.76 32.86-0.24 48.53 4.21 12.85 3.89 24.57 10.8 35.31 18.77 4.77 3.75 9.83 7.51 12.94 12.86 5 8.31 4.76 19.7-1.17 27.48-3.83 5.11-9.55 9.06-16 9.78-8.18 1.15-16.49-1.91-22.65-7.26-9.46-7.88-20.01-15.29-32.4-17.46-4.65-0.72-9.99-0.98-14 1.88-3.18 2.67-2.67 7.81 0.23 10.5 7.49 7.72 17.7 11.82 26.73 17.38 11.94 7.24 25.23 12.79 35.11 22.94 9.43 9.23 13.71 23.05 12.26 36.05-1.73 15.84-9.19 31.66-22.47 40.97-14.87 10.47-33.93 13.23-51.7 11.39-25.64-2.82-50.72-13.12-69.89-30.57-5.41-4.44-9.64-10.62-10.46-17.7-1.8-11.9 5.44-25.4 17.46-28.52 8.41-2.37 17.52 0.64 24 6.2 11.04 9.71 24.37 16.89 38.69 20.37 4.8 1.13 10.15 1.9 14.77-0.33 4.24-2.05 5.88-7.96 3.36-11.94-2.92-4.72-7.68-7.93-12.44-10.59-14.23-7.84-28.92-15.13-41.61-25.4-6.01-5.03-11.99-10.52-15.29-17.78-5.03-10.08-5.43-21.97-2.45-32.72 3.12-12.36 9.99-24.1 20.61-31.43 6.69-4.7 14.5-7.66 22.53-9.08z"/>
  </g>
 </g>
</svg>
