<svg width="1600" height="800" version="1.1" viewBox="0 0 423.34 211.67" xmlns="http://www.w3.org/2000/svg">
 <g transform="matrix(.36829 0 0 .36829 -.00010934 -.00034159)">
  <g transform="matrix(4.9968,0,0,4.9968,-414.4,-129.92)">
   <path d="m173.38 31.5c16.08 8.68 26.03 26.01 29.03 43.64 1.85 9.68-0.82 19.52-4.7 28.36-8.19 18.14-25.38 31.65-44.66 36.18-7.19 1.65-14.92 2.09-21.95-0.49-11.05-3.71-22.33-7.56-31.87-14.45-6.52-4.65-11.72-11.27-14.11-18.96-3.25-10.23-2.4-21.23-0.53-31.64 1.81-10.25 5.06-20.64 11.93-28.68 10.6-12.5 27.46-16.76 43.07-18.67 11.39-1.68 23.54-0.93 33.79 4.71z" fill="#ef4a4a"/>
  </g>
  <g transform="matrix(.40234 0 0 .40518 211.81 57.069)" fill="#fff">
   <path d="m57.733 0.28c15.151-0.238 33.573 5.428 46 20.761 5.629 5.446 15.973 31.626 15.973 31.626l61.955 164.54c7.968 19.756 31.928 21.236 38.963 1.488l19.245-51.893 32.859 86.48c-15.973 29.158-31.435 36.305-49.765 42.967-21.346 6.68-46.932 4.477-65.245-6.9-6.086-3.947-22.059-14.318-32.86-40.516l-65.242-182.34v166.04l24.417-70.16 31.325 87.586c-4.569 20.113-19.116 36.918-36.021 44.822-18.495 8.717-40.554 5.629-57.276-4.945-16.651-12.354-21.348-26.929-22.061-52.872l0.22-179.6c1.9-29.908 21.017-46.192 37.794-53.484 7.657-2.723 10.929-3.464 19.719-3.601z"/>
   <path d="m343.15 299.71c-15.15 0.266-33.572-5.428-46.019-20.734-5.629-5.445-15.955-31.625-15.955-31.625l-61.953-164.54c-7.986-19.784-31.928-21.264-38.964-1.499l-19.245 51.895-32.86-86.481c15.955-29.131 31.453-36.305 49.765-42.984 21.364-6.68 46.95-4.45 65.245 6.926 6.104 3.948 22.059 14.319 32.859 40.518l65.244 182.31v-166.01l-24.397 70.16-31.344-87.586c4.569-20.14 19.135-36.926 36.04-44.821 18.478-8.699 40.555-5.638 57.258 4.943 16.668 12.327 21.347 26.93 22.06 52.845l-0.237 179.62c-1.864 29.908-20.999 46.201-37.795 53.484-7.603 2.713-10.893 3.443-19.702 3.572z"/>
  </g>
  <g transform="matrix(.84587 0 0 .84587 -1.9024 -42.529)" fill="#fff">
   <ellipse cx="260.61" cy="333.97" rx="26.451" ry="25.599" style="paint-order:stroke fill markers"/>
   <path d="m499.33 326.81c2.3 5.86 1.06 12.21 0.24 18.23l-23.03 176.95c-0.78 5.86-1.05 12.12-4.38 17.23-11.13 17.18-40.66 14.35-49.48-3.73-30.34 14.07-69.32 6.51-91.91-18.22-12.97-13.86-20.16-32.47-21.74-51.25-1.6-20.12 1.66-40.97 11.06-58.97 5.78-11.24 14.14-21.2 24.62-28.32 17.1-12.08 38.51-17.75 59.34-15.8 12.56 1.23 25.41 3.94 36.15 10.88l5.41-41.71c0.54-4.78 2.13-9.56 5.33-13.23 12.82-15.05 41.3-10.77 48.39 7.94zm-103.12 84.41c-6.82 0.81-13.45 3.83-18.23 8.83-5.38 5.98-9.26 13.36-11.31 21.13-3.16 12.96-2.92 27.84 5.06 39.08 9.41 12.55 27.05 16.82 41.85 13.12 5.85-1.6 11.765-5.9822 12.69-12.43l6.05-47c1.07-8.87-5.36-17.04-13.39-20.09-7.19-2.7-15.1-3.43-22.72-2.64z"/>
   <path d="m152.05 335.99c5.8578-13.069 21.61-18.98 35.03-15.71 8.35 1.61 15.92 7.68 18.61 15.86 1.78 5.25 0.78 10.584-1.56 15.92l-42.38 92.78 79.56 72.79c3.72 3.42 6.14 8.28 6.27 13.37 0.23 8.21-4.12 16.16-10.71 20.93-8.55 5.59-19.65 8.15-29.46 4.42-6.5-2.06-11.19-7.2-16.09-11.65l-69.39-63.71 12.07 66.02c1.09 5.86 0.5 12.16-2.47 17.41-8.53 15.31-31.76 19.39-45.13 8.17-4.71-3.91-7.49-9.7-8.51-15.66l-33.17-180.99c-1.1546-6.6044-2.28-13 0.16-19.15 3.84-10.25 14.36-16.82 25.03-17.65 9.99-1.24 20.86 3.1 26.25 11.81 3.1114 4.9906 4.01 11.55 5.14 17.52l10.47 56.99z"/>
   <path d="m261.48 368.7c9.88-1.89 21.16 1.25 27.25 9.6 2.74 3.66 3.6778 8.1772 4.33 12.71l13.48 126.1c0.61 5.67-0.83 11.6-4.36 16.12-9.68 12.6-30.49 14.46-42.23 3.74-4.22-3.8-6.4773-9.4095-7.04-14.94l-12.95-121.09c-0.61-5.24-1.44-10.71 0.43-15.79 3.12-8.96 11.92-15.05 21.09-16.45z"/>
   <path d="m553.5 388.79c16.21-2.76 32.86-0.24 48.53 4.21 12.85 3.89 24.57 10.8 35.31 18.77 4.77 3.75 9.83 7.51 12.94 12.86 5 8.31 4.76 19.7-1.17 27.48-3.83 5.11-9.55 9.06-16 9.78-8.18 1.15-16.49-1.91-22.65-7.26-9.46-7.88-20.01-15.29-32.4-17.46-4.65-0.72-9.99-0.98-14 1.88-3.18 2.67-2.67 7.81 0.23 10.5 7.49 7.72 17.7 11.82 26.73 17.38 11.94 7.24 25.23 12.79 35.11 22.94 9.43 9.23 13.71 23.05 12.26 36.05-1.73 15.84-9.19 31.66-22.47 40.97-14.87 10.47-33.93 13.23-51.7 11.39-25.64-2.82-50.72-13.12-69.89-30.57-5.41-4.44-9.64-10.62-10.46-17.7-1.8-11.9 5.44-25.4 17.46-28.52 8.41-2.37 17.52 0.64 24 6.2 11.04 9.71 24.37 16.89 38.69 20.37 4.8 1.13 10.15 1.9 14.77-0.33 4.24-2.05 5.88-7.96 3.36-11.94-2.92-4.72-7.68-7.93-12.44-10.59-14.23-7.84-28.92-15.13-41.61-25.4-6.01-5.03-11.99-10.52-15.29-17.78-5.03-10.08-5.43-21.97-2.45-32.72 3.12-12.36 9.99-24.1 20.61-31.43 6.69-4.7 14.5-7.66 22.53-9.08z"/>
  </g>
 </g>
 <g transform="matrix(.28996 0 0 .28996 227.85 -.0041038)" fill="#4a45d0">
  <path d="m97.1 0.5c25.5-0.4 56.5 9.1 77.4 34.9 9.5 9.2 26.9 53.2 26.9 53.2l104.2 276.7c13.4 33.2 53.7 35.7 65.5 2.5l32.4-87.3 55.3 145.4c-26.9 49-52.9 61.1-83.7 72.3-35.9 11.2-78.9 7.5-109.7-11.6-10.2-6.6-37.1-24.1-55.3-68.1l-109.8-306.7v279.2l41.1-118 52.6 147.4c-7.7 33.8-32.1 62.1-60.6 75.4-31.1 14.7-68.2 9.5-96.3-8.3-28-20.9-35.9-45.4-37.1-89l0.4-302c3.2-50.3 35.3-77.7 63.5-90 12.9-4.6 18.4-5.8 33.2-6zm480 503.5c-25.5 0.4-56.5-9.1-77.4-34.9-9.5-9.2-26.8-53.2-26.8-53.2l-104.2-276.6c-13.4-33.3-53.7-35.8-65.5-2.5l-32.4 87.2-55.3-145.4c26.8-49 52.9-61.1 83.7-72.3 35.9-11.2 79-7.5 109.7 11.6 10.3 6.6 37.1 24.1 55.3 68.1l109.7 306.6v-279.1l-41 118-52.7-147.3c7.7-33.9 32.2-62.1 60.6-75.4 31.1-14.6 68.2-9.5 96.3 8.3 28 20.7 35.9 45.3 37.1 88.9l-0.4 302.1c-3.1 50.3-35.3 77.7-63.6 89.9-12.8 4.6-18.3 5.8-33.1 6z"/>
  <path class="st0" d="m335.6 572.9h-44.5v155.7h11.1v-59.2h33.4c30.2 0 54.7-12.2 54.7-48.3 0-33.1-24.1-48.2-54.7-48.2zm0.8 87.6h-34.2v-78.5h33.4c30.7 0 43.8 16.7 43.8 38.5 0 26.9-14.9 40-43 40z"/>
  <path class="st0" d="m435 720.3c-10.9 0-17.8-4.7-17.8-21.1v-126.3h-10.7v126.5c0 17.1 6.2 30.5 28.5 30.5 13.1 0 23.6-7.8 23.6-7.8l-4.9-8.5c-0.1 0-9.2 6.7-18.7 6.7z"/>
  <path class="st0" d="m547.5 674.7c0 20-14.2 45.8-42.3 45.8-19.1 0-30.9-10.9-30.9-31.8v-76.7h-10.7v76.1c0 22.9 11.6 42.5 40.9 41.6 17.6-0.4 33.6-8.5 42.9-28.7l1.8 27.6h8.9v-116.6h-10.7v62.7z"/>
  <path class="st0" d="m588.8 641.1c-0.4-16.5 14.7-21.1 30.7-21.1 20.9 0 35.4 10.5 35.4 10.5l4.4-8.9s-18-10.7-39.1-10.7c-27.1 0-41.8 11.3-41.6 30.9 0.4 38.5 74 19.3 74 54.3 0 16.9-13.8 24.7-34.9 24.7-24.9 0-36.9-13.3-36.9-13.3l-6 7.6s14 14.5 42.9 14.9c26 0.4 45.6-10.9 45.6-34 0-42.9-73.8-25.7-74.5-54.9z"/>
  <polygon class="st0" points="10.8 606.2 51.1 606.2 51.1 728.5 89.1 728.5 89.1 606.2 129.4 606.2 120.4 572.6 10.8 572.6"/>
  <path class="st0" d="m262.5 572.9-40.1 136.4c-8.1 27.5-47 27.5-55.1 0l-40.1-136.4h8.3c17.4 0 32.6 11.8 36.9 28.6l22.4 87 29.8-115.6z"/>
 </g>
</svg>
