<svg width="796.23" height="800" space="preserve" version="1.1" viewBox="0 0 796.23 800" xmlns="http://www.w3.org/2000/svg">
 <link rel="stylesheet" type="text/css"/>
 <link rel="stylesheet" type="text/css"/>
 <style lang="en" type="text/css"/>
 <g transform="matrix(1.8608 0 0 1.8608 0 .050764)">
  <path d="m270.3 7.6c-7.9-5.4-17.4-8.1-27-7.5-4.8 0.3-9.5 1.4-14 3.6-12 6-22.1 18.4-25.5 33.3l22.1 64.6 17.2-49.6 0.7-2v122.2l-46.7-134.2c-7.6-19.4-19.2-27.3-23.6-30.3-7.6-4.7-17-7.3-26.7-7.7h-0.7c-6.5-0.2-13 0.7-19.2 2.7-12.9 4.9-24 10.4-35.6 31.8l23.5 63.6 14-38.3c2.4-7.2 7.9-10.6 13.5-10.3s11.2 4.1 13.9 11.3l44.2 121.8s7.7 19.4 11.5 23.3c9.1 10.9 22.1 15.4 32.7 14.9 6.3 0 8.7-0.5 14.4-2.5 12-5.5 25.5-17.4 27-39.3v-132.6c-0.4-18.9-3.8-29.8-15.7-38.8"/>
  <path d="m157.7 161.2c-2.8 7.6-8.7 10.8-14.6 10.2-5.3-0.6-10.6-4.4-13.3-11.2l-44.3-121.2s-7.7-19.4-11.5-23.3c-8.7-11.5-22.1-15.5-32.7-15.5-6.2 0-8.7 0.5-13.9 2.5-12.1 5.5-26 17.4-27.4 39.7v132.2c0.4 19.4 3.8 29.8 15.8 39.2 8.5 5.3 18.7 8.1 28.7 6.9 4.2-0.4 8.4-1.6 12.2-3.4 12-6 22.6-18.4 25.5-32.8l-22.1-64.6-16.2 48.4-1.1 3.3v-122.7l46.2 134.6c7.7 19.4 19.2 26.9 23.5 29.8 8.8 5.7 20.1 8.2 31.2 7.7 5.3-0.2 10.5-1.1 15.5-2.7 13-5 24-9.9 35.6-31.3l-23.5-64.1zm-33.8 89 11.1 39.2h-45.1v140.5l-42.9-0.1v-140.4h-45v-39.2zm12.3 0c23.1 0 43.2 16.1 48.9 39.2l22.8 91.9 0.5 2 0.5-2 32-131.1h43.4l-45.2 155.6c-4.1 14.2-16.8 24-31.2 24-14.5 0-27.2-9.9-31.3-24.2l-44.3-155.4z"/>
 </g>
 <g transform="matrix(1.8608 0 0 1.8608 0 .050764)">
  <path d="m305.5 345v32.7h27v-32.7h19.9v84.9h-19.9v-33.8h-27v33.8h-20v-84.9z"/>
  <path d="m388.1 345c22.8 0 39.8 11.9 39.8 40 0 31-17.8 44.9-41.4 44.9h-29.2v-84.9zm-10.8 67.7h9c16.7 0 21.6-11.6 21.6-26.8 0-16.7-6.4-24.4-20.5-24.4h-10.1z"/>
 </g>
</svg>
