<svg width="480pt" height="591.75pt" version="1.1" viewBox="0 0 480 591.75" xmlns="http://www.w3.org/2000/svg">
 <defs>
  <linearGradient id="a" x1="178.95" x2="743.37" y1="1991.5" y2="2464.7" gradientUnits="userSpaceOnUse">
   <stop stop-color="#06b0fe" offset="0"/>
   <stop stop-color="#0283fa" offset=".25"/>
   <stop stop-color="#0164f6" offset=".5"/>
   <stop stop-color="#0052f4" offset=".75"/>
   <stop stop-color="#0047f3" offset="1"/>
  </linearGradient>
  <filter id="c" color-interpolation-filters="sRGB">
   <feFlood flood-color="rgb(0,0,0)" flood-opacity=".4" result="flood"/>
   <feComposite in="flood" in2="SourceGraphic" operator="in" result="composite1"/>
   <feGaussianBlur result="blur" stdDeviation="8"/>
   <feOffset dx="4" dy="11" result="offset"/>
   <feComposite in="SourceGraphic" in2="offset" result="composite2"/>
  </filter>
  <filter id="b" color-interpolation-filters="sRGB">
   <feFlood flood-color="rgb(0,0,0)" flood-opacity=".45" result="flood"/>
   <feComposite in="flood" in2="SourceGraphic" operator="in" result="composite1"/>
   <feGaussianBlur result="blur" stdDeviation="7"/>
   <feOffset dx="7" dy="7" result="offset"/>
   <feComposite in="SourceGraphic" in2="offset" result="composite2"/>
  </filter>
 </defs>
 <g transform="matrix(2.7857 0 0 2.7857 413.59 1492.4)" fill="#fff" stroke-width="1px" aria-label="DARWIN">
  <path d="m-128.75-351.32h9q4.66 0 7.02 2.08 2.38 2.08 2.38 6.64v10.56q0 4.56-2.38 6.64-2.36 2.08-7.02 2.08h-9q-0.68 0-0.68-0.68v-26.64q0-0.68 0.68-0.68zm2.44 25.2h6.6q3.4 0 4.82-1.42 1.42-1.44 1.42-4.54v-10.48q0-3.1-1.42-4.52-1.42-1.44-4.82-1.44h-6.6z"/>
  <path d="m-102.61-330.24-2.08 6.32q-0.1 0.34-0.3 0.48-0.2 0.12-0.58 0.12h-1.88q-0.56 0-0.56-0.44 0-0.16 0.12-0.52l8.96-26.28q0.14-0.42 0.34-0.58 0.22-0.18 0.66-0.18h1.44q0.44 0 0.64 0.18 0.22 0.16 0.36 0.58l8.96 26.28q0.12 0.36 0.12 0.52 0 0.44-0.56 0.44h-1.88q-0.38 0-0.58-0.12-0.2-0.14-0.3-0.48l-2.1-6.32zm5.4-16.28-4.46 13.48h8.92z"/>
  <path d="m-67.31-323.92-6.34-11.16h-6.18v11.08q0 0.68-0.68 0.68h-1.76q-0.68 0-0.68-0.68v-26.64q0-0.68 0.68-0.68h10.24q3.62 0 5.56 2.04 1.96 2.04 1.96 6.08 0 7.08-5.82 8l6.3 10.92q0.2 0.34 0.2 0.52 0 0.44-0.56 0.44h-1.92q-0.64 0-1-0.6zm-1.52-15.24q1.2-1.3 1.2-4.04t-1.2-4.02q-1.18-1.3-3.64-1.3h-7.36v10.64h7.36q2.46 0 3.64-1.28z"/>
  <path d="m-36.705-329.08 6.32-21.64q0.16-0.6 0.88-0.6h1.84q0.56 0 0.56 0.44 0 0.2-0.12 0.56l-7.72 26.24q-0.12 0.4-0.34 0.58t-0.66 0.18h-1.44q-0.8 0-1-0.76l-6.16-21.8-6.16 21.8q-0.2 0.76-1 0.76h-1.44q-0.44 0-0.66-0.18t-0.34-0.58l-7.72-26.24q-0.12-0.36-0.12-0.56 0-0.44 0.56-0.44h1.84q0.72 0 0.88 0.6l6.32 21.64 6.12-21.48q0.2-0.76 1-0.76h1.44q0.8 0 1 0.76z"/>
  <path d="m-23.341-324v-26.64q0-0.68 0.68-0.68h1.76q0.68 0 0.68 0.68v26.64q0 0.68-0.68 0.68h-1.76q-0.68 0-0.68-0.68z"/>
  <path d="m1.4017-323.96-12.56-21.56v21.52q0 0.68-0.68 0.68h-1.76q-0.68 0-0.68-0.68v-26.64q0-0.68 0.68-0.68h1.6q0.42 0 0.66 0.14 0.26 0.14 0.46 0.5l12.56 21.56v-21.52q0-0.68 0.68-0.68h1.76q0.68 0 0.68 0.68v26.64q0 0.68-0.68 0.68h-1.6q-0.42 0-0.68-0.14-0.24-0.14-0.44-0.5z"/>
 </g>
 <g transform="matrix(.47999 0 0 .47999 -11.236 -798.13)">
  <g transform="translate(9.1169,1105.3)">
   <circle transform="matrix(1.3508,0,0,1.3508,-94.487,-1960.7)" cx="450.69" cy="2234.4" r="370.16" fill="url(#a)"/>
   <path transform="matrix(1.2644,0,0,1.2644,-91.912,-1320.3)" d="m562.09 1694c-77.563 0-137.11 46.605-163.09 98v-91l-117 69v290.5h117v-90.5c21.802 43.811 78.73 98.094 162.62 98.094 107.59 0 186.44-87.222 186.44-185.06 0-116.48-92.998-189.03-185.97-189.03zm0.625 117.03c37.4 0 68.906 30.907 68.906 69.813 0 35.706-27.902 70.156-68.844 70.156-40.716 0-69.969-33.399-69.969-70.031 0-34.669 26.701-69.938 69.906-69.938z" fill="#fff" filter="url(#c)"/>
   <path transform="matrix(1.2644,0,0,1.2644,-91.912,-1320.3)" d="m213 1889v-117.28c26.456 0 69-19.562 69-70.721h117c0 106.13-83.701 188-186 188z" fill="#fff" filter="url(#b)"/>
  </g>
 </g>
</svg>
