<svg width="211.45" height="59.146" version="1.1" viewBox="0 0 198.24 55.449" xmlns="http://www.w3.org/2000/svg">
 <g transform="translate(0 -.00049266)" fill="#ed1c24">
  <path d="m22.533 26.06v-8.2572h19.89v16.92c-3.8076 2.4726-7.1747 4.1557-10.101 5.049-2.9267 0.89344-6.398 1.3401-10.414 1.3401-4.9442 0-8.9743-0.80311-12.09-2.4094-3.1162-1.6063-5.5315-3.9978-7.2458-7.1742-1.7144-3.1765-2.5716-6.8223-2.5716-10.937 0-4.3316 0.93772-8.0992 2.8131-11.303 1.8754-3.2036 4.6221-5.6356 8.2403-7.2961 2.8225-1.2814 6.6206-1.9221 11.394-1.9222 4.6031 6e-5 8.046 0.39699 10.329 1.1912 2.2826 0.7942 4.177 2.026 5.6829 3.6954 1.506 1.6695 2.6378 3.7857 3.3956 6.3485l-12.417 2.1117c-0.51149-1.498-1.3781-2.6441-2.5999-3.4383-1.2219-0.79413-2.78-1.1912-4.6742-1.1912-2.8226 3e-5 -5.0721 0.93406-6.7485 2.802-1.6765 1.868-2.5147 4.8234-2.5147 8.8663 0 4.2956 0.84772 7.3637 2.5431 9.2047 1.6954 1.841 4.0586 2.7614 7.0895 2.7614 1.4397 0 2.8131-0.19844 4.1201-0.59561 1.3071-0.39696 2.8036-1.0739 4.4896-2.0304v-3.736z"/>
  <path d="m43.184 0.06h12.41l4.4736 22.626 6.5227-22.626h12.382l6.5516 22.626 4.4736-22.626h12.353l-9.3223 40.5h-12.815l-7.4174-25.499-7.3885 25.499h-12.815z"/>
  <path d="m103.76 0h12.189l15.907 22.392v-22.392h12.305v40.477h-12.305l-15.82-22.226v22.226h-12.276z"/>
  <path d="m0 55.45v-13.325h143.91l-6.3314 13.325z"/>
 </g>
 <g transform="matrix(1.9274 0 0 1.9274 164.89 -16.676)" fill="#ed1c24" fill-rule="evenodd">
  <polygon transform="translate(-10.141 8.4507)" points="21.332 0.2028 4.5453 28.946 16.836 28.946 27.442 10.392"/>
  <polygon transform="translate(-10.141 8.4507)" points="0 0.2028 5.985 10.392 14.576 10.392 20.513 0.2028"/>
 </g>
</svg>
