<svg width="211.67mm" height="86.453mm" version="1.1" viewBox="0 0 750 306.33" xmlns="http://www.w3.org/2000/svg">
 <g transform="translate(-319.59 -184.7)" fill="#ba4d2c">
  <path d="m680.48 479.35h-30.714v-139.68h30.714zm106.82-102.41c-1.8286-2.9357-4.1142-5.5071-6.8502-7.7285-2.7354-2.2143-5.8354-3.9428-9.2924-5.1856-3.4571-1.2357-7.0788-1.8571-10.857-1.8571-6.9142 0-12.786 1.3428-17.607 4.0142-4.8285 2.6642-8.7353 6.2571-11.735 10.757-2.9999 4.4999-5.1856 9.6213-6.557 15.357-1.3645 5.7428-2.0503 11.671-2.0503 17.8 0 5.8714 0.68572 11.578 2.0503 17.121 1.3714 5.5428 3.5571 10.528 6.557 14.964 3 4.4357 6.9068 7.9928 11.735 10.664 4.8217 2.6714 10.693 4.0071 17.607 4.0071 9.3924 0 16.728-2.8642 22.007-8.607 5.2856-5.7356 8.5142-13.3 9.6856-22.693h29.736c-0.77886 8.7427-2.8074 16.628-6.0645 23.671-3.2639 7.0428-7.5639 13.043-12.907 18-5.3503 4.9571-11.614 8.7356-18.785 11.343s-15.064 3.9142-23.671 3.9142c-10.7 0-20.314-1.8571-28.857-5.5714-8.5428-3.7214-15.75-8.8356-21.614-15.364-5.8714-6.5142-10.371-14.178-13.5-22.985-3.1285-8.7999-4.6931-18.285-4.6931-28.464 0-10.428 1.5646-20.114 4.6931-29.05 3.1285-8.9356 7.6285-16.721 13.5-23.378 5.8639-6.657 13.071-11.864 21.614-15.65 8.5427-3.7785 18.157-5.6714 28.857-5.6714 7.6924 0 14.964 1.1071 21.814 3.3285 6.8496 2.2143 12.978 5.4428 18.385 9.6784 5.4142 4.2357 9.8856 9.4856 13.407 15.75 3.5217 6.2571 5.736 13.436 6.6502 21.514h-29.736c-0.52574-3.5142-1.7-6.7428-3.5211-9.6784m34.621-11.45v-25.814h114.45v25.814h-41.864v113.86h-30.714v-113.86zm166.68 113.86-45.192-139.68h31.5l31.106 98.206h0.3829l31.5-98.206h31.693l-46.364 139.68z"/>
  <g transform="matrix(1.2819 0 0 1.2819 1671.2 1249.8)" style="shape-inside:url(#rect3176);white-space:pre" aria-label="Indigenous">
   <path d="m-787.44-818.18h-6v28.72h6z"/>
   <path d="m-762.66-804.18c0-4.68-3.24-7.12-7.4-7.12-4.04 0-5.64 2.4-6.4 3.68h-0.08v-3.12h-5.36v21.28h5.6v-12.2c0-3.24 1.92-4.92 4.4-4.92 3.56 0 3.64 2.64 3.64 4.2v12.92h5.6z"/>
   <path d="m-737.64-818.18h-5.6v10.2h-0.08c-0.88-1.36-2.56-3.32-6.16-3.32-4.68 0-8.84 3.6-8.84 10.96 0 5.84 2.64 11.44 8.96 11.44 2.32 0 4.8-0.84 6.16-3.24h0.08v2.68h5.48zm-14.92 18.24c0-3.36 1.2-6.52 4.76-6.52 3.84 0 4.8 3.44 4.8 6.84 0 3.16-1.4 6.12-4.96 6.12-3.6 0-4.6-3.92-4.6-6.44z"/>
   <path d="m-732.1-810.74v21.28h5.6v-21.28zm5.6-7.72h-5.6v5.2h5.6z"/>
   <path d="m-706.59-810.74v3.16h-0.08c-0.68-1.4-2.28-3.72-6.24-3.72-4.68 0-8.84 3.6-8.84 10.96 0 7.44 4.04 11 9.16 11 3.36 0 4.76-1.56 5.68-3.2l0.08 0.08v2.56c0 3.44-1.44 4.88-4.44 4.88-3.24 0-3.68-1.08-3.92-2.16h-6.08c0.24 4.52 4.88 6.4 9.28 6.4 10.48 0 10.76-6.12 10.76-9.8v-20.16zm-9.4 10.76c0-4.96 2.32-6.48 4.4-6.48 3.12 0 4.8 2.8 4.8 6.24 0 2.92-0.96 6.16-4.76 6.16-3.32 0-4.44-3.2-4.44-5.92z"/>
   <path d="m-683.01-795.7c-0.44 1.52-2.04 2.32-3.6 2.32-4.52 0-4.84-3.6-5-5.2h14.6v-1c0-9.72-5.8-11.72-10-11.72-9.32 0-10.2 8.2-10.2 10.76 0 8.76 4.6 11.64 10.6 11.64 3.64 0 7.88-1.68 9.36-6.8zm-8.44-6.52c0.32-2.8 1.72-4.48 4.36-4.48 1.8 0 4 1.04 4.32 4.48z"/>
   <path d="m-653.67-804.18c0-4.68-3.24-7.12-7.4-7.12-4.04 0-5.64 2.4-6.4 3.68h-0.08v-3.12h-5.36v21.28h5.6v-12.2c0-3.24 1.92-4.92 4.4-4.92 3.56 0 3.64 2.64 3.64 4.2v12.92h5.6z"/>
   <path d="m-627.57-800.1c0-7.68-5.16-11.2-10.88-11.2s-10.88 3.52-10.88 11.2 5.16 11.2 10.88 11.2 10.88-3.52 10.88-11.2zm-5.76 0c0 2.72-0.8 6.48-5.12 6.48s-5.12-3.76-5.12-6.48 0.8-6.48 5.12-6.48 5.12 3.76 5.12 6.48z"/>
   <path d="m-604.07-810.74h-5.6v12.28c0 3.8-2.48 4.84-4.32 4.84-1.72 0-3.64-0.64-3.64-3.92v-13.2h-5.6v14c0 5.44 3.04 7.84 7.24 7.84 2.96 0 5.2-1.28 6.48-3.56h0.08v3h5.36z"/>
   <path d="m-580.93-804.26c-0.44-6-5.4-7.04-9.56-7.04-6.64 0-8.6 4-8.6 7.12 0 7.96 13.2 5.28 13.2 8.84 0 0.8-0.68 2.2-3.56 2.2-3.52 0-4.64-1.32-4.64-3.12h-5.76c0.16 5.68 5.4 7.36 10.24 7.36 3.32 0 9.32-1.12 9.32-7.32 0-7.84-13.32-5.4-13.32-8.76 0-0.92 0.4-2.08 3.44-2.08s3.52 1.44 3.76 2.8z"/>
  </g>
  <g transform="matrix(1.2698 0 0 1.2698 1660.7 1283.3)" style="shape-inside:url(#rect3176-9);white-space:pre" aria-label="Community">
   <path d="m-768.64-808.78c-0.32-4.24-3.8-10.16-12.4-10.16-7.4 0-13.2 5.12-13.2 15.16 0 9.92 5.48 15.08 13.12 15.08 7.2 0 11.28-4.36 12.48-10.6h-6c-0.72 3.52-3.04 5.4-6.36 5.4-5.08 0-7.12-4.64-7.12-9.8 0-8.12 4.24-10.04 7.12-10.04 4.96 0 5.88 3.24 6.36 4.96z"/>
   <path d="m-742.89-800.1c0-7.68-5.16-11.2-10.88-11.2s-10.88 3.52-10.88 11.2 5.16 11.2 10.88 11.2 10.88-3.52 10.88-11.2zm-5.76 0c0 2.72-0.8 6.48-5.12 6.48s-5.12-3.76-5.12-6.48 0.8-6.48 5.12-6.48 5.12 3.76 5.12 6.48z"/>
   <path d="m-707.43-804.18c0-4.68-3.24-7.12-7.4-7.12-3.4 0-4.96 2.36-5.68 3.4-1.44-2.28-2.84-3.4-5.92-3.4-3.76 0-5.32 2.28-6.04 3.68h-0.08v-3.12h-5.36v21.28h5.6v-12.96c0-2.32 0.84-4.16 3.48-4.16 3.36 0 3.36 2.52 3.36 4.32v12.8h5.6v-12.76c0-2.52 1-4.36 3.8-4.36 1.64 0 3.04 1.04 3.04 4.2v12.92h5.6z"/>
   <path d="m-670.76-804.18c0-4.68-3.24-7.12-7.4-7.12-3.4 0-4.96 2.36-5.68 3.4-1.44-2.28-2.84-3.4-5.92-3.4-3.76 0-5.32 2.28-6.04 3.68h-0.08v-3.12h-5.36v21.28h5.6v-12.96c0-2.32 0.84-4.16 3.48-4.16 3.36 0 3.36 2.52 3.36 4.32v12.8h5.6v-12.76c0-2.52 1-4.36 3.8-4.36 1.64 0 3.04 1.04 3.04 4.2v12.92h5.6z"/>
   <path d="m-646.13-810.74h-5.6v12.28c0 3.8-2.48 4.84-4.32 4.84-1.72 0-3.64-0.64-3.64-3.92v-13.2h-5.6v14c0 5.44 3.04 7.84 7.24 7.84 2.96 0 5.2-1.28 6.48-3.56h0.08v3h5.36z"/>
   <path d="m-620.54-804.18c0-4.68-3.24-7.12-7.4-7.12-4.04 0-5.64 2.4-6.4 3.68h-0.08v-3.12h-5.36v21.28h5.6v-12.2c0-3.24 1.92-4.92 4.4-4.92 3.56 0 3.64 2.64 3.64 4.2v12.92h5.6z"/>
   <path d="m-614.08-810.74v21.28h5.6v-21.28zm5.6-7.72h-5.6v5.2h5.6z"/>
   <path d="m-595.73-816.5h-5.6v5.76h-2.88v4h2.88v12.92c0 2.76 0.88 4.6 5.72 4.6h0.72c0.88 0 1.76-0.04 2.64-0.08v-4.24c-0.4 0.04-0.8 0.08-1.16 0.08-2.28 0-2.32-0.48-2.32-1.72v-11.56h3.48v-4h-3.48z"/>
   <path d="m-568.62-810.74h-5.92l-4.36 15.68h-0.08l-4.56-15.68h-6.24l7.84 22.16c-0.52 2.92-1.64 3.2-3.68 3.2-0.48 0-0.84-0.04-1.08-0.08v4.48c0.8 0.04 1.76 0.08 2.52 0.08 4.88 0 5.6-1.04 8.24-8.92z"/>
  </g>
  <g transform="matrix(1.3031 0 0 1.3031 1687.6 1354.6)" style="shape-inside:url(#rect3176-7);white-space:pre" aria-label="Television">
   <path d="m-780.76-813.1h8.68v-5.08h-23.36v5.08h8.68v23.64h6z"/>
   <path d="m-759.03-795.7c-0.44 1.52-2.04 2.32-3.6 2.32-4.52 0-4.84-3.6-5-5.2h14.6v-1c0-9.72-5.8-11.72-10-11.72-9.32 0-10.2 8.2-10.2 10.76 0 8.76 4.6 11.64 10.6 11.64 3.64 0 7.88-1.68 9.36-6.8zm-8.44-6.52c0.32-2.8 1.72-4.48 4.36-4.48 1.8 0 4 1.04 4.32 4.48z"/>
   <path d="m-743.74-818.18h-5.6v28.72h5.6z"/>
   <path d="m-726.04-795.7c-0.44 1.52-2.04 2.32-3.6 2.32-4.52 0-4.84-3.6-5-5.2h14.6v-1c0-9.72-5.8-11.72-10-11.72-9.32 0-10.2 8.2-10.2 10.76 0 8.76 4.6 11.64 10.6 11.64 3.64 0 7.88-1.68 9.36-6.8zm-8.44-6.52c0.32-2.8 1.72-4.48 4.36-4.48 1.8 0 4 1.04 4.32 4.48z"/>
   <path d="m-697.99-810.74h-5.96l-4.52 15.68h-0.08l-4.4-15.68h-6.24l7.64 21.28h5.88z"/>
   <path d="m-694.9-810.74v21.28h5.6v-21.28zm5.6-7.72h-5.6v5.2h5.6z"/>
   <path d="m-666.61-804.26c-0.44-6-5.4-7.04-9.56-7.04-6.64 0-8.6 4-8.6 7.12 0 7.96 13.2 5.28 13.2 8.84 0 0.8-0.68 2.2-3.56 2.2-3.52 0-4.64-1.32-4.64-3.12h-5.76c0.16 5.68 5.4 7.36 10.24 7.36 3.32 0 9.32-1.12 9.32-7.32 0-7.84-13.32-5.4-13.32-8.76 0-0.92 0.4-2.08 3.44-2.08s3.52 1.44 3.76 2.8z"/>
   <path d="m-661.91-810.74v21.28h5.6v-21.28zm5.6-7.72h-5.6v5.2h5.6z"/>
   <path d="m-630.62-800.1c0-7.68-5.16-11.2-10.88-11.2s-10.88 3.52-10.88 11.2 5.16 11.2 10.88 11.2 10.88-3.52 10.88-11.2zm-5.76 0c0 2.72-0.8 6.48-5.12 6.48s-5.12-3.76-5.12-6.48 0.8-6.48 5.12-6.48 5.12 3.76 5.12 6.48z"/>
   <path d="m-607.65-804.18c0-4.68-3.24-7.12-7.4-7.12-4.04 0-5.64 2.4-6.4 3.68h-0.08v-3.12h-5.36v21.28h5.6v-12.2c0-3.24 1.92-4.92 4.4-4.92 3.56 0 3.64 2.64 3.64 4.2v12.92h5.6z"/>
  </g>
  <g transform="matrix(4.1725 0 0 4.1725 -1013.9 -1396.5)">
   <path d="m393.79 418.9c0.615 8.1912-1.8975 13.8-5.0125 18.595-3.68 5.66-8.5388 9.9925-15.379 12.48-6.6938 2.43-15.989 3.1225-24.09 1.5875-15.335-2.895-25.2-12.284-28.678-27.016-0.89375-3.7688-1.3825-8.1075-0.7675-12.594 0.53375-3.9138 1.6562-7.5238 3.135-10.772 2.905-6.3888 7.2762-11.635 12.53-15.309 4.18-2.9125 8.8312-5.0575 14.668-6.205 6.3825-1.2562 14.396-0.78 20.05 1.0025 7.7138 2.4425 13.906 6.845 17.795 13.069 1.9475 3.1225 3.4838 7.525 3.375 12.798 0 2.55-1.9162-1.3775-2.2775-1.1038 0.60875 3.0262 2.31 7.315 0.2475 10.232-0.425 0.14-1.0025-2.3788-1.8775-3.3938-0.65375-0.77375-2.24 3.1912-2.595 1.6112-0.43125-1.96-0.78625-4.13-1.7388-6.7-1.6362-4.4088-1.1925-3.7112-3.7812-7.7525-3.8825-6.065-9.4088-9.4725-18.558-10.43-10.011-1.06-14.262 1.5862-19.68 5.5262-3.02 2.195-5.5775 4.8788-7.455 8.2662-3.02 5.4625-3.1975 6.7825-3.4262 11.858-0.22875 5.21 0.7875 8.0838 2.3925 11.618 1.3888 3.0512 3.0388 5.6588 4.555 7.22 4.3588 4.485 7.7012 7.3662 18.881 8.7425 4.9162 0.59625 12.55-0.825 16.204-3.0075 5.9262-3.5138 7.5875-5.665 9.7575-9.39 1.46-2.5125 1.9162-5.5312 2.7088-8.4562 0.81875-3.0075 2.5188-2.2975 3.2875-1.5038 0.96375 1.0088 0.1775 4.6062-0.21625 6.5912-0.33 1.6625-0.425 3.3562 0.15875 3.4075 0.90125-0.6025 1.1225-1.9538 1.5738-3.1088 1.1675-2.995 1.3388-5.9962 2.245-9.4525 0.17125-0.64875 0.7425-1.5688 1.2375-1.5112 0.4125 0.0513 0.65375 2.1062 0.73 3.1025"/>
   <path d="m372.19 415.98c1.96 0.0437 1.6362 5.1388 0.8125 7.0612-1.675 3.9088-4.835 7.0238-8.8262 8.5338-2.9938 1.1362-6.1212 1.815-10.55 0.755-4.0738-0.9775-6.0662-2.7212-7.8675-4.6638-1.89-2.0175-3.2862-4.6625-4.06-7.5812-0.8625-3.2738-0.2725-7.7975 0.90625-10.455 2.095-4.6962 7.9688-9.3775 14.605-9.7388 4.125-0.21625 7.545 1.1662 9.9812 2.8488 2.6825 1.8388 4.7138 5.6012 4.085 9.4012-0.285 0.16-0.48125-0.2025-0.78125-0.215 0.3 1.0525 0.7375 3.445-0.3925 3.6925-0.40625 0.0888-1.0662-0.26-1.3388-0.5075-1.0025-0.8825-1.6175-2.24-2.2012-3.4775-0.60875-1.275-1.4912-2.3662-2.3862-3.1462-2.5875-2.29-7.6312-2.7162-10.836-1.0025-2.8288 1.51-5.1825 4.7838-4.91 8.8312 0.18375 2.8175 1.2812 5 2.88 6.51 1.6125 1.5412 3.655 2.3475 6.7125 2.36 3.1088 0.0187 5.3675-1.4025 6.91-2.9562 1.135-1.13 2.0675-2.0562 2.7088-3.9275 0.11375-0.32375 0.24625-1.58 0.84375-1.5738 0.64125 0.02 0.77375 1.5925 0.72375 2.525-0.0325 0.705-0.255 1.2438-0.1075 1.84 1.0325-0.21625 1.2612-1.5412 1.6738-2.5125 0.4375-1.0212 0.5075-2.1562 1.415-2.6012"/>
  </g>
 </g>
</svg>
