<svg width="508.2pt" height="699.88pt" version="1.1" viewBox="0 0 508.2 699.88" xmlns="http://www.w3.org/2000/svg">
 <g transform="translate(-20.531 -25.1)" fill="#e72111">
  <path d="m302.57 25.1c1.09 0.63 2.1 1.39 3 2.27 25.8 23.79 48.73 50.69 68.24 79.86 21.06 31.69 37.85 66.62 46.29 103.86 0.69 2.81-1.77 4.76-3.04 6.94-21.42 32.55-39.03 67.6-52.51 104.15-1.05-2.58-1.31-5.38-1.97-8.06-15.78-66.68-61.79-125.56-122.9-156.64l0.02-0.05c13.17-47.28 35.09-91.95 62.87-132.33z"/>
  <path d="m243.08 311.3c28.26 10.44 58.45 15.6 88.58 15.23 10.79-0.27 21.61-0.99 32.23-3.03-8.07 22.72-15.05 45.86-19.88 69.5-0.58 2.71-1.38 5.4-1.24 8.21-0.16 0.88-0.34 1.77-0.55 2.66-0.04-1.13-0.08-2.25-0.13-3.36-1.64 0.75-3.27-0.34-4.83-0.72-27.64-9.37-52.6-26.6-71.08-49.19-9.08-11.07-16.47-23.47-22.26-36.55-0.36-0.9-0.64-1.81-0.84-2.75z"/>
 </g>
 <g transform="translate(-20.531 -25.1)">
  <path d="m472.1 150.02c13.27-13.12 27.15-25.82 42.76-36.12 3.8 22.16 4.17 44.76 3.1 67.17-2.67 49.77-14.43 98.84-32.75 145.12-15.27 38.47-35 75.22-59.22 108.82-21.62 29.84-46.58 57.47-75.52 80.38-4.18 3.2-8.31 6.52-12.86 9.19-3.81-23.99-3.48-48.47-1.84-72.65 1.33-16.11 3.17-32.23 6.45-48.06 0.21-0.89 0.39-1.78 0.55-2.66l0.1-0.53c1.77-0.14 3.25-1.2 4.74-2.06 34.45-20.64 61.05-54.5 71.63-93.37 7.96-29.39 8.18-60.73 1.71-90.43-0.67-2.79 1.72-4.72 3.06-6.81 14.35-20.65 30.4-40.12 48.09-57.99z"/>
  <path d="m31.88 286.3c22.89-0.57 45.7 2.75 68 7.66 39.17 8.91 76.9 23.78 112.1 43.06 28.37 15.8 55.41 34.53 78.2 57.78 1 1.21 2.57 2.14 2.71 3.87-29.83-0.03-59.44-5.43-88.09-13.47-36.01-10.27-70.72-25.1-103.04-43.99-24.38-14.44-47.64-31.14-67.5-51.46-0.99-1-2.01-2.05-2.38-3.45z"/>
  <path d="m28.63 543.79c6.05-4.27 14.65-4.27 20.71-0.03 4.28 3.06 7.17 7.56 10.33 11.67 24.75 32.88 49.52 65.74 74.25 98.63 1.17 1.35 1.91 3.29 3.71 3.94-0.17-31.32-0.02-62.65-0.08-93.97-0.02-4.27-0.27-8.78 1.72-12.71 2.86-6.44 9.69-10.82 16.74-10.75 6.14-0.03 12.28-0.03 18.43 0.01 0.01 53.48 0 106.95 0.01 160.43-0.01 4.3 0.34 8.85-1.58 12.85-2.66 6.24-9 10.7-15.78 11.04-6.07 0.42-12.12-2.48-15.79-7.29-27.51-36.56-55.06-73.11-82.57-109.68-0.33-0.24-1-0.73-1.33-0.98 0.1 31.02 0.01 62.03 0.04 93.05-0.07 4.4 0.47 9.01-1.29 13.19-2.51 6.57-9.06 11.42-16.13 11.69-6.46 0.18-12.94-0.04-19.4 0.1-0.15-54.98-0.01-109.97-0.07-164.96-0.29-6.32 2.78-12.72 8.08-16.23z"/>
  <path d="m197.08 558.95c-0.18-9.32 7.75-17.83 17.05-18.31 6.61-0.19 13.22-0.06 19.84-0.06-0.08 55.47 0.03 110.95-0.06 166.42-0.06 9.17-7.9 17.39-17.05 17.87-6.6 0.18-13.2-0.01-19.8 0.09 0-55.34-0.02-110.68 0.02-166.01z"/>
  <path d="m243.56 540.59c46.82-0.08 93.65-0.01 140.47-0.03 7.61-0.26 14.89 4.69 17.67 11.73 13.35 33.75 26.65 67.52 39.94 101.29 0.67 1.34 0.81 3.2 2.24 4 12.52-32.28 25.29-64.47 37.93-96.71 2.37-5.89 4.29-12.57 9.62-16.52 3.84-3.03 8.85-3.71 13.59-3.79 7.9-0.05 15.81 0.06 23.71-0.05-2.54 7.64-5.75 15.05-8.53 22.62-7.91 18.95-15.14 38.2-22.74 57.28-12 30.58-24.04 61.14-36.02 91.73-2.23 5.12-6.2 9.74-11.58 11.64-7.44 2.93-16.58 0.12-21.18-6.38-2.21-2.78-3.41-6.15-4.64-9.43-17.17-43.51-34.31-87.03-51.49-130.54-12.8-0.03-25.61 0.12-38.41-0.08-0.46 40.21-0.07 80.45-0.2 120.67-0.18 5.22 0.73 10.7-1.47 15.63-2.66 6.53-9.37 11.13-16.42 11.26-6.34 0.09-12.67-0.01-19 0.04-0.1-49.2 0.25-98.4-0.17-147.59-11.96 0.14-23.92 0.11-35.88 0.03-9.12-0.28-17.12-8.3-17.39-17.42-0.14-6.46-0.01-12.92-0.05-19.38z"/>
 </g>
 <g transform="translate(-20.531 -25.1)">
  <path d="m90.27 134.56c22.22-4.81 45.29-4.77 67.81-2.26 28.46 3.28 56.14 12.11 81.62 25.13l-0.02 0.05c-2.88 7.64-4.57 15.65-6.11 23.65-2.86 16.14-4.55 32.49-5.27 48.86 0.03 17.75 1.65 35.53 5.25 52.92 2.09 9.42 4.58 18.87 8.93 27.53-1.64 0.36-3.13-0.75-4.63-1.22-30.01-11.95-57.64-29.86-80.74-52.44-27.43-26.72-48.27-60.14-60.28-96.5-2.75-8.42-5.04-16.99-6.56-25.72z" fill="#ff8200"/>
 </g>
</svg>
