<svg width="800" height="192.02" xmlns:cc="http://creativecommons.org/ns#" xmlns:dc="http://purl.org/dc/elements/1.1/" xmlns:rdf="http://www.w3.org/1999/02/22-rdf-syntax-ns#" space="preserve" version="1.1" viewBox="0 0 800 192.02" xmlns="http://www.w3.org/2000/svg">
 <metadata>
  <rdf:RDF>
   <cc:Work rdf:about="">
    <dc:format>image/svg+xml</dc:format>
    <dc:type rdf:resource="http://purl.org/dc/dcmitype/StillImage"/>
    <dc:title/>
   </cc:Work>
  </rdf:RDF>
 </metadata>
 <link href="" rel="stylesheet" type="text/css"/>
 <style type="text/css"/>
 <g transform="matrix(.64067 0 0 .64067 -58.986 341.95)" fill="#fff">
  <g transform="matrix(1.4437 0 0 1.4437 -105.43 -917.76)" fill="#fff">
   <path d="m136.8 380.3c10.1-9.7 19.4-23 26.2-38.7s10.2-31.5 10.4-45.6l-0.1 0.1c-10.1 9.7-19.3 23-26.1 38.6s-10.2 31.4-10.4 45.4"/>
   <path d="m147.8 402.3c13.6-13.1 26.1-30.9 35.3-52s13.8-42.3 14.1-61.2l-0.2 0.2c-13.6 13-26 30.8-35.1 51.8s-13.7 42.2-14.1 61"/>
   <path d="m162.7 433.2c18.6-17.8 35.5-41.9 48-70.6s18.8-57.5 19.2-83.2l-0.2 0.2c-18.5 17.7-35.3 41.9-47.8 70.4-12.5 28.6-18.7 57.3-19.2 82.9"/>
   <path d="m183.2 473.6c25-24 47.7-56.7 64.4-95.3 16.8-38.7 25.1-77.6 25.6-112.3l-0.3 0.3c-24.8 24-47.5 56.6-64.2 95.1s-25 77.7-25.5 112.2"/>
  </g>
 </g>
 <g transform="matrix(.2811 0 0 .2811 -.00069382 -.02837)" fill="#fff">
  <path d="m462.5 205.4h90.4l47.9 182 49.8-182h90.4l-95 273.6h-90.1z"/>
  <path d="m752.4 479v-273.6h89.7v273.6z"/>
  <path d="m1057.1 309.9c-1.3-14.2-6.2-25.2-14.8-33.1-8.6-7.8-19.9-11.8-33.8-11.8-16 0-28.4 6.8-37.2 20.3-8.9 13.6-13.3 33.4-13.3 59.5 0 10.6 0.8 20.3 2.3 28.9s4.2 16.4 8 23.4 9.3 12.4 16.5 16.3 16.3 5.9 27.2 5.9c13.7 0 24.3-4.2 31.9-12.7s12.3-19.7 14.1-33.6h86.3c-4.1 35.2-17.8 62.9-41.2 83s-53.3 30.2-89.5 30.2c-22.3 0-42.4-3.3-60.4-9.9s-33.3-16.2-46-28.9-22.3-27.9-28.9-45.8-9.9-37.8-9.9-59.9c0-21.8 3.5-41.5 10.4-59.3 7-17.7 16.7-32.9 29.1-45.6s26.9-22.3 43.5-28.9 34.4-9.9 53.4-9.9c41.3 0 73.7 9.7 97.1 29.1s36.9 46.9 40.5 82.6h-85.3z"/>
  <path d="m1178.4 479v-273.6h223.1v63.8h-133.5v39.1h112.9v63.9h-112.9v43h138.7v63.8z"/>
  <path d="m1443.6 479v-273.6h89.7v209.8h123.1v63.8z"/>
  <path d="m1673.5 479 98-273.6h91.2l98 273.6h-89.3l-10.6-36.1h-89.3l-10.3 36.1zm142.9-191.1-27.7 98h56.6z"/>
  <path d="m2157.2 354.8-3.4-62.3v-87h85.9v273.6h-84l-97.7-149 3.4 62.3v86.6h-85.9v-273.6h84z"/>
  <path d="m2279.2 479v-273.6h120.1c45.3 0 80.5 10.8 105.5 32.5 24.9 21.7 37.4 54.5 37.4 98.6 0 25.3-3.4 47.1-10.1 65.2s-16.4 32.9-29.1 44.3-27.9 19.8-45.6 25.1-37.9 8-60.4 8h-117.8zm89.7-63.8h19c21.3 0 37.4-5.9 48.3-17.9 10.9-11.9 16.3-30.5 16.3-55.9 0-27.9-4.9-46.9-14.8-57s-27.1-15.2-51.7-15.2h-17.1z"/>
 </g>
 <g transform="matrix(.2811 0 0 .2811 -.00069382 -.02837)" fill="#fff">
  <path d="m2580.8 354.1v-151.2h31.4v57.6h58.8v-57.6h31.4v151.1h-31.4v-67.5h-58.8v67.5h-31.4z"/>
  <path d="m2806.5 206.2c10.6 3.5 19.2 9.9 25.8 19.2 5.3 7.5 8.9 15.7 10.8 24.4 1.9 8.8 2.9 17.1 2.9 25 0 20.1-4 37.1-12.1 51.1-10.9 18.8-27.8 28.2-50.7 28.2h-65.2v-151.2h65.2c9.3 0.1 17.1 1.2 23.3 3.3zm-57.9 23v98.6h29.2c14.9 0 25.3-7.3 31.2-22 3.2-8.1 4.8-17.7 4.8-28.8 0-15.4-2.4-27.2-7.2-35.4s-14.4-12.4-28.8-12.4z"/>
 </g>
</svg>
