<svg width="800" height="339.21" version="1.1" viewBox="0 0 211.67 89.75" xmlns="http://www.w3.org/2000/svg">
 <defs>
  <clipPath id="b-5">
   <path d="m204.01 346.66h52.422v-8.286h-52.422z"/>
  </clipPath>
  <clipPath id="a-5">
   <path d="m204.01 338.37h52.422v8.286h-52.422z"/>
  </clipPath>
  <clipPath id="b-3-5">
   <path d="m204.01 346.66h52.422v-8.286h-52.422z"/>
  </clipPath>
  <clipPath id="a-9-6">
   <path d="m204.01 338.37h52.422v8.286h-52.422z"/>
  </clipPath>
 </defs>
 <g transform="translate(-8.9857 -83.875)">
  <g transform="matrix(4.0376 0 0 -4.0376 11.752 84.401)">
   <path d="m0 0c-0.314 0-0.569-0.26-0.569-0.579v-10.941c0-0.319 0.255-0.579 0.569-0.579l20.097-1e-3v12.098z" fill="#fff"/>
  </g>
  <g transform="matrix(4.0376 0 0 -4.0376 12.317 133.78)">
   <path d="m0 0h19.963v0.258h-19.963c-0.313 0-0.566 0.253-0.566 0.566v10.712c0 0.313 0.253 0.567 0.566 0.567h19.963v0.257h-19.963c-0.455 0-0.824-0.369-0.824-0.824v-10.712c0-0.455 0.369-0.824 0.824-0.824" fill="#918f90"/>
  </g>
  <g transform="matrix(4.0376 0 0 -4.0376 217.31 83.876)">
   <path d="m0 0h-31.029v-12.36h31.029c0.453 0 0.824 0.371 0.824 0.824v10.712c0 0.453-0.371 0.824-0.824 0.824" fill="#a90000"/>
  </g>
  <g transform="matrix(4.0376 0 0 -4.0376 40.016 113.35)">
   <path d="m0 0c0-0.965-0.631-1.671-1.913-1.81-0.929-0.1-2.273 0.018-2.911 0.091-0.024 0.104-0.043 0.234-0.043 0.336 0 0.845 0.457 1.037 0.885 1.037 0.444 0 1.144-0.077 1.665-0.077 0.571 0 0.746 0.195 0.746 0.38 0 0.242-0.231 0.343-0.676 0.428l-1.215 0.234c-1.012 0.193-1.552 0.894-1.552 1.636 0 0.903 0.639 1.659 1.896 1.799 0.95 0.102 2.107-0.014 2.742-0.091 0.023-0.11 0.035-0.213 0.035-0.326 0-0.842-0.444-1.024-0.872-1.024-0.329 0-0.839 0.062-1.421 0.062-0.593 0-0.839-0.164-0.839-0.364 0-0.211 0.234-0.298 0.605-0.363l1.163-0.215c1.194-0.22 1.705-0.898 1.705-1.733m2.086-1.036c0-0.518-0.203-0.817-1.214-0.817-0.134 0-0.251 0.01-0.363 0.026v6.869c0 0.522 0.177 1.066 1.198 1.066 0.129 0 0.258-0.013 0.379-0.039zm4.132-2.658c0.132-0.068 0.404-0.15 0.747-0.159 0.586-0.013 0.907 0.212 1.144 0.738l3.149 7.025c-0.13 0.07-0.417 0.147-0.653 0.153-0.405 7e-3 -0.948-0.076-1.296-0.905l-1.019-2.407-2 3.258c-0.129 0.04-0.444 0.096-0.676 0.096-0.704 0-1.1-0.26-1.509-0.704l-1.944-2.127 1.563-2.461c0.289-0.449 0.671-0.678 1.289-0.678 0.405 0 0.742 0.092 0.897 0.167l-1.882 2.84 1.334 1.414 2.189-3.436z"/>
  </g>
  <g transform="matrix(4.0376 0 0 -4.0376 -814.75 1483.6)" clip-path="url(#b-5)" fill="#fff" opacity=".2">
   <g clip-path="url(#a-5)" fill="#fff">
    <g transform="translate(204.84,346.66)" fill="#fff">
     <path transform="matrix(.065523 0 0 -.065523 -3.0504 20.769)" d="m46.555 316.98c-6.9442 0-12.574 5.632-12.574 12.576v116.2c0-10.134 7.9966-18.451 18.115-18.848l295.74-11.787v-98.147z" fill="#fff" stroke-width="15.262"/>
    </g>
   </g>
  </g>
  <g transform="matrix(4.0376 0 0 -4.0376 11.75 136.47)">
   <path transform="matrix(.27443 0 0 -.27443 -.684 42.562)" d="m2.4922 155.09c-1.1442 0-2.0723 0.94696-2.0723 2.1094v28.83c0 1.1624 0.92807 2.1094 2.0723 2.1094h186.02c1.1442 0 2.0723-0.94696 2.0723-2.1094v-28.83c0-1.1624-0.92807-2.1094-2.0723-2.1094z" fill="#fff" stroke-width="3.6439"/>
  </g>
  <g transform="matrix(4.0376 0 0 -4.0376 12.316 185.85)">
   <path transform="matrix(.27443 0 0 -.27443 -.824 54.792)" d="m3.002 154.62c-1.658 0-3.002 1.3459-3.002 3.0039v27.994c0 1.658 1.344 3.0039 3.002 3.0039l185-2e-3c1.658 0 3.0039-1.344 3.0039-3.002v-27.994c0-1.658-1.3459-3.0039-3.0039-3.0039zm0 0.9375h185c1.1405 0 2.0625 0.92586 2.0625 2.0664v27.994c0 1.1406-0.92196 2.0625-2.0625 2.0625h-185c-1.1405 0-2.0625-0.92195-2.0625-2.0625v-27.994c0-1.1406 0.92195-2.0664 2.0625-2.0664z" fill="#918f90" stroke-width="3.6439"/>
  </g>
  <g transform="matrix(.87317 0 0 .87317 29.521 -167.83)" style="shape-inside:url(#rect2846-1);white-space:pre" aria-label="REGIONAL">
   <path d="m13.018 382.67q-0.64 0-1.28-0.08-0.6-0.04-0.92-0.12v-23.96q0-0.92 0.4-1.48 0.44-0.6 1.92-0.6h6.52q4.48 0 6.96 2.16 2.48 2.12 2.48 5.88 0 1.56-0.52 2.92-0.48 1.32-1.4 2.36t-2.24 1.72-3 0.88l8.08 9.6q-0.64 0.36-1.4 0.52-0.76 0.2-1.44 0.2-1.28 0-2.04-0.36-0.72-0.4-1.52-1.4l-6.52-8.36h-1.8v8.24q0 0.8-0.52 1.36-0.48 0.52-1.76 0.52zm2.28-13.96h3.68q3.04 0 4.32-1.12 1.32-1.16 1.32-3.12 0-1.92-1.2-2.92-1.16-1.04-3.72-1.04h-4.4z"/>
   <path d="m35.498 382.43q-1.48 0-1.92-0.56-0.4-0.6-0.4-1.52v-21.84q0-0.92 0.4-1.48 0.44-0.6 1.92-0.6h13.44q0.08 0.32 0.12 0.88 0.08 0.56 0.08 1.12 0 1.16-0.52 1.64-0.48 0.44-1.2 0.44h-9.76v6.96h10.32q0.04 0.32 0.08 0.84 0.08 0.48 0.08 1.04 0 1.12-0.48 1.56-0.44 0.44-1.12 0.44h-8.88v7h11.64q0.04 0.32 0.08 0.84 0.08 0.48 0.08 1.04 0 1.2-0.48 1.72-0.48 0.48-1.2 0.48z"/>
   <path d="m65.178 382.87q-2.96 0-5.4-1.08-2.4-1.08-4.12-2.92t-2.68-4.28q-0.92-2.48-0.92-5.24t0.96-5.16 2.68-4.16 4.12-2.76q2.44-1.04 5.32-1.04 2.28 0 4.64 0.48t4.28 1.52v0.52q0 1.24-0.52 2t-1.6 0.76q-0.52 0-1.08-0.16-0.52-0.2-1.28-0.4-0.72-0.24-1.76-0.4-1.04-0.2-2.52-0.2-1.88 0-3.44 0.64t-2.72 1.8q-1.12 1.16-1.76 2.84-0.64 1.64-0.64 3.72 0 2.04 0.64 3.8t1.76 3.04q1.16 1.24 2.72 1.96 1.6 0.72 3.48 0.72 1.68 0 2.88-0.32 1.2-0.36 2.24-0.92v-6h-5q-0.72 0-1.2-0.4-0.44-0.44-0.44-1.6 0-1.08 0.2-1.8h8.4q1.48 0 1.88 0.6 0.44 0.56 0.44 1.48v10.28q-2.16 1.28-4.44 2-2.24 0.68-5.12 0.68z"/>
   <path d="m81.538 382.67q-0.64 0-1.28-0.08-0.6-0.04-0.92-0.12v-24.24q0-0.8 0.48-1.32 0.52-0.56 1.8-0.56 0.64 0 1.24 0.08 0.64 0.04 0.96 0.12v24.24q0 0.8-0.52 1.36-0.48 0.52-1.76 0.52z"/>
   <path d="m100.34 382.95q-2.84 0-5.2-1.04-2.36-1.08-4.04-2.92-1.68-1.88-2.64-4.32-0.92-2.48-0.92-5.32 0-2.8 0.92-5.24 0.96-2.48 2.64-4.28t4.04-2.84 5.2-1.04q2.84 0 5.2 1.04t4.04 2.84 2.6 4.24q0.96 2.44 0.96 5.28t-0.96 5.32q-0.92 2.44-2.6 4.32-1.68 1.84-4.04 2.92-2.36 1.04-5.2 1.04zm-0.04-4q1.68 0 3.16-0.72 1.48-0.76 2.6-2.04t1.76-3.04 0.64-3.76-0.64-3.72q-0.6-1.76-1.72-3-1.08-1.28-2.56-2t-3.2-0.72q-1.68 0-3.16 0.72-1.48 0.68-2.6 1.96-1.08 1.24-1.72 2.96t-0.64 3.76q0 2.08 0.6 3.84 0.64 1.76 1.72 3.04 1.12 1.28 2.6 2t3.16 0.72z"/>
   <path d="m118.94 382.67q-0.6 0-1.2-0.04-0.56-0.04-0.88-0.12v-25.76q0.44-0.2 1.12-0.28 0.68-0.12 1.24-0.12 1.6 0 2.28 0.44 0.72 0.4 1.24 1.2l11.64 18-0.24-17.88q0-0.72 0.44-1.24 0.48-0.52 1.68-0.52 0.56 0 1.12 0.08 0.6 0.04 0.92 0.12v25.76q-0.92 0.36-2.16 0.36-1.44 0-2.12-0.4-0.68-0.44-1.12-1.12l-12.04-18.76 0.24 18.52q0 0.76-0.48 1.28-0.44 0.48-1.68 0.48z"/>
   <path d="m143.5 382.67q-0.56 0-1.28-0.12-0.68-0.12-1.08-0.36l8.84-25.56q0.76-0.2 1.48-0.28 0.76-0.08 1.44-0.08 0.96 0 1.56 0.16 0.64 0.12 1.04 0.44 0.44 0.28 0.72 0.76 0.28 0.44 0.52 1.12l8.04 23.4q-0.48 0.2-1.12 0.36-0.6 0.16-1.12 0.16-0.92 0-1.6-0.24-0.68-0.2-1-1.12l-1.92-5.72h-10.24l-1.88 5.72q-0.32 0.88-0.92 1.12t-1.48 0.24zm5.56-10.92h7.72l-3.84-11.6z"/>
   <path d="m169.82 382.43q-1.48 0-1.92-0.56-0.4-0.6-0.4-1.52v-22.12q0-0.8 0.48-1.32 0.52-0.56 1.8-0.56 0.64 0 1.24 0.08 0.64 0.04 0.96 0.12v21.8h12.36q0.08 0.44 0.12 0.92 0.08 0.44 0.08 0.92 0 1.28-0.56 1.76-0.52 0.48-1.48 0.48z"/>
  </g>
  <g transform="matrix(4.0376 0 0 -4.0376 -814.76 1535.6)" clip-path="url(#b-3-5)" opacity=".2">
   <g clip-path="url(#a-9-6)">
    <g transform="translate(204.84,346.66)">
     <path d="m0 0h50.774c0.455 0 0.824-0.369 0.824-0.824v-2.0025l-51.235-2.042c-0.663-0.026-1.187-0.571-1.187-1.235v5.2795c0 0.455 0.369 0.824 0.824 0.824" fill="#fff"/>
    </g>
   </g>
  </g>
  <path d="m92.025 83.875v25.966l128.63-5.1268v-17.512c0-1.8371-1.49-3.3271-3.3271-3.3271z" fill="#c90000" stroke-width="4.0376"/>
  <g transform="matrix(.9999 0 0 .9999 .00086821 .016776)">
   <g transform="matrix(4.038 0 0 -4.038 132.69 107.21)">
    <path d="m0 0h3.594c-0.036 0.986-0.673 1.767-1.707 1.767-0.913 0-1.731-0.613-1.887-1.767m4.472-0.781h-4.472c0.144-1.118 0.926-1.756 2.08-1.756 0.493 0 0.877 0.109 1.238 0.229 0.24 0.084 0.373 0.132 0.469 0.132 0.24 0 0.421-0.228 0.36-0.745-0.505-0.229-1.286-0.469-2.103-0.469-1.792 0-3.018 1.214-3.018 3.005 0 1.719 1.287 2.97 2.861 2.97 1.768 0 2.633-1.407 2.633-2.777 0-0.181-0.012-0.373-0.048-0.589" fill="#fff"/>
   </g>
   <g transform="matrix(4.038 0 0 -4.038 124.37 106.68)">
    <path d="m0 0v-3.09c0-0.228-0.12-0.36-0.493-0.36-0.156 0-0.336 0.024-0.433 0.048v3.282c0 1.178-0.589 1.743-1.442 1.743-0.685 0-1.419-0.481-1.719-1.034v-3.679c0-0.228-0.121-0.36-0.493-0.36-0.168 0-0.349 0.024-0.433 0.048v5.722c0.084 0.024 0.265 0.06 0.433 0.06 0.372 0 0.493-0.144 0.493-0.36v-0.493c0.42 0.505 1.058 0.925 1.923 0.925 1.178 0 2.164-0.757 2.164-2.452" fill="#fff"/>
   </g>
   <g transform="matrix(4.038 0 0 -4.038 190.64 119.36)">
    <path d="m0 0c-0.06 0.481 0.096 0.733 0.349 0.733 0.264 0 0.937-0.312 1.887-0.312 1.01 0 1.394 0.372 1.394 0.853 0 0.325-0.144 0.601-1.057 0.854l-1.034 0.288c-1.106 0.301-1.551 0.854-1.551 1.551 0 0.842 0.673 1.623 2.212 1.623 0.697 0 1.563-0.168 2.08-0.373 0.048-0.468-0.097-0.721-0.337-0.721s-0.878 0.289-1.731 0.289c-0.938 0-1.286-0.337-1.286-0.782 0-0.288 0.132-0.553 0.973-0.793l1.046-0.289c1.154-0.336 1.635-0.877 1.635-1.623 0-0.889-0.709-1.683-2.368-1.683-0.745 0-1.671 0.169-2.212 0.385" fill="#fff"/>
   </g>
   <g transform="matrix(4.038 0 0 -4.038 187.53 97.677)">
    <path d="m0 0-1.539-5.277c-0.096-0.325-0.336-0.409-0.673-0.409-0.192 0-0.385 0.036-0.553 0.084l-1.478 4.688-1.395-4.363c-0.108-0.337-0.361-0.409-0.673-0.409-0.193 0-0.397 0.036-0.565 0.084l-1.635 5.602c0.132 0.072 0.373 0.144 0.589 0.144 0.252 0 0.397-0.084 0.469-0.336l1.178-4.424h0.012l1.454 4.616c0.157 0.084 0.373 0.144 0.59 0.144 0.36 0 0.553-0.096 0.661-0.433l1.346-4.327h0.015l1.139 4.424c0.072 0.252 0.205 0.336 0.469 0.336 0.216 0 0.457-0.072 0.589-0.144" fill="#fff"/>
   </g>
  </g>
 </g>
</svg>
