<svg width="800" height="339.25" version="1.1" viewBox="0 0 211.67 89.755" xmlns="http://www.w3.org/2000/svg">
 <defs>
  <clipPath id="c">
   <path d="m204.01 334.3h52.422v12.36h-52.422z"/>
  </clipPath>
  <clipPath id="b">
   <path d="m204.01 346.66h52.422v-8.286h-52.422z"/>
  </clipPath>
  <clipPath id="a">
   <path d="m204.01 338.37h52.422v8.286h-52.422z"/>
  </clipPath>
  <clipPath id="b-3">
   <path d="m204.01 346.66h52.422v-8.286h-52.422z"/>
  </clipPath>
  <clipPath id="a-9">
   <path d="m204.01 338.37h52.422v8.286h-52.422z"/>
  </clipPath>
 </defs>
 <g transform="matrix(1.0001 0 0 1.0001 26.249 -101.1)">
  <g transform="matrix(4.0377,0,0,-4.0377,-850,1500.8)">
   <g clip-path="url(#c)">
    <g transform="translate(204.7,346.53)">
     <path d="m0 0c-0.314 0-0.569-0.26-0.569-0.579v-10.941c0-0.319 0.255-0.579 0.569-0.579l20.097-1e-3v12.098z" fill="#fff"/>
    </g>
    <g transform="translate(204.84,334.3)">
     <path d="m0 0h19.963v0.258h-19.963c-0.313 0-0.566 0.253-0.566 0.566v10.712c0 0.313 0.253 0.567 0.566 0.567h19.963v0.257h-19.963c-0.455 0-0.824-0.369-0.824-0.824v-10.712c0-0.455 0.369-0.824 0.824-0.824" fill="#918f90"/>
    </g>
    <g transform="translate(255.61,346.66)">
     <path d="m0 0h-31.029v-12.36h31.029c0.453 0 0.824 0.371 0.824 0.824v10.712c0 0.453-0.371 0.824-0.824 0.824" fill="#b01220"/>
    </g>
    <g transform="translate(234.65,340.88)">
     <path d="m0 0h3.594c-0.036 0.986-0.673 1.767-1.707 1.767-0.913 0-1.731-0.613-1.887-1.767m4.472-0.781h-4.472c0.144-1.118 0.926-1.756 2.08-1.756 0.493 0 0.877 0.109 1.238 0.229 0.24 0.084 0.373 0.132 0.469 0.132 0.24 0 0.421-0.228 0.36-0.745-0.505-0.229-1.286-0.469-2.103-0.469-1.792 0-3.018 1.214-3.018 3.005 0 1.719 1.287 2.97 2.861 2.97 1.768 0 2.633-1.407 2.633-2.777 0-0.181-0.012-0.373-0.048-0.589" fill="#fff"/>
    </g>
    <g transform="translate(232.59,341.01)">
     <path d="m0 0v-3.09c0-0.228-0.12-0.36-0.493-0.36-0.156 0-0.336 0.024-0.433 0.048v3.282c0 1.178-0.589 1.743-1.442 1.743-0.685 0-1.419-0.481-1.719-1.034v-3.679c0-0.228-0.121-0.36-0.493-0.36-0.168 0-0.349 0.024-0.433 0.048v5.722c0.084 0.024 0.265 0.06 0.433 0.06 0.372 0 0.493-0.144 0.493-0.36v-0.493c0.42 0.505 1.058 0.925 1.923 0.925 1.178 0 2.164-0.757 2.164-2.452" fill="#fff"/>
    </g>
    <g transform="translate(249,337.87)">
     <path d="m0 0c-0.06 0.481 0.096 0.733 0.349 0.733 0.264 0 0.937-0.312 1.887-0.312 1.01 0 1.394 0.372 1.394 0.853 0 0.325-0.144 0.601-1.057 0.854l-1.034 0.288c-1.106 0.301-1.551 0.854-1.551 1.551 0 0.842 0.673 1.623 2.212 1.623 0.697 0 1.563-0.168 2.08-0.373 0.048-0.468-0.097-0.721-0.337-0.721s-0.878 0.289-1.731 0.289c-0.938 0-1.286-0.337-1.286-0.782 0-0.288 0.132-0.553 0.973-0.793l1.046-0.289c1.154-0.336 1.635-0.877 1.635-1.623 0-0.889-0.709-1.683-2.368-1.683-0.745 0-1.671 0.169-2.212 0.385" fill="#fff"/>
    </g>
    <g transform="translate(248.23,343.24)">
     <path d="m0 0-1.539-5.277c-0.096-0.325-0.336-0.409-0.673-0.409-0.192 0-0.385 0.036-0.553 0.084l-1.478 4.688-1.395-4.363c-0.108-0.337-0.361-0.409-0.673-0.409-0.193 0-0.397 0.036-0.565 0.084l-1.635 5.602c0.132 0.072 0.373 0.144 0.589 0.144 0.252 0 0.397-0.084 0.469-0.336l1.178-4.424h0.012l1.454 4.616c0.157 0.084 0.373 0.144 0.59 0.144 0.36 0 0.553-0.096 0.661-0.433l1.346-4.327h0.015l1.139 4.424c0.072 0.252 0.205 0.336 0.469 0.336 0.216 0 0.457-0.072 0.589-0.144" fill="#fff"/>
    </g>
    <g transform="translate(211.7,339.36)">
     <path d="m0 0c0-0.965-0.631-1.671-1.913-1.81-0.929-0.1-2.273 0.018-2.911 0.091-0.024 0.104-0.043 0.234-0.043 0.336 0 0.845 0.457 1.037 0.885 1.037 0.444 0 1.144-0.077 1.665-0.077 0.571 0 0.746 0.195 0.746 0.38 0 0.242-0.231 0.343-0.676 0.428l-1.215 0.234c-1.012 0.193-1.552 0.894-1.552 1.636 0 0.903 0.639 1.659 1.896 1.799 0.95 0.102 2.107-0.014 2.742-0.091 0.023-0.11 0.035-0.213 0.035-0.326 0-0.842-0.444-1.024-0.872-1.024-0.329 0-0.839 0.062-1.421 0.062-0.593 0-0.839-0.164-0.839-0.364 0-0.211 0.234-0.298 0.605-0.363l1.163-0.215c1.194-0.22 1.705-0.898 1.705-1.733m2.086-1.036c0-0.518-0.203-0.817-1.214-0.817-0.134 0-0.251 0.01-0.363 0.026v6.869c0 0.522 0.177 1.066 1.198 1.066 0.129 0 0.258-0.013 0.379-0.039zm4.132-2.658c0.132-0.068 0.404-0.15 0.747-0.159 0.586-0.013 0.907 0.212 1.144 0.738l3.149 7.025c-0.13 0.07-0.417 0.147-0.653 0.153-0.405 7e-3 -0.948-0.076-1.296-0.905l-1.019-2.407-2 3.258c-0.129 0.04-0.444 0.096-0.676 0.096-0.704 0-1.1-0.26-1.509-0.704l-1.944-2.127 1.563-2.461c0.289-0.449 0.671-0.678 1.289-0.678 0.405 0 0.742 0.092 0.897 0.167l-1.882 2.84 1.334 1.414 2.189-3.436z" fill="#231f20"/>
    </g>
    <g clip-path="url(#b)" opacity=".2">
     <g clip-path="url(#a)">
      <g transform="translate(204.84,346.66)">
       <path d="m0 0h50.774c0.455 0 0.824-0.369 0.824-0.824v-4.185l-51.235-2.042c-0.663-0.026-1.187-0.571-1.187-1.235v7.462c0 0.455 0.369 0.824 0.824 0.824" fill="#fff"/>
      </g>
     </g>
    </g>
   </g>
  </g>
 </g>
 <g transform="matrix(4.0381 0 0 -4.0381 2.7621 52.605)">
  <path transform="matrix(.27443 0 0 -.27443 -.684 42.562)" d="m2.4922 155.09c-1.1442 0-2.0723 0.94696-2.0723 2.1094v28.83c0 1.1624 0.92807 2.1094 2.0723 2.1094h186.02c1.1442 0 2.0723-0.94696 2.0723-2.1094v-28.83c0-1.1624-0.92807-2.1094-2.0723-2.1094z" fill="#fff" stroke-width="3.6439"/>
 </g>
 <g transform="matrix(4.0381 0 0 -4.0381 3.3274 101.99)">
  <path transform="matrix(.27443 0 0 -.27443 -.824 54.792)" d="m3.002 154.62c-1.658 0-3.002 1.3459-3.002 3.0039v27.994c0 1.658 1.344 3.0039 3.002 3.0039l185-2e-3c1.658 0 3.0039-1.344 3.0039-3.002v-27.994c0-1.658-1.3459-3.0039-3.0039-3.0039zm0 0.9375h185c1.1405 0 2.0625 0.92586 2.0625 2.0664v27.994c0 1.1406-0.92196 2.0625-2.0625 2.0625h-185c-1.1405 0-2.0625-0.92195-2.0625-2.0625v-27.994c0-1.1406 0.92195-2.0664 2.0625-2.0664z" fill="#918f90" stroke-width="3.6439"/>
 </g>
 <path d="m115.97 83.081h0.17889c0.81776 0 1.4822-0.20444 1.9422-0.61333 0.46001-0.40888 0.79223-0.86889 0.97112-1.4055 0.17889-0.5111 0.40888-1.3033 0.66445-2.3511l3.7822-15.435c0.22999-0.97111 0.35778-1.6866 0.35778-2.1211 0-0.69-0.22999-1.2522-0.71555-1.7122-0.48557-0.45999-1.0733-0.68999-1.7633-0.68999h-0.33223c-0.69 0-1.2266 0.17889-1.5844 0.53666-0.35778 0.35778-0.61333 0.76667-0.76666 1.1755-0.12779 0.43444-0.28113 0.97111-0.40893 1.61l-2.5555 12.42-2.8366-11.5c-0.28113-1.0222-0.51111-1.7889-0.69-2.2744-0.17889-0.48556-0.5111-0.92-0.97111-1.3544-0.48555-0.43445-1.15-0.63888-2.0189-0.63888h-0.35778c-0.84332 0-1.5333 0.20444-2.0189 0.61332-0.48556 0.40892-0.84333 0.86889-1.0478 1.4055-0.20444 0.53667-0.43445 1.2778-0.69001 2.2489l-2.811 11.5-2.5555-12.42c-0.20444-0.99667-0.48555-1.7889-0.79222-2.4022-0.33223-0.61334-0.97111-0.92-1.9422-0.92h-0.33223c-0.71556 0-1.3033 0.23003-1.7633 0.69-0.48555 0.45999-0.71556 1.0478-0.71556 1.7122 0 0.48555 0.10224 1.0733 0.33223 1.7122l3.7822 15.844c0.10224 0.35778 0.22999 0.84333 0.38333 1.4311 0.15334 0.61333 0.35778 1.1244 0.61334 1.5589 0.25558 0.43444 0.58778 0.76667 0.99666 0.99666s0.94555 0.35778 1.5844 0.35778h0.35778c0.79222 0 1.4055-0.20444 1.8911-0.61334 0.48556-0.40888 0.81778-0.84333 0.99666-1.3289 0.17889-0.48555 0.40888-1.1755 0.63889-2.0955l3.2966-13.033 3.22 12.957c0.28114 0.99666 0.51111 1.7378 0.69 2.1978 0.17889 0.48555 0.51112 0.92 0.97111 1.3289 0.46 0.40888 1.0989 0.58777 1.8911 0.58777 0.0256 0.02555 0.0767 0.02555 0.12779 0.02555zm12.829 0h0.17889c0.81778 0 1.4822-0.25554 1.9933-0.79222 0.5111-0.53667 0.76665-1.3289 0.76665-2.3511v-18.068c0-1.0222-0.25558-1.7889-0.76665-2.3255-0.51113-0.53667-1.1756-0.79222-1.9933-0.79222h-0.35778c-0.81777 0-1.4566 0.25558-1.9678 0.79222-0.51111 0.53667-0.74111 1.3033-0.74111 2.3255v18.068c0 1.0222 0.25558 1.8144 0.76666 2.3511 0.51112 0.53666 1.15 0.81778 1.9422 0.81778 0.0767-0.02555 0.12779-0.02555 0.17889-0.02555zm12.497-21.339c-0.28113-0.43445-0.56222-0.84333-0.79222-1.2267-0.25558-0.35778-0.48556-0.69-0.74111-0.94555-0.25554-0.25558-0.56222-0.46-0.89445-0.61334-0.35778-0.15334-0.76666-0.22999-1.2522-0.22999h-0.33223c-0.61334 0-1.2011 0.17889-1.7122 0.5111-0.53665 0.33223-0.92 0.79222-1.15 1.38-0.17889 0.40888-0.25558 0.99666-0.25558 1.7889v17.684c0 0.94555 0.22999 1.6866 0.69 2.1978 0.46 0.5111 1.0989 0.76667 1.8655 0.76667h0.35778c0.76667 0 1.38-0.25558 1.8655-0.76667 0.48556-0.51112 0.71556-1.2522 0.71556-2.2233v-12.573l8.05 12.727c0.28113 0.40892 0.56222 0.76667 0.79221 1.0989 0.22999 0.30668 0.51112 0.61334 0.84334 0.92 0.33223 0.28113 0.69 0.51112 1.0733 0.63889 0.38333 0.12779 0.81777 0.20444 1.2778 0.20444h0.35778c1.9422 0 2.9133-1.1244 2.9133-3.3477v-18.016c0-0.94555-0.22999-1.6866-0.69-2.1978-0.46-0.51111-1.0733-0.76667-1.8911-0.76667h-0.35778c-0.76667 0-1.38 0.25558-1.84 0.76667-0.46 0.5111-0.66445 1.2267-0.66445 2.1978v12.778z" fill="#231f20" stroke-width=".25555"/>
 <g transform="matrix(1.0966 0 0 1.0966 -1.6303 -35.54)" fill="#231f20">
  <path d="m59.852 104.39q-1.5398 0-2.8194-0.56389-1.2796-0.58557-2.1905-1.5832-0.91089-1.0193-1.4314-2.3423-0.49882-1.3446-0.49882-2.8845 0-1.5182 0.49882-2.8411 0.52051-1.3446 1.4314-2.3206 0.91089-0.97596 2.1905-1.5398 1.2796-0.56388 2.8194-0.56388 1.5398 0 2.8194 0.56388 1.2796 0.56388 2.1905 1.5398 0.91089 0.97595 1.4097 2.2989 0.52051 1.323 0.52051 2.8628t-0.52051 2.8845q-0.49882 1.323-1.4097 2.3423-0.91089 0.99764-2.1905 1.5832-1.2796 0.56389-2.8194 0.56389zm-0.02169-2.1688q0.91089 0 1.7133-0.39038 0.80245-0.41207 1.4097-1.1061 0.60726-0.69402 0.95427-1.6483 0.34701-0.95427 0.34701-2.0387t-0.34701-2.017q-0.32532-0.95427-0.93258-1.6266-0.58557-0.69401-1.388-1.0844-0.80245-0.39038-1.735-0.39038-0.91089 0-1.7133 0.39038-0.80245 0.36869-1.4097 1.0627-0.58557 0.67232-0.93258 1.6049t-0.34701 2.0387q0 1.1278 0.32532 2.082 0.34701 0.95426 0.93258 1.6483 0.60726 0.69402 1.4097 1.0844 0.80245 0.39038 1.7133 0.39038z"/>
  <path d="m69.923 104.23q-0.32532 0-0.65064-0.0217-0.30363-0.0217-0.47713-0.0651v-13.967q0.23857-0.10844 0.60726-0.15182 0.36869-0.06506 0.67232-0.06506 0.86752 0 1.2362 0.23857 0.39038 0.21688 0.67232 0.65064l6.3112 9.7595-0.13013-9.6945q0-0.39038 0.23857-0.67232 0.26025-0.28194 0.91089-0.28194 0.30363 0 0.60726 0.04337 0.32532 0.02169 0.49882 0.06506v13.967q-0.49882 0.19519-1.1711 0.19519-0.78076 0-1.1495-0.21688-0.36869-0.23856-0.60726-0.60726l-6.5281-10.172 0.13013 10.041q0 0.41207-0.26026 0.69401-0.23857 0.26025-0.91089 0.26025z"/>
 </g>
 <g transform="matrix(4.0381 0 0 -4.0381 -823.84 1451.9)" clip-path="url(#b-3)" opacity=".2">
  <g clip-path="url(#a-9)">
   <g transform="translate(204.84,346.66)">
    <path d="m0 0h50.774c0.455 0 0.824-0.369 0.824-0.824v-1.2132l-51.235-2.042c-0.663-0.026-1.187-0.571-1.187-1.235v4.4902c0 0.455 0.369 0.824 0.824 0.824" fill="#fff"/>
   </g>
  </g>
 </g>
</svg>
