<!DOCTYPE svg  PUBLIC '-//W3C//DTD SVG 1.1//EN'  'http://www.w3.org/Graphics/SVG/1.1/DTD/svg11.dtd'>
<svg enable-background="new 0 0 515.906 204.094" version="1.1" viewBox="0 0 515.91 204.09" xml:space="preserve" xmlns="http://www.w3.org/2000/svg">
<g transform="translate(15.875 -239.17)">
	<rect x="-15.875" y="239.17" width="515.91" height="204.09" fill="#fff"/>
	<g transform="matrix(2.287 0 0 2.287 -96.551 88.848)" fill="#505050">
		<path d="m95.784 124.37c0 3.117-0.809 5.918-2.426 8.402-1.594 2.484-3.937 4.43-7.031 5.836s-6.762 2.109-11.004 2.109c-5.086 0-9.281-0.961-12.586-2.883-2.344-1.383-4.254-3.223-5.73-5.52-1.453-2.32-2.18-4.571-2.18-6.75 0-1.266 0.434-2.344 1.301-3.235 0.891-0.914 2.016-1.371 3.375-1.371 1.102 0 2.027 0.351 2.777 1.054 0.774 0.703 1.43 1.746 1.969 3.129 0.656 1.641 1.359 3.012 2.109 4.113 0.774 1.101 1.852 2.015 3.234 2.742 1.383 0.703 3.199 1.054 5.449 1.054 3.094 0 5.602-0.715 7.523-2.144 1.945-1.453 2.918-3.258 2.918-5.414 0-1.711-0.527-3.094-1.582-4.148-1.031-1.078-2.379-1.898-4.043-2.461-1.641-0.562-3.844-1.16-6.609-1.793-3.703-0.867-6.809-1.875-9.316-3.023-2.485-1.172-4.465-2.754-5.941-4.746-1.453-2.015-2.18-4.512-2.18-7.488 0-2.836 0.774-5.355 2.32-7.559 1.547-2.203 3.785-3.89 6.715-5.063 2.93-1.195 6.375-1.793 10.336-1.793 3.164 0 5.894 0.399 8.191 1.196 2.32 0.773 4.242 1.816 5.765 3.129 1.524 1.289 2.637 2.649 3.34 4.078 0.703 1.43 1.055 2.824 1.055 4.183 0 1.242-0.445 2.367-1.336 3.375-0.867 0.984-1.957 1.477-3.27 1.477-1.195 0-2.109-0.293-2.742-0.879-0.609-0.61-1.277-1.594-2.004-2.953-0.938-1.945-2.062-3.457-3.375-4.535-1.313-1.102-3.422-1.653-6.328-1.653-2.695 0-4.875 0.598-6.539 1.793-1.641 1.172-2.461 2.59-2.461 4.254 0 1.031 0.281 1.922 0.844 2.672 0.562 0.75 1.336 1.394 2.32 1.933s1.98 0.961 2.988 1.266c1.008 0.304 2.672 0.75 4.992 1.336 2.906 0.68 5.531 1.43 7.875 2.25 2.367 0.82 4.371 1.816 6.012 2.988 1.664 1.172 2.953 2.66 3.867 4.465 0.939 1.783 1.408 3.975 1.408 6.577z"/>
		<path d="m122.12 132.07-8.262-32.836v35.578c0 1.969-0.445 3.445-1.336 4.43-0.867 0.984-2.027 1.477-3.48 1.477-1.406 0-2.555-0.481-3.445-1.442-0.891-0.984-1.336-2.473-1.336-4.465v-40.781c0-2.25 0.586-3.762 1.758-4.535 1.172-0.797 2.754-1.195 4.746-1.195h3.234c1.945 0 3.352 0.175 4.219 0.527 0.891 0.351 1.547 0.984 1.969 1.898s0.902 2.402 1.441 4.465l7.488 28.23 7.488-28.23c0.539-2.062 1.019-3.551 1.441-4.465s1.066-1.547 1.934-1.898c0.891-0.352 2.308-0.527 4.254-0.527h3.234c1.992 0 3.574 0.398 4.746 1.195 1.172 0.773 1.758 2.285 1.758 4.535v40.781c0 1.969-0.445 3.446-1.336 4.43-0.867 0.984-2.039 1.477-3.516 1.477-1.383 0-2.52-0.492-3.41-1.477-0.891-0.984-1.336-2.461-1.336-4.43v-35.578l-8.262 32.836c-0.539 2.133-0.984 3.703-1.336 4.711-0.328 0.984-0.949 1.887-1.863 2.707s-2.18 1.231-3.797 1.231c-1.219 0-2.25-0.27-3.094-0.809-0.844-0.516-1.5-1.184-1.969-2.004s-0.844-1.723-1.125-2.707c-0.257-1.008-0.526-2.051-0.807-3.129z"/>
		<path d="m165.04 88.302c-1.711 0-3.024 0.386-3.937 1.16-0.891 0.773-1.336 1.828-1.336 3.164 0 1.289 0.433 2.332 1.301 3.129 0.867 0.773 2.191 1.16 3.972 1.16h11.39v37.442c0 2.132 0.481 3.727 1.442 4.781 0.985 1.055 2.25 1.582 3.797 1.582 1.524 0 2.765-0.516 3.726-1.547 0.962-1.055 1.442-2.66 1.442-4.816v-37.442h17.653c0.179 0.454 0.357 0.91 0.522 1.378l12.27 32.848c0.445 1.268 0.891 2.466 1.336 3.596 0.446 1.129 0.961 2.143 1.547 3.042 0.61 0.876 1.395 1.579 2.356 2.109 0.984 0.553 2.179 0.831 3.585 0.831 1.407 0 2.59-0.278 3.551-0.831 0.985-0.553 1.77-1.256 2.355-2.109 0.586-0.876 1.102-1.878 1.547-3.007 0.445-1.152 0.89-2.364 1.336-3.631l12.481-33.124c0.211-0.6 0.422-1.176 0.633-1.729 0.211-0.576 0.386-1.152 0.527-1.729 0.141-0.6 0.211-1.152 0.211-1.66 0-0.738-0.223-1.464-0.668-2.178-0.422-0.738-1.02-1.326-1.793-1.764-0.751-0.438-1.571-0.656-2.461-0.656-1.219 0-2.179 0.288-2.883 0.864-0.703 0.553-1.207 1.187-1.512 1.901-0.305 0.692-0.762 1.936-1.371 3.734l-11.707 34.23-11.672-33.989c-0.774-2.352-1.536-4.057-2.285-5.117-0.727-1.083-1.98-1.624-3.762-1.624-0.161 0-0.317 7e-3 -0.471 0.019-0.218-0.013-0.442-0.019-0.676-0.019h-42.446z"/>
	</g>
	<g transform="matrix(2.287 0 0 2.287 -99.551 85.848)">
		<path d="m93.377 121.96c0 3.117-0.809 5.918-2.426 8.402-1.594 2.484-3.938 4.43-7.031 5.836-3.094 1.406-6.762 2.109-11.004 2.109-5.086 0-9.281-0.961-12.586-2.883-2.344-1.383-4.254-3.223-5.73-5.52-1.453-2.32-2.18-4.571-2.18-6.75 0-1.266 0.433-2.344 1.301-3.235 0.891-0.914 2.016-1.371 3.375-1.371 1.101 0 2.027 0.351 2.777 1.054 0.773 0.703 1.43 1.746 1.969 3.129 0.656 1.641 1.359 3.012 2.109 4.113 0.773 1.101 1.852 2.015 3.234 2.742 1.383 0.703 3.199 1.054 5.449 1.054 3.094 0 5.602-0.715 7.523-2.144 1.945-1.453 2.918-3.258 2.918-5.414 0-1.711-0.527-3.094-1.582-4.148-1.031-1.078-2.379-1.898-4.043-2.461-1.641-0.562-3.844-1.16-6.609-1.793-3.703-0.867-6.809-1.875-9.316-3.023-2.484-1.172-4.465-2.754-5.941-4.746-1.453-2.015-2.18-4.512-2.18-7.488 0-2.836 0.774-5.355 2.32-7.559 1.547-2.203 3.785-3.89 6.715-5.063 2.93-1.195 6.375-1.793 10.336-1.793 3.164 0 5.894 0.399 8.191 1.196 2.32 0.773 4.242 1.816 5.766 3.129 1.523 1.289 2.637 2.649 3.34 4.078s1.055 2.824 1.055 4.183c0 1.242-0.445 2.367-1.336 3.375-0.867 0.984-1.957 1.477-3.27 1.477-1.195 0-2.109-0.293-2.742-0.879-0.609-0.61-1.277-1.594-2.004-2.953-0.938-1.945-2.063-3.457-3.375-4.535-1.312-1.102-3.422-1.653-6.328-1.653-2.695 0-4.875 0.598-6.539 1.793-1.641 1.172-2.461 2.59-2.461 4.254 0 1.031 0.281 1.922 0.844 2.672s1.336 1.394 2.32 1.934c0.984 0.539 1.98 0.961 2.988 1.266 1.008 0.304 2.672 0.75 4.992 1.336 2.906 0.68 5.531 1.43 7.875 2.25 2.367 0.82 4.371 1.816 6.012 2.988 1.664 1.172 2.953 2.66 3.867 4.465 0.938 1.783 1.407 3.974 1.407 6.576z"/>
		<path d="m119.71 129.66-8.262-32.836v35.578c0 1.969-0.445 3.445-1.336 4.43-0.867 0.984-2.027 1.477-3.481 1.477-1.406 0-2.555-0.481-3.445-1.442-0.891-0.984-1.336-2.473-1.336-4.465v-40.781c0-2.25 0.586-3.762 1.758-4.535 1.172-0.797 2.754-1.195 4.746-1.195h3.234c1.945 0 3.352 0.175 4.219 0.527 0.891 0.351 1.547 0.984 1.969 1.898s0.902 2.402 1.441 4.465l7.488 28.23 7.488-28.23c0.539-2.062 1.02-3.551 1.442-4.465s1.066-1.547 1.934-1.898c0.891-0.352 2.309-0.527 4.254-0.527h3.234c1.992 0 3.574 0.398 4.746 1.195 1.172 0.773 1.758 2.285 1.758 4.535v40.781c0 1.969-0.445 3.446-1.336 4.43-0.867 0.984-2.039 1.477-3.516 1.477-1.383 0-2.519-0.492-3.41-1.477-0.891-0.984-1.336-2.461-1.336-4.43v-35.578l-8.262 32.836c-0.539 2.133-0.984 3.703-1.336 4.711-0.328 0.984-0.949 1.887-1.863 2.707s-2.18 1.231-3.797 1.231c-1.219 0-2.25-0.27-3.094-0.809-0.844-0.516-1.5-1.184-1.969-2.004s-0.844-1.723-1.125-2.707c-0.256-1.008-0.526-2.051-0.807-3.129z"/>
		<path d="m162.63 85.895c-1.711 0-3.023 0.386-3.937 1.16-0.891 0.773-1.336 1.828-1.336 3.164 0 1.289 0.433 2.332 1.301 3.129 0.867 0.773 2.191 1.16 3.972 1.16h11.391v37.442c0 2.132 0.481 3.727 1.442 4.781 0.984 1.055 2.249 1.582 3.797 1.582 1.524 0 2.765-0.516 3.726-1.547 0.961-1.055 1.442-2.66 1.442-4.816v-37.442h17.653c0.179 0.454 0.357 0.91 0.522 1.378l12.27 32.848c0.445 1.268 0.891 2.466 1.336 3.596 0.445 1.129 0.961 2.143 1.547 3.042 0.61 0.876 1.395 1.579 2.355 2.109 0.985 0.553 2.18 0.831 3.586 0.831 1.407 0 2.59-0.278 3.551-0.831 0.985-0.553 1.77-1.256 2.355-2.109 0.586-0.876 1.102-1.878 1.547-3.007 0.446-1.153 0.891-2.364 1.337-3.631l12.479-33.124c0.211-0.6 0.422-1.176 0.633-1.729 0.211-0.576 0.386-1.152 0.527-1.729 0.141-0.6 0.211-1.152 0.211-1.66 0-0.738-0.223-1.464-0.668-2.178-0.422-0.738-1.02-1.326-1.793-1.764-0.75-0.438-1.57-0.656-2.46-0.656-1.219 0-2.179 0.288-2.883 0.864-0.703 0.553-1.207 1.187-1.512 1.901-0.305 0.692-0.762 1.936-1.371 3.734l-11.708 34.23-11.672-33.989c-0.773-2.352-1.535-4.057-2.285-5.117-0.727-1.083-1.98-1.624-3.762-1.624-0.161 0-0.317 7e-3 -0.471 0.019-0.218-0.013-0.442-0.019-0.676-0.019h-42.446z"/>
	</g>
</g>
</svg>
