<svg width="470.02pt" height="533.89pt" version="1.1" viewBox="0 0 470.02 533.89" xmlns="http://www.w3.org/2000/svg">
 <path d="m155.08 0.86952c7.41-2.32 15.91 0.19 21.31 5.65 5.79 5.59 7.65 14.33 5.56 21.98l41.37 41.28c7.86-0.06 15.73-0.08 23.59 0.01l41.19-41.08c-1.39-5.66-1.18-11.82 1.68-17.01 4.56-8.83 15.68-13.86 25.24-10.8 7.21 1.9 13.17 7.83 15.16 15.01 2.82 8.88-1.14 19.21-8.9 24.25-5.67 3.83-13 4.7-19.47 2.56l-27.48 27.59c40.52 1.9 81.44 4.57 120.79 15.15 19.08 3.53 36.53 15.06 47.14 31.32 8.49 13.44 12.9 28.99 16.46 44.35 7.33 34.43 9.84 69.69 10.84 104.81 0.75 17.02 0.54 34.06-0.25 51.07-0.36 17.97-1.74 35.9-3.55 53.78-2.43 21.24-5.49 42.57-11.88 63.03-3.4 10.21-7.24 20.51-13.76 29.19-10.32 14.14-26 24.24-43.12 27.86-5.16 1.02-10.19 2.59-15.32 3.75l7.1923 20.944c0.56224 2.0983 0.51404 4.5824-0.058 6.6976-1.6291 6.9188-8.693 12.211-15.884 11.579-4.47-0.5-8.77-2.81-11.29-6.6l-17.38-26.34c-26.91 3.67-54.05 4.84-81.15 5.96-45.83 0.67-91.81-0.06-137.31-5.97l-17.48 26.44c-2.53 3.73-6.8 6.01-11.23 6.51-7.3312 0.64479-14.522-4.8583-15.97-11.975-0.42998-1.9761-0.54544-4.0362-0.12094-5.6204l7.3408-21.615c-4.78-1.09-9.47-2.53-14.26-3.54-17.04-3.35-32.78-13.08-43.29-26.91-8.01-10.27-12.35-22.78-16.09-35.1-8.64-31.31-11.41-63.84-13.46-96.13-0.85-23.32-1.92-46.68-0.66-70.02 0.34-15.86 1.33-31.69 2.73-47.49 3.04-29.2 6.53-58.96 17.93-86.28 6.62-16.36 19.49-30.03 35.4-37.67 9.4-4.83 19.98-6.15 30.04-8.99 35.84-8.1 72.66-10.52 109.27-12.2l-27.36-27.56c-5.21 1.34-10.81 1.75-15.85-0.48-9.89-3.73-15.96-15.35-13.11-25.57 1.8-7.54 7.93-13.87 15.45-15.82" fill="#ef574e"/>
 <g transform="translate(-148.99 -17.07)" fill="#fff">
  <path d="m294.08 133.15c9.35-4.33 19.7-8.41 30.17-6.41 5.15 0.82 10.08 3.68 12.74 8.25 3.58 5.99 3.305 13.22 3.525 19.95v162.04c-0.14 12.67 0.365 25.36-0.385 38.02-0.21 6.67-3.04 13.58-8.78 17.32-5.9622 3.9954-13.12 4.7604-20.171 4.7453-6.9379 0.0591-10.669-0.40613-15.216-1.9933-4.1557-1.4794-7.9194-3.9032-10.444-7.622-4.33-6.22-4.12-14.18-4.25-21.43v-147.67l-19.67 9.07c-5.73 2.52-12.56 3.1-18.25 0.15-8.4-4.36-13.4-13.41-15.22-22.42-1.48-6.85-0.68-14.6 3.92-20.15 5-6.16 12.64-9.07 19.63-12.34z"/>
  <path d="m385.25 134.2c6.34-4.31 14.37-4.24 21.74-4.15h84.02c6.6 0.15 14.01 0.98 18.84 6.02 5.86 5.94 6.95 14.9 6.4 22.87-0.39 6.68-2.8 13.77-8.37 17.88-4.82 3.55-11.07 4.21-16.88 4.2h-60.93l-2.92 42.61c18.89-2.13 38.53-1.14 56.41 5.78 13.27 5.08 25.39 13.77 33.32 25.69 9.98 14.79 13.03 33.4 11.16 50.91-1.44 16.62-8.69 32.74-20.56 44.51-15.32 15.38-36.48 23.54-57.62 26.83-22.18 3.18-45.45 2.37-66.58-5.62-8.04-3.07-16.21-7.64-20.46-15.45-4.42-8.22-2.91-18.29 1.1-26.36 3-6.1 8.26-11.4 15.02-13.02 5.8-1.67 11.86-0.02 17.38 1.87 7.49 2.72 14.81 6.05 22.65 7.69 10.99 2.36 22.92 2.49 33.33-2.2 7.28-3.2 12.75-9.98 14.37-17.76 1.93-9.84 0.8-21.2-6.39-28.76-8.01-8.31-20.33-10.11-31.35-9.77-11.32 0.65-22.58 2.22-33.91 2.73-8.12 0.08-17.51-2.35-21.58-10.09-5.38-10.44-2.98-22.53-2.33-33.71l6.1-74.93c0.63-6.52 2.31-13.81 8.04-17.77z"/>
  <path d="m219.45 403.55c7.53-1.33 16.45-0.78 22.3 4.7 4.01 3.86 0.46 11.05-4.72 11.45-4.2-0.66-7.71-3.91-12.08-3.74-2.31 0.14-5.2 1.44-5.38 4.07-0.43 2.88 2.23 4.74 4.37 6.08 5.57 3.31 11.95 5.64 16.34 10.63 6.23 6.77 5.83 18.34-0.72 24.76-8.9 8.38-23.86 8.48-33.73 1.76-5.14-3.3-2.65-12.18 3.22-12.88 4.93 0.73 8.82 5.24 14.07 4.6 3-0.31 6.38-2.55 5.96-5.95-0.16-3.42-3.49-5.37-6.14-6.89-5.68-3.13-12.1-5.7-16.04-11.13-4.33-5.94-3.93-14.79 0.74-20.43 2.94-3.67 7.28-5.96 11.81-7.03z"/>
  <path d="m255.74 404.75c7.74-2.17 16.04-2 23.83-0.16 5.61 1.43 11.15 4.6 14 9.83 4.35 8.17 2.74 19.48-4.63 25.41-6.41 5.25-15.11 6.33-23.13 6.08-0.16 5.55 0.33 11.14-0.24 16.67-0.83 5.26-7.49 5.65-11.55 4.28-3.31-1.04-3.68-4.97-3.61-7.91v-47.03c-0.16-3.32 2.1-6.36 5.33-7.17m10.08 10.41v17.44c3.65-0.04 7.62 0.13 10.84-1.87 4.7-2.8 4.79-10.64 0.24-13.61-3.29-2.07-7.33-2.11-11.08-1.96z"/>
  <path d="m303.97 405.81c3.95-2.12 8.59-2.28 12.96-2.6 7.46-0.09 15.6 0.48 21.8 5.08 7.49 5.56 8.5 16.87 4.22 24.69-1.77 3.24-4.74 5.55-7.81 7.48l13.49 17.99c1.31 1.83 3.18 4.38 1.38 6.54-2.36 2.82-6.68 2.81-10 2.16-3.86-0.62-6.14-4.09-8.14-7.09l-10.36-16.14h-5.6498v17.09c-0.056 4.562-3.5321 6.7778-7.367 6.7778-3.6846 0-7.3874-2.3101-7.4932-6.7778v-49.08c-0.19-2.4 0.8-4.91 2.97-6.12m11.925 9.44v15.28c3.43-0.02 7.015 0.19 10.175-1.37 4.35-2.1 5.03-8.75 1.57-11.94-3.36-2.43-7.815-2.2-11.745-1.97z"/>
  <path d="m562.8 403.64c3.44-0.51 8.73-0.37 9.8 3.78 0.35 2.3-0.86 4.5-1.6 6.62l-20.66 48.31c-2.1 5.76-9.69 6.5-14.47 3.88-2.11-1.43-3.08-3.89-4.07-6.11l-18.81-46.01c-0.67175 1.9788-2.5536 3.77-4.84 3.77-1.0501 0.0955-9.2746 0.11-14.055 0.11v37.85c0 3.1038 0.31769 7.1524-1.0246 9.2192-1.7481 2.0323-3.7978 2.4376-6.4783 2.4376-2.727 0-5.5254-0.52593-7.0521-2.8369-1.13-2.73-0.885-5.734-0.885-8.68v-37.98c-4.8223 0-13.744 0.0656-14.705-0.24-4.4-1.2-4.65-6.73-3.48-10.32 1.02-2.54 3.89-3.47 6.43-3.33h39.21c2.05-0.19 3.87 0.77 5.59 1.76 3.56-2.86 8.69-3.21 12.76-1.24 2.17 1.19 3.19 3.6 4.13 5.77l13.61 36.23 13.66-36.77c1.02-3.12 3.45-5.98 6.94-6.22z"/>
  <path d="m403.63 405.64c1.633-1.3807 3.7179-1.5432 5.7899-1.5548h24.53c6.9004 0 6.9563 13.375 0 13.375h-17.205v9.7298c4.64 0.1 9.315-0.27975 13.945 0.26025 6.51 0.7 6.48 12.43-0.12 12.93-4.59 0.5-9.225 0.11-13.825 0.23v13.264h17.996c7.8988 0 7.7452 13.092 0.45247 13.136h-28.313c-2.94-0.14-5.275-3.0502-5.045-5.9502v-47.11c0-2.9995-0.30346-6.3681 1.795-8.31z"/>
  <path d="m358.02 405.64c1.633-1.3807 3.7179-1.5432 5.7899-1.5548h24.53c6.9004 0 6.9563 13.375 0 13.375h-17.205v9.7298c4.64 0.1 9.315-0.27975 13.945 0.26025 6.51 0.7 6.48 12.43-0.12 12.93-4.59 0.5-9.225 0.11-13.825 0.23v13.264h17.996c7.8988 0 7.7452 13.092 0.45247 13.136h-28.313c-2.94-0.14-5.275-3.0502-5.045-5.9502v-47.11c0-2.9995-0.30346-6.3681 1.795-8.31z"/>
 </g>
</svg>
