<svg width="528.22pt" height="599.99pt" version="1.1" viewBox="0 0 528.22 599.99" xmlns="http://www.w3.org/2000/svg">
 <path d="m180.68 1.0269e-4c-2.1614 0.0063-4.321 0.31935-6.4028 0.97119-8.4511 2.1916-15.34 9.3052-17.363 17.779-3.2029 11.485 3.6188 24.544 14.733 28.736 5.6642 2.5061 11.957 2.045 17.813 0.53906l30.749 30.973c-41.143 1.888-82.523 4.608-122.8 13.711-11.306 3.1917-23.195 4.675-33.759 10.103-17.88 8.586-32.344 23.95-39.784 42.335-12.812 30.703-16.734 64.147-20.15 96.962-1.5733 17.756-2.6867 35.546-3.0689 53.37-1.416 26.23-0.21255 43.526 0.74265 69.734 2.3039 36.288 5.4161 81.803 15.126 116.99 4.2031 13.846 9.0802 27.905 18.082 39.447 11.811 15.542 29.5 26.477 48.65 30.242 5.3831 1.135 10.655 2.7536 16.027 3.9785l-8.25 24.292c-0.47708 1.7804-0.34695 4.0956 0.1362 6.3164 1.6274 7.9979 9.7083 14.182 17.947 13.458 4.9785-0.56192 9.7765-3.1236 12.62-7.3154l19.645-29.714c40.69 5.2852 81.72 6.8783 122.74 6.9316 41.016-0.0533 82.047-1.6464 122.74-6.9316l19.645 29.714c2.8432 4.1919 7.6412 6.7535 12.62 7.3154 8.239 0.72463 16.32-5.4596 17.947-13.458 0.48308-2.2208 0.6132-4.536 0.1362-6.3164l-8.25-24.292c5.3718-1.225 10.644-2.8435 16.027-3.9785 19.15-3.7648 36.839-14.699 48.65-30.242 9.0018-11.542 13.879-25.601 18.082-39.447 9.7099-35.187 12.822-80.701 15.126-116.99 0.9552-26.208 2.1586-43.504 0.74265-69.734-0.38213-17.824-1.4956-35.614-3.0688-53.37-3.4164-32.816-7.3387-66.26-20.15-96.962-7.4397-18.386-21.904-33.749-39.784-42.335-10.564-5.4281-22.453-6.9114-33.759-10.103-40.278-9.103-81.658-11.823-122.8-13.711l30.748-30.973c5.8551 1.5059 12.148 1.9671 17.812-0.53906 11.115-4.1919 17.936-17.25 14.733-28.736-2.0229-8.4736-8.9117-15.587-17.363-17.779-2.0818-0.65185-4.2415-0.96519-6.4028-0.97119-6.4844-0.01902-12.994 2.7178-17.546 7.3198-6.5068 6.2822-8.5977 16.104-6.249 24.702l-46.493 46.392c-4.3786-0.03345-8.7598-0.05563-13.141-0.05713-4.3814 0.0018-8.7626 0.02372-13.141 0.05713l-46.493-46.392c2.3488-8.5973 0.25785-18.419-6.2491-24.702-4.5515-4.6021-11.062-7.3388-17.546-7.3198z" fill="#ef574e" stroke-width="1.1238"/>
 <g transform="matrix(1.1238 0 0 1.1238 -3.9766 -.0032953)" fill="#fff">
  <path d="m71.728 404.17q0 1.7522 2.0442 3.3097 2.1415 1.5575 6.4246 3.7964 4.3804 2.1415 6.814 3.7964 9.3449 6.3273 9.3449 16.256 0 9.0529-6.814 14.407-6.7167 5.2565-16.743 5.2565-7.0087 0-13.239-2.823-6.1326-2.9203-6.1326-7.4954 0-3.115 1.9469-5.8406t5.0618-2.7256q1.9469 0 5.8406 2.0442t6.6193 2.0442q2.6283 0 4.1858-1.1681t1.5575-3.0176q0-1.4602-1.1681-2.7256-1.1681-1.3628-2.5309-2.1416-1.2655-0.77874-3.8937-2.2389-8.1768-4.3804-11.194-7.0087-5.8406-5.2565-5.8406-12.752 0-8.6635 6.522-13.92 6.6193-5.3539 16.256-5.3539 7.106 0 12.752 2.823 5.7432 2.7256 5.7432 7.3007 0 2.9203-2.2389 5.5486-2.1415 2.6283-5.1592 2.6283-1.7522 0-5.4512-1.6548-3.699-1.7522-6.0353-1.7522-2.1415 0-3.407 0.97344-1.2655 0.97343-1.2655 2.4336z" style="white-space:pre"/>
  <path d="m148.04 407.48q0 10.61-7.5928 16.256-7.4954 5.6459-19.566 5.6459l-3.2123-0.0973v11.584q0 5.2565-1.3628 7.0087-1.8495 2.6283-7.3007 2.6283-5.3539 0-7.3007-2.6283-1.3628-1.7522-1.3628-7.0087v-43.61q0-2.3362 0.19468-3.6017 0.19469-1.3628 1.4602-3.0176 1.2655-1.7522 3.8937-2.7256 4.3804-1.6548 13.239-1.6548 12.752 0 19.858 4.3804 9.0529 5.6459 9.0529 16.84zm-30.371-6.3273v14.699q1.1681 0.19468 2.7256 0.19468 4.3804 0 7.106-1.8495 2.823-1.9469 2.823-5.8406 0-3.699-2.6283-5.5486-2.5309-1.8495-6.9114-1.8495z" style="white-space:pre"/>
  <path d="m167.51 427.73v13.141q0 5.2565-1.2655 7.0087-1.8495 2.6283-7.106 2.6283t-7.106-2.6283q-1.2655-1.7522-1.2655-7.0087v-43.512q0-2.4336 0.19469-3.699 0.19468-1.3628 1.6548-3.2123 1.4601-1.8495 4.3804-2.7256 4.6725-1.4601 13.531-1.4601 10.416 0 16.743 2.9203 10.708 4.9645 10.708 17.23 0 11.876-9.929 17.424l13.433 17.814q2.6283 3.115 0.6814 6.0353-1.9469 2.823-7.8848 2.823-4.4778 0-6.9114-1.6548-2.4336-1.7522-4.9645-5.6459l-6.7167-10.124-3.115-5.3539zm0-26.477v13.044q1.3628 0.0973 2.7256 0.0973 10.026 0 10.026-7.0087 0-6.4246-8.8582-6.4246z" style="white-space:pre"/>
  <path d="m222.94 402.03v7.7874h9.1502q5.2565 0 7.0087 1.1681 2.6283 1.7522 2.6283 6.3273 0 4.4778-2.6283 6.23-1.7522 1.1681-7.0087 1.1681h-9.1502v10.416h14.601q5.2565 0 7.0087 1.1681 2.6283 1.7522 2.6283 6.3273 0 4.4778-2.6283 6.23-1.7522 1.1681-7.0087 1.1681h-23.168q-4.5751 0-6.4246-1.8495t-1.8495-6.4246v-46.335q0-4.5751 1.8495-6.4246t6.4246-1.8495h21.415q5.2565 0 7.0087 1.1681 2.6283 1.7522 2.6283 6.3273 0 4.4778-2.6283 6.23-1.7522 1.1681-7.0087 1.1681z" style="white-space:pre"/>
  <path d="m268.55 402.03v7.7874h9.1502q5.2565 0 7.0087 1.1681 2.6283 1.7522 2.6283 6.3273 0 4.4778-2.6283 6.23-1.7522 1.1681-7.0087 1.1681h-9.1502v10.416h14.601q5.2565 0 7.0087 1.1681 2.6283 1.7522 2.6283 6.3273 0 4.4778-2.6283 6.23-1.7522 1.1681-7.0087 1.1681h-23.168q-4.5751 0-6.4246-1.8495t-1.8495-6.4246v-46.335q0-4.5751 1.8495-6.4246t6.4246-1.8495h21.415q5.2565 0 7.0087 1.1681 2.6283 1.7522 2.6283 6.3273 0 4.4778-2.6283 6.23-1.7522 1.1681-7.0087 1.1681z" style="white-space:pre"/>
  <path d="m346.61 403.1v37.769q0 5.2565-1.3628 7.0087-2.0442 2.6283-7.4954 2.6283t-7.4954-2.6283q-1.3628-1.7522-1.3628-7.0087v-37.769h-8.3715q-5.2565 0-7.0087-1.2655-2.6283-1.7522-2.6283-6.7167t2.6283-6.7167q1.7522-1.2655 7.0087-1.2655h34.459q5.2565 0 7.0087 1.2655 2.6283 1.7522 2.6283 6.7167t-2.6283 6.7167q-1.7522 1.2655-7.0087 1.2655z" style="white-space:pre"/>
  <path d="m392.13 427.63 11.779-32.513q0.87609-2.3362 1.4601-3.5044 0.6814-1.2655 1.9469-2.6283t3.2123-1.9468q1.9469-0.58407 4.7698-0.58407 8.3715 0 8.3715 5.4512 0 1.7522-1.4602 5.3539l-19.371 44.972q-2.0442 4.7698-4.0884 6.522t-7.106 1.7522q-2.9203 0-4.8672-0.48672-1.8495-0.48672-3.115-1.8495t-1.9469-2.4336q-0.58406-1.0708-1.5575-3.5044l-18.495-44.778q-1.4601-3.3097-1.4601-5.2565 0-5.7432 8.7609-5.7432 4.9645 0 7.2034 1.9469t4.0884 6.9114z" style="white-space:pre"/>
 </g>
 <g transform="matrix(14.195 0 0 14.195 -6939.2 -676.28)" fill="#fff" style="shape-inside:url(#rect855);white-space:pre" aria-label="17">
  <path d="m503.56 58.772v14.4q0 1.62-0.42 2.16-0.57 0.81-2.25 0.81t-2.25-0.81q-0.42-0.54-0.42-2.16v-10.38l-1.05 0.48q-0.6 0.27-1.08 0.27-0.99 0-1.59-0.87-0.57-0.87-0.57-1.86 0-0.63 0.3-1.08t0.63-0.66 0.93-0.48l3.84-1.77q1.23-0.54 2.04-0.54 0.93 0 1.41 0.54t0.48 1.95z"/>
  <path d="m514.63 61.532h-5.16q-1.62 0-2.16-0.39-0.81-0.54-0.81-2.07t0.81-2.07q0.54-0.39 2.16-0.39h9.06q1.23 0 1.77 0.36 0.66 0.42 0.66 1.47 0 0.81-0.78 2.7l-4.98 12.3q-0.63 1.53-1.35 2.13-0.72 0.57-2.13 0.57-2.61 0-2.61-1.62 0-0.6 0.39-1.47z"/>
 </g>
</svg>
