<svg version="1.1" viewBox="0 0 1e3 543.87" xmlns="http://www.w3.org/2000/svg">
 <defs>
  <linearGradient id="a" x1="178.95" x2="743.37" y1="1991.5" y2="2464.7" gradientTransform="matrix(.73465 0 0 .73465 -59.171 -1369.6)" gradientUnits="userSpaceOnUse">
   <stop stop-color="#06b0fe" offset="0"/>
   <stop stop-color="#0283fa" offset=".25"/>
   <stop stop-color="#0164f6" offset=".5"/>
   <stop stop-color="#0052f4" offset=".75"/>
   <stop stop-color="#0047f3" offset="1"/>
  </linearGradient>
 </defs>
 <path d="m543.87 271.9a271.94 271.94 0 0 1-271.94 271.94 271.94 271.94 0 0 1-271.94-271.94 271.94 271.94 0 0 1 271.94-271.94 271.94 271.94 0 0 1 271.94 271.94z" fill="url(#a)" stroke-width=".73465"/>
 <path d="m814.44 148.47v249.18h92.366c50.913 0 93.194-26.63 93.194-76.875v-98.082c0-49.483-37.888-74.224-91.869-74.224h-93.691zm55.668 50.366h34.461c27.309 0 39.763 20.881 39.763 39.763v68.922c0 25.005-19.292 39.763-37.112 39.763h-37.112v-148.45z" fill="#fff"/>
 <path d="m607.71 397.63v-249.18h55.668v100.73h71.573v-100.73h55.668v249.18h-55.668v-100.73h-71.573v100.73z" fill="#fff"/>
 <g transform="matrix(1.7977,0,0,1.7977,-235.79,736.54)" fill="#fff" stroke="#fff">
  <path d="m244.31-204.15c0.23235 0.01 0.46954 0.0146 0.71156 0.0146 3.4174 0 6.0797-0.85193 7.9821-2.551 1.9072-1.7039 3.2383-3.6256 3.9935-5.7651 0.75513-2.1444 1.67-5.3778 2.7398-9.7053l15.669-63.832c0.96811-3.9983 1.4522-6.9365 1.4522-8.8098 0-2.8172-0.99231-5.1794-2.9866-7.0866-1.9943-1.9072-4.4194-2.8608-7.2754-2.8608-0.26139 0-0.51794 5e-3 -0.76964 0.0193-0.22267-0.0146-0.45018-0.0193-0.68252-0.0193-2.8656 0-5.0584 0.75029-6.5735 2.2509s-2.5606 3.127-3.1318 4.8744c-0.57119 1.7474-1.1375 3.9789-1.699 6.6945l-10.548 51.305-11.724-47.534c-1.1521-4.2694-2.096-7.3915-2.8317-9.3713-0.73092-1.9798-2.0863-3.8434-4.0612-5.5957s-4.7486-2.6236-8.3161-2.6236c-0.24686 0-0.4889 0-0.72608 0.01-0.23719-0.01-0.47921-0.01-0.72609-0.01-3.5046 0-6.2879 0.84226-8.3451 2.5268-2.0572 1.6845-3.5142 3.6111-4.3662 5.7845-0.85193 2.1734-1.8007 5.2665-2.8366 9.2793l-11.612 47.51-10.552-51.373c-0.86645-4.1193-1.9701-7.4351-3.3158-9.9522s-4.0273-3.7756-8.045-3.7756c-0.22267 0-0.44533 5e-3 -0.66316 0.0146-0.25655-0.01-0.52277-0.0146-0.78901-0.0146-2.9092 0-5.3488 0.96328-7.3141 2.8946-1.9701 1.9314-2.9527 4.2839-2.9527 7.0527 0 2.0524 0.46953 4.4291 1.4134 7.1205l15.688 65.522c0.455 1.4522 1.002 3.4416 1.6361 5.9684 0.63411 2.5219 1.4618 4.6663 2.4832 6.4234 1.0214 1.7523 2.3912 3.1318 4.1096 4.129 1.7184 1.002 3.887 1.5006 6.5057 1.5006 0.24202 0 0.47921-5e-3 0.71156-0.0146 0.24202 0.01 0.48889 0.0146 0.7406 0.0146 3.2335 0 5.8329-0.83257 7.7933-2.4977 1.9653-1.6651 3.3303-3.5142 4.0951-5.5473 0.76481-2.0282 1.6603-4.9035 2.6914-8.6162l13.626-53.914 13.355 53.536c1.1472 4.0951 2.0911 7.135 2.8317 9.1293 0.74544 1.9895 2.096 3.8047 4.0612 5.4456 1.9653 1.641 4.5695 2.4638 7.8126 2.4638 0.25172 0 0.49858-5e-3 0.74061-0.0146zm52.466-5e-3c0.23718 0.01 0.47437 0.0193 0.7164 0.0193 3.3932 0 6.1378-1.1085 8.2386-3.3158 2.1008-2.2121 3.1512-5.4602 3.1512-9.7392v-74.699c0-4.1968-1.0504-7.3867-3.1512-9.5746-2.1056-2.1879-4.8502-3.2819-8.2386-3.2819-0.24203 0-0.48405 5e-3 -0.72124 0.0146-0.23718-0.01-0.48405-0.0146-0.73092-0.0146-3.3351 0-6.0362 1.094-8.0982 3.2916-2.0621 2.1976-3.0931 5.3875-3.0931 9.5649v74.699c0 4.25 1.0456 7.4883 3.1367 9.715 2.096 2.2267 4.7776 3.34 8.0547 3.34 0.2517 0 0.49374-0.01 0.73576-0.0193zm51.663-88.229c-1.1956-1.8297-2.3041-3.5046-3.3158-5.0293-1.0165-1.5248-2.0476-2.8124-3.1028-3.8579-1.0504-1.0407-2.2993-1.883-3.7369-2.5219-1.4425-0.63896-3.1512-0.9536-5.1358-0.9536-0.22751 0-0.45501 5e-3 -0.68252 0.0146-0.2517-0.01-0.50825-0.0146-0.76964-0.0146-2.5558 0-4.9277 0.68736-7.1253 2.0669-2.1928 1.3796-3.795 3.2771-4.8018 5.6828-0.71156 1.6603-1.0698 4.1193-1.0698 7.3673v73.15c0 3.9402 0.96811 6.9849 2.8995 9.1244 1.9314 2.1444 4.5211 3.219 7.7642 3.219 0.24203 0 0.47922-5e-3 0.71156-0.0193 0.24687 0.0146 0.49373 0.0193 0.7406 0.0193 3.1222 0 5.678-1.0698 7.6723-3.2044 1.9943-2.1347 2.9915-5.1842 2.9915-9.1486v-51.929l33.235 52.583c1.2053 1.7039 2.2944 3.2093 3.2625 4.5211 0.97294 1.3118 2.1492 2.5655 3.5288 3.7563 1.3796 1.1956 2.8462 2.0621 4.4146 2.6042 1.5635 0.54699 3.3351 0.81806 5.3101 0.81806 0.24687 0 0.4889-5e-3 0.72124-0.0146 0.24204 0.01 0.48407 0.0146 0.73094 0.0146 8.0547 0 12.082-4.613 12.082-13.834v-74.569c0-3.9402-0.94391-6.9607-2.8366-9.0615-1.8927-2.096-4.4872-3.1464-7.7885-3.1464-0.24202 0-0.47921 5e-3 -0.71639 0.0193-0.23719-0.0146-0.48406-0.0193-0.73577-0.0193-3.2141 0-5.7554 1.0504-7.6239 3.1464-1.8636 2.1008-2.7978 5.1213-2.7978 9.0615v52.786z" clip-rule="evenodd" fill="#fff" fill-rule="evenodd" stroke="#fff"/>
 </g>
</svg>
