<?xml version="1.0" encoding="UTF-8"?>
<!-- Created with Inkscape (http://www.inkscape.org/) -->
<svg id="svg3028" width="2821.4" height="1e3" version="1.1" xmlns="http://www.w3.org/2000/svg" xmlns:cc="http://creativecommons.org/ns#" xmlns:dc="http://purl.org/dc/elements/1.1/" xmlns:rdf="http://www.w3.org/1999/02/22-rdf-syntax-ns#">
 <link id="dark-mode" href="" rel="stylesheet" type="text/css"/>
 <style id="dark-mode-custom-style" type="text/css"/>
 <defs id="defs3030">
  <filter id="filter3312-7" color-interpolation-filters="sRGB">
   <feFlood id="feFlood3314-2" flood-color="rgb(0,0,0)" flood-opacity=".4" result="flood"/>
   <feComposite id="feComposite3316-4" in="flood" in2="SourceGraphic" operator="in" result="composite1"/>
   <feGaussianBlur id="feGaussianBlur3318-7" result="blur" stdDeviation="7"/>
   <feOffset id="feOffset3320-4" dx="6" dy="6" result="offset"/>
   <feComposite id="feComposite3322-3" in="SourceGraphic" in2="offset" result="composite2"/>
  </filter>
 </defs>
 <metadata id="metadata3033">
  <rdf:RDF>
   <cc:Work rdf:about="">
    <dc:format>image/svg+xml</dc:format>
    <dc:type rdf:resource="http://purl.org/dc/dcmitype/StillImage"/>
    <dc:title/>
   </cc:Work>
  </rdf:RDF>
 </metadata>
 <g id="g880" transform="matrix(1.3333 0 0 1.3333 -.43418 633.67)">
  <path id="path3074-3" d="m750.34-100.22a375 375 0 0 1-375 375 375 375 0 0 1-375-375 375 375 0 0 1 375-375 375 375 0 0 1 375 375z" fill="#e6123b"/>
  <path id="path3068-1" d="m453.72-277.14c-73.554 0-130.02 44.196-154.66 92.935v-86.297l-110.95 65.434 2.9e-4 275.49h110.95v-85.822c20.675 41.547 74.661 93.024 154.22 93.024 102.03 0 176.8-82.714 176.8-175.5 0-110.46-88.192-179.26-176.36-179.26zm0.59271 110.98c35.467 0 65.345 29.31 65.345 66.204 0 33.86-26.46 66.53-65.286 66.53-38.612 0-66.353-31.672-66.353-66.412 0-32.877 25.321-66.323 66.293-66.323z" fill="#fff"/>
  <path id="path3072-5" transform="matrix(.94832 0 0 .94832 -79.319 -1883.6)" d="m213 1889v-117.28c26.456 0 69-19.562 69-70.721h117c0 106.13-83.701 188-186 188z" fill="#fff" filter="url(#filter3312-7)"/>
 </g>
 <g id="g844" transform="translate(0 .032401)">
  <g id="g874" fill="#e6123b" stroke-width="2.0736">
   <path id="path11" d="m1111.1 263.98v472.11c92.484 0.0207 184.96-0.0207 277.42 0 12.608 0.41473 25.277-4.2111 34.297-13.107l40.582-40.518c8.8129-8.8337 14.203-21.006 14.286-33.51l0.043-72.516c0.2281-12.649-4.7274-25.154-13.499-34.236l-43.03-43.422 41.621-40.828c9.3313-9.0825 15.012-21.836 14.887-34.941l0.021-70.423c0.1867-12.711-4.894-25.257-13.769-34.34l-40.251-40.333c-8.6885-8.7922-20.84-13.974-33.24-13.891zm106.26 100.51 127.39 0.0395c3.994-0.27721 7.1568 1.384 9.9692 3.7119l13.918 13.842c2.5022 2.8174 4.4464 5.9656 4.2921 9.9632l0.088 18.158c-0.3114 5.7479-1.8245 10.246-6.4518 14.617l-20.033 19.492c-3.3613 3.2044-7.0765 5.7744-11.986 5.7744l-117.18 0.10327zm0 184.66 117.18 0.10327c4.9098 0 8.6249 2.573 11.986 5.7774l20.033 19.492c4.6273 4.3705 6.1404 8.8688 6.4518 14.617l-0.088 18.881c0.1542 3.9976-1.7899 7.1488-4.2921 9.9662l-13.918 13.842c-2.8124 2.328-5.9752 3.9861-9.9692 3.7089l-127.39 0.0425z"/>
   <path id="path13" d="m1642.3 263.93c-13.105-0.29031-26.044 5.0808-35.272 14.371l-59.223 59.202c-9.4765 9.4351-14.642 22.79-14.207 36.144v252.7c-0.4354 13.354 4.7302 26.709 14.207 36.144l59.223 59.202c9.2277 9.2899 22.167 14.661 35.272 14.371h188.85c13.105 0.29031 26.044-5.0808 35.272-14.371l59.223-59.202c9.4766-9.435 14.639-22.79 14.204-36.144v-252.7c0.4355-13.354-4.7301-26.709-14.207-36.144l-59.223-59.202c-9.2277-9.2899-22.167-14.661-35.272-14.371zm155.57 101.88c4.4998 0.0207 9.6244-0.20684 13.15 3.1317l18.869 18.62c3.8571 3.2556 3.7742 8.5851 3.8364 13.168v198.54c-0.062 4.5827 0.021 9.9122-3.8364 13.168l-18.872 18.623c-3.5252 3.3386-8.6467 3.108-13.146 3.1287l-122.29 3e-3c-4.4998-0.0207-9.6244 0.20681-13.15-3.1317l-18.869-18.62c-3.8572-3.2556-3.7742-8.5851-3.8365-13.168v-198.54c0.062-4.5828-0.021-9.9122 3.8365-13.168l18.869-18.62c3.5252-3.3386 8.6498-3.111 13.15-3.1317z"/>
   <path id="path15" d="m2063.6 278.66c8.9788-9.124 21.504-14.661 34.339-14.64l172.34-0.0622c10.057-0.16589 20.591 0.0829 29.778 4.7279 7.7554 3.5252 13.188 10.285 19.098 16.154l66.232 66.771-70.048 70.918-52.38-52.401c-3.0068-3.1105-6.8223-5.8269-11.343-5.5574l-124.6-0.0415c-5.1633-0.43547-9.3521 2.8616-12.794 6.2416l-13.676 12.63c-4.7162 3.9417-6.5179 8.4455-6.7615 14.067l0.4683 32.028c1.4931 6.3039 7.714 10.472 13.976 10.97l223.99 29.508c23.059 2.7787 43.754 22.582 44.562 46.304 0.3732 31.063 0.041 62.126 0.1659 93.189 0.4562 17.128 1.0783 36.372-11.426 49.85l-63.339 63.588c-9.7246 9.5634-22.677 13.107-34.08 13.178l-184.55-0.0207c-13.168 0.29031-26.128-5.1634-35.356-14.495l-73.282-73.303 70.027-70.711 52.961 52.898c3.1312 3.5044 7.6518 5.4537 12.38 5.1219h128.9c4.1265 0.16589 8.4397-0.89166 11.384-3.9814l19.824-19.803c2.4177-2.4177 2.9787-5.6596 3.1233-8.9556l-0.054-30.361c-0.4562-7.1126-6.9881-12.753-13.893-13.375l-224.1-28.948c-23.328-2.6128-44.334-22.769-44.874-46.781l-0.1452-108.18c-1.2497-15.891 6.4597-30.474 17.529-41.304z"/>
   <path id="path15-1" d="m2499.6 278.66c8.9788-9.124 21.504-14.661 34.339-14.64l172.34-0.0622c10.057-0.16589 20.591 0.0829 29.778 4.7279 7.7554 3.5252 13.188 10.285 19.098 16.154l66.232 66.771-70.048 70.918-52.38-52.401c-3.0068-3.1105-6.8223-5.8269-11.343-5.5574l-124.6-0.0415c-5.1633-0.43547-9.3521 2.8616-12.794 6.2416l-13.676 12.63c-4.7162 3.9417-6.5179 8.4455-6.7615 14.067l0.4683 32.028c1.4931 6.3039 7.714 10.472 13.976 10.97l223.99 29.508c23.059 2.7787 43.754 22.582 44.562 46.304 0.3732 31.063 0.041 62.126 0.1659 93.189 0.4562 17.128 1.0783 36.372-11.426 49.85l-63.339 63.588c-9.7246 9.5634-22.677 13.107-34.08 13.178l-184.55-0.0207c-13.168 0.29031-26.128-5.1634-35.356-14.495l-73.282-73.303 70.027-70.711 52.961 52.898c3.1312 3.5044 7.6518 5.4537 12.38 5.1219h128.9c4.1265 0.16589 8.4397-0.89166 11.384-3.9814l19.824-19.803c2.4177-2.4177 2.9787-5.6596 3.1233-8.9556l-0.054-30.361c-0.4562-7.1126-6.9881-12.753-13.893-13.375l-224.1-28.948c-23.328-2.6128-44.334-22.769-44.874-46.781l-0.1452-108.18c-1.2497-15.891 6.4597-30.474 17.529-41.304z"/>
  </g>
 </g>
</svg>
