<?xml version="1.0" encoding="UTF-8"?>
<!-- Created with Inkscape (http://www.inkscape.org/) -->
<svg id="svg2" width="1e3" height="360.05" xmlns:cc="http://creativecommons.org/ns#" xmlns:dc="http://purl.org/dc/elements/1.1/" xmlns:rdf="http://www.w3.org/1999/02/22-rdf-syntax-ns#" version="1.1" xmlns:xlink="http://www.w3.org/1999/xlink" xmlns="http://www.w3.org/2000/svg">
 <link id="dark-mode" href="" rel="stylesheet" type="text/css"/>
 <style id="dark-mode-custom-style" type="text/css"/>
 <defs id="defs4">
  <linearGradient id="linearGradient3324">
   <stop id="stop3326" offset="0"/>
   <stop id="stop3328" stop-color="#808080" offset=".88337"/>
   <stop id="stop3330" stop-color="#fff" offset="1"/>
  </linearGradient>
  <radialGradient id="radialGradient5583" cx="90.613" cy="147.49" r="31.771" gradientTransform="matrix(-.35535 3.3671 -2.0887 -.22043 914.01 1554.9)" gradientUnits="userSpaceOnUse" xlink:href="#linearGradient3324"/>
 </defs>
 <metadata id="metadata7">
  <rdf:RDF>
   <cc:Work rdf:about="">
    <dc:format>image/svg+xml</dc:format>
    <dc:type rdf:resource="http://purl.org/dc/dcmitype/StillImage"/>
    <dc:title/>
   </cc:Work>
  </rdf:RDF>
 </metadata>
 <g id="layer1" transform="translate(-483.15 -1661.2)">
  <g id="g913" fill="#e5113a">
   <path id="path5243" d="m885.86 1759.7v162.75h100.28c3.2351 0 5.6025-1.0877 7.2467-2.8743l20.728-20.647c2.7541-2.7287 4.5342-5.3171 4.5342-8.3803v-28.501c0-2.4547-1.4515-4.4446-3.2387-6.4775l-14.25-14.25 12.955-12.955c3.1006-3.0342 4.6028-5.8931 4.5342-8.6231v-25.06c0-5.1117-1.0395-7.3305-3.2792-9.7566l-19.392-19.27c-3.8079-3.3197-6.3746-5.9513-11.659-5.9513h-98.458zm28.501 29.149h59.593c4.1447 0 5.5473 1.4305 7.4491 3.4007l5.5059 5.4654c1.4787 1.4801 2.591 3.2933 2.591 4.8985v7.0443c0 1.9431-0.75875 3.1997-1.9432 4.6152l-9.7162 9.6353c-1.7135 1.6171-2.9555 3.3197-6.4775 3.3197h-57.002v-38.379zm0 66.718h57.002c3.522 0 4.7639 1.7026 6.4775 3.3198l9.7162 9.6352c1.1845 1.4155 1.9432 2.6721 1.9432 4.6152v7.0443c0 1.6052-1.1123 3.4184-2.591 4.8986l-5.5059 5.4653c-1.9018 1.9702-3.3045 3.4007-7.4491 3.4007h-59.593v-38.379z"/>
   <path id="path5587" d="m1075 1759.7c-5.2848 0-7.8516 2.6315-11.659 5.9512l-19.392 19.27c-2.2397 2.4261-3.2792 4.6451-3.2792 9.7567v95.867c0 3.0634 1.7801 5.6516 4.5342 8.3803l20.728 20.647c1.6441 1.7867 4.0115 2.8744 7.2466 2.8744h67.771c3.2351 0 5.6025-1.0877 7.2467-2.8744l20.728-20.647c2.7541-2.7287 4.5342-5.3169 4.5342-8.3803v-95.867c0-5.1116-1.0395-7.3306-3.2792-9.7567l-19.392-19.27c-3.8078-3.3197-6.3746-5.9512-11.659-5.9512h-64.127zm9.7162 29.149h44.695c4.1446 0 5.5473 1.4305 7.4491 3.4007l5.5058 5.4653c1.4787 1.4801 2.591 3.2935 2.591 4.8986v77.568c0 1.6052-1.1123 3.4183-2.591 4.8986l-5.5058 5.4653c-1.9018 1.9704-3.3045 3.4007-7.4491 3.4007h-44.695c-4.1446 0-5.5472-1.4303-7.4491-3.4007l-5.5058-5.4653c-1.4787-1.4803-2.591-3.2934-2.591-4.8986v-77.568c0-1.6051 1.1123-3.4185 2.591-4.8986l5.5058-5.4653c1.9019-1.9702 3.3045-3.4007 7.4491-3.4007z"/>
   <path id="path5257" d="m1195.5 1794.7c0-5.1116 1.0395-7.3305 3.2793-9.7566l19.392-19.27c3.8079-3.3197 6.3747-5.9513 11.66-5.9513h64.127c5.2848 0 7.8516 2.6316 11.659 5.9513l22.741 22.57-20.341 20.486-16.327-16.458c-1.9018-1.9702-3.3045-3.4007-7.4491-3.4007h-44.695c-4.1446 0-5.5473 1.4305-7.4491 3.4007l-5.5058 5.4654c-1.4787 1.4801-2.591 3.2934-2.591 4.8985v15.404c0 3.3541 1.9685 4.5533 6.4775 5.182l80.806 9.9591c8.9787 0.8908 17.003 9.473 17.003 17.246v40.14c0 3.0634-1.7801 5.6516-4.5342 8.3803l-20.728 20.647c-1.6441 1.7866-4.0116 2.8743-7.2467 2.8743h-67.77c-3.2351 0-5.6026-1.0877-7.2468-2.8743l-25.424-25.364 20.08-20.242 16.68 16.578c1.9018 1.9704 3.3045 3.4007 7.4491 3.4007h44.695c4.1446 0 5.5473-1.4303 7.4491-3.4007l5.5058-5.4653c1.4787-1.4802 2.591-3.2934 2.591-4.8986v-15.28c0-3.9445-1.934-4.5513-7.4858-5.2437l-80.932-10.495c-7.9915-1.0668-15.87-8.6483-15.87-16.057v-38.427"/>
   <path id="path5265" d="m1350.3 1794.7c0-5.1116 1.0395-7.3305 3.2791-9.7566l19.392-19.27c3.8079-3.3197 6.3747-5.9513 11.66-5.9513h64.127c5.2848 0 7.8516 2.6316 11.659 5.9513l22.741 22.57-20.341 20.486-16.327-16.458c-1.9017-1.9702-3.3044-3.4007-7.4491-3.4007h-44.695c-4.1447 0-5.5473 1.4305-7.4491 3.4007l-5.5058 5.4654c-1.4787 1.4801-2.591 3.2934-2.591 4.8985v15.404c0 3.3541 1.9683 4.5533 6.4775 5.182l80.806 9.9591c8.9787 0.8908 17.003 9.473 17.003 17.246v40.14c0 3.0634-1.7801 5.6516-4.5342 8.3803l-20.728 20.647c-1.6442 1.7866-4.0116 2.8743-7.2467 2.8743h-67.771c-3.2351 0-5.6025-1.0877-7.2466-2.8743l-25.424-25.364 20.08-20.242 16.68 16.578c1.9018 1.9704 3.3044 3.4007 7.4491 3.4007h44.695c4.1447 0 5.5474-1.4303 7.4491-3.4007l5.5059-5.4653c1.4787-1.4802 2.591-3.2934 2.591-4.8986v-15.28c0-3.9445-1.9342-4.5513-7.4858-5.2437l-80.932-10.495c-7.9917-1.0668-15.87-8.6483-15.87-16.057v-38.427"/>
  </g>
  <g id="g5577" transform="matrix(1.0112 0 0 1.0112 -7.201 -110.14)">
   <path id="path3074" transform="matrix(.48096 0 0 .48096 446.18 855.12)" d="m820.85 2234.4a370.16 370.16 0 0 1-370.16 370.16 370.16 370.16 0 0 1-370.16-370.16 370.16 370.16 0 0 1 370.16-370.16 370.16 370.16 0 0 1 370.16 370.16z" fill="#e5113a"/>
   <path id="path3068" d="m700.16 1845.8c-34.919 0-61.727 20.982-73.426 44.12l-32.94 2.8808-19.734 49.199 1.4e-4 68.8h52.674v-40.744c9.8155 19.724 35.445 44.162 73.215 44.162 48.438 0 83.935-39.268 83.935-83.316 0-52.441-41.868-85.103-83.724-85.103zm0.28136 52.688c16.838 0 31.022 13.914 31.022 31.43 0 16.075-12.562 31.585-30.994 31.585-18.331 0-31.5-15.036-31.5-31.529 0-15.608 12.021-31.486 31.472-31.486z" fill="#fff"/>
   <path id="path3162" d="m574.06 1925.7v16.308l52.8-14.732-0.12568-78.316z" fill="url(#radialGradient5583)" fill-rule="evenodd"/>
   <path id="path3072" d="m542.99 1933.5v-52.8c11.911 0 31.064-8.8071 31.064-31.839h52.674c0 47.781-37.683 84.639-83.739 84.639z" fill="#fff"/>
  </g>
 </g>
</svg>
