<?xml version="1.0" encoding="UTF-8"?>
<svg id="svg28" width="2106.3pt" height="750pt" version="1.1" viewBox="0 0 2106.3 750" xmlns="http://www.w3.org/2000/svg" xmlns:cc="http://creativecommons.org/ns#" xmlns:dc="http://purl.org/dc/elements/1.1/" xmlns:rdf="http://www.w3.org/1999/02/22-rdf-syntax-ns#">
 <metadata id="metadata34">
  <rdf:RDF>
   <cc:Work rdf:about="">
    <dc:format>image/svg+xml</dc:format>
    <dc:type rdf:resource="http://purl.org/dc/dcmitype/StillImage"/>
    <dc:title/>
   </cc:Work>
  </rdf:RDF>
 </metadata>
 <defs id="defs32">
  <filter id="filter3312-7" color-interpolation-filters="sRGB">
   <feFlood id="feFlood3314-2" flood-color="rgb(0,0,0)" flood-opacity=".4" result="flood"/>
   <feComposite id="feComposite3316-4" in="flood" in2="SourceGraphic" operator="in" result="composite1"/>
   <feGaussianBlur id="feGaussianBlur3318-7" result="blur" stdDeviation="7"/>
   <feOffset id="feOffset3320-4" dx="6" dy="6" result="offset"/>
   <feComposite id="feComposite3322-3" in="SourceGraphic" in2="offset" result="composite2"/>
  </filter>
 </defs>
 <g id="g941" fill="#bc0dfb">
  <path id="path15" d="m808.99 204h124.94c27.823-0.42121 55.834 2.0944 82.791 9.1614 29.883 7.9562 56.278 30.304 66.247 59.952 7.9095 25.553 8.8923 53.681 0.3043 79.211-9.1029 24.781-29.812 44.11-53.985 54.102-32.691 14.415-70.955 14.976-103.72 14.976v107.95h27.671v11.736l-143.56-5.8e-4v-11.735h28.83v-313.94h-29.508v-11.408m116.57 11.408v192.47c22.582 0.53822 49.574-3.4399 62.679-24.22 8.4936-13.606 11.519-28.969 12.532-44.662 0.2424-17.196 0.9029-41.405-0.3809-54.51-1.72-18.1-6.7964-36.032-18.656-50.007-14.532-14.93-36.563-17.106-56.173-19.072z" stroke-width="2.3401"/>
  <path id="path17" d="m1810.6 204h104.9v120.57c8.7753-7.4882 17.738-15.07 28.385-19.75 27.542-12.192 59.625-11.817 87.752-1.8018 19.306 7.067 34.165 23.564 41.115 42.706 9.3837 25.296 8.6349 52.768 8.5647 79.328v104.3h24.968v11.736h-129.19l-0.7957-11.736h25.565v-113.66c-0.3113-22.293 0.3752-48.349-3.5452-65.335-2.2932-9.4773-6.8329-18.884-14.836-24.828-15.491-10.015-36.716-8.1668-51.247 2.7847-8.9625 6.8798-16.732 14.853-16.732 28.759v172.28h25.741l-0.7722 11.736h-129.87v-11.736h25.483v-313.94h-25.483z" stroke-width="2.3401"/>
  <path id="path19" d="m1157.9 303.72c30.725-10.905 65.92-11.373 95.802 2.3635 21.692 11.326 34.768 21.162 44.929 39.57 14.184 28.498 19.983 58.902 20.14 88.01h-148.82c-0.07 24.594 6.2485 51.247 21.248 71.185 10.694 14.649 29.181 21.505 46.848 21.95 14.518 0.96349 29.138-2.928 41.619-10.37 10.2-5.9055 17.705-13.284 26.009-21.08l7.3244 6.8096c-15.655 25.319-44.134 39.851-73.15 43.081-32.644 2.2465-66.856 0.51481-96.715-14.228-20.967-11.232-36.716-31.123-44.531-53.447-11.373-34.493-12.168-72.682-0.2106-107.13 8.7284-29.578 30.819-55.085 59.508-66.715m18.836 44.243c-4.673 26.539-6.8195 46.735-6.785 72.878h70.086c-1.7396-25.452-3.4165-49.984-8.6817-74.25-3.1618-14.423-9.3313-37.937-26.771-37.859-19.456 1.2559-24.456 24.595-27.848 39.232z" stroke-width="2.3401"/>
  <path id="path21" d="m1421.9 297.61c24.875-3.8845 50.405-2.4571 74.952 2.9485 19.797 4.4929 38.4 17.948 46.029 37.184 9.4304 21.505 9.5942 45.514 9.5708 68.587l0.1872 91.239c0.468 8.1902-0.117 17.621 5.312 24.36 7.301 6.5522 14.74 5.1089 26.887 5.663-11.29 10.138-23.543 14.553-36.139 16.983-7.4796 1.4227-15.226 1.41-22.807 1.41-10.413 0-21.107-1.3806-30.468-6.1778-8.7987-4.5163-14.883-12.59-20.967-20.101-19.844 17.153-46.052 27.706-72.495 26.138-20.405 1.2402-42.613-4.0249-56.746-19.633-16.03-19.446-13.526-48.112-2.9251-69.5 11.139-19.703 33.837-28.081 54.149-34.914 24.968-6.8096 50.838-11.7 76.742-12.566 0.468-27.332 1.0179-54.968-4.4578-81.902-2.4298-9.15-10.511-17.522-20.222-18.296-8.7914-0.43502-17.598-0.75159-24.895 0.60563-4.7036 1.1466-8.9893 5.1715-9.2199 10.343-1.0511 13.77 7.0574 26.104 7.8851 39.616 0.1029 3.2232 0.021 6.3948-0.3107 9.3804-1.4513 10.654-8.1844 20.074-17.107 26.064-7.7704 5.4184-16.28 6.5989-26.21 5.6924-8.4469-0.61684-15.222-4.1276-21.186-9.8794-6.4114-5.843-11.328-13.351-12.669-21.794-0.6277-4.7787-0.5697-10.162 0.021-14.879 2.0816-16.145 13.336-30.305 26.706-39.184 14.602-10.788 32.831-14.485 50.382-17.387m-13.175 159.03c-2.3458 7.8786-3.1954 15.432-2.5444 22.601 1.7764 13.288 5.9166 22.686 14.011 30.635 6.3639 6.1876 15.289 9.8729 24.014 9.3099 10.855-1.3984 18.687-6.9551 28.977-13.612v-84.293c-24.992 1.053-54.792 9.5007-64.457 35.358z" stroke-width="2.3401"/>
  <path id="path23" transform="scale(.75)" d="m2273.3 394.37c-7.6542 0.0383-15.268 0.44249-22.744 1.1328-42.371 2.4961-83.868 21.778-111.61 54.102-27.987 30.546-36.442 73.728-34.726 114.01-1.8566 42.438 10.357 88.552 40.377 119.42 13.302 12.205 24.553 22.27 39.401 28.663 37.858 16.253 80.318 18.081 120.96 15.284 38.689-4.3057 76.662-23.682 97.535-57.441l-9.7676-9.0801c-11.072 10.395-21.077 20.233-34.678 28.107-16.64 9.9228-36.135 15.111-55.492 13.826-23.557-0.59284-48.204-9.7339-62.463-29.266-7.7611-9.3757-13.975-20.292-18.805-31.201-13.292-33.791-10.951-70.888-10.795-106.46 1.0608-39.063 5.7734-81.778 33.043-112.07 4.7403-5.4713 10.601-8.5884 16.994-10.277 8.8506-2.3384 18.72-1.9391 28.043-1.2605 10.831 1.058 12.35 8.0699 12.997 14.69 1.8408 20.78-0.6244 41.591-2.6524 62.246-1.3416 15.413 3.1207 31.824 13.978 43.15 10.577 10.359 25.365 15.6 39.904 17.191 16.162 1.9969 31.545-6.9259 42.496-18.158 13.635-17.909 15.976-42.996 7.8945-63.744-7.6442-18.19-19.625-34.946-35.943-46.303-26.846-20.027-60.779-26.727-93.947-26.561z" stroke-width="3.1201"/>
 </g>
 <g id="g880" transform="translate(-.33923 475.22)">
  <path id="path3074-3" d="m750.34-100.22a375 375 0 0 1-375 375 375 375 0 0 1-375-375 375 375 0 0 1 375-375 375 375 0 0 1 375 375z" fill="#bc0dfb"/>
  <path id="path3068-1" d="m453.72-277.14c-73.554 0-130.02 44.196-154.66 92.935v-86.297l-110.95 65.434 2.9e-4 275.49h110.95v-85.822c20.675 41.547 74.661 93.024 154.22 93.024 102.03 0 176.8-82.714 176.8-175.5 0-110.46-88.192-179.26-176.36-179.26zm0.59271 110.98c35.467 0 65.345 29.31 65.345 66.204 0 33.86-26.46 66.53-65.286 66.53-38.612 0-66.353-31.672-66.353-66.412 0-32.877 25.321-66.323 66.293-66.323z" fill="#fff"/>
  <path id="path3072-5" transform="matrix(.94832 0 0 .94832 -79.319 -1883.6)" d="m213 1889v-117.28c26.456 0 69-19.562 69-70.721h117c0 106.13-83.701 188-186 188z" fill="#fff" filter="url(#filter3312-7)"/>
 </g>
</svg>
