<?xml version="1.0" encoding="UTF-8"?>
<!-- Created with Inkscape (http://www.inkscape.org/) -->
<svg id="svg2" width="1e3" height="356.06" xmlns:cc="http://creativecommons.org/ns#" xmlns:dc="http://purl.org/dc/elements/1.1/" xmlns:rdf="http://www.w3.org/1999/02/22-rdf-syntax-ns#" version="1.1" xmlns:xlink="http://www.w3.org/1999/xlink" xmlns="http://www.w3.org/2000/svg">
 <link id="dark-mode" href="" rel="stylesheet" type="text/css"/>
 <style id="dark-mode-custom-style" type="text/css"/>
 <defs id="defs4">
  <linearGradient id="linearGradient3324">
   <stop id="stop3326" offset="0"/>
   <stop id="stop3328" stop-color="#808080" offset=".88337"/>
   <stop id="stop3330" stop-color="#fff" offset="1"/>
  </linearGradient>
  <radialGradient id="radialGradient3319" cx="90.613" cy="147.49" r="31.771" gradientTransform="matrix(-.99802 9.4568 -5.8663 -.61907 2218.8 -1006.3)" gradientUnits="userSpaceOnUse" xlink:href="#linearGradient3324"/>
 </defs>
 <metadata id="metadata7">
  <rdf:RDF>
   <cc:Work rdf:about="">
    <dc:format>image/svg+xml</dc:format>
    <dc:type rdf:resource="http://purl.org/dc/dcmitype/StillImage"/>
    <dc:title/>
   </cc:Work>
  </rdf:RDF>
 </metadata>
 <g id="layer1" transform="translate(-533 -1163.4)">
  <g id="g914" fill="#bb00fd">
   <path id="path2998" d="m917.22 1261.1v6.3613h13.24v147.58h-13.24v6.3614h68.066v-6.3614h-13.359v-50.891h10.973c45.838 0 67.032-18.467 67.032-49.976 0-38.959-27.104-53.077-64.965-53.077h-67.748zm54.707 6.3613c21.958 0 36.617 8.2579 36.617 45.205 0 36.567-10.594 45.126-36.617 45.126v-90.331z"/>
   <path id="path3002" d="m1104.4 1304.6c-33.224 0-54.31 23.875-54.31 61.983 0 38.456 22.77 57.371 59.359 57.371 29.938 0 40.948-11.64 47.551-21.509l-5.0494-3.2602c-4.3257 5.3428-15.787 14.87-30.097 14.87-20.065 0-33.34-16.779-34.152-43.575h71.247c0-50.905-28.031-65.879-54.548-65.879zm0.2783 6.242c7.0194 0 16.102 14.683 16.102 52.004v1.2722h-33.079v-1.2722c0-30.949 7.5893-52.004 16.977-52.004z"/>
   <path id="path3006" d="m1222.8 1304.6c-30.21 0-51.805 12.079-51.805 30.932 0 11.502 8.3691 19.8 18.527 19.8 9.7356 0 18.607-7.3266 18.607-18.607 0-8.3075-4.5019-14.819-4.5324-19.521-0.023-3.5905 2.6738-6.441 11.212-6.441 14.663 0 17.255 10.954 17.255 22.861v24.173c-44.716 4.4533-66.555 13.979-66.555 40.872 0 16.442 13.053 25.247 31.608 25.247 19.266 0 27.978-6.4101 35.623-12.484 5.412 7.1573 10.766 12.484 25.008 12.484 18.913 0 27.632-8.1903 27.632-8.1903l-1.312-2.0277c-8.3509 1.9943-14.472 0.018-14.472-15.188v-49.618c0-30.41-12.364-44.291-46.795-44.291zm9.2636 59.558v38.168s-5.9396 8.0312-14.353 8.0312c-8.2665 0-17.056-8.1591-17.056-22.304 0-14.386 13.726-22.38 31.409-23.895z"/>
   <path id="path3010" d="m1282 1363.8c0-38.336 24.524-59.266 60.051-59.266 27.062 0 48.418 14.583 48.418 35.867 0 11.098-7.9834 19.744-18.95 19.744-13.731 0-20.042-9.2687-20.042-21.084 0-10.746 6.5887-28.525-7.6894-28.525-17.107 0-24.011 21.912-24.011 52.238 0 33.24 11.492 51.398 34.977 51.398 13.287 0 23.579-8.8054 28.765-15.435l5.2619 4.0692c-8.4826 10.205-17.679 21.188-46.164 21.188-35.038 0-60.616-15.768-60.616-60.195z"/>
   <path id="path3012" d="m1392.4 1421.4v-6.3614h12.086v-147.58h-12.086v-6.3613h50v57.252c6.6902-6.5212 17.802-13.858 36.056-13.858 20.097 0 42.188 10.934 42.188 43.85v66.7h12.341v6.3614h-61.959v-6.3614h12.341v-72.519c0-12.851-4.7804-26.583-19.284-26.583-13.801 0-21.683 13.86-21.683 13.86v85.242h11.705v6.3614z"/>
  </g>
  <g id="layer1-7" transform="matrix(1.2723 0 0 1.2723 243.84 -1833)">
   <g id="layer1-2" transform="translate(9.1169 1105.3)">
    <g id="layer1-8" transform="matrix(.42699 0 0 .42699 -195.49 1509)">
     <g id="g3313" transform="matrix(.65543 0 0 .65543 304.36 -309.58)">
      <path id="path3074" transform="matrix(1.3508 0 0 1.3508 904.92 -2971.8)" d="m820.85 2234.4a370.16 370.16 0 0 1-370.16 370.16 370.16 370.16 0 0 1-370.16-370.16 370.16 370.16 0 0 1 370.16-370.16 370.16 370.16 0 0 1 370.16 370.16z" fill="#bb00fd"/>
      <path id="path3068" d="m1618.2-189.5c-98.073 0-173.36 58.928-206.22 123.91l-92.513 8.0909-55.424 138.18 4e-4 193.23h147.94v-114.43c27.567 55.396 99.548 124.03 205.63 124.03 136.04 0 235.74-110.29 235.74-234 0-147.28-117.59-239.02-235.14-239.02zm0.7902 147.98c47.289 0 87.127 39.08 87.127 88.272 0 45.147-35.28 88.707-87.048 88.707-51.482 0-88.47-42.23-88.47-88.549 0-43.836 33.761-88.43 88.391-88.43z" fill="#fff"/>
      <path id="path3162" d="m1264.1 34.882v45.802l148.29-41.376-0.353-219.95z" fill="url(#radialGradient3319)" fill-rule="evenodd"/>
      <path id="path3072" d="m1176.8 57.065v-148.29c33.452 0 87.245-24.735 87.245-89.422h147.94c0 134.2-105.83 237.71-235.18 237.71z" fill="#fff"/>
     </g>
    </g>
   </g>
  </g>
 </g>
</svg>
