<?xml version="1.0" encoding="UTF-8"?>
<!-- Generator: Adobe Illustrator 16.0.0, SVG Export Plug-In . SVG Version: 6.00 Build 0)  -->
<svg id="Logo" width="595.28" height="271.83" enable-background="new 0 285.03 595.281 271.83" version="1.1" viewBox="0 285.03 595.28 271.83" xml:space="preserve" xmlns="http://www.w3.org/2000/svg" xmlns:cc="http://creativecommons.org/ns#" xmlns:dc="http://purl.org/dc/elements/1.1/" xmlns:rdf="http://www.w3.org/1999/02/22-rdf-syntax-ns#"><metadata id="metadata34"><rdf:RDF><cc:Work rdf:about=""><dc:format>image/svg+xml</dc:format><dc:type rdf:resource="http://purl.org/dc/dcmitype/StillImage"/><dc:title/></cc:Work></rdf:RDF></metadata><defs id="defs32"><linearGradient id="SVGID_1_" x1="277.96" x2="277.96" y1="643.15" y2="826.35" gradientTransform="matrix(1.3729 0 0 -1.3729 -.0122 1439.8)" gradientUnits="userSpaceOnUse"><stop id="stop10" stop-color="#FFDC00" offset="0"/><stop id="stop12" stop-color="#FFD206" offset=".0863"/><stop id="stop14" stop-color="#FFB616" offset=".2353"/><stop id="stop16" stop-color="#FF882F" offset=".4292"/><stop id="stop18" stop-color="#FF4A52" offset=".6576"/><stop id="stop20" stop-color="#FF0579" offset=".8845"/></linearGradient></defs><g id="g4582"><g id="g4575"><path id="polygon2" d="m0 285.03 46.266 78.528h66.31l45.854-78.528z" fill="#ff0579"/><path id="polygon6" d="m35.146 506.48h94.866l81.961-142.92-47.227-78.528z" fill="#ff0579"/><path id="path23" d="m315.62 403.92h-30.478l-20.456 106.54c-6.041 31.988-30.478 46.403-54.778 46.403h-42.01l23.888-42.284c19.907 0 21.005-4.668 25.398-28.281l15.788-82.373h-30.89l23.064-40.363h15.788l2.333-11.12c6.865-31.164 29.243-43.795 53.955-43.795h37.617l-8.375 39.813c-7.398 0-15.181-0.621-22.426 1.128-2.657 0.642-5.334 1.721-7.203 3.791-1.539 1.704-2.333 3.887-2.876 6.083-0.335 1.356-0.59 2.73-0.856 4.101h30.478zm116.83-46.678c8.816 0 17.399-4.369 22.653-11.437 5.43-7.302 7.007-17.404 3.456-25.866-3.424-8.157-11.234-13.638-19.992-14.473-8.848-0.843-17.81 2.846-23.634 9.531-6.016 6.904-8.252 16.799-5.45 25.567 2.682 8.394 9.864 14.748 18.552 16.292 1.457 0.259 2.935 0.386 4.415 0.386zm162.82 6.314h-52.033l-21.553 37.48 19.494 33.91-19.494 34.047 21.553 37.479h52.033l-41.049-71.526zm-248.08-54.915-38.303 197.83h52.17l38.303-197.83zm83.47 54.915h-28.83l-27.732 142.92h52.17l21.828-112.58z" fill="url(#SVGID_1_)"/><path id="polygon25" d="m491.49 506.48 41.051-71.389-41.051-71.528h-52.032l41.049 71.528-41.049 71.389z" fill="#ff0579"/></g></g></svg>
