<svg enable-background="new 0 285.03 595.281 271.83" height="271.82999" viewBox="0 285.03 595.281 271.83" width="595.28101" xmlns="http://www.w3.org/2000/svg" xmlns:xlink="http://www.w3.org/1999/xlink"><linearGradient id="a" gradientTransform="matrix(1.3729 0 0 -1.3729 -.0122 1439.8326)" gradientUnits="userSpaceOnUse" x1="277.9585" x2="277.9585" y1="643.15411" y2="826.35327"><stop offset="0" stop-color="#ffdc00"/><stop offset=".0863" stop-color="#ffd206"/><stop offset=".2353" stop-color="#ffb616"/><stop offset=".4292" stop-color="#ff882f"/><stop offset=".6576" stop-color="#ff4a52"/><stop offset=".8845" stop-color="#ff0579"/></linearGradient><path d="m0 285.03 46.266 78.528h66.31l45.854-78.528z" fill="#ff0579"/><path d="m35.146 506.475h94.866l81.961-142.917-47.227-78.528z" fill="#ff0579"/><path d="m315.625 403.922h-30.478l-20.456 106.535c-6.041 31.988-30.478 46.403-54.778 46.403h-42.01l23.888-42.284c19.907 0 21.005-4.668 25.398-28.281l15.788-82.373h-30.89l23.064-40.363h15.788l2.333-11.12c6.865-31.164 29.243-43.795 53.955-43.795h37.617l-8.375 39.813c-7.398 0-15.181-.621-22.426 1.128-2.657.642-5.334 1.721-7.203 3.791-1.539 1.704-2.333 3.887-2.876 6.083-.335 1.356-.59 2.73-.856 4.101h30.478zm116.832-46.678c8.816 0 17.399-4.369 22.653-11.437 5.43-7.302 7.007-17.404 3.456-25.866-3.424-8.157-11.234-13.638-19.992-14.473-8.848-.843-17.81 2.846-23.634 9.531-6.016 6.904-8.252 16.799-5.45 25.567 2.682 8.394 9.864 14.748 18.552 16.292 1.457.259 2.935.386 4.415.386zm162.824 6.314h-52.033l-21.553 37.48 19.494 33.91-19.494 34.047 21.553 37.479h52.033l-41.049-71.526zm-248.08-54.915-38.303 197.832h52.17l38.303-197.832zm83.47 54.915h-28.83l-27.732 142.917h52.17l21.828-112.576z" fill="url(#a)"/><path d="m491.49 506.475 41.051-71.389-41.051-71.528h-52.032l41.049 71.528-41.049 71.389z" fill="#ff0579"/></svg>