<?xml version="1.0" encoding="UTF-8" standalone="no"?>
<!-- Generator: Adobe Illustrator 16.0.0, SVG Export Plug-In . SVG Version: 6.00 Build 0)  -->

<svg
   xmlns:dc="http://purl.org/dc/elements/1.1/"
   xmlns:cc="http://creativecommons.org/ns#"
   xmlns:rdf="http://www.w3.org/1999/02/22-rdf-syntax-ns#"
   xmlns:svg="http://www.w3.org/2000/svg"
   xmlns="http://www.w3.org/2000/svg"
   xmlns:sodipodi="http://sodipodi.sourceforge.net/DTD/sodipodi-0.dtd"
   xmlns:inkscape="http://www.inkscape.org/namespaces/inkscape"
   version="1.1"
   id="Logo"
   x="0px"
   y="0px"
   width="595.28101"
   height="271.82999"
   viewBox="0 285.03 595.281 271.83"
   enable-background="new 0 285.03 595.281 271.83"
   xml:space="preserve"
   sodipodi:docname="7flix.svg"
   inkscape:version="0.92.0 r15299"><metadata
     id="metadata34"><rdf:RDF><cc:Work
         rdf:about=""><dc:format>image/svg+xml</dc:format><dc:type
           rdf:resource="http://purl.org/dc/dcmitype/StillImage" /><dc:title /></cc:Work></rdf:RDF></metadata><defs
     id="defs32"><linearGradient
       gradientTransform="matrix(1.3729,0,0,-1.3729,-0.0122,1439.8326)"
       y2="826.35327"
       x2="277.9585"
       y1="643.15411"
       x1="277.9585"
       gradientUnits="userSpaceOnUse"
       id="SVGID_1_"><stop
         id="stop10"
         style="stop-color:#FFDC00"
         offset="0" /><stop
         id="stop12"
         style="stop-color:#FFD206"
         offset="0.0863" /><stop
         id="stop14"
         style="stop-color:#FFB616"
         offset="0.2353" /><stop
         id="stop16"
         style="stop-color:#FF882F"
         offset="0.4292" /><stop
         id="stop18"
         style="stop-color:#FF4A52"
         offset="0.6576" /><stop
         id="stop20"
         style="stop-color:#FF0579"
         offset="0.8845" /></linearGradient></defs><sodipodi:namedview
     pagecolor="#ffffff"
     bordercolor="#666666"
     borderopacity="1"
     objecttolerance="10"
     gridtolerance="10"
     guidetolerance="10"
     inkscape:pageopacity="0"
     inkscape:pageshadow="2"
     inkscape:window-width="1920"
     inkscape:window-height="1017"
     id="namedview30"
     showgrid="false"
     inkscape:zoom="1.9083424"
     inkscape:cx="321.00732"
     inkscape:cy="150.67953"
     inkscape:window-x="-8"
     inkscape:window-y="-8"
     inkscape:window-maximized="1"
     inkscape:current-layer="Logo"
     fit-margin-top="0"
     fit-margin-left="0"
     fit-margin-right="0"
     fit-margin-bottom="0" /><g
     id="g4582"><g
       id="g4575"><path
         style="fill:#ff0579"
         d="m 0,285.03 46.266,78.528 h 66.31 L 158.43,285.03 Z"
         id="polygon2" /><path
         style="fill:#ff0579"
         d="m 35.146,506.475 h 94.866 L 211.973,363.558 164.746,285.03 Z"
         id="polygon6" /><path
         style="fill:url(#SVGID_1_)"
         inkscape:connector-curvature="0"
         id="path23"
         d="m 315.625,403.922 h -30.478 l -20.456,106.535 c -6.041,31.988 -30.478,46.403 -54.778,46.403 h -42.01 l 23.888,-42.284 c 19.907,0 21.005,-4.668 25.398,-28.281 l 15.788,-82.373 h -30.89 l 23.064,-40.363 h 15.788 l 2.333,-11.12 c 6.865,-31.164 29.243,-43.795 53.955,-43.795 h 37.617 l -8.375,39.813 c -7.398,0 -15.181,-0.621 -22.426,1.128 -2.657,0.642 -5.334,1.721 -7.203,3.791 -1.539,1.704 -2.333,3.887 -2.876,6.083 -0.335,1.356 -0.59,2.73 -0.856,4.101 h 30.478 z m 116.832,-46.678 c 8.816,0 17.399,-4.369 22.653,-11.437 5.43,-7.302 7.007,-17.404 3.456,-25.866 -3.424,-8.157 -11.234,-13.638 -19.992,-14.473 -8.848,-0.843 -17.81,2.846 -23.634,9.531 -6.016,6.904 -8.252,16.799 -5.45,25.567 2.682,8.394 9.864,14.748 18.552,16.292 1.457,0.259 2.935,0.386 4.415,0.386 z m 162.824,6.314 h -52.033 l -21.553,37.48 19.494,33.91 -19.494,34.047 21.553,37.479 h 52.033 l -41.049,-71.526 z m -248.08,-54.915 -38.303,197.832 h 52.17 l 38.303,-197.832 z m 83.47,54.915 h -28.83 l -27.732,142.917 h 52.17 l 21.828,-112.576 z" /><path
         style="fill:#ff0579"
         d="m 491.49,506.475 41.051,-71.389 -41.051,-71.528 h -52.032 l 41.049,71.528 -41.049,71.389 z"
         id="polygon25" /></g></g></svg>