<svg id="a" enable-background="new 0 0 197.351 66.888" version="1.1" viewBox="0 0 1395.4 752" xml:space="preserve" xmlns="http://www.w3.org/2000/svg"><g id="b" transform="matrix(22.753 0 0 22.753 230.74 -147.89)" fill="#ed1c24" fill-rule="evenodd"><polygon id="c" transform="translate(-10.141,8.4507)" points="27.442 10.392 21.332 0.2028 4.5453 28.946 16.836 28.946"/><polygon id="d" transform="translate(-10.141,8.4507)" points="20.513 0.2028 0 0.2028 5.985 10.392 14.576 10.392"/></g><g id="e" transform="matrix(.93999 0 0 .93999 -492.6 304.36)" stroke-width="3.4218"><g id="f" fill="#ed1c24"><path id="g" d="m1694.8 15.436c-1.095-1.5441-2.3651-2.8529-3.7681-4.0418-1.4115-1.142-3.0153-2.1386-4.7392-2.8914-1.728-0.8084-3.6401-1.3944-5.6887-1.7879-2.0616-0.38923-4.2687-0.57315-6.6469-0.59026-2.3993 0.017109-4.6622 0.19231-6.835 0.59026-2.1301 0.39351-4.1787 0.9966-6.1165 1.7665-1.9288 0.79129-3.7896 1.7793-5.5861 2.9385-1.7878 1.1677-3.5114 2.5321-5.2052 4.076-3.1008 2.7888-5.7315 6.048-7.9769 9.6922-2.2755 3.6743-4.1876 7.7247-5.8085 12.178-1.637 4.4056-3.0153 9.2259-4.2769 14.287-1.2366 5.0793-2.3474 10.451-3.4167 16.115-1.1025 5.5803-2.0972 10.994-2.8486 16.131-0.7354 5.0957-1.2199 9.9831-1.3451 14.503-0.1266 4.5027 0.1437 8.6476 0.9023 12.395 0.7603 3.7041 2.0384 7.0109 3.9094 9.8325 1.1446 1.5321 2.3812 2.9175 3.818 4.0938 1.3869 1.198 2.949 2.1818 4.6605 2.9774 1.7537 0.79173 3.6528 1.3598 5.6973 1.7541 2.0747 0.39266 4.3372 0.57658 6.7752 0.54322 2.3912-0.0684 4.7221-0.3042 6.8949-0.71858 2.203-0.43587 4.2985-1.1044 6.3218-1.9132 1.9976-0.83704 3.9351-1.8897 5.7657-3.1258 1.8307-1.2096 3.61-2.6134 5.3038-4.2003 3.0755-2.8658 5.6545-6.202 7.8787-9.928 2.2457-3.7677 4.0932-7.918 5.723-12.404 0.877-2.4226 1.6595-4.9791 2.4038-7.6026 0.6375-2.2054 1.2277-4.4778 1.7793-6.8087 1.2449-5.0793 2.357-10.434 3.4006-15.998 0.5174-2.6233 0.9622-5.171 1.3944-7.6939 0.5047-2.8238 0.9536-5.6138 1.3215-8.3044 0.7015-5.0437 1.1422-9.7744 1.2277-14.167 0.1061-4.3885-0.1745-8.4388-0.9625-12.041-0.774-3.6312-2.0445-6.8648-3.9563-9.658"/><path id="h" d="m1517.3 15.436c-1.094-1.5441-2.3641-2.8529-3.7674-4.0418-1.3951-1.142-2.9992-2.1215-4.7365-2.8914-1.7379-0.79129-3.6257-1.3858-5.6891-1.8007-2.0465-0.36784-4.2604-0.55177-6.6499-0.57743-2.3976 0.017109-4.6701 0.19231-6.8337 0.59026-2.1133 0.39351-4.1766 0.97094-6.1065 1.7665-1.9467 0.79985-3.7845 1.7793-5.5721 2.947-1.7879 1.1677-3.5172 2.5321-5.2213 4.0589-3.0991 2.7973-5.7479 6.0566-7.995 9.7008-2.2553 3.6743-4.1852 7.7162-5.7808 12.178-1.6545 4.3885-3.0324 9.2176-4.294 14.304-1.2199 5.0626-2.3392 10.443-3.4085 16.098-1.111 5.5885-2.1136 11.002-2.8486 16.115-0.7439 5.1464-1.2281 9.9999-1.3451 14.519-0.1403 4.5027 0.1163 8.6476 0.8773 12.39 0.8017 3.7092 2.0466 7.0243 3.9515 9.8377 1.1193 1.5321 2.3723 2.9175 3.7845 4.0938 1.3783 1.198 2.9653 2.1818 4.6947 2.9774 1.7291 0.79173 3.6343 1.3683 5.6809 1.7627 2.0798 0.39265 4.3354 0.56802 6.7666 0.54276 2.3891-0.0517 4.7033-0.3172 6.9086-0.71813 2.1889-0.43628 4.294-1.1044 6.316-1.9218 1.988-0.83704 3.9179-1.8897 5.7558-3.1177 1.8293-1.2178 3.6257-2.6215 5.288-4.2256 3.0745-2.8486 5.6638-6.1599 7.903-9.9109 2.2303-3.7677 4.0853-7.918 5.7141-12.396 0.9023-2.4646 1.6876-5.054 2.4476-7.7192 0.6183-2.1801 1.2195-4.3939 1.7629-6.6999 1.2113-5.0793 2.3224-10.434 3.3917-15.99 0.4927-2.6061 0.9523-5.1375 1.3868-7.6186 0.4846-2.8739 0.9438-5.6638 1.3031-8.3875 0.7268-5.0437 1.1695-9.7829 1.2363-14.167 0.1266-4.3885-0.1848-8.4388-0.9687-12.041-0.7522-3.6312-2.0466-6.8563-3.9519-9.658"/><path id="i" d="m1870.8 15.029c-1.1035-1.5569-2.3823-2.8829-3.8023-4.0849-1.4115-1.1549-3.0324-2.1557-4.7693-2.9171-1.7622-0.8084-3.6743-1.4029-5.7572-1.7964-2.0702-0.40206-4.32-0.58598-6.7238-0.59881-2.421 0.00342-4.6965 0.1882-6.8909 0.59881-2.1642 0.39351-4.2129 0.9966-6.1677 1.7708-1.9546 0.81268-3.841 1.7964-5.646 2.977-1.805 1.1762-3.5501 2.5621-5.2484 4.1233-3.1566 2.8016-5.7869 6.0908-8.0754 9.7819-2.2882 3.7127-4.2047 7.8147-5.8643 12.297-1.6551 4.4483-3.0495 9.3158-4.32 14.438-1.236 5.1125-2.3652 10.551-3.4601 16.257-1.1036 5.6391-2.113 11.111-2.8487 16.307-0.7654 5.1632-1.2445 10.092-1.3687 14.645-0.1335 4.5527 0.1403 8.7396 0.8941 12.504 0.7911 3.751 2.0702 7.0961 3.9693 9.9366 1.1418 1.5603 2.4038 2.9556 3.8581 4.1435 1.3944 1.2199 2.9725 2.1955 4.6964 2.9906 1.7793 0.82551 3.6743 1.3935 5.7616 1.7964 2.1 0.38067 4.3799 0.56459 6.8351 0.53465 2.4209-0.0523 4.7604-0.28572 6.9674-0.73524 2.2198-0.42772 4.3372-1.1044 6.3817-1.9132 2.0144-0.86356 3.9693-1.9064 5.8212-3.151 1.8392-1.2366 3.6442-2.6399 5.338-4.2519 3.1179-2.9089 5.74-6.2657 7.9813-10.016 2.2454-3.8081 4.1233-8.0032 5.7698-12.531 0.8853-2.4564 1.6894-5.0376 2.4422-7.6857 0.9495-2.9491 1.7923-5.9984 2.528-9.2146 1.0608-4.5113 1.9802-9.2731 2.8829-14.218 0.4363-2.5232 0.8595-4.9623 1.2274-7.3685 0.5006-2.8568 0.9454-5.6727 1.3218-8.3872 0.71-5.105 1.1675-9.8739 1.236-14.318 0.1163-4.4182-0.1677-8.5203-0.9793-12.164-0.783-3.6743-2.0531-6.9247-3.9905-9.7477"/><path id="j" d="m1745.7 43.57c-0.543 7.0407-1.6209 14.702-3.0837 23.198-1.4286 8.5627-3.0157 16.34-4.8675 23.466-1.9163 7.1091-4.0805 13.609-6.6938 19.59-2.6306 5.9714-5.7144 11.447-9.3716 16.558-3.6784 5.1378-7.9557 9.9396-12.986 14.479-3.4903 3.148-7.4168 6.1887-11.784 9.0626-4.3799 2.8153-9.2088 5.4537-14.495 7.6874-5.3124 2.2353-11.035 4.0583-17.208 5.4434-6.2191 1.2964-12.857 2.1053-19.945 2.1737-7.1173 0.13208-13.506-0.48292-19.263-1.6638-5.7893-1.1596-10.919-2.879-15.447-5.001-4.5278-2.1335-8.496-4.6448-11.896-7.4465-3.4003-2.7888-6.2739-5.813-8.6798-8.9138-3.5005-4.5411-6.1404-9.2898-8.045-14.469-1.9127-5.146-3.0573-10.676-3.5668-16.715-0.5181-6.0836-0.41-12.657 0.26-19.891 0.6512-7.2765 1.8293-15.154 3.4167-23.892 1.6123-8.6465 3.3831-16.483 5.4218-23.61 2.0384-7.1601 4.344-13.632 7.1091-19.598 2.7738-5.9454 5.9567-11.36 9.7577-16.425 3.8173-5.017 8.1784-9.6967 13.299-14.132 3.5005-3.0326 7.427-5.984 11.804-8.6873 4.3772-2.7417 9.1739-5.171 14.379-7.2799 5.2268-2.0445 10.898-3.7599 16.981-4.9017 6.0994-1.1805 12.592-1.7964 19.534-1.7195 6.8819 0.03867 13.131 0.75707 18.738 2.0103 5.6375 1.2276 10.633 3.0155 15.069 5.1286 4.4182 2.1172 8.2807 4.6536 11.613 7.3952 3.3147 2.7246 6.0993 5.646 8.3964 8.7044 3.4218 4.41 6.048 9.0294 7.9173 14.016 1.9204 5.0044 3.0923 10.329 3.6443 16.194 0.5858 5.8554 0.543 12.229 0 19.239zm-177.52 0.01711c-0.5427 7.0236-1.612 14.685-3.0827 23.189-1.4115 8.5545-3.0071 16.349-4.8866 23.458-1.8547 7.1091-4.0439 13.609-6.6664 19.573-2.6149 6.0049-5.6976 11.488-9.3566 16.582-3.6924 5.1296-7.9782 9.9417-12.999 14.471-3.492 3.148-7.4017 6.1887-11.788 9.0626-4.369 2.8153-9.1975 5.4537-14.494 7.6772-5.2884 2.2558-11.028 4.0767-17.21 5.4537-6.1986 1.2883-12.873 2.1053-19.949 2.1904-7.0844 0.10676-13.5-0.49958-19.248-1.6724-5.7643-1.1493-10.927-2.8786-15.43-5.0424-4.5527-2.1001-8.4793-4.6112-11.896-7.3948-3.4167-2.7888-6.2825-5.8208-8.6712-8.9323-3.5091-4.5411-6.1572-9.3032-8.0703-14.469-1.896-5.146-3.0321-10.676-3.5501-16.75-0.5099-6.0484-0.4011-12.621 0.26-19.848 0.6515-7.2847 1.8379-15.154 3.442-23.892 1.6038-8.6544 3.3667-16.491 5.3965-23.61 2.0466-7.1817 4.3608-13.64 7.1177-19.615 2.7734-5.9368 5.9731-11.36 9.7573-16.416 3.7845-5.0259 8.1538-9.6967 13.258-14.132 3.5005-3.0069 7.452-5.9751 11.813-8.6873 4.3689-2.7417 9.1724-5.171 14.385-7.2713 5.2381-2.0531 10.902-3.7681 16.984-4.9274 6.0819-1.1634 12.598-1.7793 19.532-1.6895 6.884 0.02395 13.133 0.74424 18.738 2.006 5.6392 1.2361 10.635 3.0069 15.07 5.1197 4.4278 2.1258 8.2873 4.6622 11.612 7.3781 3.3164 2.7417 6.0902 5.6631 8.3793 8.7215 3.442 4.41 6.0481 9.0164 7.9526 14.016 1.8796 5.03 3.066 10.334 3.6258 16.202 0.593 5.8301 0.5345 12.22-0.034 19.248zm407.47-126.39c-2.2412 0.39778-4.3799 1.0351-6.3987 1.852-2.0487 0.8469-4.0035 1.8734-5.8985 3.101-1.8564 1.2276-3.687 2.6818-5.4407 4.3029-3.2719 2.9214-6.0052 6.356-8.3964 10.193-2.3566 3.8666-4.3587 8.1353-6.0566 12.806-1.7194 4.628-3.1737 9.6967-4.4955 15.026-1.2661 5.325-2.4295 10.988-3.5587 16.934-0.6844 3.5501-6.4631 37.52-11.091 65.079l-6.2831 35.758s-0.1505 0.9025-0.3678 2.2473c-0.1061 0.65996-0.2601 1.3452-0.3679 1.9885-0.4746 2.8735-0.8253 5.6138-1.0864 8.2951-0.1403 1.2032-0.2566 2.2473-0.2908 3.0326-0.062 1.0526-0.1677 3.1661-0.1677 3.1661 0.048 0.15877 0.072 0.3172 0.089 0.46793-0.034 2.7802 0.079 5.4454 0.5091 7.8876 0.5944 3.1562 1.5867 6.0053 3.1522 8.443 0.9239 1.3298 1.9549 2.5244 3.1309 3.5505 1.172 1.0475 2.4894 1.9162 3.9266 2.6348 1.4713 0.71003 3.0584 1.228 4.7946 1.604 0.2772 0.0633 0.5861 0.0736 0.8855 0.13174l-12.656 40.559c-1.3088 0.0274-2.5965 0.0869-3.9436 0.0431-4.7693-0.18375-9.1533-0.71858-13.157-1.6942-3.9779-0.93545-7.6437-2.2588-10.993-3.9864-0.6289-0.32404-1.185-0.73524-1.7793-1.086-2.3655-1.2096-4.6023-2.4979-6.6342-3.9782-3.0926-2.2289-5.7958-4.7953-8.0371-7.5653-3.5758-4.5479-6.0566-9.8346-7.7203-15.6-2.0274 3.6025-4.4997 7.1697-7.451 10.561-1.3088 1.5056-2.6563 2.8739-4.0336 4.2088l-0.1403 0.20052c-0.2874 0.25253-0.5519 0.48802-0.8298 0.71858-0.6758 0.63813-1.3516 1.2361-2.0445 1.8225-0.034 0.024-0.044 0.0342-0.096 0.0602-0.7015 0.61462-1.4457 1.2365-2.1773 1.796-2.1557 1.7109-4.3029 3.2716-6.4586 4.6365-3.8752 2.4894-7.7846 4.4613-11.814 5.9444-4.0336 1.4722-8.2209 2.5163-12.588 3.128-4.4271 0.58981-9.0466 0.77374-14.021 0.62318-4.5596-0.17349-8.961-0.73524-13.148-1.6844-4.1746-0.97905-8.161-2.2806-11.78-3.9529-3.6744-1.6621-6.9846-3.6743-9.9233-5.9313-2.9256-2.2537-5.479-4.82-7.545-7.5923-3.7599-5.0557-6.1805-10.954-7.5834-17.418-1.4115-6.4107-1.8136-13.4-1.6124-20.663 0.2361-7.258 1.1504-14.743 2.331-22.254 1.2362-7.4766 2.7545-14.945 4.2686-22.146 1.4885-7.168 3.067-14.628 4.9189-21.987 1.882-7.3699 4.0292-14.68 6.7108-21.673 2.6649-6.9719 5.8554-13.606 9.7905-19.607 3.9008-5.9796 8.5801-11.369 14.209-15.805 3.0926-2.4979 6.5486-4.692 10.235-6.6513 3.6996-1.8863 7.6436-3.4731 11.762-4.7262 4.1021-1.2789 8.4005-2.1643 12.78-2.7246 4.3669-0.51755 8.8197-0.66725 13.307-0.41489 4.628 0.2823 8.9651 0.85117 12.947 1.7708 3.9864 0.91961 7.6861 2.1771 11.07 3.8923 3.3663 1.6852 6.4501 3.8239 9.2559 6.3817 2.4894 2.314 4.7307 5.0557 6.7923 8.1524 0.3764-2.6647 0.7699-5.3637 1.262-8.1524 1.2787-6.9764 2.8914-14.329 4.6707-21.869 1.7451-7.6689 3.5501-14.936 5.4407-21.788 1.9675-6.8522 4.102-13.349 6.5568-19.282 0.8339-2.036 1.728-3.9994 2.656-5.9327 0.2396-0.53893 0.6416-1.3431 1.185-2.4124 0.079-0.16664 0.1677-0.34218 0.2601-0.51755 0.3593-0.66725 0.7654-1.3944 1.2359-2.2071 1.0009-1.805 2.0445-3.5587 3.1481-5.2354 2.0661-3.0753 4.3285-5.8985 6.8094-8.4902 7.9173-8.7684 19.765-17.793 36.278-20.774-69.346-118.43-197.83-198.04-344.99-198.18-220.96-0.22653-400.25 178.66-400.45 399.6-0.075 64.248 15.037 124.95 41.896 178.78 7.9615-3.6357 14.803-9.607 19.59-17.443l0.26-0.34263c0.1266-0.19196 0.2601-0.39265 0.3846-0.57613 2.3306-3.6627 4.2437-7.6272 5.8479-12.122 1.5203-4.0938 2.8654-8.7649 4.1185-14.287 0.1916-0.91019 30.526-166.07 32.347-175.95l-26.499 0.04277 13.015-44.018 20.768-0.07699 2.2054-11.459c0.2498-1.5655 0.4845-3.101 0.7607-4.6879l0.66-3.7085c1.2278-7.053 2.6314-15.056 4.0347-20.71 1.1278-4.705 2.2139-8.5716 3.4334-12.156 1.7212-5.4064 3.5258-10.167 5.4718-14.526 3.1245-6.8778 6.6332-12.9 10.718-18.448 4.2772-5.8041 9.0807-11.027 14.645-15.954 4.01-3.5501 8.4125-6.8607 13.066-9.8418 4.9458-3.1652 10.334-5.958 15.99-8.2893 6.1572-2.5065 12.522-4.4271 18.897-5.723 7.0174-1.4029 14.268-2.113 21.561-2.113l0.9188-7e-3c7.2012 0 14.01 0.68864 20.259 2.0317 2.4809 0.50044 4.77 1.2019 6.9839 1.8649l0.3672 0.11531-14.494 46.54-0.6012-0.34218c-0.2909-0.16698-0.5934-0.34218-0.902-0.48761-2.206-1.0351-4.6283-1.8264-7.2097-2.3696-2.6981-0.56887-5.6053-0.86828-8.6798-0.86828h-0.2908c-3.208 0-6.3324 0.30796-9.3484 0.90678-2.6649 0.54321-5.2627 1.3302-7.9611 2.4166l-0.3426 0.10676c-0.1574 0.04277-0.3011 0.08554-0.4513 0.14543-2.0134 0.75707-3.9426 1.7023-5.9146 2.8871-1.8881 1.1891-3.7338 2.5321-5.455 4.0121-3.1327 2.6476-5.8225 5.7486-8.2288 9.4914-2.2806 3.5717-4.1352 7.4595-5.7308 11.878-1.4785 3.9864-2.7987 8.5545-4.035 13.999-0.1505 0.63731-0.8605 4.6622-1.4785 8.2123-0.5013 2.9-0.9609 5.5563-1.0776 6.1079l-2.9824 21.01 31.712-0.09855-13.074 44.216-25.922-0.15398-23.951 133.13-6.1737 32.328c-1.4535 7.6525-2.6984 14.05-4.5366 20.745-2.2974 8.4125-4.8699 15.736-7.8527 22.404-3.1579 6.9339-6.7252 13.093-10.919 18.82-4.3525 5.8896-9.2313 11.198-14.937 16.25-4.1774 3.699-8.6544 7.0691-13.324 10.06-4.0439 2.5779-8.329 4.8836-12.79 6.9072 71.3 109.32 194.61 181.64 334.9 181.77 220.9 0.2272 400.18-178.66 400.38-399.6 0.051-56.658-11.703-110.57-32.888-159.43h-0.034"/></g><g id="k" fill="#fff"><path id="l" d="m1699.7 37.137c-0.086 4.3929-0.5259 9.1232-1.2274 14.167-0.3679 2.6904-0.8171 5.4804-1.3219 8.3044-0.3507 2.3807-0.7654 4.8117-1.2102 7.3014-0.8771 4.9038-1.7879 9.607-2.8487 14.068-0.7357 3.1912-1.5785 6.2157-2.515 9.1311-0.7443 2.6232-1.5272 5.1799-2.4038 7.6026-1.6298 4.486-3.4773 8.6363-5.723 12.404-2.2242 3.726-4.8035 7.0622-7.8787 9.928-1.6938 1.5869-3.4731 2.9906-5.3038 4.2003-1.8306 1.2361-3.7681 2.2888-5.7657 3.1258-2.0233 0.80882-4.1192 1.4774-6.3218 1.9132-2.1728 0.41444-4.5038 0.65014-6.8949 0.71854-2.438 0.0342-4.7009-0.15056-6.7752-0.54321-2.0445-0.39436-3.9436-0.96238-5.6973-1.7541-1.7119-0.79557-3.2739-1.7793-4.6605-2.9774-1.4368-1.1762-2.6734-2.5617-3.818-4.0938-1.8714-2.8217-3.1494-6.1284-3.9094-9.8325-0.7607-3.7476-1.0279-7.8927-0.9027-12.395 0.1266-4.5199 0.6101-9.4069 1.3451-14.503 0.7518-5.1375 1.7462-10.551 2.8487-16.131 1.0693-5.6644 2.1803-11.036 3.4166-16.115 1.2617-5.0612 2.64-9.8818 4.277-14.287 1.6212-4.4524 3.533-8.5032 5.8085-12.178 2.2457-3.6442 4.876-6.9035 7.9769-9.6922 1.6937-1.5441 3.4177-2.9085 5.2052-4.076 1.7964-1.1591 3.6572-2.1472 5.5861-2.9385 1.9378-0.7699 3.9864-1.373 6.1165-1.7665 2.1728-0.39778 4.4353-0.57315 6.835-0.59026 2.3781 0.017109 4.5852 0.20086 6.6468 0.59026 2.049 0.39351 3.9608 0.97949 5.6888 1.7879 1.7239 0.7528 3.3277 1.7494 4.7392 2.8914 1.4029 1.1891 2.6734 2.4979 3.7681 4.0418 1.9121 2.793 3.1822 6.0265 3.9563 9.658 0.787 3.6014 1.0693 7.6518 0.9625 12.041zm42.369-29c-1.869-4.9873-4.4955-9.6067-7.9173-14.016-2.2968-3.0582-5.0814-5.9796-8.3965-8.7044-3.3318-2.7417-7.1943-5.2781-11.613-7.3952-4.4353-2.113-9.4311-3.9009-15.069-5.1286-5.6076-1.2532-11.856-1.9718-18.738-2.0103-6.9422-0.07699-13.435 0.53893-19.534 1.7195-6.0823 1.142-11.754 2.8572-16.981 4.9017-5.2052 2.1087-10.002 4.538-14.379 7.2799-4.3772 2.7032-8.304 5.6545-11.804 8.6873-5.1207 4.4353-9.4818 9.115-13.299 14.132-3.8013 5.0643-6.9839 10.479-9.7576 16.425-2.7651 5.9669-5.0707 12.438-7.1091 19.598-2.0384 7.1273-3.8092 14.964-5.4219 23.61-1.5873 8.7379-2.7651 16.616-3.4166 23.892-0.6686 7.2344-0.7768 13.807-0.2601 19.891 0.5095 6.0381 1.6541 11.569 3.5669 16.715 1.9046 5.1792 4.5445 9.928 8.045 14.469 2.4059 3.101 5.2798 6.125 8.6797 8.9138 3.3999 2.802 7.3679 5.3134 11.896 7.4465 4.5277 2.122 9.6577 3.8413 15.447 5.001 5.7558 1.181 12.145 1.796 19.263 1.6638 7.0872-0.0684 13.726-0.87725 19.945-2.1737 6.1722-1.385 11.895-3.2079 17.208-5.4434 5.2867-2.234 10.116-4.8723 14.496-7.6874 4.3669-2.8739 8.2937-5.9146 11.784-9.0626 5.0301-4.5394 9.3073-9.3412 12.986-14.479 3.6572-5.1108 6.7409-10.586 9.3716-16.558 2.6136-5.9813 4.7775-12.481 6.6937-19.59 1.8522-7.1259 3.4389-14.904 4.8675-23.466 1.4629-8.496 2.5407-16.157 3.0841-23.198 0.5516-7.0106 0.5944-13.383 0-19.239-0.5519-5.8643-1.7239-11.189-3.6442-16.194"/><path id="m" d="m1299.4 277.48c5.7059-5.0526 10.584-10.361 14.937-16.25 4.1935-5.7271 7.7607-11.886 10.919-18.82 2.9824-6.6677 5.5553-13.991 7.8526-22.404 1.8379-6.6948 3.0831-13.092 4.5367-20.745l6.1736-32.328 23.951-133.13 25.922 0.15398 13.074-44.216-31.712 0.09855 2.9825-21.01c0.1163-0.55176 0.5762-3.2079 1.0775-6.1079 0.618-3.5501 1.3287-7.5752 1.4786-8.2123 1.2366-5.4448 2.5567-10.013 4.035-13.999 1.5955-4.4182 3.4498-8.3064 5.7308-11.878 2.4062-3.7428 5.0957-6.8436 8.2287-9.4914 1.7212-1.4799 3.5673-2.823 5.4551-4.0121 1.9719-1.1848 3.9012-2.1301 5.9145-2.8871 0.1506-0.05988 0.2909-0.10265 0.4514-0.14543l0.3425-0.10676c2.6988-1.0864 5.2966-1.8734 7.9612-2.4166 3.0159-0.59882 6.1404-0.90678 9.3483-0.90678h0.2909c3.0745 0 5.9816 0.29941 8.6797 0.86828 2.5814 0.54321 5.004 1.3345 7.2097 2.3696 0.308 0.14543 0.6095 0.32062 0.902 0.48761l0.6016 0.34218 14.494-46.54-0.3675-0.11566c-2.2139-0.66297-4.5031-1.3644-6.9839-1.8649-6.2489-1.343-13.058-2.0317-20.259-2.0317l-0.9187 7e-3c-7.2933 0-14.544 0.71003-21.562 2.113-6.3745 1.296-12.74 3.2165-18.897 5.723-5.6559 2.3311-11.044 5.1242-15.99 8.2893-4.6533 2.9812-9.0558 6.292-13.066 9.8418-5.5638 4.9274-10.367 10.15-14.645 15.954-4.0853 5.5474-7.5937 11.57-10.718 18.448-1.9459 4.3587-3.7506 9.1191-5.4718 14.526-1.2195 3.5843-2.3052 7.451-3.4334 12.156-1.4033 5.6545-2.8066 13.657-4.0346 20.71l-0.6601 3.7085c-0.2772 1.5869-0.5099 3.1224-0.7603 4.6879l-2.2054 11.459-20.768 0.07699-13.015 44.018 26.499-0.04277c-1.8214 9.8849-32.155 175.04-32.347 175.95-1.2534 5.5224-2.5985 10.194-4.1184 14.287-1.6042 4.4945-3.5173 8.459-5.8479 12.122-0.1266 0.18341-0.2601 0.38409-0.3846 0.57613l-0.2601 0.34262c-4.7867 7.8359-11.629 13.807-19.59 17.443 6.8669 13.751 14.494 27.057 22.848 39.864 4.4614-2.0236 8.7465-4.3293 12.79-6.9072 4.67-2.9906 9.1471-6.3608 13.324-10.06"/><path id="n" d="m1522.2 37.137c-0.068 4.384-0.5095 9.1232-1.2359 14.167-0.3593 2.7238-0.8189 5.5139-1.3034 8.3875-0.3678 2.3307-0.7853 4.7532-1.2281 7.2179-0.8691 4.9038-1.7793 9.6153-2.8236 14.068-0.7268 3.1498-1.5707 6.1319-2.4894 9.0226-0.7603 2.6651-1.5456 5.2545-2.448 7.7192-1.6287 4.4778-3.4834 8.6281-5.714 12.396-2.2392 3.7506-4.8285 7.0622-7.903 9.9109-1.6623 1.604-3.4588 3.0078-5.2881 4.2256-1.8378 1.228-3.7677 2.2806-5.7558 3.1177-2.0219 0.8174-4.1267 1.4855-6.3159 1.9218-2.2054 0.40076-4.5195 0.66639-6.9086 0.71813-2.4312 0.0239-4.6865-0.15022-6.7667-0.54277-2.0465-0.39436-3.9518-0.97093-5.6808-1.7627-1.7294-0.79557-3.3161-1.7793-4.6947-2.9774-1.4119-1.1762-2.6653-2.5617-3.7845-4.0938-1.9046-2.8136-3.1495-6.1284-3.9515-9.8377-0.76-3.7428-1.0194-7.8876-0.8774-12.39 0.1164-4.5199 0.6016-9.373 1.3451-14.519 0.735-5.1125 1.7376-10.526 2.8487-16.115 1.0693-5.6559 2.1886-11.036 3.4084-16.098 1.2616-5.0865 2.6396-9.9157 4.294-14.304 1.5956-4.4613 3.5252-8.5032 5.7808-12.178 2.2475-3.6442 4.8959-6.9035 7.9951-9.7008 1.704-1.527 3.4334-2.8914 5.2213-4.0589 1.7875-1.1677 3.6254-2.1472 5.572-2.947 1.9299-0.79557 3.9933-1.373 6.1066-1.7665 2.1639-0.39778 4.436-0.57315 6.8337-0.59026 2.3894 0.023953 4.603 0.20941 6.6499 0.57743 2.0633 0.41489 3.9515 1.0094 5.6891 1.8007 1.7376 0.7699 3.3414 1.7494 4.7364 2.8914 1.4037 1.1891 2.6735 2.4979 3.7674 4.0418 1.9053 2.8016 3.2001 6.0265 3.9519 9.658 0.7853 3.6014 1.0943 7.6518 0.969 12.041zm42.396-29c-1.9045-4.9999-4.5109-9.6067-7.9526-14.016-2.2892-3.0582-5.0625-5.9796-8.3789-8.7215-3.325-2.7161-7.1845-5.2525-11.612-7.3781-4.436-2.113-9.4311-3.8837-15.07-5.1197-5.6052-1.2618-11.854-1.9804-18.738-2.006-6.9339-0.08999-13.45 0.5261-19.532 1.6895-6.0812 1.1591-11.746 2.8743-16.984 4.9274-5.2127 2.1001-10.016 4.5298-14.385 7.2713-4.3611 2.7118-8.3122 5.6802-11.813 8.6873-5.104 4.4353-9.4733 9.1061-13.258 14.132-3.7842 5.0557-6.9839 10.479-9.7573 16.416-2.7569 5.9751-5.0711 12.434-7.1177 19.615-2.0298 7.1187-3.7927 14.955-5.3965 23.61-1.6038 8.7386-2.7905 16.608-3.442 23.892-0.66 7.2265-0.7685 13.799-0.26 19.848 0.518 6.0734 1.6541 11.604 3.5501 16.75 1.9131 5.1662 4.5613 9.928 8.0703 14.469 2.3888 3.1113 5.2545 6.1435 8.6712 8.9323 3.4167 2.7836 7.3432 5.2949 11.896 7.3948 4.5031 2.1638 9.6659 3.8933 15.43 5.0424 5.7473 1.1728 12.163 1.7794 19.248 1.6724 7.0759-0.0852 13.75-0.90209 19.949-2.1904 6.1818-1.3769 11.921-3.1977 17.21-5.4537 5.2966-2.2238 10.125-4.862 14.494-7.6772 4.3861-2.8739 8.2958-5.9146 11.788-9.0626 5.0204-4.5291 9.3066-9.3412 12.999-14.471 3.6585-5.094 6.7412-10.577 9.3565-16.582 2.6228-5.9645 4.8118-12.464 6.6664-19.573 1.8792-7.1091 3.4751-14.904 4.8866-23.458 1.4704-8.5039 2.5397-16.165 3.0827-23.189 0.5598-7.0277 0.6184-13.418 0.034-19.248-0.5602-5.8684-1.7462-11.172-3.6258-16.202"/><path id="o" d="m1875.8 36.931c-0.068 4.4442-0.5259 9.2132-1.2359 14.318-0.3764 2.7148-0.8213 5.5303-1.3219 8.3872-0.3678 2.406-0.7911 4.8453-1.2274 7.3685-0.9026 4.9452-1.8221 9.7073-2.8828 14.218-0.7357 3.216-1.5785 6.2653-2.5281 9.2146-0.7528 2.6481-1.5569 5.2292-2.4421 7.6857-1.6469 4.5277-3.5245 8.7229-5.7698 12.531-2.2413 3.7506-4.8631 7.1074-7.9814 10.016-1.6938 1.6121-3.4988 3.0155-5.338 4.2519-1.8522 1.2447-3.8068 2.2875-5.8212 3.151-2.0445 0.80885-4.1616 1.4855-6.3816 1.9132-2.2071 0.44956-4.5469 0.6831-6.9675 0.73528-2.4551 0.0308-4.7351-0.15398-6.835-0.53466-2.0873-0.40292-3.9823-0.97093-5.7617-1.7964-1.7239-0.79513-3.302-1.7708-4.6964-2.9907-1.4542-1.1878-2.7162-2.583-3.8581-4.1434-1.8991-2.8405-3.1781-6.1852-3.9692-9.9366-0.7528-3.7643-1.0266-7.9516-0.8942-12.504 0.1232-4.553 0.6033-9.4818 1.3688-14.645 0.7356-5.196 1.7451-10.668 2.8486-16.307 1.095-5.7055 2.2242-11.144 3.4601-16.257 1.2705-5.1221 2.6649-9.9896 4.32-14.438 1.6596-4.4826 3.5758-8.5846 5.8643-12.297 2.2885-3.6914 4.9189-6.9805 8.0755-9.7819 1.6982-1.5612 3.443-2.947 5.2483-4.1233 1.805-1.1805 3.6915-2.1643 5.646-2.977 1.9549-0.77418 4.0035-1.3773 6.1678-1.7708 2.1944-0.41062 4.4696-0.59454 6.8908-0.59882 2.4038 0.013687 4.6537 0.19675 6.7239 0.59882 2.0831 0.39351 3.9949 0.98804 5.7571 1.7964 1.7366 0.76135 3.3578 1.7622 4.7693 2.9171 1.4201 1.2019 2.6992 2.5279 3.8023 4.0849 1.9378 2.823 3.208 6.0737 3.9905 9.7477 0.8127 3.6442 1.095 7.7463 0.9797 12.164zm41.886-141.78c-2.4808 2.592-4.7433 5.415-6.8094 8.4902-1.1035 1.6767-2.1472 3.4304-3.1481 5.2354-0.4705 0.81268-0.8766 1.5398-1.2359 2.2071-0.092 0.1752-0.1848 0.35073-0.2601 0.51755-0.5434 1.0693-0.9454 1.8734-1.1849 2.4124-0.928 1.9333-1.8222 3.8967-2.656 5.9327-2.4552 5.9327-4.5894 12.43-6.5569 19.282-1.8905 6.8522-3.6955 14.119-5.4407 21.788-1.7793 7.541-3.392 14.893-4.6707 21.869-0.4921 2.7888-0.8856 5.4879-1.262 8.1524-2.0616-3.0967-4.3029-5.8383-6.7923-8.1524-2.8058-2.5578-5.8896-4.6964-9.2559-6.3817-3.3832-1.7152-7.0831-2.9727-11.07-3.8923-3.9823-0.91961-8.3191-1.4885-12.947-1.7708-4.4867-0.25253-8.9395-0.10265-13.307 0.41489-4.3799 0.56032-8.6784 1.4457-12.78 2.7246-4.1191 1.2532-8.0624 2.8401-11.762 4.7262-3.687 1.959-7.143 4.1534-10.235 6.6513-5.6288 4.4353-10.308 9.8247-14.209 15.805-3.9351 6.0012-7.1259 12.635-9.7905 19.607-2.6816 6.9935-4.8288 14.303-6.7108 21.673-1.8519 7.3596-3.4304 14.819-4.9188 21.987-1.5142 7.2012-3.0324 14.67-4.2687 22.146-1.1806 7.5105-2.0959 14.996-2.331 22.254-0.2018 7.2628 0.2019 14.252 1.6124 20.663 1.4029 6.4645 3.8239 12.363 7.5834 17.418 2.0661 2.7721 4.6194 5.3384 7.5451 7.5923 2.9386 2.2571 6.2488 4.269 9.9232 5.9314 3.6185 1.6724 7.6049 2.974 11.78 3.9529 4.1876 0.9491 8.5887 1.5107 13.148 1.6844 4.9746 0.15056 9.594-0.0342 14.021-0.62321 4.3669-0.61165 8.5545-1.6557 12.588-3.1279 4.0292-1.4834 7.9386-3.4553 11.814-5.9444 2.1557-1.3649 4.3029-2.9256 6.4586-4.6365 0.7316-0.55946 1.4759-1.1814 2.1773-1.796 0.051-0.0274 0.058-0.0349 0.096-0.0602 0.693-0.58643 1.3688-1.1844 2.0446-1.8226 0.2771-0.23063 0.543-0.46622 0.8297-0.71857l0.1403-0.20052c1.3773-1.335 2.7245-2.7032 4.0337-4.2088 2.9513-3.3914 5.4235-6.9586 7.4509-10.561 1.6637 5.7657 4.1445 11.052 7.7203 15.6 2.2413 2.77 4.9445 5.3363 8.0371 7.5653 2.0315 1.4804 4.2687 2.7687 6.6342 3.9782 0.5944 0.35073 1.1504 0.76176 1.7793 1.086 3.349 1.7276 7.0147 3.051 10.993 3.9864 4.0035 0.97566 8.3875 1.5103 13.157 1.6942 1.3472 0.0438 2.6348-0.0171 3.9436-0.0431l12.657-40.559c-0.3012-0.0582-0.6074-0.0684-0.8856-0.13174-1.7366-0.37598-3.3232-0.89394-4.7946-1.604-1.4372-0.71857-2.7546-1.5873-3.9265-2.6348-1.1761-1.0261-2.2071-2.2208-3.131-3.5505-1.5655-2.4376-2.5578-5.2867-3.1521-8.443-0.4322-2.4423-0.5349-5.1074-0.5092-7.8876-0.034-0.15056-0.044-0.30933-0.089-0.46793 0 0 0.1061-2.1134 0.1677-3.166 0.034-0.7853 0.1506-1.8294 0.2908-3.0326 0.2601-2.6814 0.6119-5.4218 1.0865-8.2951 0.106-0.6433 0.26-1.3285 0.3678-1.9885 0.219-1.3448 0.3679-2.2473 0.3679-2.2473s6.266-35.758 6.2831-35.758c4.6279-27.558 10.406-61.527 11.091-65.079 1.1292-5.9454 2.2926-11.608 3.5587-16.934 1.3218-5.3295 2.7761-10.398 4.4955-15.026 1.6983-4.6708 3.6997-8.9395 6.0566-12.806 2.3912-3.8365 5.1242-7.2713 8.3964-10.193 1.7537-1.6211 3.5844-3.0753 5.4407-4.3029 1.895-1.2276 3.8495-2.2541 5.8985-3.101 2.0189-0.81695 4.1575-1.4543 6.3988-1.852h0.034c-6.3858-14.752-13.636-29.038-21.707-42.807-16.514 2.981-28.363 12.006-36.278 20.774"/><path id="p" d="m1463.2 265.95v-28.504c0-6.4159-4.0603-8.5959-7.7692-8.5959-3.701 0-7.8777 2.1801-7.8777 8.5959v28.504h-11.754v-47.135h11.487v4.3457c3.0909-3.2597 7.4266-4.8939 11.762-4.8939 4.7033 0 8.5128 1.5458 11.136 4.1674 3.7927 3.8109 4.7786 8.2288 4.7786 13.383v30.133h-11.762"/><path id="q" d="m1524.3 232.93c-1.2612-2.8072-3.8762-4.8768-7.8694-4.8768-3.9765 0-6.6 2.0698-7.8698 4.8768-0.7183 1.7225-0.9941 2.9889-1.0861 5.0725h17.92c-0.092-2.0834-0.3678-3.3499-1.0943-5.0725zm-16.825 13.134c0 6.0484 3.7178 10.476 10.334 10.476 5.1464 0 7.6778-1.4286 10.668-4.4275l7.1344 6.9671c-4.7953 4.7953-9.3983 7.425-17.903 7.425-11.136 0-21.812-5.0725-21.812-24.153 0-15.376 8.3372-24.081 20.534-24.081 13.116 0 20.542 9.5988 20.542 22.538v5.2562h-29.498"/><path id="r" d="m1573.2 265.95c-9.5739 0-13.642-6.7834-13.642-13.473v-23.341h-4.9705v-8.9555h4.9705v-13.944h11.754v13.944h8.3207v8.9555h-8.3207v22.606c0 2.7203 1.2783 4.2424 4.077 4.2424h4.2437v9.9663h-6.4326"/><path id="s" d="m1651.9 265.95h-9.6878l-9.8506-29.581-9.8664 29.581h-9.6906l-14.502-47.135h12.498l7.6104 29.14 9.5985-29.14h8.5956l9.6666 29.14 7.5923-29.14h12.417l-14.38 47.135"/><path id="t" d="m1708.3 230.95c-1.3642-1.3516-3.1692-2.095-5.5176-2.095-2.3525 0-4.0761 0.74336-5.4366 2.095-2.4466 2.4428-2.7244 6.5011-2.7244 11.403 0 4.8723 0.2772 9.0424 2.7244 11.489 1.3602 1.3516 3.0841 2.08 5.4366 2.08 2.3484 0 4.1534-0.7284 5.5176-2.08 2.4466-2.4461 2.7118-6.6164 2.7118-11.489 0-4.9021-0.2669-8.9603-2.7118-11.403zm9.1277 29.766c-2.8955 3.0676-7.695 5.791-14.645 5.791-6.9805 0-11.677-2.7233-14.568-5.791-4.2602-4.4524-5.3551-9.7809-5.3551-18.362 0-8.511 1.0949-13.849 5.3551-18.285 2.8914-3.0741 7.5878-5.7962 14.568-5.7962 6.9503 0 11.75 2.722 14.645 5.7962 4.2601 4.436 5.338 9.7744 5.338 18.285 0 8.5815-1.0779 13.91-5.338 18.362"/><path id="u" d="m1768.4 231.63c-1.8176-1.8012-3.3403-2.805-6.2488-2.805-3.597 0-7.5834 2.725-7.5834 8.6948v28.405h-11.762v-47.135h11.484v4.5298c2.2669-2.7255 6.7922-5.078 11.856-5.078 4.6194 0 7.8701 1.1762 11.129 4.4364l-8.8755 8.9518"/><path id="v" d="m1823.9 265.95-11.579-19.632-4.9787 5.6076v14.025h-11.762v-64.412h11.762v36.548l15.642-19.272h14.218l-16.844 19.001 18.105 28.134h-14.564"/></g></g></svg>
