<?xml version="1.0" encoding="UTF-8" standalone="no"?>
<svg
   xmlns:dc="http://purl.org/dc/elements/1.1/"
   xmlns:cc="http://creativecommons.org/ns#"
   xmlns:rdf="http://www.w3.org/1999/02/22-rdf-syntax-ns#"
   xmlns:svg="http://www.w3.org/2000/svg"
   xmlns="http://www.w3.org/2000/svg"
   xmlns:sodipodi="http://sodipodi.sourceforge.net/DTD/sodipodi-0.dtd"
   xmlns:inkscape="http://www.inkscape.org/namespaces/inkscape"
   width="122.30228pt"
   height="26.399998pt"
   viewBox="0 0 122.30229 26.399997"
   version="1.1"
   id="svg2"
   inkscape:version="0.91 r13725"
   sodipodi:docname="7mate HD.svg">
  <metadata
     id="metadata34">
    <rdf:RDF>
      <cc:Work
         rdf:about="">
        <dc:format>image/svg+xml</dc:format>
        <dc:type
           rdf:resource="http://purl.org/dc/dcmitype/StillImage" />
        <dc:title></dc:title>
      </cc:Work>
    </rdf:RDF>
  </metadata>
  <defs
     id="defs32">
    <clipPath
       clipPathUnits="userSpaceOnUse"
       id="clipPath3348">
      <path
         d="m 332.443,203.635 53.704,0 0,16.027 -53.704,0 0,-16.027 z"
         id="path3350"
         inkscape:connector-curvature="0" />
    </clipPath>
  </defs>
  <sodipodi:namedview
     pagecolor="#ffffff"
     bordercolor="#666666"
     borderopacity="1"
     objecttolerance="10"
     gridtolerance="10"
     guidetolerance="10"
     inkscape:pageopacity="0"
     inkscape:pageshadow="2"
     inkscape:window-width="1920"
     inkscape:window-height="1017"
     id="namedview30"
     showgrid="false"
     fit-margin-top="0"
     fit-margin-left="0"
     fit-margin-right="0"
     fit-margin-bottom="0"
     inkscape:zoom="4.0000001"
     inkscape:cx="99.346549"
     inkscape:cy="-13.233697"
     inkscape:window-x="-8"
     inkscape:window-y="-8"
     inkscape:window-maximized="1"
     inkscape:current-layer="svg2" />
  <g
     id="g4190"
     transform="matrix(0.95047628,0,0,0.95047628,3.1971105,-97.559921)">
    <path
       id="rect3002"
       d="m 91.38543,110.39088 0,16.8 4.56369,0 0,-6.55754 6.11446,0 0,6.55754 4.57108,0 0,-6.55754 0,-4.04677 0,-6.19569 -4.57108,0 0,6.19569 -6.11446,0 0,-6.19569 -4.56369,0 z"
       style="fill:#00b5e8;fill-opacity:1;fill-rule:evenodd;stroke:none"
       inkscape:connector-curvature="0" />
    <path
       sodipodi:nodetypes="cccccccccc"
       inkscape:connector-curvature="0"
       id="path3009"
       d="m 109.13804,110.39088 0,16.8 8.18216,0 c 10.74746,-1.95168 10.56105,-15.52285 0,-16.8 z m 4.64493,4.032 3.3083,0 c 4.27457,0.6492 4.25409,7.90628 0,8.53661 l -3.3083,0 z"
       style="fill:#00b5e8;fill-opacity:1;fill-rule:evenodd;stroke:none" />
  </g>
  <g
     transform="matrix(1.6472203,0,0,-1.6472203,-547.60702,361.8317)"
     id="g3344">
    <g
       id="g3346"
       clip-path="url(#clipPath3348)">
      <g
         id="g3352"
         transform="translate(385.4121,209.9423)">
        <path
           d="m 0,0 -5.636,0 c 0,0 0.1,-0.468 0.376,-0.701 -0.025,0.025 0.434,-0.41 1.102,-0.418 0.81,0 1.077,0.526 1.077,0.526 l 1.244,0 c 0,0 -0.317,-0.768 -0.977,-1.202 -0.067,-0.042 -0.501,-0.426 -1.461,-0.401 -0.167,0.008 -0.76,0.042 -1.52,0.576 -0.075,0.059 -0.885,0.643 -0.943,1.837 0,0.067 -0.067,1.086 0.659,1.845 0.234,0.234 0.885,0.769 1.879,0.802 0.994,0.033 1.603,-0.518 1.703,-0.61 0.435,-0.359 0.635,-0.977 0.635,-0.977 l -1.294,0.009 c 0,0 -0.317,0.568 -1.119,0.526 -0.874,-0.018 -1.13,-0.798 -1.13,-0.798 L -1.461,1.01 c 0,0 -0.192,0.835 -0.844,1.436 C -2.868,2.985 -3.644,3.198 -4.167,3.165 -4.813,3.1 -5.48,3.021 -6.262,2.296 -6.693,1.873 -7.017,1.141 -7.03,0.367 c 0.016,-1.135 0.464,-1.626 0.738,-1.976 0.718,-0.759 1.764,-0.88 1.917,-0.888 0.872,-0.089 1.507,0.253 2.037,0.668 0.499,0.451 0.708,1 0.787,1.238 0.018,-0.004 1.437,-0.003 1.44,0 -0.144,-0.53 -0.343,-1.422 -1.308,-2.256 -1.095,-0.941 -2.149,-1.013 -2.923,-0.985 -1.42,0.091 -2.121,0.624 -2.672,1.083 -1.205,1.065 -1.324,2.566 -1.319,2.899 -0.042,1.395 0.518,2.264 0.827,2.672 0.893,1.22 2.184,1.626 3.361,1.667 0.155,0 1.472,0.098 2.792,-1.107 C 0.1,2.121 0,0 0,0 m -9.09,-0.01 c 0,0 -0.28,0.004 -0.377,0.048 -0.359,0.088 -0.351,0.316 -0.364,0.399 -0.004,0.031 0,0.35 0,0.35 l 0.767,0.005 C -9.086,0.459 -9.09,-0.01 -9.09,-0.01 m -2.2,-1.22 c -0.574,0.567 -0.664,1.263 -0.658,1.848 0.001,0 -0.009,2.254 -0.009,2.254 l 2.738,-0.003 -0.003,-1.324 -1.357,0 0,-1.086 c 0,0 0.029,-0.621 0.472,-0.953 0.307,-0.216 0.884,-0.274 0.884,-0.274 l 0.008,-1.335 c 0,0 -1.209,-0.007 -2.075,0.873 m 2.075,-2.464 c 0,0 -0.744,-0.011 -1.099,0.083 -0.253,0.057 -0.597,0.115 -1.008,0.335 -0.61,0.321 -1.242,0.874 -1.699,1.631 -0.322,0.621 -0.571,1.061 -0.539,2.847 l 0,6.167 1.275,0 0,-6.287 c 0,0.025 -0.041,-1.349 0.409,-2.079 0.139,-0.215 0.633,-0.937 1.506,-1.258 0.469,-0.184 1.155,-0.169 1.155,-0.169 z m -2.733,11.058 1.369,0 0.011,-2.839 1.342,-0.003 0,-1.285 -2.728,0.004 z m -4.058,-11.063 0,3.866 c 0,0 0.025,1.277 -0.61,2.012 -0.793,0.952 -1.653,1.044 -2.137,1.077 -0.084,0 -1.478,0.017 -2.238,-0.918 -0.835,-1.027 -0.76,-2.012 -0.76,-2.012 0,0 0.034,-1.136 0.777,-1.879 1.048,-1.05 2.534,-0.875 2.997,-0.893 0.006,-0.004 0.003,-1.251 0.003,-1.251 l -0.89,-0.003 c -0.69,0.032 -1.714,-0.077 -2.828,0.928 -0.025,0.017 -1.378,1.135 -1.445,3.106 -0.008,0.334 -0.033,1.511 1.111,2.881 0.05,0.041 1.244,1.402 3.156,1.427 1.837,-0.075 2.713,-0.684 3.415,-1.594 0.893,-1.119 0.768,-2.338 0.801,-2.981 0,-0.025 0.011,-3.765 0.011,-3.765 z m -2.375,3.965 0,-0.298 c -0.013,-0.009 -0.456,-0.018 -0.491,-0.009 -0.18,0.013 -0.311,0.118 -0.337,0.149 -0.097,0.114 -0.11,0.303 -0.11,0.342 -0.004,0.206 0.123,0.364 0.123,0.364 0,0 0.083,0.105 0.329,0.118 0.254,0 0.319,-0.114 0.39,-0.237 0.07,-0.122 0.096,-0.368 0.096,-0.429 m 2.032,-0.349 0,-3.608 -1.285,0 0.008,3.614 c 0,0 0.033,0.575 -0.15,1.016 -0.051,0.08 -0.225,0.73 -1.111,0.723 -0.284,-0.006 -0.59,-0.039 -0.852,-0.318 -0.281,-0.25 -0.323,-0.797 -0.325,-0.835 0.005,-0.188 -0.123,-0.668 0.512,-1.076 0.463,-0.322 1.584,-0.218 1.584,-0.218 l -0.009,-1.344 -0.509,0 c -0.218,-0.003 -1.296,-0.069 -2.079,0.673 -0.043,0.047 -0.861,0.694 -0.805,1.961 0,0.075 -0.026,0.94 0.743,1.663 0.089,0.078 0.529,0.651 1.732,0.721 1.358,-0.003 1.881,-0.76 1.937,-0.804 0.701,-0.757 0.609,-2.168 0.609,-2.168 m -9.02,-3.621 -0.011,4.252 c 0,0 0.05,0.973 -0.748,1.876 -0.623,0.71 -1.422,0.988 -2.013,0.969 -2.243,-0.066 -2.841,-1.762 -2.841,-1.762 0,0 -0.599,1.756 -2.715,1.751 -0.895,0.007 -1.552,-0.388 -1.98,-0.788 -0.805,-0.753 -0.891,-1.787 -0.869,-2.051 0.003,-0.066 0,-4.242 0,-4.242 l -1.336,-0.011 0,4.258 c 0,0 -0.059,1.492 1.113,2.759 1.033,1.162 2.335,1.357 2.928,1.377 1.716,0.05 2.839,-1.013 2.839,-1.013 0,0 1.237,1.013 2.672,1.008 0.9,-0.005 2.165,-0.387 3.12,-1.412 1.252,-1.342 1.132,-2.73 1.132,-2.73 l 0.012,-4.241 z m -1.662,0.007 c 0,0 -0.015,4.205 -0.016,4.251 0.001,0.134 -0.074,1.087 -1.267,1.137 -1.127,-0.065 -1.208,-1.142 -1.208,-1.142 l 0,-4.247 -1.326,-0.004 c 0.019,3.36 0.008,4.124 0.005,4.25 -0.001,0.021 -0.001,0.035 0,0 l 0,-0.005 c 0.006,1.175 0.489,1.487 0.799,1.816 0.409,0.345 0.861,0.684 1.691,0.701 0.913,0.043 1.626,-0.411 2.02,-0.925 0.139,-0.195 0.596,-0.729 0.574,-1.592 -0.011,-0.061 0.005,-4.245 0.005,-4.245 z m -4.155,4.24 c -0.011,-0.062 -0.006,-4.242 -0.006,-4.242 l -1.274,0 -0.011,4.247 c 0,0 -0.039,1.063 -1.208,1.141 -1.225,-0.044 -1.208,-1.141 -1.208,-1.141 l 0,-4.247 -1.303,0 c 0,0 0,4.147 -0.005,4.242 0.005,1.174 0.729,1.789 0.779,1.837 0.372,0.358 0.868,0.662 1.698,0.679 0.935,-0.006 1.712,-0.342 2.098,-0.902 0.139,-0.195 0.462,-0.751 0.44,-1.614 m -11.957,-6.14 -6.273,0.005 8.556,14.607 3.122,-5.183 z m -5.544,9.429 -3.061,5.177 10.476,0 -3.034,-5.171 z M 0.305,2.308 C 0.283,2.343 0.091,2.896 -0.518,3.605 -0.541,3.627 -1.031,4.215 -1.873,4.675 -1.899,4.692 -2.652,5.1841415 -4.033,5.2491415 -4.73,5.2571415 -5.317,5.1 -5.317,5.1 -5.317,5.1 -6.369,4.855 -7.04,4.324 -8.03,3.597 -8.482,2.716 -8.482,2.716 l 10e-4,2.559 -1.35,10e-4 -0.004,2.839 -4.475,-0.004 0.013,-5.522 c 0,0 -0.236,0.469 -0.359,0.64 -0.027,0.04 -0.6,0.902 -1.403,1.398 -0.53,0.293 -0.867,0.477 -1.687,0.644 -0.306,0.052 -1.192,0.175 -2.112,0.013 -0.088,-0.026 -0.719,-0.162 -1.433,-0.547 -0.412,-0.229 -0.908,-0.645 -0.908,-0.645 0,0 -0.631,-0.609 -0.802,-0.92 -0.376,-0.583 -0.587,-1.131 -0.587,-1.131 0,0 -0.346,0.973 -1.012,1.67 -0.061,0.07 -0.587,0.67 -1.192,0.99 -0.194,0.106 -0.719,0.43 -1.688,0.649 -0.303,0.049 -0.893,0.105 -1.293,0.057 -0.158,-0.022 -0.657,-0.062 -1.441,-0.395 -0.224,-0.087 -0.772,-0.424 -0.772,-0.424 0,0 -0.289,0.192 -0.399,0.249 -0.11,0.058 -0.657,0.359 -1.271,0.478 -0.614,0.119 -1.406,0.14 -1.95,0.053 -0.806,-0.141 -1.512,-0.557 -1.564,-0.588 -0.526,-0.329 -0.908,-0.696 -0.908,-0.696 l -3.396,5.636 -12.495,-0.005 3.874,-6.583 3.979,0.005 -5.531,-9.445 7.902,0.005 4.142,7.213 c 0,0 -0.026,-0.175 -0.031,-0.399 10e-4,-0.008 0.005,-4.961 0.005,-4.961 l 4.483,0.009 0.005,4.909 c 0,0 -0.066,0.451 0.411,0.469 0.47,0.008 0.513,-0.43 0.513,-0.43 l 0,-4.957 4.44,0.005 0,4.921 c 0,0 -0.004,0.465 0.512,0.465 0.461,-0.022 0.469,-0.421 0.469,-0.421 l 0,-4.97 4.462,0.009 0.004,2.511 c 0,0 0.452,-0.71 0.561,-0.824 0.109,-0.114 0.693,-0.78 1.153,-1.008 0.052,-0.022 0.522,-0.35 1.218,-0.53 0.048,-0.018 0.588,-0.158 1.324,-0.153 0.026,-0.005 5.176,2.338e-4 5.176,2.338e-4 L -13.899,-1.575 c 0,0 0.233,-0.482 0.364,-0.653 0.078,-0.105 0.492,-0.732 0.789,-0.946 0.03,-0.022 0.654,-0.688 1.64,-1.008 0.048,-0.013 0.644,-0.25 1.743,-0.263 0.03,0.004 0.886,0 0.886,0 l 0,2.344 c 0,0 0.373,-0.622 0.618,-0.863 0.025,-0.031 0.605,-0.648 1.144,-0.942 0.038,-0.023 0.657,-0.39 1.485,-0.566 0.043,-0.008 1.166,-0.275 2.323,0.022 0.227,0.061 1.105,0.307 1.788,0.89 0.803,0.697 1.267,1.258 1.644,2.463 0.003,0.044 0.206,0.71 0.21,1.499 C 0.727,0.56 0.7,1.41 0.305,2.308"
           style="fill:#231f20;fill-opacity:1;fill-rule:nonzero;stroke:none"
           id="path3354"
           inkscape:connector-curvature="0"
           sodipodi:nodetypes="cccccccccccsccccccccccccccccccccccccccccccccccccccccccccccccccccccccccccccccccccccccccccccccccccccccccccccccccccccccccccccccccccccccccccccccccccccccccccccccccccccccccccccccccccccccccccccccccccccccccccsccccccccccccccccccccccccsccccccccccccccccccc" />
      </g>
      <g
         id="g3356"
         transform="translate(344.5516,218.9571)">
        <path
           d="m 0,0 -8.556,-14.606 6.274,-0.006 5.405,9.43 L 0,0 Z"
           style="fill:#59caf5;fill-opacity:1;fill-rule:nonzero;stroke:none"
           id="path3358"
           inkscape:connector-curvature="0" />
      </g>
      <g
         id="g3360"
         transform="translate(344.1397,218.9516)">
        <path
           d="m 0,0 -10.476,0 3.062,-5.177 4.38,0.006 L 0,0 Z"
           style="fill:#59caf5;fill-opacity:1;fill-rule:nonzero;stroke:none"
           id="path3362"
           inkscape:connector-curvature="0" />
      </g>
      <g
         id="g3364"
         transform="translate(360.202,213.2094)">
        <path
           d="m 0,0 c -0.955,1.024 -2.22,1.407 -3.12,1.412 -1.435,0.005 -2.672,-1.008 -2.672,-1.008 0,0 -1.123,1.063 -2.839,1.013 -0.593,-0.02 -1.895,-0.215 -2.928,-1.377 -1.172,-1.267 -1.113,-2.759 -1.113,-2.759 l 0,-4.258 1.336,0.011 c 0,0 0.003,4.176 0,4.242 -0.022,0.264 0.064,1.298 0.869,2.051 0.429,0.4 1.086,0.794 1.981,0.787 2.115,0.006 2.714,-1.75 2.714,-1.75 0,0 0.598,1.696 2.841,1.762 0.591,0.018 1.391,-0.259 2.013,-0.969 0.798,-0.903 0.748,-1.876 0.748,-1.876 l 0.011,-4.253 1.303,0 -0.012,4.242 c 0,0 0.12,1.388 -1.132,2.73"
           style="fill:#59caf5;fill-opacity:1;fill-rule:nonzero;stroke:none"
           id="path3366"
           inkscape:connector-curvature="0" />
      </g>
      <g
         id="g3368"
         transform="translate(351.6878,213.0011)">
        <path
           d="m 0,0 c -0.829,-0.017 -1.326,-0.321 -1.698,-0.679 -0.049,-0.048 -0.773,-0.663 -0.779,-1.837 0.006,-0.095 0.006,-4.242 0.006,-4.242 l 1.302,0 0,4.248 c 0,0 -0.017,1.096 1.208,1.141 1.169,-0.078 1.208,-1.141 1.208,-1.141 l 0.011,-4.248 1.275,0 c 0,0 -0.006,4.181 0.005,4.242 0.023,0.863 -0.3,1.419 -0.439,1.614 C 1.712,-0.342 0.935,-0.006 0,0"
           style="fill:#59caf5;fill-opacity:1;fill-rule:nonzero;stroke:none"
           id="path3370"
           inkscape:connector-curvature="0" />
      </g>
      <g
         id="g3372"
         transform="translate(354.5692,210.4905)">
        <path
           d="M 0,0 C -0.001,0.034 -0.001,0.021 0,0"
           style="fill:#59caf5;fill-opacity:1;fill-rule:nonzero;stroke:none"
           id="path3374"
           inkscape:connector-curvature="0" />
      </g>
      <g
         id="g3376"
         transform="translate(359.6529,210.4857)">
        <path
           d="M 0,0 C 0.022,0.863 -0.435,1.397 -0.574,1.591 -0.968,2.105 -1.681,2.559 -2.594,2.517 -3.423,2.5 -3.876,2.16 -4.285,1.816 -4.595,1.487 -5.078,1.174 -5.083,0 c -10e-4,0.002 -10e-4,0.003 -10e-4,0.005 0.003,-0.126 0.014,-0.89 -0.004,-4.25 l 1.325,0.004 0,4.247 c 0,0 0.081,1.077 1.208,1.141 1.193,-0.049 1.268,-1.002 1.268,-1.136 0,-0.046 0.015,-4.251 0.015,-4.251 l 1.277,-0.005 c 0,0 -0.016,4.184 -0.005,4.245"
           style="fill:#59caf5;fill-opacity:1;fill-rule:nonzero;stroke:none"
           id="path3378"
           inkscape:connector-curvature="0" />
      </g>
      <g
         id="g3380"
         transform="translate(366.5168,212.8313)">
        <path
           d="m 0,0 c -1.202,-0.07 -1.643,-0.643 -1.732,-0.721 -0.768,-0.723 -0.743,-1.588 -0.743,-1.663 -0.056,-1.267 0.763,-1.914 0.805,-1.961 0.783,-0.742 1.861,-0.676 2.079,-0.673 -0.001,0 0.509,0 0.509,0 l 0.009,1.344 c 0,0 -1.121,-0.104 -1.584,0.218 -0.635,0.408 -0.506,0.888 -0.512,1.076 0.002,0.038 0.045,0.585 0.326,0.835 0.261,0.279 0.567,0.312 0.851,0.318 0.887,0.007 1.061,-0.643 1.111,-0.723 0.183,-0.441 0.15,-1.016 0.15,-1.016 l -0.008,-3.614 1.286,0 0,3.608 c 0,0 0.091,1.411 -0.61,2.168 C 1.881,-0.76 1.358,-0.003 0,0"
           style="fill:#59caf5;fill-opacity:1;fill-rule:nonzero;stroke:none"
           id="path3382"
           inkscape:connector-curvature="0" />
      </g>
      <g
         id="g3384"
         transform="translate(369.9568,212.9899)">
        <path
           d="M 0,0 C -0.701,0.91 -1.578,1.52 -3.415,1.595 -5.327,1.57 -6.521,0.209 -6.571,0.167 -7.715,-1.202 -7.69,-2.38 -7.682,-2.714 c 0.067,-1.97 1.42,-3.089 1.445,-3.106 1.114,-1.005 2.139,-0.895 2.828,-0.928 l 0.89,0.004 c 0,0 0.004,1.246 -0.003,1.25 -0.463,0.019 -1.949,-0.156 -2.997,0.893 -0.743,0.743 -0.777,1.879 -0.777,1.879 0,0 -0.075,0.985 0.76,2.012 0.76,0.935 2.154,0.919 2.238,0.919 0.484,-0.034 1.344,-0.126 2.137,-1.077 0.635,-0.735 0.61,-2.013 0.61,-2.013 l 0,-3.866 1.363,0.002 c 0,0 -0.01,3.739 -0.01,3.764 C 0.768,-2.338 0.893,-1.119 0,0"
           style="fill:#59caf5;fill-opacity:1;fill-rule:nonzero;stroke:none"
           id="path3386"
           inkscape:connector-curvature="0" />
      </g>
      <g
         id="g3388"
         transform="translate(375.0423,207.6877)">
        <path
           d="m 0,0 c -0.873,0.321 -1.368,1.043 -1.506,1.257 -0.45,0.731 -0.409,2.104 -0.409,2.079 l 0,6.288 -1.275,-0.001 c 0,0 0,-6.141 0,-6.166 -0.032,-1.786 0.217,-2.227 0.539,-2.847 0.457,-0.758 1.089,-1.31 1.698,-1.631 0.412,-0.22 0.756,-0.279 1.009,-0.335 0.355,-0.095 1.099,-0.084 1.099,-0.084 l 0,1.27 C 1.155,-0.17 0.469,-0.184 0,0"
           style="fill:#59caf5;fill-opacity:1;fill-rule:nonzero;stroke:none"
           id="path3390"
           inkscape:connector-curvature="0" />
      </g>
      <g
         id="g3392"
         transform="translate(376.1861,214.4639)">
        <path
           d="m 0,0 -1.342,0.004 -0.011,2.839 -1.369,0 L -2.728,-1.281 0,-1.285 0,0 Z"
           style="fill:#59caf5;fill-opacity:1;fill-rule:nonzero;stroke:none"
           id="path3394"
           inkscape:connector-curvature="0" />
      </g>
      <g
         id="g3396"
         transform="translate(375.3055,209.4486)">
        <path
           d="m 0,0 c -0.444,0.332 -0.472,0.953 -0.472,0.953 l 0,1.085 1.356,0.001 0.004,1.324 -2.738,0.003 c 0,0 0.01,-2.255 0.008,-2.254 -0.005,-0.585 0.085,-1.282 0.658,-1.848 0.866,-0.881 2.075,-0.873 2.075,-0.873 l -0.007,1.335 c 0,0 -0.577,0.058 -0.884,0.274"
           style="fill:#59caf5;fill-opacity:1;fill-rule:nonzero;stroke:none"
           id="path3398"
           inkscape:connector-curvature="0" />
      </g>
      <g
         id="g3400"
         transform="translate(384.0594,213.3239)">
        <path
           d="M 0,0 C -1.32,1.205 -2.637,1.108 -2.793,1.108 -3.97,1.066 -5.261,0.66 -6.154,-0.559 -6.462,-0.967 -7.022,-1.837 -6.98,-3.231 c -0.005,-0.334 0.114,-1.835 1.319,-2.899 0.551,-0.46 1.252,-0.993 2.672,-1.084 0.774,-0.028 1.827,0.044 2.922,0.985 0.966,0.835 1.165,1.727 1.308,2.256 -0.002,-0.003 -1.421,-0.003 -1.439,0 -0.08,-0.238 -0.289,-0.786 -0.787,-1.237 -0.53,-0.415 -1.165,-0.758 -2.038,-0.668 -0.152,0.007 -1.198,0.128 -1.916,0.888 -0.275,0.35 -0.722,0.84 -0.739,1.976 0.013,0.773 0.338,1.506 0.768,1.929 0.783,0.724 1.45,0.804 2.096,0.868 0.523,0.033 1.299,-0.18 1.862,-0.718 0.651,-0.601 0.843,-1.436 0.843,-1.436 l -3.943,0.004 c 0,0 0.256,0.779 1.13,0.797 0.801,0.042 1.118,-0.526 1.118,-0.526 l 1.295,-0.008 c 0,0 -0.201,0.618 -0.635,0.977 -0.1,0.092 -0.71,0.643 -1.703,0.609 -0.994,-0.033 -1.645,-0.567 -1.879,-0.801 -0.726,-0.76 -0.66,-1.779 -0.66,-1.846 0.059,-1.193 0.869,-1.778 0.944,-1.836 0.76,-0.535 1.353,-0.568 1.52,-0.577 0.96,-0.025 1.394,0.359 1.461,0.401 0.659,0.434 0.977,1.203 0.977,1.203 l -1.244,0 c 0,0 -0.268,-0.526 -1.077,-0.526 -0.668,0.008 -1.128,0.442 -1.103,0.417 -0.275,0.234 -0.375,0.701 -0.375,0.701 l 5.636,0 c 0,0 0.1,2.121 -1.353,3.382"
           style="fill:#59caf5;fill-opacity:1;fill-rule:nonzero;stroke:none"
           id="path3402"
           inkscape:connector-curvature="0" />
      </g>
    </g>
  </g>
</svg>
