<svg height="26.399998pt" viewBox="0 0 122.30229 26.399997" width="122.30228pt" xmlns="http://www.w3.org/2000/svg" xmlns:xlink="http://www.w3.org/1999/xlink"><clipPath id="a"><path d="m332.443 203.635h53.704v16.027h-53.704z"/></clipPath><g transform="matrix(.95047628 0 0 .95047628 3.197111 -97.559921)"><path d="m91.38543 110.39088v16.8h4.56369v-6.55754h6.11446v6.55754h4.57108v-6.55754-4.04677-6.19569h-4.57108v6.19569h-6.11446v-6.19569z" fill="#00b5e8" fill-rule="evenodd"/><path d="m109.13804 110.39088v16.8h8.18216c10.74746-1.95168 10.56105-15.52285 0-16.8zm4.64493 4.032h3.3083c4.27457.6492 4.25409 7.90628 0 8.53661h-3.3083z" fill="#00b5e8" fill-rule="evenodd"/></g><g clip-path="url(#a)" transform="matrix(1.6472203 0 0 -1.6472203 -547.60702 361.8317)"><g transform="translate(385.4121 209.9423)"><path d="m0 0h-5.636s.1-.468.376-.701c-.025.025.434-.41 1.102-.418.81 0 1.077.526 1.077.526h1.244s-.317-.768-.977-1.202c-.067-.042-.501-.426-1.461-.401-.167.008-.76.042-1.52.576-.075.059-.885.643-.943 1.837 0 .067-.067 1.086.659 1.845.234.234.885.769 1.879.802s1.603-.518 1.703-.61c.435-.359.635-.977.635-.977l-1.294.009s-.317.568-1.119.526c-.874-.018-1.13-.798-1.13-.798l3.944-.004s-.192.835-.844 1.436c-.563.539-1.339.752-1.862.719-.646-.065-1.313-.144-2.095-.869-.431-.423-.755-1.155-.768-1.929.016-1.135.464-1.626.738-1.976.718-.759 1.764-.88 1.917-.888.872-.089 1.507.253 2.037.668.499.451.708 1 .787 1.238.018-.004 1.437-.003 1.44 0-.144-.53-.343-1.422-1.308-2.256-1.095-.941-2.149-1.013-2.923-.985-1.42.091-2.121.624-2.672 1.083-1.205 1.065-1.324 2.566-1.319 2.899-.042 1.395.518 2.264.827 2.672.893 1.22 2.184 1.626 3.361 1.667.155 0 1.472.098 2.792-1.107 1.453-1.261 1.353-3.382 1.353-3.382m-9.09-.01s-.28.004-.377.048c-.359.088-.351.316-.364.399-.004.031 0 .35 0 .35l.767.005c-.022-.333-.026-.802-.026-.802m-2.2-1.22c-.574.567-.664 1.263-.658 1.848.001 0-.009 2.254-.009 2.254l2.738-.003-.003-1.324h-1.357v-1.086s.029-.621.472-.953c.307-.216.884-.274.884-.274l.008-1.335s-1.209-.007-2.075.873m2.075-2.464s-.744-.011-1.099.083c-.253.057-.597.115-1.008.335-.61.321-1.242.874-1.699 1.631-.322.621-.571 1.061-.539 2.847v6.167h1.275v-6.287c0 .025-.041-1.349.409-2.079.139-.215.633-.937 1.506-1.258.469-.184 1.155-.169 1.155-.169zm-2.733 11.058h1.369l.011-2.839 1.342-.003v-1.285l-2.728.004zm-4.058-11.063v3.866s.025 1.277-.61 2.012c-.793.952-1.653 1.044-2.137 1.077-.084 0-1.478.017-2.238-.918-.835-1.027-.76-2.012-.76-2.012s.034-1.136.777-1.879c1.048-1.05 2.534-.875 2.997-.893.006-.004.003-1.251.003-1.251l-.89-.003c-.69.032-1.714-.077-2.828.928-.025.017-1.378 1.135-1.445 3.106-.008.334-.033 1.511 1.111 2.881.05.041 1.244 1.402 3.156 1.427 1.837-.075 2.713-.684 3.415-1.594.893-1.119.768-2.338.801-2.981 0-.025.011-3.765.011-3.765zm-2.375 3.965v-.298c-.013-.009-.456-.018-.491-.009-.18.013-.311.118-.337.149-.097.114-.11.303-.11.342-.004.206.123.364.123.364s.083.105.329.118c.254 0 .319-.114.39-.237.07-.122.096-.368.096-.429m2.032-.349v-3.608h-1.285l.008 3.614s.033.575-.15 1.016c-.051.08-.225.73-1.111.723-.284-.006-.59-.039-.852-.318-.281-.25-.323-.797-.325-.835.005-.188-.123-.668.512-1.076.463-.322 1.584-.218 1.584-.218l-.009-1.344h-.509c-.218-.003-1.296-.069-2.079.673-.043.047-.861.694-.805 1.961 0 .075-.026.94.743 1.663.089.078.529.651 1.732.721 1.358-.003 1.881-.76 1.937-.804.701-.757.609-2.168.609-2.168m-9.02-3.621-.011 4.252s.05.973-.748 1.876c-.623.71-1.422.988-2.013.969-2.243-.066-2.841-1.762-2.841-1.762s-.599 1.756-2.715 1.751c-.895.007-1.552-.388-1.98-.788-.805-.753-.891-1.787-.869-2.051.003-.066 0-4.242 0-4.242l-1.336-.011v4.258s-.059 1.492 1.113 2.759c1.033 1.162 2.335 1.357 2.928 1.377 1.716.05 2.839-1.013 2.839-1.013s1.237 1.013 2.672 1.008c.9-.005 2.165-.387 3.12-1.412 1.252-1.342 1.132-2.73 1.132-2.73l.012-4.241zm-1.662.007s-.015 4.205-.016 4.251c.001.134-.074 1.087-1.267 1.137-1.127-.065-1.208-1.142-1.208-1.142v-4.247l-1.326-.004c.019 3.36.008 4.124.005 4.25-.001.021-.001.035 0 0v-.005c.006 1.175.489 1.487.799 1.816.409.345.861.684 1.691.701.913.043 1.626-.411 2.02-.925.139-.195.596-.729.574-1.592-.011-.061.005-4.245.005-4.245zm-4.155 4.24c-.011-.062-.006-4.242-.006-4.242h-1.274l-.011 4.247s-.039 1.063-1.208 1.141c-1.225-.044-1.208-1.141-1.208-1.141v-4.247h-1.303s0 4.147-.005 4.242c.005 1.174.729 1.789.779 1.837.372.358.868.662 1.698.679.935-.006 1.712-.342 2.098-.902.139-.195.462-.751.44-1.614m-11.957-6.14-6.273.005 8.556 14.607 3.122-5.183zm-5.544 9.429-3.061 5.177h10.476l-3.034-5.171zm48.992-1.524c-.022.035-.214.588-.823 1.297-.023.022-.513.61-1.355 1.07-.026.017-.779.5091415-2.16.5741415-.697.008-1.284-.1491415-1.284-.1491415s-1.052-.245-1.723-.776c-.99-.727-1.442-1.608-1.442-1.608l.001 2.559-1.35.001-.004 2.839-4.475-.004.013-5.522s-.236.469-.359.64c-.027.04-.6.902-1.403 1.398-.53.293-.867.477-1.687.644-.306.052-1.192.175-2.112.013-.088-.026-.719-.162-1.433-.547-.412-.229-.908-.645-.908-.645s-.631-.609-.802-.92c-.376-.583-.587-1.131-.587-1.131s-.346.973-1.012 1.67c-.061.07-.587.67-1.192.99-.194.106-.719.43-1.688.649-.303.049-.893.105-1.293.057-.158-.022-.657-.062-1.441-.395-.224-.087-.772-.424-.772-.424s-.289.192-.399.249c-.11.058-.657.359-1.271.478s-1.406.14-1.95.053c-.806-.141-1.512-.557-1.564-.588-.526-.329-.908-.696-.908-.696l-3.396 5.636-12.495-.005 3.874-6.583 3.979.005-5.531-9.445 7.902.005 4.142 7.213s-.026-.175-.031-.399c.001-.008.005-4.961.005-4.961l4.483.009.005 4.909s-.066.451.411.469c.47.008.513-.43.513-.43v-4.957l4.44.005v4.921s-.004.465.512.465c.461-.022.469-.421.469-.421v-4.97l4.462.009.004 2.511s.452-.71.561-.824.693-.78 1.153-1.008c.052-.022.522-.35 1.218-.53.048-.018.588-.158 1.324-.153.026-.005 5.176.0002338 5.176.0002338l-.001 2.8697662s.233-.482.364-.653c.078-.105.492-.732.789-.946.03-.022.654-.688 1.64-1.008.048-.013.644-.25 1.743-.263.03.004.886 0 .886 0v2.344s.373-.622.618-.863c.025-.031.605-.648 1.144-.942.038-.023.657-.39 1.485-.566.043-.008 1.166-.275 2.323.022.227.061 1.105.307 1.788.89.803.697 1.267 1.258 1.644 2.463.003.044.206.71.21 1.499-.008.158-.035 1.008-.43 1.906" fill="#231f20"/></g><g transform="translate(344.5516 218.9571)"><path d="m0 0-8.556-14.606 6.274-.006 5.405 9.43z" fill="#59caf5"/></g><g transform="translate(344.1397 218.9516)"><path d="m0 0h-10.476l3.062-5.177 4.38.006z" fill="#59caf5"/></g><g transform="translate(360.202 213.2094)"><path d="m0 0c-.955 1.024-2.22 1.407-3.12 1.412-1.435.005-2.672-1.008-2.672-1.008s-1.123 1.063-2.839 1.013c-.593-.02-1.895-.215-2.928-1.377-1.172-1.267-1.113-2.759-1.113-2.759v-4.258l1.336.011s.003 4.176 0 4.242c-.022.264.064 1.298.869 2.051.429.4 1.086.794 1.981.787 2.115.006 2.714-1.75 2.714-1.75s.598 1.696 2.841 1.762c.591.018 1.391-.259 2.013-.969.798-.903.748-1.876.748-1.876l.011-4.253h1.303l-.012 4.242s.12 1.388-1.132 2.73" fill="#59caf5"/></g><g transform="translate(351.6878 213.0011)"><path d="m0 0c-.829-.017-1.326-.321-1.698-.679-.049-.048-.773-.663-.779-1.837.006-.095.006-4.242.006-4.242h1.302v4.248s-.017 1.096 1.208 1.141c1.169-.078 1.208-1.141 1.208-1.141l.011-4.248h1.275s-.006 4.181.005 4.242c.023.863-.3 1.419-.439 1.614-.387.56-1.164.896-2.099.902" fill="#59caf5"/></g><g transform="translate(354.5692 210.4905)"><path d="m0 0c-.001.034-.001.021 0 0" fill="#59caf5"/></g><g transform="translate(359.6529 210.4857)"><path d="m0 0c .022.863-.435 1.397-.574 1.591-.394.514-1.107.968-2.02.926-.829-.017-1.282-.357-1.691-.701-.31-.329-.793-.642-.798-1.816-.001.002-.001.003-.001.005.003-.126.014-.89-.004-4.25l1.325.004v4.247s.081 1.077 1.208 1.141c1.193-.049 1.268-1.002 1.268-1.136 0-.046.015-4.251.015-4.251l1.277-.005s-.016 4.184-.005 4.245" fill="#59caf5"/></g><g transform="translate(366.5168 212.8313)"><path d="m0 0c-1.202-.07-1.643-.643-1.732-.721-.768-.723-.743-1.588-.743-1.663-.056-1.267.763-1.914.805-1.961.783-.742 1.861-.676 2.079-.673-.001 0 .509 0 .509 0l .009 1.344s-1.121-.104-1.584.218c-.635.408-.506.888-.512 1.076.002.038.045.585.326.835.261.279.567.312.851.318.887.007 1.061-.643 1.111-.723.183-.441.15-1.016.15-1.016l-.008-3.614h1.286v3.608s.091 1.411-.61 2.168c-.056.044-.579.801-1.937.804" fill="#59caf5"/></g><g transform="translate(369.9568 212.9899)"><path d="m0 0c-.701.91-1.578 1.52-3.415 1.595-1.912-.025-3.106-1.386-3.156-1.428-1.144-1.369-1.119-2.547-1.111-2.881.067-1.97 1.42-3.089 1.445-3.106 1.114-1.005 2.139-.895 2.828-.928l.89.004s.004 1.246-.003 1.25c-.463.019-1.949-.156-2.997.893-.743.743-.777 1.879-.777 1.879s-.075.985.76 2.012c.76.935 2.154.919 2.238.919.484-.034 1.344-.126 2.137-1.077.635-.735.61-2.013.61-2.013v-3.866l1.363.002s-.01 3.739-.01 3.764c-.034.643.091 1.862-.802 2.981" fill="#59caf5"/></g><g transform="translate(375.0423 207.6877)"><path d="m0 0c-.873.321-1.368 1.043-1.506 1.257-.45.731-.409 2.104-.409 2.079v6.288l-1.275-.001s0-6.141 0-6.166c-.032-1.786.217-2.227.539-2.847.457-.758 1.089-1.31 1.698-1.631.412-.22.756-.279 1.009-.335.355-.095 1.099-.084 1.099-.084v1.27c0 0-.686-.014-1.155.17" fill="#59caf5"/></g><g transform="translate(376.1861 214.4639)"><path d="m0 0-1.342.004-.011 2.839h-1.369l-.006-4.124 2.728-.004z" fill="#59caf5"/></g><g transform="translate(375.3055 209.4486)"><path d="m0 0c-.444.332-.472.953-.472.953v1.085l1.356.001.004 1.324-2.738.003s.01-2.255.008-2.254c-.005-.585.085-1.282.658-1.848.866-.881 2.075-.873 2.075-.873l-.007 1.335s-.577.058-.884.274" fill="#59caf5"/></g><g transform="translate(384.0594 213.3239)"><path d="m0 0c-1.32 1.205-2.637 1.108-2.793 1.108-1.177-.042-2.468-.448-3.361-1.667-.308-.408-.868-1.278-.826-2.672-.005-.334.114-1.835 1.319-2.899.551-.46 1.252-.993 2.672-1.084.774-.028 1.827.044 2.922.985.966.835 1.165 1.727 1.308 2.256-.002-.003-1.421-.003-1.439 0-.08-.238-.289-.786-.787-1.237-.53-.415-1.165-.758-2.038-.668-.152.007-1.198.128-1.916.888-.275.35-.722.84-.739 1.976.013.773.338 1.506.768 1.929.783.724 1.45.804 2.096.868.523.033 1.299-.18 1.862-.718.651-.601.843-1.436.843-1.436l-3.943.004s.256.779 1.13.797c.801.042 1.118-.526 1.118-.526l1.295-.008s-.201.618-.635.977c-.1.092-.71.643-1.703.609-.994-.033-1.645-.567-1.879-.801-.726-.76-.66-1.779-.66-1.846.059-1.193.869-1.778.944-1.836.76-.535 1.353-.568 1.52-.577.96-.025 1.394.359 1.461.401.659.434.977 1.203.977 1.203h-1.244s-.268-.526-1.077-.526c-.668.008-1.128.442-1.103.417-.275.234-.375.701-.375.701h5.636s.1 2.121-1.353 3.382" fill="#59caf5"/></g></g></svg>