<svg height="9.92498mm" viewBox="0 0 24.638211 9.9249804" width="24.63821mm" xmlns="http://www.w3.org/2000/svg" xmlns:xlink="http://www.w3.org/1999/xlink"><linearGradient id="a"><stop offset="0" stop-color="#c02224"/><stop offset=".987732" stop-color="#f59011"/><stop offset=".98784444" stop-color="#f59011"/><stop offset="1" stop-color="#f59011"/></linearGradient><linearGradient id="b" gradientTransform="matrix(2.4026151 0 0 -2.4026151 404.62231 212.50425)" gradientUnits="userSpaceOnUse" spreadMethod="pad" x1="0" x2="1" xlink:href="#a" y1="0" y2="0"/><linearGradient id="c"><stop offset="0" stop-color="#f25d19"/><stop offset=".03136442" stop-color="#f25d19"/><stop offset="1" stop-color="#c02224"/></linearGradient><linearGradient id="d" gradientTransform="matrix(-2.7331271 0 0 2.7331271 409.74075 212.50425)" gradientUnits="userSpaceOnUse" spreadMethod="pad" x1="0" x2="1" xlink:href="#c" y1="0" y2="0"/><linearGradient id="e" gradientTransform="matrix(2.681344 0 0 -2.681344 411.68867 212.50768)" gradientUnits="userSpaceOnUse" spreadMethod="pad" x1="0" x2="1" xlink:href="#a" y1="0" y2="0"/><linearGradient id="f" gradientTransform="matrix(-2.4992344 0 0 2.4992344 416.859 212.50768)" gradientUnits="userSpaceOnUse" spreadMethod="pad" x1="0" x2="1" xlink:href="#c" y1="0" y2="0"/><linearGradient id="g" gradientTransform="matrix(4.7951755 0 0 -4.7951755 415.17524 210.41715)" gradientUnits="userSpaceOnUse" spreadMethod="pad" x1="0" x2="1" y1="0" y2="0"><stop offset="0" stop-color="#c02224"/><stop offset=".858902" stop-color="#f25d19"/><stop offset=".86332746" stop-color="#f25d19"/><stop offset="1" stop-color="#f25d19"/></linearGradient><linearGradient id="h" gradientTransform="matrix(2.9453557 0 0 -2.9453557 410.71906 208.48705)" gradientUnits="userSpaceOnUse" spreadMethod="pad" x1="0" x2="1" y1="0" y2="0"><stop offset="0" stop-color="#f68d11"/><stop offset=".03136442" stop-color="#f68d11"/><stop offset="1" stop-color="#c02224"/></linearGradient><linearGradient id="i" gradientTransform="matrix(3.0160835 0 0 -3.0160835 407.70553 208.48705)" gradientUnits="userSpaceOnUse" spreadMethod="pad" x1="0" x2="1" y1="0" y2="0"><stop offset="0" stop-color="#f25d19"/><stop offset=".233124" stop-color="#f25d19"/><stop offset=".25544462" stop-color="#f25d19"/><stop offset=".944778" stop-color="#c02224"/><stop offset="1" stop-color="#c02224"/></linearGradient><linearGradient id="j" gradientTransform="matrix(4.7036752 0 0 -4.7036752 401.47464 210.41715)" gradientUnits="userSpaceOnUse" spreadMethod="pad" x1="0" x2="1" y1="0" y2="0"><stop offset="0" stop-color="#f59011"/><stop offset="1" stop-color="#c02224"/></linearGradient><linearGradient id="k" gradientTransform="matrix(1.2644597 0 0 -1.2644597 400.49269 214.52256)" gradientUnits="userSpaceOnUse" spreadMethod="pad" x1="0" x2="1" y1="0" y2="0"><stop offset="0" stop-color="#af481f"/><stop offset=".725281" stop-color="#c02224"/><stop offset=".90601696" stop-color="#c02224"/><stop offset="1" stop-color="#c02224"/></linearGradient><linearGradient id="l" gradientTransform="matrix(0 8.480327 8.480327 0 397.70403 205.01831)" gradientUnits="userSpaceOnUse" spreadMethod="pad" x1="0" x2="1" y1="0" y2="0"><stop offset="0" stop-color="#f59011"/><stop offset=".0384674" stop-color="#f59011"/><stop offset=".04728006" stop-color="#f59011"/><stop offset="1" stop-color="#c02224"/></linearGradient><linearGradient id="m" gradientTransform="matrix(0 8.480327 8.480327 0 394.76181 205.01831)" gradientUnits="userSpaceOnUse" spreadMethod="pad" x1="0" x2="1" y1="0" y2="0"><stop offset="0" stop-color="#f59011"/><stop offset=".65789393" stop-color="#f59011"/><stop offset="1" stop-color="#e1481f"/></linearGradient><linearGradient id="n" gradientTransform="matrix(0 2.5938656 2.5938656 0 390.85384 213.22547)" gradientUnits="userSpaceOnUse" spreadMethod="pad" x1="0" x2="1" y1="0" y2="0"><stop offset="0" stop-color="#f68915"/><stop offset="1" stop-color="#f35d19"/></linearGradient><linearGradient id="o" gradientTransform="matrix(10.736527 0 0 -10.736527 377.39411 206.73932)" gradientUnits="userSpaceOnUse" spreadMethod="pad" x1="0" x2="1" y1="0" y2="0"><stop offset="0" stop-color="#f59011"/><stop offset=".0384674" stop-color="#f59011"/><stop offset=".71986744" stop-color="#f59011"/><stop offset="1" stop-color="#c02224"/></linearGradient><linearGradient id="p" gradientTransform="matrix(5.9967001 0 0 -5.9967001 382.13252 220.78978)" gradientUnits="userSpaceOnUse" spreadMethod="pad" x1="0" x2="1" y1="0" y2="0"><stop offset="0" stop-color="#f59011"/><stop offset=".0164795" stop-color="#f59011"/><stop offset=".04732705" stop-color="#f59011"/><stop offset="1" stop-color="#d43e21"/></linearGradient><linearGradient id="q" gradientTransform="matrix(16.469901 0 0 -16.469901 365.66817 211.73116)" gradientUnits="userSpaceOnUse" spreadMethod="pad" x1="0" x2="1" y1="0" y2="0"><stop offset="0" stop-color="#f25d19"/><stop offset=".0384674" stop-color="#f25d19"/><stop offset=".03995484" stop-color="#f25d19"/><stop offset=".0858917" stop-color="#f59011"/><stop offset="1" stop-color="#c02224"/></linearGradient><linearGradient id="r"><stop offset="0" stop-color="#f59011"/><stop offset=".0384674" stop-color="#f59011"/><stop offset=".06862531" stop-color="#f59011"/><stop offset="1" stop-color="#c02224"/></linearGradient><linearGradient id="s" gradientTransform="matrix(5.9929067 0 0 -5.9929067 375.33741 220.80418)" gradientUnits="userSpaceOnUse" spreadMethod="pad" x1="0" x2="1" xlink:href="#r" y1="0" y2="0"/><linearGradient id="t" gradientTransform="matrix(8.4300971 0 0 -8.4300971 367.07495 215.95882)" gradientUnits="userSpaceOnUse" spreadMethod="pad" x1="0" x2="1" y1="0" y2="0"><stop offset="0" stop-color="#af481f"/><stop offset=".725281" stop-color="#cf3822"/><stop offset=".90601696" stop-color="#cf3822"/><stop offset="1" stop-color="#cf3822"/></linearGradient><linearGradient id="u" gradientTransform="matrix(20.126258 0 0 -20.126258 361.19758 225.67102)" gradientUnits="userSpaceOnUse" spreadMethod="pad" x1="0" x2="1" y1="0" y2="0"><stop offset="0" stop-color="#c02224"/><stop offset=".0164795" stop-color="#c02224"/><stop offset=".686813" stop-color="#f59011"/><stop offset=".89285683" stop-color="#f59011"/><stop offset="1" stop-color="#f59011"/></linearGradient><linearGradient id="v" gradientTransform="matrix(-26.923359 .0000035 .0000035 26.643418 388.13465 211.73116)" gradientUnits="userSpaceOnUse" spreadMethod="pad" x1="0" x2="1" y1="0" y2="0"><stop offset="0" stop-color="#f68915"/><stop offset="1" stop-color="#ec4f1c"/></linearGradient><linearGradient id="w" gradientTransform="matrix(0 -10.951887 -10.951887 0 424.99119 215.96591)" gradientUnits="userSpaceOnUse" spreadMethod="pad" x1="0" x2="1" y1="0" y2="0"><stop offset="0" stop-color="#f59011"/><stop offset=".0384674" stop-color="#f59011"/><stop offset=".56335555" stop-color="#f59011"/><stop offset=".779144" stop-color="#d34021"/><stop offset="1" stop-color="#c02224"/></linearGradient><linearGradient id="x" gradientTransform="matrix(0 6.0086521 6.0086521 0 424.99119 207.48567)" gradientUnits="userSpaceOnUse" spreadMethod="pad" x1="0" x2="1" xlink:href="#r" y1="0" y2="0"/><linearGradient id="y" gradientTransform="matrix(40.325509 0 0 -40.325509 390.71992 210.48845)" gradientUnits="userSpaceOnUse" spreadMethod="pad" x1="0" x2="1" y1="0" y2="0"><stop offset="0" stop-color="#f68915"/><stop offset=".116562" stop-color="#f68915"/><stop offset=".24314447" stop-color="#f68915"/><stop offset=".656448" stop-color="#f25d19"/><stop offset="1" stop-color="#e8501d"/></linearGradient><path d="m424.856 215.965c-1.262-.017-2.333-.272-3.219-.766-.916-.51-1.595-1.182-2.035-2.016-.442-.833-.663-1.731-.663-2.69 0-.954.222-1.85.666-2.686.444-.837 1.123-1.51 2.037-2.025.912-.512 2.028-.768 3.347-.768 1.303 0 2.408.245 3.316.739.909.493 1.593 1.156 2.052 1.993.442.806.672 1.688.688 2.642v.206c-.011.697-.139 1.362-.383 1.997-.257.664-.636 1.246-1.133 1.747-.497.5-1.132.897-1.904 1.189-.74.28-1.577.426-2.511.438zm-1.895-7.454c-.496.506-.743 1.166-.743 1.982 0 .816.246 1.476.739 1.978.493.503 1.17.754 2.032.754.451 0 .85-.067 1.193-.203.342-.137.634-.326.873-.57.239-.244.416-.531.535-.862.118-.331.177-.697.177-1.097 0-.533-.108-1.006-.323-1.419-.216-.414-.531-.737-.946-.971-.416-.233-.919-.35-1.509-.35-.858 0-1.533.253-2.028.758m-6.285 7.308-2.316-5.91-2.495 5.91h-2.3l-2.54-5.91-2.217 5.91h-3.332l4.525-10.805h1.878l2.84 6.287 2.771-6.287h1.863l4.618 10.805zm-25.955 0v-2.594h3.908v-8.211h3.211v8.211h3.917l-1.086 2.594z" fill="url(#y)" transform="matrix(.35277777 0 0 -.35277777 -127.424883 79.65443)"/><path d="m422.766 212.659c-.542-.552-.816-1.28-.816-2.166 0-.885.275-1.615.82-2.17.527-.538 1.242-.819 2.129-.837h.176c.597.012 1.118.14 1.554.383.46.259.814.622 1.053 1.08.218.418.336.898.352 1.424v.243c-.011.384-.076.74-.191 1.065-.132.366-.332.689-.596.958-.263.269-.587.481-.967.632-.373.148-.808.222-1.291.222-.933 0-1.681-.28-2.223-.834m.195-4.148c-.496.506-.743 1.166-.743 1.982 0 .816.246 1.476.739 1.978.493.503 1.17.754 2.032.754.451 0 .85-.067 1.193-.203.342-.137.634-.326.873-.57.239-.244.416-.531.535-.862.118-.331.177-.697.177-1.097 0-.533-.108-1.006-.323-1.419-.216-.414-.531-.737-.946-.971-.416-.233-.919-.35-1.509-.35-.858 0-1.533.253-2.028.758" fill="url(#x)" transform="matrix(.35277777 0 0 -.35277777 -127.424883 79.65443)"/><path d="m421.637 215.199c-.916-.51-1.595-1.182-2.035-2.016-.442-.833-.663-1.731-.663-2.69 0-.954.222-1.85.666-2.686.444-.837 1.123-1.51 2.037-2.025.881-.495 1.952-.75 3.214-.767h.267c1.245.016 2.306.262 3.182.738.909.493 1.593 1.156 2.052 1.993.435.794.665 1.66.687 2.597v.298c-.016.68-.144 1.33-.382 1.95-.257.664-.636 1.246-1.133 1.747-.497.5-1.132.897-1.904 1.189-.773.292-1.651.439-2.636.439-1.319 0-2.435-.256-3.352-.767m.136-9.183c-.865.487-1.514 1.132-1.931 1.916-.421.793-.635 1.655-.635 2.561 0 .913.213 1.775.631 2.565.414.783 1.063 1.425 1.93 1.907.871.486 1.955.733 3.221.733.948 0 1.803-.143 2.541-.422.731-.277 1.34-.657 1.81-1.126.469-.475.83-1.032 1.071-1.656.244-.632.367-1.305.367-2.001 0-.944-.222-1.825-.656-2.617-.432-.787-1.086-1.422-1.943-1.888-.865-.468-1.938-.706-3.19-.706-1.267 0-2.349.247-3.216.734" fill="url(#w)" transform="matrix(.35277777 0 0 -.35277777 -127.424883 79.65443)"/><path d="m365.666 197.664h12.057l10.405 18.154-5.997 9.974zm-4.455 28.128v-.013l5.865-9.961h8.43l5.825 9.974z" fill="url(#v)" transform="matrix(.35277777 0 0 -.35277777 -127.424883 79.65443)"/><path d="m0 0 5.871-9.974.167.277-5.586 9.458z" fill="#f59011" transform="scale(.35277777 -.35277777)"/><path d="m361.208 225.79.448-.237h19.217l.451.235v.002z" fill="url(#u)" transform="matrix(.35277777 0 0 -.35277777 -127.424883 79.65443)"/><path d="m367.243 216.095-.166-.275h8.428l-.167.275z" fill="url(#t)" transform="matrix(.35277777 0 0 -.35277777 -127.424883 79.65443)"/><path d="m381.329 225.791-.446-.238-5.545-9.458.168-.277 5.824 9.972v.001z" fill="url(#s)" transform="matrix(.35277777 0 0 -.35277777 -127.424883 79.65443)"/><path d="m365.668 197.667v-.003h.006l.576.299 15.883 27.307-.002.522z" fill="url(#q)" transform="matrix(.35277777 0 0 -.35277777 -127.424883 79.65443)"/><path d="m0 0h-12.056l.586.305h11.142z" fill="#d23522" transform="matrix(.35277777 0 0 -.35277777 5.82616 9.92498)"/><path d="m382.133 225.27 5.615-9.48.38.028-5.995 9.971z" fill="url(#p)" transform="matrix(.35277777 0 0 -.35277777 -127.424883 79.65443)"/><path d="m387.748 215.79-10.354-17.822v-.008l.324-.301h.002l10.408 18.159z" fill="url(#o)" transform="matrix(.35277777 0 0 -.35277777 -127.424883 79.65443)"/><path d="m0 0 .268-.268h9.504l.179.268z" fill="#f59011" transform="matrix(.35277777 0 0 -.35277777 10.412588 3.51821)"/><path d="m390.721 213.225.267.268v2.059l-.267.267z" fill="url(#n)" transform="matrix(.35277777 0 0 -.35277777 -127.424883 79.65443)"/><path d="m0 0 .268.268h3.909l-.268-.268z" fill="#ea3f1f" transform="matrix(.35277777 0 0 -.35277777 10.415411 4.43321)"/><path d="m394.629 213.225v-8.207h.005l.262.261v8.212z" fill="url(#m)" transform="matrix(.35277777 0 0 -.35277777 -127.424883 79.65443)"/><path d="m0 0 .268.268h2.674l.268-.268z" fill="#ea3f1f" transform="matrix(.35277777 0 0 -.35277777 11.791703 7.3303)"/><path d="m397.571 205.282.265-.264h.003v8.209l-.268.266z" fill="url(#l)" transform="matrix(.35277777 0 0 -.35277777 -127.424883 79.65443)"/><path d="m0 0h3.782l.403-.268h-3.917z" fill="#f2531b" transform="matrix(.35277777 0 0 -.35277777 12.831021 4.3386)"/><path d="m400.493 215.551.86-2.058.404-.268-1.086 2.594z" fill="url(#k)" transform="matrix(.35277777 0 0 -.35277777 -127.424883 79.65443)"/><path d="m0 0 .403-.268h2.744l.186.268z" fill="#f59011" transform="matrix(.35277777 0 0 -.35277777 14.206854 3.51821)"/><path d="m406.001 205.015h.001l.176.264v.007l-4.299 10.265-.403.268z" fill="url(#j)" transform="matrix(.35277777 0 0 -.35277777 -127.424883 79.65443)"/><path d="m0 0 .178.268h1.527l.173-.268z" fill="#ea3f1f" transform="matrix(.35277777 0 0 -.35277777 15.803244 7.3303)"/><path d="m407.706 205.282.173-.268 2.84 6.287.002.494v.163z" fill="url(#i)" transform="matrix(.35277777 0 0 -.35277777 -127.424883 79.65443)"/><path d="m410.719 211.301 2.771-6.287.174.268-2.942 6.678z" fill="url(#h)" transform="matrix(.35277777 0 0 -.35277777 -127.424883 79.65443)"/><path d="m0 0 .175.268h1.51l.177-.268z" fill="#d94d1f" transform="matrix(.35277777 0 0 -.35277777 18.445162 7.3303)"/><path d="m419.564 215.551-4.389-10.269.177-.267h.001l4.618 10.804z" fill="url(#g)" transform="matrix(.35277777 0 0 -.35277777 -127.424883 79.65443)"/><path d="m0 0 .406.268h-3.294l.183-.268z" fill="#f59011" transform="matrix(.35277777 0 0 -.35277777 20.587969 3.61279)"/><path d="m414.36 209.909.009-.713 2.49 6.355-.183.268z" fill="url(#f)" transform="matrix(.35277777 0 0 -.35277777 -127.424883 79.65443)"/><path d="m411.689 215.553v-.004l2.68-6.353-.009.713-2.495 5.91z" fill="url(#e)" transform="matrix(.35277777 0 0 -.35277777 -127.424883 79.65443)"/><path d="m0 0h2.301l-.178-.268h-1.946z" fill="#f59011" transform="matrix(.35277777 0 0 -.35277777 17.060403 3.51821)"/><path d="m407.025 209.909-.017-.719 2.732 6.359v.004l-.175.266z" fill="url(#d)" transform="matrix(.35277777 0 0 -.35277777 -127.424883 79.65443)"/><path d="m404.623 215.551 2.385-6.361.017.719-2.217 5.91z" fill="url(#b)" transform="matrix(.35277777 0 0 -.35277777 -127.424883 79.65443)"/></svg>