<svg width="24.617mm" height="9.9258mm" version="1.1" viewBox="0 0 24.617 9.9258" xmlns="http://www.w3.org/2000/svg">
 <path d="m22.434 3.4695c-0.44521 6e-3 -0.82304 0.095956-1.1356 0.27023-0.32315 0.17992-0.56268 0.41699-0.71791 0.7112-0.15593 0.29387-0.23389 0.61066-0.23389 0.94898 0 0.33655 0.07832 0.65264 0.23495 0.94757 0.15663 0.29528 0.39617 0.5327 0.71861 0.71438 0.32174 0.18062 0.71544 0.27094 1.1808 0.27094 0.45967 0 0.84949-0.086431 1.1698-0.2607 0.32068-0.17392 0.56198-0.40781 0.7239-0.70309 0.15593-0.28434 0.23707-0.59549 0.24271-0.93204v-0.072673c-0.00388-0.24589-0.049036-0.48049-0.13512-0.7045-0.090664-0.23425-0.22437-0.43956-0.3997-0.61631-0.17533-0.17639-0.39935-0.31644-0.67169-0.41946-0.26106-0.098778-0.55633-0.15028-0.88583-0.15452zm-0.66852 2.6296c-0.17498-0.17851-0.26212-0.41134-0.26212-0.69921s0.08678-0.5207 0.2607-0.6978c0.17392-0.17745 0.41275-0.266 0.71685-0.266 0.1591 0 0.29986 0.023636 0.42087 0.071614 0.12065 0.048331 0.22366 0.11501 0.30798 0.20108 0.08431 0.086078 0.14676 0.18733 0.18874 0.3041 0.04163 0.11677 0.06244 0.24589 0.06244 0.387 0 0.18803-0.0381 0.3549-0.11395 0.50059-0.0762 0.14605-0.18733 0.26-0.33373 0.34255-0.14676 0.082198-0.3242 0.12347-0.53234 0.12347-0.30269 0-0.54081-0.089253-0.71544-0.26741m-2.2172-2.5781-0.81704 2.0849-0.88019-2.0849h-0.81139l-0.89606 2.0849-0.78211-2.0849h-1.1755l1.5963 3.8118h0.66252l1.0019-2.2179 0.97755 2.2179h0.65723l1.6291-3.8118zm-9.1564 0v0.91511h1.3787v2.8967h1.1328v-2.8967h1.3818l-0.38312-0.91511z" fill="#ff6e00" stroke-width=".35278"/>
 <g transform="matrix(.34533 0 0 .34533 3.502 -2.9883)" fill="#ff6e00" fill-rule="evenodd">
  <polygon transform="translate(-10.141 8.4507)" points="27.442 10.392 21.332 0.2028 4.5453 28.946 16.836 28.946"/>
  <polygon transform="translate(-10.141 8.4507)" points="20.513 0.2028 0 0.2028 5.985 10.392 14.576 10.392"/>
 </g>
</svg>
