<?xml version="1.0" encoding="UTF-8"?>
<!-- Created with Inkscape (http://www.inkscape.org/) -->
<svg id="svg7944" width="24.638mm" height="9.925mm" version="1.1" viewBox="0 0 24.638 9.925" xmlns="http://www.w3.org/2000/svg" xmlns:cc="http://creativecommons.org/ns#" xmlns:dc="http://purl.org/dc/elements/1.1/" xmlns:rdf="http://www.w3.org/1999/02/22-rdf-syntax-ns#">
 <defs id="defs7938">
  <linearGradient id="linearGradient1688" x2="1" gradientTransform="matrix(2.4026 0 0 -2.4026 404.62 212.5)" gradientUnits="userSpaceOnUse">
   <stop id="stop1680" stop-color="#c02224" offset="0"/>
   <stop id="stop1682" stop-color="#f59011" offset=".98773"/>
   <stop id="stop1684" stop-color="#f59011" offset=".98784"/>
   <stop id="stop1686" stop-color="#f59011" offset="1"/>
  </linearGradient>
  <linearGradient id="linearGradient1664" x2="1" gradientTransform="matrix(-2.7331 0 0 2.7331 409.74 212.5)" gradientUnits="userSpaceOnUse">
   <stop id="stop1658" stop-color="#f25d19" offset="0"/>
   <stop id="stop1660" stop-color="#f25d19" offset=".031364"/>
   <stop id="stop1662" stop-color="#c02224" offset="1"/>
  </linearGradient>
  <linearGradient id="linearGradient1630" x2="1" gradientTransform="matrix(2.6813 0 0 -2.6813 411.69 212.51)" gradientUnits="userSpaceOnUse">
   <stop id="stop1622" stop-color="#c02224" offset="0"/>
   <stop id="stop1624" stop-color="#f59011" offset=".98773"/>
   <stop id="stop1626" stop-color="#f59011" offset=".98784"/>
   <stop id="stop1628" stop-color="#f59011" offset="1"/>
  </linearGradient>
  <linearGradient id="linearGradient1606" x2="1" gradientTransform="matrix(-2.4992 0 0 2.4992 416.86 212.51)" gradientUnits="userSpaceOnUse">
   <stop id="stop1600" stop-color="#f25d19" offset="0"/>
   <stop id="stop1602" stop-color="#f25d19" offset=".031364"/>
   <stop id="stop1604" stop-color="#c02224" offset="1"/>
  </linearGradient>
  <linearGradient id="linearGradient1572" x2="1" gradientTransform="matrix(4.7952 0 0 -4.7952 415.18 210.42)" gradientUnits="userSpaceOnUse">
   <stop id="stop1564" stop-color="#c02224" offset="0"/>
   <stop id="stop1566" stop-color="#f25d19" offset=".8589"/>
   <stop id="stop1568" stop-color="#f25d19" offset=".86333"/>
   <stop id="stop1570" stop-color="#f25d19" offset="1"/>
  </linearGradient>
  <linearGradient id="linearGradient1536" x2="1" gradientTransform="matrix(2.9454 0 0 -2.9454 410.72 208.49)" gradientUnits="userSpaceOnUse">
   <stop id="stop1530" stop-color="#f68d11" offset="0"/>
   <stop id="stop1532" stop-color="#f68d11" offset=".031364"/>
   <stop id="stop1534" stop-color="#c02224" offset="1"/>
  </linearGradient>
  <linearGradient id="linearGradient1514" x2="1" gradientTransform="matrix(3.0161 0 0 -3.0161 407.71 208.49)" gradientUnits="userSpaceOnUse">
   <stop id="stop1504" stop-color="#f25d19" offset="0"/>
   <stop id="stop1506" stop-color="#f25d19" offset=".23312"/>
   <stop id="stop1508" stop-color="#f25d19" offset=".25544"/>
   <stop id="stop1510" stop-color="#c02224" offset=".94478"/>
   <stop id="stop1512" stop-color="#c02224" offset="1"/>
  </linearGradient>
  <linearGradient id="linearGradient1476" x2="1" gradientTransform="matrix(4.7037 0 0 -4.7037 401.47 210.42)" gradientUnits="userSpaceOnUse">
   <stop id="stop1472" stop-color="#f59011" offset="0"/>
   <stop id="stop1474" stop-color="#c02224" offset="1"/>
  </linearGradient>
  <linearGradient id="linearGradient1444" x2="1" gradientTransform="matrix(1.2645 0 0 -1.2645 400.49 214.52)" gradientUnits="userSpaceOnUse">
   <stop id="stop1436" stop-color="#af481f" offset="0"/>
   <stop id="stop1438" stop-color="#c02224" offset=".72528"/>
   <stop id="stop1440" stop-color="#c02224" offset=".90602"/>
   <stop id="stop1442" stop-color="#c02224" offset="1"/>
  </linearGradient>
  <linearGradient id="linearGradient1408" x2="1" gradientTransform="matrix(0 8.4803 8.4803 0 397.7 205.02)" gradientUnits="userSpaceOnUse">
   <stop id="stop1400" stop-color="#f59011" offset="0"/>
   <stop id="stop1402" stop-color="#f59011" offset=".038467"/>
   <stop id="stop1404" stop-color="#f59011" offset=".04728"/>
   <stop id="stop1406" stop-color="#c02224" offset="1"/>
  </linearGradient>
  <linearGradient id="linearGradient1372" x2="1" gradientTransform="matrix(0 8.4803 8.4803 0 394.76 205.02)" gradientUnits="userSpaceOnUse">
   <stop id="stop1366" stop-color="#f59011" offset="0"/>
   <stop id="stop1368" stop-color="#f59011" offset=".65789"/>
   <stop id="stop1370" stop-color="#e1481f" offset="1"/>
  </linearGradient>
  <linearGradient id="linearGradient1338" x2="1" gradientTransform="matrix(0 2.5939 2.5939 0 390.85 213.23)" gradientUnits="userSpaceOnUse">
   <stop id="stop1334" stop-color="#f68915" offset="0"/>
   <stop id="stop1336" stop-color="#f35d19" offset="1"/>
  </linearGradient>
  <linearGradient id="linearGradient1306" x2="1" gradientTransform="matrix(10.737 0 0 -10.737 377.39 206.74)" gradientUnits="userSpaceOnUse">
   <stop id="stop1298" stop-color="#f59011" offset="0"/>
   <stop id="stop1300" stop-color="#f59011" offset=".038467"/>
   <stop id="stop1302" stop-color="#f59011" offset=".71987"/>
   <stop id="stop1304" stop-color="#c02224" offset="1"/>
  </linearGradient>
  <linearGradient id="linearGradient1282" x2="1" gradientTransform="matrix(5.9967 0 0 -5.9967 382.13 220.79)" gradientUnits="userSpaceOnUse">
   <stop id="stop1274" stop-color="#f59011" offset="0"/>
   <stop id="stop1276" stop-color="#f59011" offset=".01648"/>
   <stop id="stop1278" stop-color="#f59011" offset=".047327"/>
   <stop id="stop1280" stop-color="#d43e21" offset="1"/>
  </linearGradient>
  <linearGradient id="linearGradient1246" x2="1" gradientTransform="matrix(16.47 0 0 -16.47 365.67 211.73)" gradientUnits="userSpaceOnUse">
   <stop id="stop1236" stop-color="#f25d19" offset="0"/>
   <stop id="stop1238" stop-color="#f25d19" offset=".038467"/>
   <stop id="stop1240" stop-color="#f25d19" offset=".039955"/>
   <stop id="stop1242" stop-color="#f59011" offset=".085892"/>
   <stop id="stop1244" stop-color="#c02224" offset="1"/>
  </linearGradient>
  <linearGradient id="linearGradient1220" x2="1" gradientTransform="matrix(5.9929 0 0 -5.9929 375.34 220.8)" gradientUnits="userSpaceOnUse">
   <stop id="stop1212" stop-color="#f59011" offset="0"/>
   <stop id="stop1214" stop-color="#f59011" offset=".038467"/>
   <stop id="stop1216" stop-color="#f59011" offset=".068625"/>
   <stop id="stop1218" stop-color="#c02224" offset="1"/>
  </linearGradient>
  <linearGradient id="linearGradient1196" x2="1" gradientTransform="matrix(8.4301 0 0 -8.4301 367.07 215.96)" gradientUnits="userSpaceOnUse">
   <stop id="stop1188" stop-color="#af481f" offset="0"/>
   <stop id="stop1190" stop-color="#cf3822" offset=".72528"/>
   <stop id="stop1192" stop-color="#cf3822" offset=".90602"/>
   <stop id="stop1194" stop-color="#cf3822" offset="1"/>
  </linearGradient>
  <linearGradient id="linearGradient1172" x2="1" gradientTransform="matrix(20.126 0 0 -20.126 361.2 225.67)" gradientUnits="userSpaceOnUse">
   <stop id="stop1162" stop-color="#c02224" offset="0"/>
   <stop id="stop1164" stop-color="#c02224" offset=".01648"/>
   <stop id="stop1166" stop-color="#f59011" offset=".68681"/>
   <stop id="stop1168" stop-color="#f59011" offset=".89286"/>
   <stop id="stop1170" stop-color="#f59011" offset="1"/>
  </linearGradient>
  <linearGradient id="linearGradient1134" x2="1" gradientTransform="matrix(-26.923 3.5e-6 3.5e-6 26.643 388.13 211.73)" gradientUnits="userSpaceOnUse">
   <stop id="stop1130" stop-color="#f68915" offset="0"/>
   <stop id="stop1132" stop-color="#ec4f1c" offset="1"/>
  </linearGradient>
  <linearGradient id="linearGradient1114" x2="1" gradientTransform="matrix(0 -10.952 -10.952 0 424.99 215.97)" gradientUnits="userSpaceOnUse">
   <stop id="stop1104" stop-color="#f59011" offset="0"/>
   <stop id="stop1106" stop-color="#f59011" offset=".038467"/>
   <stop id="stop1108" stop-color="#f59011" offset=".56336"/>
   <stop id="stop1110" stop-color="#d34021" offset=".77914"/>
   <stop id="stop1112" stop-color="#c02224" offset="1"/>
  </linearGradient>
  <linearGradient id="linearGradient1088" x2="1" gradientTransform="matrix(0 6.0087 6.0087 0 424.99 207.49)" gradientUnits="userSpaceOnUse">
   <stop id="stop1080" stop-color="#f59011" offset="0"/>
   <stop id="stop1082" stop-color="#f59011" offset=".038467"/>
   <stop id="stop1084" stop-color="#f59011" offset=".068625"/>
   <stop id="stop1086" stop-color="#c02224" offset="1"/>
  </linearGradient>
  <linearGradient id="linearGradient1064" x2="1" gradientTransform="matrix(40.326 0 0 -40.326 390.72 210.49)" gradientUnits="userSpaceOnUse">
   <stop id="stop1054" stop-color="#f68915" offset="0"/>
   <stop id="stop1056" stop-color="#f68915" offset=".11656"/>
   <stop id="stop1058" stop-color="#f68915" offset=".24314"/>
   <stop id="stop1060" stop-color="#f25d19" offset=".65645"/>
   <stop id="stop1062" stop-color="#e8501d" offset="1"/>
  </linearGradient>
 </defs>
 <metadata id="metadata7941">
  <rdf:RDF>
   <cc:Work rdf:about="">
    <dc:format>image/svg+xml</dc:format>
    <dc:type rdf:resource="http://purl.org/dc/dcmitype/StillImage"/>
    <dc:title/>
   </cc:Work>
  </rdf:RDF>
 </metadata>
 <g id="layer1" transform="translate(-73.403 -120.46)">
  <g id="g1050" transform="matrix(.35278 0 0 -.35278 -54.022 200.11)">
   <g id="g1052">
    <path id="path1066" d="m424.86 215.96c-1.262-0.017-2.333-0.272-3.219-0.766-0.916-0.51-1.595-1.182-2.035-2.016-0.442-0.833-0.663-1.731-0.663-2.69 0-0.954 0.222-1.85 0.666-2.686 0.444-0.837 1.123-1.51 2.037-2.025 0.912-0.512 2.028-0.768 3.347-0.768 1.303 0 2.408 0.245 3.316 0.739 0.909 0.493 1.593 1.156 2.052 1.993 0.442 0.806 0.672 1.688 0.688 2.642v0.206c-0.011 0.697-0.139 1.362-0.383 1.997-0.257 0.664-0.636 1.246-1.133 1.747-0.497 0.5-1.132 0.897-1.904 1.189-0.74 0.28-1.577 0.426-2.511 0.438zm-1.895-7.454c-0.496 0.506-0.743 1.166-0.743 1.982s0.246 1.476 0.739 1.978c0.493 0.503 1.17 0.754 2.032 0.754 0.451 0 0.85-0.067 1.193-0.203 0.342-0.137 0.634-0.326 0.873-0.57s0.416-0.531 0.535-0.862c0.118-0.331 0.177-0.697 0.177-1.097 0-0.533-0.108-1.006-0.323-1.419-0.216-0.414-0.531-0.737-0.946-0.971-0.416-0.233-0.919-0.35-1.509-0.35-0.858 0-1.533 0.253-2.028 0.758m-6.285 7.308-2.316-5.91-2.495 5.91h-2.3l-2.54-5.91-2.217 5.91h-3.332l4.525-10.805h1.878l2.84 6.287 2.771-6.287h1.863l4.618 10.805zm-25.955 0v-2.594h3.908v-8.211h3.211v8.211h3.917l-1.086 2.594z" fill="url(#linearGradient1064)"/>
   </g>
  </g>
  <g id="g1076" transform="matrix(.35278 0 0 -.35278 -54.022 200.11)">
   <g id="g1078">
    <path id="path1090" d="m422.77 212.66c-0.542-0.552-0.816-1.28-0.816-2.166 0-0.885 0.275-1.615 0.82-2.17 0.527-0.538 1.242-0.819 2.129-0.837h0.176c0.597 0.012 1.118 0.14 1.554 0.383 0.46 0.259 0.814 0.622 1.053 1.08 0.218 0.418 0.336 0.898 0.352 1.424v0.243c-0.011 0.384-0.076 0.74-0.191 1.065-0.132 0.366-0.332 0.689-0.596 0.958-0.263 0.269-0.587 0.481-0.967 0.632-0.373 0.148-0.808 0.222-1.291 0.222-0.933 0-1.681-0.28-2.223-0.834m0.195-4.148c-0.496 0.506-0.743 1.166-0.743 1.982s0.246 1.476 0.739 1.978c0.493 0.503 1.17 0.754 2.032 0.754 0.451 0 0.85-0.067 1.193-0.203 0.342-0.137 0.634-0.326 0.873-0.57s0.416-0.531 0.535-0.862c0.118-0.331 0.177-0.697 0.177-1.097 0-0.533-0.108-1.006-0.323-1.419-0.216-0.414-0.531-0.737-0.946-0.971-0.416-0.233-0.919-0.35-1.509-0.35-0.858 0-1.533 0.253-2.028 0.758" fill="url(#linearGradient1088)"/>
   </g>
  </g>
  <g id="g1100" transform="matrix(.35278 0 0 -.35278 -54.022 200.11)">
   <g id="g1102">
    <path id="path1116" d="m421.64 215.2c-0.916-0.51-1.595-1.182-2.035-2.016-0.442-0.833-0.663-1.731-0.663-2.69 0-0.954 0.222-1.85 0.666-2.686 0.444-0.837 1.123-1.51 2.037-2.025 0.881-0.495 1.952-0.75 3.214-0.767h0.267c1.245 0.016 2.306 0.262 3.182 0.738 0.909 0.493 1.593 1.156 2.052 1.993 0.435 0.794 0.665 1.66 0.687 2.597v0.298c-0.016 0.68-0.144 1.33-0.382 1.95-0.257 0.664-0.636 1.246-1.133 1.747-0.497 0.5-1.132 0.897-1.904 1.189-0.773 0.292-1.651 0.439-2.636 0.439-1.319 0-2.435-0.256-3.352-0.767m0.136-9.183c-0.865 0.487-1.514 1.132-1.931 1.916-0.421 0.793-0.635 1.655-0.635 2.561 0 0.913 0.213 1.775 0.631 2.565 0.414 0.783 1.063 1.425 1.93 1.907 0.871 0.486 1.955 0.733 3.221 0.733 0.948 0 1.803-0.143 2.541-0.422 0.731-0.277 1.34-0.657 1.81-1.126 0.469-0.475 0.83-1.032 1.071-1.656 0.244-0.632 0.367-1.305 0.367-2.001 0-0.944-0.222-1.825-0.656-2.617-0.432-0.787-1.086-1.422-1.943-1.888-0.865-0.468-1.938-0.706-3.19-0.706-1.267 0-2.349 0.247-3.216 0.734" fill="url(#linearGradient1114)"/>
   </g>
  </g>
  <g id="g1126" transform="matrix(.35278 0 0 -.35278 -54.022 200.11)">
   <g id="g1128">
    <path id="path1136" d="m365.67 197.66h12.057l10.405 18.154-5.997 9.974zm-4.455 28.128v-0.013l5.865-9.961h8.43l5.825 9.974z" fill="url(#linearGradient1134)"/>
   </g>
  </g>
  <g id="g1146" transform="matrix(.35278 0 0 -.35278 73.403 120.46)">
   <path id="path1148" d="m0 0 5.871-9.974 0.167 0.277-5.586 9.458z" fill="#f59011"/>
  </g>
  <g id="g1158" transform="matrix(.35278 0 0 -.35278 -54.022 200.11)">
   <g id="g1160">
    <path id="path1174" d="m361.21 225.79 0.448-0.237h19.217l0.451 0.235v2e-3z" fill="url(#linearGradient1172)"/>
   </g>
  </g>
  <g id="g1184" transform="matrix(.35278 0 0 -.35278 -54.022 200.11)">
   <g id="g1186">
    <path id="path1198" d="m367.24 216.1-0.166-0.275h8.428l-0.167 0.275z" fill="url(#linearGradient1196)"/>
   </g>
  </g>
  <g id="g1208" transform="matrix(.35278 0 0 -.35278 -54.022 200.11)">
   <g id="g1210">
    <path id="path1222" d="m381.33 225.79-0.446-0.238-5.545-9.458 0.168-0.277 5.824 9.972v1e-3z" fill="url(#linearGradient1220)"/>
   </g>
  </g>
  <g id="g1232" transform="matrix(.35278 0 0 -.35278 -54.022 200.11)">
   <g id="g1234">
    <path id="path1248" d="m365.67 197.67v-3e-3h6e-3l0.576 0.299 15.883 27.307-2e-3 0.522z" fill="url(#linearGradient1246)"/>
   </g>
  </g>
  <g id="g1258" transform="matrix(.35278 0 0 -.35278 79.229 130.38)">
   <path id="path1260" d="m0 0h-12.056l0.586 0.305h11.142z" fill="#d23522"/>
  </g>
  <g id="g1270" transform="matrix(.35278 0 0 -.35278 -54.022 200.11)">
   <g id="g1272">
    <path id="path1284" d="m382.13 225.27 5.615-9.48 0.38 0.028-5.995 9.971z" fill="url(#linearGradient1282)"/>
   </g>
  </g>
  <g id="g1294" transform="matrix(.35278 0 0 -.35278 -54.022 200.11)">
   <g id="g1296">
    <path id="path1308" d="m387.75 215.79-10.354-17.822v-8e-3l0.324-0.301h2e-3l10.408 18.159z" fill="url(#linearGradient1306)"/>
   </g>
  </g>
  <g id="g1318" transform="matrix(.35278 0 0 -.35278 83.816 123.98)">
   <path id="path1320" d="m0 0 0.268-0.268h9.504l0.179 0.268z" fill="#f59011"/>
  </g>
  <g id="g1330" transform="matrix(.35278 0 0 -.35278 -54.022 200.11)">
   <g id="g1332">
    <path id="path1340" d="m390.72 213.22 0.267 0.268v2.059l-0.267 0.267z" fill="url(#linearGradient1338)"/>
   </g>
  </g>
  <g id="g1350" transform="matrix(.35278 0 0 -.35278 83.819 124.89)">
   <path id="path1352" d="m0 0 0.268 0.268h3.909l-0.268-0.268z" fill="#ea3f1f"/>
  </g>
  <g id="g1362" transform="matrix(.35278 0 0 -.35278 -54.022 200.11)">
   <g id="g1364">
    <path id="path1374" d="m394.63 213.22v-8.207h5e-3l0.262 0.261v8.212z" fill="url(#linearGradient1372)"/>
   </g>
  </g>
  <g id="g1384" transform="matrix(.35278 0 0 -.35278 85.195 127.79)">
   <path id="path1386" d="m0 0 0.268 0.268h2.674l0.268-0.268z" fill="#ea3f1f"/>
  </g>
  <g id="g1396" transform="matrix(.35278 0 0 -.35278 -54.022 200.11)">
   <g id="g1398">
    <path id="path1410" d="m397.57 205.28 0.265-0.264h3e-3v8.209l-0.268 0.266z" fill="url(#linearGradient1408)"/>
   </g>
  </g>
  <g id="g1420" transform="matrix(.35278 0 0 -.35278 86.234 124.8)">
   <path id="path1422" d="m0 0h3.782l0.403-0.268h-3.917z" fill="#f2531b"/>
  </g>
  <g id="g1432" transform="matrix(.35278 0 0 -.35278 -54.022 200.11)">
   <g id="g1434">
    <path id="path1446" d="m400.49 215.55 0.86-2.058 0.404-0.268-1.086 2.594z" fill="url(#linearGradient1444)"/>
   </g>
  </g>
  <g id="g1456" transform="matrix(.35278 0 0 -.35278 87.61 123.98)">
   <path id="path1458" d="m0 0 0.403-0.268h2.744l0.186 0.268z" fill="#f59011"/>
  </g>
  <g id="g1468" transform="matrix(.35278 0 0 -.35278 -54.022 200.11)">
   <g id="g1470">
    <path id="path1478" d="m406 205.02h1e-3l0.176 0.264v7e-3l-4.299 10.265-0.403 0.268z" fill="url(#linearGradient1476)"/>
   </g>
  </g>
  <g id="g1488" transform="matrix(.35278 0 0 -.35278 89.206 127.79)">
   <path id="path1490" d="m0 0 0.178 0.268h1.527l0.173-0.268z" fill="#ea3f1f"/>
  </g>
  <g id="g1500" transform="matrix(.35278 0 0 -.35278 -54.022 200.11)">
   <g id="g1502">
    <path id="path1516" d="m407.71 205.28 0.173-0.268 2.84 6.287 2e-3 0.494v0.163z" fill="url(#linearGradient1514)"/>
   </g>
  </g>
  <g id="g1526" transform="matrix(.35278 0 0 -.35278 -54.022 200.11)">
   <g id="g1528">
    <path id="path1538" d="m410.72 211.3 2.771-6.287 0.174 0.268-2.942 6.678z" fill="url(#linearGradient1536)"/>
   </g>
  </g>
  <g id="g1548" transform="matrix(.35278 0 0 -.35278 91.848 127.79)">
   <path id="path1550" d="m0 0 0.175 0.268h1.51l0.177-0.268z" fill="#d94d1f"/>
  </g>
  <g id="g1560" transform="matrix(.35278 0 0 -.35278 -54.022 200.11)">
   <g id="g1562">
    <path id="path1574" d="m419.56 215.55-4.389-10.269 0.177-0.267h1e-3l4.618 10.804z" fill="url(#linearGradient1572)"/>
   </g>
  </g>
  <g id="g1584" transform="matrix(.35278 0 0 -.35278 93.991 124.07)">
   <path id="path1586" d="m0 0 0.406 0.268h-3.294l0.183-0.268z" fill="#f59011"/>
  </g>
  <g id="g1596" transform="matrix(.35278 0 0 -.35278 -54.022 200.11)">
   <g id="g1598">
    <path id="path1608" d="m414.36 209.91 9e-3 -0.713 2.49 6.355-0.183 0.268z" fill="url(#linearGradient1606)"/>
   </g>
  </g>
  <g id="g1618" transform="matrix(.35278 0 0 -.35278 -54.022 200.11)">
   <g id="g1620">
    <path id="path1632" d="m411.69 215.55v-4e-3l2.68-6.353-9e-3 0.713-2.495 5.91z" fill="url(#linearGradient1630)"/>
   </g>
  </g>
  <g id="g1642" transform="matrix(.35278 0 0 -.35278 90.464 123.98)">
   <path id="path1644" d="m0 0h2.301l-0.178-0.268h-1.946z" fill="#f59011"/>
  </g>
  <g id="g1654" transform="matrix(.35278 0 0 -.35278 -54.022 200.11)">
   <g id="g1656">
    <path id="path1666" d="m407.02 209.91-0.017-0.719 2.732 6.359v4e-3l-0.175 0.266z" fill="url(#linearGradient1664)"/>
   </g>
  </g>
  <g id="g1676" transform="matrix(.35278 0 0 -.35278 -54.022 200.11)">
   <g id="g1678">
    <path id="path1690" d="m404.62 215.55 2.385-6.361 0.017 0.719-2.217 5.91z" fill="url(#linearGradient1688)"/>
   </g>
  </g>
 </g>
</svg>
