<svg height="295.89041mm" viewBox="0 0 999.99998 1048.4306" width="282.22223mm" xmlns="http://www.w3.org/2000/svg" xmlns:xlink="http://www.w3.org/1999/xlink"><clipPath id="a"><path d="m22.677 237.559h35.06v42.787h-35.06z"/></clipPath><g transform="translate(350.60941 -140.51789)"><path d="m411.4456 415.60699a274.4725 275.0885 0 0 1 -264.56322 274.90917 274.4725 275.0885 0 0 1 -283.66628-255.05907 274.4725 275.0885 0 0 1 244.08082-293.32596 274.4725 275.0885 0 0 1 301.29037 233.87917" fill="#e6f401"/><g fill="#3c3d41" transform="matrix(14.134296 0 0 -14.31547 -432.647586753784 4009.00585871939)"><g clip-path="url(#a)"><g transform="translate(53.7377 261.6567)"><path d="m0 0c-.82.544-1.845.837-2.863.774-.505-.03-1.008-.147-1.482-.367-1.275-.613-2.352-1.89-2.705-3.422l2.349-6.637 1.814 5.096.076.211v-12.559l-4.953 13.787c-.813 1.991-2.041 2.807-2.503 3.117-.81.479-1.816.747-2.839.783-.026.001-.052-.001-.078 0-.127.003-.254.004-.381 0-.564-.019-1.125-.109-1.653-.275-1.375-.508-2.55-1.072-3.778-3.269l2.497-6.535 1.486 3.933c.255.742.843 1.085 1.437 1.057.592-.027 1.19-.423 1.47-1.161l4.699-12.509s.82-1.988 1.225-2.398c.971-1.124 2.349-1.582 3.471-1.53.665 0 .922.049 1.53.253 1.279.563 2.706 1.787 2.861 4.037v13.627c-.047 1.942-.409 3.066-1.68 3.987" fill="#3c3d41"/></g><g transform="translate(41.784 245.8758)"><path d="m0 0c-.293-.776-.924-1.112-1.547-1.047-.563.06-1.12.448-1.412 1.151l-4.698 12.456s-.813 1.995-1.225 2.4c-.92 1.175-2.349 1.583-3.472 1.583-.66 0-.919-.051-1.477-.254-1.28-.562-2.759-1.789-2.91-4.084v-13.582c.048-1.99.404-3.063 1.683-4.031.903-.543 1.982-.828 3.043-.714.44.046.876.16 1.296.354 1.274.614 2.399 1.89 2.704 3.372l-2.344 6.638-1.718-4.972-.118-.341v12.611l4.899-13.834c.815-1.993 2.038-2.76 2.498-3.063.937-.59 2.13-.842 3.31-.789.561.025 1.119.112 1.645.276 1.378.513 2.55 1.021 3.775 3.22l-2.5 6.585z" fill="#3c3d41"/></g><g transform="translate(38.8248 245.978)"><path d="m0 0-4.698 12.457s-.813 1.994-1.225 2.399c-.919 1.175-2.349 1.583-3.472 1.583-.66 0-.919-.051-1.477-.253-1.279-.563-2.759-1.789-2.909-4.085v-13.581c.047-1.991.403-3.064 1.682-4.032.903-.543 1.983-.828 3.044-.714l-.063 5.392-.118-.341v12.611l4.9-13.834c.814-1.993 2.037-2.76 2.497-3.063.937-.59 2.13-.842 3.311-.789l-.06 5.099c-.563.06-1.12.448-1.412 1.151" fill="#3c3d41"/></g><g transform="translate(53.7377 261.6549)"><path d="m0 0c-.82.544-1.845.837-2.863.775l-.024-5.331.076.212v-12.559l-4.953 13.786c-.813 1.991-2.041 2.807-2.503 3.117-.81.479-1.816.747-2.839.783-.026.001-.052 0-.078 0l-.392-5.088c.592-.028 1.19-.424 1.47-1.162l4.699-12.509s.82-1.988 1.225-2.398c.971-1.124 2.349-1.582 3.471-1.53.665 0 .922.049 1.53.254 1.279.562 2.706 1.786 2.861 4.036v13.627c-.047 1.941-.409 3.066-1.68 3.987" fill="#3c3d41"/></g></g><path d="m40.173 262.438c-.564-.019-1.126-.109-1.653-.274-1.375-.509-2.55-1.072-3.778-3.271l2.496-6.534 1.486 3.933c.256.742.844 1.086 1.438 1.058l.391 5.088c-.07.002-.141.003-.212.003-.056 0-.112-.001-.168-.003"/><path d="m49.392 262.062c-1.274-.613-2.351-1.89-2.704-3.422l2.349-6.637 1.814 5.095.024 5.331c-.505-.03-1.008-.147-1.483-.367"/><path d="m41.784 245.874c-.293-.775-.924-1.112-1.547-1.047l.06-5.098h.018c.555.026 1.106.113 1.627.276 1.377.512 2.55 1.02 3.774 3.219l-2.5 6.585z"/><path d="m29.707 245.144.062-5.392c.439.046.876.16 1.295.354 1.276.613 2.4 1.891 2.705 3.372l-2.345 6.639z"/></g><path d="m-350.53193 994.8738c.0138.0104.0159.67921.0276.88122-.0106-.0561-.034-.17716-.0435-.22613-.0329-.16967-.0499-.27135-.0616-.33435.007.0343.0425-.34673.0775-.32074z" fill="#ff0"/><path d="m-53.347086 1188.8698s-.0011.01-.0021.01c.0021.01.0085.045.0096.051.0053.027.0064.033-.0074-.055z" fill="#ff0"/><path d="m-255.04897 1188.945-95.5605-475.14565 121.44178-24.05802 171.213705 160.38673 67.6885967-146.35289c45.8947873 16.8759 90.9153583 34.46474 175.1949583 20.04834l73.66153 356.86059-141.35014 30.0724-41.808373-206.4979-83.6157014 182.4399-147.3230456-132.31907 41.80838 202.48827z" fill="#e6f401" fill-rule="evenodd"/><path d="m296.29723 1074.7911-71.5498-358.9869c60.05221-22.56655 133.08489-53.16253 187.26084-158.38191l139.23946-28.06767 15.22285 125.13014-205.39951 41.39271 10.87938 52.12568 193.2327-38.21346 22.72433 111.09632-193.81588 39.97507 13.35226 56.96578 215.01271-44.5928 26.34334 127.25654z" fill="#e6f401" fill-rule="evenodd"/></g></svg>