<svg height="592.79999pt" viewBox="0 0 1607.2924 592.79998" width="1607.2924pt" xmlns="http://www.w3.org/2000/svg"><g fill="#7efd41" transform="translate(0 749.99893)"><g stroke-width=".707717" transform="scale(.75000003)"><path d="m161.35938-1000c-29.91667 0-57.95959 8.13208-81.95313 22.37109a33.616544 33.616544 0 0 0 -6.845703 4.30079c-.07685.051-.15567.0992-.232422.15039-43.595345 28.87483-72.328125 78.34439-72.328125 134.53711 0 89.10152 72.257845 161.35937 161.35938 161.35937 42.81686 0 81.74038-16.70259 110.61523-43.87891l-.14844-.1582a33.616544 33.616544 0 0 0 11.96875-25.67383 33.616544 33.616544 0 0 0 -33.61719-33.61523 33.616544 33.616544 0 0 0 -24.64648 10.81836c-16.80578 15.71762-39.37123 25.27539-64.17187 25.27539-52.01718 0-94.126958-42.10978-94.126958-94.12695 0-32.7673 16.772662-61.64268 42.179688-78.48633l-.19922-.29883h.002l.19727.29883c14.86205-9.90804 32.76815-15.64063 51.94727-15.64063 23.49619 0 44.93942 8.63427 61.5 22.85938l.0898-.10352a33.616544 33.616544 0 0 0 23.68945 9.79883 33.616544 33.616544 0 0 0 33.61719-33.61523 33.616544 33.616544 0 0 0 -13.55274-26.92383l.0352-.041c-28.30871-24.41624-65.10988-39.20705-105.37895-39.20705z"/><path d="m441.61523-1000c-35.81047 0-68.93188 11.67658-95.68359 31.42188-.0487.0359-.0959.0734-.14453.10937a33.616543 33.616543 0 0 0 -2.2793 1.73242c-37.76437 28.9495-62.3329 74.22905-63.20898 125.27539a33.616543 33.616543 0 0 0 -.0879 1.75977 33.616543 33.616543 0 0 0  .0488 1.38867c.17762 88.95032 72.36364 161.03125 161.35546 161.03125 37.79208 0 72.54059-13.02114 100-34.74805.35414-.27968.69906-.57091 1.05079-.85351a33.616543 33.616543 0 0 0  .41992-.3418c36.5196-29.54456 59.88867-74.78731 59.88867-125.41601 0-89.10155-72.25785-161.35938-161.35938-161.35938zm0 67.23242c52.01718 0 94.12696 42.10977 94.12696 94.12696 0 29.37639-13.49961 55.61167-34.60157 72.90039a33.616543 33.616543 0 0 0 -.24218.19726c-.32257.26251-.64073.5288-.9668.78711-15.9944 12.66812-36.30642 20.24219-58.31641 20.24219-52.01717 0-94.12695-42.10978-94.12695-94.12695 0-31.06878 15.07594-58.67013 38.28906-75.79688 15.64054-11.53579 34.96024-18.33008 55.83789-18.33008z"/><path d="m652.16016-873.31836c-18.47143 0-33.61524 15.14384-33.61524 33.61524v127.39062 127.38867c0 18.47141 15.14381 33.61719 33.61524 33.61719h162.06836c18.47139 0 33.61523-15.14578 33.61523-33.61719 0-18.4714-15.14384-33.61719-33.61523-33.61719h-128.45118v-60.15625h115.71094c18.47141 0 33.61719-15.14382 33.61719-33.61523 0-18.4714-15.14578-33.61719-33.61719-33.61719h-115.71094v-60.15625h128.45118c18.47139 0 33.61523-15.14577 33.61523-33.61718 0-18.4714-15.14384-33.61524-33.61523-33.61524z"/><path d="m565.11133-693.55859c-9.62496 0-18.32921 4.10423-24.48633 10.61523-.63696.63695-1.20336 1.34455-1.76953 2.12305l-1.06247 1.41629-96.46097 123.84932-97.38086-125.05273c-3.35202-4.30974-7.62537-7.579-12.28711-9.73242-.25867-.12206-.52301-.23215-.78515-.34766-.21584-.093-.42722-.19889-.64453-.28711.0996.0437.17572.086.26757.12891-.46973-.20012-.93397-.41114-1.41406-.58985-.21232-.0708-.42394-.14211-.70703-.21289-.21231-.0708-.4244-.14016-.63672-.21094-.51413-.1661-1.03164-.31576-1.55078-.45703-.17287-.047-.34615-.0905-.51953-.13476-.36402-.093-.72958-.17906-1.09571-.25977-.16603-.0366-.3316-.0753-.49804-.10937-1.04711-.21433-2.10179-.37702-3.16211-.49024-.18732-.02-.37485-.0359-.5625-.0527-.36539-.0327-.73118-.0595-1.09766-.0801-.17387-.01-.3474-.0223-.52148-.0293-.53645-.0217-1.07326-.0338-1.61133-.0293-.5999.005-1.20159.0267-1.80273.0644-.6015.0376-1.20313.0913-1.80469.16211h-.14063c-.42404.0707-.92149.14222-1.3457.21289-.21232.0708-.49471.0699-.70703.14062-.28308.0708-.49427.0718-.77734.14258-5.13096 1.09696-9.83838 3.36146-13.82813 6.50196-.99749.78504-1.95016 1.62566-2.85352 2.51562-.9033.89004-1.75658 1.82863-2.55664 2.81445-.40004.49289-.78764.9966-1.16015 1.51172-1.11788 1.54582-2.10754 3.18854-2.95703 4.91407-.14154.21232-.21199.42589-.35352.70898-.0532.15945-.12973.28473-.21289.42383-.00034.00077-.002.001-.002.002-.0272.0454-.0337.0867-.0684.13867v.002c-.0734.1686-.13263.34205-.20313.51171-.19246.45616-.37531.91676-.54687 1.38282-.0211.0579-.0476.11387-.0684.17187-.0278.0775-.049.15672-.0762.23438-.20346.57654-.39145 1.15929-.5625 1.75-.0193.0665-.0398.13259-.0586.19922-.36028 1.27501-.64888 2.58081-.85351 3.91601-.00062.004-.001.008-.002.0117-.0177.11178-.044.22203-.0605.33398v.002c-.052.35141-.0802.7057-.1211 1.05859-.009.0861-.0205.1715-.0293.25781-.0319.29459-.0774.58744-.10157.88282-.11427 1.39568-.13538 2.79877-.0762 4.20117v251.75195c0 18.4714 15.14382 33.61719 33.61524 33.61719 18.4714 0 33.61718-15.14579 33.61718-33.61719v-155.48437l63.59961 81.46679c1.72151 2.28206 3.75844 4.37984 6.11133 6.21875 14.57896 11.32347 35.8089 8.70593 47.20313-5.87304l1.91211-2.40625c.12474-.19984.2293-.4093.3496-.61133l61.29297-78.6543v155.34375c0 18.4714 15.14383 33.61719 33.61524 33.61719 18.4714 0 33.61719-15.14579 33.61719-33.61719v-249.46875-3.89258c0-18.4714-15.14579-33.61718-33.61719-33.61718z"/></g><path d="m567.07904-399.27264c-.77347-.00075-1.5459.005-2.31885.0175v.0527h-75.37206l-.0205.0586c-.0824-.00075-.16354-.006-.24609-.006-1.00872 0-1.96842.18326-2.94726.30029-12.4644 1.49014-22.26417 12.06778-22.26417 24.9126 0 .43293.0104.86421.0323 1.29199-.0219-.42778-.0337-.85906-.0337-1.29199v191.08327c0 13.78674 11.25109 25.09964 25.01367 25.20849l-.0659.005 75.90239.42481c28.98097.4777 57.69667-9.44774 80.3613-28.71534l-.051-.0615.0323-.0264.0735.0879c7.69612-6.52843 14.70307-14.11922 20.75385-22.82373 38.376-54.7242 25.10505-130.20268-29.61915-168.57862-21.0822-14.80897-45.25238-21.89649-69.22995-21.93897zm-75.18749.28125c.0392.005.078.0101.11718.0146-.0392-.005-.0779-.0103-.11718-.0146zm22.44286 50.26611v.002h50.42578c14.70285-.42463 29.61683 3.60908 42.62108 12.68555 31.90035 22.39923 39.6504 66.40094 17.30422 98.30127-3.32977 4.76418-7.15725 8.97978-11.38035 12.65625-.17115.1321-.34065.26638-.50835.40284v-.001c-12.52657 10.82806-28.29052 16.66751-44.32035 17.03906l-54.14203-.4248v-140.6587z" stroke-width=".530788"/><path d="m1175.0234-530.46484c-10.2497-.22664-20.4827 4.18749-27.248 12.84375l-96.293 122.68359-.027-.0352-.027.0352-96.22262-122.68359c-6.76533-8.65626-16.99833-13.06958-27.24805-12.82813-7.01297.16521-14.03433 2.51031-19.95703 7.16797-14.57897 11.39424-17.12712 32.62414-5.66211 47.20313l115.35941 147.06445v83.08594c0 18.47138 15.1456 33.61718 33.6172 33.61718 18.4714 0 33.6152-15.1458 33.6152-33.61718v-82.73243l115.7109-147.48828c11.3943-14.57896 8.8481-35.81084-5.6601-47.20508-5.9227-4.6289-12.9441-6.95626-19.9571-7.11132z" stroke-width=".707717" transform="scale(.75000003)"/></g><g transform="matrix(.8242588 0 0 .8242588 901.93218 -75.353739)"><g fill="#78be20"><path d="m725.33 126.96c-.09-13.81 7.21-26.89 17.72-35.54 10.22 8.47 17.54 21.07 17.69 34.56.5 14.12-7.06 27.54-17.74 36.39-10.37-8.71-17.72-21.65-17.67-35.41z"/><path d="m269.92 123.88c9.73-9.48 23.82-13.08 37.11-12.07 1.36 13.78-2.88 28.48-12.97 38.24-9.74 9.38-23.84 13.2-37.12 11.95-1.22-13.74 2.85-28.4 12.98-38.12z"/><path d="m675.79 121.83c11.54-.96 23.96 2.67 31.7 11.63 6.84 7.73 9.34 18.48 8.5 28.6-11.96 1.17-24.86-2.99-32.47-12.6-6.28-7.69-8.41-17.9-7.73-27.63z"/><path d="m780.55 131.56c7.68-7.7 19.05-10.55 29.68-9.73 1.19 10.9-2.25 22.5-10.05 30.36-7.84 7.65-19.33 10.97-30.1 9.78-.85-10.95 2.25-22.73 10.47-30.41z"/></g><path d="m540.33 121.32c9.03-6.56 23.39-1.56 26.24 9.26 3.28 9.98-4.07 21.36-14.54 22.42-3.48 10.15-6.73 20.38-10.1 30.57l-.96-.3c-4.24-1.39-8.47-2.79-12.71-4.13 2.99-10.33 6.87-20.4 9.77-30.76-7.76-7.25-6.83-21.37 2.3-27.06z"/><path d="m437.56 123.55c5.58-5.89 15.43-6.86 22.07-2.21 6.91 4.39 9.53 14.04 6.15 21.44-.9 2.27-2.95 3.87-3.86 6.11 3.11 10.12 6.73 20.09 9.82 30.23-4.27 1.32-8.51 2.76-12.73 4.23-1.54-.78-1.9-2.67-2.46-4.14-2.81-8.74-5.68-17.45-8.6-26.15-4.42-.82-8.75-2.82-11.5-6.48-5.52-6.5-4.99-17.08 1.11-23.03z"/><path d="m473.2 195.13c20.4-5.81 42.74-4.82 62.46 3.04 16.59 6.51 31.15 17.86 41.87 32.06-51.69-.07-103.39.05-155.08-.06 12.53-16.77 30.61-29.3 50.75-35.04z"/><path d="m214.3 254.39c4.02-4.81 12.28-4.96 16.36-.13 4.93 5.68 5.56 13.73 5.36 20.94-6.94.01-14.51-.59-20.23-4.96-4.81-3.64-5.63-11.39-1.49-15.85z"/><path d="m405.09 268.78c63.24.04 126.47-.04 189.7.04 2.51 12.7 2.39 25.85.06 38.57-63.24.06-126.48.08-189.73 0-2.46-12.73-2.37-25.88-.03-38.61z"/><path d="m215.32 306.35c5.67-4.82 13.58-5.3 20.69-5.39.2 7.14-.39 15.1-5.2 20.8-4.05 5.01-12.58 4.92-16.62-.05-3.75-4.39-3.35-11.62 1.13-15.36z"/><path d="m422.43 346c51.67.04 103.35-.08 155.02.06-10.76 14.37-25.57 25.66-42.31 32.16-15.68 6.26-33.02 7.84-49.67 5.51-24.93-3.58-48.01-17.59-63.04-37.73z"/><path d="m239.55 176.72c20.82-3.14 42.57-.62 61.89 7.83 26.01 11.06 47.45 32.39 58.71 58.31 10.19 23.14 12.17 49.77 5.67 74.2-6.52 25.1-22.18 47.63-43.28 62.68-20.78 15.04-46.84 22.46-72.43 20.85-24.38-1.33-48.15-11-66.64-26.92-19.83-16.98-33.54-41-37.73-66.8-4.31-25.5.37-52.48 13.36-74.88 16.63-29.33 47.07-50.36 80.45-55.27m-23.95 24.85c-20.27 9.55-36.87 26.54-46.05 46.97-9.71 21.23-11.13 46.07-4.13 68.32 6.46 20.82 20.36 39.2 38.56 51.18 15.59 10.4 34.3 15.92 53.02 15.92-.04-63.94.07-127.89-.05-191.84-14.23.35-28.52 3.15-41.35 9.45z" fill="#da281c"/><path d="m471.74 179.12c11.38-3.34 23.39-4.03 35.18-3.51 7.17.63 14.45 1.3 21.34 3.53 4.24 1.34 8.47 2.74 12.71 4.13 32.46 12.03 58.07 40.55 67.38 73.82 6.22 21.8 5.68 45.5-1.53 66.99-10.89 32.86-37.8 59.98-70.72 70.78-35.79 12.39-77.63 5.07-106.9-19.03-17.76-14.21-31-33.99-37.36-55.83-6.42-21.85-6.06-45.63 1.07-67.26 8.28-25.29 25.89-47.38 48.7-61.09 5.52-3.29 11.22-6.42 17.4-8.3 4.22-1.47 8.46-2.91 12.73-4.23m1.46 16.01c-20.14 5.74-38.22 18.27-50.75 35.04 51.69.11 103.39-.01 155.08.06-10.72-14.2-25.28-25.55-41.87-32.06-19.72-7.86-42.06-8.85-62.46-3.04m-68.11 73.65c-2.34 12.73-2.43 25.88.03 38.61 63.25.08 126.49.06 189.73 0 2.33-12.72 2.45-25.87-.06-38.57-63.23-.08-126.46 0-189.7-.04m17.34 77.22c15.03 20.14 38.11 34.15 63.04 37.73 16.65 2.33 33.99.75 49.67-5.51 16.74-6.5 31.55-17.79 42.31-32.16-51.67-.14-103.35-.02-155.02-.06z" fill="#ffcd00"/><path d="m725.54 176.76c22.03-3.4 45.09-.3 65.28 9.22 29.47 13.6 52.35 40.6 60.86 71.94 6.71 24.23 5.11 50.69-4.69 73.87-13.9 33.76-45.25 59.58-81.08 66.67-35.78 7.63-74.97-3.52-101.08-29.22-12.34-11.78-21.8-26.48-27.69-42.47-7.91-21.75-8.88-45.95-2.86-68.28 8.75-33.01 33.5-61.22 65.04-74.31 8.37-3.57 17.22-6 26.22-7.42m-44.11 38.12c20.33 55.95 40.77 111.87 61.04 167.84.26.03.78.09 1.04.12 20.39-55.97 40.89-111.91 61.09-167.94-18.55-16.4-44.09-24.17-68.66-22.37-19.86 1.57-39.47 9.15-54.51 22.35z" fill="#ffa300"/><path d="m215.6 201.57c12.83-6.3 27.12-9.1 41.35-9.45.12 63.95.01 127.9.05 191.84-18.72 0-37.43-5.52-53.02-15.92-18.2-11.98-32.1-30.36-38.56-51.18-7-22.25-5.58-47.09 4.13-68.32 9.18-20.43 25.78-37.42 46.05-46.97m-1.3 52.82c-4.14 4.46-3.32 12.21 1.49 15.85 5.72 4.37 13.29 4.97 20.23 4.96.2-7.21-.43-15.26-5.36-20.94-4.08-4.83-12.34-4.68-16.36.13m1.02 51.96c-4.48 3.74-4.88 10.97-1.13 15.36 4.04 4.97 12.57 5.06 16.62.05 4.81-5.7 5.4-13.66 5.2-20.8-7.11.09-15.02.57-20.69 5.39z" fill="#fecb8a"/><path d="m681.43 214.88c15.04-13.2 34.65-20.78 54.51-22.35 24.57-1.8 50.11 5.97 68.66 22.37-20.2 56.03-40.7 111.97-61.09 167.94-.26-.03-.78-.09-1.04-.12-20.27-55.97-40.71-111.89-61.04-167.84z" fill="#ff671e"/><g fill="#1f80c4"><path d="m746.56 438.76c21.11-1.9 42.81 1.03 62.42 9.19 10.92 4.79 22.16 11.26 27.81 22.26 4.61 8.85 2.59 20.27-4.16 27.46-5.16 5.6-13.34 7.31-20.65 6.3-12.23-1.19-22.23-9.21-33.86-12.41-9.49-2.67-19.65-3.61-29.37-1.74-5.76 1.21-11.88 3.77-14.92 9.11-2.78 4.97-2.03 11.98 2.59 15.61 6.66 5.34 15.33 6.98 23.42 9.01 16.07 3.28 32.39 6.4 47.42 13.23 12.42 5.6 23.84 14.23 30.95 26.03 9.12 15.07 10.58 33.93 6.23 50.78-3.78 14.68-13.26 27.57-25.66 36.17-14.51 10.2-32.26 14.72-49.76 16.01-13.76.66-27.67.34-41.18-2.64-18.12-3.87-35.78-11.81-49.17-24.86-5.51-5.36-9.89-12.4-10.4-20.23-.6-8.6 4.53-16.79 11.58-21.37 6.91-4.35 15.76-4.24 23.26-1.53 6.34 2.1 11.58 6.37 17.5 9.33 13.01 6.86 27.52 12.04 42.43 11.16 7.97-.43 16.42-1.7 22.99-6.59 5.12-3.77 7.39-11.05 4.95-16.98-2.01-5.06-6.81-8.26-11.53-10.51-13.61-6.1-28.79-6.65-42.95-10.86-17.07-4.77-34.19-12.47-45.94-26.18-10.26-11.79-14.47-28.06-12.73-43.45 1.09-15.46 7.83-30.55 19.19-41.19 13.38-12.62 31.46-19.23 49.54-21.11z"/><path d="m175.6 442.74c10.51-6.06 24.77-4.28 33.5 4.16 5.73 5.4 8.99 13.24 8.87 21.12.08 20.42-.01 40.83.04 61.25 27.17-26.92 53.82-54.35 81.06-81.2 10.48-9.64 28.17-9.39 38.4.5 11.68 10.42 11.89 30.62.38 41.24-22.39 20.71-44.77 41.44-67.13 62.2 22.28 21.49 44.82 42.71 67.16 64.14 6.66 6.27 9.61 15.9 8.17 24.88-1.6 11.51-11.12 21.3-22.53 23.39-6.22.97-12.85.48-18.47-2.56-5.43-2.55-9.1-7.47-13.37-11.49-24.56-25.05-49.12-50.11-73.68-75.16-.05 20.61.09 41.24-.07 61.85.12 14.42-12.44 27.5-26.87 27.8-11.18.89-22.33-5.77-27.14-15.83-2.2-4.33-2.97-9.22-2.93-14.03.02-55.67-.01-111.34.02-167-.22-10.27 5.55-20.37 14.59-25.26z"/><path d="m393.54 439.75c12.37-2.81 26.07 3.77 31.43 15.29 1.88 3.67 2.85 7.81 2.83 11.94-.03 57.03 0 114.06-.02 171.09-.28 8.82-5.2 17.28-12.54 22.12-10.03 6.82-24.48 6.21-33.8-1.61-6.47-5.16-10.44-13.32-10.43-21.61-.01-56.68-.02-113.36 0-170.04-.06-12.86 9.92-24.81 22.53-27.18z"/><path d="m479.41 441.58c2.16-.47 4.37-.59 6.58-.6 15.66.04 31.32.01 46.98.02 9.66.09 19.39-.41 29 .95 16.68 2.06 32.99 7.68 47.09 16.87 15.09 9.72 27.51 23.5 35.7 39.46 10.39 20.12 14.09 43.35 11.96 65.8-1.58 17.15-6.82 34.07-15.93 48.74-9.87 16.07-24.28 29.28-41.06 37.87-16.84 8.57-35.86 12.74-54.73 12.31-20.34-.01-40.68.01-61.02 0-12.05-.17-23-9.41-25.91-20.99-1.15-3.9-.84-7.99-.86-11.99.02-54.02-.02-108.05.02-162.07.28-12.48 9.99-23.87 22.18-26.37m34.59 56.21v108.42h34c15.03-.27 30.6-6.01 40.34-17.84 11.28-13.5 14.07-32.45 10.79-49.36-2.19-12.03-8.72-23.33-18.56-30.67-9.89-7.37-22.38-10.48-34.58-10.56-10.66.01-21.33 0-31.99.01z"/><path d="m288.52 704.45c7.04-.04 14.08.01 21.12-.02 14.81 34.78 29.65 69.55 44.38 104.36-8.04.01-16.08-.03-24.13.02-3.16-7.51-6.05-15.13-9.29-22.6l-.49-.34c-14.34-.2-28.69-.03-43.02-.08-3.1 7.68-6.22 15.34-9.37 22.99-7.87.01-15.73.03-23.6-.02 14.83-34.75 29.59-69.54 44.4-104.31m-3.1 60.75c8.92.02 17.84 0 26.77.01-4.49-10.82-8.86-21.69-13.36-32.5-4.62 10.77-8.88 21.69-13.41 32.49z"/><path d="m497.63 710.6c13.05-7.47 28.98-8.64 43.47-5.38 9.62 2.15 18.47 7.34 25.24 14.49-5.05 5.53-9.67 11.45-14.87 16.85-5.89-5.62-13.16-10.17-21.33-11.38-9.21-1.6-19.15 1.59-25.58 8.41-12.53 12.73-12 35.67.93 47.94 5.92 5.73 14.39 8.47 22.56 7.71 9.38-.44 17.65-5.73 24.22-12.1 5.03 4.89 9.95 9.9 14.91 14.86-5.62 5.97-12.1 11.34-19.75 14.48-9.54 3.96-20.17 4.79-30.37 3.68-15.69-1.87-30.35-11.23-38.25-24.97-7.52-12.55-9.17-28.14-5.67-42.23 3.38-13.5 12.35-25.5 24.49-32.36z"/><path d="m597.97 706.93c10.18-7.11 26.22-2.04 30.41 9.7 8.96 21.41 16.36 43.46 25 65 1.74 4.84 9.14 6.47 12.03 1.82 3.31-6.64 4.94-13.99 8.09-20.71 3.98 10.42 7.87 20.87 11.89 31.27-3.3 5.94-7.98 11.41-14.48 13.91-10.3 4.69-23.78 3.4-31.79-5.05-6.2-5.78-8.05-14.31-10.9-21.95-6.28-17.43-12.21-34.99-18.69-52.34.08 18.91-.01 37.81.05 56.72 3.17-7.77 5.05-16.09 8.7-23.64 3.78 10.35 7.34 20.79 11.09 31.15-2.18 9.02-9.95 16.84-19.4 17.68-7.82.58-16.74-2.92-19.93-10.56-1.94-4.35-2-9.22-2.05-13.89.03-20.36-.02-40.72.02-61.08-.07-7.23 3.9-14.16 9.96-18.03z"/><path d="m633.68 720.86c4.39-12.06 18.77-19.16 31.32-16.86 9.92 1.05 17.9 8.82 21.41 17.83 7.77 21.19 15.11 42.54 23.04 63.67.01-18.92-.07-37.84.04-56.76-3.07 8.13-5.66 16.44-8.92 24.49-3.53-10.48-7.48-20.83-10.94-31.33.75-5.67 4.44-10.88 8.99-14.31 7.81-6.02 19.89-4.97 26.85 1.9 4.29 4.28 5.24 10.65 5.32 16.46-.01 21.37.03 42.75-.02 64.12-.19 8.11-5.48 15.62-12.84 18.89-9.68 3.91-22.63.07-26.88-9.93-6.11-13.08-10.41-26.93-15.72-40.35-3.21-8.48-6.33-17-9.57-25.47-1.04-2.89-3.71-5.18-6.81-5.43-2.94-.03-5.45 2.16-6.39 4.84-2.41 6.2-4.65 12.46-7.04 18.67-4.43-9.93-8.01-20.26-11.84-30.43z"/><path d="m369.44 705.22c15.86.01 31.72-.06 47.59.03 9.28.13 19.31 1.71 26.49 8.1 11.02 9.11 11.25 28.22.44 37.59-1.56 1.4-3.36 2.5-5.15 3.59 6.61 3.09 13.64 6.97 16.61 14.07 3.14 7.65 3 16.77-.54 24.27-4.19 8.29-13.15 12.9-21.94 14.65-7.52 1.72-15.26 1.2-22.91 1.27-13.53-.01-27.06.01-40.59-.01 0-34.52 0-69.04 0-103.56m22.56 20.34v21.44c7.34-.01 14.67.02 22.01 0 4.02-.14 8.34-.73 11.59-3.3 4.37-3.52 4.53-10.95.41-14.71-3.34-2.77-7.86-3.44-12.06-3.44-7.32.01-14.63.01-21.95.01m.01 40.75c-.01 7.46-.03 14.92.01 22.39 9.25-.09 18.49.09 27.74-.09 4.85-.22 10.53-1.11 13.45-5.48 2.47-4.16 2-10.34-1.97-13.43-3.44-2.72-8-3.37-12.26-3.38-8.99-.01-17.98.01-26.97-.01z"/></g></g><g transform="matrix(.53078755 0 0 .53078755 0 .000015)"><path d="m1315.8 168.4c23.8-.4 52.8 8.5 72.4 32.7 8.9 8.6 25.1 49.8 25.1 49.8l97.5 258.9c12.5 31.1 50.2 33.4 61.3 2.3l30.3-81.6 51.7 136.1c-25.1 45.9-49.5 57.1-78.3 67.6-33.6 10.5-73.8 7-102.7-10.9-9.6-6.2-34.7-22.5-51.7-63.7l-102.6-286.9v261.2l38.4-110.4 49.3 137.8c-7.2 31.6-30.1 58.1-56.7 70.5-29.1 13.7-63.8 8.9-90.1-7.8-26.2-19.4-33.6-42.4-34.7-83.2l.3-282.6c3-47.1 33.1-72.7 59.5-84.1 12.1-4.3 17.2-5.4 31-5.7z"/><path d="m1764.9 639.5c-23.8.4-52.8-8.5-72.4-32.6-8.9-8.6-25.1-49.8-25.1-49.8l-97.5-258.9c-12.6-31.1-50.2-33.5-61.3-2.4l-30.3 81.6-51.7-136.1c25.1-45.8 49.5-57.1 78.3-67.6 33.6-10.5 73.9-7 102.7 10.9 9.6 6.2 34.7 22.5 51.7 63.7l102.7 286.8v-260.9l-38.4 110.4-49.3-137.8c7.2-31.7 30.1-58.1 56.7-70.5 29.1-13.7 63.8-8.9 90.1 7.8 26.2 19.4 33.6 42.4 34.7 83.1l-.4 282.6c-2.9 47.1-33 72.7-59.5 84.1-12 4.3-17.2 5.4-31 5.6z"/></g></svg>