<svg height="592.79999pt" viewBox="0 0 985.03555 592.79998" width="985.03552pt" xmlns="http://www.w3.org/2000/svg"><g fill="#fff" transform="matrix(.53078755 0 0 .53078755 0 .000004)"><path d="m1315.8 168.4c23.8-.4 52.8 8.5 72.4 32.7 8.9 8.6 25.1 49.8 25.1 49.8l97.5 258.9c12.5 31.1 50.2 33.4 61.3 2.3l30.3-81.6 51.7 136.1c-25.1 45.9-49.5 57.1-78.3 67.6-33.6 10.5-73.8 7-102.7-10.9-9.6-6.2-34.7-22.5-51.7-63.7l-102.6-286.9v261.2l38.4-110.4 49.3 137.8c-7.2 31.6-30.1 58.1-56.7 70.5-29.1 13.7-63.8 8.9-90.1-7.8-26.2-19.4-33.6-42.4-34.7-83.2l.3-282.6c3-47.1 33.1-72.7 59.5-84.1 12.1-4.3 17.2-5.4 31-5.7z" fill="#fff"/><path d="m1764.9 639.5c-23.8.4-52.8-8.5-72.4-32.6-8.9-8.6-25.1-49.8-25.1-49.8l-97.5-258.9c-12.6-31.1-50.2-33.5-61.3-2.4l-30.3 81.6-51.7-136.1c25.1-45.8 49.5-57.1 78.3-67.6 33.6-10.5 73.9-7 102.7 10.9 9.6 6.2 34.7 22.5 51.7 63.7l102.7 286.8v-260.9l-38.4 110.4-49.3-137.8c7.2-31.7 30.1-58.1 56.7-70.5 29.1-13.7 63.8-8.9 90.1 7.8 26.2 19.4 33.6 42.4 34.7 83.1l-.4 282.6c-2.9 47.1-33 72.7-59.5 84.1-12 4.3-17.2 5.4-31 5.6z" fill="#fff"/></g><g transform="translate(0 -.000015)"><g stroke-width=".530788"><path d="m121.01956 50.424832c17.62215 0 33.70501 6.475608 46.12544 17.144438l32.90883-38.163625c-21.2315-18.31217-48.83246-29.40563-79.03427-29.40563-24.68162 0-47.664721 7.3779469-66.773072 20.116848l27.813267 42.038374c11.146539-7.431026 24.575465-11.730405 38.959805-11.730405z" fill="#dcfd49"/><path d="m121.01956 191.61432c-39.012884 0-70.594743-31.58186-70.594743-70.59474 0-24.575467 12.579665-46.231599 31.634938-58.864343l-27.813267-42.038374c-32.696513 21.656132-54.246488 58.758182-54.246488 100.902717 0 66.82615 54.193409 121.01956 121.01956 121.01956 32.11265 0 61.30596-12.52659 82.9621-32.90883l-34.55427-36.7305c-12.63275 11.94272-29.67103 19.21451-48.40783 19.21451z" fill="#6bfd5f"/><path d="m95.541759 39.543687a25.212409 25.212409 0 0 1 -25.212409 25.212409 25.212409 25.212409 0 0 1 -25.212408-25.212409 25.212409 25.212409 0 0 1 25.212408-25.212408 25.212409 25.212409 0 0 1 25.212409 25.212408z" fill="#cefd41"/><path d="m210.19187 49.628651a25.212409 25.212409 0 0 1 -25.21241 25.212409 25.212409 25.212409 0 0 1 -25.21241-25.212409 25.212409 25.212409 0 0 1 25.21241-25.212409 25.212409 25.212409 0 0 1 25.21241 25.212409z" fill="#dcfd49"/><path d="m212.84581 189.75656a25.212409 25.212409 0 0 1 -25.21241 25.21241 25.212409 25.212409 0 0 1 -25.21241-25.21241 25.212409 25.212409 0 0 1 25.21241-25.2124 25.212409 25.212409 0 0 1 25.21241 25.2124z" fill="#6bfd5f"/><path d="m452.23099 121.01958c0-66.826156-54.19341-121.019565-121.01956-121.019565-26.85785 0-51.69871 8.7579946-71.76248 23.566967l29.88334 40.605248c11.73041-8.651837 26.22091-13.747398 41.87914-13.747398 39.01289 0 70.59475 31.581859 70.59475 70.594748 0 22.45231-10.5096 42.463-26.85785 55.41422l31.26338 39.54367c28.02558-22.13384 46.01928-56.4758 46.01928-94.95789z" fill="#dcfd49"/><path d="m331.21143 191.61432c-39.01288 0-70.59474-31.58186-70.59474-70.59474h-50.42482c0 66.82615 54.19341 121.01956 121.01956 121.01956 28.34406 0 54.40573-9.76649 75.00028-26.06167l-31.26338-39.54367c-11.9958 9.50109-27.22941 15.18052-43.7369 15.18052z" fill="#6bfd5f"/><path d="m289.33229 64.17223-29.88334-40.605248c-29.88333 22.027684-49.25708 57.484292-49.25708 97.452598h50.42482c0-23.301577 11.30577-44.002291 28.7156-56.84735z" fill="#39fec6"/><circle cx="235.37067" cy="120.2234" fill="#39fdad" r="25.212408"/><circle cx="273.77014" cy="44.287174" fill="#bafd4f" r="25.212408"/><path d="m416.66822 195.49579a25.212408 25.212408 0 0 1 -25.21241 25.21241 25.212408 25.212408 0 0 1 -25.21241-25.21241 25.212408 25.212408 0 0 1 25.21241-25.21241 25.212408 25.212408 0 0 1 25.21241 25.21241z" fill="#cefd41"/><path d="m514.33314 120.2234v25.2124h96.33794c13.85355 0 25.2124-11.35885 25.2124-25.2124 0-13.85356-11.35885-25.212414-25.2124-25.212414h-121.55035c13.85355 0 25.21241 11.358854 25.21241 25.212414z" fill="#39fec6"/><path d="m601.1169 240.97756c13.85356 0 25.21241-11.35885 25.21241-25.21241 0-13.85355-11.35885-25.2124-25.21241-25.2124h-86.78376v50.42481z" fill="#6bfd5f"/><path d="m489.12073 336.51932h121.55035c13.85355 0 25.2124-11.35885 25.2124-25.21241 0-13.85355-11.35885-25.21241-25.2124-25.21241h-96.33794v25.21241c0 13.85356-11.35886 25.21241-25.21241 25.21241z" fill="#dcfd49"/><path d="m463.90832 215.76515v95.54176c0-13.85355 11.35885-25.21241 25.21241-25.21241h25.21241v-45.11694h-25.21241c-13.85356 0-25.21241-11.35885-25.21241-25.21241z" fill="#39fec6"/><path d="m489.12073 145.4358c-13.85356 0-25.21241-11.35885-25.21241-25.2124v95.54175c0-13.85355 11.35885-25.2124 25.21241-25.2124h25.21241v-45.11695z" fill="#39fec6"/><path d="m489.12073 145.4358h25.21241v-25.2124c0-13.85356-11.35886-25.212414-25.21241-25.212414-13.85356 0-25.21241 11.358854-25.21241 25.212414 0 13.85355 11.35885 25.2124 25.21241 25.2124z" fill="#3afee0"/><path d="m463.90832 215.76515c0 13.85356 11.35885 25.21241 25.21241 25.21241h25.21241v-50.42481h-25.21241c-13.85356 0-25.21241 11.35885-25.21241 25.2124z" fill="#38fd76"/><path d="m463.90832 311.30691c0 13.85356 11.35885 25.21241 25.21241 25.21241 13.85355 0 25.21241-11.35885 25.21241-25.21241v-25.21241h-25.21241c-13.85356 0-25.21241 11.35886-25.21241 25.21241z" fill="#bafd4f"/><path d="m214.96896 244.95847c-1.38005 3.07857-2.12315 6.47561-2.12315 10.08496v190.02195c0 13.85355 11.35885 25.2124 25.21241 25.2124 13.85355 0 25.2124-11.35885 25.2124-25.2124v-116.61403l-45.11694-57.962c-5.83866-7.4841-6.741-17.30367-3.18472-25.53088z" fill="#39fec6"/><path d="m443.95071 270.33011-45.32926 58.2274v116.50787c0 13.85355 11.35885 25.2124 25.21241 25.2124 13.85355 0 25.21241-11.35885 25.21241-25.2124v-187.10262c-.53079 4.35246-2.22931 8.65184-5.09556 12.36735z" fill="#dcfd49"/></g><path d="m317.125 306.49805c-1.1998.01-2.4043.085-3.60742.22656h-.14063c-.42464.0708-.91912.14212-1.34375.21289-.21232.0708-.49666.0699-.70898.14062-.28308.0708-.49427.0718-.77734.14258-10.2619 2.19392-18.82609 9.0575-23.35547 18.25782-.14155.21232-.21197.42589-.35352.70898-.0708.21231-.14166.35213-.2832.56445-4.74171 10.89884-3.53879 24.06416 4.24609 34.04297l60.22656 77.14063 63.97852 81.95313c-9.34187-11.88964-9.76753-29.08761-.14258-41.47265l26.46875-33.97071-97.38086-125.05273c-3.69299-4.74813-8.49874-8.24884-13.71679-10.36719.0996.0438.17571.086.26757.12891-.46974-.20012-.93396-.41114-1.41406-.58985-.21232-.0708-.42394-.14211-.70703-.21289-.21231-.0708-.4244-.14016-.63672-.21094-3.45011-1.11464-7.01973-1.67243-10.61914-1.64257zm11.96289 2.0664c.38604.13994.76467.30593 1.14649.46094-.33826-.14871-.71476-.30113-1.14649-.46094z" fill="#6bfd5f" stroke-width=".707717" transform="scale(.75000003)"/><path d="m403.34552 240.447-72.3464 92.8876 19.95761 25.63704c6.68792 8.59875 6.90024 20.223 1.38005 28.981l46.28467-59.39513v-73.51408c0-5.46711 1.75166-10.45629 4.72407-14.59643z" fill="#dcfd49" stroke-width=".530788"/><path d="m449.04627 257.96276v-2.91933c0-13.85355-11.35886-25.21241-25.21241-25.21241-7.21871 0-13.7474 3.07857-18.36525 7.96182-.47771.47771-.90234 1.00849-1.32697 1.59236l-.79612 1.0618c-2.97241 4.14014-4.72407 9.1824-4.72407 14.64951v73.461l45.32926-58.2274c2.86625-3.71551 4.56477-8.01489 5.09556-12.36735z" fill="#f2fd3f" stroke-width=".530788"/><path d="m350.95673 359.02471-19.95761-25.69011-19.85146 25.4778c-8.4926 10.93422-6.52869 26.85785 4.40554 35.40353 10.93422 8.4926 26.85785 6.52869 35.40353-4.40554l1.43312-1.80468c5.46712-8.75799 5.2548-20.38224-1.43312-28.981z" fill="#cefd41" stroke-width=".530788"/><path d="m756.10352 467.63672c-1.0313-.002-2.06119.006-3.0918.0234v.0703h-100.4961l-.0273.0781c18.32152.17901 33.28906 15.24805 33.28906 33.60938v33.61523.002h67.23438c19.60376-.56618 39.48907 4.8121 56.82812 16.91406 42.53379 29.86564 52.86712 88.53459 23.07227 131.06836-4.60016 6.58176-9.90721 12.38538-15.78125 17.41015l43.09961 51.66407c10.26151-8.70457 19.60411-18.82562 27.67187-30.43164 51.16792-72.9656 33.47341-173.60357-39.49218-224.77149-28.10961-19.74529-60.3365-29.19531-92.30664-29.25195zm-131.72657 15.01562c-.56539.8231-1.09475 1.67157-1.58593 2.54493.49118-.87336 1.02054-1.72183 1.58593-2.54493zm-4.05664 8.05469c-.32883.96055-.61478 1.94197-.85547 2.93945.24069-.99748.52664-1.9789.85547-2.93945z" fill="#dcfd49" stroke-width=".707717" transform="scale(.75000003)"/><path d="m463.90832 567.14651c0 13.85356 11.35885 25.21241 25.21241 25.21241 13.85355 0 25.21241-11.35885 25.21241-25.21241v-25.21241h-25.21241c-13.85356 0-25.21241 11.35886-25.21241 25.21241z" fill="#38fd76" stroke-width=".530788"/><path d="m489.12073 401.2754c-13.85356 0-25.21241-11.35885-25.21241-25.21241v191.08352c0-13.85355 11.35885-25.21241 25.21241-25.21241h25.21241v-140.6587z" fill="#39fec6" stroke-width=".530788"/><path d="m568.47347 542.35873-54.14033-.42463v25.21241c0 12.52659-9.23571 22.9831-21.23151 24.89394l-4.2463.31847 75.90262.42463c28.981.47771 57.69661-9.44802 80.36124-28.71561l-32.32496-38.74749c-12.52659 10.82807-28.29098 16.66673-44.32076 17.03828z" fill="#6bfd5f" stroke-width=".530788"/><path d="m1051.3125 627.03711c-15.9236 0-29.2998 11.18242-32.7676 26.11523-.5662 2.40624-.8476 4.95418-.8476 7.50196v10.33203l7.2187 9.20117c9.625 12.31427 26.2547 16.06443 39.9844 10.04883 5.0248-2.12315 9.5552-5.51944 13.0937-10.04883l6.9356-8.84766v-10.61523c0-18.54217-15.1458-33.6875-33.6172-33.6875z" fill="#7efd41" stroke-width=".707717" transform="scale(.75000003)"/><path d="m1175.0234 469.53516c-10.2497-.22664-20.4827 4.18749-27.248 12.84375l-96.293 122.68359 26.3711 33.58203c2.3622 3.01838 4.1076 6.32713 5.2813 9.77539 1.3861 4.01126 1.9858 8.2127 1.7949 12.375v10.54492l115.7109-147.48828c11.3943-14.57896 8.8481-35.81084-5.6601-47.20508-5.9227-4.62891-12.9441-6.95625-19.9571-7.11132z" fill="#6bfd5f" stroke-width=".707717" transform="scale(.75000003)"/><g stroke-width=".530788"><path d="m763.90944 489.86384c.7431-3.87474 2.33547-7.59026 4.93633-10.88114l19.74529-25.15933-72.1871-92.03856c-8.54568-10.93422-24.46931-12.84506-35.40353-4.2463-10.93423 8.54568-12.84506 24.4693-4.2463 35.40353l86.51837 110.29765v-7.7495c0-1.96391.21231-3.82167.63694-5.62635z" fill="#39fec6"/><path d="m798.67631 517.67731c-10.29728 4.5117-22.77079 1.69852-29.9895-7.53718l-5.41403-6.90024v62.31446c0 13.85354 11.35885 25.21241 25.21241 25.21241 13.85355 0 25.2124-11.35887 25.2124-25.21241v-62.04907l-5.20171 6.63485c-2.65394 3.39704-6.05098 5.94482-9.81957 7.53718z" fill="#dcfd49"/><path d="m763.90953 489.86356c2.60086-11.19961 12.63275-19.58606 24.57547-19.58606 13.85355 0 25.2124 11.35886 25.2124 25.21241v.0531c.21232-5.78558-1.4862-11.67732-5.30787-16.56057l-19.79838-25.21241-19.74529 25.15933c-2.60086 3.34396-4.19323 7.05948-4.93633 10.93422z" fill="#38fd76"/><circle cx="628.71783" cy="544.85345" fill="#91fd3e" r="25.212408"/><path d="m246.81614 231.42364c-.15924-.0531-.31847-.10616-.53079-.15924-.15923-.0531-.31847-.10616-.47771-.15924-3.45011-1.11465-7.05947-1.4862-10.66883-1.06157h-.10615c-.31848.0531-.69003.10616-1.0085.15924-.15924.0531-.37155.0531-.53079.10615-.21231.0531-.37155.0531-.58386.10616-7.69642 1.64544-14.11895 6.79408-17.51599 13.69432-.10616.15924-.15924.31847-.2654.53079-.0531.15923-.10615.26539-.21231.42463-3.55628 8.17413-2.65394 18.04677 3.18472 25.53088l45.11716 57.96199-.00021-73.51407c.0531-10.77498-6.84716-20.06377-16.40134-23.62004z" fill="#38fd76"/><path d="m489.12019 350.85058c-1.00873 0-1.96841.18327-2.94726.3003-12.4644 1.49014-22.26416 12.06778-22.26416 24.9126 0 13.85355 11.35786 25.21142 25.21142 25.21142h18.84961 6.36328v-25.21142c0-13.85355-11.35934-25.2129-25.21289-25.2129z" fill="#bafd4f"/></g></g><g transform="translate(0 -.000015)"><g stroke-width=".530788"><path d="m121.01956 50.424832c17.62215 0 33.70501 6.475608 46.12544 17.144438l32.90883-38.163625c-21.2315-18.31217-48.83246-29.40563-79.03427-29.40563-24.68162 0-47.664721 7.3779469-66.773072 20.116848l27.813267 42.038374c11.146539-7.431026 24.575465-11.730405 38.959805-11.730405z" fill="#dcfd49"/><path d="m121.01956 191.61432c-39.012884 0-70.594743-31.58186-70.594743-70.59474 0-24.575467 12.579665-46.231599 31.634938-58.864343l-27.813267-42.038374c-32.696513 21.656132-54.246488 58.758182-54.246488 100.902717 0 66.82615 54.193409 121.01956 121.01956 121.01956 32.11265 0 61.30596-12.52659 82.9621-32.90883l-34.55427-36.7305c-12.63275 11.94272-29.67103 19.21451-48.40783 19.21451z" fill="#6bfd5f"/><path d="m95.541759 39.543687a25.212409 25.212409 0 0 1 -25.212409 25.212409 25.212409 25.212409 0 0 1 -25.212408-25.212409 25.212409 25.212409 0 0 1 25.212408-25.212408 25.212409 25.212409 0 0 1 25.212409 25.212408z" fill="#cefd41"/><path d="m210.19187 49.628651a25.212409 25.212409 0 0 1 -25.21241 25.212409 25.212409 25.212409 0 0 1 -25.21241-25.212409 25.212409 25.212409 0 0 1 25.21241-25.212409 25.212409 25.212409 0 0 1 25.21241 25.212409z" fill="#dcfd49"/><path d="m212.84581 189.75656a25.212409 25.212409 0 0 1 -25.21241 25.21241 25.212409 25.212409 0 0 1 -25.21241-25.21241 25.212409 25.212409 0 0 1 25.21241-25.2124 25.212409 25.212409 0 0 1 25.21241 25.2124z" fill="#6bfd5f"/><path d="m452.23099 121.01958c0-66.826156-54.19341-121.019565-121.01956-121.019565-26.85785 0-51.69871 8.7579946-71.76248 23.566967l29.88334 40.605248c11.73041-8.651837 26.22091-13.747398 41.87914-13.747398 39.01289 0 70.59475 31.581859 70.59475 70.594748 0 22.45231-10.5096 42.463-26.85785 55.41422l31.26338 39.54367c28.02558-22.13384 46.01928-56.4758 46.01928-94.95789z" fill="#dcfd49"/><path d="m331.21143 191.61432c-39.01288 0-70.59474-31.58186-70.59474-70.59474h-50.42482c0 66.82615 54.19341 121.01956 121.01956 121.01956 28.34406 0 54.40573-9.76649 75.00028-26.06167l-31.26338-39.54367c-11.9958 9.50109-27.22941 15.18052-43.7369 15.18052z" fill="#6bfd5f"/><path d="m289.33229 64.17223-29.88334-40.605248c-29.88333 22.027684-49.25708 57.484292-49.25708 97.452598h50.42482c0-23.301577 11.30577-44.002291 28.7156-56.84735z" fill="#39fec6"/><circle cx="235.37067" cy="120.2234" fill="#39fdad" r="25.212408"/><circle cx="273.77014" cy="44.287174" fill="#bafd4f" r="25.212408"/><path d="m416.66822 195.49579a25.212408 25.212408 0 0 1 -25.21241 25.21241 25.212408 25.212408 0 0 1 -25.21241-25.21241 25.212408 25.212408 0 0 1 25.21241-25.21241 25.212408 25.212408 0 0 1 25.21241 25.21241z" fill="#cefd41"/><path d="m514.33314 120.2234v25.2124h96.33794c13.85355 0 25.2124-11.35885 25.2124-25.2124 0-13.85356-11.35885-25.212414-25.2124-25.212414h-121.55035c13.85355 0 25.21241 11.358854 25.21241 25.212414z" fill="#39fec6"/><path d="m601.1169 240.97756c13.85356 0 25.21241-11.35885 25.21241-25.21241 0-13.85355-11.35885-25.2124-25.21241-25.2124h-86.78376v50.42481z" fill="#6bfd5f"/><path d="m489.12073 336.51932h121.55035c13.85355 0 25.2124-11.35885 25.2124-25.21241 0-13.85355-11.35885-25.21241-25.2124-25.21241h-96.33794v25.21241c0 13.85356-11.35886 25.21241-25.21241 25.21241z" fill="#dcfd49"/><path d="m463.90832 215.76515v95.54176c0-13.85355 11.35885-25.21241 25.21241-25.21241h25.21241v-45.11694h-25.21241c-13.85356 0-25.21241-11.35885-25.21241-25.21241z" fill="#39fec6"/><path d="m489.12073 145.4358c-13.85356 0-25.21241-11.35885-25.21241-25.2124v95.54175c0-13.85355 11.35885-25.2124 25.21241-25.2124h25.21241v-45.11695z" fill="#39fec6"/><path d="m489.12073 145.4358h25.21241v-25.2124c0-13.85356-11.35886-25.212414-25.21241-25.212414-13.85356 0-25.21241 11.358854-25.21241 25.212414 0 13.85355 11.35885 25.2124 25.21241 25.2124z" fill="#3afee0"/><path d="m463.90832 215.76515c0 13.85356 11.35885 25.21241 25.21241 25.21241h25.21241v-50.42481h-25.21241c-13.85356 0-25.21241 11.35885-25.21241 25.2124z" fill="#38fd76"/><path d="m463.90832 311.30691c0 13.85356 11.35885 25.21241 25.21241 25.21241 13.85355 0 25.21241-11.35885 25.21241-25.21241v-25.21241h-25.21241c-13.85356 0-25.21241 11.35886-25.21241 25.21241z" fill="#bafd4f"/><path d="m214.96896 244.95847c-1.38005 3.07857-2.12315 6.47561-2.12315 10.08496v190.02195c0 13.85355 11.35885 25.2124 25.21241 25.2124 13.85355 0 25.2124-11.35885 25.2124-25.2124v-116.61403l-45.11694-57.962c-5.83866-7.4841-6.741-17.30367-3.18472-25.53088z" fill="#39fec6"/><path d="m443.95071 270.33011-45.32926 58.2274v116.50787c0 13.85355 11.35885 25.2124 25.21241 25.2124 13.85355 0 25.21241-11.35885 25.21241-25.2124v-187.10262c-.53079 4.35246-2.22931 8.65184-5.09556 12.36735z" fill="#dcfd49"/></g><path d="m317.125 306.49805c-1.1998.01-2.4043.085-3.60742.22656h-.14063c-.42464.0708-.91912.14212-1.34375.21289-.21232.0708-.49666.0699-.70898.14062-.28308.0708-.49427.0718-.77734.14258-10.2619 2.19392-18.82609 9.0575-23.35547 18.25782-.14155.21232-.21197.42589-.35352.70898-.0708.21231-.14166.35213-.2832.56445-4.74171 10.89884-3.53879 24.06416 4.24609 34.04297l60.22656 77.14063 63.97852 81.95313c-9.34187-11.88964-9.76753-29.08761-.14258-41.47265l26.46875-33.97071-97.38086-125.05273c-3.69299-4.74813-8.49874-8.24884-13.71679-10.36719.0996.0438.17571.086.26757.12891-.46974-.20012-.93396-.41114-1.41406-.58985-.21232-.0708-.42394-.14211-.70703-.21289-.21231-.0708-.4244-.14016-.63672-.21094-3.45011-1.11464-7.01973-1.67243-10.61914-1.64257zm11.96289 2.0664c.38604.13994.76467.30593 1.14649.46094-.33826-.14871-.71476-.30113-1.14649-.46094z" fill="#6bfd5f" stroke-width=".707717" transform="scale(.75000003)"/><path d="m403.34552 240.447-72.3464 92.8876 19.95761 25.63704c6.68792 8.59875 6.90024 20.223 1.38005 28.981l46.28467-59.39513v-73.51408c0-5.46711 1.75166-10.45629 4.72407-14.59643z" fill="#dcfd49" stroke-width=".530788"/><path d="m449.04627 257.96276v-2.91933c0-13.85355-11.35886-25.21241-25.21241-25.21241-7.21871 0-13.7474 3.07857-18.36525 7.96182-.47771.47771-.90234 1.00849-1.32697 1.59236l-.79612 1.0618c-2.97241 4.14014-4.72407 9.1824-4.72407 14.64951v73.461l45.32926-58.2274c2.86625-3.71551 4.56477-8.01489 5.09556-12.36735z" fill="#f2fd3f" stroke-width=".530788"/><path d="m350.95673 359.02471-19.95761-25.69011-19.85146 25.4778c-8.4926 10.93422-6.52869 26.85785 4.40554 35.40353 10.93422 8.4926 26.85785 6.52869 35.40353-4.40554l1.43312-1.80468c5.46712-8.75799 5.2548-20.38224-1.43312-28.981z" fill="#cefd41" stroke-width=".530788"/><path d="m756.10352 467.63672c-1.0313-.002-2.06119.006-3.0918.0234v.0703h-100.4961l-.0273.0781c18.32152.17901 33.28906 15.24805 33.28906 33.60938v33.61523.002h67.23438c19.60376-.56618 39.48907 4.8121 56.82812 16.91406 42.53379 29.86564 52.86712 88.53459 23.07227 131.06836-4.60016 6.58176-9.90721 12.38538-15.78125 17.41015l43.09961 51.66407c10.26151-8.70457 19.60411-18.82562 27.67187-30.43164 51.16792-72.9656 33.47341-173.60357-39.49218-224.77149-28.10961-19.74529-60.3365-29.19531-92.30664-29.25195zm-131.72657 15.01562c-.56539.8231-1.09475 1.67157-1.58593 2.54493.49118-.87336 1.02054-1.72183 1.58593-2.54493zm-4.05664 8.05469c-.32883.96055-.61478 1.94197-.85547 2.93945.24069-.99748.52664-1.9789.85547-2.93945z" fill="#dcfd49" stroke-width=".707717" transform="scale(.75000003)"/><path d="m463.90832 567.14651c0 13.85356 11.35885 25.21241 25.21241 25.21241 13.85355 0 25.21241-11.35885 25.21241-25.21241v-25.21241h-25.21241c-13.85356 0-25.21241 11.35886-25.21241 25.21241z" fill="#38fd76" stroke-width=".530788"/><path d="m489.12073 401.2754c-13.85356 0-25.21241-11.35885-25.21241-25.21241v191.08352c0-13.85355 11.35885-25.21241 25.21241-25.21241h25.21241v-140.6587z" fill="#39fec6" stroke-width=".530788"/><path d="m568.47347 542.35873-54.14033-.42463v25.21241c0 12.52659-9.23571 22.9831-21.23151 24.89394l-4.2463.31847 75.90262.42463c28.981.47771 57.69661-9.44802 80.36124-28.71561l-32.32496-38.74749c-12.52659 10.82807-28.29098 16.66673-44.32076 17.03828z" fill="#6bfd5f" stroke-width=".530788"/><path d="m1051.3125 627.03711c-15.9236 0-29.2998 11.18242-32.7676 26.11523-.5662 2.40624-.8476 4.95418-.8476 7.50196v10.33203l7.2187 9.20117c9.625 12.31427 26.2547 16.06443 39.9844 10.04883 5.0248-2.12315 9.5552-5.51944 13.0937-10.04883l6.9356-8.84766v-10.61523c0-18.54217-15.1458-33.6875-33.6172-33.6875z" fill="#7efd41" stroke-width=".707717" transform="scale(.75000003)"/><path d="m1175.0234 469.53516c-10.2497-.22664-20.4827 4.18749-27.248 12.84375l-96.293 122.68359 26.3711 33.58203c2.3622 3.01838 4.1076 6.32713 5.2813 9.77539 1.3861 4.01126 1.9858 8.2127 1.7949 12.375v10.54492l115.7109-147.48828c11.3943-14.57896 8.8481-35.81084-5.6601-47.20508-5.9227-4.62891-12.9441-6.95625-19.9571-7.11132z" fill="#6bfd5f" stroke-width=".707717" transform="scale(.75000003)"/><g stroke-width=".530788"><path d="m763.90944 489.86384c.7431-3.87474 2.33547-7.59026 4.93633-10.88114l19.74529-25.15933-72.1871-92.03856c-8.54568-10.93422-24.46931-12.84506-35.40353-4.2463-10.93423 8.54568-12.84506 24.4693-4.2463 35.40353l86.51837 110.29765v-7.7495c0-1.96391.21231-3.82167.63694-5.62635z" fill="#39fec6"/><path d="m798.67631 517.67731c-10.29728 4.5117-22.77079 1.69852-29.9895-7.53718l-5.41403-6.90024v62.31446c0 13.85354 11.35885 25.21241 25.21241 25.21241 13.85355 0 25.2124-11.35887 25.2124-25.21241v-62.04907l-5.20171 6.63485c-2.65394 3.39704-6.05098 5.94482-9.81957 7.53718z" fill="#dcfd49"/><path d="m763.90953 489.86356c2.60086-11.19961 12.63275-19.58606 24.57547-19.58606 13.85355 0 25.2124 11.35886 25.2124 25.21241v.0531c.21232-5.78558-1.4862-11.67732-5.30787-16.56057l-19.79838-25.21241-19.74529 25.15933c-2.60086 3.34396-4.19323 7.05948-4.93633 10.93422z" fill="#38fd76"/><circle cx="628.71783" cy="544.85345" fill="#91fd3e" r="25.212408"/><path d="m246.81614 231.42364c-.15924-.0531-.31847-.10616-.53079-.15924-.15923-.0531-.31847-.10616-.47771-.15924-3.45011-1.11465-7.05947-1.4862-10.66883-1.06157h-.10615c-.31848.0531-.69003.10616-1.0085.15924-.15924.0531-.37155.0531-.53079.10615-.21231.0531-.37155.0531-.58386.10616-7.69642 1.64544-14.11895 6.79408-17.51599 13.69432-.10616.15924-.15924.31847-.2654.53079-.0531.15923-.10615.26539-.21231.42463-3.55628 8.17413-2.65394 18.04677 3.18472 25.53088l45.11716 57.96199-.00021-73.51407c.0531-10.77498-6.84716-20.06377-16.40134-23.62004z" fill="#38fd76"/><path d="m489.12019 350.85058c-1.00873 0-1.96841.18327-2.94726.3003-12.4644 1.49014-22.26416 12.06778-22.26416 24.9126 0 13.85355 11.35786 25.21142 25.21142 25.21142h18.84961 6.36328v-25.21142c0-13.85355-11.35934-25.2129-25.21289-25.2129z" fill="#bafd4f"/></g></g></svg>