<svg height="308.18887pt" viewBox="0 0 653.10248 308.18888" width="653.10248pt" xmlns="http://www.w3.org/2000/svg" xmlns:xlink="http://www.w3.org/1999/xlink"><linearGradient id="a"><stop offset="0" stop-color="#009cde"/><stop offset=".331288" stop-color="#009cde"/><stop offset=".5" stop-color="#009cde"/><stop offset=".996054" stop-color="#0089cd"/><stop offset="1" stop-color="#0089cd"/></linearGradient><linearGradient id="b" gradientTransform="matrix(4.3731976 1.658805 1.658805 -4.3731976 28.643811 244.11951)" gradientUnits="userSpaceOnUse" spreadMethod="pad" x1="0" x2="1" xlink:href="#a" y1="0" y2="0"/><linearGradient id="c" gradientTransform="matrix(4.6184254 1.68609 1.68609 -4.6184254 40.078072 243.99404)" gradientUnits="userSpaceOnUse" spreadMethod="pad" x1="0" x2="1" xlink:href="#a" y1="0" y2="0"/><linearGradient id="d" gradientTransform="matrix(-5.10177 -1.9928851 -1.9928851 5.10177 52.52642 258.33005)" gradientUnits="userSpaceOnUse" spreadMethod="pad" x1="0" x2="1" xlink:href="#a" y1="0" y2="0"/><linearGradient id="e" gradientTransform="matrix(-5.1015452 -2.3913451 -2.3913451 5.1015452 40.835572 258.67344)" gradientUnits="userSpaceOnUse" spreadMethod="pad" x1="0" x2="1" xlink:href="#a" y1="0" y2="0"/><clipPath id="f"><path d="m22.677 237.559h35.06v42.787h-35.06z"/></clipPath><g clip-path="url(#f)" transform="matrix(13.563919674905 0 0 -13.563919674905 -339.68124048738 3559.74679513612)"><g transform="translate(53.7377 261.6567)"><path d="m0 0c-.82.544-1.845.837-2.863.774-.505-.03-1.008-.147-1.482-.367-1.275-.613-2.352-1.89-2.705-3.422l2.349-6.637 1.814 5.096.076.211v-12.559l-4.953 13.787c-.813 1.991-2.041 2.807-2.503 3.117-.81.479-1.816.747-2.839.783-.026.001-.052-.001-.078 0-.127.003-.254.004-.381 0-.564-.019-1.125-.109-1.653-.275-1.375-.508-2.55-1.072-3.778-3.269l2.497-6.535 1.486 3.933c.255.742.843 1.085 1.437 1.057.592-.027 1.19-.423 1.47-1.161l4.699-12.509s.82-1.988 1.225-2.398c.971-1.124 2.349-1.582 3.471-1.53.665 0 .922.049 1.53.253 1.279.563 2.706 1.787 2.861 4.037v13.627c-.047 1.942-.409 3.066-1.68 3.987" fill="#009cde"/></g><g transform="translate(41.784 245.8758)"><path d="m0 0c-.293-.776-.924-1.112-1.547-1.047-.563.06-1.12.448-1.412 1.151l-4.698 12.456s-.813 1.995-1.225 2.4c-.92 1.175-2.349 1.583-3.472 1.583-.66 0-.919-.051-1.477-.254-1.28-.562-2.759-1.789-2.91-4.084v-13.582c.048-1.99.404-3.063 1.683-4.031.903-.543 1.982-.828 3.043-.714.44.046.876.16 1.296.354 1.274.614 2.399 1.89 2.704 3.372l-2.344 6.638-1.718-4.972-.118-.341v12.611l4.899-13.834c.815-1.993 2.038-2.76 2.498-3.063.937-.59 2.13-.842 3.31-.789.561.025 1.119.112 1.645.276 1.378.513 2.55 1.021 3.775 3.22l-2.5 6.585z" fill="#009cde"/></g><g transform="translate(38.8248 245.978)"><path d="m0 0-4.698 12.457s-.813 1.994-1.225 2.399c-.919 1.175-2.349 1.583-3.472 1.583-.66 0-.919-.051-1.477-.253-1.279-.563-2.759-1.789-2.909-4.085v-13.581c.047-1.991.403-3.064 1.682-4.032.903-.543 1.983-.828 3.044-.714l-.063 5.392-.118-.341v12.611l4.9-13.834c.814-1.993 2.037-2.76 2.497-3.063.937-.59 2.13-.842 3.311-.789l-.06 5.099c-.563.06-1.12.448-1.412 1.151" fill="#009cde"/></g><g transform="translate(53.7377 261.6549)"><path d="m0 0c-.82.544-1.845.837-2.863.775l-.024-5.331.076.212v-12.559l-4.953 13.786c-.813 1.991-2.041 2.807-2.503 3.117-.81.479-1.816.747-2.839.783-.026.001-.052 0-.078 0l-.392-5.088c.592-.028 1.19-.424 1.47-1.162l4.699-12.509s.82-1.988 1.225-2.398c.971-1.124 2.349-1.582 3.471-1.53.665 0 .922.049 1.53.254 1.279.562 2.706 1.786 2.861 4.036v13.627c-.047 1.941-.409 3.066-1.68 3.987" fill="#009cde"/></g></g><path d="m40.173 262.438c-.564-.019-1.126-.109-1.653-.274-1.375-.509-2.55-1.072-3.778-3.271l2.496-6.534 1.486 3.933c.256.742.844 1.086 1.438 1.058l.391 5.088c-.07.002-.141.003-.212.003-.056 0-.112-.001-.168-.003" fill="url(#e)" transform="matrix(13.563919674905 0 0 -13.563919674905 -339.68124048738 3559.74679513612)"/><path d="m49.392 262.062c-1.274-.613-2.351-1.89-2.704-3.422l2.349-6.637 1.814 5.095.024 5.331c-.505-.03-1.008-.147-1.483-.367" fill="url(#d)" transform="matrix(13.563919674905 0 0 -13.563919674905 -339.68124048738 3559.74679513612)"/><path d="m41.784 245.874c-.293-.775-.924-1.112-1.547-1.047l.06-5.098h.018c.555.026 1.106.113 1.627.276 1.377.512 2.55 1.02 3.774 3.219l-2.5 6.585z" fill="url(#c)" transform="matrix(13.563919674905 0 0 -13.563919674905 -339.68124048738 3559.74679513612)"/><path d="m29.707 245.144.062-5.392c.439.046.876.16 1.295.354 1.276.613 2.4 1.891 2.705 3.372l-2.345 6.639z" fill="url(#b)" transform="matrix(13.563919674905 0 0 -13.563919674905 -339.68124048738 3559.74679513612)"/><path d="m441.6125 46.435668h29.48c.02 16.040018-.01 32.080037.02 48.120052 13.24 0 26.49.02 39.73 0 .02-16.040015 0-32.080034.01-48.110052 9.77-.01 19.54-.01 29.31 0 .01 41.640045.01 83.280092 0 124.930142-9.77.01-19.54.01-29.3-.01-.02-16.57002 0-33.15004-.02-49.73006-13.24-.01-26.48 0-39.73-.01-.03 16.58002.01 33.16004-.02 49.75006-9.83.01-19.66.01-29.49 0 0-41.65005-.01-83.290097.01-124.940142z" fill="#009cde"/><path d="m549.2325 46.445668c12.28-.02 24.57-.01 36.85-.01 6.64.03 13.33-.25 19.93.720001 11.46 1.470001 22.88 5.840007 31.28 13.980015 10.78 10.210012 15.1 25.330027 15.81 39.780046v9.53001c-.84 15.46002-4.95 31.55004-15.66 43.22005-10.61 11.85001-26.73 17.32002-42.32 17.66002-15.3.12-30.6.03-45.89.04-.02-41.64005-.01-83.280097 0-124.920142m29.5 24.320027c0 25.080027 0 50.150055-.01 75.220085 6.16-.07 12.34.28 18.49-.3 8.31-.75 16.51-5.11001 20.7-12.52001 5.61-9.86002 6.08-21.68003 5.47-32.75004-.64-9.430014-3.53-19.970026-12.02-25.300029-9.76-6.090008-21.74-3.970005-32.63-4.350006z" fill="#009cde"/></svg>