<?xml version="1.0" encoding="UTF-8"?>
<!-- Created with Inkscape (http://www.inkscape.org/) -->
<svg id="svg4748" width="347.5mm" height="209.13mm" version="1.1" viewBox="0 0 347.5 209.13" xmlns="http://www.w3.org/2000/svg" xmlns:cc="http://creativecommons.org/ns#" xmlns:dc="http://purl.org/dc/elements/1.1/" xmlns:rdf="http://www.w3.org/1999/02/22-rdf-syntax-ns#">
 <metadata id="metadata4745">
  <rdf:RDF>
   <cc:Work rdf:about="">
    <dc:format>image/svg+xml</dc:format>
    <dc:type rdf:resource="http://purl.org/dc/dcmitype/StillImage"/>
    <dc:title/>
   </cc:Work>
  </rdf:RDF>
 </metadata>
 <g id="layer1" transform="translate(190.76 -44.27)">
  <g id="g6" transform="matrix(.18725 0 0 .18725 -190.76 44.27)" fill="#fff">
   <path id="path2" d="m1315.8 168.4c23.8-0.4 52.8 8.5 72.4 32.7 8.9 8.6 25.1 49.8 25.1 49.8l97.5 258.9c12.5 31.1 50.2 33.4 61.3 2.3l30.3-81.6 51.7 136.1c-25.1 45.9-49.5 57.1-78.3 67.6-33.6 10.5-73.8 7-102.7-10.9-9.6-6.2-34.7-22.5-51.7-63.7l-102.6-286.9v261.2l38.4-110.4 49.3 137.8c-7.2 31.6-30.1 58.1-56.7 70.5-29.1 13.7-63.8 8.9-90.1-7.8-26.2-19.4-33.6-42.4-34.7-83.2l0.3-282.6c3-47.1 33.1-72.7 59.5-84.1 12.1-4.3 17.2-5.4 31-5.7z"/>
   <path id="path4" d="m1764.9 639.5c-23.8 0.4-52.8-8.5-72.4-32.6-8.9-8.6-25.1-49.8-25.1-49.8l-97.5-258.9c-12.6-31.1-50.2-33.5-61.3-2.4l-30.3 81.6-51.7-136.1c25.1-45.8 49.5-57.1 78.3-67.6 33.6-10.5 73.9-7 102.7 10.9 9.6 6.2 34.7 22.5 51.7 63.7l102.7 286.8v-260.9l-38.4 110.4-49.3-137.8c7.2-31.7 30.1-58.1 56.7-70.5 29.1-13.7 63.8-8.9 90.1 7.8 26.2 19.4 33.6 42.4 34.7 83.1l-0.4 282.6c-2.9 47.1-33 72.7-59.5 84.1-12 4.3-17.2 5.4-31 5.6z"/>
  </g>
  <g id="g86" transform="matrix(.35278 0 0 .35278 -190.76 44.27)">
   <g id="g50" stroke-width=".53079">
    <path id="path8" d="m121.02 50.425c17.622 0 33.705 6.4756 46.125 17.144l32.909-38.164c-21.232-18.312-48.832-29.406-79.034-29.406-24.682 0-47.665 7.3779-66.773 20.117l27.813 42.038c11.147-7.431 24.575-11.73 38.96-11.73z" fill="#dcfd49"/>
    <path id="path10" d="m121.02 191.61c-39.013 0-70.595-31.582-70.595-70.595 0-24.575 12.58-46.232 31.635-58.864l-27.813-42.038c-32.697 21.656-54.246 58.758-54.246 100.9 0 66.826 54.193 121.02 121.02 121.02 32.113 0 61.306-12.527 82.962-32.909l-34.554-36.73c-12.633 11.943-29.671 19.215-48.408 19.215z" fill="#6bfd5f"/>
    <path id="path12" d="m95.542 39.544a25.212 25.212 0 0 1-25.212 25.212 25.212 25.212 0 0 1-25.212-25.212 25.212 25.212 0 0 1 25.212-25.212 25.212 25.212 0 0 1 25.212 25.212z" fill="#cefd41"/>
    <path id="path14" d="m210.19 49.629a25.212 25.212 0 0 1-25.212 25.212 25.212 25.212 0 0 1-25.212-25.212 25.212 25.212 0 0 1 25.212-25.212 25.212 25.212 0 0 1 25.212 25.212z" fill="#dcfd49"/>
    <path id="path16" d="m212.85 189.76a25.212 25.212 0 0 1-25.212 25.212 25.212 25.212 0 0 1-25.212-25.212 25.212 25.212 0 0 1 25.212-25.212 25.212 25.212 0 0 1 25.212 25.212z" fill="#6bfd5f"/>
    <path id="path18" d="m452.23 121.02c0-66.826-54.193-121.02-121.02-121.02-26.858 0-51.699 8.758-71.762 23.567l29.883 40.605c11.73-8.6518 26.221-13.747 41.879-13.747 39.013 0 70.595 31.582 70.595 70.595 0 22.452-10.51 42.463-26.858 55.414l31.263 39.544c28.026-22.134 46.019-56.476 46.019-94.958z" fill="#dcfd49"/>
    <path id="path20" d="m331.21 191.61c-39.013 0-70.595-31.582-70.595-70.595h-50.425c0 66.826 54.193 121.02 121.02 121.02 28.344 0 54.406-9.7665 75-26.062l-31.263-39.544c-11.996 9.5011-27.229 15.181-43.737 15.181z" fill="#6bfd5f"/>
    <path id="path22" d="m289.33 64.172-29.883-40.605c-29.883 22.028-49.257 57.484-49.257 97.453h50.425c0-23.302 11.306-44.002 28.716-56.847z" fill="#39fec6"/>
    <circle id="circle24" cx="235.37" cy="120.22" r="25.212" fill="#39fdad"/>
    <circle id="circle26" cx="273.77" cy="44.287" r="25.212" fill="#bafd4f"/>
    <path id="path28" d="m416.67 195.5a25.212 25.212 0 0 1-25.212 25.212 25.212 25.212 0 0 1-25.212-25.212 25.212 25.212 0 0 1 25.212-25.212 25.212 25.212 0 0 1 25.212 25.212z" fill="#cefd41"/>
    <path id="path30" d="m514.33 120.22v25.212h96.338c13.854 0 25.212-11.359 25.212-25.212 0-13.854-11.359-25.212-25.212-25.212h-121.55c13.854 0 25.212 11.359 25.212 25.212z" fill="#39fec6"/>
    <path id="path32" d="m601.12 240.98c13.854 0 25.212-11.359 25.212-25.212 0-13.854-11.359-25.212-25.212-25.212h-86.784v50.425z" fill="#6bfd5f"/>
    <path id="path34" d="m489.12 336.52h121.55c13.854 0 25.212-11.359 25.212-25.212 0-13.854-11.359-25.212-25.212-25.212h-96.338v25.212c0 13.854-11.359 25.212-25.212 25.212z" fill="#dcfd49"/>
    <path id="path36" d="m463.91 215.77v95.542c0-13.854 11.359-25.212 25.212-25.212h25.212v-45.117h-25.212c-13.854 0-25.212-11.359-25.212-25.212z" fill="#39fec6"/>
    <path id="path38" d="m489.12 145.44c-13.854 0-25.212-11.359-25.212-25.212v95.542c0-13.854 11.359-25.212 25.212-25.212h25.212v-45.117z" fill="#39fec6"/>
    <path id="path40" d="m489.12 145.44h25.212v-25.212c0-13.854-11.359-25.212-25.212-25.212-13.854 0-25.212 11.359-25.212 25.212 0 13.854 11.359 25.212 25.212 25.212z" fill="#3afee0"/>
    <path id="path42" d="m463.91 215.77c0 13.854 11.359 25.212 25.212 25.212h25.212v-50.425h-25.212c-13.854 0-25.212 11.359-25.212 25.212z" fill="#38fd76"/>
    <path id="path44" d="m463.91 311.31c0 13.854 11.359 25.212 25.212 25.212 13.854 0 25.212-11.359 25.212-25.212v-25.212h-25.212c-13.854 0-25.212 11.359-25.212 25.212z" fill="#bafd4f"/>
    <path id="path46" d="m214.97 244.96c-1.38 3.0786-2.1232 6.4756-2.1232 10.085v190.02c0 13.854 11.359 25.212 25.212 25.212 13.854 0 25.212-11.359 25.212-25.212v-116.61l-45.117-57.962c-5.8387-7.4841-6.741-17.304-3.1847-25.531z" fill="#39fec6"/>
    <path id="path48" d="m443.95 270.33-45.329 58.227v116.51c0 13.854 11.359 25.212 25.212 25.212 13.854 0 25.212-11.359 25.212-25.212v-187.1c-0.53079 4.3525-2.2293 8.6518-5.0956 12.367z" fill="#dcfd49"/>
   </g>
   <path id="path52" transform="scale(.75)" d="m317.12 306.5c-1.1998 0.01-2.4043 0.085-3.6074 0.22656h-0.14063c-0.42464 0.0708-0.91912 0.14212-1.3438 0.21289-0.21232 0.0708-0.49666 0.0699-0.70898 0.14062-0.28308 0.0708-0.49427 0.0718-0.77734 0.14258-10.262 2.1939-18.826 9.0575-23.355 18.258-0.14155 0.21232-0.21197 0.42589-0.35352 0.70898-0.0708 0.21231-0.14166 0.35213-0.2832 0.56445-4.7417 10.899-3.5388 24.064 4.2461 34.043l60.227 77.141 63.979 81.953c-9.3419-11.89-9.7675-29.088-0.14258-41.473l26.469-33.971-97.381-125.05c-3.693-4.7481-8.4987-8.2488-13.717-10.367 0.0996 0.0438 0.17571 0.086 0.26757 0.12891-0.46974-0.20012-0.93396-0.41114-1.4141-0.58985-0.21232-0.0708-0.42394-0.14211-0.70703-0.21289-0.21231-0.0708-0.4244-0.14016-0.63672-0.21094-3.4501-1.1146-7.0197-1.6724-10.619-1.6426zm11.963 2.0664c0.38604 0.13994 0.76467 0.30593 1.1465 0.46094-0.33826-0.14871-0.71476-0.30113-1.1465-0.46094z" fill="#6bfd5f" stroke-width=".70772"/>
   <path id="path54" d="m403.35 240.45-72.346 92.888 19.958 25.637c6.6879 8.5988 6.9002 20.223 1.38 28.981l46.285-59.395v-73.514c0-5.4671 1.7517-10.456 4.7241-14.596z" fill="#dcfd49" stroke-width=".53079"/>
   <path id="path56" d="m449.05 257.96v-2.9193c0-13.854-11.359-25.212-25.212-25.212-7.2187 0-13.747 3.0786-18.365 7.9618-0.47771 0.47771-0.90234 1.0085-1.327 1.5924l-0.79612 1.0618c-2.9724 4.1401-4.7241 9.1824-4.7241 14.65v73.461l45.329-58.227c2.8662-3.7155 4.5648-8.0149 5.0956-12.367z" fill="#f2fd3f" stroke-width=".53079"/>
   <path id="path58" d="m350.96 359.02-19.958-25.69-19.851 25.478c-8.4926 10.934-6.5287 26.858 4.4055 35.404 10.934 8.4926 26.858 6.5287 35.404-4.4055l1.4331-1.8047c5.4671-8.758 5.2548-20.382-1.4331-28.981z" fill="#cefd41" stroke-width=".53079"/>
   <path id="path60" transform="scale(.75)" d="m756.1 467.64c-1.0313-2e-3 -2.0612 6e-3 -3.0918 0.0234v0.0703h-100.5l-0.0273 0.0781c18.322 0.17901 33.289 15.248 33.289 33.609v33.617h67.234c19.604-0.56618 39.489 4.8121 56.828 16.914 42.534 29.866 52.867 88.535 23.072 131.07-4.6002 6.5818-9.9072 12.385-15.781 17.41l43.1 51.664c10.262-8.7046 19.604-18.826 27.672-30.432 51.168-72.966 33.473-173.6-39.492-224.77-28.11-19.745-60.336-29.195-92.307-29.252zm-131.73 15.016c-0.56539 0.8231-1.0948 1.6716-1.5859 2.5449 0.49118-0.87336 1.0205-1.7218 1.5859-2.5449zm-4.0566 8.0547c-0.32883 0.96055-0.61478 1.942-0.85547 2.9394 0.24069-0.99748 0.52664-1.9789 0.85547-2.9394z" fill="#dcfd49" stroke-width=".70772"/>
   <path id="path62" d="m463.91 567.15c0 13.854 11.359 25.212 25.212 25.212 13.854 0 25.212-11.359 25.212-25.212v-25.212h-25.212c-13.854 0-25.212 11.359-25.212 25.212z" fill="#38fd76" stroke-width=".53079"/>
   <path id="path64" d="m489.12 401.28c-13.854 0-25.212-11.359-25.212-25.212v191.08c0-13.854 11.359-25.212 25.212-25.212h25.212v-140.66z" fill="#39fec6" stroke-width=".53079"/>
   <path id="path66" d="m568.47 542.36-54.14-0.42463v25.212c0 12.527-9.2357 22.983-21.232 24.894l-4.2463 0.31847 75.903 0.42463c28.981 0.47771 57.697-9.448 80.361-28.716l-32.325-38.747c-12.527 10.828-28.291 16.667-44.321 17.038z" fill="#6bfd5f" stroke-width=".53079"/>
   <path id="path68" transform="scale(.75)" d="m1051.3 627.04c-15.924 0-29.3 11.182-32.768 26.115-0.5662 2.4062-0.8476 4.9542-0.8476 7.502v10.332l7.2187 9.2012c9.625 12.314 26.255 16.064 39.984 10.049 5.0248-2.1232 9.5552-5.5194 13.094-10.049l6.9356-8.8477v-10.615c0-18.542-15.146-33.688-33.617-33.688z" fill="#7efd41" stroke-width=".70772"/>
   <path id="path70" transform="scale(.75)" d="m1175 469.54c-10.25-0.22664-20.483 4.1875-27.248 12.844l-96.293 122.68 26.371 33.582c2.3622 3.0184 4.1076 6.3271 5.2813 9.7754 1.3861 4.0113 1.9858 8.2127 1.7949 12.375v10.545l115.71-147.49c11.394-14.579 8.8481-35.811-5.6601-47.205-5.9227-4.6289-12.944-6.9562-19.957-7.1113z" fill="#6bfd5f" stroke-width=".70772"/>
   <g id="g84" stroke-width=".53079">
    <path id="path72" d="m763.91 489.86c0.7431-3.8747 2.3355-7.5903 4.9363-10.881l19.745-25.159-72.187-92.039c-8.5457-10.934-24.469-12.845-35.404-4.2463-10.934 8.5457-12.845 24.469-4.2463 35.404l86.518 110.3v-7.7495c0-1.9639 0.21231-3.8217 0.63694-5.6264z" fill="#39fec6"/>
    <path id="path74" d="m798.68 517.68c-10.297 4.5117-22.771 1.6985-29.99-7.5372l-5.414-6.9002v62.314c0 13.854 11.359 25.212 25.212 25.212 13.854 0 25.212-11.359 25.212-25.212v-62.049l-5.2017 6.6348c-2.6539 3.397-6.051 5.9448-9.8196 7.5372z" fill="#dcfd49"/>
    <path id="path76" d="m763.91 489.86c2.6009-11.2 12.633-19.586 24.575-19.586 13.854 0 25.212 11.359 25.212 25.212v0.0531c0.21232-5.7856-1.4862-11.677-5.3079-16.561l-19.798-25.212-19.745 25.159c-2.6009 3.344-4.1932 7.0595-4.9363 10.934z" fill="#38fd76"/>
    <circle id="circle78" cx="628.72" cy="544.85" r="25.212" fill="#91fd3e"/>
    <path id="path80" d="m246.82 231.42c-0.15924-0.0531-0.31847-0.10616-0.53079-0.15924-0.15923-0.0531-0.31847-0.10616-0.47771-0.15924-3.4501-1.1146-7.0595-1.4862-10.669-1.0616h-0.10615c-0.31848 0.0531-0.69003 0.10616-1.0085 0.15924-0.15924 0.0531-0.37155 0.0531-0.53079 0.10615-0.21231 0.0531-0.37155 0.0531-0.58386 0.10616-7.6964 1.6454-14.119 6.7941-17.516 13.694-0.10616 0.15924-0.15924 0.31847-0.2654 0.53079-0.0531 0.15923-0.10615 0.26539-0.21231 0.42463-3.5563 8.1741-2.6539 18.047 3.1847 25.531l45.117 57.962-2.1e-4 -73.514c0.0531-10.775-6.8472-20.064-16.401-23.62z" fill="#38fd76"/>
    <path id="path82" d="m489.12 350.85c-1.0087 0-1.9684 0.18327-2.9473 0.3003-12.464 1.4901-22.264 12.068-22.264 24.913 0 13.854 11.358 25.211 25.211 25.211h25.213v-25.211c0-13.854-11.359-25.213-25.213-25.213z" fill="#bafd4f"/>
   </g>
  </g>
  <g id="g166" transform="matrix(.35278 0 0 .35278 -190.76 44.27)">
   <g id="g130" stroke-width=".53079">
    <path id="path88" d="m121.02 50.425c17.622 0 33.705 6.4756 46.125 17.144l32.909-38.164c-21.232-18.312-48.832-29.406-79.034-29.406-24.682 0-47.665 7.3779-66.773 20.117l27.813 42.038c11.147-7.431 24.575-11.73 38.96-11.73z" fill="#dcfd49"/>
    <path id="path90" d="m121.02 191.61c-39.013 0-70.595-31.582-70.595-70.595 0-24.575 12.58-46.232 31.635-58.864l-27.813-42.038c-32.697 21.656-54.246 58.758-54.246 100.9 0 66.826 54.193 121.02 121.02 121.02 32.113 0 61.306-12.527 82.962-32.909l-34.554-36.73c-12.633 11.943-29.671 19.215-48.408 19.215z" fill="#6bfd5f"/>
    <path id="path92" d="m95.542 39.544a25.212 25.212 0 0 1-25.212 25.212 25.212 25.212 0 0 1-25.212-25.212 25.212 25.212 0 0 1 25.212-25.212 25.212 25.212 0 0 1 25.212 25.212z" fill="#cefd41"/>
    <path id="path94" d="m210.19 49.629a25.212 25.212 0 0 1-25.212 25.212 25.212 25.212 0 0 1-25.212-25.212 25.212 25.212 0 0 1 25.212-25.212 25.212 25.212 0 0 1 25.212 25.212z" fill="#dcfd49"/>
    <path id="path96" d="m212.85 189.76a25.212 25.212 0 0 1-25.212 25.212 25.212 25.212 0 0 1-25.212-25.212 25.212 25.212 0 0 1 25.212-25.212 25.212 25.212 0 0 1 25.212 25.212z" fill="#6bfd5f"/>
    <path id="path98" d="m452.23 121.02c0-66.826-54.193-121.02-121.02-121.02-26.858 0-51.699 8.758-71.762 23.567l29.883 40.605c11.73-8.6518 26.221-13.747 41.879-13.747 39.013 0 70.595 31.582 70.595 70.595 0 22.452-10.51 42.463-26.858 55.414l31.263 39.544c28.026-22.134 46.019-56.476 46.019-94.958z" fill="#dcfd49"/>
    <path id="path100" d="m331.21 191.61c-39.013 0-70.595-31.582-70.595-70.595h-50.425c0 66.826 54.193 121.02 121.02 121.02 28.344 0 54.406-9.7665 75-26.062l-31.263-39.544c-11.996 9.5011-27.229 15.181-43.737 15.181z" fill="#6bfd5f"/>
    <path id="path102" d="m289.33 64.172-29.883-40.605c-29.883 22.028-49.257 57.484-49.257 97.453h50.425c0-23.302 11.306-44.002 28.716-56.847z" fill="#39fec6"/>
    <circle id="circle104" cx="235.37" cy="120.22" r="25.212" fill="#39fdad"/>
    <circle id="circle106" cx="273.77" cy="44.287" r="25.212" fill="#bafd4f"/>
    <path id="path108" d="m416.67 195.5a25.212 25.212 0 0 1-25.212 25.212 25.212 25.212 0 0 1-25.212-25.212 25.212 25.212 0 0 1 25.212-25.212 25.212 25.212 0 0 1 25.212 25.212z" fill="#cefd41"/>
    <path id="path110" d="m514.33 120.22v25.212h96.338c13.854 0 25.212-11.359 25.212-25.212 0-13.854-11.359-25.212-25.212-25.212h-121.55c13.854 0 25.212 11.359 25.212 25.212z" fill="#39fec6"/>
    <path id="path112" d="m601.12 240.98c13.854 0 25.212-11.359 25.212-25.212 0-13.854-11.359-25.212-25.212-25.212h-86.784v50.425z" fill="#6bfd5f"/>
    <path id="path114" d="m489.12 336.52h121.55c13.854 0 25.212-11.359 25.212-25.212 0-13.854-11.359-25.212-25.212-25.212h-96.338v25.212c0 13.854-11.359 25.212-25.212 25.212z" fill="#dcfd49"/>
    <path id="path116" d="m463.91 215.77v95.542c0-13.854 11.359-25.212 25.212-25.212h25.212v-45.117h-25.212c-13.854 0-25.212-11.359-25.212-25.212z" fill="#39fec6"/>
    <path id="path118" d="m489.12 145.44c-13.854 0-25.212-11.359-25.212-25.212v95.542c0-13.854 11.359-25.212 25.212-25.212h25.212v-45.117z" fill="#39fec6"/>
    <path id="path120" d="m489.12 145.44h25.212v-25.212c0-13.854-11.359-25.212-25.212-25.212-13.854 0-25.212 11.359-25.212 25.212 0 13.854 11.359 25.212 25.212 25.212z" fill="#3afee0"/>
    <path id="path122" d="m463.91 215.77c0 13.854 11.359 25.212 25.212 25.212h25.212v-50.425h-25.212c-13.854 0-25.212 11.359-25.212 25.212z" fill="#38fd76"/>
    <path id="path124" d="m463.91 311.31c0 13.854 11.359 25.212 25.212 25.212 13.854 0 25.212-11.359 25.212-25.212v-25.212h-25.212c-13.854 0-25.212 11.359-25.212 25.212z" fill="#bafd4f"/>
    <path id="path126" d="m214.97 244.96c-1.38 3.0786-2.1232 6.4756-2.1232 10.085v190.02c0 13.854 11.359 25.212 25.212 25.212 13.854 0 25.212-11.359 25.212-25.212v-116.61l-45.117-57.962c-5.8387-7.4841-6.741-17.304-3.1847-25.531z" fill="#39fec6"/>
    <path id="path128" d="m443.95 270.33-45.329 58.227v116.51c0 13.854 11.359 25.212 25.212 25.212 13.854 0 25.212-11.359 25.212-25.212v-187.1c-0.53079 4.3525-2.2293 8.6518-5.0956 12.367z" fill="#dcfd49"/>
   </g>
   <path id="path132" transform="scale(.75)" d="m317.12 306.5c-1.1998 0.01-2.4043 0.085-3.6074 0.22656h-0.14063c-0.42464 0.0708-0.91912 0.14212-1.3438 0.21289-0.21232 0.0708-0.49666 0.0699-0.70898 0.14062-0.28308 0.0708-0.49427 0.0718-0.77734 0.14258-10.262 2.1939-18.826 9.0575-23.355 18.258-0.14155 0.21232-0.21197 0.42589-0.35352 0.70898-0.0708 0.21231-0.14166 0.35213-0.2832 0.56445-4.7417 10.899-3.5388 24.064 4.2461 34.043l60.227 77.141 63.979 81.953c-9.3419-11.89-9.7675-29.088-0.14258-41.473l26.469-33.971-97.381-125.05c-3.693-4.7481-8.4987-8.2488-13.717-10.367 0.0996 0.0438 0.17571 0.086 0.26757 0.12891-0.46974-0.20012-0.93396-0.41114-1.4141-0.58985-0.21232-0.0708-0.42394-0.14211-0.70703-0.21289-0.21231-0.0708-0.4244-0.14016-0.63672-0.21094-3.4501-1.1146-7.0197-1.6724-10.619-1.6426zm11.963 2.0664c0.38604 0.13994 0.76467 0.30593 1.1465 0.46094-0.33826-0.14871-0.71476-0.30113-1.1465-0.46094z" fill="#6bfd5f" stroke-width=".70772"/>
   <path id="path134" d="m403.35 240.45-72.346 92.888 19.958 25.637c6.6879 8.5988 6.9002 20.223 1.38 28.981l46.285-59.395v-73.514c0-5.4671 1.7517-10.456 4.7241-14.596z" fill="#dcfd49" stroke-width=".53079"/>
   <path id="path136" d="m449.05 257.96v-2.9193c0-13.854-11.359-25.212-25.212-25.212-7.2187 0-13.747 3.0786-18.365 7.9618-0.47771 0.47771-0.90234 1.0085-1.327 1.5924l-0.79612 1.0618c-2.9724 4.1401-4.7241 9.1824-4.7241 14.65v73.461l45.329-58.227c2.8662-3.7155 4.5648-8.0149 5.0956-12.367z" fill="#f2fd3f" stroke-width=".53079"/>
   <path id="path138" d="m350.96 359.02-19.958-25.69-19.851 25.478c-8.4926 10.934-6.5287 26.858 4.4055 35.404 10.934 8.4926 26.858 6.5287 35.404-4.4055l1.4331-1.8047c5.4671-8.758 5.2548-20.382-1.4331-28.981z" fill="#cefd41" stroke-width=".53079"/>
   <path id="path140" transform="scale(.75)" d="m756.1 467.64c-1.0313-2e-3 -2.0612 6e-3 -3.0918 0.0234v0.0703h-100.5l-0.0273 0.0781c18.322 0.17901 33.289 15.248 33.289 33.609v33.617h67.234c19.604-0.56618 39.489 4.8121 56.828 16.914 42.534 29.866 52.867 88.535 23.072 131.07-4.6002 6.5818-9.9072 12.385-15.781 17.41l43.1 51.664c10.262-8.7046 19.604-18.826 27.672-30.432 51.168-72.966 33.473-173.6-39.492-224.77-28.11-19.745-60.336-29.195-92.307-29.252zm-131.73 15.016c-0.56539 0.8231-1.0948 1.6716-1.5859 2.5449 0.49118-0.87336 1.0205-1.7218 1.5859-2.5449zm-4.0566 8.0547c-0.32883 0.96055-0.61478 1.942-0.85547 2.9394 0.24069-0.99748 0.52664-1.9789 0.85547-2.9394z" fill="#dcfd49" stroke-width=".70772"/>
   <path id="path142" d="m463.91 567.15c0 13.854 11.359 25.212 25.212 25.212 13.854 0 25.212-11.359 25.212-25.212v-25.212h-25.212c-13.854 0-25.212 11.359-25.212 25.212z" fill="#38fd76" stroke-width=".53079"/>
   <path id="path144" d="m489.12 401.28c-13.854 0-25.212-11.359-25.212-25.212v191.08c0-13.854 11.359-25.212 25.212-25.212h25.212v-140.66z" fill="#39fec6" stroke-width=".53079"/>
   <path id="path146" d="m568.47 542.36-54.14-0.42463v25.212c0 12.527-9.2357 22.983-21.232 24.894l-4.2463 0.31847 75.903 0.42463c28.981 0.47771 57.697-9.448 80.361-28.716l-32.325-38.747c-12.527 10.828-28.291 16.667-44.321 17.038z" fill="#6bfd5f" stroke-width=".53079"/>
   <path id="path148" transform="scale(.75)" d="m1051.3 627.04c-15.924 0-29.3 11.182-32.768 26.115-0.5662 2.4062-0.8476 4.9542-0.8476 7.502v10.332l7.2187 9.2012c9.625 12.314 26.255 16.064 39.984 10.049 5.0248-2.1232 9.5552-5.5194 13.094-10.049l6.9356-8.8477v-10.615c0-18.542-15.146-33.688-33.617-33.688z" fill="#7efd41" stroke-width=".70772"/>
   <path id="path150" transform="scale(.75)" d="m1175 469.54c-10.25-0.22664-20.483 4.1875-27.248 12.844l-96.293 122.68 26.371 33.582c2.3622 3.0184 4.1076 6.3271 5.2813 9.7754 1.3861 4.0113 1.9858 8.2127 1.7949 12.375v10.545l115.71-147.49c11.394-14.579 8.8481-35.811-5.6601-47.205-5.9227-4.6289-12.944-6.9562-19.957-7.1113z" fill="#6bfd5f" stroke-width=".70772"/>
   <g id="g164" stroke-width=".53079">
    <path id="path152" d="m763.91 489.86c0.7431-3.8747 2.3355-7.5903 4.9363-10.881l19.745-25.159-72.187-92.039c-8.5457-10.934-24.469-12.845-35.404-4.2463-10.934 8.5457-12.845 24.469-4.2463 35.404l86.518 110.3v-7.7495c0-1.9639 0.21231-3.8217 0.63694-5.6264z" fill="#39fec6"/>
    <path id="path154" d="m798.68 517.68c-10.297 4.5117-22.771 1.6985-29.99-7.5372l-5.414-6.9002v62.314c0 13.854 11.359 25.212 25.212 25.212 13.854 0 25.212-11.359 25.212-25.212v-62.049l-5.2017 6.6348c-2.6539 3.397-6.051 5.9448-9.8196 7.5372z" fill="#dcfd49"/>
    <path id="path156" d="m763.91 489.86c2.6009-11.2 12.633-19.586 24.575-19.586 13.854 0 25.212 11.359 25.212 25.212v0.0531c0.21232-5.7856-1.4862-11.677-5.3079-16.561l-19.798-25.212-19.745 25.159c-2.6009 3.344-4.1932 7.0595-4.9363 10.934z" fill="#38fd76"/>
    <circle id="circle158" cx="628.72" cy="544.85" r="25.212" fill="#91fd3e"/>
    <path id="path160" d="m246.82 231.42c-0.15924-0.0531-0.31847-0.10616-0.53079-0.15924-0.15923-0.0531-0.31847-0.10616-0.47771-0.15924-3.4501-1.1146-7.0595-1.4862-10.669-1.0616h-0.10615c-0.31848 0.0531-0.69003 0.10616-1.0085 0.15924-0.15924 0.0531-0.37155 0.0531-0.53079 0.10615-0.21231 0.0531-0.37155 0.0531-0.58386 0.10616-7.6964 1.6454-14.119 6.7941-17.516 13.694-0.10616 0.15924-0.15924 0.31847-0.2654 0.53079-0.0531 0.15923-0.10615 0.26539-0.21231 0.42463-3.5563 8.1741-2.6539 18.047 3.1847 25.531l45.117 57.962-2.1e-4 -73.514c0.0531-10.775-6.8472-20.064-16.401-23.62z" fill="#38fd76"/>
    <path id="path162" d="m489.12 350.85c-1.0087 0-1.9684 0.18327-2.9473 0.3003-12.464 1.4901-22.264 12.068-22.264 24.913 0 13.854 11.358 25.211 25.211 25.211h25.213v-25.211c0-13.854-11.359-25.213-25.213-25.213z" fill="#bafd4f"/>
   </g>
  </g>
 </g>
</svg>
