<svg height="112.57734" viewBox="0 0 110.46996 112.57734" width="110.46996" xmlns="http://www.w3.org/2000/svg" xmlns:xlink="http://www.w3.org/1999/xlink"><clipPath id="a"><path d="m22.677 237.559h35.06v42.787h-35.06z"/></clipPath><path d="m110.27 92.725641-3.50541-16.087077-23.377484 4.675669-.604382-2.847066 21.201706-4.212731-3.23948-14.929733-21.201712 4.235877-.604381-2.823919 22.337943-4.444199-1.32964-16.503721-15.206239 3.055387h-.07253c1.523043-3.587765 2.393353-7.522734 2.393353-11.642877 0-17.105539-14.529337-30.99366362-32.370686-30.99366362-14.601864 0-26.979602 9.30504372-30.992698 22.03582462-.894484 2.847065-1.37799 5.833012-1.37799 8.957839 0 12.267843 7.494334 22.915405 18.324855 27.91513v.02315l-6.406443 13.749239-18.445732-16.341692-15.59305 3.124827 11.459081 52.705435 18.49408-3.68036-4.061445-18.656376 14.674388 12.823376 8.122891-17.360164 4.061445 18.656384 18.494083-3.7035z" fill="#e6f401" fill-rule="evenodd"/><path d="m54.556547 1.1560432c-14.037024 0-25.936117 8.9596138-29.793969 21.2161038-.859889 2.741005-1.324509 5.615559-1.324509 8.623967 0 11.810808 7.205528 22.060778 17.617093 26.874234 19.403174 7.591383 36.235525-2.612466 42.318809-15.664775 1.464139-3.4541 2.301059-7.242808 2.301059-11.209459 0-16.468259-13.96728-29.8400708-31.118483-29.8400708z" fill="#3c3d41"/><path d="m110.46996 92.854236-3.51815-16.145533-23.462429 4.692659-.606578-2.857411 21.278747-4.228039-3.25125-14.983983-21.278754 4.251269-.606578-2.83418 22.419112-4.460348-1.33447-16.56369-15.261495 3.066489h-.07279c1.528577-3.600802 2.402049-7.550069 2.402049-11.685184 0-17.167696-14.582132-31.106285-32.488311-31.106285-14.654922 0-27.077637 9.3388549-31.105315 22.115895-.897735 2.857411-1.382997 5.854208-1.382997 8.99039 0 12.312421 7.521566 22.998673 18.391441 28.016565v.02323l-6.429725 13.799204-18.512757-16.401073-15.64971 3.136182 11.500717 52.896947 18.561283-3.69373-4.076203-18.724168 14.727711 12.869968 8.152407-17.423241 4.076203 18.724171 18.561284-3.71696zm-85.454688-61.817644c0-15.657682 13.271924-28.365029 29.601001-28.365029 16.35334 0 29.625265 12.707347 29.625265 28.365029s-13.271925 28.341799-29.625265 28.341799c-16.329077 0-29.601001-12.684117-29.601001-28.341799zm30.353158 69.739408-5.410675-24.903612-10.336087 22.115895-18.682599-16.331381 5.410675 24.880378-12.398452 2.48572-10.23866-46.996278 10.990816-2.206943 20.575122 18.189859 8.152407-17.725239c3.493889 1.231242 7.278935 1.90494 11.20956 1.90494 1.722681 0 3.421099-.139799 5.095254-.395339l.09705-.014 7.934039 36.510286zm7.545829-39.608824c8.613406-2.183712 15.843814-7.689455 20.08986-14.983983l.09705-.02323 14.09687-2.787718.849209 10.477173-22.807328 4.553272 1.892523 8.73485 21.303015-4.228039 1.965312 9.083314-21.278752 4.228039 1.892523 8.734849 23.486699-4.692659 2.2322 10.221633-35.860881 7.178373z" fill="#3c3d41" fill-rule="evenodd"/><g fill="#e6f401" transform="matrix(1.6055796 0 0 -1.5395737 -10.024898177728 417.500320646597)"><g clip-path="url(#a)"><g transform="translate(53.7377 261.6567)"><path d="m0 0c-.82.544-1.845.837-2.863.774-.505-.03-1.008-.147-1.482-.367-1.275-.613-2.352-1.89-2.705-3.422l2.349-6.637 1.814 5.096.076.211v-12.559l-4.953 13.787c-.813 1.991-2.041 2.807-2.503 3.117-.81.479-1.816.747-2.839.783-.026.001-.052-.001-.078 0-.127.003-.254.004-.381 0-.564-.019-1.125-.109-1.653-.275-1.375-.508-2.55-1.072-3.778-3.269l2.497-6.535 1.486 3.933c.255.742.843 1.085 1.437 1.057.592-.027 1.19-.423 1.47-1.161l4.699-12.509s.82-1.988 1.225-2.398c.971-1.124 2.349-1.582 3.471-1.53.665 0 .922.049 1.53.253 1.279.563 2.706 1.787 2.861 4.037v13.627c-.047 1.942-.409 3.066-1.68 3.987" fill="#e6f401"/></g><g transform="translate(41.784 245.8758)"><path d="m0 0c-.293-.776-.924-1.112-1.547-1.047-.563.06-1.12.448-1.412 1.151l-4.698 12.456s-.813 1.995-1.225 2.4c-.92 1.175-2.349 1.583-3.472 1.583-.66 0-.919-.051-1.477-.254-1.28-.562-2.759-1.789-2.91-4.084v-13.582c.048-1.99.404-3.063 1.683-4.031.903-.543 1.982-.828 3.043-.714.44.046.876.16 1.296.354 1.274.614 2.399 1.89 2.704 3.372l-2.344 6.638-1.718-4.972-.118-.341v12.611l4.899-13.834c.815-1.993 2.038-2.76 2.498-3.063.937-.59 2.13-.842 3.31-.789.561.025 1.119.112 1.645.276 1.378.513 2.55 1.021 3.775 3.22l-2.5 6.585z" fill="#e6f401"/></g><g transform="translate(38.8248 245.978)"><path d="m0 0-4.698 12.457s-.813 1.994-1.225 2.399c-.919 1.175-2.349 1.583-3.472 1.583-.66 0-.919-.051-1.477-.253-1.279-.563-2.759-1.789-2.909-4.085v-13.581c.047-1.991.403-3.064 1.682-4.032.903-.543 1.983-.828 3.044-.714l-.063 5.392-.118-.341v12.611l4.9-13.834c.814-1.993 2.037-2.76 2.497-3.063.937-.59 2.13-.842 3.311-.789l-.06 5.099c-.563.06-1.12.448-1.412 1.151" fill="#e6f401"/></g><g transform="translate(53.7377 261.6549)"><path d="m0 0c-.82.544-1.845.837-2.863.775l-.024-5.331.076.212v-12.559l-4.953 13.786c-.813 1.991-2.041 2.807-2.503 3.117-.81.479-1.816.747-2.839.783-.026.001-.052 0-.078 0l-.392-5.088c.592-.028 1.19-.424 1.47-1.162l4.699-12.509s.82-1.988 1.225-2.398c.971-1.124 2.349-1.582 3.471-1.53.665 0 .922.049 1.53.254 1.279.562 2.706 1.786 2.861 4.036v13.627c-.047 1.941-.409 3.066-1.68 3.987" fill="#e6f401"/></g></g><path d="m40.173 262.438c-.564-.019-1.126-.109-1.653-.274-1.375-.509-2.55-1.072-3.778-3.271l2.496-6.534 1.486 3.933c.256.742.844 1.086 1.438 1.058l.391 5.088c-.07.002-.141.003-.212.003-.056 0-.112-.001-.168-.003"/><path d="m49.392 262.062c-1.274-.613-2.351-1.89-2.704-3.422l2.349-6.637 1.814 5.095.024 5.331c-.505-.03-1.008-.147-1.483-.367"/><path d="m41.784 245.874c-.293-.775-.924-1.112-1.547-1.047l.06-5.098h.018c.555.026 1.106.113 1.627.276 1.377.512 2.55 1.02 3.774 3.219l-2.5 6.585z"/><path d="m29.707 245.144.062-5.392c.439.046.876.16 1.295.354 1.276.613 2.4 1.891 2.705 3.372l-2.345 6.639z"/></g></svg>