<svg id="b" width="282.22mm" height="295.89mm" version="1.1" viewBox="0 0 1e3 1048.4" xmlns="http://www.w3.org/2000/svg">
 <defs id="c">
  <clipPath id="a">
   <path id="d" d="m22.677 237.56h35.06v42.787h-35.06v-42.787z"/>
  </clipPath>
 </defs>
 <g id="e" transform="translate(350.61 -140.52)">
  <path id="f" d="m411.45 415.61a274.47 275.09 0 0 1-264.56 274.91 274.47 275.09 0 0 1-283.67-255.06 274.47 275.09 0 0 1 244.08-293.33 274.47 275.09 0 0 1 301.29 233.88" fill="#e6f401"/>
  <g id="g" transform="matrix(14.134 0 0 -14.315 -450.31 4019.7)" fill="#3c3d41">
   <g id="h" transform="translate(1.2498 .74986)">
    <g id="i" clip-path="url(#a)" fill="#3c3d41">
     <g id="j" transform="translate(53.738 261.66)">
      <path id="k" d="m0 0c-0.82 0.544-1.845 0.837-2.863 0.774-0.505-0.03-1.008-0.147-1.482-0.367-1.275-0.613-2.352-1.89-2.705-3.422l2.349-6.637 1.814 5.096 0.076 0.211v-12.559l-4.953 13.787c-0.813 1.991-2.041 2.807-2.503 3.117-0.81 0.479-1.816 0.747-2.839 0.783-0.026 1e-3 -0.052-1e-3 -0.078 0-0.127 3e-3 -0.254 4e-3 -0.381 0-0.564-0.019-1.125-0.109-1.653-0.275-1.375-0.508-2.55-1.072-3.778-3.269l2.497-6.535 1.486 3.933c0.255 0.742 0.843 1.085 1.437 1.057 0.592-0.027 1.19-0.423 1.47-1.161l4.699-12.509s0.82-1.988 1.225-2.398c0.971-1.124 2.349-1.582 3.471-1.53 0.665 0 0.922 0.049 1.53 0.253 1.279 0.563 2.706 1.787 2.861 4.037v13.627c-0.047 1.942-0.409 3.066-1.68 3.987" fill="#3c3d41"/>
     </g>
     <g id="l" transform="translate(41.784 245.88)">
      <path id="m" d="m0 0c-0.293-0.776-0.924-1.112-1.547-1.047-0.563 0.06-1.12 0.448-1.412 1.151l-4.698 12.456s-0.813 1.995-1.225 2.4c-0.92 1.175-2.349 1.583-3.472 1.583-0.66 0-0.919-0.051-1.477-0.254-1.28-0.562-2.759-1.789-2.91-4.084v-13.582c0.048-1.99 0.404-3.063 1.683-4.031 0.903-0.543 1.982-0.828 3.043-0.714 0.44 0.046 0.876 0.16 1.296 0.354 1.274 0.614 2.399 1.89 2.704 3.372l-2.344 6.638-1.718-4.972-0.118-0.341v12.611l4.899-13.834c0.815-1.993 2.038-2.76 2.498-3.063 0.937-0.59 2.13-0.842 3.31-0.789 0.561 0.025 1.119 0.112 1.645 0.276 1.378 0.513 2.55 1.021 3.775 3.22l-2.5 6.585-1.432-3.935z" fill="#3c3d41"/>
     </g>
     <g id="n" transform="translate(38.825 245.98)">
      <path id="o" d="m0 0-4.698 12.457s-0.813 1.994-1.225 2.399c-0.919 1.175-2.349 1.583-3.472 1.583-0.66 0-0.919-0.051-1.477-0.253-1.279-0.563-2.759-1.789-2.909-4.085v-13.581c0.047-1.991 0.403-3.064 1.682-4.032 0.903-0.543 1.983-0.828 3.044-0.714l-0.063 5.392-0.118-0.341v12.611l4.9-13.834c0.814-1.993 2.037-2.76 2.497-3.063 0.937-0.59 2.13-0.842 3.311-0.789l-0.06 5.099c-0.563 0.06-1.12 0.448-1.412 1.151" fill="#3c3d41"/>
     </g>
     <g id="p" transform="translate(53.738 261.65)">
      <path id="q" d="m0 0c-0.82 0.544-1.845 0.837-2.863 0.775l-0.024-5.331 0.076 0.212v-12.559l-4.953 13.786c-0.813 1.991-2.041 2.807-2.503 3.117-0.81 0.479-1.816 0.747-2.839 0.783-0.026 1e-3 -0.052 0-0.078 0l-0.392-5.088c0.592-0.028 1.19-0.424 1.47-1.162l4.699-12.509s0.82-1.988 1.225-2.398c0.971-1.124 2.349-1.582 3.471-1.53 0.665 0 0.922 0.049 1.53 0.254 1.279 0.562 2.706 1.786 2.861 4.036v13.627c-0.047 1.941-0.409 3.066-1.68 3.987" fill="#3c3d41"/>
     </g>
    </g>
   </g>
   <g id="r" transform="translate(1.2498 .74986)">
    <g id="s" fill="#3c3d41">
     <g id="t" fill="#3c3d41">
      <g id="u" fill="#3c3d41">
       <path id="v" d="m40.173 262.44c-0.564-0.019-1.126-0.109-1.653-0.274-1.375-0.509-2.55-1.072-3.778-3.271l2.496-6.534 1.486 3.933c0.256 0.742 0.844 1.086 1.438 1.058l0.391 5.088c-0.07 2e-3 -0.141 3e-3 -0.212 3e-3 -0.056 0-0.112-1e-3 -0.168-3e-3" fill="#3c3d41"/>
      </g>
     </g>
    </g>
   </g>
   <g id="w" transform="translate(1.2498 .74986)">
    <g id="x" fill="#3c3d41">
     <g id="y" fill="#3c3d41">
      <g id="z" fill="#3c3d41">
       <path id="aa" d="m49.392 262.06c-1.274-0.613-2.351-1.89-2.704-3.422l2.349-6.637 1.814 5.095 0.024 5.331c-0.505-0.03-1.008-0.147-1.483-0.367" fill="#3c3d41"/>
      </g>
     </g>
    </g>
   </g>
   <g id="ab" transform="translate(1.2498 .74986)">
    <g id="ac" fill="#3c3d41">
     <g id="ad" fill="#3c3d41">
      <g id="ae" fill="#3c3d41">
       <path id="af" d="m41.784 245.87c-0.293-0.775-0.924-1.112-1.547-1.047l0.06-5.098h0.018c0.555 0.026 1.106 0.113 1.627 0.276 1.377 0.512 2.55 1.02 3.774 3.219l-2.5 6.585-1.432-3.935z" fill="#3c3d41"/>
      </g>
     </g>
    </g>
   </g>
   <g id="ag" transform="translate(1.2498 .74986)">
    <g id="ah" fill="#3c3d41">
     <g id="ai" fill="#3c3d41">
      <g id="aj" fill="#3c3d41">
       <path id="ak" d="m29.707 245.14 0.062-5.392c0.439 0.046 0.876 0.16 1.295 0.354 1.276 0.613 2.4 1.891 2.705 3.372l-2.345 6.639-1.717-4.973z" fill="#3c3d41"/>
      </g>
     </g>
    </g>
   </g>
  </g>
  <path id="al" d="m-350.53 994.87c0.0138 0.0104 0.0159 0.67921 0.0276 0.88122-0.0106-0.0561-0.034-0.17716-0.0435-0.22613-0.0329-0.16967-0.0499-0.27135-0.0616-0.33435 7e-3 0.0343 0.0425-0.34673 0.0775-0.32074z" color="#000000" color-rendering="auto" fill="#ff0" image-rendering="auto" shape-rendering="auto" solid-color="#000000" style="block-progression:tb;isolation:auto;mix-blend-mode:normal;text-decoration-color:#000000;text-decoration-line:none;text-decoration-style:solid;text-indent:0;text-transform:none;white-space:normal"/>
  <path id="am" d="m-53.347 1188.9s-0.0011 0.01-0.0021 0.01c0.0021 0.01 0.0085 0.045 0.0096 0.051 0.0053 0.027 0.0064 0.033-0.0074-0.055z" color="#000000" color-rendering="auto" fill="#ff0" image-rendering="auto" shape-rendering="auto" solid-color="#000000" style="block-progression:tb;isolation:auto;mix-blend-mode:normal;text-decoration-color:#000000;text-decoration-line:none;text-decoration-style:solid;text-indent:0;text-transform:none;white-space:normal"/>
  <path id="an" d="m-255.05 1188.9-95.56-475.15 121.44-24.058 171.21 160.39 67.689-146.35c45.895 16.876 90.915 34.465 175.19 20.048l73.662 356.86-141.35 30.072-41.808-206.5-83.616 182.44-147.32-132.32 41.808 202.49z" fill="#e6f401" fill-rule="evenodd"/>
  <path id="ao" d="m296.3 1074.8-71.55-358.99c60.052-22.567 133.08-53.163 187.26-158.38l139.24-28.068 15.223 125.13-205.4 41.393 10.879 52.126 193.23-38.213 22.724 111.1-193.82 39.975 13.352 56.966 215.01-44.593 26.343 127.26z" fill="#e6f401" fill-rule="evenodd"/>
 </g>
</svg>
