<?xml version="1.0" encoding="UTF-8"?>
<!-- Created with Inkscape (http://www.inkscape.org/) -->
<svg id="svg2" width="1066.7" height="213.37" version="1.1" viewBox="0 0 1e3 200.03" xmlns="http://www.w3.org/2000/svg" xmlns:cc="http://creativecommons.org/ns#" xmlns:dc="http://purl.org/dc/elements/1.1/" xmlns:rdf="http://www.w3.org/1999/02/22-rdf-syntax-ns#">
 <metadata id="metadata7">
  <rdf:RDF>
   <cc:Work rdf:about="">
    <dc:format>image/svg+xml</dc:format>
    <dc:type rdf:resource="http://purl.org/dc/dcmitype/StillImage"/>
    <dc:title/>
   </cc:Work>
  </rdf:RDF>
 </metadata>
 <g id="layer1" transform="translate(-89.47 -176.13)" fill="#fff">
  <path id="path3033" d="m397.35 371.57v-192.64h40.435l77.377 140.11v-140.11h34.39v192.64h-42.047l-75.765-135.68v135.68z"/>
  <path id="path3035" d="m566.64 371.57v-192.64h117.27l-4.1644 28.613h-78.989v49.838h76.302v29.419h-76.302v55.346h83.691v29.419z"/>
  <path id="path3037" d="m695.85 178.93h36.405l35.196 152.74h1.0747l35.733-152.74h33.046l37.076 152.74h1.2091l33.718-152.74h36.673l-49.032 192.64h-40.703l-35.196-134.2-34.927 134.2h-40.972z"/>
  <path id="path3039" d="m944.29 351.6 17.061-26.246c0.62726 0.5468 1.5448 1.2987 2.7539 2.2555 1.209 0.957 3.7613 2.6202 7.6572 4.9894 3.8957 2.3695 7.8585 4.4427 11.889 6.2197 4.03 1.7771 9.0676 3.4174 15.113 4.9211 6.0449 1.5037 11.978 2.2555 17.799 2.2555 11.642 7e-5 20.799-2.4149 27.472-7.2449 6.6718-4.83 10.008-11.437 10.008-19.821-1e-4 -4.1009-1.1643-7.8145-3.4927-11.141-2.3286-3.3262-5.4631-6.1512-9.4034-8.4752-3.9407-2.3237-8.4856-4.4881-13.635-6.493-5.1496-2.0049-10.545-4.0097-16.187-6.0148-5.6421-2.0048-11.284-4.1008-16.926-6.288-5.6421-2.1871-11.038-4.8071-16.187-7.8601-5.1496-3.0527-9.6945-6.4702-13.635-10.252-3.9405-3.7818-7.075-8.4523-9.4034-14.011-2.3286-5.5589-3.4928-11.756-3.4928-18.591 0-17.406 5.9556-30.62 17.867-39.642 11.911-9.0219 27.852-13.533 47.823-13.533 6.8063 1.9e-4 13.792 0.66096 20.956 1.9822 7.1644 1.3215 13.456 2.9163 18.874 4.7843 5.418 1.8684 10.344 3.7137 14.777 5.5362 3.3342 1.3711 6.0731 2.5873 8.2168 3.6488l-13.451 26.93c-0.9283-0.4622-1.9149-0.94943-2.96-1.4621-3.7167-1.8224-10.411-4.2374-20.083-7.2448-9.6722-3.0073-18.225-4.5109-25.658-4.511-21.315 1.2e-4 -31.972 7.2907-31.972 21.872 0 4.0098 1.1642 7.564 3.4928 10.662 2.3284 3.0986 5.4852 5.6958 9.4706 7.7917 3.9852 2.0961 8.5526 4.0555 13.702 5.878 5.1494 1.8227 10.568 3.6454 16.254 5.4679 5.6868 1.8227 11.374 3.7592 17.061 5.8096 5.6867 2.0506 11.105 4.5795 16.254 7.5867 5.1494 3.0075 9.7168 6.402 13.702 10.184 3.9851 3.782 7.142 8.5209 9.4706 14.216 2.3283 5.6958 3.4926 12.098 3.4927 19.206-0.09 9.8422-1.9256 18.659-5.5077 26.451-3.5824 7.7917-8.5528 14.148-14.911 19.069-6.3587 4.921-13.792 8.6802-22.3 11.277s-17.822 3.8958-27.942 3.8958c-8.6871 0-17.195-0.82012-25.524-2.4605-8.3289-1.6403-15.292-3.6452-20.889-6.0146-5.5973-2.3694-10.568-4.7388-14.911-7.1082-4.3435-2.3695-7.5452-4.3742-9.605-6.0146z"/>
  <g id="g3028" transform="matrix(.64946 0 0 .65404 89.97 177.18)">
   <path id="path3018" d="m57.733 0.28c15.151-0.238 33.573 5.428 46 20.761 5.629 5.446 15.973 31.626 15.973 31.626l61.955 164.54c7.968 19.756 31.928 21.236 38.963 1.488l19.245-51.893 32.859 86.48c-15.973 29.158-31.435 36.305-49.765 42.967-21.346 6.68-46.932 4.477-65.245-6.9-6.086-3.947-22.059-14.318-32.86-40.516l-65.242-182.34v166.04l24.417-70.16 31.325 87.586c-4.569 20.113-19.116 36.918-36.021 44.822-18.495 8.717-40.554 5.629-57.276-4.945-16.651-12.354-21.348-26.929-22.061-52.872l0.22-179.6c1.9-29.908 21.017-46.192 37.794-53.484 7.657-2.723 10.929-3.464 19.719-3.601z"/>
   <path id="path3020" d="m343.15 299.71c-15.15 0.266-33.572-5.428-46.019-20.734-5.629-5.445-15.955-31.625-15.955-31.625l-61.953-164.54c-7.986-19.784-31.928-21.264-38.964-1.499l-19.245 51.895-32.86-86.481c15.955-29.131 31.453-36.305 49.765-42.984 21.364-6.68 46.95-4.45 65.245 6.926 6.104 3.948 22.059 14.319 32.859 40.518l65.244 182.31v-166.01l-24.397 70.16-31.344-87.586c4.569-20.14 19.135-36.926 36.04-44.821 18.478-8.699 40.555-5.638 57.258 4.943 16.668 12.327 21.347 26.93 22.06 52.845l-0.237 179.62c-1.864 29.908-20.999 46.201-37.795 53.484-7.603 2.713-10.893 3.443-19.702 3.572z"/>
  </g>
 </g>
</svg>
