<svg width="567.02mm" height="209.13mm" version="1.1" viewBox="0 0 567.02 209.13" xmlns="http://www.w3.org/2000/svg">
 <g transform="translate(300.52 -44.27)">
  <g transform="matrix(.29078 0 0 .29078 17.664 17.687)">
   <g fill="#78be20">
    <path d="m725.33 126.96c-0.09-13.81 7.21-26.89 17.72-35.54 10.22 8.47 17.54 21.07 17.69 34.56 0.5 14.12-7.06 27.54-17.74 36.39-10.37-8.71-17.72-21.65-17.67-35.41z"/>
    <path d="m269.92 123.88c9.73-9.48 23.82-13.08 37.11-12.07 1.36 13.78-2.88 28.48-12.97 38.24-9.74 9.38-23.84 13.2-37.12 11.95-1.22-13.74 2.85-28.4 12.98-38.12z"/>
    <path d="m675.79 121.83c11.54-0.96 23.96 2.67 31.7 11.63 6.84 7.73 9.34 18.48 8.5 28.6-11.96 1.17-24.86-2.99-32.47-12.6-6.28-7.69-8.41-17.9-7.73-27.63z"/>
    <path d="m780.55 131.56c7.68-7.7 19.05-10.55 29.68-9.73 1.19 10.9-2.25 22.5-10.05 30.36-7.84 7.65-19.33 10.97-30.1 9.78-0.85-10.95 2.25-22.73 10.47-30.41z"/>
   </g>
   <path d="m540.33 121.32c9.03-6.56 23.39-1.56 26.24 9.26 3.28 9.98-4.07 21.36-14.54 22.42-3.48 10.15-6.73 20.38-10.1 30.57l-0.96-0.3c-4.24-1.39-8.47-2.79-12.71-4.13 2.99-10.33 6.87-20.4 9.77-30.76-7.76-7.25-6.83-21.37 2.3-27.06z"/>
   <path d="m437.56 123.55c5.58-5.89 15.43-6.86 22.07-2.21 6.91 4.39 9.53 14.04 6.15 21.44-0.9 2.27-2.95 3.87-3.86 6.11 3.11 10.12 6.73 20.09 9.82 30.23-4.27 1.32-8.51 2.76-12.73 4.23-1.54-0.78-1.9-2.67-2.46-4.14-2.81-8.74-5.68-17.45-8.6-26.15-4.42-0.82-8.75-2.82-11.5-6.48-5.52-6.5-4.99-17.08 1.11-23.03z"/>
   <path d="m473.2 195.13c20.4-5.81 42.74-4.82 62.46 3.04 16.59 6.51 31.15 17.86 41.87 32.06-51.69-0.07-103.39 0.05-155.08-0.06 12.53-16.77 30.61-29.3 50.75-35.04z"/>
   <path d="m214.3 254.39c4.02-4.81 12.28-4.96 16.36-0.13 4.93 5.68 5.56 13.73 5.36 20.94-6.94 0.01-14.51-0.59-20.23-4.96-4.81-3.64-5.63-11.39-1.49-15.85z"/>
   <path d="m405.09 268.78c63.24 0.04 126.47-0.04 189.7 0.04 2.51 12.7 2.39 25.85 0.06 38.57-63.24 0.06-126.48 0.08-189.73 0-2.46-12.73-2.37-25.88-0.03-38.61z"/>
   <path d="m215.32 306.35c5.67-4.82 13.58-5.3 20.69-5.39 0.2 7.14-0.39 15.1-5.2 20.8-4.05 5.01-12.58 4.92-16.62-0.05-3.75-4.39-3.35-11.62 1.13-15.36z"/>
   <path d="m422.43 346c51.67 0.04 103.35-0.08 155.02 0.06-10.76 14.37-25.57 25.66-42.31 32.16-15.68 6.26-33.02 7.84-49.67 5.51-24.93-3.58-48.01-17.59-63.04-37.73z"/>
   <path d="m239.55 176.72c20.82-3.14 42.57-0.62 61.89 7.83 26.01 11.06 47.45 32.39 58.71 58.31 10.19 23.14 12.17 49.77 5.67 74.2-6.52 25.1-22.18 47.63-43.28 62.68-20.78 15.04-46.84 22.46-72.43 20.85-24.38-1.33-48.15-11-66.64-26.92-19.83-16.98-33.54-41-37.73-66.8-4.31-25.5 0.37-52.48 13.36-74.88 16.63-29.33 47.07-50.36 80.45-55.27m-23.95 24.85c-20.27 9.55-36.87 26.54-46.05 46.97-9.71 21.23-11.13 46.07-4.13 68.32 6.46 20.82 20.36 39.2 38.56 51.18 15.59 10.4 34.3 15.92 53.02 15.92-0.04-63.94 0.07-127.89-0.05-191.84-14.23 0.35-28.52 3.15-41.35 9.45z" fill="#da281c"/>
   <path d="m471.74 179.12c11.38-3.34 23.39-4.03 35.18-3.51 7.17 0.63 14.45 1.3 21.34 3.53 4.24 1.34 8.47 2.74 12.71 4.13 32.46 12.03 58.07 40.55 67.38 73.82 6.22 21.8 5.68 45.5-1.53 66.99-10.89 32.86-37.8 59.98-70.72 70.78-35.79 12.39-77.63 5.07-106.9-19.03-17.76-14.21-31-33.99-37.36-55.83-6.42-21.85-6.06-45.63 1.07-67.26 8.28-25.29 25.89-47.38 48.7-61.09 5.52-3.29 11.22-6.42 17.4-8.3 4.22-1.47 8.46-2.91 12.73-4.23m1.46 16.01c-20.14 5.74-38.22 18.27-50.75 35.04 51.69 0.11 103.39-0.01 155.08 0.06-10.72-14.2-25.28-25.55-41.87-32.06-19.72-7.86-42.06-8.85-62.46-3.04m-68.11 73.65c-2.34 12.73-2.43 25.88 0.03 38.61 63.25 0.08 126.49 0.06 189.73 0 2.33-12.72 2.45-25.87-0.06-38.57-63.23-0.08-126.46 0-189.7-0.04m17.34 77.22c15.03 20.14 38.11 34.15 63.04 37.73 16.65 2.33 33.99 0.75 49.67-5.51 16.74-6.5 31.55-17.79 42.31-32.16-51.67-0.14-103.35-0.02-155.02-0.06z" fill="#ffcd00"/>
   <path d="m725.54 176.76c22.03-3.4 45.09-0.3 65.28 9.22 29.47 13.6 52.35 40.6 60.86 71.94 6.71 24.23 5.11 50.69-4.69 73.87-13.9 33.76-45.25 59.58-81.08 66.67-35.78 7.63-74.97-3.52-101.08-29.22-12.34-11.78-21.8-26.48-27.69-42.47-7.91-21.75-8.88-45.95-2.86-68.28 8.75-33.01 33.5-61.22 65.04-74.31 8.37-3.57 17.22-6 26.22-7.42m-44.11 38.12c20.33 55.95 40.77 111.87 61.04 167.84 0.26 0.03 0.78 0.09 1.04 0.12 20.39-55.97 40.89-111.91 61.09-167.94-18.55-16.4-44.09-24.17-68.66-22.37-19.86 1.57-39.47 9.15-54.51 22.35z" fill="#ffa300"/>
   <path d="m215.6 201.57c12.83-6.3 27.12-9.1 41.35-9.45 0.12 63.95 0.01 127.9 0.05 191.84-18.72 0-37.43-5.52-53.02-15.92-18.2-11.98-32.1-30.36-38.56-51.18-7-22.25-5.58-47.09 4.13-68.32 9.18-20.43 25.78-37.42 46.05-46.97m-1.3 52.82c-4.14 4.46-3.32 12.21 1.49 15.85 5.72 4.37 13.29 4.97 20.23 4.96 0.2-7.21-0.43-15.26-5.36-20.94-4.08-4.83-12.34-4.68-16.36 0.13m1.02 51.96c-4.48 3.74-4.88 10.97-1.13 15.36 4.04 4.97 12.57 5.06 16.62 0.05 4.81-5.7 5.4-13.66 5.2-20.8-7.11 0.09-15.02 0.57-20.69 5.39z" fill="#fecb8a"/>
   <path d="m681.43 214.88c15.04-13.2 34.65-20.78 54.51-22.35 24.57-1.8 50.11 5.97 68.66 22.37-20.2 56.03-40.7 111.97-61.09 167.94-0.26-0.03-0.78-0.09-1.04-0.12-20.27-55.97-40.71-111.89-61.04-167.84z" fill="#ff671e"/>
   <g fill="#1f80c4">
    <path d="m746.56 438.76c21.11-1.9 42.81 1.03 62.42 9.19 10.92 4.79 22.16 11.26 27.81 22.26 4.61 8.85 2.59 20.27-4.16 27.46-5.16 5.6-13.34 7.31-20.65 6.3-12.23-1.19-22.23-9.21-33.86-12.41-9.49-2.67-19.65-3.61-29.37-1.74-5.76 1.21-11.88 3.77-14.92 9.11-2.78 4.97-2.03 11.98 2.59 15.61 6.66 5.34 15.33 6.98 23.42 9.01 16.07 3.28 32.39 6.4 47.42 13.23 12.42 5.6 23.84 14.23 30.95 26.03 9.12 15.07 10.58 33.93 6.23 50.78-3.78 14.68-13.26 27.57-25.66 36.17-14.51 10.2-32.26 14.72-49.76 16.01-13.76 0.66-27.67 0.34-41.18-2.64-18.12-3.87-35.78-11.81-49.17-24.86-5.51-5.36-9.89-12.4-10.4-20.23-0.6-8.6 4.53-16.79 11.58-21.37 6.91-4.35 15.76-4.24 23.26-1.53 6.34 2.1 11.58 6.37 17.5 9.33 13.01 6.86 27.52 12.04 42.43 11.16 7.97-0.43 16.42-1.7 22.99-6.59 5.12-3.77 7.39-11.05 4.95-16.98-2.01-5.06-6.81-8.26-11.53-10.51-13.61-6.1-28.79-6.65-42.95-10.86-17.07-4.77-34.19-12.47-45.94-26.18-10.26-11.79-14.47-28.06-12.73-43.45 1.09-15.46 7.83-30.55 19.19-41.19 13.38-12.62 31.46-19.23 49.54-21.11z"/>
    <path d="m175.6 442.74c10.51-6.06 24.77-4.28 33.5 4.16 5.73 5.4 8.99 13.24 8.87 21.12 0.08 20.42-0.01 40.83 0.04 61.25 27.17-26.92 53.82-54.35 81.06-81.2 10.48-9.64 28.17-9.39 38.4 0.5 11.68 10.42 11.89 30.62 0.38 41.24-22.39 20.71-44.77 41.44-67.13 62.2 22.28 21.49 44.82 42.71 67.16 64.14 6.66 6.27 9.61 15.9 8.17 24.88-1.6 11.51-11.12 21.3-22.53 23.39-6.22 0.97-12.85 0.48-18.47-2.56-5.43-2.55-9.1-7.47-13.37-11.49-24.56-25.05-49.12-50.11-73.68-75.16-0.05 20.61 0.09 41.24-0.07 61.85 0.12 14.42-12.44 27.5-26.87 27.8-11.18 0.89-22.33-5.77-27.14-15.83-2.2-4.33-2.97-9.22-2.93-14.03 0.02-55.67-0.01-111.34 0.02-167-0.22-10.27 5.55-20.37 14.59-25.26z"/>
    <path d="m393.54 439.75c12.37-2.81 26.07 3.77 31.43 15.29 1.88 3.67 2.85 7.81 2.83 11.94-0.03 57.03 0 114.06-0.02 171.09-0.28 8.82-5.2 17.28-12.54 22.12-10.03 6.82-24.48 6.21-33.8-1.61-6.47-5.16-10.44-13.32-10.43-21.61-0.01-56.68-0.02-113.36 0-170.04-0.06-12.86 9.92-24.81 22.53-27.18z"/>
    <path d="m479.41 441.58c2.16-0.47 4.37-0.59 6.58-0.6 15.66 0.04 31.32 0.01 46.98 0.02 9.66 0.09 19.39-0.41 29 0.95 16.68 2.06 32.99 7.68 47.09 16.87 15.09 9.72 27.51 23.5 35.7 39.46 10.39 20.12 14.09 43.35 11.96 65.8-1.58 17.15-6.82 34.07-15.93 48.74-9.87 16.07-24.28 29.28-41.06 37.87-16.84 8.57-35.86 12.74-54.73 12.31-20.34-0.01-40.68 0.01-61.02 0-12.05-0.17-23-9.41-25.91-20.99-1.15-3.9-0.84-7.99-0.86-11.99 0.02-54.02-0.02-108.05 0.02-162.07 0.28-12.48 9.99-23.87 22.18-26.37m34.59 56.21v108.42h34c15.03-0.27 30.6-6.01 40.34-17.84 11.28-13.5 14.07-32.45 10.79-49.36-2.19-12.03-8.72-23.33-18.56-30.67-9.89-7.37-22.38-10.48-34.58-10.56-10.66 0.01-21.33 0-31.99 0.01z"/>
    <path d="m288.52 704.45c7.04-0.04 14.08 0.01 21.12-0.02 14.81 34.78 29.65 69.55 44.38 104.36-8.04 0.01-16.08-0.03-24.13 0.02-3.16-7.51-6.05-15.13-9.29-22.6l-0.49-0.34c-14.34-0.2-28.69-0.03-43.02-0.08-3.1 7.68-6.22 15.34-9.37 22.99-7.87 0.01-15.73 0.03-23.6-0.02 14.83-34.75 29.59-69.54 44.4-104.31m-3.1 60.75c8.92 0.02 17.84 0 26.77 0.01-4.49-10.82-8.86-21.69-13.36-32.5-4.62 10.77-8.88 21.69-13.41 32.49z"/>
    <path d="m497.63 710.6c13.05-7.47 28.98-8.64 43.47-5.38 9.62 2.15 18.47 7.34 25.24 14.49-5.05 5.53-9.67 11.45-14.87 16.85-5.89-5.62-13.16-10.17-21.33-11.38-9.21-1.6-19.15 1.59-25.58 8.41-12.53 12.73-12 35.67 0.93 47.94 5.92 5.73 14.39 8.47 22.56 7.71 9.38-0.44 17.65-5.73 24.22-12.1 5.03 4.89 9.95 9.9 14.91 14.86-5.62 5.97-12.1 11.34-19.75 14.48-9.54 3.96-20.17 4.79-30.37 3.68-15.69-1.87-30.35-11.23-38.25-24.97-7.52-12.55-9.17-28.14-5.67-42.23 3.38-13.5 12.35-25.5 24.49-32.36z"/>
    <path d="m597.97 706.93c10.18-7.11 26.22-2.04 30.41 9.7 8.96 21.41 16.36 43.46 25 65 1.74 4.84 9.14 6.47 12.03 1.82 3.31-6.64 4.94-13.99 8.09-20.71 3.98 10.42 7.87 20.87 11.89 31.27-3.3 5.94-7.98 11.41-14.48 13.91-10.3 4.69-23.78 3.4-31.79-5.05-6.2-5.78-8.05-14.31-10.9-21.95-6.28-17.43-12.21-34.99-18.69-52.34 0.08 18.91-0.01 37.81 0.05 56.72 3.17-7.77 5.05-16.09 8.7-23.64 3.78 10.35 7.34 20.79 11.09 31.15-2.18 9.02-9.95 16.84-19.4 17.68-7.82 0.58-16.74-2.92-19.93-10.56-1.94-4.35-2-9.22-2.05-13.89 0.03-20.36-0.02-40.72 0.02-61.08-0.07-7.23 3.9-14.16 9.96-18.03z"/>
    <path d="m633.68 720.86c4.39-12.06 18.77-19.16 31.32-16.86 9.92 1.05 17.9 8.82 21.41 17.83 7.77 21.19 15.11 42.54 23.04 63.67 0.01-18.92-0.07-37.84 0.04-56.76-3.07 8.13-5.66 16.44-8.92 24.49-3.53-10.48-7.48-20.83-10.94-31.33 0.75-5.67 4.44-10.88 8.99-14.31 7.81-6.02 19.89-4.97 26.85 1.9 4.29 4.28 5.24 10.65 5.32 16.46-0.01 21.37 0.03 42.75-0.02 64.12-0.19 8.11-5.48 15.62-12.84 18.89-9.68 3.91-22.63 0.07-26.88-9.93-6.11-13.08-10.41-26.93-15.72-40.35-3.21-8.48-6.33-17-9.57-25.47-1.04-2.89-3.71-5.18-6.81-5.43-2.94-0.03-5.45 2.16-6.39 4.84-2.41 6.2-4.65 12.46-7.04 18.67-4.43-9.93-8.01-20.26-11.84-30.43z"/>
    <path d="m369.44 705.22c15.86 0.01 31.72-0.06 47.59 0.03 9.28 0.13 19.31 1.71 26.49 8.1 11.02 9.11 11.25 28.22 0.44 37.59-1.56 1.4-3.36 2.5-5.15 3.59 6.61 3.09 13.64 6.97 16.61 14.07 3.14 7.65 3 16.77-0.54 24.27-4.19 8.29-13.15 12.9-21.94 14.65-7.52 1.72-15.26 1.2-22.91 1.27-13.53-0.01-27.06 0.01-40.59-0.01v-103.56m22.56 20.34v21.44c7.34-0.01 14.67 0.02 22.01 0 4.02-0.14 8.34-0.73 11.59-3.3 4.37-3.52 4.53-10.95 0.41-14.71-3.34-2.77-7.86-3.44-12.06-3.44-7.32 0.01-14.63 0.01-21.95 0.01m0.01 40.75c-0.01 7.46-0.03 14.92 0.01 22.39 9.25-0.09 18.49 0.09 27.74-0.09 4.85-0.22 10.53-1.11 13.45-5.48 2.47-4.16 2-10.34-1.97-13.43-3.44-2.72-8-3.37-12.26-3.38-8.99-0.01-17.98 0.01-26.97-0.01z"/>
   </g>
  </g>
  <g transform="matrix(.18725 0 0 .18725 -300.52 44.27)" fill="#fff">
   <path d="m1315.8 168.4c23.8-0.4 52.8 8.5 72.4 32.7 8.9 8.6 25.1 49.8 25.1 49.8l97.5 258.9c12.5 31.1 50.2 33.4 61.3 2.3l30.3-81.6 51.7 136.1c-25.1 45.9-49.5 57.1-78.3 67.6-33.6 10.5-73.8 7-102.7-10.9-9.6-6.2-34.7-22.5-51.7-63.7l-102.6-286.9v261.2l38.4-110.4 49.3 137.8c-7.2 31.6-30.1 58.1-56.7 70.5-29.1 13.7-63.8 8.9-90.1-7.8-26.2-19.4-33.6-42.4-34.7-83.2l0.3-282.6c3-47.1 33.1-72.7 59.5-84.1 12.1-4.3 17.2-5.4 31-5.7z"/>
   <path d="m1764.9 639.5c-23.8 0.4-52.8-8.5-72.4-32.6-8.9-8.6-25.1-49.8-25.1-49.8l-97.5-258.9c-12.6-31.1-50.2-33.5-61.3-2.4l-30.3 81.6-51.7-136.1c25.1-45.8 49.5-57.1 78.3-67.6 33.6-10.5 73.9-7 102.7 10.9 9.6 6.2 34.7 22.5 51.7 63.7l102.7 286.8v-260.9l-38.4 110.4-49.3-137.8c7.2-31.7 30.1-58.1 56.7-70.5 29.1-13.7 63.8-8.9 90.1 7.8 26.2 19.4 33.6 42.4 34.7 83.1l-0.4 282.6c-2.9 47.1-33 72.7-59.5 84.1-12 4.3-17.2 5.4-31 5.6z"/>
  </g>
  <g transform="matrix(.35278 0 0 .35278 -300.52 44.27)">
   <g stroke-width=".53079">
    <path d="m121.02 50.425c17.622 0 33.705 6.4756 46.125 17.144l32.909-38.164c-21.232-18.312-48.832-29.406-79.034-29.406-24.682 0-47.665 7.3779-66.773 20.117l27.813 42.038c11.147-7.431 24.575-11.73 38.96-11.73z" fill="#dcfd49"/>
    <path d="m121.02 191.61c-39.013 0-70.595-31.582-70.595-70.595 0-24.575 12.58-46.232 31.635-58.864l-27.813-42.038c-32.697 21.656-54.246 58.758-54.246 100.9 0 66.826 54.193 121.02 121.02 121.02 32.113 0 61.306-12.527 82.962-32.909l-34.554-36.73c-12.633 11.943-29.671 19.215-48.408 19.215z" fill="#6bfd5f"/>
    <path d="m95.542 39.544a25.212 25.212 0 0 1-25.212 25.212 25.212 25.212 0 0 1-25.212-25.212 25.212 25.212 0 0 1 25.212-25.212 25.212 25.212 0 0 1 25.212 25.212z" fill="#cefd41"/>
    <path d="m210.19 49.629a25.212 25.212 0 0 1-25.212 25.212 25.212 25.212 0 0 1-25.212-25.212 25.212 25.212 0 0 1 25.212-25.212 25.212 25.212 0 0 1 25.212 25.212z" fill="#dcfd49"/>
    <path d="m212.85 189.76a25.212 25.212 0 0 1-25.212 25.212 25.212 25.212 0 0 1-25.212-25.212 25.212 25.212 0 0 1 25.212-25.212 25.212 25.212 0 0 1 25.212 25.212z" fill="#6bfd5f"/>
    <path d="m452.23 121.02c0-66.826-54.193-121.02-121.02-121.02-26.858 0-51.699 8.758-71.762 23.567l29.883 40.605c11.73-8.6518 26.221-13.747 41.879-13.747 39.013 0 70.595 31.582 70.595 70.595 0 22.452-10.51 42.463-26.858 55.414l31.263 39.544c28.026-22.134 46.019-56.476 46.019-94.958z" fill="#dcfd49"/>
    <path d="m331.21 191.61c-39.013 0-70.595-31.582-70.595-70.595h-50.425c0 66.826 54.193 121.02 121.02 121.02 28.344 0 54.406-9.7665 75-26.062l-31.263-39.544c-11.996 9.5011-27.229 15.181-43.737 15.181z" fill="#6bfd5f"/>
    <path d="m289.33 64.172-29.883-40.605c-29.883 22.028-49.257 57.484-49.257 97.453h50.425c0-23.302 11.306-44.002 28.716-56.847z" fill="#39fec6"/>
    <circle cx="235.37" cy="120.22" r="25.212" fill="#39fdad"/>
    <circle cx="273.77" cy="44.287" r="25.212" fill="#bafd4f"/>
    <path d="m416.67 195.5a25.212 25.212 0 0 1-25.212 25.212 25.212 25.212 0 0 1-25.212-25.212 25.212 25.212 0 0 1 25.212-25.212 25.212 25.212 0 0 1 25.212 25.212z" fill="#cefd41"/>
    <path d="m514.33 120.22v25.212h96.338c13.854 0 25.212-11.359 25.212-25.212 0-13.854-11.359-25.212-25.212-25.212h-121.55c13.854 0 25.212 11.359 25.212 25.212z" fill="#39fec6"/>
    <path d="m601.12 240.98c13.854 0 25.212-11.359 25.212-25.212 0-13.854-11.359-25.212-25.212-25.212h-86.784v50.425z" fill="#6bfd5f"/>
    <path d="m489.12 336.52h121.55c13.854 0 25.212-11.359 25.212-25.212 0-13.854-11.359-25.212-25.212-25.212h-96.338v25.212c0 13.854-11.359 25.212-25.212 25.212z" fill="#dcfd49"/>
    <path d="m463.91 215.77v95.542c0-13.854 11.359-25.212 25.212-25.212h25.212v-45.117h-25.212c-13.854 0-25.212-11.359-25.212-25.212z" fill="#39fec6"/>
    <path d="m489.12 145.44c-13.854 0-25.212-11.359-25.212-25.212v95.542c0-13.854 11.359-25.212 25.212-25.212h25.212v-45.117z" fill="#39fec6"/>
    <path d="m489.12 145.44h25.212v-25.212c0-13.854-11.359-25.212-25.212-25.212-13.854 0-25.212 11.359-25.212 25.212 0 13.854 11.359 25.212 25.212 25.212z" fill="#3afee0"/>
    <path d="m463.91 215.77c0 13.854 11.359 25.212 25.212 25.212h25.212v-50.425h-25.212c-13.854 0-25.212 11.359-25.212 25.212z" fill="#38fd76"/>
    <path d="m463.91 311.31c0 13.854 11.359 25.212 25.212 25.212 13.854 0 25.212-11.359 25.212-25.212v-25.212h-25.212c-13.854 0-25.212 11.359-25.212 25.212z" fill="#bafd4f"/>
    <path d="m214.97 244.96c-1.38 3.0786-2.1232 6.4756-2.1232 10.085v190.02c0 13.854 11.359 25.212 25.212 25.212 13.854 0 25.212-11.359 25.212-25.212v-116.61l-45.117-57.962c-5.8387-7.4841-6.741-17.304-3.1847-25.531z" fill="#39fec6"/>
    <path d="m443.95 270.33-45.329 58.227v116.51c0 13.854 11.359 25.212 25.212 25.212 13.854 0 25.212-11.359 25.212-25.212v-187.1c-0.53079 4.3525-2.2293 8.6518-5.0956 12.367z" fill="#dcfd49"/>
   </g>
   <path transform="scale(.75)" d="m317.12 306.5c-1.1998 0.01-2.4043 0.085-3.6074 0.22656h-0.14063c-0.42464 0.0708-0.91912 0.14212-1.3438 0.21289-0.21232 0.0708-0.49666 0.0699-0.70898 0.14062-0.28308 0.0708-0.49427 0.0718-0.77734 0.14258-10.262 2.1939-18.826 9.0575-23.355 18.258-0.14155 0.21232-0.21197 0.42589-0.35352 0.70898-0.0708 0.21231-0.14166 0.35213-0.2832 0.56445-4.7417 10.899-3.5388 24.064 4.2461 34.043l60.227 77.141 63.979 81.953c-9.3419-11.89-9.7675-29.088-0.14258-41.473l26.469-33.971-97.381-125.05c-3.693-4.7481-8.4987-8.2488-13.717-10.367 0.0996 0.0438 0.17571 0.086 0.26757 0.12891-0.46974-0.20012-0.93396-0.41114-1.4141-0.58985-0.21232-0.0708-0.42394-0.14211-0.70703-0.21289-0.21231-0.0708-0.4244-0.14016-0.63672-0.21094-3.4501-1.1146-7.0197-1.6724-10.619-1.6426zm11.963 2.0664c0.38604 0.13994 0.76467 0.30593 1.1465 0.46094-0.33826-0.14871-0.71476-0.30113-1.1465-0.46094z" fill="#6bfd5f" stroke-width=".70772"/>
   <path d="m403.35 240.45-72.346 92.888 19.958 25.637c6.6879 8.5988 6.9002 20.223 1.38 28.981l46.285-59.395v-73.514c0-5.4671 1.7517-10.456 4.7241-14.596z" fill="#dcfd49" stroke-width=".53079"/>
   <path d="m449.05 257.96v-2.9193c0-13.854-11.359-25.212-25.212-25.212-7.2187 0-13.747 3.0786-18.365 7.9618-0.47771 0.47771-0.90234 1.0085-1.327 1.5924l-0.79612 1.0618c-2.9724 4.1401-4.7241 9.1824-4.7241 14.65v73.461l45.329-58.227c2.8662-3.7155 4.5648-8.0149 5.0956-12.367z" fill="#f2fd3f" stroke-width=".53079"/>
   <path d="m350.96 359.02-19.958-25.69-19.851 25.478c-8.4926 10.934-6.5287 26.858 4.4055 35.404 10.934 8.4926 26.858 6.5287 35.404-4.4055l1.4331-1.8047c5.4671-8.758 5.2548-20.382-1.4331-28.981z" fill="#cefd41" stroke-width=".53079"/>
   <path transform="scale(.75)" d="m756.1 467.64c-1.0313-2e-3 -2.0612 6e-3 -3.0918 0.0234v0.0703h-100.5l-0.0273 0.0781c18.322 0.17901 33.289 15.248 33.289 33.609v33.617h67.234c19.604-0.56618 39.489 4.8121 56.828 16.914 42.534 29.866 52.867 88.535 23.072 131.07-4.6002 6.5818-9.9072 12.385-15.781 17.41l43.1 51.664c10.262-8.7046 19.604-18.826 27.672-30.432 51.168-72.966 33.473-173.6-39.492-224.77-28.11-19.745-60.336-29.195-92.307-29.252zm-131.73 15.016c-0.56539 0.8231-1.0948 1.6716-1.5859 2.5449 0.49118-0.87336 1.0205-1.7218 1.5859-2.5449zm-4.0566 8.0547c-0.32883 0.96055-0.61478 1.942-0.85547 2.9394 0.24069-0.99748 0.52664-1.9789 0.85547-2.9394z" fill="#dcfd49" stroke-width=".70772"/>
   <path d="m463.91 567.15c0 13.854 11.359 25.212 25.212 25.212 13.854 0 25.212-11.359 25.212-25.212v-25.212h-25.212c-13.854 0-25.212 11.359-25.212 25.212z" fill="#38fd76" stroke-width=".53079"/>
   <path d="m489.12 401.28c-13.854 0-25.212-11.359-25.212-25.212v191.08c0-13.854 11.359-25.212 25.212-25.212h25.212v-140.66z" fill="#39fec6" stroke-width=".53079"/>
   <path d="m568.47 542.36-54.14-0.42463v25.212c0 12.527-9.2357 22.983-21.232 24.894l-4.2463 0.31847 75.903 0.42463c28.981 0.47771 57.697-9.448 80.361-28.716l-32.325-38.747c-12.527 10.828-28.291 16.667-44.321 17.038z" fill="#6bfd5f" stroke-width=".53079"/>
   <path transform="scale(.75)" d="m1051.3 627.04c-15.924 0-29.3 11.182-32.768 26.115-0.5662 2.4062-0.8476 4.9542-0.8476 7.502v10.332l7.2187 9.2012c9.625 12.314 26.255 16.064 39.984 10.049 5.0248-2.1232 9.5552-5.5194 13.094-10.049l6.9356-8.8477v-10.615c0-18.542-15.146-33.688-33.617-33.688z" fill="#7efd41" stroke-width=".70772"/>
   <path transform="scale(.75)" d="m1175 469.54c-10.25-0.22664-20.483 4.1875-27.248 12.844l-96.293 122.68 26.371 33.582c2.3622 3.0184 4.1076 6.3271 5.2813 9.7754 1.3861 4.0113 1.9858 8.2127 1.7949 12.375v10.545l115.71-147.49c11.394-14.579 8.8481-35.811-5.6601-47.205-5.9227-4.6289-12.944-6.9562-19.957-7.1113z" fill="#6bfd5f" stroke-width=".70772"/>
   <g stroke-width=".53079">
    <path d="m763.91 489.86c0.7431-3.8747 2.3355-7.5903 4.9363-10.881l19.745-25.159-72.187-92.039c-8.5457-10.934-24.469-12.845-35.404-4.2463-10.934 8.5457-12.845 24.469-4.2463 35.404l86.518 110.3v-7.7495c0-1.9639 0.21231-3.8217 0.63694-5.6264z" fill="#39fec6"/>
    <path d="m798.68 517.68c-10.297 4.5117-22.771 1.6985-29.99-7.5372l-5.414-6.9002v62.314c0 13.854 11.359 25.212 25.212 25.212 13.854 0 25.212-11.359 25.212-25.212v-62.049l-5.2017 6.6348c-2.6539 3.397-6.051 5.9448-9.8196 7.5372z" fill="#dcfd49"/>
    <path d="m763.91 489.86c2.6009-11.2 12.633-19.586 24.575-19.586 13.854 0 25.212 11.359 25.212 25.212v0.0531c0.21232-5.7856-1.4862-11.677-5.3079-16.561l-19.798-25.212-19.745 25.159c-2.6009 3.344-4.1932 7.0595-4.9363 10.934z" fill="#38fd76"/>
    <circle cx="628.72" cy="544.85" r="25.212" fill="#91fd3e"/>
    <path d="m246.82 231.42c-0.15924-0.0531-0.31847-0.10616-0.53079-0.15924-0.15923-0.0531-0.31847-0.10616-0.47771-0.15924-3.4501-1.1146-7.0595-1.4862-10.669-1.0616h-0.10615c-0.31848 0.0531-0.69003 0.10616-1.0085 0.15924-0.15924 0.0531-0.37155 0.0531-0.53079 0.10615-0.21231 0.0531-0.37155 0.0531-0.58386 0.10616-7.6964 1.6454-14.119 6.7941-17.516 13.694-0.10616 0.15924-0.15924 0.31847-0.2654 0.53079-0.0531 0.15923-0.10615 0.26539-0.21231 0.42463-3.5563 8.1741-2.6539 18.047 3.1847 25.531l45.117 57.962-2.1e-4 -73.514c0.0531-10.775-6.8472-20.064-16.401-23.62z" fill="#38fd76"/>
    <path d="m489.12 350.85c-1.0087 0-1.9684 0.18327-2.9473 0.3003-12.464 1.4901-22.264 12.068-22.264 24.913 0 13.854 11.358 25.211 25.211 25.211h25.213v-25.211c0-13.854-11.359-25.213-25.213-25.213z" fill="#bafd4f"/>
   </g>
  </g>
  <g transform="matrix(.35278 0 0 .35278 -300.52 44.27)">
   <g stroke-width=".53079">
    <path d="m121.02 50.425c17.622 0 33.705 6.4756 46.125 17.144l32.909-38.164c-21.232-18.312-48.832-29.406-79.034-29.406-24.682 0-47.665 7.3779-66.773 20.117l27.813 42.038c11.147-7.431 24.575-11.73 38.96-11.73z" fill="#dcfd49"/>
    <path d="m121.02 191.61c-39.013 0-70.595-31.582-70.595-70.595 0-24.575 12.58-46.232 31.635-58.864l-27.813-42.038c-32.697 21.656-54.246 58.758-54.246 100.9 0 66.826 54.193 121.02 121.02 121.02 32.113 0 61.306-12.527 82.962-32.909l-34.554-36.73c-12.633 11.943-29.671 19.215-48.408 19.215z" fill="#6bfd5f"/>
    <path d="m95.542 39.544a25.212 25.212 0 0 1-25.212 25.212 25.212 25.212 0 0 1-25.212-25.212 25.212 25.212 0 0 1 25.212-25.212 25.212 25.212 0 0 1 25.212 25.212z" fill="#cefd41"/>
    <path d="m210.19 49.629a25.212 25.212 0 0 1-25.212 25.212 25.212 25.212 0 0 1-25.212-25.212 25.212 25.212 0 0 1 25.212-25.212 25.212 25.212 0 0 1 25.212 25.212z" fill="#dcfd49"/>
    <path d="m212.85 189.76a25.212 25.212 0 0 1-25.212 25.212 25.212 25.212 0 0 1-25.212-25.212 25.212 25.212 0 0 1 25.212-25.212 25.212 25.212 0 0 1 25.212 25.212z" fill="#6bfd5f"/>
    <path d="m452.23 121.02c0-66.826-54.193-121.02-121.02-121.02-26.858 0-51.699 8.758-71.762 23.567l29.883 40.605c11.73-8.6518 26.221-13.747 41.879-13.747 39.013 0 70.595 31.582 70.595 70.595 0 22.452-10.51 42.463-26.858 55.414l31.263 39.544c28.026-22.134 46.019-56.476 46.019-94.958z" fill="#dcfd49"/>
    <path d="m331.21 191.61c-39.013 0-70.595-31.582-70.595-70.595h-50.425c0 66.826 54.193 121.02 121.02 121.02 28.344 0 54.406-9.7665 75-26.062l-31.263-39.544c-11.996 9.5011-27.229 15.181-43.737 15.181z" fill="#6bfd5f"/>
    <path d="m289.33 64.172-29.883-40.605c-29.883 22.028-49.257 57.484-49.257 97.453h50.425c0-23.302 11.306-44.002 28.716-56.847z" fill="#39fec6"/>
    <circle cx="235.37" cy="120.22" r="25.212" fill="#39fdad"/>
    <circle cx="273.77" cy="44.287" r="25.212" fill="#bafd4f"/>
    <path d="m416.67 195.5a25.212 25.212 0 0 1-25.212 25.212 25.212 25.212 0 0 1-25.212-25.212 25.212 25.212 0 0 1 25.212-25.212 25.212 25.212 0 0 1 25.212 25.212z" fill="#cefd41"/>
    <path d="m514.33 120.22v25.212h96.338c13.854 0 25.212-11.359 25.212-25.212 0-13.854-11.359-25.212-25.212-25.212h-121.55c13.854 0 25.212 11.359 25.212 25.212z" fill="#39fec6"/>
    <path d="m601.12 240.98c13.854 0 25.212-11.359 25.212-25.212 0-13.854-11.359-25.212-25.212-25.212h-86.784v50.425z" fill="#6bfd5f"/>
    <path d="m489.12 336.52h121.55c13.854 0 25.212-11.359 25.212-25.212 0-13.854-11.359-25.212-25.212-25.212h-96.338v25.212c0 13.854-11.359 25.212-25.212 25.212z" fill="#dcfd49"/>
    <path d="m463.91 215.77v95.542c0-13.854 11.359-25.212 25.212-25.212h25.212v-45.117h-25.212c-13.854 0-25.212-11.359-25.212-25.212z" fill="#39fec6"/>
    <path d="m489.12 145.44c-13.854 0-25.212-11.359-25.212-25.212v95.542c0-13.854 11.359-25.212 25.212-25.212h25.212v-45.117z" fill="#39fec6"/>
    <path d="m489.12 145.44h25.212v-25.212c0-13.854-11.359-25.212-25.212-25.212-13.854 0-25.212 11.359-25.212 25.212 0 13.854 11.359 25.212 25.212 25.212z" fill="#3afee0"/>
    <path d="m463.91 215.77c0 13.854 11.359 25.212 25.212 25.212h25.212v-50.425h-25.212c-13.854 0-25.212 11.359-25.212 25.212z" fill="#38fd76"/>
    <path d="m463.91 311.31c0 13.854 11.359 25.212 25.212 25.212 13.854 0 25.212-11.359 25.212-25.212v-25.212h-25.212c-13.854 0-25.212 11.359-25.212 25.212z" fill="#bafd4f"/>
    <path d="m214.97 244.96c-1.38 3.0786-2.1232 6.4756-2.1232 10.085v190.02c0 13.854 11.359 25.212 25.212 25.212 13.854 0 25.212-11.359 25.212-25.212v-116.61l-45.117-57.962c-5.8387-7.4841-6.741-17.304-3.1847-25.531z" fill="#39fec6"/>
    <path d="m443.95 270.33-45.329 58.227v116.51c0 13.854 11.359 25.212 25.212 25.212 13.854 0 25.212-11.359 25.212-25.212v-187.1c-0.53079 4.3525-2.2293 8.6518-5.0956 12.367z" fill="#dcfd49"/>
   </g>
   <path transform="scale(.75)" d="m317.12 306.5c-1.1998 0.01-2.4043 0.085-3.6074 0.22656h-0.14063c-0.42464 0.0708-0.91912 0.14212-1.3438 0.21289-0.21232 0.0708-0.49666 0.0699-0.70898 0.14062-0.28308 0.0708-0.49427 0.0718-0.77734 0.14258-10.262 2.1939-18.826 9.0575-23.355 18.258-0.14155 0.21232-0.21197 0.42589-0.35352 0.70898-0.0708 0.21231-0.14166 0.35213-0.2832 0.56445-4.7417 10.899-3.5388 24.064 4.2461 34.043l60.227 77.141 63.979 81.953c-9.3419-11.89-9.7675-29.088-0.14258-41.473l26.469-33.971-97.381-125.05c-3.693-4.7481-8.4987-8.2488-13.717-10.367 0.0996 0.0438 0.17571 0.086 0.26757 0.12891-0.46974-0.20012-0.93396-0.41114-1.4141-0.58985-0.21232-0.0708-0.42394-0.14211-0.70703-0.21289-0.21231-0.0708-0.4244-0.14016-0.63672-0.21094-3.4501-1.1146-7.0197-1.6724-10.619-1.6426zm11.963 2.0664c0.38604 0.13994 0.76467 0.30593 1.1465 0.46094-0.33826-0.14871-0.71476-0.30113-1.1465-0.46094z" fill="#6bfd5f" stroke-width=".70772"/>
   <path d="m403.35 240.45-72.346 92.888 19.958 25.637c6.6879 8.5988 6.9002 20.223 1.38 28.981l46.285-59.395v-73.514c0-5.4671 1.7517-10.456 4.7241-14.596z" fill="#dcfd49" stroke-width=".53079"/>
   <path d="m449.05 257.96v-2.9193c0-13.854-11.359-25.212-25.212-25.212-7.2187 0-13.747 3.0786-18.365 7.9618-0.47771 0.47771-0.90234 1.0085-1.327 1.5924l-0.79612 1.0618c-2.9724 4.1401-4.7241 9.1824-4.7241 14.65v73.461l45.329-58.227c2.8662-3.7155 4.5648-8.0149 5.0956-12.367z" fill="#f2fd3f" stroke-width=".53079"/>
   <path d="m350.96 359.02-19.958-25.69-19.851 25.478c-8.4926 10.934-6.5287 26.858 4.4055 35.404 10.934 8.4926 26.858 6.5287 35.404-4.4055l1.4331-1.8047c5.4671-8.758 5.2548-20.382-1.4331-28.981z" fill="#cefd41" stroke-width=".53079"/>
   <path transform="scale(.75)" d="m756.1 467.64c-1.0313-2e-3 -2.0612 6e-3 -3.0918 0.0234v0.0703h-100.5l-0.0273 0.0781c18.322 0.17901 33.289 15.248 33.289 33.609v33.617h67.234c19.604-0.56618 39.489 4.8121 56.828 16.914 42.534 29.866 52.867 88.535 23.072 131.07-4.6002 6.5818-9.9072 12.385-15.781 17.41l43.1 51.664c10.262-8.7046 19.604-18.826 27.672-30.432 51.168-72.966 33.473-173.6-39.492-224.77-28.11-19.745-60.336-29.195-92.307-29.252zm-131.73 15.016c-0.56539 0.8231-1.0948 1.6716-1.5859 2.5449 0.49118-0.87336 1.0205-1.7218 1.5859-2.5449zm-4.0566 8.0547c-0.32883 0.96055-0.61478 1.942-0.85547 2.9394 0.24069-0.99748 0.52664-1.9789 0.85547-2.9394z" fill="#dcfd49" stroke-width=".70772"/>
   <path d="m463.91 567.15c0 13.854 11.359 25.212 25.212 25.212 13.854 0 25.212-11.359 25.212-25.212v-25.212h-25.212c-13.854 0-25.212 11.359-25.212 25.212z" fill="#38fd76" stroke-width=".53079"/>
   <path d="m489.12 401.28c-13.854 0-25.212-11.359-25.212-25.212v191.08c0-13.854 11.359-25.212 25.212-25.212h25.212v-140.66z" fill="#39fec6" stroke-width=".53079"/>
   <path d="m568.47 542.36-54.14-0.42463v25.212c0 12.527-9.2357 22.983-21.232 24.894l-4.2463 0.31847 75.903 0.42463c28.981 0.47771 57.697-9.448 80.361-28.716l-32.325-38.747c-12.527 10.828-28.291 16.667-44.321 17.038z" fill="#6bfd5f" stroke-width=".53079"/>
   <path transform="scale(.75)" d="m1051.3 627.04c-15.924 0-29.3 11.182-32.768 26.115-0.5662 2.4062-0.8476 4.9542-0.8476 7.502v10.332l7.2187 9.2012c9.625 12.314 26.255 16.064 39.984 10.049 5.0248-2.1232 9.5552-5.5194 13.094-10.049l6.9356-8.8477v-10.615c0-18.542-15.146-33.688-33.617-33.688z" fill="#7efd41" stroke-width=".70772"/>
   <path transform="scale(.75)" d="m1175 469.54c-10.25-0.22664-20.483 4.1875-27.248 12.844l-96.293 122.68 26.371 33.582c2.3622 3.0184 4.1076 6.3271 5.2813 9.7754 1.3861 4.0113 1.9858 8.2127 1.7949 12.375v10.545l115.71-147.49c11.394-14.579 8.8481-35.811-5.6601-47.205-5.9227-4.6289-12.944-6.9562-19.957-7.1113z" fill="#6bfd5f" stroke-width=".70772"/>
   <g stroke-width=".53079">
    <path d="m763.91 489.86c0.7431-3.8747 2.3355-7.5903 4.9363-10.881l19.745-25.159-72.187-92.039c-8.5457-10.934-24.469-12.845-35.404-4.2463-10.934 8.5457-12.845 24.469-4.2463 35.404l86.518 110.3v-7.7495c0-1.9639 0.21231-3.8217 0.63694-5.6264z" fill="#39fec6"/>
    <path d="m798.68 517.68c-10.297 4.5117-22.771 1.6985-29.99-7.5372l-5.414-6.9002v62.314c0 13.854 11.359 25.212 25.212 25.212 13.854 0 25.212-11.359 25.212-25.212v-62.049l-5.2017 6.6348c-2.6539 3.397-6.051 5.9448-9.8196 7.5372z" fill="#dcfd49"/>
    <path d="m763.91 489.86c2.6009-11.2 12.633-19.586 24.575-19.586 13.854 0 25.212 11.359 25.212 25.212v0.0531c0.21232-5.7856-1.4862-11.677-5.3079-16.561l-19.798-25.212-19.745 25.159c-2.6009 3.344-4.1932 7.0595-4.9363 10.934z" fill="#38fd76"/>
    <circle cx="628.72" cy="544.85" r="25.212" fill="#91fd3e"/>
    <path d="m246.82 231.42c-0.15924-0.0531-0.31847-0.10616-0.53079-0.15924-0.15923-0.0531-0.31847-0.10616-0.47771-0.15924-3.4501-1.1146-7.0595-1.4862-10.669-1.0616h-0.10615c-0.31848 0.0531-0.69003 0.10616-1.0085 0.15924-0.15924 0.0531-0.37155 0.0531-0.53079 0.10615-0.21231 0.0531-0.37155 0.0531-0.58386 0.10616-7.6964 1.6454-14.119 6.7941-17.516 13.694-0.10616 0.15924-0.15924 0.31847-0.2654 0.53079-0.0531 0.15923-0.10615 0.26539-0.21231 0.42463-3.5563 8.1741-2.6539 18.047 3.1847 25.531l45.117 57.962-2.1e-4 -73.514c0.0531-10.775-6.8472-20.064-16.401-23.62z" fill="#38fd76"/>
    <path d="m489.12 350.85c-1.0087 0-1.9684 0.18327-2.9473 0.3003-12.464 1.4901-22.264 12.068-22.264 24.913 0 13.854 11.358 25.211 25.211 25.211h25.213v-25.211c0-13.854-11.359-25.213-25.213-25.213z" fill="#bafd4f"/>
   </g>
  </g>
 </g>
</svg>
