<?xml version="1.0" encoding="UTF-8" standalone="no"?>
<svg
   xmlns:dc="http://purl.org/dc/elements/1.1/"
   xmlns:cc="http://creativecommons.org/ns#"
   xmlns:rdf="http://www.w3.org/1999/02/22-rdf-syntax-ns#"
   xmlns:svg="http://www.w3.org/2000/svg"
   xmlns="http://www.w3.org/2000/svg"
   xmlns:sodipodi="http://sodipodi.sourceforge.net/DTD/sodipodi-0.dtd"
   xmlns:inkscape="http://www.inkscape.org/namespaces/inkscape"
   width="110.46996"
   height="112.57734"
   viewBox="0 0 110.46996 112.57734"
   version="1.1"
   id="svg2"
   inkscape:version="0.91 r13725"
   sodipodi:docname="ABC Me - Dark.svg">
  <metadata
     id="metadata20">
    <rdf:RDF>
      <cc:Work
         rdf:about="">
        <dc:format>image/svg+xml</dc:format>
        <dc:type
           rdf:resource="http://purl.org/dc/dcmitype/StillImage" />
        <dc:title>ABC Me - Dark</dc:title>
      </cc:Work>
    </rdf:RDF>
  </metadata>
  <sodipodi:namedview
     pagecolor="#ffffff"
     bordercolor="#666666"
     borderopacity="1"
     objecttolerance="10"
     gridtolerance="10"
     guidetolerance="10"
     inkscape:pageopacity="0"
     inkscape:pageshadow="2"
     inkscape:window-width="1920"
     inkscape:window-height="1017"
     id="namedview18"
     showgrid="false"
     inkscape:zoom="5.6568543"
     inkscape:cx="79.391692"
     inkscape:cy="37.413242"
     inkscape:window-x="-8"
     inkscape:window-y="-8"
     inkscape:window-maximized="1"
     inkscape:current-layer="svg2"
     fit-margin-top="0"
     fit-margin-left="0"
     fit-margin-right="0"
     fit-margin-bottom="0" />
  <!-- Generator: Sketch 39.1 (31720) - http://www.bohemiancoding.com/sketch -->
  <title
     id="title4">ABCME-LOGO</title>
  <desc
     id="desc6">Created with Sketch.</desc>
  <defs
     id="defs8">
    <clipPath
       clipPathUnits="userSpaceOnUse"
       id="clipPath5209">
      <path
         d="m 22.677,237.559 35.06,0 0,42.787 -35.06,0 0,-42.787 z"
         id="path5211"
         inkscape:connector-curvature="0" />
    </clipPath>
    <clipPath
       clipPathUnits="userSpaceOnUse"
       id="clipPath5209-8">
      <path
         d="m 22.677,237.559 35.06,0 0,42.787 -35.06,0 0,-42.787 z"
         id="path5211-6"
         inkscape:connector-curvature="0" />
    </clipPath>
  </defs>
  <path
     style="fill:#e6f401;fill-opacity:1;fill-rule:evenodd;stroke:none;stroke-width:1"
     inkscape:connector-curvature="0"
     id="Shape-6"
     d="M 110.27,92.725641 106.76459,76.638564 83.387106,81.314233 82.782724,78.467167 103.98443,74.254436 100.74495,59.324703 79.543238,63.56058 78.938857,60.736661 101.2768,56.292462 99.94716,39.788741 l -15.206239,3.055387 -0.07253,0 c 1.523043,-3.587765 2.393353,-7.522734 2.393353,-11.642877 0,-17.105539 -14.529337,-30.99366362 -32.370686,-30.99366362 -14.601864,0 -26.979602,9.30504372 -30.992698,22.03582462 -0.894484,2.847065 -1.37799,5.833012 -1.37799,8.957839 0,12.267843 7.494334,22.915405 18.324855,27.91513 l 0,0.02315 L 34.238782,72.88877 15.79305,56.547078 0.2,59.671905 l 11.459081,52.705435 18.49408,-3.68036 -4.061445,-18.656376 14.674388,12.823376 8.122891,-17.360164 4.061445,18.656384 18.494083,-3.7035 0,0 z"
     sodipodi:nodetypes="ccccccccccccsscscccccccccccccc" />
  <path
     style="opacity:1;fill:#3c3d41;fill-opacity:1;stroke:none;stroke-width:30;stroke-linecap:butt;stroke-linejoin:miter;stroke-miterlimit:4;stroke-dasharray:none;stroke-opacity:1"
     d="m 54.556547,1.1560432 c -14.037024,0 -25.936117,8.9596138 -29.793969,21.2161038 -0.859889,2.741005 -1.324509,5.615559 -1.324509,8.623967 0,11.810808 7.205528,22.060778 17.617093,26.874234 19.403174,7.591383 36.235525,-2.612466 42.318809,-15.664775 1.464139,-3.4541 2.301059,-7.242808 2.301059,-11.209459 0,-16.468259 -13.96728,-29.8400708 -31.118483,-29.8400708 z"
     id="path4333-0"
     inkscape:connector-curvature="0" />
  <path
     style="fill:#3c3d41;fill-opacity:1;fill-rule:evenodd;stroke:none;stroke-width:1"
     inkscape:connector-curvature="0"
     id="Shape"
     d="m 110.46996,92.854236 -3.51815,-16.145533 -23.462429,4.692659 -0.606578,-2.857411 21.278747,-4.228039 -3.25125,-14.983983 -21.278754,4.251269 -0.606578,-2.83418 22.419112,-4.460348 -1.33447,-16.56369 -15.261495,3.066489 -0.07279,0 C 86.303902,39.190667 87.177374,35.2414 87.177374,31.106285 87.177374,13.938589 72.595242,0 54.689063,0 40.034141,0 27.611426,9.3388549 23.583748,22.115895 c -0.897735,2.857411 -1.382997,5.854208 -1.382997,8.99039 0,12.312421 7.521566,22.998673 18.391441,28.016565 l 0,0.02323 L 34.162467,72.945284 15.64971,56.544211 0,59.680393 11.500717,112.57734 30.062,108.88361 25.985797,90.159442 l 14.727711,12.869968 8.152407,-17.423241 4.076203,18.724171 18.561284,-3.71696 0,0 z M 25.015272,31.036592 c 0,-15.657682 13.271924,-28.365029 29.601001,-28.365029 16.35334,0 29.625265,12.707347 29.625265,28.365029 0,15.657682 -13.271925,28.341799 -29.625265,28.341799 -16.329077,0 -29.601001,-12.684117 -29.601001,-28.341799 z M 55.36843,100.776 49.957755,75.872388 39.621668,97.988283 20.939069,81.656902 26.349744,106.53728 13.951292,109.023 3.712632,62.026722 14.703448,59.819779 35.27857,78.009638 l 8.152407,-17.725239 0,0 c 3.493889,1.231242 7.278935,1.90494 11.20956,1.90494 1.722681,0 3.421099,-0.139799 5.095254,-0.395339 l 0.09705,-0.014 7.934039,36.510286 z m 7.545829,-39.608824 0,0 c 8.613406,-2.183712 15.843814,-7.689455 20.08986,-14.983983 l 0.09705,-0.02323 14.09687,-2.787718 0.849209,10.477173 -22.807328,4.553272 1.892523,8.73485 21.303015,-4.228039 1.965312,9.083314 -21.278752,4.228039 1.892523,8.734849 23.486699,-4.692659 2.2322,10.221633 -35.860881,7.178373 z"
     sodipodi:nodetypes="ccccccccccccsscsccccccccccccccscssscccccccccccccccccccccccccccccccc" />
  <g
     id="g4219"
     transform="matrix(1.6055796,0,0,-1.5395737,-12.031505,418.65479)"
     style="fill:#e6f401;fill-opacity:1">
    <g
       transform="translate(1.2497713,0.74986281)"
       id="g5205"
       style="fill:#e6f401;fill-opacity:1">
      <g
         clip-path="url(#clipPath5209-8)"
         id="g5207"
         style="fill:#e6f401;fill-opacity:1">
        <g
           transform="translate(53.7377,261.6567)"
           id="g5213"
           style="fill:#e6f401;fill-opacity:1">
          <path
             inkscape:connector-curvature="0"
             id="path5215"
             style="fill:#e6f401;fill-opacity:1;fill-rule:nonzero;stroke:none"
             d="M 0,0 C -0.82,0.544 -1.845,0.837 -2.863,0.774 -3.368,0.744 -3.871,0.627 -4.345,0.407 -5.62,-0.206 -6.697,-1.483 -7.05,-3.015 l 2.349,-6.637 1.814,5.096 0.076,0.211 0,-12.559 -4.953,13.787 c -0.813,1.991 -2.041,2.807 -2.503,3.117 -0.81,0.479 -1.816,0.747 -2.839,0.783 -0.026,0.001 -0.052,-0.001 -0.078,0 -0.127,0.003 -0.254,0.004 -0.381,0 -0.564,-0.019 -1.125,-0.109 -1.653,-0.275 -1.375,-0.508 -2.55,-1.072 -3.778,-3.269 l 2.497,-6.535 1.486,3.933 c 0.255,0.742 0.843,1.085 1.437,1.057 0.592,-0.027 1.19,-0.423 1.47,-1.161 l 4.699,-12.509 c 0,0 0.82,-1.988 1.225,-2.398 0.971,-1.124 2.349,-1.582 3.471,-1.53 0.665,0 0.922,0.049 1.53,0.253 1.279,0.563 2.706,1.787 2.861,4.037 l 0,13.627 C 1.633,-2.045 1.271,-0.921 0,0" />
        </g>
        <g
           transform="translate(41.784,245.8758)"
           id="g5217"
           style="fill:#e6f401;fill-opacity:1">
          <path
             inkscape:connector-curvature="0"
             id="path5219"
             style="fill:#e6f401;fill-opacity:1;fill-rule:nonzero;stroke:none"
             d="m 0,0 c -0.293,-0.776 -0.924,-1.112 -1.547,-1.047 -0.563,0.06 -1.12,0.448 -1.412,1.151 L -7.657,12.56 c 0,0 -0.813,1.995 -1.225,2.4 -0.92,1.175 -2.349,1.583 -3.472,1.583 -0.66,0 -0.919,-0.051 -1.477,-0.254 -1.28,-0.562 -2.759,-1.789 -2.91,-4.084 l 0,-13.582 c 0.048,-1.99 0.404,-3.063 1.683,-4.031 0.903,-0.543 1.982,-0.828 3.043,-0.714 0.44,0.046 0.876,0.16 1.296,0.354 1.274,0.614 2.399,1.89 2.704,3.372 l -2.344,6.638 -1.718,-4.972 -0.118,-0.341 0,12.611 4.899,-13.834 c 0.815,-1.993 2.038,-2.76 2.498,-3.063 0.937,-0.59 2.13,-0.842 3.31,-0.789 0.561,0.025 1.119,0.112 1.645,0.276 1.378,0.513 2.55,1.021 3.775,3.22 L 1.432,3.935 0,0 Z" />
        </g>
        <g
           transform="translate(38.8248,245.978)"
           id="g5221"
           style="fill:#e6f401;fill-opacity:1">
          <path
             inkscape:connector-curvature="0"
             id="path5223"
             style="fill:#e6f401;fill-opacity:1;fill-rule:nonzero;stroke:none"
             d="m 0,0 -4.698,12.457 c 0,0 -0.813,1.994 -1.225,2.399 -0.919,1.175 -2.349,1.583 -3.472,1.583 -0.66,0 -0.919,-0.051 -1.477,-0.253 -1.279,-0.563 -2.759,-1.789 -2.909,-4.085 l 0,-13.581 c 0.047,-1.991 0.403,-3.064 1.682,-4.032 0.903,-0.543 1.983,-0.828 3.044,-0.714 l -0.063,5.392 -0.118,-0.341 0,12.611 4.9,-13.834 c 0.814,-1.993 2.037,-2.76 2.497,-3.063 0.937,-0.59 2.13,-0.842 3.311,-0.789 l -0.06,5.099 C 0.849,-1.091 0.292,-0.703 0,0" />
        </g>
        <g
           transform="translate(53.7377,261.6549)"
           id="g5225"
           style="fill:#e6f401;fill-opacity:1">
          <path
             inkscape:connector-curvature="0"
             id="path5227"
             style="fill:#e6f401;fill-opacity:1;fill-rule:nonzero;stroke:none"
             d="m 0,0 c -0.82,0.544 -1.845,0.837 -2.863,0.775 l -0.024,-5.331 0.076,0.212 0,-12.559 -4.953,13.786 c -0.813,1.991 -2.041,2.807 -2.503,3.117 -0.81,0.479 -1.816,0.747 -2.839,0.783 -0.026,0.001 -0.052,0 -0.078,0 l -0.392,-5.088 c 0.592,-0.028 1.19,-0.424 1.47,-1.162 l 4.699,-12.509 c 0,0 0.82,-1.988 1.225,-2.398 0.971,-1.124 2.349,-1.582 3.471,-1.53 0.665,0 0.922,0.049 1.53,0.254 1.279,0.562 2.706,1.786 2.861,4.036 l 0,13.627 C 1.633,-2.046 1.271,-0.921 0,0" />
        </g>
      </g>
    </g>
    <g
       transform="translate(1.2497713,0.74986281)"
       id="g5229"
       style="fill:#e6f401;fill-opacity:1">
      <g
         id="g5231"
         style="fill:#e6f401;fill-opacity:1">
        <g
           id="g5237"
           style="fill:#e6f401;fill-opacity:1">
          <g
             id="g5239"
             style="fill:#e6f401;fill-opacity:1">
            <path
               inkscape:connector-curvature="0"
               id="path5253"
               style="fill:#e6f401;fill-opacity:1;stroke:none"
               d="m 40.173,262.438 c -0.564,-0.019 -1.126,-0.109 -1.653,-0.274 l 0,0 c -1.375,-0.509 -2.55,-1.072 -3.778,-3.271 l 0,0 2.496,-6.534 1.486,3.933 c 0.256,0.742 0.844,1.086 1.438,1.058 l 0,0 0.391,5.088 c -0.07,0.002 -0.141,0.003 -0.212,0.003 l 0,0 c -0.056,0 -0.112,-10e-4 -0.168,-0.003" />
          </g>
        </g>
      </g>
    </g>
    <g
       transform="translate(1.2497713,0.74986281)"
       id="g5255"
       style="fill:#e6f401;fill-opacity:1">
      <g
         id="g5257"
         style="fill:#e6f401;fill-opacity:1">
        <g
           id="g5263"
           style="fill:#e6f401;fill-opacity:1">
          <g
             id="g5265"
             style="fill:#e6f401;fill-opacity:1">
            <path
               inkscape:connector-curvature="0"
               id="path5279"
               style="fill:#e6f401;fill-opacity:1;stroke:none"
               d="m 49.392,262.062 c -1.274,-0.613 -2.351,-1.89 -2.704,-3.422 l 0,0 2.349,-6.637 1.814,5.095 0.024,5.331 c -0.505,-0.03 -1.008,-0.147 -1.483,-0.367" />
          </g>
        </g>
      </g>
    </g>
    <g
       transform="translate(1.2497713,0.74986281)"
       id="g5281"
       style="fill:#e6f401;fill-opacity:1">
      <g
         id="g5283"
         style="fill:#e6f401;fill-opacity:1">
        <g
           id="g5289"
           style="fill:#e6f401;fill-opacity:1">
          <g
             id="g5291"
             style="fill:#e6f401;fill-opacity:1">
            <path
               inkscape:connector-curvature="0"
               id="path5305"
               style="fill:#e6f401;fill-opacity:1;stroke:none"
               d="m 41.784,245.874 c -0.293,-0.775 -0.924,-1.112 -1.547,-1.047 l 0,0 0.06,-5.098 0.018,0 c 0.555,0.026 1.106,0.113 1.627,0.276 l 0,0 c 1.377,0.512 2.55,1.02 3.774,3.219 l 0,0 -2.5,6.585 -1.432,-3.935 z" />
          </g>
        </g>
      </g>
    </g>
    <g
       transform="translate(1.2497713,0.74986281)"
       id="g5307"
       style="fill:#e6f401;fill-opacity:1">
      <g
         id="g5309"
         style="fill:#e6f401;fill-opacity:1">
        <g
           id="g5315"
           style="fill:#e6f401;fill-opacity:1">
          <g
             id="g5317"
             style="fill:#e6f401;fill-opacity:1">
            <path
               inkscape:connector-curvature="0"
               id="path5331"
               style="fill:#e6f401;fill-opacity:1;stroke:none"
               d="m 29.707,245.144 0.062,-5.392 c 0.439,0.046 0.876,0.16 1.295,0.354 l 0,0 c 1.276,0.613 2.4,1.891 2.705,3.372 l 0,0 -2.345,6.639 -1.717,-4.973 z" />
          </g>
        </g>
      </g>
    </g>
  </g>
</svg>
