<?xml version="1.0" encoding="UTF-8" standalone="no"?>
<!-- Created with Inkscape (http://www.inkscape.org/) -->

<svg
   xmlns:dc="http://purl.org/dc/elements/1.1/"
   xmlns:cc="http://creativecommons.org/ns#"
   xmlns:rdf="http://www.w3.org/1999/02/22-rdf-syntax-ns#"
   xmlns:svg="http://www.w3.org/2000/svg"
   xmlns="http://www.w3.org/2000/svg"
   xmlns:sodipodi="http://sodipodi.sourceforge.net/DTD/sodipodi-0.dtd"
   xmlns:inkscape="http://www.inkscape.org/namespaces/inkscape"
   width="1066.6666"
   height="213.3658"
   id="svg2"
   version="1.1"
   inkscape:version="0.92.0 r15299"
   sodipodi:docname="ABC News.svg"
   viewBox="0 0 1000 200.03044">
  <defs
     id="defs4" />
  <sodipodi:namedview
     id="base"
     pagecolor="#ffffff"
     bordercolor="#666666"
     borderopacity="1.0"
     inkscape:pageopacity="0.0"
     inkscape:pageshadow="2"
     inkscape:zoom="0.56806641"
     inkscape:cx="32.869406"
     inkscape:cy="76.227022"
     inkscape:document-units="px"
     inkscape:current-layer="layer1"
     showgrid="false"
     fit-margin-left="0.5"
     fit-margin-bottom="0.5"
     fit-margin-top="0.5"
     fit-margin-right="0.5"
     inkscape:window-width="1920"
     inkscape:window-height="1017"
     inkscape:window-x="-8"
     inkscape:window-y="-8"
     inkscape:window-maximized="1">
    <inkscape:grid
       type="xygrid"
       id="grid2996"
       empspacing="5"
       visible="true"
       enabled="true"
       snapvisiblegridlinesonly="true"
       originx="-89.469795"
       originy="-676.20569"
       spacingx="1"
       spacingy="1" />
  </sodipodi:namedview>
  <metadata
     id="metadata7">
    <rdf:RDF>
      <cc:Work
         rdf:about="">
        <dc:format>image/svg+xml</dc:format>
        <dc:type
           rdf:resource="http://purl.org/dc/dcmitype/StillImage" />
        <dc:title></dc:title>
      </cc:Work>
    </rdf:RDF>
  </metadata>
  <g
     inkscape:label="Layer 1"
     inkscape:groupmode="layer"
     id="layer1"
     transform="translate(-89.469792,-176.12606)">
    <path
       inkscape:connector-curvature="0"
       id="path3033"
       style="font-style:normal;font-variant:normal;font-weight:bold;font-stretch:normal;font-size:40px;line-height:125%;font-family:ABCSans;-inkscape-font-specification:'ABCSans Bold';letter-spacing:0px;word-spacing:0px;fill:#ffffff;fill-opacity:1;stroke:none"
       d="M 397.35012,371.56866 V 178.93229 h 40.43486 l 77.37696,140.11139 V 178.93229 H 549.5517 V 371.56866 H 507.50486 L 431.7399,235.89034 v 135.67832 z" />
    <path
       inkscape:connector-curvature="0"
       id="path3035"
       style="font-style:normal;font-variant:normal;font-weight:bold;font-stretch:normal;font-size:40px;line-height:125%;font-family:ABCSans;-inkscape-font-specification:'ABCSans Bold';letter-spacing:0px;word-spacing:0px;fill:#ffffff;fill-opacity:1;stroke:none"
       d="M 566.63544,371.56866 V 178.93229 h 117.27444 l -4.16439,28.61333 h -78.98895 v 49.83831 h 76.30228 v 29.41935 h -76.30228 v 55.34605 h 83.69072 v 29.41933 z" />
    <path
       inkscape:connector-curvature="0"
       id="path3037"
       style="font-style:normal;font-variant:normal;font-weight:bold;font-stretch:normal;font-size:40px;line-height:125%;font-family:ABCSans;-inkscape-font-specification:'ABCSans Bold';letter-spacing:0px;word-spacing:0px;fill:#ffffff;fill-opacity:1;stroke:none"
       d="m 695.84898,178.93229 h 36.40479 l 35.19579,152.73888 h 1.07468 l 35.73308,-152.73888 h 33.04643 l 37.07641,152.73888 h 1.20909 l 33.71806,-152.73888 h 36.67343 L 896.94845,371.56866 H 856.24501 L 821.04923,237.36799 786.12208,371.56866 h -40.97216 z" />
    <path
       sodipodi:nodetypes="cccccccccccccccccsscccccccccscccccccccccssccssc"
       inkscape:connector-curvature="0"
       id="path3039"
       style="font-style:normal;font-variant:normal;font-weight:bold;font-stretch:normal;font-size:40px;line-height:125%;font-family:ABCSans;-inkscape-font-specification:'ABCSans Bold';letter-spacing:0px;word-spacing:0px;fill:#ffffff;fill-opacity:1;stroke:none"
       d="m 944.29097,351.5979 17.06056,-26.24577 c 0.62726,0.5468 1.54485,1.29869 2.75386,2.25549 1.209,0.957 3.76134,2.62015 7.65716,4.9894 3.89568,2.36953 7.85854,4.44274 11.8886,6.21973 4.03001,1.77714 9.06755,3.41744 15.11272,4.92112 6.04493,1.50372 11.97813,2.25554 17.79943,2.25547 11.6422,7e-5 20.7994,-2.41492 27.4715,-7.24489 6.6718,-4.82997 10.0078,-11.43694 10.0079,-19.82102 -10e-5,-4.10091 -1.1643,-7.81446 -3.4927,-11.14083 -2.3286,-3.32624 -5.4631,-6.15123 -9.4034,-8.47522 -3.9407,-2.32372 -8.4856,-4.48807 -13.6351,-6.493 -5.1496,-2.00486 -10.5453,-4.00969 -16.1873,-6.01476 -5.6421,-2.00479 -11.2843,-4.10077 -16.92625,-6.28803 -5.64211,-2.18706 -11.03787,-4.80708 -16.18733,-7.86006 -5.14958,-3.05271 -9.69454,-6.47023 -13.63505,-10.25227 -3.94052,-3.78178 -7.075,-8.45226 -9.40339,-14.01135 -2.32855,-5.55891 -3.49278,-11.7558 -3.49278,-18.59084 0,-17.40582 5.95555,-30.61981 17.86659,-39.64197 11.91096,-9.02186 27.85206,-13.53285 47.82321,-13.53304 6.8063,1.9e-4 13.7917,0.66096 20.9563,1.98222 7.1644,1.32154 13.4558,2.91632 18.8741,4.78431 5.418,1.86838 10.3437,3.71374 14.7768,5.53619 3.3342,1.37106 6.0731,2.58728 8.2168,3.64875 l -13.4512,26.92967 c -0.9283,-0.4622 -1.9149,-0.94943 -2.96,-1.46206 -3.7167,-1.82237 -10.4111,-4.23736 -20.0831,-7.24481 -9.6722,-3.00726 -18.2248,-4.51092 -25.658,-4.51104 -21.31456,1.2e-4 -31.97172,7.2907 -31.97172,21.87153 0,4.00985 1.16423,7.56403 3.49275,10.66227 2.32839,3.09865 5.48523,5.69578 9.47059,7.79169 3.98518,2.09612 8.55258,4.05552 13.70218,5.87797 5.1494,1.82273 10.5676,3.64545 16.2545,5.4679 5.6868,1.82273 11.3736,3.75921 17.0606,5.8096 5.6867,2.05059 11.1049,4.57948 16.2545,7.58666 5.1494,3.00746 9.7168,6.40205 13.7022,10.1839 3.9851,3.78205 7.142,8.5209 9.4706,14.21646 2.3283,5.69583 3.4926,12.09769 3.4927,19.20592 -0.09,9.84221 -1.9256,18.6592 -5.5077,26.45088 -3.5824,7.79169 -8.5528,14.14809 -14.9112,19.06919 -6.3587,4.92104 -13.7918,8.68019 -22.2997,11.27744 -8.5079,2.59725 -17.8218,3.8958 -27.9416,3.8958 -8.6871,0 -17.195,-0.82012 -25.52363,-2.46051 -8.32887,-1.64026 -15.29189,-3.64518 -20.8891,-6.01464 -5.59734,-2.36937 -10.56776,-4.73876 -14.91119,-7.10822 -4.3435,-2.36946 -7.54519,-4.37425 -9.60499,-6.01463 z" />
    <g
       id="g3028"
       transform="matrix(0.64945939,0,0,0.65404438,89.969792,177.1782)"
       style="fill:#ffffff;fill-opacity:1">
      <path
         id="path3018"
         d="m 57.733,0.28 c 15.151,-0.238 33.573,5.428 46,20.761 5.629,5.446 15.973,31.626 15.973,31.626 l 61.955,164.537 c 7.968,19.756 31.928,21.236 38.963,1.488 l 19.245,-51.893 32.859,86.48 c -15.973,29.158 -31.435,36.305 -49.765,42.967 -21.346,6.68 -46.932,4.477 -65.245,-6.9 -6.086,-3.947 -22.059,-14.318 -32.86,-40.516 L 59.616,66.494 V 232.53 l 24.417,-70.16 31.325,87.586 c -4.569,20.113 -19.116,36.918 -36.021,44.822 -18.495,8.717 -40.554,5.629 -57.276,-4.945 C 5.41,277.479 0.713,262.904 0,236.961 L 0.22,57.365 C 2.12,27.457 21.237,11.173 38.014,3.881 45.671,1.158 48.943,0.417 57.733,0.28 Z"
         inkscape:connector-curvature="0"
         style="fill:#ffffff;fill-opacity:1" />
      <path
         id="path3020"
         d="m 343.146,299.711 c -15.15,0.266 -33.572,-5.428 -46.019,-20.734 -5.629,-5.445 -15.955,-31.625 -15.955,-31.625 L 219.219,82.814 C 211.233,63.03 187.291,61.55 180.255,81.315 L 161.01,133.21 128.15,46.729 c 15.955,-29.131 31.453,-36.305 49.765,-42.984 21.364,-6.68 46.95,-4.45 65.245,6.926 6.104,3.948 22.059,14.319 32.859,40.518 L 341.263,233.5 V 67.49 l -24.397,70.16 -31.344,-87.586 c 4.569,-20.14 19.135,-36.926 36.04,-44.821 18.478,-8.699 40.555,-5.638 57.258,4.943 16.668,12.327 21.347,26.93 22.06,52.845 l -0.237,179.624 c -1.864,29.908 -20.999,46.201 -37.795,53.484 -7.603,2.713 -10.893,3.443 -19.702,3.572 z"
         inkscape:connector-curvature="0"
         style="fill:#ffffff;fill-opacity:1" />
    </g>
  </g>
</svg>
