<?xml version="1.0" encoding="UTF-8" standalone="no"?>
<svg
   xmlns:dc="http://purl.org/dc/elements/1.1/"
   xmlns:cc="http://creativecommons.org/ns#"
   xmlns:rdf="http://www.w3.org/1999/02/22-rdf-syntax-ns#"
   xmlns:svg="http://www.w3.org/2000/svg"
   xmlns="http://www.w3.org/2000/svg"
   xmlns:sodipodi="http://sodipodi.sourceforge.net/DTD/sodipodi-0.dtd"
   xmlns:inkscape="http://www.inkscape.org/namespaces/inkscape"
   width="653.10248pt"
   height="308.18887pt"
   viewBox="0 0 653.10248 308.18888"
   version="1.1"
   id="svg2"
   inkscape:version="0.91 r13725"
   sodipodi:docname="ABC HD.svg">
  <metadata
     id="metadata24">
    <rdf:RDF>
      <cc:Work
         rdf:about="">
        <dc:format>image/svg+xml</dc:format>
        <dc:type
           rdf:resource="http://purl.org/dc/dcmitype/StillImage" />
        <dc:title></dc:title>
      </cc:Work>
    </rdf:RDF>
  </metadata>
  <defs
     id="defs22">
    <linearGradient
       x1="0"
       y1="0"
       x2="1"
       y2="0"
       gradientUnits="userSpaceOnUse"
       gradientTransform="matrix(4.3731976,1.658805,1.658805,-4.3731976,28.643811,244.11951)"
       spreadMethod="pad"
       id="linearGradient5319">
      <stop
         style="stop-opacity:1;stop-color:#009cde"
         offset="0"
         id="stop5321" />
      <stop
         style="stop-opacity:1;stop-color:#009cde"
         offset="0.331288"
         id="stop5323" />
      <stop
         style="stop-opacity:1;stop-color:#009cde"
         offset="0.5"
         id="stop5325" />
      <stop
         style="stop-opacity:1;stop-color:#0089cd"
         offset="0.996054"
         id="stop5327" />
      <stop
         style="stop-opacity:1;stop-color:#0089cd"
         offset="1"
         id="stop5329" />
    </linearGradient>
    <linearGradient
       x1="0"
       y1="0"
       x2="1"
       y2="0"
       gradientUnits="userSpaceOnUse"
       gradientTransform="matrix(4.6184254,1.68609,1.68609,-4.6184254,40.078072,243.99404)"
       spreadMethod="pad"
       id="linearGradient5293">
      <stop
         style="stop-opacity:1;stop-color:#009cde"
         offset="0"
         id="stop5295" />
      <stop
         style="stop-opacity:1;stop-color:#009cde"
         offset="0.331288"
         id="stop5297" />
      <stop
         style="stop-opacity:1;stop-color:#009cde"
         offset="0.5"
         id="stop5299" />
      <stop
         style="stop-opacity:1;stop-color:#0089cd"
         offset="0.996054"
         id="stop5301" />
      <stop
         style="stop-opacity:1;stop-color:#0089cd"
         offset="1"
         id="stop5303" />
    </linearGradient>
    <linearGradient
       x1="0"
       y1="0"
       x2="1"
       y2="0"
       gradientUnits="userSpaceOnUse"
       gradientTransform="matrix(-5.10177,-1.9928851,-1.9928851,5.10177,52.52642,258.33005)"
       spreadMethod="pad"
       id="linearGradient5267">
      <stop
         style="stop-opacity:1;stop-color:#009cde"
         offset="0"
         id="stop5269" />
      <stop
         style="stop-opacity:1;stop-color:#009cde"
         offset="0.331288"
         id="stop5271" />
      <stop
         style="stop-opacity:1;stop-color:#009cde"
         offset="0.5"
         id="stop5273" />
      <stop
         style="stop-opacity:1;stop-color:#0089cd"
         offset="0.996054"
         id="stop5275" />
      <stop
         style="stop-opacity:1;stop-color:#0089cd"
         offset="1"
         id="stop5277" />
    </linearGradient>
    <linearGradient
       x1="0"
       y1="0"
       x2="1"
       y2="0"
       gradientUnits="userSpaceOnUse"
       gradientTransform="matrix(-5.1015452,-2.3913451,-2.3913451,5.1015452,40.835572,258.67344)"
       spreadMethod="pad"
       id="linearGradient5241">
      <stop
         style="stop-opacity:1;stop-color:#009cde"
         offset="0"
         id="stop5243" />
      <stop
         style="stop-opacity:1;stop-color:#009cde"
         offset="0.331288"
         id="stop5245" />
      <stop
         style="stop-opacity:1;stop-color:#009cde"
         offset="0.5"
         id="stop5247" />
      <stop
         style="stop-opacity:1;stop-color:#0089cd"
         offset="0.996054"
         id="stop5249" />
      <stop
         style="stop-opacity:1;stop-color:#0089cd"
         offset="1"
         id="stop5251" />
    </linearGradient>
    <clipPath
       clipPathUnits="userSpaceOnUse"
       id="clipPath5209">
      <path
         d="m 22.677,237.559 35.06,0 0,42.787 -35.06,0 0,-42.787 z"
         id="path5211"
         inkscape:connector-curvature="0" />
    </clipPath>
  </defs>
  <sodipodi:namedview
     pagecolor="#ffffff"
     bordercolor="#666666"
     borderopacity="1"
     objecttolerance="10"
     gridtolerance="10"
     guidetolerance="10"
     inkscape:pageopacity="0"
     inkscape:pageshadow="2"
     inkscape:window-width="1920"
     inkscape:window-height="1017"
     id="namedview20"
     showgrid="false"
     fit-margin-top="0"
     fit-margin-left="0"
     fit-margin-right="0"
     fit-margin-bottom="0"
     inkscape:zoom="0.56093177"
     inkscape:cx="47.008973"
     inkscape:cy="393.86843"
     inkscape:window-x="-8"
     inkscape:window-y="-8"
     inkscape:window-maximized="1"
     inkscape:current-layer="svg2" />
  <g
     id="g4190"
     transform="matrix(1.9956908,0,0,1.9956908,2.0687331e-6,-0.30395669)">
    <g
       transform="matrix(6.7966038,0,0,-6.7966038,-170.20735,1783.8689)"
       id="g5205">
      <g
         clip-path="url(#clipPath5209)"
         id="g5207">
        <g
           transform="translate(53.7377,261.6567)"
           id="g5213">
          <path
             inkscape:connector-curvature="0"
             id="path5215"
             style="fill:#009cde;fill-opacity:1;fill-rule:nonzero;stroke:none"
             d="M 0,0 C -0.82,0.544 -1.845,0.837 -2.863,0.774 -3.368,0.744 -3.871,0.627 -4.345,0.407 -5.62,-0.206 -6.697,-1.483 -7.05,-3.015 l 2.349,-6.637 1.814,5.096 0.076,0.211 0,-12.559 -4.953,13.787 c -0.813,1.991 -2.041,2.807 -2.503,3.117 -0.81,0.479 -1.816,0.747 -2.839,0.783 -0.026,0.001 -0.052,-0.001 -0.078,0 -0.127,0.003 -0.254,0.004 -0.381,0 -0.564,-0.019 -1.125,-0.109 -1.653,-0.275 -1.375,-0.508 -2.55,-1.072 -3.778,-3.269 l 2.497,-6.535 1.486,3.933 c 0.255,0.742 0.843,1.085 1.437,1.057 0.592,-0.027 1.19,-0.423 1.47,-1.161 l 4.699,-12.509 c 0,0 0.82,-1.988 1.225,-2.398 0.971,-1.124 2.349,-1.582 3.471,-1.53 0.665,0 0.922,0.049 1.53,0.253 1.279,0.563 2.706,1.787 2.861,4.037 l 0,13.627 C 1.633,-2.045 1.271,-0.921 0,0" />
        </g>
        <g
           transform="translate(41.784,245.8758)"
           id="g5217">
          <path
             inkscape:connector-curvature="0"
             id="path5219"
             style="fill:#009cde;fill-opacity:1;fill-rule:nonzero;stroke:none"
             d="m 0,0 c -0.293,-0.776 -0.924,-1.112 -1.547,-1.047 -0.563,0.06 -1.12,0.448 -1.412,1.151 L -7.657,12.56 c 0,0 -0.813,1.995 -1.225,2.4 -0.92,1.175 -2.349,1.583 -3.472,1.583 -0.66,0 -0.919,-0.051 -1.477,-0.254 -1.28,-0.562 -2.759,-1.789 -2.91,-4.084 l 0,-13.582 c 0.048,-1.99 0.404,-3.063 1.683,-4.031 0.903,-0.543 1.982,-0.828 3.043,-0.714 0.44,0.046 0.876,0.16 1.296,0.354 1.274,0.614 2.399,1.89 2.704,3.372 l -2.344,6.638 -1.718,-4.972 -0.118,-0.341 0,12.611 4.899,-13.834 c 0.815,-1.993 2.038,-2.76 2.498,-3.063 0.937,-0.59 2.13,-0.842 3.31,-0.789 0.561,0.025 1.119,0.112 1.645,0.276 1.378,0.513 2.55,1.021 3.775,3.22 L 1.432,3.935 0,0 Z" />
        </g>
        <g
           transform="translate(38.8248,245.978)"
           id="g5221">
          <path
             inkscape:connector-curvature="0"
             id="path5223"
             style="fill:#009cde;fill-opacity:1;fill-rule:nonzero;stroke:none"
             d="m 0,0 -4.698,12.457 c 0,0 -0.813,1.994 -1.225,2.399 -0.919,1.175 -2.349,1.583 -3.472,1.583 -0.66,0 -0.919,-0.051 -1.477,-0.253 -1.279,-0.563 -2.759,-1.789 -2.909,-4.085 l 0,-13.581 c 0.047,-1.991 0.403,-3.064 1.682,-4.032 0.903,-0.543 1.983,-0.828 3.044,-0.714 l -0.063,5.392 -0.118,-0.341 0,12.611 4.9,-13.834 c 0.814,-1.993 2.037,-2.76 2.497,-3.063 0.937,-0.59 2.13,-0.842 3.311,-0.789 l -0.06,5.099 C 0.849,-1.091 0.292,-0.703 0,0" />
        </g>
        <g
           transform="translate(53.7377,261.6549)"
           id="g5225">
          <path
             inkscape:connector-curvature="0"
             id="path5227"
             style="fill:#009cde;fill-opacity:1;fill-rule:nonzero;stroke:none"
             d="m 0,0 c -0.82,0.544 -1.845,0.837 -2.863,0.775 l -0.024,-5.331 0.076,0.212 0,-12.559 -4.953,13.786 c -0.813,1.991 -2.041,2.807 -2.503,3.117 -0.81,0.479 -1.816,0.747 -2.839,0.783 -0.026,0.001 -0.052,0 -0.078,0 l -0.392,-5.088 c 0.592,-0.028 1.19,-0.424 1.47,-1.162 l 4.699,-12.509 c 0,0 0.82,-1.988 1.225,-2.398 0.971,-1.124 2.349,-1.582 3.471,-1.53 0.665,0 0.922,0.049 1.53,0.254 1.279,0.562 2.706,1.786 2.861,4.036 l 0,13.627 C 1.633,-2.046 1.271,-0.921 0,0" />
        </g>
      </g>
    </g>
    <g
       transform="matrix(6.7966038,0,0,-6.7966038,-170.20735,1783.8689)"
       id="g5229">
      <g
         id="g5231">
        <g
           id="g5237">
          <g
             id="g5239">
            <path
               inkscape:connector-curvature="0"
               id="path5253"
               style="fill:url(#linearGradient5241);stroke:none"
               d="m 40.173,262.438 c -0.564,-0.019 -1.126,-0.109 -1.653,-0.274 l 0,0 c -1.375,-0.509 -2.55,-1.072 -3.778,-3.271 l 0,0 2.496,-6.534 1.486,3.933 c 0.256,0.742 0.844,1.086 1.438,1.058 l 0,0 0.391,5.088 c -0.07,0.002 -0.141,0.003 -0.212,0.003 l 0,0 c -0.056,0 -0.112,-10e-4 -0.168,-0.003" />
          </g>
        </g>
      </g>
    </g>
    <g
       transform="matrix(6.7966038,0,0,-6.7966038,-170.20735,1783.8689)"
       id="g5255">
      <g
         id="g5257">
        <g
           id="g5263">
          <g
             id="g5265">
            <path
               inkscape:connector-curvature="0"
               id="path5279"
               style="fill:url(#linearGradient5267);stroke:none"
               d="m 49.392,262.062 c -1.274,-0.613 -2.351,-1.89 -2.704,-3.422 l 0,0 2.349,-6.637 1.814,5.095 0.024,5.331 c -0.505,-0.03 -1.008,-0.147 -1.483,-0.367" />
          </g>
        </g>
      </g>
    </g>
    <g
       transform="matrix(6.7966038,0,0,-6.7966038,-170.20735,1783.8689)"
       id="g5281">
      <g
         id="g5283">
        <g
           id="g5289">
          <g
             id="g5291">
            <path
               inkscape:connector-curvature="0"
               id="path5305"
               style="fill:url(#linearGradient5293);stroke:none"
               d="m 41.784,245.874 c -0.293,-0.775 -0.924,-1.112 -1.547,-1.047 l 0,0 0.06,-5.098 0.018,0 c 0.555,0.026 1.106,0.113 1.627,0.276 l 0,0 c 1.377,0.512 2.55,1.02 3.774,3.219 l 0,0 -2.5,6.585 -1.432,-3.935 z" />
          </g>
        </g>
      </g>
    </g>
    <g
       transform="matrix(6.7966038,0,0,-6.7966038,-170.20735,1783.8689)"
       id="g5307">
      <g
         id="g5309">
        <g
           id="g5315">
          <g
             id="g5317">
            <path
               inkscape:connector-curvature="0"
               id="path5331"
               style="fill:url(#linearGradient5319);stroke:none"
               d="m 29.707,245.144 0.062,-5.392 c 0.439,0.046 0.876,0.16 1.295,0.354 l 0,0 c 1.276,0.613 2.4,1.891 2.705,3.372 l 0,0 -2.345,6.639 -1.717,-4.973 z" />
          </g>
        </g>
      </g>
    </g>
  </g>
  <path
     style="opacity:1;fill:#009cde;fill-opacity:1"
     inkscape:connector-curvature="0"
     id="path9"
     d="m 441.6125,46.435668 c 9.82,0 19.65,0 29.48,0 0.02,16.040018 -0.01,32.080037 0.02,48.120052 13.24,0 26.49,0.02 39.73,0 0.02,-16.040015 0,-32.080034 0.01,-48.110052 9.77,-0.01 19.54,-0.01 29.31,0 0.01,41.640045 0.01,83.280092 0,124.930142 -9.77,0.01 -19.54,0.01 -29.3,-0.01 -0.02,-16.57002 0,-33.15004 -0.02,-49.73006 -13.24,-0.01 -26.48,0 -39.73,-0.01 -0.03,16.58002 0.01,33.16004 -0.02,49.75006 -9.83,0.01 -19.66,0.01 -29.49,0 0,-41.65005 -0.01,-83.290097 0.01,-124.940142 z" />
  <path
     style="opacity:1;fill:#009cde;fill-opacity:1"
     inkscape:connector-curvature="0"
     id="path11"
     d="m 549.2325,46.445668 c 12.28,-0.02 24.57,-0.01 36.85,-0.01 6.64,0.03 13.33,-0.25 19.93,0.720001 11.46,1.470001 22.88,5.840007 31.28,13.980015 10.78,10.210012 15.1,25.330027 15.81,39.780046 l 0,9.53001 c -0.84,15.46002 -4.95,31.55004 -15.66,43.22005 -10.61,11.85001 -26.73,17.32002 -42.32,17.66002 -15.3,0.12 -30.6,0.03 -45.89,0.04 -0.02,-41.64005 -0.01,-83.280097 0,-124.920142 m 29.5,24.320027 c 0,25.080027 0,50.150055 -0.01,75.220085 6.16,-0.07 12.34,0.28 18.49,-0.3 8.31,-0.75 16.51,-5.11001 20.7,-12.52001 5.61,-9.86002 6.08,-21.68003 5.47,-32.75004 -0.64,-9.430014 -3.53,-19.970026 -12.02,-25.300029 -9.76,-6.090008 -21.74,-3.970005 -32.63,-4.350006 z" />
</svg>
