<?xml version="1.0" encoding="UTF-8" standalone="no"?>
<!-- Created with Inkscape (http://www.inkscape.org/) -->

<svg
   xmlns:dc="http://purl.org/dc/elements/1.1/"
   xmlns:cc="http://creativecommons.org/ns#"
   xmlns:rdf="http://www.w3.org/1999/02/22-rdf-syntax-ns#"
   xmlns:svg="http://www.w3.org/2000/svg"
   xmlns="http://www.w3.org/2000/svg"
   xmlns:sodipodi="http://sodipodi.sourceforge.net/DTD/sodipodi-0.dtd"
   xmlns:inkscape="http://www.inkscape.org/namespaces/inkscape"
   width="282.22223mm"
   height="295.89041mm"
   viewBox="0 0 999.99998 1048.4306"
   id="svg2"
   version="1.1"
   inkscape:version="0.91 r13725"
   sodipodi:docname="ABC Me.svg">
  <defs
     id="defs4">
    <clipPath
       clipPathUnits="userSpaceOnUse"
       id="clipPath5209">
      <path
         d="m 22.677,237.559 35.06,0 0,42.787 -35.06,0 0,-42.787 z"
         id="path5211"
         inkscape:connector-curvature="0" />
    </clipPath>
  </defs>
  <sodipodi:namedview
     id="base"
     pagecolor="#ffffff"
     bordercolor="#666666"
     borderopacity="1.0"
     inkscape:pageopacity="0.0"
     inkscape:pageshadow="2"
     inkscape:zoom="0.49497474"
     inkscape:cx="148.42811"
     inkscape:cy="906.08879"
     inkscape:document-units="px"
     inkscape:current-layer="layer1"
     showgrid="false"
     fit-margin-top="0"
     fit-margin-left="0"
     fit-margin-right="0"
     fit-margin-bottom="0"
     inkscape:window-width="1920"
     inkscape:window-height="1017"
     inkscape:window-x="-8"
     inkscape:window-y="-8"
     inkscape:window-maximized="1" />
  <metadata
     id="metadata7">
    <rdf:RDF>
      <cc:Work
         rdf:about="">
        <dc:format>image/svg+xml</dc:format>
        <dc:type
           rdf:resource="http://purl.org/dc/dcmitype/StillImage" />
        <dc:title />
      </cc:Work>
    </rdf:RDF>
  </metadata>
  <g
     inkscape:label="Layer 1"
     inkscape:groupmode="layer"
     id="layer1"
     transform="translate(350.60941,-140.51789)">
    <path
       style="opacity:1;fill:#e6f401;fill-opacity:1;stroke:none;stroke-opacity:0"
       id="path4230"
       sodipodi:type="arc"
       sodipodi:cx="136.9731"
       sodipodi:cy="415.60699"
       sodipodi:rx="274.4725"
       sodipodi:ry="275.0885"
       sodipodi:start="0"
       sodipodi:end="6.1387419"
       sodipodi:open="true"
       d="M 411.4456,415.60699 A 274.4725,275.0885 0 0 1 146.88238,690.51616 274.4725,275.0885 0 0 1 -136.7839,435.45709 274.4725,275.0885 0 0 1 107.29692,142.13113 274.4725,275.0885 0 0 1 408.58729,376.0103" />
    <g
       id="g4219"
       transform="matrix(14.134296,0,0,-14.31547,-450.31222,4019.7405)"
       style="fill:#3c3d41;fill-opacity:1">
      <g
         transform="translate(1.2497713,0.74986281)"
         id="g5205"
         style="fill:#3c3d41;fill-opacity:1">
        <g
           clip-path="url(#clipPath5209)"
           id="g5207"
           style="fill:#3c3d41;fill-opacity:1">
          <g
             transform="translate(53.7377,261.6567)"
             id="g5213"
             style="fill:#3c3d41;fill-opacity:1">
            <path
               inkscape:connector-curvature="0"
               id="path5215"
               style="fill:#3c3d41;fill-opacity:1;fill-rule:nonzero;stroke:none"
               d="M 0,0 C -0.82,0.544 -1.845,0.837 -2.863,0.774 -3.368,0.744 -3.871,0.627 -4.345,0.407 -5.62,-0.206 -6.697,-1.483 -7.05,-3.015 l 2.349,-6.637 1.814,5.096 0.076,0.211 0,-12.559 -4.953,13.787 c -0.813,1.991 -2.041,2.807 -2.503,3.117 -0.81,0.479 -1.816,0.747 -2.839,0.783 -0.026,0.001 -0.052,-0.001 -0.078,0 -0.127,0.003 -0.254,0.004 -0.381,0 -0.564,-0.019 -1.125,-0.109 -1.653,-0.275 -1.375,-0.508 -2.55,-1.072 -3.778,-3.269 l 2.497,-6.535 1.486,3.933 c 0.255,0.742 0.843,1.085 1.437,1.057 0.592,-0.027 1.19,-0.423 1.47,-1.161 l 4.699,-12.509 c 0,0 0.82,-1.988 1.225,-2.398 0.971,-1.124 2.349,-1.582 3.471,-1.53 0.665,0 0.922,0.049 1.53,0.253 1.279,0.563 2.706,1.787 2.861,4.037 l 0,13.627 C 1.633,-2.045 1.271,-0.921 0,0" />
          </g>
          <g
             transform="translate(41.784,245.8758)"
             id="g5217"
             style="fill:#3c3d41;fill-opacity:1">
            <path
               inkscape:connector-curvature="0"
               id="path5219"
               style="fill:#3c3d41;fill-opacity:1;fill-rule:nonzero;stroke:none"
               d="m 0,0 c -0.293,-0.776 -0.924,-1.112 -1.547,-1.047 -0.563,0.06 -1.12,0.448 -1.412,1.151 L -7.657,12.56 c 0,0 -0.813,1.995 -1.225,2.4 -0.92,1.175 -2.349,1.583 -3.472,1.583 -0.66,0 -0.919,-0.051 -1.477,-0.254 -1.28,-0.562 -2.759,-1.789 -2.91,-4.084 l 0,-13.582 c 0.048,-1.99 0.404,-3.063 1.683,-4.031 0.903,-0.543 1.982,-0.828 3.043,-0.714 0.44,0.046 0.876,0.16 1.296,0.354 1.274,0.614 2.399,1.89 2.704,3.372 l -2.344,6.638 -1.718,-4.972 -0.118,-0.341 0,12.611 4.899,-13.834 c 0.815,-1.993 2.038,-2.76 2.498,-3.063 0.937,-0.59 2.13,-0.842 3.31,-0.789 0.561,0.025 1.119,0.112 1.645,0.276 1.378,0.513 2.55,1.021 3.775,3.22 L 1.432,3.935 0,0 Z" />
          </g>
          <g
             transform="translate(38.8248,245.978)"
             id="g5221"
             style="fill:#3c3d41;fill-opacity:1">
            <path
               inkscape:connector-curvature="0"
               id="path5223"
               style="fill:#3c3d41;fill-opacity:1;fill-rule:nonzero;stroke:none"
               d="m 0,0 -4.698,12.457 c 0,0 -0.813,1.994 -1.225,2.399 -0.919,1.175 -2.349,1.583 -3.472,1.583 -0.66,0 -0.919,-0.051 -1.477,-0.253 -1.279,-0.563 -2.759,-1.789 -2.909,-4.085 l 0,-13.581 c 0.047,-1.991 0.403,-3.064 1.682,-4.032 0.903,-0.543 1.983,-0.828 3.044,-0.714 l -0.063,5.392 -0.118,-0.341 0,12.611 4.9,-13.834 c 0.814,-1.993 2.037,-2.76 2.497,-3.063 0.937,-0.59 2.13,-0.842 3.311,-0.789 l -0.06,5.099 C 0.849,-1.091 0.292,-0.703 0,0" />
          </g>
          <g
             transform="translate(53.7377,261.6549)"
             id="g5225"
             style="fill:#3c3d41;fill-opacity:1">
            <path
               inkscape:connector-curvature="0"
               id="path5227"
               style="fill:#3c3d41;fill-opacity:1;fill-rule:nonzero;stroke:none"
               d="m 0,0 c -0.82,0.544 -1.845,0.837 -2.863,0.775 l -0.024,-5.331 0.076,0.212 0,-12.559 -4.953,13.786 c -0.813,1.991 -2.041,2.807 -2.503,3.117 -0.81,0.479 -1.816,0.747 -2.839,0.783 -0.026,0.001 -0.052,0 -0.078,0 l -0.392,-5.088 c 0.592,-0.028 1.19,-0.424 1.47,-1.162 l 4.699,-12.509 c 0,0 0.82,-1.988 1.225,-2.398 0.971,-1.124 2.349,-1.582 3.471,-1.53 0.665,0 0.922,0.049 1.53,0.254 1.279,0.562 2.706,1.786 2.861,4.036 l 0,13.627 C 1.633,-2.046 1.271,-0.921 0,0" />
          </g>
        </g>
      </g>
      <g
         transform="translate(1.2497713,0.74986281)"
         id="g5229"
         style="fill:#3c3d41;fill-opacity:1">
        <g
           id="g5231"
           style="fill:#3c3d41;fill-opacity:1">
          <g
             id="g5237"
             style="fill:#3c3d41;fill-opacity:1">
            <g
               id="g5239"
               style="fill:#3c3d41;fill-opacity:1">
              <path
                 inkscape:connector-curvature="0"
                 id="path5253"
                 style="fill:#3c3d41;fill-opacity:1;stroke:none"
                 d="m 40.173,262.438 c -0.564,-0.019 -1.126,-0.109 -1.653,-0.274 l 0,0 c -1.375,-0.509 -2.55,-1.072 -3.778,-3.271 l 0,0 2.496,-6.534 1.486,3.933 c 0.256,0.742 0.844,1.086 1.438,1.058 l 0,0 0.391,5.088 c -0.07,0.002 -0.141,0.003 -0.212,0.003 l 0,0 c -0.056,0 -0.112,-10e-4 -0.168,-0.003" />
            </g>
          </g>
        </g>
      </g>
      <g
         transform="translate(1.2497713,0.74986281)"
         id="g5255"
         style="fill:#3c3d41;fill-opacity:1">
        <g
           id="g5257"
           style="fill:#3c3d41;fill-opacity:1">
          <g
             id="g5263"
             style="fill:#3c3d41;fill-opacity:1">
            <g
               id="g5265"
               style="fill:#3c3d41;fill-opacity:1">
              <path
                 inkscape:connector-curvature="0"
                 id="path5279"
                 style="fill:#3c3d41;fill-opacity:1;stroke:none"
                 d="m 49.392,262.062 c -1.274,-0.613 -2.351,-1.89 -2.704,-3.422 l 0,0 2.349,-6.637 1.814,5.095 0.024,5.331 c -0.505,-0.03 -1.008,-0.147 -1.483,-0.367" />
            </g>
          </g>
        </g>
      </g>
      <g
         transform="translate(1.2497713,0.74986281)"
         id="g5281"
         style="fill:#3c3d41;fill-opacity:1">
        <g
           id="g5283"
           style="fill:#3c3d41;fill-opacity:1">
          <g
             id="g5289"
             style="fill:#3c3d41;fill-opacity:1">
            <g
               id="g5291"
               style="fill:#3c3d41;fill-opacity:1">
              <path
                 inkscape:connector-curvature="0"
                 id="path5305"
                 style="fill:#3c3d41;fill-opacity:1;stroke:none"
                 d="m 41.784,245.874 c -0.293,-0.775 -0.924,-1.112 -1.547,-1.047 l 0,0 0.06,-5.098 0.018,0 c 0.555,0.026 1.106,0.113 1.627,0.276 l 0,0 c 1.377,0.512 2.55,1.02 3.774,3.219 l 0,0 -2.5,6.585 -1.432,-3.935 z" />
            </g>
          </g>
        </g>
      </g>
      <g
         transform="translate(1.2497713,0.74986281)"
         id="g5307"
         style="fill:#3c3d41;fill-opacity:1">
        <g
           id="g5309"
           style="fill:#3c3d41;fill-opacity:1">
          <g
             id="g5315"
             style="fill:#3c3d41;fill-opacity:1">
            <g
               id="g5317"
               style="fill:#3c3d41;fill-opacity:1">
              <path
                 inkscape:connector-curvature="0"
                 id="path5331"
                 style="fill:#3c3d41;fill-opacity:1;stroke:none"
                 d="m 29.707,245.144 0.062,-5.392 c 0.439,0.046 0.876,0.16 1.295,0.354 l 0,0 c 1.276,0.613 2.4,1.891 2.705,3.372 l 0,0 -2.345,6.639 -1.717,-4.973 z" />
            </g>
          </g>
        </g>
      </g>
    </g>
    <path
       style="color:#000000;font-style:normal;font-variant:normal;font-weight:normal;font-stretch:normal;font-size:medium;line-height:normal;font-family:sans-serif;text-indent:0;text-align:start;text-decoration:none;text-decoration-line:none;text-decoration-style:solid;text-decoration-color:#000000;letter-spacing:normal;word-spacing:normal;text-transform:none;direction:ltr;block-progression:tb;writing-mode:lr-tb;baseline-shift:baseline;text-anchor:start;white-space:normal;clip-rule:nonzero;display:inline;overflow:visible;visibility:visible;opacity:1;isolation:auto;mix-blend-mode:normal;color-interpolation:sRGB;color-interpolation-filters:linearRGB;solid-color:#000000;solid-opacity:1;fill:#ffff00;fill-opacity:1;fill-rule:nonzero;stroke:none;stroke-width:33.79999924;stroke-linecap:butt;stroke-linejoin:miter;stroke-miterlimit:4;stroke-dasharray:none;stroke-dashoffset:0;stroke-opacity:1;color-rendering:auto;image-rendering:auto;shape-rendering:auto;text-rendering:auto;enable-background:accumulate"
       d="m -350.53193,994.8738 c 0.0138,0.0104 0.0159,0.67921 0.0276,0.88122 -0.0106,-0.0561 -0.034,-0.17716 -0.0435,-0.22613 -0.0329,-0.16967 -0.0499,-0.27135 -0.0616,-0.33435 0.007,0.0343 0.0425,-0.34673 0.0775,-0.32074 z"
       id="path4898"
       inkscape:connector-curvature="0" />
    <path
       style="color:#000000;font-style:normal;font-variant:normal;font-weight:normal;font-stretch:normal;font-size:medium;line-height:normal;font-family:sans-serif;text-indent:0;text-align:start;text-decoration:none;text-decoration-line:none;text-decoration-style:solid;text-decoration-color:#000000;letter-spacing:normal;word-spacing:normal;text-transform:none;direction:ltr;block-progression:tb;writing-mode:lr-tb;baseline-shift:baseline;text-anchor:start;white-space:normal;clip-rule:nonzero;display:inline;overflow:visible;visibility:visible;opacity:1;isolation:auto;mix-blend-mode:normal;color-interpolation:sRGB;color-interpolation-filters:linearRGB;solid-color:#000000;solid-opacity:1;fill:#ffff00;fill-opacity:1;fill-rule:nonzero;stroke:none;stroke-width:33.79999924;stroke-linecap:butt;stroke-linejoin:miter;stroke-miterlimit:4;stroke-dasharray:none;stroke-dashoffset:0;stroke-opacity:1;color-rendering:auto;image-rendering:auto;shape-rendering:auto;text-rendering:auto;enable-background:accumulate"
       d="m -53.347086,1188.8698 c 0,0 -0.0011,0.01 -0.0021,0.01 0.0021,0.01 0.0085,0.045 0.0096,0.051 0.0053,0.027 0.0064,0.033 -0.0074,-0.055 z"
       id="path4862"
       inkscape:connector-curvature="0" />
    <path
       style="fill:#e6f401;fill-opacity:1;fill-rule:evenodd;stroke:none;stroke-width:1px;stroke-linecap:butt;stroke-linejoin:miter;stroke-opacity:1"
       d="M -255.04897,1188.945 -350.60947,713.79935 -229.16769,689.74133 -57.953985,850.12806 9.7346117,703.77517 C 55.629399,720.65107 100.64997,738.23991 184.92957,723.82351 L 258.5911,1080.6841 117.24096,1110.7565 75.432587,904.2586 -8.1831144,1086.6985 -155.50616,954.37943 l 41.80838,202.48827 z"
       id="path4931"
       inkscape:connector-curvature="0"
       sodipodi:nodetypes="ccccccccccccc" />
    <path
       style="fill:#e6f401;fill-opacity:1;fill-rule:evenodd;stroke:none;stroke-width:1.00000012px;stroke-linecap:butt;stroke-linejoin:miter;stroke-opacity:1"
       d="m 296.29723,1074.7911 -71.5498,-358.9869 c 60.05221,-22.56655 133.08489,-53.16253 187.26084,-158.38191 l 139.23946,-28.06767 15.22285,125.13014 -205.39951,41.39271 10.87938,52.12568 193.2327,-38.21346 22.72433,111.09632 -193.81588,39.97507 13.35226,56.96578 215.01271,-44.5928 26.34334,127.25654 z"
       id="path4933"
       inkscape:connector-curvature="0"
       sodipodi:nodetypes="cccccccccccccc" />
  </g>
</svg>
