<svg id="b" version="1.1" viewBox="0 0 110.47 112.58" xmlns="http://www.w3.org/2000/svg">
 <defs id="c">
  <clipPath id="a">
   <path id="d" d="m22.677 237.56h35.06v42.787h-35.06v-42.787z"/>
  </clipPath>
 </defs>
 <path id="e" d="m110.27 92.726-3.5054-16.087-23.377 4.6757-0.60438-2.8471 21.202-4.2127-3.2395-14.93-21.202 4.2359-0.60438-2.8239 22.338-4.4442-1.3296-16.504-15.206 3.0554h-0.07253c1.523-3.5878 2.3934-7.5227 2.3934-11.643 0-17.106-14.529-30.994-32.371-30.994-14.602 0-26.98 9.305-30.993 22.036-0.89448 2.8471-1.378 5.833-1.378 8.9578 0 12.268 7.4943 22.915 18.325 27.915v0.02315l-6.4064 13.749-18.446-16.342-15.593 3.1248 11.459 52.705 18.494-3.6804-4.0614-18.656 14.674 12.823 8.1229-17.36 4.0614 18.656 18.494-3.7035z" fill="#e6f401" fill-rule="evenodd"/>
 <path id="f" d="m54.557 1.156c-14.037 0-25.936 8.9596-29.794 21.216-0.85989 2.741-1.3245 5.6156-1.3245 8.624 0 11.811 7.2055 22.061 17.617 26.874 19.403 7.5914 36.236-2.6125 42.319-15.665 1.4641-3.4541 2.3011-7.2428 2.3011-11.209 0-16.468-13.967-29.84-31.118-29.84z" fill="#3c3d41"/>
 <path id="g" d="m110.47 92.854-3.5182-16.146-23.462 4.6927-0.60658-2.8574 21.279-4.228-3.2512-14.984-21.279 4.2513-0.60658-2.8342 22.419-4.4603-1.3345-16.564-15.261 3.0665h-0.07279c1.5286-3.6008 2.402-7.5501 2.402-11.685 0-17.168-14.582-31.106-32.488-31.106-14.655 0-27.078 9.3389-31.105 22.116-0.89774 2.8574-1.383 5.8542-1.383 8.9904 0 12.312 7.5216 22.999 18.391 28.017v0.02323l-6.4297 13.799-18.513-16.401-15.65 3.1362 11.501 52.897 18.561-3.6937-4.0762-18.724 14.728 12.87 8.1524-17.423 4.0762 18.724 18.561-3.717zm-85.455-61.818c0-15.658 13.272-28.365 29.601-28.365 16.353 0 29.625 12.707 29.625 28.365s-13.272 28.342-29.625 28.342c-16.329 0-29.601-12.684-29.601-28.342zm30.353 69.739-5.4107-24.904-10.336 22.116-18.683-16.331 5.4107 24.88-12.398 2.4857-10.239-46.996 10.991-2.2069 20.575 18.19 8.1524-17.725c3.4939 1.2312 7.2789 1.9049 11.21 1.9049 1.7227 0 3.4211-0.1398 5.0953-0.39534l0.09705-0.014 7.934 36.51zm7.5458-39.609c8.6134-2.1837 15.844-7.6895 20.09-14.984l0.09705-0.02323 14.097-2.7877 0.84921 10.477-22.807 4.5533 1.8925 8.7348 21.303-4.228 1.9653 9.0833-21.279 4.228 1.8925 8.7348 23.487-4.6927 2.2322 10.222-35.861 7.1784z" fill="#3c3d41" fill-rule="evenodd"/>
 <g id="h" transform="matrix(1.6056 0 0 -1.5396 -12.032 418.65)" fill="#e6f401">
  <g id="i" transform="translate(1.2498 .74986)">
   <g id="j" clip-path="url(#a)" fill="#e6f401">
    <g id="k" transform="translate(53.738 261.66)">
     <path id="l" d="m0 0c-0.82 0.544-1.845 0.837-2.863 0.774-0.505-0.03-1.008-0.147-1.482-0.367-1.275-0.613-2.352-1.89-2.705-3.422l2.349-6.637 1.814 5.096 0.076 0.211v-12.559l-4.953 13.787c-0.813 1.991-2.041 2.807-2.503 3.117-0.81 0.479-1.816 0.747-2.839 0.783-0.026 1e-3 -0.052-1e-3 -0.078 0-0.127 3e-3 -0.254 4e-3 -0.381 0-0.564-0.019-1.125-0.109-1.653-0.275-1.375-0.508-2.55-1.072-3.778-3.269l2.497-6.535 1.486 3.933c0.255 0.742 0.843 1.085 1.437 1.057 0.592-0.027 1.19-0.423 1.47-1.161l4.699-12.509s0.82-1.988 1.225-2.398c0.971-1.124 2.349-1.582 3.471-1.53 0.665 0 0.922 0.049 1.53 0.253 1.279 0.563 2.706 1.787 2.861 4.037v13.627c-0.047 1.942-0.409 3.066-1.68 3.987" fill="#e6f401"/>
    </g>
    <g id="m" transform="translate(41.784 245.88)">
     <path id="n" d="m0 0c-0.293-0.776-0.924-1.112-1.547-1.047-0.563 0.06-1.12 0.448-1.412 1.151l-4.698 12.456s-0.813 1.995-1.225 2.4c-0.92 1.175-2.349 1.583-3.472 1.583-0.66 0-0.919-0.051-1.477-0.254-1.28-0.562-2.759-1.789-2.91-4.084v-13.582c0.048-1.99 0.404-3.063 1.683-4.031 0.903-0.543 1.982-0.828 3.043-0.714 0.44 0.046 0.876 0.16 1.296 0.354 1.274 0.614 2.399 1.89 2.704 3.372l-2.344 6.638-1.718-4.972-0.118-0.341v12.611l4.899-13.834c0.815-1.993 2.038-2.76 2.498-3.063 0.937-0.59 2.13-0.842 3.31-0.789 0.561 0.025 1.119 0.112 1.645 0.276 1.378 0.513 2.55 1.021 3.775 3.22l-2.5 6.585-1.432-3.935z" fill="#e6f401"/>
    </g>
    <g id="o" transform="translate(38.825 245.98)">
     <path id="p" d="m0 0-4.698 12.457s-0.813 1.994-1.225 2.399c-0.919 1.175-2.349 1.583-3.472 1.583-0.66 0-0.919-0.051-1.477-0.253-1.279-0.563-2.759-1.789-2.909-4.085v-13.581c0.047-1.991 0.403-3.064 1.682-4.032 0.903-0.543 1.983-0.828 3.044-0.714l-0.063 5.392-0.118-0.341v12.611l4.9-13.834c0.814-1.993 2.037-2.76 2.497-3.063 0.937-0.59 2.13-0.842 3.311-0.789l-0.06 5.099c-0.563 0.06-1.12 0.448-1.412 1.151" fill="#e6f401"/>
    </g>
    <g id="q" transform="translate(53.738 261.65)">
     <path id="r" d="m0 0c-0.82 0.544-1.845 0.837-2.863 0.775l-0.024-5.331 0.076 0.212v-12.559l-4.953 13.786c-0.813 1.991-2.041 2.807-2.503 3.117-0.81 0.479-1.816 0.747-2.839 0.783-0.026 1e-3 -0.052 0-0.078 0l-0.392-5.088c0.592-0.028 1.19-0.424 1.47-1.162l4.699-12.509s0.82-1.988 1.225-2.398c0.971-1.124 2.349-1.582 3.471-1.53 0.665 0 0.922 0.049 1.53 0.254 1.279 0.562 2.706 1.786 2.861 4.036v13.627c-0.047 1.941-0.409 3.066-1.68 3.987" fill="#e6f401"/>
    </g>
   </g>
  </g>
  <g id="s" transform="translate(1.2498 .74986)">
   <g id="t" fill="#e6f401">
    <g id="u" fill="#e6f401">
     <g id="v" fill="#e6f401">
      <path id="w" d="m40.173 262.44c-0.564-0.019-1.126-0.109-1.653-0.274-1.375-0.509-2.55-1.072-3.778-3.271l2.496-6.534 1.486 3.933c0.256 0.742 0.844 1.086 1.438 1.058l0.391 5.088c-0.07 2e-3 -0.141 3e-3 -0.212 3e-3 -0.056 0-0.112-1e-3 -0.168-3e-3" fill="#e6f401"/>
     </g>
    </g>
   </g>
  </g>
  <g id="x" transform="translate(1.2498 .74986)">
   <g id="y" fill="#e6f401">
    <g id="z" fill="#e6f401">
     <g id="aa" fill="#e6f401">
      <path id="ab" d="m49.392 262.06c-1.274-0.613-2.351-1.89-2.704-3.422l2.349-6.637 1.814 5.095 0.024 5.331c-0.505-0.03-1.008-0.147-1.483-0.367" fill="#e6f401"/>
     </g>
    </g>
   </g>
  </g>
  <g id="ac" transform="translate(1.2498 .74986)">
   <g id="ad" fill="#e6f401">
    <g id="ae" fill="#e6f401">
     <g id="af" fill="#e6f401">
      <path id="ag" d="m41.784 245.87c-0.293-0.775-0.924-1.112-1.547-1.047l0.06-5.098h0.018c0.555 0.026 1.106 0.113 1.627 0.276 1.377 0.512 2.55 1.02 3.774 3.219l-2.5 6.585-1.432-3.935z" fill="#e6f401"/>
     </g>
    </g>
   </g>
  </g>
  <g id="ah" transform="translate(1.2498 .74986)">
   <g id="ai" fill="#e6f401">
    <g id="aj" fill="#e6f401">
     <g id="ak" fill="#e6f401">
      <path id="al" d="m29.707 245.14 0.062-5.392c0.439 0.046 0.876 0.16 1.295 0.354 1.276 0.613 2.4 1.891 2.705 3.372l-2.345 6.639-1.717-4.973z" fill="#e6f401"/>
     </g>
    </g>
   </g>
  </g>
 </g>
</svg>
