<svg height="592.79999pt" viewBox="0 0 1607.2924 592.79998" width="1607.2924pt" xmlns="http://www.w3.org/2000/svg"><g transform="matrix(.8242588 0 0 .8242588 901.93218 -75.353739)"><g fill="#78be20"><path d="m725.33 126.96c-.09-13.81 7.21-26.89 17.72-35.54 10.22 8.47 17.54 21.07 17.69 34.56.5 14.12-7.06 27.54-17.74 36.39-10.37-8.71-17.72-21.65-17.67-35.41z"/><path d="m269.92 123.88c9.73-9.48 23.82-13.08 37.11-12.07 1.36 13.78-2.88 28.48-12.97 38.24-9.74 9.38-23.84 13.2-37.12 11.95-1.22-13.74 2.85-28.4 12.98-38.12z"/><path d="m675.79 121.83c11.54-.96 23.96 2.67 31.7 11.63 6.84 7.73 9.34 18.48 8.5 28.6-11.96 1.17-24.86-2.99-32.47-12.6-6.28-7.69-8.41-17.9-7.73-27.63z"/><path d="m780.55 131.56c7.68-7.7 19.05-10.55 29.68-9.73 1.19 10.9-2.25 22.5-10.05 30.36-7.84 7.65-19.33 10.97-30.1 9.78-.85-10.95 2.25-22.73 10.47-30.41z"/></g><path d="m540.33 121.32c9.03-6.56 23.39-1.56 26.24 9.26 3.28 9.98-4.07 21.36-14.54 22.42-3.48 10.15-6.73 20.38-10.1 30.57l-.96-.3c-4.24-1.39-8.47-2.79-12.71-4.13 2.99-10.33 6.87-20.4 9.77-30.76-7.76-7.25-6.83-21.37 2.3-27.06z"/><path d="m437.56 123.55c5.58-5.89 15.43-6.86 22.07-2.21 6.91 4.39 9.53 14.04 6.15 21.44-.9 2.27-2.95 3.87-3.86 6.11 3.11 10.12 6.73 20.09 9.82 30.23-4.27 1.32-8.51 2.76-12.73 4.23-1.54-.78-1.9-2.67-2.46-4.14-2.81-8.74-5.68-17.45-8.6-26.15-4.42-.82-8.75-2.82-11.5-6.48-5.52-6.5-4.99-17.08 1.11-23.03z"/><path d="m473.2 195.13c20.4-5.81 42.74-4.82 62.46 3.04 16.59 6.51 31.15 17.86 41.87 32.06-51.69-.07-103.39.05-155.08-.06 12.53-16.77 30.61-29.3 50.75-35.04z"/><path d="m214.3 254.39c4.02-4.81 12.28-4.96 16.36-.13 4.93 5.68 5.56 13.73 5.36 20.94-6.94.01-14.51-.59-20.23-4.96-4.81-3.64-5.63-11.39-1.49-15.85z"/><path d="m405.09 268.78c63.24.04 126.47-.04 189.7.04 2.51 12.7 2.39 25.85.06 38.57-63.24.06-126.48.08-189.73 0-2.46-12.73-2.37-25.88-.03-38.61z"/><path d="m215.32 306.35c5.67-4.82 13.58-5.3 20.69-5.39.2 7.14-.39 15.1-5.2 20.8-4.05 5.01-12.58 4.92-16.62-.05-3.75-4.39-3.35-11.62 1.13-15.36z"/><path d="m422.43 346c51.67.04 103.35-.08 155.02.06-10.76 14.37-25.57 25.66-42.31 32.16-15.68 6.26-33.02 7.84-49.67 5.51-24.93-3.58-48.01-17.59-63.04-37.73z"/><path d="m239.55 176.72c20.82-3.14 42.57-.62 61.89 7.83 26.01 11.06 47.45 32.39 58.71 58.31 10.19 23.14 12.17 49.77 5.67 74.2-6.52 25.1-22.18 47.63-43.28 62.68-20.78 15.04-46.84 22.46-72.43 20.85-24.38-1.33-48.15-11-66.64-26.92-19.83-16.98-33.54-41-37.73-66.8-4.31-25.5.37-52.48 13.36-74.88 16.63-29.33 47.07-50.36 80.45-55.27m-23.95 24.85c-20.27 9.55-36.87 26.54-46.05 46.97-9.71 21.23-11.13 46.07-4.13 68.32 6.46 20.82 20.36 39.2 38.56 51.18 15.59 10.4 34.3 15.92 53.02 15.92-.04-63.94.07-127.89-.05-191.84-14.23.35-28.52 3.15-41.35 9.45z" fill="#da281c"/><path d="m471.74 179.12c11.38-3.34 23.39-4.03 35.18-3.51 7.17.63 14.45 1.3 21.34 3.53 4.24 1.34 8.47 2.74 12.71 4.13 32.46 12.03 58.07 40.55 67.38 73.82 6.22 21.8 5.68 45.5-1.53 66.99-10.89 32.86-37.8 59.98-70.72 70.78-35.79 12.39-77.63 5.07-106.9-19.03-17.76-14.21-31-33.99-37.36-55.83-6.42-21.85-6.06-45.63 1.07-67.26 8.28-25.29 25.89-47.38 48.7-61.09 5.52-3.29 11.22-6.42 17.4-8.3 4.22-1.47 8.46-2.91 12.73-4.23m1.46 16.01c-20.14 5.74-38.22 18.27-50.75 35.04 51.69.11 103.39-.01 155.08.06-10.72-14.2-25.28-25.55-41.87-32.06-19.72-7.86-42.06-8.85-62.46-3.04m-68.11 73.65c-2.34 12.73-2.43 25.88.03 38.61 63.25.08 126.49.06 189.73 0 2.33-12.72 2.45-25.87-.06-38.57-63.23-.08-126.46 0-189.7-.04m17.34 77.22c15.03 20.14 38.11 34.15 63.04 37.73 16.65 2.33 33.99.75 49.67-5.51 16.74-6.5 31.55-17.79 42.31-32.16-51.67-.14-103.35-.02-155.02-.06z" fill="#ffcd00"/><path d="m725.54 176.76c22.03-3.4 45.09-.3 65.28 9.22 29.47 13.6 52.35 40.6 60.86 71.94 6.71 24.23 5.11 50.69-4.69 73.87-13.9 33.76-45.25 59.58-81.08 66.67-35.78 7.63-74.97-3.52-101.08-29.22-12.34-11.78-21.8-26.48-27.69-42.47-7.91-21.75-8.88-45.95-2.86-68.28 8.75-33.01 33.5-61.22 65.04-74.31 8.37-3.57 17.22-6 26.22-7.42m-44.11 38.12c20.33 55.95 40.77 111.87 61.04 167.84.26.03.78.09 1.04.12 20.39-55.97 40.89-111.91 61.09-167.94-18.55-16.4-44.09-24.17-68.66-22.37-19.86 1.57-39.47 9.15-54.51 22.35z" fill="#ffa300"/><path d="m215.6 201.57c12.83-6.3 27.12-9.1 41.35-9.45.12 63.95.01 127.9.05 191.84-18.72 0-37.43-5.52-53.02-15.92-18.2-11.98-32.1-30.36-38.56-51.18-7-22.25-5.58-47.09 4.13-68.32 9.18-20.43 25.78-37.42 46.05-46.97m-1.3 52.82c-4.14 4.46-3.32 12.21 1.49 15.85 5.72 4.37 13.29 4.97 20.23 4.96.2-7.21-.43-15.26-5.36-20.94-4.08-4.83-12.34-4.68-16.36.13m1.02 51.96c-4.48 3.74-4.88 10.97-1.13 15.36 4.04 4.97 12.57 5.06 16.62.05 4.81-5.7 5.4-13.66 5.2-20.8-7.11.09-15.02.57-20.69 5.39z" fill="#fecb8a"/><path d="m681.43 214.88c15.04-13.2 34.65-20.78 54.51-22.35 24.57-1.8 50.11 5.97 68.66 22.37-20.2 56.03-40.7 111.97-61.09 167.94-.26-.03-.78-.09-1.04-.12-20.27-55.97-40.71-111.89-61.04-167.84z" fill="#ff671e"/><g fill="#1f80c4"><path d="m746.56 438.76c21.11-1.9 42.81 1.03 62.42 9.19 10.92 4.79 22.16 11.26 27.81 22.26 4.61 8.85 2.59 20.27-4.16 27.46-5.16 5.6-13.34 7.31-20.65 6.3-12.23-1.19-22.23-9.21-33.86-12.41-9.49-2.67-19.65-3.61-29.37-1.74-5.76 1.21-11.88 3.77-14.92 9.11-2.78 4.97-2.03 11.98 2.59 15.61 6.66 5.34 15.33 6.98 23.42 9.01 16.07 3.28 32.39 6.4 47.42 13.23 12.42 5.6 23.84 14.23 30.95 26.03 9.12 15.07 10.58 33.93 6.23 50.78-3.78 14.68-13.26 27.57-25.66 36.17-14.51 10.2-32.26 14.72-49.76 16.01-13.76.66-27.67.34-41.18-2.64-18.12-3.87-35.78-11.81-49.17-24.86-5.51-5.36-9.89-12.4-10.4-20.23-.6-8.6 4.53-16.79 11.58-21.37 6.91-4.35 15.76-4.24 23.26-1.53 6.34 2.1 11.58 6.37 17.5 9.33 13.01 6.86 27.52 12.04 42.43 11.16 7.97-.43 16.42-1.7 22.99-6.59 5.12-3.77 7.39-11.05 4.95-16.98-2.01-5.06-6.81-8.26-11.53-10.51-13.61-6.1-28.79-6.65-42.95-10.86-17.07-4.77-34.19-12.47-45.94-26.18-10.26-11.79-14.47-28.06-12.73-43.45 1.09-15.46 7.83-30.55 19.19-41.19 13.38-12.62 31.46-19.23 49.54-21.11z"/><path d="m175.6 442.74c10.51-6.06 24.77-4.28 33.5 4.16 5.73 5.4 8.99 13.24 8.87 21.12.08 20.42-.01 40.83.04 61.25 27.17-26.92 53.82-54.35 81.06-81.2 10.48-9.64 28.17-9.39 38.4.5 11.68 10.42 11.89 30.62.38 41.24-22.39 20.71-44.77 41.44-67.13 62.2 22.28 21.49 44.82 42.71 67.16 64.14 6.66 6.27 9.61 15.9 8.17 24.88-1.6 11.51-11.12 21.3-22.53 23.39-6.22.97-12.85.48-18.47-2.56-5.43-2.55-9.1-7.47-13.37-11.49-24.56-25.05-49.12-50.11-73.68-75.16-.05 20.61.09 41.24-.07 61.85.12 14.42-12.44 27.5-26.87 27.8-11.18.89-22.33-5.77-27.14-15.83-2.2-4.33-2.97-9.22-2.93-14.03.02-55.67-.01-111.34.02-167-.22-10.27 5.55-20.37 14.59-25.26z"/><path d="m393.54 439.75c12.37-2.81 26.07 3.77 31.43 15.29 1.88 3.67 2.85 7.81 2.83 11.94-.03 57.03 0 114.06-.02 171.09-.28 8.82-5.2 17.28-12.54 22.12-10.03 6.82-24.48 6.21-33.8-1.61-6.47-5.16-10.44-13.32-10.43-21.61-.01-56.68-.02-113.36 0-170.04-.06-12.86 9.92-24.81 22.53-27.18z"/><path d="m479.41 441.58c2.16-.47 4.37-.59 6.58-.6 15.66.04 31.32.01 46.98.02 9.66.09 19.39-.41 29 .95 16.68 2.06 32.99 7.68 47.09 16.87 15.09 9.72 27.51 23.5 35.7 39.46 10.39 20.12 14.09 43.35 11.96 65.8-1.58 17.15-6.82 34.07-15.93 48.74-9.87 16.07-24.28 29.28-41.06 37.87-16.84 8.57-35.86 12.74-54.73 12.31-20.34-.01-40.68.01-61.02 0-12.05-.17-23-9.41-25.91-20.99-1.15-3.9-.84-7.99-.86-11.99.02-54.02-.02-108.05.02-162.07.28-12.48 9.99-23.87 22.18-26.37m34.59 56.21v108.42h34c15.03-.27 30.6-6.01 40.34-17.84 11.28-13.5 14.07-32.45 10.79-49.36-2.19-12.03-8.72-23.33-18.56-30.67-9.89-7.37-22.38-10.48-34.58-10.56-10.66.01-21.33 0-31.99.01z"/><path d="m288.52 704.45c7.04-.04 14.08.01 21.12-.02 14.81 34.78 29.65 69.55 44.38 104.36-8.04.01-16.08-.03-24.13.02-3.16-7.51-6.05-15.13-9.29-22.6l-.49-.34c-14.34-.2-28.69-.03-43.02-.08-3.1 7.68-6.22 15.34-9.37 22.99-7.87.01-15.73.03-23.6-.02 14.83-34.75 29.59-69.54 44.4-104.31m-3.1 60.75c8.92.02 17.84 0 26.77.01-4.49-10.82-8.86-21.69-13.36-32.5-4.62 10.77-8.88 21.69-13.41 32.49z"/><path d="m497.63 710.6c13.05-7.47 28.98-8.64 43.47-5.38 9.62 2.15 18.47 7.34 25.24 14.49-5.05 5.53-9.67 11.45-14.87 16.85-5.89-5.62-13.16-10.17-21.33-11.38-9.21-1.6-19.15 1.59-25.58 8.41-12.53 12.73-12 35.67.93 47.94 5.92 5.73 14.39 8.47 22.56 7.71 9.38-.44 17.65-5.73 24.22-12.1 5.03 4.89 9.95 9.9 14.91 14.86-5.62 5.97-12.1 11.34-19.75 14.48-9.54 3.96-20.17 4.79-30.37 3.68-15.69-1.87-30.35-11.23-38.25-24.97-7.52-12.55-9.17-28.14-5.67-42.23 3.38-13.5 12.35-25.5 24.49-32.36z"/><path d="m597.97 706.93c10.18-7.11 26.22-2.04 30.41 9.7 8.96 21.41 16.36 43.46 25 65 1.74 4.84 9.14 6.47 12.03 1.82 3.31-6.64 4.94-13.99 8.09-20.71 3.98 10.42 7.87 20.87 11.89 31.27-3.3 5.94-7.98 11.41-14.48 13.91-10.3 4.69-23.78 3.4-31.79-5.05-6.2-5.78-8.05-14.31-10.9-21.95-6.28-17.43-12.21-34.99-18.69-52.34.08 18.91-.01 37.81.05 56.72 3.17-7.77 5.05-16.09 8.7-23.64 3.78 10.35 7.34 20.79 11.09 31.15-2.18 9.02-9.95 16.84-19.4 17.68-7.82.58-16.74-2.92-19.93-10.56-1.94-4.35-2-9.22-2.05-13.89.03-20.36-.02-40.72.02-61.08-.07-7.23 3.9-14.16 9.96-18.03z"/><path d="m633.68 720.86c4.39-12.06 18.77-19.16 31.32-16.86 9.92 1.05 17.9 8.82 21.41 17.83 7.77 21.19 15.11 42.54 23.04 63.67.01-18.92-.07-37.84.04-56.76-3.07 8.13-5.66 16.44-8.92 24.49-3.53-10.48-7.48-20.83-10.94-31.33.75-5.67 4.44-10.88 8.99-14.31 7.81-6.02 19.89-4.97 26.85 1.9 4.29 4.28 5.24 10.65 5.32 16.46-.01 21.37.03 42.75-.02 64.12-.19 8.11-5.48 15.62-12.84 18.89-9.68 3.91-22.63.07-26.88-9.93-6.11-13.08-10.41-26.93-15.72-40.35-3.21-8.48-6.33-17-9.57-25.47-1.04-2.89-3.71-5.18-6.81-5.43-2.94-.03-5.45 2.16-6.39 4.84-2.41 6.2-4.65 12.46-7.04 18.67-4.43-9.93-8.01-20.26-11.84-30.43z"/><path d="m369.44 705.22c15.86.01 31.72-.06 47.59.03 9.28.13 19.31 1.71 26.49 8.1 11.02 9.11 11.25 28.22.44 37.59-1.56 1.4-3.36 2.5-5.15 3.59 6.61 3.09 13.64 6.97 16.61 14.07 3.14 7.65 3 16.77-.54 24.27-4.19 8.29-13.15 12.9-21.94 14.65-7.52 1.72-15.26 1.2-22.91 1.27-13.53-.01-27.06.01-40.59-.01 0-34.52 0-69.04 0-103.56m22.56 20.34v21.44c7.34-.01 14.67.02 22.01 0 4.02-.14 8.34-.73 11.59-3.3 4.37-3.52 4.53-10.95.41-14.71-3.34-2.77-7.86-3.44-12.06-3.44-7.32.01-14.63.01-21.95.01m.01 40.75c-.01 7.46-.03 14.92.01 22.39 9.25-.09 18.49.09 27.74-.09 4.85-.22 10.53-1.11 13.45-5.48 2.47-4.16 2-10.34-1.97-13.43-3.44-2.72-8-3.37-12.26-3.38-8.99-.01-17.98.01-26.97-.01z"/></g></g><g fill="#fff" transform="matrix(.53078755 0 0 .53078755 0 .000015)"><path d="m1315.8 168.4c23.8-.4 52.8 8.5 72.4 32.7 8.9 8.6 25.1 49.8 25.1 49.8l97.5 258.9c12.5 31.1 50.2 33.4 61.3 2.3l30.3-81.6 51.7 136.1c-25.1 45.9-49.5 57.1-78.3 67.6-33.6 10.5-73.8 7-102.7-10.9-9.6-6.2-34.7-22.5-51.7-63.7l-102.6-286.9v261.2l38.4-110.4 49.3 137.8c-7.2 31.6-30.1 58.1-56.7 70.5-29.1 13.7-63.8 8.9-90.1-7.8-26.2-19.4-33.6-42.4-34.7-83.2l.3-282.6c3-47.1 33.1-72.7 59.5-84.1 12.1-4.3 17.2-5.4 31-5.7z" fill="#fff"/><path d="m1764.9 639.5c-23.8.4-52.8-8.5-72.4-32.6-8.9-8.6-25.1-49.8-25.1-49.8l-97.5-258.9c-12.6-31.1-50.2-33.5-61.3-2.4l-30.3 81.6-51.7-136.1c25.1-45.8 49.5-57.1 78.3-67.6 33.6-10.5 73.9-7 102.7 10.9 9.6 6.2 34.7 22.5 51.7 63.7l102.7 286.8v-260.9l-38.4 110.4-49.3-137.8c7.2-31.7 30.1-58.1 56.7-70.5 29.1-13.7 63.8-8.9 90.1 7.8 26.2 19.4 33.6 42.4 34.7 83.1l-.4 282.6c-2.9 47.1-33 72.7-59.5 84.1-12 4.3-17.2 5.4-31 5.6z" fill="#fff"/></g><g transform="translate(0 -.000004)"><g stroke-width=".530788"><path d="m121.01956 50.424832c17.62215 0 33.70501 6.475608 46.12544 17.144438l32.90883-38.163625c-21.2315-18.31217-48.83246-29.40563-79.03427-29.40563-24.68162 0-47.664721 7.3779469-66.773072 20.116848l27.813267 42.038374c11.146539-7.431026 24.575465-11.730405 38.959805-11.730405z" fill="#dcfd49"/><path d="m121.01956 191.61432c-39.012884 0-70.594743-31.58186-70.594743-70.59474 0-24.575467 12.579665-46.231599 31.634938-58.864343l-27.813267-42.038374c-32.696513 21.656132-54.246488 58.758182-54.246488 100.902717 0 66.82615 54.193409 121.01956 121.01956 121.01956 32.11265 0 61.30596-12.52659 82.9621-32.90883l-34.55427-36.7305c-12.63275 11.94272-29.67103 19.21451-48.40783 19.21451z" fill="#6bfd5f"/><path d="m95.541759 39.543687a25.212409 25.212409 0 0 1 -25.212409 25.212409 25.212409 25.212409 0 0 1 -25.212408-25.212409 25.212409 25.212409 0 0 1 25.212408-25.212408 25.212409 25.212409 0 0 1 25.212409 25.212408z" fill="#cefd41"/><path d="m210.19187 49.628651a25.212409 25.212409 0 0 1 -25.21241 25.212409 25.212409 25.212409 0 0 1 -25.21241-25.212409 25.212409 25.212409 0 0 1 25.21241-25.212409 25.212409 25.212409 0 0 1 25.21241 25.212409z" fill="#dcfd49"/><path d="m212.84581 189.75656a25.212409 25.212409 0 0 1 -25.21241 25.21241 25.212409 25.212409 0 0 1 -25.21241-25.21241 25.212409 25.212409 0 0 1 25.21241-25.2124 25.212409 25.212409 0 0 1 25.21241 25.2124z" fill="#6bfd5f"/><path d="m452.23099 121.01958c0-66.826156-54.19341-121.019565-121.01956-121.019565-26.85785 0-51.69871 8.7579946-71.76248 23.566967l29.88334 40.605248c11.73041-8.651837 26.22091-13.747398 41.87914-13.747398 39.01289 0 70.59475 31.581859 70.59475 70.594748 0 22.45231-10.5096 42.463-26.85785 55.41422l31.26338 39.54367c28.02558-22.13384 46.01928-56.4758 46.01928-94.95789z" fill="#dcfd49"/><path d="m331.21143 191.61432c-39.01288 0-70.59474-31.58186-70.59474-70.59474h-50.42482c0 66.82615 54.19341 121.01956 121.01956 121.01956 28.34406 0 54.40573-9.76649 75.00028-26.06167l-31.26338-39.54367c-11.9958 9.50109-27.22941 15.18052-43.7369 15.18052z" fill="#6bfd5f"/><path d="m289.33229 64.17223-29.88334-40.605248c-29.88333 22.027684-49.25708 57.484292-49.25708 97.452598h50.42482c0-23.301577 11.30577-44.002291 28.7156-56.84735z" fill="#39fec6"/><circle cx="235.37067" cy="120.2234" fill="#39fdad" r="25.212408"/><circle cx="273.77014" cy="44.287174" fill="#bafd4f" r="25.212408"/><path d="m416.66822 195.49579a25.212408 25.212408 0 0 1 -25.21241 25.21241 25.212408 25.212408 0 0 1 -25.21241-25.21241 25.212408 25.212408 0 0 1 25.21241-25.21241 25.212408 25.212408 0 0 1 25.21241 25.21241z" fill="#cefd41"/><path d="m514.33314 120.2234v25.2124h96.33794c13.85355 0 25.2124-11.35885 25.2124-25.2124 0-13.85356-11.35885-25.212414-25.2124-25.212414h-121.55035c13.85355 0 25.21241 11.358854 25.21241 25.212414z" fill="#39fec6"/><path d="m601.1169 240.97756c13.85356 0 25.21241-11.35885 25.21241-25.21241 0-13.85355-11.35885-25.2124-25.21241-25.2124h-86.78376v50.42481z" fill="#6bfd5f"/><path d="m489.12073 336.51932h121.55035c13.85355 0 25.2124-11.35885 25.2124-25.21241 0-13.85355-11.35885-25.21241-25.2124-25.21241h-96.33794v25.21241c0 13.85356-11.35886 25.21241-25.21241 25.21241z" fill="#dcfd49"/><path d="m463.90832 215.76515v95.54176c0-13.85355 11.35885-25.21241 25.21241-25.21241h25.21241v-45.11694h-25.21241c-13.85356 0-25.21241-11.35885-25.21241-25.21241z" fill="#39fec6"/><path d="m489.12073 145.4358c-13.85356 0-25.21241-11.35885-25.21241-25.2124v95.54175c0-13.85355 11.35885-25.2124 25.21241-25.2124h25.21241v-45.11695z" fill="#39fec6"/><path d="m489.12073 145.4358h25.21241v-25.2124c0-13.85356-11.35886-25.212414-25.21241-25.212414-13.85356 0-25.21241 11.358854-25.21241 25.212414 0 13.85355 11.35885 25.2124 25.21241 25.2124z" fill="#3afee0"/><path d="m463.90832 215.76515c0 13.85356 11.35885 25.21241 25.21241 25.21241h25.21241v-50.42481h-25.21241c-13.85356 0-25.21241 11.35885-25.21241 25.2124z" fill="#38fd76"/><path d="m463.90832 311.30691c0 13.85356 11.35885 25.21241 25.21241 25.21241 13.85355 0 25.21241-11.35885 25.21241-25.21241v-25.21241h-25.21241c-13.85356 0-25.21241 11.35886-25.21241 25.21241z" fill="#bafd4f"/><path d="m214.96896 244.95847c-1.38005 3.07857-2.12315 6.47561-2.12315 10.08496v190.02195c0 13.85355 11.35885 25.2124 25.21241 25.2124 13.85355 0 25.2124-11.35885 25.2124-25.2124v-116.61403l-45.11694-57.962c-5.83866-7.4841-6.741-17.30367-3.18472-25.53088z" fill="#39fec6"/><path d="m443.95071 270.33011-45.32926 58.2274v116.50787c0 13.85355 11.35885 25.2124 25.21241 25.2124 13.85355 0 25.21241-11.35885 25.21241-25.2124v-187.10262c-.53079 4.35246-2.22931 8.65184-5.09556 12.36735z" fill="#dcfd49"/></g><path d="m317.125 306.49805c-1.1998.01-2.4043.085-3.60742.22656h-.14063c-.42464.0708-.91912.14212-1.34375.21289-.21232.0708-.49666.0699-.70898.14062-.28308.0708-.49427.0718-.77734.14258-10.2619 2.19392-18.82609 9.0575-23.35547 18.25782-.14155.21232-.21197.42589-.35352.70898-.0708.21231-.14166.35213-.2832.56445-4.74171 10.89884-3.53879 24.06416 4.24609 34.04297l60.22656 77.14063 63.97852 81.95313c-9.34187-11.88964-9.76753-29.08761-.14258-41.47265l26.46875-33.97071-97.38086-125.05273c-3.69299-4.74813-8.49874-8.24884-13.71679-10.36719.0996.0438.17571.086.26757.12891-.46974-.20012-.93396-.41114-1.41406-.58985-.21232-.0708-.42394-.14211-.70703-.21289-.21231-.0708-.4244-.14016-.63672-.21094-3.45011-1.11464-7.01973-1.67243-10.61914-1.64257zm11.96289 2.0664c.38604.13994.76467.30593 1.14649.46094-.33826-.14871-.71476-.30113-1.14649-.46094z" fill="#6bfd5f" stroke-width=".707717" transform="scale(.75000003)"/><path d="m403.34552 240.447-72.3464 92.8876 19.95761 25.63704c6.68792 8.59875 6.90024 20.223 1.38005 28.981l46.28467-59.39513v-73.51408c0-5.46711 1.75166-10.45629 4.72407-14.59643z" fill="#dcfd49" stroke-width=".530788"/><path d="m449.04627 257.96276v-2.91933c0-13.85355-11.35886-25.21241-25.21241-25.21241-7.21871 0-13.7474 3.07857-18.36525 7.96182-.47771.47771-.90234 1.00849-1.32697 1.59236l-.79612 1.0618c-2.97241 4.14014-4.72407 9.1824-4.72407 14.64951v73.461l45.32926-58.2274c2.86625-3.71551 4.56477-8.01489 5.09556-12.36735z" fill="#f2fd3f" stroke-width=".530788"/><path d="m350.95673 359.02471-19.95761-25.69011-19.85146 25.4778c-8.4926 10.93422-6.52869 26.85785 4.40554 35.40353 10.93422 8.4926 26.85785 6.52869 35.40353-4.40554l1.43312-1.80468c5.46712-8.75799 5.2548-20.38224-1.43312-28.981z" fill="#cefd41" stroke-width=".530788"/><path d="m756.10352 467.63672c-1.0313-.002-2.06119.006-3.0918.0234v.0703h-100.4961l-.0273.0781c18.32152.17901 33.28906 15.24805 33.28906 33.60938v33.61523.002h67.23438c19.60376-.56618 39.48907 4.8121 56.82812 16.91406 42.53379 29.86564 52.86712 88.53459 23.07227 131.06836-4.60016 6.58176-9.90721 12.38538-15.78125 17.41015l43.09961 51.66407c10.26151-8.70457 19.60411-18.82562 27.67187-30.43164 51.16792-72.9656 33.47341-173.60357-39.49218-224.77149-28.10961-19.74529-60.3365-29.19531-92.30664-29.25195zm-131.72657 15.01562c-.56539.8231-1.09475 1.67157-1.58593 2.54493.49118-.87336 1.02054-1.72183 1.58593-2.54493zm-4.05664 8.05469c-.32883.96055-.61478 1.94197-.85547 2.93945.24069-.99748.52664-1.9789.85547-2.93945z" fill="#dcfd49" stroke-width=".707717" transform="scale(.75000003)"/><path d="m463.90832 567.14651c0 13.85356 11.35885 25.21241 25.21241 25.21241 13.85355 0 25.21241-11.35885 25.21241-25.21241v-25.21241h-25.21241c-13.85356 0-25.21241 11.35886-25.21241 25.21241z" fill="#38fd76" stroke-width=".530788"/><path d="m489.12073 401.2754c-13.85356 0-25.21241-11.35885-25.21241-25.21241v191.08352c0-13.85355 11.35885-25.21241 25.21241-25.21241h25.21241v-140.6587z" fill="#39fec6" stroke-width=".530788"/><path d="m568.47347 542.35873-54.14033-.42463v25.21241c0 12.52659-9.23571 22.9831-21.23151 24.89394l-4.2463.31847 75.90262.42463c28.981.47771 57.69661-9.44802 80.36124-28.71561l-32.32496-38.74749c-12.52659 10.82807-28.29098 16.66673-44.32076 17.03828z" fill="#6bfd5f" stroke-width=".530788"/><path d="m1051.3125 627.03711c-15.9236 0-29.2998 11.18242-32.7676 26.11523-.5662 2.40624-.8476 4.95418-.8476 7.50196v10.33203l7.2187 9.20117c9.625 12.31427 26.2547 16.06443 39.9844 10.04883 5.0248-2.12315 9.5552-5.51944 13.0937-10.04883l6.9356-8.84766v-10.61523c0-18.54217-15.1458-33.6875-33.6172-33.6875z" fill="#7efd41" stroke-width=".707717" transform="scale(.75000003)"/><path d="m1175.0234 469.53516c-10.2497-.22664-20.4827 4.18749-27.248 12.84375l-96.293 122.68359 26.3711 33.58203c2.3622 3.01838 4.1076 6.32713 5.2813 9.77539 1.3861 4.01126 1.9858 8.2127 1.7949 12.375v10.54492l115.7109-147.48828c11.3943-14.57896 8.8481-35.81084-5.6601-47.20508-5.9227-4.62891-12.9441-6.95625-19.9571-7.11132z" fill="#6bfd5f" stroke-width=".707717" transform="scale(.75000003)"/><g stroke-width=".530788"><path d="m763.90944 489.86384c.7431-3.87474 2.33547-7.59026 4.93633-10.88114l19.74529-25.15933-72.1871-92.03856c-8.54568-10.93422-24.46931-12.84506-35.40353-4.2463-10.93423 8.54568-12.84506 24.4693-4.2463 35.40353l86.51837 110.29765v-7.7495c0-1.96391.21231-3.82167.63694-5.62635z" fill="#39fec6"/><path d="m798.67631 517.67731c-10.29728 4.5117-22.77079 1.69852-29.9895-7.53718l-5.41403-6.90024v62.31446c0 13.85354 11.35885 25.21241 25.21241 25.21241 13.85355 0 25.2124-11.35887 25.2124-25.21241v-62.04907l-5.20171 6.63485c-2.65394 3.39704-6.05098 5.94482-9.81957 7.53718z" fill="#dcfd49"/><path d="m763.90953 489.86356c2.60086-11.19961 12.63275-19.58606 24.57547-19.58606 13.85355 0 25.2124 11.35886 25.2124 25.21241v.0531c.21232-5.78558-1.4862-11.67732-5.30787-16.56057l-19.79838-25.21241-19.74529 25.15933c-2.60086 3.34396-4.19323 7.05948-4.93633 10.93422z" fill="#38fd76"/><circle cx="628.71783" cy="544.85345" fill="#91fd3e" r="25.212408"/><path d="m246.81614 231.42364c-.15924-.0531-.31847-.10616-.53079-.15924-.15923-.0531-.31847-.10616-.47771-.15924-3.45011-1.11465-7.05947-1.4862-10.66883-1.06157h-.10615c-.31848.0531-.69003.10616-1.0085.15924-.15924.0531-.37155.0531-.53079.10615-.21231.0531-.37155.0531-.58386.10616-7.69642 1.64544-14.11895 6.79408-17.51599 13.69432-.10616.15924-.15924.31847-.2654.53079-.0531.15923-.10615.26539-.21231.42463-3.55628 8.17413-2.65394 18.04677 3.18472 25.53088l45.11716 57.96199-.00021-73.51407c.0531-10.77498-6.84716-20.06377-16.40134-23.62004z" fill="#38fd76"/><path d="m489.12019 350.85058c-1.00873 0-1.96841.18327-2.94726.3003-12.4644 1.49014-22.26416 12.06778-22.26416 24.9126 0 13.85355 11.35786 25.21142 25.21142 25.21142h18.84961 6.36328v-25.21142c0-13.85355-11.35934-25.2129-25.21289-25.2129z" fill="#bafd4f"/></g></g><g transform="translate(0 -.000004)"><g stroke-width=".530788"><path d="m121.01956 50.424832c17.62215 0 33.70501 6.475608 46.12544 17.144438l32.90883-38.163625c-21.2315-18.31217-48.83246-29.40563-79.03427-29.40563-24.68162 0-47.664721 7.3779469-66.773072 20.116848l27.813267 42.038374c11.146539-7.431026 24.575465-11.730405 38.959805-11.730405z" fill="#dcfd49"/><path d="m121.01956 191.61432c-39.012884 0-70.594743-31.58186-70.594743-70.59474 0-24.575467 12.579665-46.231599 31.634938-58.864343l-27.813267-42.038374c-32.696513 21.656132-54.246488 58.758182-54.246488 100.902717 0 66.82615 54.193409 121.01956 121.01956 121.01956 32.11265 0 61.30596-12.52659 82.9621-32.90883l-34.55427-36.7305c-12.63275 11.94272-29.67103 19.21451-48.40783 19.21451z" fill="#6bfd5f"/><path d="m95.541759 39.543687a25.212409 25.212409 0 0 1 -25.212409 25.212409 25.212409 25.212409 0 0 1 -25.212408-25.212409 25.212409 25.212409 0 0 1 25.212408-25.212408 25.212409 25.212409 0 0 1 25.212409 25.212408z" fill="#cefd41"/><path d="m210.19187 49.628651a25.212409 25.212409 0 0 1 -25.21241 25.212409 25.212409 25.212409 0 0 1 -25.21241-25.212409 25.212409 25.212409 0 0 1 25.21241-25.212409 25.212409 25.212409 0 0 1 25.21241 25.212409z" fill="#dcfd49"/><path d="m212.84581 189.75656a25.212409 25.212409 0 0 1 -25.21241 25.21241 25.212409 25.212409 0 0 1 -25.21241-25.21241 25.212409 25.212409 0 0 1 25.21241-25.2124 25.212409 25.212409 0 0 1 25.21241 25.2124z" fill="#6bfd5f"/><path d="m452.23099 121.01958c0-66.826156-54.19341-121.019565-121.01956-121.019565-26.85785 0-51.69871 8.7579946-71.76248 23.566967l29.88334 40.605248c11.73041-8.651837 26.22091-13.747398 41.87914-13.747398 39.01289 0 70.59475 31.581859 70.59475 70.594748 0 22.45231-10.5096 42.463-26.85785 55.41422l31.26338 39.54367c28.02558-22.13384 46.01928-56.4758 46.01928-94.95789z" fill="#dcfd49"/><path d="m331.21143 191.61432c-39.01288 0-70.59474-31.58186-70.59474-70.59474h-50.42482c0 66.82615 54.19341 121.01956 121.01956 121.01956 28.34406 0 54.40573-9.76649 75.00028-26.06167l-31.26338-39.54367c-11.9958 9.50109-27.22941 15.18052-43.7369 15.18052z" fill="#6bfd5f"/><path d="m289.33229 64.17223-29.88334-40.605248c-29.88333 22.027684-49.25708 57.484292-49.25708 97.452598h50.42482c0-23.301577 11.30577-44.002291 28.7156-56.84735z" fill="#39fec6"/><circle cx="235.37067" cy="120.2234" fill="#39fdad" r="25.212408"/><circle cx="273.77014" cy="44.287174" fill="#bafd4f" r="25.212408"/><path d="m416.66822 195.49579a25.212408 25.212408 0 0 1 -25.21241 25.21241 25.212408 25.212408 0 0 1 -25.21241-25.21241 25.212408 25.212408 0 0 1 25.21241-25.21241 25.212408 25.212408 0 0 1 25.21241 25.21241z" fill="#cefd41"/><path d="m514.33314 120.2234v25.2124h96.33794c13.85355 0 25.2124-11.35885 25.2124-25.2124 0-13.85356-11.35885-25.212414-25.2124-25.212414h-121.55035c13.85355 0 25.21241 11.358854 25.21241 25.212414z" fill="#39fec6"/><path d="m601.1169 240.97756c13.85356 0 25.21241-11.35885 25.21241-25.21241 0-13.85355-11.35885-25.2124-25.21241-25.2124h-86.78376v50.42481z" fill="#6bfd5f"/><path d="m489.12073 336.51932h121.55035c13.85355 0 25.2124-11.35885 25.2124-25.21241 0-13.85355-11.35885-25.21241-25.2124-25.21241h-96.33794v25.21241c0 13.85356-11.35886 25.21241-25.21241 25.21241z" fill="#dcfd49"/><path d="m463.90832 215.76515v95.54176c0-13.85355 11.35885-25.21241 25.21241-25.21241h25.21241v-45.11694h-25.21241c-13.85356 0-25.21241-11.35885-25.21241-25.21241z" fill="#39fec6"/><path d="m489.12073 145.4358c-13.85356 0-25.21241-11.35885-25.21241-25.2124v95.54175c0-13.85355 11.35885-25.2124 25.21241-25.2124h25.21241v-45.11695z" fill="#39fec6"/><path d="m489.12073 145.4358h25.21241v-25.2124c0-13.85356-11.35886-25.212414-25.21241-25.212414-13.85356 0-25.21241 11.358854-25.21241 25.212414 0 13.85355 11.35885 25.2124 25.21241 25.2124z" fill="#3afee0"/><path d="m463.90832 215.76515c0 13.85356 11.35885 25.21241 25.21241 25.21241h25.21241v-50.42481h-25.21241c-13.85356 0-25.21241 11.35885-25.21241 25.2124z" fill="#38fd76"/><path d="m463.90832 311.30691c0 13.85356 11.35885 25.21241 25.21241 25.21241 13.85355 0 25.21241-11.35885 25.21241-25.21241v-25.21241h-25.21241c-13.85356 0-25.21241 11.35886-25.21241 25.21241z" fill="#bafd4f"/><path d="m214.96896 244.95847c-1.38005 3.07857-2.12315 6.47561-2.12315 10.08496v190.02195c0 13.85355 11.35885 25.2124 25.21241 25.2124 13.85355 0 25.2124-11.35885 25.2124-25.2124v-116.61403l-45.11694-57.962c-5.83866-7.4841-6.741-17.30367-3.18472-25.53088z" fill="#39fec6"/><path d="m443.95071 270.33011-45.32926 58.2274v116.50787c0 13.85355 11.35885 25.2124 25.21241 25.2124 13.85355 0 25.21241-11.35885 25.21241-25.2124v-187.10262c-.53079 4.35246-2.22931 8.65184-5.09556 12.36735z" fill="#dcfd49"/></g><path d="m317.125 306.49805c-1.1998.01-2.4043.085-3.60742.22656h-.14063c-.42464.0708-.91912.14212-1.34375.21289-.21232.0708-.49666.0699-.70898.14062-.28308.0708-.49427.0718-.77734.14258-10.2619 2.19392-18.82609 9.0575-23.35547 18.25782-.14155.21232-.21197.42589-.35352.70898-.0708.21231-.14166.35213-.2832.56445-4.74171 10.89884-3.53879 24.06416 4.24609 34.04297l60.22656 77.14063 63.97852 81.95313c-9.34187-11.88964-9.76753-29.08761-.14258-41.47265l26.46875-33.97071-97.38086-125.05273c-3.69299-4.74813-8.49874-8.24884-13.71679-10.36719.0996.0438.17571.086.26757.12891-.46974-.20012-.93396-.41114-1.41406-.58985-.21232-.0708-.42394-.14211-.70703-.21289-.21231-.0708-.4244-.14016-.63672-.21094-3.45011-1.11464-7.01973-1.67243-10.61914-1.64257zm11.96289 2.0664c.38604.13994.76467.30593 1.14649.46094-.33826-.14871-.71476-.30113-1.14649-.46094z" fill="#6bfd5f" stroke-width=".707717" transform="scale(.75000003)"/><path d="m403.34552 240.447-72.3464 92.8876 19.95761 25.63704c6.68792 8.59875 6.90024 20.223 1.38005 28.981l46.28467-59.39513v-73.51408c0-5.46711 1.75166-10.45629 4.72407-14.59643z" fill="#dcfd49" stroke-width=".530788"/><path d="m449.04627 257.96276v-2.91933c0-13.85355-11.35886-25.21241-25.21241-25.21241-7.21871 0-13.7474 3.07857-18.36525 7.96182-.47771.47771-.90234 1.00849-1.32697 1.59236l-.79612 1.0618c-2.97241 4.14014-4.72407 9.1824-4.72407 14.64951v73.461l45.32926-58.2274c2.86625-3.71551 4.56477-8.01489 5.09556-12.36735z" fill="#f2fd3f" stroke-width=".530788"/><path d="m350.95673 359.02471-19.95761-25.69011-19.85146 25.4778c-8.4926 10.93422-6.52869 26.85785 4.40554 35.40353 10.93422 8.4926 26.85785 6.52869 35.40353-4.40554l1.43312-1.80468c5.46712-8.75799 5.2548-20.38224-1.43312-28.981z" fill="#cefd41" stroke-width=".530788"/><path d="m756.10352 467.63672c-1.0313-.002-2.06119.006-3.0918.0234v.0703h-100.4961l-.0273.0781c18.32152.17901 33.28906 15.24805 33.28906 33.60938v33.61523.002h67.23438c19.60376-.56618 39.48907 4.8121 56.82812 16.91406 42.53379 29.86564 52.86712 88.53459 23.07227 131.06836-4.60016 6.58176-9.90721 12.38538-15.78125 17.41015l43.09961 51.66407c10.26151-8.70457 19.60411-18.82562 27.67187-30.43164 51.16792-72.9656 33.47341-173.60357-39.49218-224.77149-28.10961-19.74529-60.3365-29.19531-92.30664-29.25195zm-131.72657 15.01562c-.56539.8231-1.09475 1.67157-1.58593 2.54493.49118-.87336 1.02054-1.72183 1.58593-2.54493zm-4.05664 8.05469c-.32883.96055-.61478 1.94197-.85547 2.93945.24069-.99748.52664-1.9789.85547-2.93945z" fill="#dcfd49" stroke-width=".707717" transform="scale(.75000003)"/><path d="m463.90832 567.14651c0 13.85356 11.35885 25.21241 25.21241 25.21241 13.85355 0 25.21241-11.35885 25.21241-25.21241v-25.21241h-25.21241c-13.85356 0-25.21241 11.35886-25.21241 25.21241z" fill="#38fd76" stroke-width=".530788"/><path d="m489.12073 401.2754c-13.85356 0-25.21241-11.35885-25.21241-25.21241v191.08352c0-13.85355 11.35885-25.21241 25.21241-25.21241h25.21241v-140.6587z" fill="#39fec6" stroke-width=".530788"/><path d="m568.47347 542.35873-54.14033-.42463v25.21241c0 12.52659-9.23571 22.9831-21.23151 24.89394l-4.2463.31847 75.90262.42463c28.981.47771 57.69661-9.44802 80.36124-28.71561l-32.32496-38.74749c-12.52659 10.82807-28.29098 16.66673-44.32076 17.03828z" fill="#6bfd5f" stroke-width=".530788"/><path d="m1051.3125 627.03711c-15.9236 0-29.2998 11.18242-32.7676 26.11523-.5662 2.40624-.8476 4.95418-.8476 7.50196v10.33203l7.2187 9.20117c9.625 12.31427 26.2547 16.06443 39.9844 10.04883 5.0248-2.12315 9.5552-5.51944 13.0937-10.04883l6.9356-8.84766v-10.61523c0-18.54217-15.1458-33.6875-33.6172-33.6875z" fill="#7efd41" stroke-width=".707717" transform="scale(.75000003)"/><path d="m1175.0234 469.53516c-10.2497-.22664-20.4827 4.18749-27.248 12.84375l-96.293 122.68359 26.3711 33.58203c2.3622 3.01838 4.1076 6.32713 5.2813 9.77539 1.3861 4.01126 1.9858 8.2127 1.7949 12.375v10.54492l115.7109-147.48828c11.3943-14.57896 8.8481-35.81084-5.6601-47.20508-5.9227-4.62891-12.9441-6.95625-19.9571-7.11132z" fill="#6bfd5f" stroke-width=".707717" transform="scale(.75000003)"/><g stroke-width=".530788"><path d="m763.90944 489.86384c.7431-3.87474 2.33547-7.59026 4.93633-10.88114l19.74529-25.15933-72.1871-92.03856c-8.54568-10.93422-24.46931-12.84506-35.40353-4.2463-10.93423 8.54568-12.84506 24.4693-4.2463 35.40353l86.51837 110.29765v-7.7495c0-1.96391.21231-3.82167.63694-5.62635z" fill="#39fec6"/><path d="m798.67631 517.67731c-10.29728 4.5117-22.77079 1.69852-29.9895-7.53718l-5.41403-6.90024v62.31446c0 13.85354 11.35885 25.21241 25.21241 25.21241 13.85355 0 25.2124-11.35887 25.2124-25.21241v-62.04907l-5.20171 6.63485c-2.65394 3.39704-6.05098 5.94482-9.81957 7.53718z" fill="#dcfd49"/><path d="m763.90953 489.86356c2.60086-11.19961 12.63275-19.58606 24.57547-19.58606 13.85355 0 25.2124 11.35886 25.2124 25.21241v.0531c.21232-5.78558-1.4862-11.67732-5.30787-16.56057l-19.79838-25.21241-19.74529 25.15933c-2.60086 3.34396-4.19323 7.05948-4.93633 10.93422z" fill="#38fd76"/><circle cx="628.71783" cy="544.85345" fill="#91fd3e" r="25.212408"/><path d="m246.81614 231.42364c-.15924-.0531-.31847-.10616-.53079-.15924-.15923-.0531-.31847-.10616-.47771-.15924-3.45011-1.11465-7.05947-1.4862-10.66883-1.06157h-.10615c-.31848.0531-.69003.10616-1.0085.15924-.15924.0531-.37155.0531-.53079.10615-.21231.0531-.37155.0531-.58386.10616-7.69642 1.64544-14.11895 6.79408-17.51599 13.69432-.10616.15924-.15924.31847-.2654.53079-.0531.15923-.10615.26539-.21231.42463-3.55628 8.17413-2.65394 18.04677 3.18472 25.53088l45.11716 57.96199-.00021-73.51407c.0531-10.77498-6.84716-20.06377-16.40134-23.62004z" fill="#38fd76"/><path d="m489.12019 350.85058c-1.00873 0-1.96841.18327-2.94726.3003-12.4644 1.49014-22.26416 12.06778-22.26416 24.9126 0 13.85355 11.35786 25.21142 25.21142 25.21142h18.84961 6.36328v-25.21142c0-13.85355-11.35934-25.2129-25.21289-25.2129z" fill="#bafd4f"/></g></g></svg>