<svg width="653.1pt" height="308.19pt" version="1.1" viewBox="0 0 653.1 308.19" xmlns="http://www.w3.org/2000/svg">
 <defs>
  <linearGradient id="a" x2="1" gradientTransform="matrix(4.3732 1.6588 1.6588 -4.3732 28.644 244.12)" gradientUnits="userSpaceOnUse">
   <stop stop-color="#009cde" offset="0"/>
   <stop stop-color="#009cde" offset=".33129"/>
   <stop stop-color="#009cde" offset=".5"/>
   <stop stop-color="#0089cd" offset=".99605"/>
   <stop stop-color="#0089cd" offset="1"/>
  </linearGradient>
  <linearGradient id="b" x2="1" gradientTransform="matrix(4.6184 1.6861 1.6861 -4.6184 40.078 243.99)" gradientUnits="userSpaceOnUse">
   <stop stop-color="#009cde" offset="0"/>
   <stop stop-color="#009cde" offset=".33129"/>
   <stop stop-color="#009cde" offset=".5"/>
   <stop stop-color="#0089cd" offset=".99605"/>
   <stop stop-color="#0089cd" offset="1"/>
  </linearGradient>
  <linearGradient id="c" x2="1" gradientTransform="matrix(-5.1018 -1.9929 -1.9929 5.1018 52.526 258.33)" gradientUnits="userSpaceOnUse">
   <stop stop-color="#009cde" offset="0"/>
   <stop stop-color="#009cde" offset=".33129"/>
   <stop stop-color="#009cde" offset=".5"/>
   <stop stop-color="#0089cd" offset=".99605"/>
   <stop stop-color="#0089cd" offset="1"/>
  </linearGradient>
  <linearGradient id="d" x2="1" gradientTransform="matrix(-5.1015 -2.3913 -2.3913 5.1015 40.836 258.67)" gradientUnits="userSpaceOnUse">
   <stop stop-color="#009cde" offset="0"/>
   <stop stop-color="#009cde" offset=".33129"/>
   <stop stop-color="#009cde" offset=".5"/>
   <stop stop-color="#0089cd" offset=".99605"/>
   <stop stop-color="#0089cd" offset="1"/>
  </linearGradient>
  <clipPath id="e">
   <path d="m22.677 237.56h35.06v42.787h-35.06v-42.787z"/>
  </clipPath>
 </defs>
 <g transform="matrix(1.9957 0 0 1.9957 2.0687e-6 -.30396)">
  <g transform="matrix(6.7966 0 0 -6.7966 -170.21 1783.9)">
   <g clip-path="url(#e)">
    <g transform="translate(53.738 261.66)">
     <path d="m0 0c-0.82 0.544-1.845 0.837-2.863 0.774-0.505-0.03-1.008-0.147-1.482-0.367-1.275-0.613-2.352-1.89-2.705-3.422l2.349-6.637 1.814 5.096 0.076 0.211v-12.559l-4.953 13.787c-0.813 1.991-2.041 2.807-2.503 3.117-0.81 0.479-1.816 0.747-2.839 0.783-0.026 1e-3 -0.052-1e-3 -0.078 0-0.127 3e-3 -0.254 4e-3 -0.381 0-0.564-0.019-1.125-0.109-1.653-0.275-1.375-0.508-2.55-1.072-3.778-3.269l2.497-6.535 1.486 3.933c0.255 0.742 0.843 1.085 1.437 1.057 0.592-0.027 1.19-0.423 1.47-1.161l4.699-12.509s0.82-1.988 1.225-2.398c0.971-1.124 2.349-1.582 3.471-1.53 0.665 0 0.922 0.049 1.53 0.253 1.279 0.563 2.706 1.787 2.861 4.037v13.627c-0.047 1.942-0.409 3.066-1.68 3.987" fill="#009cde"/>
    </g>
    <g transform="translate(41.784 245.88)">
     <path d="m0 0c-0.293-0.776-0.924-1.112-1.547-1.047-0.563 0.06-1.12 0.448-1.412 1.151l-4.698 12.456s-0.813 1.995-1.225 2.4c-0.92 1.175-2.349 1.583-3.472 1.583-0.66 0-0.919-0.051-1.477-0.254-1.28-0.562-2.759-1.789-2.91-4.084v-13.582c0.048-1.99 0.404-3.063 1.683-4.031 0.903-0.543 1.982-0.828 3.043-0.714 0.44 0.046 0.876 0.16 1.296 0.354 1.274 0.614 2.399 1.89 2.704 3.372l-2.344 6.638-1.718-4.972-0.118-0.341v12.611l4.899-13.834c0.815-1.993 2.038-2.76 2.498-3.063 0.937-0.59 2.13-0.842 3.31-0.789 0.561 0.025 1.119 0.112 1.645 0.276 1.378 0.513 2.55 1.021 3.775 3.22l-2.5 6.585-1.432-3.935z" fill="#009cde"/>
    </g>
    <g transform="translate(38.825 245.98)">
     <path d="m0 0-4.698 12.457s-0.813 1.994-1.225 2.399c-0.919 1.175-2.349 1.583-3.472 1.583-0.66 0-0.919-0.051-1.477-0.253-1.279-0.563-2.759-1.789-2.909-4.085v-13.581c0.047-1.991 0.403-3.064 1.682-4.032 0.903-0.543 1.983-0.828 3.044-0.714l-0.063 5.392-0.118-0.341v12.611l4.9-13.834c0.814-1.993 2.037-2.76 2.497-3.063 0.937-0.59 2.13-0.842 3.311-0.789l-0.06 5.099c-0.563 0.06-1.12 0.448-1.412 1.151" fill="#009cde"/>
    </g>
    <g transform="translate(53.738 261.65)">
     <path d="m0 0c-0.82 0.544-1.845 0.837-2.863 0.775l-0.024-5.331 0.076 0.212v-12.559l-4.953 13.786c-0.813 1.991-2.041 2.807-2.503 3.117-0.81 0.479-1.816 0.747-2.839 0.783-0.026 1e-3 -0.052 0-0.078 0l-0.392-5.088c0.592-0.028 1.19-0.424 1.47-1.162l4.699-12.509s0.82-1.988 1.225-2.398c0.971-1.124 2.349-1.582 3.471-1.53 0.665 0 0.922 0.049 1.53 0.254 1.279 0.562 2.706 1.786 2.861 4.036v13.627c-0.047 1.941-0.409 3.066-1.68 3.987" fill="#009cde"/>
    </g>
   </g>
  </g>
  <g transform="matrix(6.7966 0 0 -6.7966 -170.21 1783.9)">
   <path d="m40.173 262.44c-0.564-0.019-1.126-0.109-1.653-0.274-1.375-0.509-2.55-1.072-3.778-3.271l2.496-6.534 1.486 3.933c0.256 0.742 0.844 1.086 1.438 1.058l0.391 5.088c-0.07 2e-3 -0.141 3e-3 -0.212 3e-3 -0.056 0-0.112-1e-3 -0.168-3e-3" fill="url(#d)"/>
  </g>
  <g transform="matrix(6.7966 0 0 -6.7966 -170.21 1783.9)">
   <path d="m49.392 262.06c-1.274-0.613-2.351-1.89-2.704-3.422l2.349-6.637 1.814 5.095 0.024 5.331c-0.505-0.03-1.008-0.147-1.483-0.367" fill="url(#c)"/>
  </g>
  <g transform="matrix(6.7966 0 0 -6.7966 -170.21 1783.9)">
   <path d="m41.784 245.87c-0.293-0.775-0.924-1.112-1.547-1.047l0.06-5.098h0.018c0.555 0.026 1.106 0.113 1.627 0.276 1.377 0.512 2.55 1.02 3.774 3.219l-2.5 6.585-1.432-3.935z" fill="url(#b)"/>
  </g>
  <g transform="matrix(6.7966 0 0 -6.7966 -170.21 1783.9)">
   <path d="m29.707 245.14 0.062-5.392c0.439 0.046 0.876 0.16 1.295 0.354 1.276 0.613 2.4 1.891 2.705 3.372l-2.345 6.639-1.717-4.973z" fill="url(#a)"/>
  </g>
 </g>
 <path d="m441.61 46.436h29.48c0.02 16.04-0.01 32.08 0.02 48.12 13.24 0 26.49 0.02 39.73 0 0.02-16.04 0-32.08 0.01-48.11 9.77-0.01 19.54-0.01 29.31 0 0.01 41.64 0.01 83.28 0 124.93-9.77 0.01-19.54 0.01-29.3-0.01-0.02-16.57 0-33.15-0.02-49.73-13.24-0.01-26.48 0-39.73-0.01-0.03 16.58 0.01 33.16-0.02 49.75-9.83 0.01-19.66 0.01-29.49 0 0-41.65-0.01-83.29 0.01-124.94z" fill="#009cde"/>
 <path d="m549.23 46.446c12.28-0.02 24.57-0.01 36.85-0.01 6.64 0.03 13.33-0.25 19.93 0.72 11.46 1.47 22.88 5.84 31.28 13.98 10.78 10.21 15.1 25.33 15.81 39.78v9.53c-0.84 15.46-4.95 31.55-15.66 43.22-10.61 11.85-26.73 17.32-42.32 17.66-15.3 0.12-30.6 0.03-45.89 0.04-0.02-41.64-0.01-83.28 0-124.92m29.5 24.32c0 25.08 0 50.15-0.01 75.22 6.16-0.07 12.34 0.28 18.49-0.3 8.31-0.75 16.51-5.11 20.7-12.52 5.61-9.86 6.08-21.68 5.47-32.75-0.64-9.43-3.53-19.97-12.02-25.3-9.76-6.09-21.74-3.97-32.63-4.35z" fill="#009cde"/>
</svg>
