<?xml version="1.0" encoding="UTF-8" standalone="no"?>
<svg
   xmlns:dc="http://purl.org/dc/elements/1.1/"
   xmlns:cc="http://creativecommons.org/ns#"
   xmlns:rdf="http://www.w3.org/1999/02/22-rdf-syntax-ns#"
   xmlns:svg="http://www.w3.org/2000/svg"
   xmlns="http://www.w3.org/2000/svg"
   xmlns:sodipodi="http://sodipodi.sourceforge.net/DTD/sodipodi-0.dtd"
   xmlns:inkscape="http://www.inkscape.org/namespaces/inkscape"
   width="206.4451pt"
   height="219.55782pt"
   viewBox="0 0 206.4451 219.55782"
   version="1.1"
   id="svg2"
   inkscape:version="0.91 r13725"
   sodipodi:docname="ABC HD.svg">
  <metadata
     id="metadata24">
    <rdf:RDF>
      <cc:Work
         rdf:about="">
        <dc:format>image/svg+xml</dc:format>
        <dc:type
           rdf:resource="http://purl.org/dc/dcmitype/StillImage" />
        <dc:title></dc:title>
      </cc:Work>
    </rdf:RDF>
  </metadata>
  <defs
     id="defs22">
    <linearGradient
       x1="0"
       y1="0"
       x2="1"
       y2="0"
       gradientUnits="userSpaceOnUse"
       gradientTransform="matrix(4.3731976,1.658805,1.658805,-4.3731976,28.643811,244.11951)"
       spreadMethod="pad"
       id="linearGradient5319">
      <stop
         style="stop-opacity:1;stop-color:#009cde"
         offset="0"
         id="stop5321" />
      <stop
         style="stop-opacity:1;stop-color:#009cde"
         offset="0.331288"
         id="stop5323" />
      <stop
         style="stop-opacity:1;stop-color:#009cde"
         offset="0.5"
         id="stop5325" />
      <stop
         style="stop-opacity:1;stop-color:#0089cd"
         offset="0.996054"
         id="stop5327" />
      <stop
         style="stop-opacity:1;stop-color:#0089cd"
         offset="1"
         id="stop5329" />
    </linearGradient>
    <linearGradient
       x1="0"
       y1="0"
       x2="1"
       y2="0"
       gradientUnits="userSpaceOnUse"
       gradientTransform="matrix(4.6184254,1.68609,1.68609,-4.6184254,40.078072,243.99404)"
       spreadMethod="pad"
       id="linearGradient5293">
      <stop
         style="stop-opacity:1;stop-color:#009cde"
         offset="0"
         id="stop5295" />
      <stop
         style="stop-opacity:1;stop-color:#009cde"
         offset="0.331288"
         id="stop5297" />
      <stop
         style="stop-opacity:1;stop-color:#009cde"
         offset="0.5"
         id="stop5299" />
      <stop
         style="stop-opacity:1;stop-color:#0089cd"
         offset="0.996054"
         id="stop5301" />
      <stop
         style="stop-opacity:1;stop-color:#0089cd"
         offset="1"
         id="stop5303" />
    </linearGradient>
    <linearGradient
       x1="0"
       y1="0"
       x2="1"
       y2="0"
       gradientUnits="userSpaceOnUse"
       gradientTransform="matrix(-5.10177,-1.9928851,-1.9928851,5.10177,52.52642,258.33005)"
       spreadMethod="pad"
       id="linearGradient5267">
      <stop
         style="stop-opacity:1;stop-color:#009cde"
         offset="0"
         id="stop5269" />
      <stop
         style="stop-opacity:1;stop-color:#009cde"
         offset="0.331288"
         id="stop5271" />
      <stop
         style="stop-opacity:1;stop-color:#009cde"
         offset="0.5"
         id="stop5273" />
      <stop
         style="stop-opacity:1;stop-color:#0089cd"
         offset="0.996054"
         id="stop5275" />
      <stop
         style="stop-opacity:1;stop-color:#0089cd"
         offset="1"
         id="stop5277" />
    </linearGradient>
    <linearGradient
       x1="0"
       y1="0"
       x2="1"
       y2="0"
       gradientUnits="userSpaceOnUse"
       gradientTransform="matrix(-5.1015452,-2.3913451,-2.3913451,5.1015452,40.835572,258.67344)"
       spreadMethod="pad"
       id="linearGradient5241">
      <stop
         style="stop-opacity:1;stop-color:#009cde"
         offset="0"
         id="stop5243" />
      <stop
         style="stop-opacity:1;stop-color:#009cde"
         offset="0.331288"
         id="stop5245" />
      <stop
         style="stop-opacity:1;stop-color:#009cde"
         offset="0.5"
         id="stop5247" />
      <stop
         style="stop-opacity:1;stop-color:#0089cd"
         offset="0.996054"
         id="stop5249" />
      <stop
         style="stop-opacity:1;stop-color:#0089cd"
         offset="1"
         id="stop5251" />
    </linearGradient>
    <clipPath
       clipPathUnits="userSpaceOnUse"
       id="clipPath5209">
      <path
         d="m 22.677,237.559 35.06,0 0,42.787 -35.06,0 0,-42.787 z"
         id="path5211"
         inkscape:connector-curvature="0" />
    </clipPath>
  </defs>
  <sodipodi:namedview
     pagecolor="#ffffff"
     bordercolor="#666666"
     borderopacity="1"
     objecttolerance="10"
     gridtolerance="10"
     guidetolerance="10"
     inkscape:pageopacity="0"
     inkscape:pageshadow="2"
     inkscape:window-width="1920"
     inkscape:window-height="1017"
     id="namedview20"
     showgrid="false"
     fit-margin-top="0"
     fit-margin-left="0"
     fit-margin-right="0"
     fit-margin-bottom="0"
     inkscape:zoom="0.79327731"
     inkscape:cx="85.098793"
     inkscape:cy="118.66947"
     inkscape:window-x="-8"
     inkscape:window-y="-8"
     inkscape:window-maximized="1"
     inkscape:current-layer="svg2" />
  <path
     style="opacity:1;fill:#009cde;fill-opacity:1"
     inkscape:connector-curvature="0"
     id="path16"
     d="m 129.98717,169.65782 11.34963,0 0,49.9 -11.34963,0 0,-19.9096 -16.74,0 0,19.9096 -11.1804,0 -0.02,-49.9 11.2004,0 -4e-4,19.1704 16.7404,0 z"
     sodipodi:nodetypes="ccccccccccccc" />
  <path
     style="opacity:1;fill:#009cde;fill-opacity:1"
     inkscape:connector-curvature="0"
     id="path18"
     d="m 145.18677,169.65782 15.01147,0 c 3.99662,0 7.96598,0.2087 11.84853,1.2704 7.78,1.96 13.42,9.3 14.2,17.17 1.62,10.39 -1.24,23.13 -11.23,28.42 -5.09223,2.5903 -10.6359,3.0396 -16.2503,3.0396 l -13.5897,0 m 11.7496,-40.6064 0,30.6256 4.12131,0 c 3.14121,0 6.29314,-0.23101 8.96909,-1.9988 4.41,-3.29 5.22,-9.2 5.08,-14.32 0.07,-4.13 -0.56,-8.84 -3.96,-11.61 -2.64535,-2.3206 -6.02778,-2.6968 -9.41944,-2.6968 z"
     sodipodi:nodetypes="cscccscccscccsc" />
  <g
     id="g5205"
     transform="matrix(6.7966038,0,0,-6.7966038,-170.20735,1783.8689)">
    <g
       id="g5207"
       clip-path="url(#clipPath5209)">
      <g
         id="g5213"
         transform="translate(53.7377,261.6567)">
        <path
           d="M 0,0 C -0.82,0.544 -1.845,0.837 -2.863,0.774 -3.368,0.744 -3.871,0.627 -4.345,0.407 -5.62,-0.206 -6.697,-1.483 -7.05,-3.015 l 2.349,-6.637 1.814,5.096 0.076,0.211 0,-12.559 -4.953,13.787 c -0.813,1.991 -2.041,2.807 -2.503,3.117 -0.81,0.479 -1.816,0.747 -2.839,0.783 -0.026,0.001 -0.052,-0.001 -0.078,0 -0.127,0.003 -0.254,0.004 -0.381,0 -0.564,-0.019 -1.125,-0.109 -1.653,-0.275 -1.375,-0.508 -2.55,-1.072 -3.778,-3.269 l 2.497,-6.535 1.486,3.933 c 0.255,0.742 0.843,1.085 1.437,1.057 0.592,-0.027 1.19,-0.423 1.47,-1.161 l 4.699,-12.509 c 0,0 0.82,-1.988 1.225,-2.398 0.971,-1.124 2.349,-1.582 3.471,-1.53 0.665,0 0.922,0.049 1.53,0.253 1.279,0.563 2.706,1.787 2.861,4.037 l 0,13.627 C 1.633,-2.045 1.271,-0.921 0,0"
           style="fill:#009cde;fill-opacity:1;fill-rule:nonzero;stroke:none"
           id="path5215"
           inkscape:connector-curvature="0" />
      </g>
      <g
         id="g5217"
         transform="translate(41.784,245.8758)">
        <path
           d="m 0,0 c -0.293,-0.776 -0.924,-1.112 -1.547,-1.047 -0.563,0.06 -1.12,0.448 -1.412,1.151 L -7.657,12.56 c 0,0 -0.813,1.995 -1.225,2.4 -0.92,1.175 -2.349,1.583 -3.472,1.583 -0.66,0 -0.919,-0.051 -1.477,-0.254 -1.28,-0.562 -2.759,-1.789 -2.91,-4.084 l 0,-13.582 c 0.048,-1.99 0.404,-3.063 1.683,-4.031 0.903,-0.543 1.982,-0.828 3.043,-0.714 0.44,0.046 0.876,0.16 1.296,0.354 1.274,0.614 2.399,1.89 2.704,3.372 l -2.344,6.638 -1.718,-4.972 -0.118,-0.341 0,12.611 4.899,-13.834 c 0.815,-1.993 2.038,-2.76 2.498,-3.063 0.937,-0.59 2.13,-0.842 3.31,-0.789 0.561,0.025 1.119,0.112 1.645,0.276 1.378,0.513 2.55,1.021 3.775,3.22 L 1.432,3.935 0,0 Z"
           style="fill:#009cde;fill-opacity:1;fill-rule:nonzero;stroke:none"
           id="path5219"
           inkscape:connector-curvature="0" />
      </g>
      <g
         id="g5221"
         transform="translate(38.8248,245.978)">
        <path
           d="m 0,0 -4.698,12.457 c 0,0 -0.813,1.994 -1.225,2.399 -0.919,1.175 -2.349,1.583 -3.472,1.583 -0.66,0 -0.919,-0.051 -1.477,-0.253 -1.279,-0.563 -2.759,-1.789 -2.909,-4.085 l 0,-13.581 c 0.047,-1.991 0.403,-3.064 1.682,-4.032 0.903,-0.543 1.983,-0.828 3.044,-0.714 l -0.063,5.392 -0.118,-0.341 0,12.611 4.9,-13.834 c 0.814,-1.993 2.037,-2.76 2.497,-3.063 0.937,-0.59 2.13,-0.842 3.311,-0.789 l -0.06,5.099 C 0.849,-1.091 0.292,-0.703 0,0"
           style="fill:#009cde;fill-opacity:1;fill-rule:nonzero;stroke:none"
           id="path5223"
           inkscape:connector-curvature="0" />
      </g>
      <g
         id="g5225"
         transform="translate(53.7377,261.6549)">
        <path
           d="m 0,0 c -0.82,0.544 -1.845,0.837 -2.863,0.775 l -0.024,-5.331 0.076,0.212 0,-12.559 -4.953,13.786 c -0.813,1.991 -2.041,2.807 -2.503,3.117 -0.81,0.479 -1.816,0.747 -2.839,0.783 -0.026,0.001 -0.052,0 -0.078,0 l -0.392,-5.088 c 0.592,-0.028 1.19,-0.424 1.47,-1.162 l 4.699,-12.509 c 0,0 0.82,-1.988 1.225,-2.398 0.971,-1.124 2.349,-1.582 3.471,-1.53 0.665,0 0.922,0.049 1.53,0.254 1.279,0.562 2.706,1.786 2.861,4.036 l 0,13.627 C 1.633,-2.046 1.271,-0.921 0,0"
           style="fill:#009cde;fill-opacity:1;fill-rule:nonzero;stroke:none"
           id="path5227"
           inkscape:connector-curvature="0" />
      </g>
    </g>
  </g>
  <g
     id="g5229"
     transform="matrix(6.7966038,0,0,-6.7966038,-170.20735,1783.8689)">
    <g
       id="g5231">
      <g
         id="g5237">
        <g
           id="g5239">
          <path
             d="m 40.173,262.438 c -0.564,-0.019 -1.126,-0.109 -1.653,-0.274 l 0,0 c -1.375,-0.509 -2.55,-1.072 -3.778,-3.271 l 0,0 2.496,-6.534 1.486,3.933 c 0.256,0.742 0.844,1.086 1.438,1.058 l 0,0 0.391,5.088 c -0.07,0.002 -0.141,0.003 -0.212,0.003 l 0,0 c -0.056,0 -0.112,-10e-4 -0.168,-0.003"
             style="fill:url(#linearGradient5241);stroke:none"
             id="path5253"
             inkscape:connector-curvature="0" />
        </g>
      </g>
    </g>
  </g>
  <g
     id="g5255"
     transform="matrix(6.7966038,0,0,-6.7966038,-170.20735,1783.8689)">
    <g
       id="g5257">
      <g
         id="g5263">
        <g
           id="g5265">
          <path
             d="m 49.392,262.062 c -1.274,-0.613 -2.351,-1.89 -2.704,-3.422 l 0,0 2.349,-6.637 1.814,5.095 0.024,5.331 c -0.505,-0.03 -1.008,-0.147 -1.483,-0.367"
             style="fill:url(#linearGradient5267);stroke:none"
             id="path5279"
             inkscape:connector-curvature="0" />
        </g>
      </g>
    </g>
  </g>
  <g
     id="g5281"
     transform="matrix(6.7966038,0,0,-6.7966038,-170.20735,1783.8689)">
    <g
       id="g5283">
      <g
         id="g5289">
        <g
           id="g5291">
          <path
             d="m 41.784,245.874 c -0.293,-0.775 -0.924,-1.112 -1.547,-1.047 l 0,0 0.06,-5.098 0.018,0 c 0.555,0.026 1.106,0.113 1.627,0.276 l 0,0 c 1.377,0.512 2.55,1.02 3.774,3.219 l 0,0 -2.5,6.585 -1.432,-3.935 z"
             style="fill:url(#linearGradient5293);stroke:none"
             id="path5305"
             inkscape:connector-curvature="0" />
        </g>
      </g>
    </g>
  </g>
  <g
     id="g5307"
     transform="matrix(6.7966038,0,0,-6.7966038,-170.20735,1783.8689)">
    <g
       id="g5309">
      <g
         id="g5315">
        <g
           id="g5317">
          <path
             d="m 29.707,245.144 0.062,-5.392 c 0.439,0.046 0.876,0.16 1.295,0.354 l 0,0 c 1.276,0.613 2.4,1.891 2.705,3.372 l 0,0 -2.345,6.639 -1.717,-4.973 z"
             style="fill:url(#linearGradient5319);stroke:none"
             id="path5331"
             inkscape:connector-curvature="0" />
        </g>
      </g>
    </g>
  </g>
</svg>
