<?xml version="1.0" encoding="UTF-8" standalone="no"?>
<svg
   xmlns:dc="http://purl.org/dc/elements/1.1/"
   xmlns:cc="http://creativecommons.org/ns#"
   xmlns:rdf="http://www.w3.org/1999/02/22-rdf-syntax-ns#"
   xmlns:svg="http://www.w3.org/2000/svg"
   xmlns="http://www.w3.org/2000/svg"
   xmlns:sodipodi="http://sodipodi.sourceforge.net/DTD/sodipodi-0.dtd"
   xmlns:inkscape="http://www.inkscape.org/namespaces/inkscape"
   width="574.13pt"
   height="597.09222pt"
   viewBox="0 0 574.13 597.09222"
   version="1.1"
   id="svg2"
   inkscape:version="0.91 r13725"
   sodipodi:docname="ABC Me.svg">
  <metadata
     id="metadata15">
    <rdf:RDF>
      <cc:Work
         rdf:about="">
        <dc:format>image/svg+xml</dc:format>
        <dc:type
           rdf:resource="http://purl.org/dc/dcmitype/StillImage" />
        <dc:title />
      </cc:Work>
    </rdf:RDF>
  </metadata>
  <defs
     id="defs13">
    <pattern
       y="0"
       x="0"
       height="6"
       width="6"
       patternUnits="userSpaceOnUse"
       id="EMFhbasepattern" />
  </defs>
  <sodipodi:namedview
     pagecolor="#ffffff"
     bordercolor="#666666"
     borderopacity="1"
     objecttolerance="10"
     gridtolerance="10"
     guidetolerance="10"
     inkscape:pageopacity="0"
     inkscape:pageshadow="2"
     inkscape:window-width="1920"
     inkscape:window-height="1017"
     id="namedview11"
     showgrid="false"
     showguides="false"
     inkscape:zoom="0.71200939"
     inkscape:cx="784.49348"
     inkscape:cy="389.88996"
     inkscape:window-x="-8"
     inkscape:window-y="-8"
     inkscape:window-maximized="1"
     inkscape:current-layer="svg2"
     fit-margin-top="0"
     fit-margin-left="0"
     fit-margin-right="0"
     fit-margin-bottom="0" />
  <path
     style="opacity:1;fill:#e32400"
     inkscape:connector-curvature="0"
     id="path7"
     d="m 438.77,237.01222 c 26.7,-5.37 53.39,-10.84 80.08,-16.27 2.58,23.83 5.05,47.66 7.62,71.49 -39.16,7.95 -78.33,15.92 -117.49,23.89 2.1,10.05 4.09,20.12 6.16,30.18 37.12,-7.56 74.24,-15.1 111.35,-22.65 4.32,21.43 8.87,42.82 12.98,64.29 -37.06,7.45 -74.08,15.05 -111.12,22.56 2.23,10.82 4.42,21.64 6.61,32.47 41.47,-8.33 82.89,-16.95 124.37,-25.2 4.78,24.44 9.93,48.81 14.8,73.23 -67.52,13.68 -135,27.51 -202.52,41.14 -13.78,-68.19 -27.59,-136.36 -41.45,-204.53 46.61,-13.65 86.7,-47.31 108.61,-90.6 z" />
  <path
     style="opacity:1;fill:#e32400"
     inkscape:connector-curvature="0"
     id="path9"
     d="m 0,326.76222 c 23.14,-4.93 46.37,-9.45 69.54,-14.25 33.16,31.09 66.3,62.21 99.44,93.33 0.2,-0.18 0.62,-0.54 0.82,-0.72 12.6,-28.36 25.27,-56.69 37.8,-85.08 31.46,13.77 66.91,18.11 100.79,12.53 13.85,68.1 27.63,136.21 41.58,204.29 -26.81,5.49 -53.63,10.92 -80.45,16.37 -7.95,-39.2 -15.74,-78.43 -23.78,-117.61 -16.6,34.77 -32.72,69.78 -49.09,104.67 -28.18,-25.69 -56.14,-51.64 -84.45,-77.17 7.58,39.23 15.84,78.35 23.75,117.52 -26.99,5.47 -53.96,11 -80.94,16.45 -18.41,-90.1 -36.54,-180.25 -55.01,-270.33 z" />
  <path
     style="opacity:1;fill:#ffffff;fill-opacity:1;stroke:none;stroke-opacity:1"
     d="m 454.08584,309.76748 c -12.01109,-1.10352 -23.16225,-6.93574 -30.32464,-15.86025 -2.57217,-3.20499 -7.95852,-13.62859 -10.90797,-21.10899 -0.86146,-2.18485 -12.1834,-32.12725 -25.15986,-66.53867 -12.97645,-34.41141 -24.10435,-63.57173 -24.72864,-64.80071 -2.71332,-5.3414 -8.22748,-9.44024 -13.72861,-10.20489 -4.99627,-0.69448 -11.07666,2.73017 -14.03289,7.90373 -0.64517,1.12908 -4.2705,11.70462 -8.05629,23.50119 -3.7858,11.79657 -7.02094,21.29322 -7.18922,21.10368 -0.41272,-0.46488 -25.91545,-67.74045 -25.92292,-68.38404 -0.01,-0.83653 6.21619,-10.1368 9.55594,-14.27469 14.81495,-18.355443 43.86306,-26.119529 67.81833,-18.126735 2.45796,0.820109 5.58627,2.055735 6.9518,2.745835 10.64568,5.380012 20.43986,15.62876 26.4585,27.68648 1.09223,2.18818 13.30088,35.35851 27.13033,73.71185 13.82944,38.35333 25.24966,69.83855 25.37825,69.96713 0.12858,0.1286 0.227,-27.79064 0.21869,-62.04274 -0.008,-34.25211 -0.19514,-61.94138 -0.41521,-61.53172 -0.22006,0.40966 -4.39109,11.9665 -9.26895,25.68185 -4.87787,13.71535 -8.96476,24.8411 -9.08197,24.72388 -0.11722,-0.11721 -5.52392,-15.00972 -12.01489,-33.09446 l -11.80176,-32.88134 0.71611,-2.51852 c 1.22472,-4.30728 5.34339,-12.26736 8.53472,-16.49491 12.52608,-16.593276 32.2059,-22.904858 51.47139,-16.507563 6.56258,2.179169 11.26669,5.02335 15.92505,9.62854 4.6011,4.548584 6.4929,7.611502 8.5939,13.913963 3.10434,9.31219 3.04504,7.57699 3.04493,89.08744 -9e-5,65.3612 -0.0915,74.48223 -0.78007,77.81569 -4.90866,23.76435 -24.95415,39.05158 -48.38405,36.89897 z"
     id="path4145"
     inkscape:connector-curvature="0"
     transform="matrix(0.8,0,0,0.80000008,0,-2.4414065e-5)" />
  <g
     inkscape:groupmode="layer"
     id="layer1"
     inkscape:label="Layer 1">
    <ellipse
       style="fill:#ffffff;fill-opacity:1"
       id="path4157"
       cx="280.20288"
       cy="156.60281"
       rx="146.49681"
       ry="146.11128" />
  </g>
  <path
     sodipodi:nodetypes="ccccccccccccccccccccccccccccccccccccccccccccccccccccc"
     style="opacity:1;fill:#e32400"
     inkscape:connector-curvature="0"
     id="path5"
     d="m 259,1.302224 c 30.03,-3.92 61.2,1.05 88.43,14.37 25.38,12.26 47.22,31.64 62.64,55.21 22.92,34.789996 30.82,78.969996 21.53,119.569996 -7.79,35.49 -28.65,67.8 -57.51,89.8 -33.77,26.16 -78.61,37.21 -120.69,29.99 -33.58,-5.5 -65.1,-22.46 -88.24,-47.38 -22.68,-24.04 -37.28,-55.51 -41.06,-88.33 -3.55,-29.77 1.68,-60.54 15,-87.409996 14.92,-30.36 40.01,-55.59 70.29,-70.67 15.53,-7.79 32.38,-12.9 49.61,-15.15 m -9.06,72.56 c -6.45,4.79 -10.97,11.59 -14.95,18.45 l 21.1,55.569596 11.17,-34.5296 c 1.79,-4.96 6.77,-8.99 12.23,-8.25 6.31,0.62 10.79,6.24 12.48,11.98 11.18,29.52 22.25,59.07 33.4,88.6 3.51,9.25 6.83,18.65 11.82,27.23 10.22,15.63 33.86,20.12 49.1,9.34 10.29,-6.62 16.46,-18.65 16.52,-30.81 0.12,-36.96 0.12,-73.93 0.01,-110.9 -0.3,-7.789996 -1.38,-15.959996 -5.69,-22.649996 -7.78,-11.61 -23.45,-16.17 -36.71,-13.18 -14.13,3.46 -25.14,15.75 -28.54,29.7 l 19.2,53.469596 14.9,-41.6496 -0.02,99.77 -39.47,-109.489996 c -4.87,-13.5 -15.21,-25.57 -29.07,-30.21 -15.83,-5.39 -34.06,-2.32 -47.48,7.56 m -86.08,4.13 c -5.16,6.65 -7.66,15.1 -7.71,23.459996 -0.08,36.34 -0.12,72.67 0.02,109 0.24,9.02 1.5,18.73 7.42,25.95 8.6,10.38 23.74,13.82 36.48,10.51 13.5,-3.91 23.81,-15.9 27.09,-29.38 l -19.2,-53.35 -14.9,41.71 -0.09,-99.97 39.26,108.83 c 3.03,8.2 7.63,15.95 14.17,21.83 8.52,8.04 20.45,12.13 32.1,11.46 9.78,0.44 19.37,-2.92 27.66,-7.91 7.92,-4.81 13.45,-12.56 17.86,-20.54 -6.69,-17.68 -13.44,-35.33 -20.11,-53.01 -4.51,10.8 -8.13,21.96 -12.51,32.81 -1.78,4.27 -6.07,7.77 -10.86,7.54 -5.86,-0.02 -10.77,-4.7 -12.71,-9.96 -13.02,-34.27 -25.78,-68.65 -38.85,-102.899996 -3.32,-7.56 -6.2,-15.87 -12.71,-21.36 -8.55,-7.61 -20.78,-10.28 -31.89,-8.14 -8.11,1.93 -15.41,6.87 -20.52,13.42 z" />
</svg>
