<?xml version="1.0" encoding="UTF-8" standalone="no"?>
<svg
   xmlns:dc="http://purl.org/dc/elements/1.1/"
   xmlns:cc="http://creativecommons.org/ns#"
   xmlns:rdf="http://www.w3.org/1999/02/22-rdf-syntax-ns#"
   xmlns:svg="http://www.w3.org/2000/svg"
   xmlns="http://www.w3.org/2000/svg"
   xmlns:sodipodi="http://sodipodi.sourceforge.net/DTD/sodipodi-0.dtd"
   xmlns:inkscape="http://www.inkscape.org/namespaces/inkscape"
   width="374.81226pt"
   height="74.483246pt"
   viewBox="0 0 374.81226 74.483246"
   version="1.1"
   id="svg15"
   sodipodi:docname="ABC News.svg"
   inkscape:version="0.92.0 r15299">
  <metadata
     id="metadata21">
    <rdf:RDF>
      <cc:Work
         rdf:about="">
        <dc:format>image/svg+xml</dc:format>
        <dc:type
           rdf:resource="http://purl.org/dc/dcmitype/StillImage" />
        <dc:title></dc:title>
      </cc:Work>
    </rdf:RDF>
  </metadata>
  <defs
     id="defs19">
    <clipPath
       clipPathUnits="userSpaceOnUse"
       id="clipPath5209">
      <path
         d="m 22.677,237.559 h 35.06 v 42.787 h -35.06 z"
         id="path5211"
         inkscape:connector-curvature="0" />
    </clipPath>
  </defs>
  <sodipodi:namedview
     pagecolor="#ffffff"
     bordercolor="#666666"
     borderopacity="1"
     objecttolerance="10"
     gridtolerance="10"
     guidetolerance="10"
     inkscape:pageopacity="0"
     inkscape:pageshadow="2"
     inkscape:window-width="1920"
     inkscape:window-height="1017"
     id="namedview17"
     showgrid="false"
     fit-margin-top="0"
     fit-margin-left="0"
     fit-margin-right="0"
     fit-margin-bottom="0"
     inkscape:zoom="1.7603306"
     inkscape:cx="254.97359"
     inkscape:cy="-1.2073692"
     inkscape:window-x="-8"
     inkscape:window-y="-8"
     inkscape:window-maximized="1"
     inkscape:current-layer="svg15" />
  <g
     transform="matrix(1.0007425,0,0,1.0007425,-56.174842,-54.554247)"
     id="#000000ff"
     style="fill:#ffffff;fill-opacity:1">
    <path
       style="opacity:1;fill:#ffffff;fill-opacity:1"
       inkscape:connector-curvature="0"
       d="m 171.91,55.19 15.02,-0.01 28.76,52.57 0.01,-52.56 12.78,-0.01 v 72.31 H 212.84 L 184.7,76.6 l -0.03,50.89 h -12.76 z"
       id="path2-5"
       sodipodi:nodetypes="ccccccccccc" />
    <path
       style="opacity:1;fill:#ffffff;fill-opacity:1"
       inkscape:connector-curvature="0"
       d="m 235.33,55.19 43.58,-0.01 -1.53,10.74 -29.36,0.01 0.01,18.7 h 28.32 l 0.01,11.03 -28.34,0.02 v 20.75 l 31.09,0.01 0.01,11.04 -43.77,0.02 z"
       id="path4-7"
       sodipodi:nodetypes="ccccccccccccc" />
    <path
       style="opacity:1;fill:#ffffff;fill-opacity:1"
       inkscape:connector-curvature="0"
       d="m 283.96,55.18 13.5,0.01 13.28,57.81 13.51,-57.81 h 12.31 l 13.97,57.81 12.81,-57.81 13.6,-0.01 -18.2,72.3 -15.13,0.01 -13.11,-50.45 -13.01,50.46 -15.24,-0.02 z"
       id="path6-6"
       sodipodi:nodetypes="cccccccccccccc" />
    <path
       style="opacity:1;fill:#ffffff;fill-opacity:1"
       inkscape:connector-curvature="0"
       d="m 396.03,55.5 c 11.43,-2.33 23.3,0.77 33.44,6.15 l -4.79,9.92 c -8.34,-3.97 -17.95,-7.74 -27.23,-4.96 -4.47,1.18 -6.48,7.06 -3.79,10.77 2.42,3.24 6.51,4.47 10.15,5.81 7.57,2.6 15.92,4.38 21.88,10.09 6.41,6.23 6.2,16.85 1.81,24.15 -4.05,6.65 -11.91,9.87 -19.4,10.46 -10.95,0.82 -22.5,-1.86 -31.22,-8.71 l 6.3,-9.6 c 5.75,4.27 12.61,7.33 19.85,7.53 4.09,0.11 8.55,-0.52 11.74,-3.3 3.26,-2.77 3.98,-8.31 0.97,-11.52 -3.34,-3.47 -8.15,-4.84 -12.53,-6.48 -6.73,-2.43 -14.01,-4.61 -19.11,-9.91 -5.12,-5.31 -5.54,-13.83 -2.55,-20.31 2.64,-5.64 8.56,-8.94 14.48,-10.09 z"
       id="path8-5"
       sodipodi:nodetypes="cccccccccccccccccc" />
  </g>
  <g
     id="g911"
     transform="matrix(3.2781355,0,0,-3.2781355,-86.191267,862.7797)"
     style="fill:#ffffff;fill-opacity:1">
    <g
       transform="translate(1.2497713,0.74986281)"
       id="g5205"
       style="fill:#ffffff;fill-opacity:1">
      <g
         clip-path="url(#clipPath5209)"
         id="g5207"
         style="fill:#ffffff;fill-opacity:1">
        <g
           transform="translate(53.7377,261.6567)"
           id="g5213"
           style="fill:#ffffff;fill-opacity:1">
          <path
             inkscape:connector-curvature="0"
             id="path5215"
             style="fill:#ffffff;fill-opacity:1;fill-rule:nonzero;stroke:none"
             d="M 0,0 C -0.82,0.544 -1.845,0.837 -2.863,0.774 -3.368,0.744 -3.871,0.627 -4.345,0.407 -5.62,-0.206 -6.697,-1.483 -7.05,-3.015 l 2.349,-6.637 1.814,5.096 0.076,0.211 v -12.559 l -4.953,13.787 c -0.813,1.991 -2.041,2.807 -2.503,3.117 -0.81,0.479 -1.816,0.747 -2.839,0.783 -0.026,0.001 -0.052,-0.001 -0.078,0 -0.127,0.003 -0.254,0.004 -0.381,0 -0.564,-0.019 -1.125,-0.109 -1.653,-0.275 -1.375,-0.508 -2.55,-1.072 -3.778,-3.269 l 2.497,-6.535 1.486,3.933 c 0.255,0.742 0.843,1.085 1.437,1.057 0.592,-0.027 1.19,-0.423 1.47,-1.161 l 4.699,-12.509 c 0,0 0.82,-1.988 1.225,-2.398 0.971,-1.124 2.349,-1.582 3.471,-1.53 0.665,0 0.922,0.049 1.53,0.253 1.279,0.563 2.706,1.787 2.861,4.037 V -3.987 C 1.633,-2.045 1.271,-0.921 0,0" />
        </g>
        <g
           transform="translate(41.784,245.8758)"
           id="g5217"
           style="fill:#ffffff;fill-opacity:1">
          <path
             inkscape:connector-curvature="0"
             id="path5219"
             style="fill:#ffffff;fill-opacity:1;fill-rule:nonzero;stroke:none"
             d="m 0,0 c -0.293,-0.776 -0.924,-1.112 -1.547,-1.047 -0.563,0.06 -1.12,0.448 -1.412,1.151 L -7.657,12.56 c 0,0 -0.813,1.995 -1.225,2.4 -0.92,1.175 -2.349,1.583 -3.472,1.583 -0.66,0 -0.919,-0.051 -1.477,-0.254 -1.28,-0.562 -2.759,-1.789 -2.91,-4.084 V -1.377 c 0.048,-1.99 0.404,-3.063 1.683,-4.031 0.903,-0.543 1.982,-0.828 3.043,-0.714 0.44,0.046 0.876,0.16 1.296,0.354 1.274,0.614 2.399,1.89 2.704,3.372 l -2.344,6.638 -1.718,-4.972 -0.118,-0.341 V 11.54 l 4.899,-13.834 c 0.815,-1.993 2.038,-2.76 2.498,-3.063 0.937,-0.59 2.13,-0.842 3.31,-0.789 0.561,0.025 1.119,0.112 1.645,0.276 1.378,0.513 2.55,1.021 3.775,3.22 l -2.5,6.585 z" />
        </g>
        <g
           transform="translate(38.8248,245.978)"
           id="g5221"
           style="fill:#ffffff;fill-opacity:1">
          <path
             inkscape:connector-curvature="0"
             id="path5223"
             style="fill:#ffffff;fill-opacity:1;fill-rule:nonzero;stroke:none"
             d="m 0,0 -4.698,12.457 c 0,0 -0.813,1.994 -1.225,2.399 -0.919,1.175 -2.349,1.583 -3.472,1.583 -0.66,0 -0.919,-0.051 -1.477,-0.253 -1.279,-0.563 -2.759,-1.789 -2.909,-4.085 V -1.48 c 0.047,-1.991 0.403,-3.064 1.682,-4.032 0.903,-0.543 1.983,-0.828 3.044,-0.714 l -0.063,5.392 -0.118,-0.341 v 12.611 l 4.9,-13.834 c 0.814,-1.993 2.037,-2.76 2.497,-3.063 0.937,-0.59 2.13,-0.842 3.311,-0.789 l -0.06,5.099 C 0.849,-1.091 0.292,-0.703 0,0" />
        </g>
        <g
           transform="translate(53.7377,261.6549)"
           id="g5225"
           style="fill:#ffffff;fill-opacity:1">
          <path
             inkscape:connector-curvature="0"
             id="path5227"
             style="fill:#ffffff;fill-opacity:1;fill-rule:nonzero;stroke:none"
             d="m 0,0 c -0.82,0.544 -1.845,0.837 -2.863,0.775 l -0.024,-5.331 0.076,0.212 v -12.559 l -4.953,13.786 c -0.813,1.991 -2.041,2.807 -2.503,3.117 -0.81,0.479 -1.816,0.747 -2.839,0.783 -0.026,0.001 -0.052,0 -0.078,0 l -0.392,-5.088 c 0.592,-0.028 1.19,-0.424 1.47,-1.162 l 4.699,-12.509 c 0,0 0.82,-1.988 1.225,-2.398 0.971,-1.124 2.349,-1.582 3.471,-1.53 0.665,0 0.922,0.049 1.53,0.254 1.279,0.562 2.706,1.786 2.861,4.036 V -3.987 C 1.633,-2.046 1.271,-0.921 0,0" />
        </g>
      </g>
    </g>
  </g>
</svg>
