<?xml version="1.0" encoding="UTF-8"?>
<!-- Created with Inkscape (http://www.inkscape.org/) -->
<svg id="svg5111" width="37.968" height="28.402" version="1.1" viewBox="0 0 37.968 28.402" xml:space="preserve" xmlns="http://www.w3.org/2000/svg" xmlns:cc="http://creativecommons.org/ns#" xmlns:dc="http://purl.org/dc/elements/1.1/" xmlns:rdf="http://www.w3.org/1999/02/22-rdf-syntax-ns#"><metadata id="metadata5117"><rdf:RDF><cc:Work rdf:about=""><dc:format>image/svg+xml</dc:format><dc:type rdf:resource="http://purl.org/dc/dcmitype/StillImage"/><dc:title/></cc:Work></rdf:RDF></metadata><defs id="defs5115"><clipPath id="clipPath5209"><path id="path5211" d="m22.677 237.56h35.06v42.787h-35.06v-42.787z"/></clipPath><linearGradient id="linearGradient5241" x2="1" gradientTransform="matrix(-5.1015 -2.3913 -2.3913 5.1015 40.836 258.67)" gradientUnits="userSpaceOnUse"><stop id="stop5243" stop-color="#009cde" offset="0"/><stop id="stop5245" stop-color="#009cde" offset=".33129"/><stop id="stop5247" stop-color="#009cde" offset=".5"/><stop id="stop5249" stop-color="#0089cd" offset=".99605"/><stop id="stop5251" stop-color="#0089cd" offset="1"/></linearGradient><linearGradient id="linearGradient5267" x2="1" gradientTransform="matrix(-5.1018 -1.9929 -1.9929 5.1018 52.526 258.33)" gradientUnits="userSpaceOnUse"><stop id="stop5269" stop-color="#009cde" offset="0"/><stop id="stop5271" stop-color="#009cde" offset=".33129"/><stop id="stop5273" stop-color="#009cde" offset=".5"/><stop id="stop5275" stop-color="#0089cd" offset=".99605"/><stop id="stop5277" stop-color="#0089cd" offset="1"/></linearGradient><linearGradient id="linearGradient5293" x2="1" gradientTransform="matrix(4.6184 1.6861 1.6861 -4.6184 40.078 243.99)" gradientUnits="userSpaceOnUse"><stop id="stop5295" stop-color="#009cde" offset="0"/><stop id="stop5297" stop-color="#009cde" offset=".33129"/><stop id="stop5299" stop-color="#009cde" offset=".5"/><stop id="stop5301" stop-color="#0089cd" offset=".99605"/><stop id="stop5303" stop-color="#0089cd" offset="1"/></linearGradient><linearGradient id="linearGradient5319" x2="1" gradientTransform="matrix(4.3732 1.6588 1.6588 -4.3732 28.644 244.12)" gradientUnits="userSpaceOnUse"><stop id="stop5321" stop-color="#009cde" offset="0"/><stop id="stop5323" stop-color="#009cde" offset=".33129"/><stop id="stop5325" stop-color="#009cde" offset=".5"/><stop id="stop5327" stop-color="#0089cd" offset=".99605"/><stop id="stop5329" stop-color="#0089cd" offset="1"/></linearGradient></defs><g id="g5119" transform="matrix(1.25 0 0 -1.25 -32.866 328.99)"><g id="g5205" transform="translate(1.2498 .74986)"><g id="g5207" clip-path="url(#clipPath5209)"><g id="g5213" transform="translate(53.738 261.66)"><path id="path5215" d="m0 0c-0.82 0.544-1.845 0.837-2.863 0.774-0.505-0.03-1.008-0.147-1.482-0.367-1.275-0.613-2.352-1.89-2.705-3.422l2.349-6.637 1.814 5.096 0.076 0.211v-12.559l-4.953 13.787c-0.813 1.991-2.041 2.807-2.503 3.117-0.81 0.479-1.816 0.747-2.839 0.783-0.026 1e-3 -0.052-1e-3 -0.078 0-0.127 3e-3 -0.254 4e-3 -0.381 0-0.564-0.019-1.125-0.109-1.653-0.275-1.375-0.508-2.55-1.072-3.778-3.269l2.497-6.535 1.486 3.933c0.255 0.742 0.843 1.085 1.437 1.057 0.592-0.027 1.19-0.423 1.47-1.161l4.699-12.509s0.82-1.988 1.225-2.398c0.971-1.124 2.349-1.582 3.471-1.53 0.665 0 0.922 0.049 1.53 0.253 1.279 0.563 2.706 1.787 2.861 4.037v13.627c-0.047 1.942-0.409 3.066-1.68 3.987" fill="#009cde"/></g><g id="g5217" transform="translate(41.784 245.88)"><path id="path5219" d="m0 0c-0.293-0.776-0.924-1.112-1.547-1.047-0.563 0.06-1.12 0.448-1.412 1.151l-4.698 12.456s-0.813 1.995-1.225 2.4c-0.92 1.175-2.349 1.583-3.472 1.583-0.66 0-0.919-0.051-1.477-0.254-1.28-0.562-2.759-1.789-2.91-4.084v-13.582c0.048-1.99 0.404-3.063 1.683-4.031 0.903-0.543 1.982-0.828 3.043-0.714 0.44 0.046 0.876 0.16 1.296 0.354 1.274 0.614 2.399 1.89 2.704 3.372l-2.344 6.638-1.718-4.972-0.118-0.341v12.611l4.899-13.834c0.815-1.993 2.038-2.76 2.498-3.063 0.937-0.59 2.13-0.842 3.31-0.789 0.561 0.025 1.119 0.112 1.645 0.276 1.378 0.513 2.55 1.021 3.775 3.22l-2.5 6.585-1.432-3.935z" fill="#009cde"/></g><g id="g5221" transform="translate(38.825 245.98)"><path id="path5223" d="m0 0-4.698 12.457s-0.813 1.994-1.225 2.399c-0.919 1.175-2.349 1.583-3.472 1.583-0.66 0-0.919-0.051-1.477-0.253-1.279-0.563-2.759-1.789-2.909-4.085v-13.581c0.047-1.991 0.403-3.064 1.682-4.032 0.903-0.543 1.983-0.828 3.044-0.714l-0.063 5.392-0.118-0.341v12.611l4.9-13.834c0.814-1.993 2.037-2.76 2.497-3.063 0.937-0.59 2.13-0.842 3.311-0.789l-0.06 5.099c-0.563 0.06-1.12 0.448-1.412 1.151" fill="#009cde"/></g><g id="g5225" transform="translate(53.738 261.65)"><path id="path5227" d="m0 0c-0.82 0.544-1.845 0.837-2.863 0.775l-0.024-5.331 0.076 0.212v-12.559l-4.953 13.786c-0.813 1.991-2.041 2.807-2.503 3.117-0.81 0.479-1.816 0.747-2.839 0.783-0.026 1e-3 -0.052 0-0.078 0l-0.392-5.088c0.592-0.028 1.19-0.424 1.47-1.162l4.699-12.509s0.82-1.988 1.225-2.398c0.971-1.124 2.349-1.582 3.471-1.53 0.665 0 0.922 0.049 1.53 0.254 1.279 0.562 2.706 1.786 2.861 4.036v13.627c-0.047 1.941-0.409 3.066-1.68 3.987" fill="#009cde"/></g></g></g><g id="g5229" transform="translate(1.2498 .74986)"><g id="g5231"><g id="g5237"><g id="g5239"><path id="path5253" d="m40.173 262.44c-0.564-0.019-1.126-0.109-1.653-0.274-1.375-0.509-2.55-1.072-3.778-3.271l2.496-6.534 1.486 3.933c0.256 0.742 0.844 1.086 1.438 1.058l0.391 5.088c-0.07 2e-3 -0.141 3e-3 -0.212 3e-3 -0.056 0-0.112-1e-3 -0.168-3e-3" fill="url(#linearGradient5241)"/></g></g></g></g><g id="g5255" transform="translate(1.2498 .74986)"><g id="g5257"><g id="g5263"><g id="g5265"><path id="path5279" d="m49.392 262.06c-1.274-0.613-2.351-1.89-2.704-3.422l2.349-6.637 1.814 5.095 0.024 5.331c-0.505-0.03-1.008-0.147-1.483-0.367" fill="url(#linearGradient5267)"/></g></g></g></g><g id="g5281" transform="translate(1.2498 .74986)"><g id="g5283"><g id="g5289"><g id="g5291"><path id="path5305" d="m41.784 245.87c-0.293-0.775-0.924-1.112-1.547-1.047l0.06-5.098h0.018c0.555 0.026 1.106 0.113 1.627 0.276 1.377 0.512 2.55 1.02 3.774 3.219l-2.5 6.585-1.432-3.935z" fill="url(#linearGradient5293)"/></g></g></g></g><g id="g5307" transform="translate(1.2498 .74986)"><g id="g5309"><g id="g5315"><g id="g5317"><path id="path5331" d="m29.707 245.14 0.062-5.392c0.439 0.046 0.876 0.16 1.295 0.354 1.276 0.613 2.4 1.891 2.705 3.372l-2.345 6.639-1.717-4.973z" fill="url(#linearGradient5319)"/></g></g></g></g></g></svg>
