<svg height="741pt" viewBox="0 0 467 741" width="467pt" xmlns="http://www.w3.org/2000/svg" xmlns:xlink="http://www.w3.org/1999/xlink"><linearGradient id="a" gradientUnits="userSpaceOnUse" x1="227.12964" x2="225.32899" y1="548.19415" y2="-.194136"><stop offset="0" stop-color="#5ffd00"/><stop offset="1" stop-color="#49ea00"/></linearGradient><path d="m20.536814 0h426.83261v548h-426.83261z" fill="#fff"/><g fill="url(#a)"><path d="m4 0h168.08c-1.49171.63414526-3.68 1.51-5.1 2.03-42.03 14.08-80.15 40.83-106.09 76.96-19.02 26.4-30.82 58.32-31.56 90.98-.69 35.67 5.77 72.13 22.97 103.68 12.86 23.94 31.9 44.18 54 59.85 26.39-26.28 52.48-52.86 78.69-79.32-10.8-9.81-18.4-22.96-21.75-37.13-4.55-19.03-2.33-39.72 6.68-57.13 6.89-13.42 17.91-24.77 31.36-31.66 16.96-8.83 37.39-10.22 55.63-4.81 14.61 4.32 27.58 14.27 34.9 27.71 8.14 14.46 9.41 31.75 7.15 47.92-1.67 11.42-5.68 22.44-11.37 32.46-7.85 13.94-18.3 26.14-28.41 38.45-73.33 89.06-146.65 178.12-219.98 267.17-2.87 3.6-6.02 7.01-8.6 10.84h-26.6z" fill="url(#a)"/><path d="m291.68 0h172.32v548h-26.46c-.42-39.37-.03-78.76-.2-118.14-42.06 0-84.11.02-126.17 0 8.33-13.25 18.46-25.23 28.33-37.34 22.28-27.1 47.07-52.29 66.27-81.79 14.17-21.66 24.12-46.14 28.35-71.72 5.11-31.11 4.36-63.36-3.64-93.92-8.55-33.01-25.45-63.85-48.84-88.68-22.25-23.79-50.32-42.08-81.04-52.89-2.66-1.02-5.89333-2.1749576-8.92-3.52z" fill="url(#a)"/></g><g fill="#5ef700"><path d="m372.95 592.94c16.58-7.55 35.53-8.38 53.26-5.17 14.94 2.73 28.68 10.53 39.24 21.36-7.01 7.95-13.95 15.96-20.84 24.02-4.8-3.88-9.51-7.95-15.02-10.8-13.26-7.33-30.37-8.27-43.75-.75-12.22 6.66-20.23 19.64-22.22 33.25-1.34 9.96-.34 20.36 3.83 29.57 4.18 9.28 11.46 17.3 20.73 21.66 10.61 5.09 23.18 5.16 34.24 1.51 8.88-2.89 16.26-8.89 23.12-15.02 6.39 6.26 12.34 12.96 18.79 19.16.79.71 1.68 1.29 2.67 1.74v.34c-.13-.08-.4-.24-.54-.32-4.74 5.62-10.36 10.49-16.43 14.62-12.32 8.38-27.28 12.09-42.05 12.32-18.42.67-37.18-5.08-51.51-16.8-13.5-10.83-22.81-26.6-26.21-43.53-3.72-18.26-1.31-37.9 7.56-54.36 7.61-14.46 20.22-26.16 35.13-32.8z"/><path d="m64.11 587.42c10.06.11 20.12.01 30.18.05 21.26 50.14 42.72 100.2 63.91 150.37-11.47.05-22.93.01-34.4.02-4.51-11.15-9.07-22.27-13.58-33.42-21.01-.06-42.02-.01-63.03-.02-4.64 11.1-9.11 22.28-13.68 33.41-11.17.08-22.34.09-33.51.16v-.48c21.48-49.98 42.49-100.17 64.11-150.09m14.35 40.06-19.55 47.83 39.55.05z"/><path d="m181.16 588.56c23.27-.09 46.54-.06 69.8-.02 13.45.07 27.81 3.09 37.96 12.49 14.92 13.47 14.9 40.27-.63 53.27-2.31 2.12-5.14 3.56-7.5 5.63 8.51 3.38 17.07 8.14 22.1 16.09 5.54 8.76 6.27 19.8 4.44 29.8-1.86 10.01-8.57 18.73-17.36 23.72-10.86 6.26-23.65 8.17-36.02 8.32-24.26-.01-48.51.04-72.76-.03.02-49.75.09-99.51-.03-149.27m32.12 28.84c.02 10.46.04 20.93-.01 31.4 10.25.07 20.49.01 30.74.03 6.02-.03 12.4-.7 17.51-4.17 7.7-5.12 7.67-18.14.01-23.28-4.81-3.35-10.88-3.97-16.59-3.98-10.55-.02-21.1-.01-31.66 0m0 58.88c.03 10.88.05 21.77 0 32.65 12.89.31 25.79.03 38.69.15 5.66-.13 11.64-.59 16.62-3.57 8.9-4.82 9.36-19.46.95-24.99-5.11-3.46-11.49-4.15-17.51-4.25-12.91-.01-25.83-.02-38.75.01z"/></g></svg>