<?xml version="1.0" encoding="UTF-8" standalone="no"?>
<svg
   xmlns:dc="http://purl.org/dc/elements/1.1/"
   xmlns:cc="http://creativecommons.org/ns#"
   xmlns:rdf="http://www.w3.org/1999/02/22-rdf-syntax-ns#"
   xmlns:svg="http://www.w3.org/2000/svg"
   xmlns="http://www.w3.org/2000/svg"
   xmlns:sodipodi="http://sodipodi.sourceforge.net/DTD/sodipodi-0.dtd"
   xmlns:inkscape="http://www.inkscape.org/namespaces/inkscape"
   width="795.86206pt"
   height="1091.1053pt"
   viewBox="0 0 795.86206 1091.1053"
   version="1.1"
   id="svg40"
   sodipodi:docname="Aboriginal TV - Dark.svg"
   inkscape:version="0.92.0 r15299">
  <metadata
     id="metadata46">
    <rdf:RDF>
      <cc:Work
         rdf:about="">
        <dc:format>image/svg+xml</dc:format>
        <dc:type
           rdf:resource="http://purl.org/dc/dcmitype/StillImage" />
        <dc:title></dc:title>
      </cc:Work>
    </rdf:RDF>
  </metadata>
  <defs
     id="defs44" />
  <sodipodi:namedview
     pagecolor="#ffffff"
     bordercolor="#666666"
     borderopacity="1"
     objecttolerance="10"
     gridtolerance="10"
     guidetolerance="10"
     inkscape:pageopacity="0"
     inkscape:pageshadow="2"
     inkscape:window-width="1920"
     inkscape:window-height="1017"
     id="namedview42"
     showgrid="false"
     fit-margin-top="0"
     fit-margin-left="0"
     fit-margin-right="0"
     fit-margin-bottom="0"
     inkscape:zoom="0.42426407"
     inkscape:cx="514.76973"
     inkscape:cy="650.97065"
     inkscape:window-x="-8"
     inkscape:window-y="-8"
     inkscape:window-maximized="1"
     inkscape:current-layer="svg40" />
  <g
     id="#ffffffff"
     transform="translate(-82.859333,-69.174694)" />
  <path
     style="opacity:1;fill:#fbf138"
     inkscape:connector-curvature="0"
     id="path3"
     d="m 385.49067,0.235306 c 79.81,-2.81 160.17,19.63 227.25,62.89 61.64,39.490004 111.87,96.430004 143.55,162.410004 33.42,69.15 46.21,148.05 36.31,224.2 -7.4,58.2 -27.87,114.69 -59.45,164.13 -27.79,43.59 -64.17,81.69 -106.43,111.47 -63.61,44.94 -140.71,70.66 -218.62,72.36 -9.31,0.85 -18.62,-0.07 -27.93,-0.22 -77.82,-3.31 -154.41,-30.36 -217.12,-76.54 -56.95,-41.61 -102.400003,-98.73 -130.250003,-163.52 -30.56,-70.46 -40.2,-149.84 -27.09,-225.53 12.16,-72.33 44.84,-141.07 93.25,-196.16 31.350003,-35.880004 69.240003,-66.020004 111.230003,-88.520004 53.77,-28.88 114.28,-45.24 175.3,-46.97"
     sodipodi:nodetypes="cccccccccccccc" />
  <path
     style="opacity:1;fill:#000000"
     inkscape:connector-curvature="0"
     id="path8"
     d="m 224.33067,53.145306 c 52.44,-26.43 111,-41.04 169.77,-41.22 85.93,-1.52 171.83,27.59 239.72,80.15 58.53,44.940004 103.54,107.120004 128.25,176.630004 13.94,39.26 21.73,80.77 22.36,122.43 -68.27,0.02 -136.54,0 -204.81,0.01 -1.09,-36.56 -13.84,-72.64 -35.83,-101.85 -20.13,-26.95 -48.04,-47.98 -79.49,-59.9 -40.88,-15.73 -87.57,-15.62 -128.36,0.33 -28.58,11.03 -54.27,29.53 -73.67,53.25 -25.02,30.24 -39.69,68.93 -40.78,108.18 -69.84,-0.02 -139.680003,0 -209.520003,-0.01 1.19,-74.41 24.8,-148.23 66.62,-209.75 36.600003,-54.24 87.310003,-98.810004 145.740003,-128.250004 z" />
  <path
     style="opacity:1;fill:#000000"
     inkscape:connector-curvature="0"
     id="path10"
     d="m 234.71067,835.67531 c 12.24,-0.98 25.2,0.95 35.54,7.95 9.74,6.49 15.69,17.74 16.85,29.26 1.81,12.84 -1.89,26.48 -10.74,36.09 -8.76,9.94 -22.12,14.94 -35.2,15.03 -10.38,0.01 -21.21,-1.51 -30.17,-7.08 -10.04,-6.19 -16.38,-17.43 -17.63,-29.04 -1.66,-11.3 0.43,-23.33 7.02,-32.8 7.57,-11.43 20.84,-18.25 34.33,-19.41 m -0.18,7.74 c -7.59,1.88 -13.45,8.03 -16.7,14.93 -4.76,10.11 -5.23,21.65 -4.02,32.59 1.05,6.83 3.22,13.93 8.22,18.96 6.23,6.58 16.45,8.27 24.89,5.61 6.85,-2.02 12.17,-7.54 15.26,-13.82 4.43,-8.9 5.29,-19.08 4.72,-28.86 -0.52,-8.47 -3.35,-17.19 -9.53,-23.23 -5.87,-5.83 -14.84,-8.07 -22.84,-6.18 z" />
  <path
     style="opacity:1;fill:#000000"
     inkscape:connector-curvature="0"
     id="path12"
     d="m 427.44067,849.10531 c 10.65,-10.47 26.24,-14.09 40.78,-13.63 9.67,-0.08 19.14,2.66 27.73,7.01 -1.39,4.34 -2.68,8.71 -3.68,13.16 -3.06,-1.48 -4.6,-4.72 -7.32,-6.63 -10.93,-9.13 -28.59,-8.1 -38.59,1.96 -8.86,8.73 -11.98,21.79 -11.28,33.89 0.67,9.93 4.38,20.36 12.68,26.43 8.79,6.69 20.85,6.39 30.98,3.36 0.45,-10.08 0.36,-20.19 -0.56,-30.24 6.28,0.74 12.63,0.73 18.91,0.02 -0.68,11.5 -0.95,23.04 -0.4,34.56 -12.57,3.47 -25.66,5.73 -38.74,4.78 -12.03,-0.83 -24.45,-4.95 -32.84,-13.97 -7.2,-7.35 -10.76,-17.78 -10.45,-27.98 0.02,-11.97 4.05,-24.28 12.78,-32.72 z" />
  <path
     style="opacity:1;fill:#000000"
     inkscape:connector-curvature="0"
     id="path14"
     d="m 67.760667,836.48531 c 3.14,0.56 6.33,0.56 9.47,0.03 7.36,19.55 14.68,39.13 22.63,58.46 3.760003,9.07 7.380003,18.21 11.850003,26.97 -7.17,0 -14.340003,0 -21.520003,-0.01 -2.76,-8.36 -5.48,-16.74 -8.56,-25 -9.57,0 -19.14,0.02 -28.71,0 -3.19,8.2 -6.01,16.55 -8.45,25.01 -4.03,-0.01 -8.05,0 -12.08,-0.01 12.53,-28.17 23.94,-56.82 35.37,-85.45 m -11.6,53.15 c 7.55,0.04 15.1,0.03 22.65,0.01 -3.6,-9.76 -7.14,-19.54 -11.01,-29.19 -4.29,9.55 -8.07,19.34 -11.64,29.18 z" />
  <path
     style="opacity:1;fill:#000000"
     inkscape:connector-curvature="0"
     id="path16"
     d="m 123.21067,837.00531 c 11.3,1.15 22.63,-0.19 33.95,0.02 6.35,0.2 13.14,1.47 18.09,5.74 5.49,4.78 6.42,13.08 4.32,19.72 -3.07,8.07 -11.44,12.52 -19.48,14.18 8.37,0.4 16.98,4.75 20.79,12.47 4.89,10.88 -0.17,25.51 -11.51,30.05 -8.27,3.51 -17.49,2.62 -26.25,2.76 -6.76,-0.14 -13.53,0.31 -20.27,-0.3 1.68,-17.88 0.88,-35.91 1.08,-53.85 0.04,-10.27 -0.36,-20.53 -0.72,-30.79 m 19.33,37 c 4.3,0.02 8.92,0.33 12.76,-2 7.71,-4.65 9.08,-16.31 4.02,-23.35 -3.89,-4.98 -10.77,-4.53 -16.41,-4.09 -0.56,9.8 -0.55,19.62 -0.37,29.44 m 0.12,41.65 c 4.24,-0.15 8.86,0.65 12.76,-1.48 5.29,-3.07 7.8,-9.42 7.67,-15.34 0.12,-5.45 -1.19,-11.7 -5.96,-14.99 -4.23,-3.05 -9.68,-2.46 -14.59,-2.5 -0.23,11.43 -0.02,22.87 0.12,34.31 z" />
  <path
     style="opacity:1;fill:#000000"
     inkscape:connector-curvature="0"
     id="path18"
     d="m 301.68067,837.00531 c 10.46,1.16 20.95,-0.31 31.43,0.02 5.26,0.14 10.71,0.28 15.58,2.5 5.52,2.65 9.79,8.05 10.65,14.17 0.94,6.69 -0.36,14.14 -5.21,19.14 -3.59,3.98 -8.71,5.99 -13.7,7.57 8.18,14.24 17.33,27.87 26.44,41.53 -6.96,-0.01 -13.91,0.03 -20.86,0 -1.49,0.49 -2.2,-0.96 -2.79,-1.94 -7.16,-12.54 -14.14,-25.18 -21.47,-37.62 -1.44,3.3 -0.58,6.98 -0.78,10.47 0.4,9.7 0.49,19.4 1.02,29.1 -6.77,0 -13.54,-0.01 -20.3,0 1.24,-17.01 0.99,-34.08 1.01,-51.12 -0.02,-11.28 -0.23,-22.57 -1.02,-33.82 m 19.82,7.3 c -0.2,8.18 -0.18,16.36 -0.23,24.54 -0.16,3.14 -0.49,6.3 0.11,9.43 4.96,0.16 10.47,-0.32 14.29,-3.86 4.33,-3.85 5.11,-10.09 4.91,-15.56 -0.21,-4.26 -0.83,-9.31 -4.61,-11.96 -4.26,-2.81 -9.63,-2.31 -14.47,-2.59 z" />
  <path
     style="opacity:1;fill:#000000"
     inkscape:connector-curvature="0"
     id="path20"
     d="m 557.35067,837.04531 c 3.76,0.51 7.55,0.48 11.32,0.03 17.77,19.68 35.61,39.29 53.7,58.69 -0.06,-14.33 0.26,-28.66 -0.24,-42.97 -0.28,-5.25 -0.06,-10.52 -0.58,-15.75 3.69,0.52 7.42,0.49 11.12,0 -1.67,28.27 -2.22,56.58 -2,84.9 -3.28,-0.01 -6.55,-0.02 -9.82,0.02 -17.67,-20.28 -35.71,-40.22 -54.24,-59.72 -0.4,19.9 -0.55,39.82 0.4,59.7 -3.81,-0.01 -7.62,-0.01 -11.42,0 2.03,-28.24 3.03,-56.6 1.76,-84.9 z" />
  <path
     style="opacity:1;fill:#000000"
     inkscape:connector-curvature="0"
     id="path22"
     d="m 677.19067,836.50531 c 3.14,0.53 6.33,0.56 9.47,-0.02 10.98,28.68 21.35,57.66 34.46,85.45 -7.14,0.03 -14.28,-0.03 -21.41,0.03 -2.85,-8.35 -5.52,-16.76 -8.62,-25.01 -9.59,0 -19.17,-0.06 -28.75,0.03 -3.14,8.04 -5.8,16.25 -8.34,24.5 -3.82,1.05 -8.14,0.18 -12.14,0.45 12.5,-28.17 23.95,-56.79 35.33,-85.43 m -11.58,53.14 c 7.55,0.02 15.1,0.03 22.65,-0.01 -3.63,-9.74 -7.06,-19.55 -11.05,-29.14 -4.21,9.57 -8.06,19.3 -11.6,29.15 z" />
  <path
     style="opacity:1;fill:#000000"
     inkscape:connector-curvature="0"
     id="path24"
     d="m 377.72067,837.00531 c 6.74,0.62 13.52,0.63 20.25,0.01 -1.12,28.31 -1.11,56.62 -0.01,84.93 -6.74,0 -13.49,0 -20.23,0 0.94,-14.37 1.02,-28.78 0.98,-43.17 0.04,-13.93 -0.1,-27.87 -0.99,-41.77 z" />
  <path
     style="opacity:1;fill:#000000"
     inkscape:connector-curvature="0"
     id="path26"
     d="m 515.25067,837.00531 c 6.76,0.63 13.56,0.63 20.33,-0.01 -1.24,18.92 -0.9,37.9 -0.91,56.85 -0.03,9.38 0.35,18.74 0.91,28.1 -6.78,-0.01 -13.55,-0.01 -20.33,0 1.43,-28.29 1.41,-56.66 0,-84.94 z" />
  <path
     style="opacity:1;fill:#000000"
     inkscape:connector-curvature="0"
     id="path28"
     d="m 732.52067,837.00531 c 6.76,0.63 13.57,0.62 20.34,0 -1.54,25.32 -1.01,50.7 -0.79,76.06 9.48,-0.1 18.99,-0.46 28.39,-1.69 -0.61,3.49 -0.67,7.06 -0.06,10.57 -15.96,0 -31.92,0 -47.88,0 0.53,-10.36 0.99,-20.71 0.93,-31.07 0.04,-17.97 0.17,-35.94 -0.93,-53.87 z" />
  <path
     style="opacity:1;fill:#000000"
     inkscape:connector-curvature="0"
     id="path30"
     d="m 477.05067,1015.9053 c 16.17,-24.98999 32.53,-49.84999 49.12,-74.55999 3.62,0.04 7.28,0.01 10.87,0.63 3,0.11 6.02,0.21 8.99,-0.27 3.25,-0.22 6.51,-0.35 9.77,-0.36 -0.27,1.13 -0.55,2.27 -0.84,3.42 -1.73,29.19 -1.33,58.44999 -1.54,87.68999 6.48,-0.23 12.9,-1.23 19.38,-1.38 -0.22,3.38 -0.4,6.78 -0.41,10.18 l -0.62,0.1 c 0.02,5.42 0.92,10.79 1.02,16.22 -4.52,-0.34 -9.1,-0.06 -13.56,-0.92 -1.93,-0.14 -3.87,-0.25 -5.79,-0.33 0.09,8.52 0.03,17.04 0.58,25.55 0.64,3.03 0.74,6.14 0.98,9.23 -11.19,-0.02 -22.37,0 -33.55,-0.01 0.18,-4.46 0.32,-8.92 0.53,-13.37 1.18,-7.05 0.31,-14.27 1.6,-21.32 -19.61,-0.11 -39.23,0.02 -58.84,-0.07 1.33,-6.77 1.76,-14.02 -0.03,-20.73 3.43,-6.96 8.32,-13.08 12.34,-19.7 m 45.11,-48.16999 c -14.17,21.38 -28.76,42.49999 -42.33,64.26999 14.17,0.03 28.35,0.12 42.52,-0.04 0.27,-0.17 0.82,-0.5 1.1,-0.67 0.07,-21.4 -0.07,-42.79999 0.06,-64.19999 -0.34,0.16 -1.01,0.48 -1.35,0.64 z" />
  <path
     style="opacity:1;fill:#000000"
     inkscape:connector-curvature="0"
     id="path32"
     d="m 282.82067,956.32531 c 21.24,0.57 42.49,0.63 63.73,-0.02 -0.83,3.59 -0.82,7.32 0,10.92 -7.31,-1.06 -14.7,-1.2 -22.06,-1.63 -0.33,11.74 -0.06,23.5 -0.15,35.24999 -0.01,13.44 -0.09,26.9 0.94,40.32 -6.82,0.03 -13.64,0.02 -20.46,0.01 1.3,-18.43 0.95,-36.9 1.01,-55.34999 -0.06,-6.74 0.16,-13.49 -0.31,-20.22 -7.57,0.37 -15.17,0.63 -22.7,1.62 0.66,-3.62 0.68,-7.31 0,-10.9 z" />
  <path
     style="opacity:1;fill:#000000"
     inkscape:connector-curvature="0"
     id="path34"
     d="m 351.57067,956.31531 c 7.35,0.57 14.73,0.61 22.08,-0.01 6.7,20.89 14.26,41.5 22.19,61.95999 8.07,-20.48999 16.38,-40.90999 23.21,-61.85999 3.65,0.42 7.34,0.44 10.99,0 -11.87,28.01 -23.89,55.99999 -33.88,84.73999 -3.69,0.05 -7.38,0.04 -11.07,0.01 -10.51,-28.54 -21.93,-56.71999 -33.52,-84.83999 z" />
  <g
     id="#b8272eff"
     transform="translate(-82.859333,-69.174694)">
    <path
       d="m 94.83,460.32 c 69.84,0.01 139.68,-0.01 209.52,0.01 -2.04,51.39 19.55,103.07 57.5,137.77 25.89,24.06 59.1,40.15 94.05,45.48 36.02,5.75 73.75,-0.08 106.46,-16.22 31.17,-15.25 57.68,-39.83 75.27,-69.74 17.32,-29.18 26.02,-63.38 24.85,-97.3 68.27,-0.01 136.54,0.01 204.81,-0.01 1.23,61.8 -12.42,123.86 -39.77,179.31 -24.51,49.99 -60.02,94.53 -103.23,129.64 -43.24,35.18 -94.19,60.84 -148.24,74.52 -75.19,19.29 -156.2,15 -228.93,-12.13 C 280.27,807.01 220.63,763.31 176.88,707.09 131.14,648.7 102.83,576.9 96.36,503.02 95.01,488.83 94.68,474.57 94.83,460.32 Z"
       id="path37"
       inkscape:connector-curvature="0"
       style="opacity:1;fill:#b8272e" />
  </g>
</svg>
