<svg height="1091.1053pt" viewBox="0 0 795.86206 1091.1053" width="795.86206pt" xmlns="http://www.w3.org/2000/svg"><path d="m385.49067.235306c79.81-2.81 160.17 19.63 227.25 62.89 61.64 39.490004 111.87 96.430004 143.55 162.410004 33.42 69.15 46.21 148.05 36.31 224.2-7.4 58.2-27.87 114.69-59.45 164.13-27.79 43.59-64.17 81.69-106.43 111.47-63.61 44.94-140.71 70.66-218.62 72.36-9.31.85-18.62-.07-27.93-.22-77.82-3.31-154.41-30.36-217.12-76.54-56.95-41.61-102.400003-98.73-130.250003-163.52-30.56-70.46-40.2-149.84-27.09-225.53 12.16-72.33 44.84-141.07 93.25-196.16 31.350003-35.880004 69.240003-66.020004 111.230003-88.520004 53.77-28.88 114.28-45.24 175.3-46.97" fill="#fbf138"/><path d="m224.33067 53.145306c52.44-26.43 111-41.04 169.77-41.22 85.93-1.52 171.83 27.59 239.72 80.15 58.53 44.940004 103.54 107.120004 128.25 176.630004 13.94 39.26 21.73 80.77 22.36 122.43-68.27.02-136.54 0-204.81.01-1.09-36.56-13.84-72.64-35.83-101.85-20.13-26.95-48.04-47.98-79.49-59.9-40.88-15.73-87.57-15.62-128.36.33-28.58 11.03-54.27 29.53-73.67 53.25-25.02 30.24-39.69 68.93-40.78 108.18-69.84-.02-139.680003 0-209.520003-.01 1.19-74.41 24.8-148.23 66.62-209.75 36.600003-54.24 87.310003-98.810004 145.740003-128.250004z"/><g fill="#fbf138"><path d="m234.71067 835.67531c12.24-.98 25.2.95 35.54 7.95 9.74 6.49 15.69 17.74 16.85 29.26 1.81 12.84-1.89 26.48-10.74 36.09-8.76 9.94-22.12 14.94-35.2 15.03-10.38.01-21.21-1.51-30.17-7.08-10.04-6.19-16.38-17.43-17.63-29.04-1.66-11.3.43-23.33 7.02-32.8 7.57-11.43 20.84-18.25 34.33-19.41m-.18 7.74c-7.59 1.88-13.45 8.03-16.7 14.93-4.76 10.11-5.23 21.65-4.02 32.59 1.05 6.83 3.22 13.93 8.22 18.96 6.23 6.58 16.45 8.27 24.89 5.61 6.85-2.02 12.17-7.54 15.26-13.82 4.43-8.9 5.29-19.08 4.72-28.86-.52-8.47-3.35-17.19-9.53-23.23-5.87-5.83-14.84-8.07-22.84-6.18z"/><path d="m427.44067 849.10531c10.65-10.47 26.24-14.09 40.78-13.63 9.67-.08 19.14 2.66 27.73 7.01-1.39 4.34-2.68 8.71-3.68 13.16-3.06-1.48-4.6-4.72-7.32-6.63-10.93-9.13-28.59-8.1-38.59 1.96-8.86 8.73-11.98 21.79-11.28 33.89.67 9.93 4.38 20.36 12.68 26.43 8.79 6.69 20.85 6.39 30.98 3.36.45-10.08.36-20.19-.56-30.24 6.28.74 12.63.73 18.91.02-.68 11.5-.95 23.04-.4 34.56-12.57 3.47-25.66 5.73-38.74 4.78-12.03-.83-24.45-4.95-32.84-13.97-7.2-7.35-10.76-17.78-10.45-27.98.02-11.97 4.05-24.28 12.78-32.72z"/><path d="m67.760667 836.48531c3.14.56 6.33.56 9.47.03 7.36 19.55 14.68 39.13 22.63 58.46 3.760003 9.07 7.380003 18.21 11.850003 26.97-7.17 0-14.340003 0-21.520003-.01-2.76-8.36-5.48-16.74-8.56-25-9.57 0-19.14.02-28.71 0-3.19 8.2-6.01 16.55-8.45 25.01-4.03-.01-8.05 0-12.08-.01 12.53-28.17 23.94-56.82 35.37-85.45m-11.6 53.15c7.55.04 15.1.03 22.65.01-3.6-9.76-7.14-19.54-11.01-29.19-4.29 9.55-8.07 19.34-11.64 29.18z"/><path d="m123.21067 837.00531c11.3 1.15 22.63-.19 33.95.02 6.35.2 13.14 1.47 18.09 5.74 5.49 4.78 6.42 13.08 4.32 19.72-3.07 8.07-11.44 12.52-19.48 14.18 8.37.4 16.98 4.75 20.79 12.47 4.89 10.88-.17 25.51-11.51 30.05-8.27 3.51-17.49 2.62-26.25 2.76-6.76-.14-13.53.31-20.27-.3 1.68-17.88.88-35.91 1.08-53.85.04-10.27-.36-20.53-.72-30.79m19.33 37c4.3.02 8.92.33 12.76-2 7.71-4.65 9.08-16.31 4.02-23.35-3.89-4.98-10.77-4.53-16.41-4.09-.56 9.8-.55 19.62-.37 29.44m.12 41.65c4.24-.15 8.86.65 12.76-1.48 5.29-3.07 7.8-9.42 7.67-15.34.12-5.45-1.19-11.7-5.96-14.99-4.23-3.05-9.68-2.46-14.59-2.5-.23 11.43-.02 22.87.12 34.31z"/><path d="m301.68067 837.00531c10.46 1.16 20.95-.31 31.43.02 5.26.14 10.71.28 15.58 2.5 5.52 2.65 9.79 8.05 10.65 14.17.94 6.69-.36 14.14-5.21 19.14-3.59 3.98-8.71 5.99-13.7 7.57 8.18 14.24 17.33 27.87 26.44 41.53-6.96-.01-13.91.03-20.86 0-1.49.49-2.2-.96-2.79-1.94-7.16-12.54-14.14-25.18-21.47-37.62-1.44 3.3-.58 6.98-.78 10.47.4 9.7.49 19.4 1.02 29.1-6.77 0-13.54-.01-20.3 0 1.24-17.01.99-34.08 1.01-51.12-.02-11.28-.23-22.57-1.02-33.82m19.82 7.3c-.2 8.18-.18 16.36-.23 24.54-.16 3.14-.49 6.3.11 9.43 4.96.16 10.47-.32 14.29-3.86 4.33-3.85 5.11-10.09 4.91-15.56-.21-4.26-.83-9.31-4.61-11.96-4.26-2.81-9.63-2.31-14.47-2.59z"/><path d="m557.35067 837.04531c3.76.51 7.55.48 11.32.03 17.77 19.68 35.61 39.29 53.7 58.69-.06-14.33.26-28.66-.24-42.97-.28-5.25-.06-10.52-.58-15.75 3.69.52 7.42.49 11.12 0-1.67 28.27-2.22 56.58-2 84.9-3.28-.01-6.55-.02-9.82.02-17.67-20.28-35.71-40.22-54.24-59.72-.4 19.9-.55 39.82.4 59.7-3.81-.01-7.62-.01-11.42 0 2.03-28.24 3.03-56.6 1.76-84.9z"/><path d="m677.19067 836.50531c3.14.53 6.33.56 9.47-.02 10.98 28.68 21.35 57.66 34.46 85.45-7.14.03-14.28-.03-21.41.03-2.85-8.35-5.52-16.76-8.62-25.01-9.59 0-19.17-.06-28.75.03-3.14 8.04-5.8 16.25-8.34 24.5-3.82 1.05-8.14.18-12.14.45 12.5-28.17 23.95-56.79 35.33-85.43m-11.58 53.14c7.55.02 15.1.03 22.65-.01-3.63-9.74-7.06-19.55-11.05-29.14-4.21 9.57-8.06 19.3-11.6 29.15z"/><path d="m377.72067 837.00531c6.74.62 13.52.63 20.25.01-1.12 28.31-1.11 56.62-.01 84.93-6.74 0-13.49 0-20.23 0 .94-14.37 1.02-28.78.98-43.17.04-13.93-.1-27.87-.99-41.77z"/><path d="m515.25067 837.00531c6.76.63 13.56.63 20.33-.01-1.24 18.92-.9 37.9-.91 56.85-.03 9.38.35 18.74.91 28.1-6.78-.01-13.55-.01-20.33 0 1.43-28.29 1.41-56.66 0-84.94z"/><path d="m732.52067 837.00531c6.76.63 13.57.62 20.34 0-1.54 25.32-1.01 50.7-.79 76.06 9.48-.1 18.99-.46 28.39-1.69-.61 3.49-.67 7.06-.06 10.57-15.96 0-31.92 0-47.88 0 .53-10.36.99-20.71.93-31.07.04-17.97.17-35.94-.93-53.87z"/><path d="m477.05067 1015.9053c16.17-24.98999 32.53-49.84999 49.12-74.55999 3.62.04 7.28.01 10.87.63 3 .11 6.02.21 8.99-.27 3.25-.22 6.51-.35 9.77-.36-.27 1.13-.55 2.27-.84 3.42-1.73 29.19-1.33 58.44999-1.54 87.68999 6.48-.23 12.9-1.23 19.38-1.38-.22 3.38-.4 6.78-.41 10.18l-.62.1c.02 5.42.92 10.79 1.02 16.22-4.52-.34-9.1-.06-13.56-.92-1.93-.14-3.87-.25-5.79-.33.09 8.52.03 17.04.58 25.55.64 3.03.74 6.14.98 9.23-11.19-.02-22.37 0-33.55-.01.18-4.46.32-8.92.53-13.37 1.18-7.05.31-14.27 1.6-21.32-19.61-.11-39.23.02-58.84-.07 1.33-6.77 1.76-14.02-.03-20.73 3.43-6.96 8.32-13.08 12.34-19.7m45.11-48.16999c-14.17 21.38-28.76 42.49999-42.33 64.26999 14.17.03 28.35.12 42.52-.04.27-.17.82-.5 1.1-.67.07-21.4-.07-42.79999.06-64.19999-.34.16-1.01.48-1.35.64z"/><path d="m282.82067 956.32531c21.24.57 42.49.63 63.73-.02-.83 3.59-.82 7.32 0 10.92-7.31-1.06-14.7-1.2-22.06-1.63-.33 11.74-.06 23.5-.15 35.24999-.01 13.44-.09 26.9.94 40.32-6.82.03-13.64.02-20.46.01 1.3-18.43.95-36.9 1.01-55.34999-.06-6.74.16-13.49-.31-20.22-7.57.37-15.17.63-22.7 1.62.66-3.62.68-7.31 0-10.9z"/><path d="m351.57067 956.31531c7.35.57 14.73.61 22.08-.01 6.7 20.89 14.26 41.5 22.19 61.95999 8.07-20.48999 16.38-40.90999 23.21-61.85999 3.65.42 7.34.44 10.99 0-11.87 28.01-23.89 55.99999-33.88 84.73999-3.69.05-7.38.04-11.07.01-10.51-28.54-21.93-56.71999-33.52-84.83999z"/></g><path d="m94.83 460.32c69.84.01 139.68-.01 209.52.01-2.04 51.39 19.55 103.07 57.5 137.77 25.89 24.06 59.1 40.15 94.05 45.48 36.02 5.75 73.75-.08 106.46-16.22 31.17-15.25 57.68-39.83 75.27-69.74 17.32-29.18 26.02-63.38 24.85-97.3 68.27-.01 136.54.01 204.81-.01 1.23 61.8-12.42 123.86-39.77 179.31-24.51 49.99-60.02 94.53-103.23 129.64-43.24 35.18-94.19 60.84-148.24 74.52-75.19 19.29-156.2 15-228.93-12.13-66.85-24.64-126.49-68.34-170.24-124.56-45.74-58.39-74.05-130.19-80.52-204.07-1.35-14.19-1.68-28.45-1.53-42.7z" fill="#b8272e" transform="translate(-82.859333 -69.174694)"/></svg>