<?xml version="1.0" encoding="UTF-8" standalone="no"?>
<svg
   xmlns:dc="http://purl.org/dc/elements/1.1/"
   xmlns:cc="http://creativecommons.org/ns#"
   xmlns:rdf="http://www.w3.org/1999/02/22-rdf-syntax-ns#"
   xmlns:svg="http://www.w3.org/2000/svg"
   xmlns="http://www.w3.org/2000/svg"
   xmlns:sodipodi="http://sodipodi.sourceforge.net/DTD/sodipodi-0.dtd"
   xmlns:inkscape="http://www.inkscape.org/namespaces/inkscape"
   width="439.6947pt"
   height="243.12pt"
   viewBox="0 0 439.6947 243.12"
   version="1.1"
   id="svg2"
   inkscape:version="0.91 r13725"
   sodipodi:docname="Aspire TV.svg">
  <metadata
     id="metadata37">
    <rdf:RDF>
      <cc:Work
         rdf:about="">
        <dc:format>image/svg+xml</dc:format>
        <dc:type
           rdf:resource="http://purl.org/dc/dcmitype/StillImage" />
        <dc:title></dc:title>
      </cc:Work>
    </rdf:RDF>
  </metadata>
  <defs
     id="defs35" />
  <sodipodi:namedview
     pagecolor="#ffffff"
     bordercolor="#666666"
     borderopacity="1"
     objecttolerance="10"
     gridtolerance="10"
     guidetolerance="10"
     inkscape:pageopacity="0"
     inkscape:pageshadow="2"
     inkscape:window-width="1920"
     inkscape:window-height="1017"
     id="namedview33"
     showgrid="false"
     fit-margin-top="0"
     fit-margin-left="0"
     fit-margin-right="0"
     fit-margin-bottom="0"
     inkscape:zoom="1.0285714"
     inkscape:cx="434.06029"
     inkscape:cy="304.96717"
     inkscape:window-x="-8"
     inkscape:window-y="-8"
     inkscape:window-maximized="1"
     inkscape:current-layer="svg2" />
  <path
     style="opacity:1;fill:#ffffff"
     inkscape:connector-curvature="0"
     id="path5"
     d="m 248.8447,178.64 c 12.9,0 25.8,0.01 38.7,-0.01 0.04,2.99 0.05,5.97 0.04,8.96 -4.41,0 -8.82,0 -13.23,0 -0.01,14.28 0.02,28.55 -0.01,42.82 -4.1,-0.01 -8.2,-0.01 -12.3,0.01 -0.03,-14.28 0,-28.55 -0.01,-42.83 -4.42,0 -8.83,0 -13.23,0.01 -0.01,-2.99 0,-5.98 0.04,-8.96 z" />
  <path
     style="opacity:1;fill:#ffffff"
     inkscape:connector-curvature="0"
     id="path7"
     d="m 367.5047,179.35 c 3.73,0.01 7.47,0.02 11.21,-0.01 2.86,11.23 5.36,22.55 8.12,33.8 2.98,-11.27 6,-22.53 9.02,-33.79 3.61,0.02 7.23,0.01 10.85,-0.01 -4.47,15.65 -9.2,31.23 -13.74,46.87 -4.23,-0.01 -8.46,-0.01 -12.69,0.01 -4.39,-15.58 -8.85,-31.16 -12.77,-46.87 z" />
  <path
     sodipodi:nodetypes="ccccc"
     style="opacity:1;fill:#2895c8"
     inkscape:connector-curvature="0"
     id="path10"
     d="M 261.6051,0.03 289.5043,0 l 0,22.26 -27.8992,0.01 z" />
  <path
     sodipodi:nodetypes="ccccccccccccccccccccccccc"
     style="opacity:1;fill:#2895c8"
     inkscape:connector-curvature="0"
     id="path12"
     d="m 9.6747006,49.97 c 7.2700004,-7.26 18.1200004,-9.06 27.9900004,-8.85 11.05,-0.2 23.15,0.52 32.23,7.56 6.98,5.47 8.75,14.85 8.93,23.23 0.26,18.34 -0.12,36.69 0.19,55.03 0.01,5.33 0.66,10.62 1.17,15.91 -8.68,-0.02 -17.37,0.02 -26.05,-0.02 -0.26,-4.42 -0.86,-8.8 -1.06,-13.22 -2.93,4.24 -5.99,8.63 -10.53,11.29 -8.22,4.93 -18.91,5.4 -27.74,1.85 -8.6600004,-3.63 -13.1600004,-12.92 -14.30000039,-21.79 -1,-8.98 -0.85,-18.64 3.59999999,-26.76 3.45,-6.51 10.0600004,-10.78 17.0400004,-12.69 9.78,-2.9 20.06,-2.49 30.14,-2.39 0.02,-5.09 0.44,-10.27 -0.46,-15.31 -1.87,-9.54 -18.41,-9.78 -20.32,-0.17 -0.89,2.67 -0.643222,5.402222 -0.746,8.32 L 2.1147006,71.91 c 0.45,-7.76 1.75,-16.25 7.56,-21.94 m 25.5700004,46.5 c -4.05,1.33 -6.69,5.28 -7.31,9.38 -1.01,5.74 -0.9,11.95 1.56,17.32 3.82,6.8 14.99,5.45 18.55,-0.98 4.85,-8.39 3.1,-18.46 3.27,-27.69 -5.35,0.65 -10.92,0.17 -16.07,1.97 z" />
  <path
     sodipodi:nodetypes="ccccccccccccccccccccccc"
     style="opacity:1;fill:#2895c8"
     inkscape:connector-curvature="0"
     id="path14"
     d="M 95.924701,49.16 C 106.6547,41.25 120.6947,40.38 133.5347,41.44 c 9.56,1.21 19.53,5.77 24.18,14.65 2.74,4.71 2.94,10.27 2.73,15.57 l -27.3,0.01 c -0.02,-4.07 0.08,-8.46 -2.11,-12.06 -2.63,-3.27 -7.57,-3.54 -11.31,-2.34 -6.68,2.32 -7.92,12.84 -2.12,16.8 6.08,4.8 13.61,7.13 20.49,10.52 7.96,3.74 16.13,8.3 20.99,15.91 5.82,9.21 4.96,21.72 -1.26,30.51 -3.91,5.61 -9.96,9.43 -16.36,11.59 -8.63,2.89 -17.9,2.72 -26.85,1.89 -8.01,-0.83 -16.579999,-3.1 -22.039999,-9.44 -5.76,-6.54 -6.48,-15.81 -6.36,-24.13 l 27.543999,-0.18 c 0.003,3.30861 -0.424,7.57 1.076,11.09 1.28,4.08 5.77,6.1 9.81,5.72 4.61,0.57 9.44,-2.44 10.5,-7.04 0.48,-3.24 0.49,-6.89 -1.59,-9.63 -4.01,-5.62 -10.66,-8.29 -16.75,-11 -8.65,-3.84 -17.959999,-7.33 -24.479999,-14.5 -9.12,-10.22 -7.6,-28.11 3.6,-36.22 z" />
  <path
     sodipodi:nodetypes="ccccccccccc"
     style="opacity:1;fill:#2895c8"
     inkscape:connector-curvature="0"
     id="path16"
     d="m 344.5547,42.86 c 3.97,-1.61 8.29,-1.69 12.5,-1.84 0.14,8.24 0.04,16.48 0.07,24.72 -6.91,0.08 -14.92,0.15 -20.08,5.49 -4.34,4.34 -4.71,10.91 -4.65,16.69 0.04,18.3 0,36.61 0.02,54.92 -9.39,0.02 -18.77,-0.01 -28.15,0.01 l 0.02,-100.13 c 8.9,0.06 17.81,-0.15 26.72,0.12 -0.03,4.32 -0.02,8.65 0.01,12.98 2.83,-5.7 7.32,-10.93 13.54,-12.96 z" />
  <path
     sodipodi:nodetypes="cccccccccccccccccccccc"
     style="opacity:1;fill:#2895c8"
     inkscape:connector-curvature="0"
     id="path18"
     d="m 370.6647,48.89 c 8.03,-6.65 18.95,-8.07 29.04,-7.78 10.81,-0.23 22.71,2.23 30.19,10.65 7.54,8.37 8.92,20.13 9.8,30.89 l 0,14.73 c -17.85,-0.01 -35.7,-0.02 -53.55,0.01 0.21,6.48 0.09,13.07 1.8,19.37 0.97,3.49 2.67,7.08 5.88,9.01 4.62,2.8 11.33,1.11 14.03,-3.59 2.4,-3.84 2.53,-8.49 2.68,-12.87 9.54,-0.17 19.08,-0.04 28.62,-0.08 -0.56,8.89 -3.01,18.16 -9.42,24.68 -7.65,8.15 -19.25,11.06 -30.1,11.08 -10.08,0.11 -20.97,-1.33 -28.96,-8.01 -7.13,-5.9 -10.14,-15.2 -11.45,-24.06 -1.7,-13.57 -1.9,-27.37 -0.03,-40.93 1.27,-8.61 4.52,-17.46 11.47,-23.1 m 18.96,13.98 c -3.65,5.58 -3.24,12.56 -3.45,18.94 l 25.49,0.01 c -0.1,-6.08 0.14,-12.58 -2.73,-18.13 -3.7,-6.91 -15.07,-7.43 -19.31,-0.82 z" />
  <path
     style="opacity:1;fill:#2895c8"
     inkscape:connector-curvature="0"
     id="path20"
     d="m 210.1447,43.6 c 8.87,-2.4 19.45,-2.12 26.81,4.02 6.44,5.55 8.98,14.2 10.16,22.33 1.59,13.27 1.05,26.69 0.84,40.03 -0.56,9.73 -1.8,20.23 -8.09,28.11 -6.79,8.46 -19.19,9.73 -29,6.68 -5.55,-1.58 -9.76,-5.8 -13.01,-10.38 -0.27,36.14 -0.1,72.28 0.01,108.43 -9.28,0.44 -18.58,0.14 -27.87,0.18 0.02,-66.28 0,-132.55 0,-198.83 8.78,0 17.56,-0.01 26.33,0.01 -0.01,3.77 -0.01,7.54 0.04,11.31 3.27,-5.21 7.63,-10.2 13.78,-11.89 m -5.24,16.64 c -4.64,2.07 -5.72,7.64 -6.47,12.14 -0.97,13.12 -0.67,26.3 -0.1,39.43 0.58,4.7 1.09,9.7 3.77,13.74 3.35,4.86 11.7,4.46 14.7,-0.56 2.66,-4.24 3.05,-9.39 3.61,-14.23 0.67,-11.96 0.86,-23.97 0.05,-35.93 -0.49,-4.14 -1,-8.63 -3.7,-12 -2.72,-3.52 -7.92,-4.27 -11.86,-2.59 z" />
  <path
     sodipodi:nodetypes="ccccc"
     style="opacity:1;fill:#2895c8"
     inkscape:connector-curvature="0"
     id="path22"
     d="m 261.6051,42.72 27.8992,0 0,100.12 c -9.33,-0.03 -18.5592,0.09 -27.8992,-0.07 z" />
  <path
     sodipodi:nodetypes="ccccc"
     style="opacity:1;fill:#ff2c7d"
     inkscape:connector-curvature="0"
     id="path25"
     d="m 7.2047006,243.12 -0.05,-79.58 151.8099994,0.02 0,79.52 z" />
  <path
     style="opacity:1;fill:#bb2157"
     inkscape:connector-curvature="0"
     id="path28"
     d="m 209.4747,163.57 c 38.79,-0.05 77.58,-0.03 116.37,0 0,26.5 0,53 -0.01,79.51 -38.78,0.01 -77.57,0.02 -116.36,-0.01 -0.01,-26.5 0,-53 0,-79.5 m 39.37,15.07 c -0.04,2.98 -0.05,5.97 -0.04,8.96 4.4,-0.01 8.81,-0.01 13.23,-0.01 0.01,14.28 -0.02,28.55 0.01,42.83 4.1,-0.02 8.2,-0.02 12.3,-0.01 0.03,-14.27 0,-28.54 0.01,-42.82 4.41,0 8.82,0 13.23,0 0.01,-2.99 0,-5.97 -0.04,-8.96 -12.9,0.02 -25.8,0.01 -38.7,0.01 z" />
  <path
     style="opacity:1;fill:#ff5f30"
     inkscape:connector-curvature="0"
     id="path31"
     d="m 336.0847,243.01 c 0.09,-26.49 0,-52.98 0.04,-79.47 33.59,0.01 67.19,0 100.78,0.01 0,26.51 0,53.02 0,79.53 -33.61,-0.04 -67.22,0.11 -100.82,-0.07 m 31.42,-63.66 c 3.92,15.71 8.38,31.29 12.77,46.87 4.23,-0.02 8.46,-0.02 12.69,-0.01 4.54,-15.64 9.27,-31.22 13.74,-46.87 -3.62,0.02 -7.24,0.03 -10.85,0.01 -3.02,11.26 -6.04,22.52 -9.02,33.79 -2.76,-11.25 -5.26,-22.57 -8.12,-33.8 -3.74,0.03 -7.48,0.02 -11.21,0.01 z" />
</svg>
