<svg width="600pt" height="342.23pt" version="1.1" viewBox="0 0 800 456.31" xmlns="http://www.w3.org/2000/svg">
 <path d="m401.71 403.42c0 37.689-30.817 57.459-62.065 51.996l-284.39-49.995c-34.3-6.3321-55.236-21.724-55.205-54.826 0.014293-82.41-0.11433-164.81 0-247.2 0-24.292 19.273-46.593 43.228-50.524l297.98-52.353c33.157-5.6482 60.452 20.375 60.452 52.594zm-61.522-380.7-292.71 51.51c-14.435 2.2439-25.676 15.805-25.676 30.443v247.22c0 14.647 11.627 28.013 26.062 30.1l296.15 52.067c18.109 3.5017 35.924-11.067 35.924-30.7v-350.17c0-21.732-21.072-32.999-39.75-30.47z" stroke-width="1.4292"/>
 <path d="m222.05 109.26c56.066-6.8788 106.87-4.5247 115.36 54.957 0.60392 5.0609 0.9703 10.162 0.84549 15.263l-51.205 2.162c-2.5289-39.318-45.39-34.309-79.07-32.052l-45.146 3.5269c-46.408 4.2152-60.374 12.808-64.507 41.542-2.4095 22.946-2.373 46.007-1.1475 67.382 1.2767 28.598 15.605 39.877 40.012 43.793l90.947 8.2496c32.325 3.5209 58.772-0.94626 59.269-34.798l51.273 2.3795c0.13692 10.247-1.0066 20.554-3.8048 30.426-14.995 47.955-60.112 44.831-108.4 40.54l-89.131-11.41c-42.58-6.0981-60.243-18.102-67.982-55.03-3.777-18.735-4.2453-39.978-4.2207-55.418 0-15.745 0.09505-41.494 5.0944-60.165 9.9732-37.791 39.44-46.888 77.897-52.473z" stroke-width=".40262"/>
 <path d="m546.59 133.2 70.304 4.2514c40.564 2.8528 70.148 14.518 70.117 56.428 0 15.425-1.8128 28.914-15.586 35.932-4.2781 2.1596-9.0329 3.4013-13.719 4.2992l6.0108 1.7725c20.329 6.5828 23.376 22.431 23.227 43.677 0.0877 8.402-0.97403 16.843-3.4266 24.894-9.0537 27.045-31.032 31.322-58.287 34.7l-75.911 4.9666c-25.446 1.0098-58.107 1.5264-73.064-21.27-7.0813-11.017-9.1698-24.385-9.2838-37.263l38.754-1.0283c-0.14484 6.0986 1.461 12.708 5.3658 17.499 10.073 11.584 26.34 11.263 44.449 10.416l73.709-4.3743c16.088-3.0642 25.528-12.412 26.654-27.18 0.87974-28.208-23.295-33.519-49.149-32.919l-31.022 2.181-16.205 0.81605v-31.664l10.071 0.39927 33.946 2.4262c8.9635 0.45191 17.971-0.0615 26.79-1.7199 14.523-3.5803 25.475-10.233 25.643-25.721-0.93958-21.243-21.879-26.178-40.197-27.165l-65.893-2.2744c-14.448-0.73456-31.871 1.7916-40.366 13.427-3.295 4.6419-4.8306 10.407-4.7472 16.067l-37.771-0.88628c-0.0263-9.6962 1.1144-19.52 4.5278-28.646 12.345-31.256 45.364-33.717 75.06-32.041z" stroke-width=".43874"/>
 <path d="m760.28 146.28 39.716 2.3351v179.18l-27.411 1.7689v-156.22l-7.9266 3.5376-37.891 40.812-16.104-17.623z" stroke-width=".43893"/>
</svg>
