<svg height="672.95551pt" viewBox="0 0 599.86963 672.95551" width="599.86963pt" xmlns="http://www.w3.org/2000/svg"><path d="m133.44 0h106.86v240.28l53.38-106.9504v106.9504h-53.38z" fill="#00aeed"/><path d="m240.3 133.3296h53.38l-53.38 106.9504z" fill="#017dc7"/><path d="m546.1 0v133.3296h53.7696v106.9504h-53.7696l-106.24-240.28z" fill="#017dc7"/><path d="m439.86 0 106.24 240.28v-106.9504h53.7696l-53.7696 106.9504-239.12-106.9504z" fill="#00aeed"/><path d="m133.44 0 106.86 240.28h-240.3z" fill="#017dc7"/><path d="m546.1 240.25-106.4 52.92.17-52.89z" fill="#017dc7"/><path d="m240.3 240.28v53.4504h-106.6z" fill="#017dc7"/><g fill="#0b4c9f"><path d="m .22 133.48 133.22-133.48-133.44 240.28z"/><path d="m306.98 133.3296 239.12 106.9504-106.23.28-132.89-.28z"/><path d="m133.7 240.28h106.6l-106.6 53.4504zm106.6 0c-158.713333 288.21333-79.35667 144.10667 0 0z"/><path d="m546.1 240.28.5 53.44-106.9-.55z"/></g><path d="m93.26 392.37c7.91.04 15.83-.03 23.75.03 10.92-.06 21.9 5.59 27.63 14.98 3.56 5.51 4.63 12.18 4.22 18.64.13 13.19-10.07 25.05-22.58 28.4-4.92 1.69-10.17 1.31-15.28 1.35h-17.75zm7.97 7.06-.01 49.25c5.94-.14 11.89.14 17.83-.18 5.91-.63 11.67-3.31 15.77-7.65 9.8-10.63 7.72-30.12-5.03-37.56-8.55-5.47-19-3.41-28.56-3.86z"/><path d="m181.26 392.36 45.93-.02.15 7.07-38.27.04-.22 20.75 34.34.11.13 7.11-34.25.05-.03 21.19 37.9.04.72 7.06-46.42.01z"/><path d="m259.16 392.38 7.54-.01.17 56.3 35.42.04-.15 7.04h-43.03z"/><path d="m356.01 391.79 6.05-.06 29.16 64.04-8-.01-7.55-16.33-33.44-.06-7.45 16.39-7.86-.04zm2.51 10.7-12.75 29.7 26.8.02-12.95-29.8z"/><path d="m421.64 393.08 7.73-.01-.1 62.74h-7.53z"/><path d="m464.82 392.34c7.74.1 15.48 0 23.23.05 9.76-.17 19.64 4.15 25.83 11.77 8.44 10.39 9.01 26.25 1.7 37.39-5.21 8.1-14.49 13.11-23.95 14.09-8.95.3-17.9.02-26.85.16zm7.61 7.12-.02 49.19c4.88-.03 9.76.02 14.64-.01 7.21.12 14.66-2.57 19.48-8.06 9.67-10.56 7.47-29.68-5-37.12-8.65-5.71-19.37-3.58-29.1-4z"/><path d="m552.5904 392.43 46.0696-.05-.67 7.05-37.6.02-.03 20.68 34.28.19-.62 7.14-33.64.01v21.19l38.89.05-.12 7.04-46.42.07z"/><path d="m27.4 499.71c9.1-1.3 18.97-.27 26.5 5.43 1.58 1.48 4.24 2.4 4.73 4.67-1.4 1.83-2.96 3.58-4.81 4.97-1.38-.19-2.25-1.5-3.34-2.23-6.57-5.82-16.31-7.76-24.59-4.81-7.92 2.78-13.81 10.14-15.39 18.31-.51 3.63-.47 7.33-.14 10.99 1.31 9.07 8 17.39 16.95 19.87 8 2.18 17.11.42 23.27-5.28 1.44-1.15 3.56-3.72 5.29-1.53 1.02 1.22 3.64 2.56 2.61 4.42-6.23 6.66-15.25 10.94-24.48 10.36-8.72.53-17.39-3.17-23.38-9.46-9.47-10.02-11.56-25.93-5.56-38.25 4.19-8.87 12.68-15.61 22.34-17.46z"/><path d="m94.41 499.74c8.56-1.29 17.83-.34 25.06 4.79 12.28 7.99 17.03 24.71 12.38 38.33-3.38 11.13-13.31 19.96-24.85 21.71-7.47.8-15.43.45-22.04-3.5-12.98-7.06-19.14-23.59-15.23-37.63 2.84-11.74 12.75-21.45 24.68-23.7m2.07 7c-13.22 2.22-21.8 16.49-19.43 29.32 1.13 9.46 7.99 18.12 17.23 20.79 7.51 2.12 16.13.76 22.15-4.4 10.73-8.86 12.07-26.44 3.3-37.12-5.39-6.94-14.67-10.17-23.25-8.59z"/><path d="m230.65 500.4h7.99l22.4 33.78 22.42-33.78h8.09l.02 63.34-7.82.08-.25-49.05-21.98 31.77-1.07-.02-21.99-31.73-.24 49-7.47.02z"/><path d="m310.25 500.37 7.51.01c.04 12.23-.02 24.46.02 36.7.09 6.98 2.44 14.79 9 18.3 7.75 4 18.97 3.23 24.54-4.06 2.81-3.79 3.82-8.61 4.02-13.23v-37.7l7.76.01c.38 11.2.04 22.42.18 33.64-.1 7.9-1.07 16.52-6.52 22.7-5.22 6.33-13.83 8.62-21.76 8.05-9.2.32-18.49-5.01-22.21-13.53-2.92-5.98-2.5-12.77-2.99-19.22.25-10.56-.51-21.15.45-31.67z"/><path d="m381.47 500.4 7.31-.01 38.79 48.91.27-48.93 7.57.67-.13 62.78-6.12-.03-33.01-41.88-6.78-8.19-.09 49.93-7.86.05z"/><path d="m455.6 501.03c2.06-1.08 5.77-1.15 7.78.03 0 20.91.22 41.85-.12 62.76-2.52-.06-5.03-.06-7.54.01-.33-20.93-.1-41.87-.12-62.8z"/><path d="m479.07 500.39 49.78-.01.33 7-20.98.07-.41 56.33h-7.56l-.44-56.32-21.01-.08z"/><path d="m537.8 500.44 9.01-.05 21.1 30.84 20.62-30.74h9.41l-26.26 38.53-.07 24.73-7.87.07-.36-25.31z"/><path d="m369.91 613.95c4.52-4.98 11.55-6.95 18.12-6.49 7.6-.3 14.66 3.11 20.78 7.31-.64 2.35-2.08 4.6-4.01 6.09-1.47-.03-2.56-1.24-3.78-1.88-5.18-3.65-11.76-5.17-18.01-4.24-3.19.74-6.59 2.13-8.33 5.09-2.37 3.8-1.61 9.77 2.56 12.03 8.75 5.25 20.08 4.16 28.22 10.71 8.86 6.91 6.36 22.63-3.62 27.32-12.39 6.2-28.1 2.42-38.16-6.59-1.08-1.97 1.78-3.41 2.68-4.93.95-1.89 2.85-.67 3.92.37 5.15 4.46 11.85 7.27 18.74 6.97 5.06.33 10.62-1.67 13.18-6.29.89-3.51 1.3-8.14-1.93-10.62-5.73-4.55-13.43-4.58-20.09-6.91-4.83-1.56-9.81-3.9-12.56-8.37-3.48-6.1-2.64-14.5 2.29-19.57z"/><path d="m485.49 607.77c8.78-1.42 18.3-.22 25.58 5.2 12.76 8.75 16.89 26.95 10.68 40.84-3.79 9.26-12.29 16.24-21.98 18.52-8.7 1.34-18.18.8-25.65-4.33-13.01-8.24-17.83-26.13-12.24-40.21 3.78-10.11 12.94-18.06 23.61-20.02m2 7c-5.05 1.06-9.85 3.59-13.26 7.5-5.99 6.88-8.12 16.92-5.36 25.62 2.11 7.96 8.46 14.66 16.39 16.99 7.98 2.24 17.19.52 23.23-5.35 10.15-9.47 10.63-27.07 1.3-37.26-5.48-6.18-14.22-9-22.3-7.5z"/><path d="m68.56 608.44 46.08-.04-.22 7.2-38.01-.1-.04 20.69 34.29.2-.22 7.23-34.03-.11-.01 21.2 38.84.08-.1 6.98-46.45.08z"/><path d="m134.59 609.03h7.83v55.68l35.31.14-.02 6.92-42.98.07z"/><path d="m196.08 608.39h45.99l-.14 7.2-38.17.06.02 20.66 34.19.07-.16 7.22-34.05.06.13 21.04 38.68.22-.02 6.84h-46.58z"/><path d="m256.88 608.41 8.49.09 21.27 52.1704h1.14l21.57-52.2404 8.49.06-27.77 63.96-6.24.02z"/><path d="m335.93 608.4 7.7-.01.01 63.39-7.76-.01z"/><path d="m431.25 608.38h7.46l.02 63.4-7.48.02z"/><path d="m544.81 608.34h7.1948l38.6552 48.99.11-48.79 7.73-.1-.14 63.43-6.15-.11-39.76-49.98-.24 50.03-7.45.02z"/><path d="m .72 608.47 49.6.03-.29 7.08-20.87.09-.19 56.09-7.69.02-.25-56.29h-20.28z"/><path d="m29.89 391.8304 6.05-.06 29.16 64.04-8-.01-7.55-16.33-33.44-.06-7.45 16.39-7.86-.04zm2.51 10.7-12.75 29.7 26.8.02-12.95-29.8z"/><path d="m150.3104 500.4h7.99l22.4 33.78 22.42-33.78h8.09l.02 63.34-7.82.08-.25-49.05-21.98 31.77-1.07-.02-21.99-31.73-.24 49-7.47.02z"/></svg>