<?xml version="1.0" encoding="UTF-8" standalone="no"?>
<svg
   xmlns:dc="http://purl.org/dc/elements/1.1/"
   xmlns:cc="http://creativecommons.org/ns#"
   xmlns:rdf="http://www.w3.org/1999/02/22-rdf-syntax-ns#"
   xmlns:svg="http://www.w3.org/2000/svg"
   xmlns="http://www.w3.org/2000/svg"
   xmlns:sodipodi="http://sodipodi.sourceforge.net/DTD/sodipodi-0.dtd"
   xmlns:inkscape="http://www.inkscape.org/namespaces/inkscape"
   width="599.86963pt"
   height="672.95551pt"
   viewBox="0 0 599.86963 672.95551"
   version="1.1"
   id="svg2"
   inkscape:version="0.91 r13725"
   sodipodi:docname="Channel 44 - Dark.svg">
  <metadata
     id="metadata105">
    <rdf:RDF>
      <cc:Work
         rdf:about="">
        <dc:format>image/svg+xml</dc:format>
        <dc:type
           rdf:resource="http://purl.org/dc/dcmitype/StillImage" />
        <dc:title></dc:title>
      </cc:Work>
    </rdf:RDF>
  </metadata>
  <defs
     id="defs103" />
  <sodipodi:namedview
     pagecolor="#ffffff"
     bordercolor="#666666"
     borderopacity="1"
     objecttolerance="10"
     gridtolerance="10"
     guidetolerance="10"
     inkscape:pageopacity="0"
     inkscape:pageshadow="2"
     inkscape:window-width="1920"
     inkscape:window-height="1017"
     id="namedview101"
     showgrid="false"
     fit-margin-top="0"
     fit-margin-left="0"
     fit-margin-right="0"
     fit-margin-bottom="0"
     inkscape:zoom="0.5"
     inkscape:cx="839.46902"
     inkscape:cy="490.81285"
     inkscape:window-x="-8"
     inkscape:window-y="-8"
     inkscape:window-maximized="1"
     inkscape:current-layer="svg2" />
  <path
     style="opacity:1;fill:#00aeed"
     inkscape:connector-curvature="0"
     id="path20"
     d="m 133.44,0 106.86,0 0,240.28 53.38,-106.9504 0,106.9504 -53.38,0 z"
     sodipodi:nodetypes="ccccccc" />
  <path
     style="opacity:1;fill:#017dc7"
     inkscape:connector-curvature="0"
     id="path25"
     d="m 240.3,133.3296 53.38,0 L 240.3,240.28 Z"
     sodipodi:nodetypes="cccc" />
  <path
     style="opacity:1;fill:#017dc7"
     inkscape:connector-curvature="0"
     id="path27"
     d="m 546.1,0 0,133.3296 53.7696,0 0,106.9504 -53.7696,0 0,0 L 439.86,0 Z"
     sodipodi:nodetypes="cccccccc" />
  <path
     style="opacity:1;fill:#00aeed"
     inkscape:connector-curvature="0"
     id="path22"
     d="m 439.86,0 106.24,240.28 0,-106.9504 53.7696,0 L 546.1,240.28 306.98,133.3296 Z"
     sodipodi:nodetypes="ccccccc" />
  <path
     style="opacity:1;fill:#017dc7"
     inkscape:connector-curvature="0"
     id="path29"
     d="M 133.44,0 240.3,240.28 0,240.28 Z"
     sodipodi:nodetypes="cccc" />
  <path
     style="opacity:1;fill:#017dc7"
     inkscape:connector-curvature="0"
     id="path33"
     d="m 546.1,240.25 -106.4,52.92 0.17,-52.89 z"
     sodipodi:nodetypes="cccc" />
  <path
     style="opacity:1;fill:#017dc7"
     inkscape:connector-curvature="0"
     id="path35"
     d="m 240.3,240.28 0,53.4504 -106.6,0 z"
     sodipodi:nodetypes="cccc" />
  <path
     style="opacity:1;fill:#0b4c9f"
     inkscape:connector-curvature="0"
     id="path38"
     d="M 0.22,133.48 133.44,0 0,240.28 Z"
     sodipodi:nodetypes="cccc" />
  <path
     style="opacity:1;fill:#0b4c9f"
     inkscape:connector-curvature="0"
     id="path40"
     d="M 306.98,133.3296 546.1,240.28 439.87,240.56 306.98,240.28 Z"
     sodipodi:nodetypes="ccccc" />
  <path
     style="opacity:1;fill:#0b4c9f"
     inkscape:connector-curvature="0"
     id="path42"
     d="m 133.7,240.28 106.6,0 -106.6,53.4504 0,-53.4504 m 106.6,0 c -158.713333,288.21333 -79.35667,144.10667 0,0 z"
     sodipodi:nodetypes="cccccc" />
  <path
     style="opacity:1;fill:#0b4c9f"
     inkscape:connector-curvature="0"
     id="path44"
     d="m 546.1,240.28 0.5,53.44 -106.9,-0.55 z"
     sodipodi:nodetypes="cccc" />
  <path
     sodipodi:nodetypes="cccccccccccccc"
     style="opacity:1;fill:#000000"
     inkscape:connector-curvature="0"
     id="path49"
     d="m 93.26,392.37 c 7.91,0.04 15.83,-0.03 23.75,0.03 10.92,-0.06 21.9,5.59 27.63,14.98 3.56,5.51 4.63,12.18 4.22,18.64 0.13,13.19 -10.07,25.05 -22.58,28.4 -4.92,1.69 -10.17,1.31 -15.28,1.35 l -17.75,0 0.01,-63.4 m 7.97,7.06 -0.01,49.25 c 5.94,-0.14 11.89,0.14 17.83,-0.18 5.91,-0.63 11.67,-3.31 15.77,-7.65 9.8,-10.63 7.72,-30.12 -5.03,-37.56 -8.55,-5.47 -19,-3.41 -28.56,-3.86 z" />
  <path
     sodipodi:nodetypes="ccccccccccccc"
     style="opacity:1;fill:#000000"
     inkscape:connector-curvature="0"
     id="path51"
     d="m 181.26,392.36 45.93,-0.02 0.15,7.07 -38.27,0.04 -0.22,20.75 34.34,0.11 0.13,7.11 -34.25,0.05 -0.03,21.19 37.9,0.04 0.72,7.06 -46.42,0.01 z" />
  <path
     sodipodi:nodetypes="ccccccc"
     style="opacity:1;fill:#000000"
     inkscape:connector-curvature="0"
     id="path53"
     d="m 259.16,392.38 7.54,-0.01 0.17,56.3 35.42,0.04 -0.15,7.04 -43.03,0 z" />
  <path
     sodipodi:nodetypes="cccccccccccccc"
     style="opacity:1;fill:#000000"
     inkscape:connector-curvature="0"
     id="path55"
     d="m 356.01,391.79 6.05,-0.06 29.16,64.04 -8,-0.01 -7.55,-16.33 -33.44,-0.06 -7.45,16.39 -7.86,-0.04 29.09,-63.93 m 2.51,10.7 -12.75,29.7 26.8,0.02 -12.95,-29.8 z" />
  <path
     sodipodi:nodetypes="ccccc"
     style="opacity:1;fill:#000000"
     inkscape:connector-curvature="0"
     id="path57"
     d="m 421.64,393.08 7.73,-0.01 -0.1,62.74 -7.53,0 z" />
  <path
     style="opacity:1;fill:#000000"
     inkscape:connector-curvature="0"
     id="path59"
     d="m 464.82,392.34 c 7.74,0.1 15.48,0 23.23,0.05 9.76,-0.17 19.64,4.15 25.83,11.77 8.44,10.39 9.01,26.25 1.7,37.39 -5.21,8.1 -14.49,13.11 -23.95,14.09 -8.95,0.3 -17.9,0.02 -26.85,0.16 l 0.04,-63.46 m 7.61,7.12 -0.02,49.19 c 4.88,-0.03 9.76,0.02 14.64,-0.01 7.21,0.12 14.66,-2.57 19.48,-8.06 9.67,-10.56 7.47,-29.68 -5,-37.12 -8.65,-5.71 -19.37,-3.58 -29.1,-4 z"
     sodipodi:nodetypes="ccscccccccccc" />
  <path
     style="opacity:1;fill:#000000"
     inkscape:connector-curvature="0"
     id="path61"
     d="m 552.5904,392.43 46.0696,-0.05 -0.67,7.05 -37.6,0.02 -0.03,20.68 34.28,0.19 -0.62,7.14 -33.64,0.01 0,21.19 38.89,0.05 -0.12,7.04 -46.42,0.07 z"
     sodipodi:nodetypes="ccccccccccccc" />
  <path
     style="opacity:1;fill:#000000"
     inkscape:connector-curvature="0"
     id="path63"
     d="m 27.4,499.71 c 9.1,-1.3 18.97,-0.27 26.5,5.43 1.58,1.48 4.24,2.4 4.73,4.67 -1.4,1.83 -2.96,3.58 -4.81,4.97 -1.38,-0.19 -2.25,-1.5 -3.34,-2.23 -6.57,-5.82 -16.31,-7.76 -24.59,-4.81 -7.92,2.78 -13.81,10.14 -15.39,18.31 -0.51,3.63 -0.47,7.33 -0.14,10.99 1.31,9.07 8,17.39 16.95,19.87 8,2.18 17.11,0.42 23.27,-5.28 1.44,-1.15 3.56,-3.72 5.29,-1.53 1.02,1.22 3.64,2.56 2.61,4.42 -6.23,6.66 -15.25,10.94 -24.48,10.36 -8.72,0.53 -17.39,-3.17 -23.38,-9.46 C 1.15,545.4 -0.94,529.49 5.06,517.17 9.25,508.3 17.74,501.56 27.4,499.71 Z" />
  <path
     style="opacity:1;fill:#000000"
     inkscape:connector-curvature="0"
     id="path65"
     d="m 94.41,499.74 c 8.56,-1.29 17.83,-0.34 25.06,4.79 12.28,7.99 17.03,24.71 12.38,38.33 -3.38,11.13 -13.31,19.96 -24.85,21.71 -7.47,0.8 -15.43,0.45 -22.04,-3.5 -12.98,-7.06 -19.14,-23.59 -15.23,-37.63 2.84,-11.74 12.75,-21.45 24.68,-23.7 m 2.07,7 c -13.22,2.22 -21.8,16.49 -19.43,29.32 1.13,9.46 7.99,18.12 17.23,20.79 7.51,2.12 16.13,0.76 22.15,-4.4 10.73,-8.86 12.07,-26.44 3.3,-37.12 -5.39,-6.94 -14.67,-10.17 -23.25,-8.59 z" />
  <path
     style="opacity:1;fill:#000000"
     inkscape:connector-curvature="0"
     id="path69"
     d="m 230.65,500.4 7.99,0 22.4,33.78 22.42,-33.78 8.09,0 0.02,63.34 -7.82,0.08 -0.25,-49.05 -21.98,31.77 -1.07,-0.02 -21.99,-31.73 -0.24,49 -7.47,0.02 z"
     sodipodi:nodetypes="cccccccccccccc" />
  <path
     style="opacity:1;fill:#000000"
     inkscape:connector-curvature="0"
     id="path71"
     d="m 310.25,500.37 7.51,0.01 c 0.04,12.23 -0.02,24.46 0.02,36.7 0.09,6.98 2.44,14.79 9,18.3 7.75,4 18.97,3.23 24.54,-4.06 2.81,-3.79 3.82,-8.61 4.02,-13.23 l 0,-37.7 7.76,0.01 c 0.38,11.2 0.04,22.42 0.18,33.64 -0.1,7.9 -1.07,16.52 -6.52,22.7 -5.22,6.33 -13.83,8.62 -21.76,8.05 -9.2,0.32 -18.49,-5.01 -22.21,-13.53 -2.92,-5.98 -2.5,-12.77 -2.99,-19.22 0.25,-10.56 -0.51,-21.15 0.45,-31.67 z"
     sodipodi:nodetypes="cccccccccccccc" />
  <path
     style="opacity:1;fill:#000000"
     inkscape:connector-curvature="0"
     id="path73"
     d="m 381.47,500.4 7.31,-0.01 38.79,48.91 0.27,-48.93 7.57,0.67 -0.13,62.78 -6.12,-0.03 -33.01,-41.88 -6.78,-8.19 -0.09,49.93 -7.86,0.05 z"
     sodipodi:nodetypes="cccccccccccc" />
  <path
     style="opacity:1;fill:#000000"
     inkscape:connector-curvature="0"
     id="path75"
     d="m 455.6,501.03 c 2.06,-1.08 5.77,-1.15 7.78,0.03 0,20.91 0.22,41.85 -0.12,62.76 -2.52,-0.06 -5.03,-0.06 -7.54,0.01 -0.33,-20.93 -0.1,-41.87 -0.12,-62.8 z" />
  <path
     style="opacity:1;fill:#000000"
     inkscape:connector-curvature="0"
     id="path77"
     d="m 479.07,500.39 49.78,-0.01 0.33,7 -20.98,0.07 -0.41,56.33 -7.56,0 -0.44,-56.32 -21.01,-0.08 z"
     sodipodi:nodetypes="ccccccccc" />
  <path
     style="opacity:1;fill:#000000"
     inkscape:connector-curvature="0"
     id="path79"
     d="m 537.8,500.44 9.01,-0.05 21.1,30.84 20.62,-30.74 9.41,0 -26.26,38.53 -0.07,24.73 -7.87,0.07 -0.36,-25.31 z"
     sodipodi:nodetypes="cccccccccc" />
  <path
     style="opacity:1;fill:#000000"
     inkscape:connector-curvature="0"
     id="path81"
     d="m 369.91,613.95 c 4.52,-4.98 11.55,-6.95 18.12,-6.49 7.6,-0.3 14.66,3.11 20.78,7.31 -0.64,2.35 -2.08,4.6 -4.01,6.09 -1.47,-0.03 -2.56,-1.24 -3.78,-1.88 -5.18,-3.65 -11.76,-5.17 -18.01,-4.24 -3.19,0.74 -6.59,2.13 -8.33,5.09 -2.37,3.8 -1.61,9.77 2.56,12.03 8.75,5.25 20.08,4.16 28.22,10.71 8.86,6.91 6.36,22.63 -3.62,27.32 -12.39,6.2 -28.1,2.42 -38.16,-6.59 -1.08,-1.97 1.78,-3.41 2.68,-4.93 0.95,-1.89 2.85,-0.67 3.92,0.37 5.15,4.46 11.85,7.27 18.74,6.97 5.06,0.33 10.62,-1.67 13.18,-6.29 0.89,-3.51 1.3,-8.14 -1.93,-10.62 -5.73,-4.55 -13.43,-4.58 -20.09,-6.91 -4.83,-1.56 -9.81,-3.9 -12.56,-8.37 -3.48,-6.1 -2.64,-14.5 2.29,-19.57 z" />
  <path
     style="opacity:1;fill:#000000"
     inkscape:connector-curvature="0"
     id="path83"
     d="m 485.49,607.77 c 8.78,-1.42 18.3,-0.22 25.58,5.2 12.76,8.75 16.89,26.95 10.68,40.84 -3.79,9.26 -12.29,16.24 -21.98,18.52 -8.7,1.34 -18.18,0.8 -25.65,-4.33 -13.01,-8.24 -17.83,-26.13 -12.24,-40.21 3.78,-10.11 12.94,-18.06 23.61,-20.02 m 2,7 c -5.05,1.06 -9.85,3.59 -13.26,7.5 -5.99,6.88 -8.12,16.92 -5.36,25.62 2.11,7.96 8.46,14.66 16.39,16.99 7.98,2.24 17.19,0.52 23.23,-5.35 10.15,-9.47 10.63,-27.07 1.3,-37.26 -5.48,-6.18 -14.22,-9 -22.3,-7.5 z" />
  <path
     style="opacity:1;fill:#000000"
     inkscape:connector-curvature="0"
     id="path85"
     d="m 68.56,608.44 46.08,-0.04 -0.22,7.2 -38.01,-0.1 -0.04,20.69 34.29,0.2 -0.22,7.23 -34.03,-0.11 -0.01,21.2 38.84,0.08 -0.1,6.98 -46.45,0.08 z"
     sodipodi:nodetypes="ccccccccccccc" />
  <path
     style="opacity:1;fill:#000000"
     inkscape:connector-curvature="0"
     id="path87"
     d="m 134.59,609.03 7.83,0 0,55.68 35.31,0.14 -0.02,6.92 -42.98,0.07 z"
     sodipodi:nodetypes="ccccccc" />
  <path
     style="opacity:1;fill:#000000"
     inkscape:connector-curvature="0"
     id="path89"
     d="m 196.08,608.39 45.99,0 -0.14,7.2 -38.17,0.06 0.02,20.66 34.19,0.07 -0.16,7.22 -34.05,0.06 0.13,21.04 38.68,0.22 -0.02,6.84 -46.58,0 z"
     sodipodi:nodetypes="ccccccccccccc" />
  <path
     style="opacity:1;fill:#000000"
     inkscape:connector-curvature="0"
     id="path91"
     d="m 256.88,608.41 8.49,0.09 21.27,52.1704 1.14,0 21.57,-52.2404 8.49,0.06 -27.77,63.96 -6.24,0.02 z"
     sodipodi:nodetypes="ccccccccc" />
  <path
     style="opacity:1;fill:#000000"
     inkscape:connector-curvature="0"
     id="path93"
     d="m 335.93,608.4 7.7,-0.01 0.01,63.39 -7.76,-0.01 z"
     sodipodi:nodetypes="ccccc" />
  <path
     style="opacity:1;fill:#000000"
     inkscape:connector-curvature="0"
     id="path95"
     d="m 431.25,608.38 7.46,0 0.02,63.4 -7.48,0.02 z"
     sodipodi:nodetypes="ccccc" />
  <path
     style="opacity:1;fill:#000000"
     inkscape:connector-curvature="0"
     id="path97"
     d="m 544.81,608.34 7.1948,0 38.6552,48.99 0.11,-48.79 7.73,-0.1 -0.14,63.43 -6.15,-0.11 -39.76,-49.98 -0.24,50.03 -7.45,0.02 z"
     sodipodi:nodetypes="ccccccccccc" />
  <path
     style="opacity:1;fill:#000000"
     inkscape:connector-curvature="0"
     id="path99"
     d="m 0.72,608.47 49.6,0.03 -0.29,7.08 -20.87,0.09 -0.19,56.09 -7.69,0.02 -0.25,-56.29 -20.28,0 z"
     sodipodi:nodetypes="ccccccccc" />
  <path
     sodipodi:nodetypes="cccccccccccccc"
     style="opacity:1;fill:#000000"
     inkscape:connector-curvature="0"
     id="path55-6"
     d="m 29.89,391.8304 6.05,-0.06 29.16,64.04 -8,-0.01 -7.55,-16.33 -33.44,-0.06 -7.45,16.39 -7.86,-0.04 29.09,-63.93 m 2.51,10.7 -12.75,29.7 26.8,0.02 -12.95,-29.8 z" />
  <path
     style="opacity:1;fill:#000000"
     inkscape:connector-curvature="0"
     id="path69-4"
     d="m 150.3104,500.4 7.99,0 22.4,33.78 22.42,-33.78 8.09,0 0.02,63.34 -7.82,0.08 -0.25,-49.05 -21.98,31.77 -1.07,-0.02 -21.99,-31.73 -0.24,49 -7.47,0.02 z"
     sodipodi:nodetypes="cccccccccccccc" />
</svg>
