<svg height="291.45599pt" viewBox="0 0 948.42004 291.45599" width="948.42004pt" xmlns="http://www.w3.org/2000/svg"><path d="m631.27.02 317.15-.02v196.79l-107.35-.01v12.95c6.65 1.53 13.58 2.89 19.45 6.56 1.76 1.3 4.15 2.95 3.69 5.47-.07 2.92-3 4.58-5.21 5.92-8.12 4.03-17.17 5.55-26.02 7-18.15 2.74-36.56 2.92-54.86 2.34-14.72-.81-29.57-2.19-43.73-6.49-4.37-1.56-9.37-3.07-12.02-7.18-1.56-3.44 1.8-6.19 4.45-7.7 5.69-3.14 12.13-4.5 18.42-5.92l-.02-12.96-113.96-.01zm13.23 14.88v165.25l290.62.02v-165.29z" fill="#55e424"/><path d="m840.28 154.05c.55.55.55.55 0 0z"/><g fill="#55e424"><path d="m873.09629 226.55595c.43149-.70682.90739-1.39595 2.11371-1.39595l13.39-.02.02 40.63h7.45l-.01 10.3-7.48.04-.01 13.7h-12.83v-13.71c-8.56-.01-17.12026 0-25.68026-.01v-10.00213c0-1.42322.65709-2.76075 1.48321-4.00519m8.74705 3.69732c5.14-.04 10.3 0 15.45-.03l-.07-26.3c-5.32 8.66-10.18 17.6-15.38 26.33z"/><path d="m908.97 228.67c4.97-4.22 11.93-4.39 18.1-3.82 6.21.62 12.42 4.16 15.1 9.96 1.69 3.7 1.75 7.97 1.03 11.92-.72 3.61-3.48 6.22-6.08 8.59 4.68 2.89 8.5 7.73 8.48 13.45.68 7.05-2.29 14.33-7.99 18.59-4.89 3.83-11.42 4.31-17.39 4.03-6.09-.22-12.42-2.72-15.9-7.92-2.98-4.05-3.38-9.23-4.07-14.04l13.2.01c.44 2.43.36 5.11 1.77 7.26 2.3 3.78 7.74 4.95 11.58 2.93 5.64-2.47 6.77-10.92 2.64-15.22-3.37-2.81-8.04-2.55-12.14-2.85l.01-9.41c4.12-.54 9.41-.1 11.98-4.09 1.21-2.41 1.07-5.37.44-7.92-1.97-5.08-9.15-5.95-13.01-2.61-2.13 2.21-2.41 5.43-2.84 8.31h-12.37c.32-6.34 2.28-13.09 7.46-17.17z"/><path d="m634.5 249.96c9.34.02 18.67-.05 28.01.03.02 2.34.03 4.67.04 7.01-6.5.1-13 .05-19.5.04-.08 8.65-.03 17.29-.04 25.94 6.49.01 12.99-.04 19.48.04.04 2.35.05 4.7.09 7.06-9.36.05-18.72.03-28.08.01.04-13.38.04-26.76 0-40.13z"/><path d="m667.1 249.95c2.83 0 5.66 0 8.5.01-.04 5.5-.03 11-.01 16.51 3.9.02 7.81.02 11.72 0 .03-5.51.01-11.01.03-16.51 2.59 0 5.2 0 7.8.02.12 13.37.04 26.75.05 40.12-2.63 0-5.25 0-7.87-.01.02-5.47.02-10.93 0-16.4-3.91-.01-7.82-.01-11.73 0-.02 5.47-.03 10.93.01 16.39-2.85.02-5.69.02-8.52.03.03-13.39-.01-26.77.02-40.16z"/><path d="m700.12 249.96c9.35 0 18.69-.03 28.05.02.12 13.37.03 26.75.04 40.12-2.62 0-5.24 0-7.85-.01.03-5.46.02-10.93.01-16.39-3.92-.02-7.84-.02-11.75-.01-.03 5.47-.03 10.93 0 16.4-2.84.01-5.68.01-8.52.02.03-13.39-.01-26.77.02-40.15m8.47 7.1c.01 3.14.02 6.28.01 9.43 3.92-.01 7.85-.01 11.78 0-.01-3.15-.02-6.3.02-9.44-3.94.01-7.88.01-11.81.01z"/><path d="m733.16 249.93c2.76.06 5.58-.22 8.31.34 4.2 6.61 7.4 13.84 11.78 20.35.34-6.88.12-13.78.16-20.67 2.58 0 5.17.01 7.77.02.16 13.39.04 26.78.06 40.16-2.56-.19-5.37.49-7.75-.56-4.27-6.64-7.27-14.05-11.66-20.63-.38 7.04-.14 14.1-.17 21.15-2.85.01-5.69.01-8.53.02.04-13.4-.02-26.79.03-40.18z"/><path d="m765.9 249.93c2.69.02 5.39.02 8.09.01 4.05 7.07 7.9 14.24 12.02 21.27.09-7.09.03-14.18.05-21.28 2.59.02 5.18.04 7.77.07.07 13.37-.01 26.73.05 40.1-2.57 0-5.14 0-7.7-.01-3.93-7.28-7.79-14.6-11.9-21.78-.19 7.27-.03 14.53-.1 21.8-2.77 0-5.53 0-8.28-.01-.02-13.39-.02-26.78 0-40.17z"/><path d="m798.94 249.92c9.3.09 18.61-.03 27.91.07.02 2.35.03 4.69.06 7.04-6.56.04-13.12.04-19.67.01-.01 3.15-.01 6.3 0 9.46 6.55-.01 13.11-.06 19.66.04-.02 2.36-.03 4.73-.05 7.09-6.54.1-13.08.04-19.61.06-.01 3.09-.01 6.19-.01 9.29 6.53.01 13.07-.04 19.6.04.03 2.35.05 4.71.09 7.07-9.33.03-18.66.01-27.98.02-.01-13.4-.02-26.79 0-40.19z"/><path d="m832.02 249.93c2.74.02 5.49.02 8.25.01.01 11.01.01 22.02 0 33.04 6.53.01 13.05-.03 19.59.03.03 2.36.05 4.72.09 7.08-9.32.03-18.64 0-27.95.02.03-13.39-.02-26.79.02-40.18z"/></g><path d="m867.45 22.52c2.53.5 5.41 1.02 5.81 4.07.64-.18 1.93-.56 2.57-.74-.24.58-.72 1.75-.96 2.34 3.67-2.69 7.57 0 10.45 2.48-1.16 1.06-2.35 2.08-3.43 3.21.68 1.2 1.86 1.94 2.93 2.79-1 2.09-1.85 4.25-2.91 6.3-.12-1.69-.15-3.39-.07-5.08-1.52-1.45-2.87-3.06-4.29-4.59-1.45 4.43 2.2 8.73.1 13.11.15.03.44.09.59.12.37-1.61.75-3.23 1.25-4.81.63 3.07.88 6.2 1.24 9.31-.64.11-1.93.33-2.58.44-.83 4.92 2.32 9.42 1.06 14.29-.6 3.68-2.34 7.03-3.26 10.61-.64 3.4-.75 6.87-1.39 10.27-.71-.04-2.15-.13-2.86-.17-.07 3.57-1.28 7.42.43 10.76-.92.54-1.83 1.08-2.72 1.62.28.71.84 2.14 1.11 2.85-1.03.46-2.05.93-3.07 1.39-.13 3.33.71 6.92-.86 10.02-1.12 2.1-1.19 5.05-3.86 5.84-.22-2.63-1.26-5.07-2.32-7.45.19 2.13 2.4 4.88.09 6.51-1.5 1.35-3.44 2.07-5.16 3.06 1.31 2.53 3.18 4.7 5.32 6.58 1.4-2.18 2.64-4.47 4.05-6.65.88 4.02.32 9.53-4.47 10.66.1 1.34.19 2.69.28 4.04-.81-.08-2.45-.26-3.26-.34.8-2.12 1.67-4.23 2.23-6.43-2.95 1.91-3.79 5.26-3.66 8.57 1.01.07 3.04.19 4.05.26-.58 1.9-1.11 3.82-1.88 5.66-.76-1.18-1.22-2.49-1.64-3.81.18 3.23-1.83 5.69-3.1 8.42-.58 6.38-10.12 5.48-10.96 11.83-.7-.46-1.38-.91-2.06-1.36-.25.73-.75 2.17-1 2.9-1.67-1.17-3.54-2.31-4.27-4.32-1.37-4.26-.86-8.85-1.87-13.17-.93-1.7-2.87-2.58-4.08-4.07-2.62-3.07-3.75-7.05-5.28-10.71-1-2.81-4.34-3.83-5.42-6.57-2.05-4.87-4.94-9.33-6.79-14.28-1.24-3.19-4.14-5.26-5.88-8.12-1.42-3.31-1.37-7.26-3.79-10.11-1.36-1.48-1.9-3.45-2.96-5.11-4.14-2.48-6.01-7.29-8.28-11.35 4.42-.16 8.88 1.72 13.19-.02 1.75 1.32 3.55 3.45 6.02 2.89 2.81-.13 3.38-3.31 4.74-5.2 1.67 2.57 2.96 5.38 2.22 8.52.7 5.99 3.19 11.69 5.71 17.14.87-.22 1.76-.43 2.65-.65.01 4.18 2.64 7.59 3.78 11.47.77 2.17 1.3 4.54 2.82 6.35 1.25 1.53 3.32 1.85 5.07 2.58.11 1.81.27 3.63.47 5.45.78-.3 1.57-.59 2.36-.89.07 2.96.94 5.82 2.79 8.16 1.59-6.32.18-14.3 5.91-18.78-.74-1.23-1.5-2.45-2.25-3.66.62-.1 1.86-.28 2.48-.38-.58-1.38-1.11-2.78-1.61-4.19 2.59.45 4.01 2.64 5.4 4.64.97-2.31 2.32-4.41 3.87-6.38-.7.16-2.1.47-2.8.62-1.26-1.9-3.3-2.81-5.23-3.82.32-3.51 1.89-6.86 5-8.74.11 1.04.33 3.12.44 4.17.48-.11 1.46-.33 1.95-.44.71-3.15 1.76-6.22 2.31-9.41 1.06 1.07 2.13 2.16 3.33 3.12.78-2.79-.22-6.08-2.46-7.95-.29 1.1-.88 3.3-1.17 4.4-2.39-3.05-.63-6.77.44-9.96 1 .38 2.02.76 3.05 1.15-.53-.45-1.58-1.34-2.1-1.79 1.9-1.07 3.81-2.14 5.72-3.2-.32-3.03-.67-6.05-.99-9.07-.51.7-1 1.4-1.48 2.1-1.97-.28-3.93-.57-5.88-.87 1.03-.86 2.08-1.7 3.14-2.54-.92-.52-1.82-1.03-2.71-1.55 2.05-1.83 4.24-3.49 6.48-5.1-.66-1.04-2-1.81-2.01-3.14-.33-2.6 2.03-4.34 3.53-6.1-.8-.68-1.6-1.36-2.38-2.04 1.52-2.08.98-4.74 1.67-7.1-1.47-.25-2.93-.53-4.38-.83 1.9-1.13 3.97-1.97 5.86-3.14 1.13-1.54 1.45-3.8 3.7-4.12-.63-.91-1.24-1.84-1.82-2.77m11.28 6.62c-1.28.4-1.85 2.74-.15 2.96 2.37.74 2.51-3.81.15-2.96m-13.47 17.71c-1.27 1.33 1.24 2.08 2.07 1.15 1.31-1.22-1.33-2.04-2.07-1.15m-5.33 8.88c1.18.86 2.39 1.71 3.6 2.56.57-1.14 1.15-2.29 1.74-3.44-1.79.3-3.57.6-5.34.88m8.21 5.46c.8.02 2.4.07 3.19.09-.59-1.46-1.19-2.91-1.77-4.36-.52 1.41-.96 2.84-1.42 4.27m-.91 4.74c-1.34.69-1.36 1.37-.06 2.03 1.31-.7 1.33-1.38.06-2.03m-2.69 5.22c-.01.4-.03 1.2-.04 1.6 2.73 2.11 2.71-4.45.04-1.6m-7.39 37.9c-1.55 2.98 3.31.16 0 0m-26.13 7.96c-.67 1.75 3.08 3.16 3.55 1.35-.7-1-2.39-2.11-3.55-1.35m9.26 37.04c.55.55.55.55 0 0z"/><path d="m0 47.17h62.33v16.11h-44.6v21.9h44.6v15.28h-44.6v21.9h44.6l-.01 15.7h-62.32z"/><path d="m74.71 47.17 55.82.03 6.56 11.53v68.15l-6.25 11.17-56.13.01zm17.77 16.09v59.11l28.08-.02v-59.06z"/><path d="m149.45 47.18 17.75-.01v75.19h28.09l-.01-75.19h16.52l.01 90.9h-62.35z"/><path d="m224.18 47.17 57.91-.02 4.45.46-.01 15.66-44.57.01v59.08h44.56l.01 15.7-62.35.01z"/><path d="m298.93 47.17h62.34v90.88l-16.5.02-.01-37.62h-28.08l-.01 37.62-17.73-.01zm18.52 16.19-.76.36-.01 21.47h28.08v-21.92z"/><path d="m373.65 47.17h62.38v16.1l-21.06.01-.01 74.78-17.77.01-.01-74.79-23.48-.07z"/><path d="m448.4 47.17h17.73v90.89l-17.73.01z"/><path d="m478.1 47.17h62.38l-.01 90.89h-62.37zm17.78 16.1v59.09l28.1.01-.01-59.1z"/><path d="m552.87 47.17 17.65.03 28.1 50.21.06-50.24h16.52l-.01 90.89-16.08-.07-2.21-3.13-26.29-48.32v51.52l-17.74-.01z"/><path d="m755.32 55.42c2-1.86 3.89-3.84 5.86-5.73.12 1.67.21 3.34.31 5.02 1.77-1.26 3.47-2.65 5.5-3.49 1.22.47 2.43.99 3.63 1.56-.95 1.95-2.68 3.2-4.68 3.91.57 1.07 1.13 2.16 1.68 3.26.75-.02 2.25-.04 3-.05-.6-.95-1.19-1.9-1.78-2.84 1.38-1.07 2.74-2.17 4.09-3.29-.37-1.09-.72-2.19-1.04-3.29.72.16 2.16.48 2.88.63.07 2.59-1.51 4.73-2.57 6.96 1.7-.32 3.39-.71 5.09-1.09.73 1.74 1.33 3.52 1.89 5.33 1.58.52 3.16 1.07 4.72 1.69.05 1.5.07 3 .05 4.5-1.53.03-3.04.02-4.55-.05-.26-1.58-.64-3.12-1.14-4.63-.04 1.65.11 3.29.45 4.92-1.5.45-2.85 1.79-4.45 1.56-5.13-1.44-9.65 4.11-14.71 1.44-.36.77-1.09 2.3-1.46 3.07-.66-.45-2-1.36-2.67-1.82-.37.78-1.1 2.33-1.46 3.1-2.65.09-5.3.16-7.93-.14-.88 1.9-2.17 3.94-1.17 6.08 1.45 3.75.3 7.71.6 11.58-1.44 1.15-2.83 2.37-4.08 3.71.61.06 1.84.19 2.45.25-.79 3.32-.04 6.74.02 10.11.89-1.58 1.39-3.33 1.94-5.06 1.15 3.77 2.48 7.52 1.97 11.54-1.35-.65-2.67-1.33-4-1.96.63 3.57 2.94 6.69 6.77 7.07-1.48 2.71-4.27 5.02-4.05 8.35-.08 1.36-.28 2.72-.3 4.09.65 2.21 3.21 2.08 5.02 2.54-1.71 1.88-3.37 3.84-5.59 5.13-.79 5.57.35 11.29 2.54 16.41-1.12 3.27-4.03 5.87-3.47 9.6-1.71-.93-3.31-2.01-4.89-3.11-1.66.39-3.3.81-4.95 1.19-2.26-4.18-2.46-9.02-2.78-13.64-.31-3.51.92-7 .24-10.49-.96-2.24-1.72-4.57-2.26-6.95 1.36-.18 2.74-.36 4.12-.54.12-.69.35-2.08.46-2.78-1.57 1.08-3.09 2.23-4.63 3.33-.25-4.16.55-8.28 2.21-12.09-.72.04-2.16.12-2.88.16-.64-2.78-1.62-5.56-1.38-8.45.55-1.23 1.9-1.74 2.91-2.53-1.16-2.7-.4-5.6-.1-8.39-3.87-2.02-5.5-6.25-5.25-10.45-.02-2.46.27-7.25-3.42-6.74-5.72.8-11.28 2.5-16.99 3.35-1.46-.23-2.67-1.18-3.96-1.81-.06.68-.19 2.04-.26 2.72-3.77.53-7.54 1.04-11.33 1.4-1.22-1.37-2.52-2.66-3.75-4.02 1.45-.83 4.53-.49 4.2-2.89-.07-1.78-.63-3.54-1.66-4.99-2.25-2.87-2.67-6.73-2.68-10.25 1.8-.69 3.71-1.02 5.58-1.49.88.78 1.77 1.55 2.68 2.31.49-1.2 1-2.38 1.54-3.56.67.58 1.35 1.17 2.02 1.78 1.26-1.17 2.79-1.92 4.44-2.38-.24 1.28-.49 2.57-.74 3.86 1.21-.99 2.44-1.98 3.68-2.96.04 2.31.03 4.63.29 6.93.89-2.23 1.6-4.54 2.39-6.81 1.62.83 3.3 1.58 5.07 2.1.24 1.17.5 2.34.79 3.51 2.16-2.43 4.19-5.02 6.86-6.92.64 2 1.05 4.07 1.33 6.17 1.81-2.43 3.72-4.79 5.26-7.41.45 1.45.9 2.91 1.37 4.37.56-.06 1.7-.18 2.27-.24-.09-2.08.69-3.97 1.75-5.72.24 1.17.74 3.51.99 4.67.76-.77 1.54-1.54 2.34-2.3.1 1.15.3 3.47.4 4.62 4.17-2.49 3.28-7.76 2.53-11.77-1.69-.26-3.39-.46-5.06-.73 2.42-1.02 4.89-1.93 7.34-2.89-.08 2.87.16 5.73.42 8.58.65-.21 1.94-.62 2.59-.83.16-2.64-.65-5.08-2.09-7.26 2.03.62 4.05 1.35 6.05 2.13.44 3.12 1.15 6.19 2.22 9.16.81-.09 2.43-.26 3.24-.35-.05-2.02-.11-4.03-.16-6.04-.7-.03-2.11-.08-2.81-.1 1.58-1.98 2.65-4.27 3.68-6.57.71.06 2.14.2 2.85.27-.49 1.29-.97 2.58-1.44 3.87m20.74 5.38c-1.56 2.98 3.3.19 0 0m-33.47 1.08c-.95 1.23 1.2 2.39 2.02 1.3.91-1.24-1.22-2.4-2.02-1.3m28.68.18c.54.55.54.55 0 0m-23.75.76c-1.39.16-1.79 2.9-.15 2.93 1.46-.12 1.71-2.81.15-2.93m12.78-.47c.8 1.95.02 6.26 3.35 4.9-1.07-1.67-2.23-3.27-3.35-4.9m-12.06 4.67c.64.64.64.64 0 0m-60.71.85c-.47 1.39.01 1.87 1.42 1.42.45-1.41-.02-1.88-1.42-1.42m8.95.85c.05.77.15 2.29.2 3.06 1.19-.94 2.38-1.88 3.57-2.83-1.26-.08-2.52-.16-3.77-.23m41.91-.15c-1.03.73-1.75 2.91-.36 3.62 1.95.2 2.64-4.24.36-3.62m4.49 1.45c-1.17.94-.21 3.93 1.41 2.66 1.19-.92.15-3.93-1.41-2.66m-53.18 4.82c1.39-.04 2.79-.07 4.19-.11-.37-1.58-.75-3.15-1.13-4.72-1.05 1.59-2.07 3.2-3.06 4.83m48.58-1.81c.61.61.61.61 0 0m-40.17 1.15c-1.58 2.94 3.33.21 0 0m9.26.07c-.89.47-1.65 2.41-.28 2.74 1.77.26 2.38-3.48.28-2.74m-14.3 1.94c-1.17 1.01.39 3.21 1.71 2.24 1.21-.99-.45-3.15-1.71-2.24m.59 7.89c-1.72.56-1.5 3.73.64 2.88 1.9-.33 1.29-3.66-.64-2.88z"/></svg>