<svg id="a" width="948.42pt" height="291.46pt" version="1.1" viewBox="0 0 948.42 291.46" xmlns="http://www.w3.org/2000/svg">
 <path id="b" d="m631.27 0.02 317.15-0.02v196.79l-107.35-0.01v12.95c6.65 1.53 13.58 2.89 19.45 6.56 1.76 1.3 4.15 2.95 3.69 5.47-0.07 2.92-3 4.58-5.21 5.92-8.12 4.03-17.17 5.55-26.02 7-18.15 2.74-36.56 2.92-54.86 2.34-14.72-0.81-29.57-2.19-43.73-6.49-4.37-1.56-9.37-3.07-12.02-7.18-1.56-3.44 1.8-6.19 4.45-7.7 5.69-3.14 12.13-4.5 18.42-5.92l-0.02-12.96-113.96-0.01 0.01-196.74m13.23 14.88v165.25l290.62 0.02v-165.29z" fill="#55e424"/>
 <path id="c" d="m840.28 154.05c0.55 0.55 0.55 0.55 0 0z" fill="#fff"/>
 <path id="d" d="m873.1 226.56c0.43149-0.70682 0.90739-1.396 2.1137-1.396l13.39-0.02 0.02 40.63h7.45l-0.01 10.3-7.48 0.04-0.01 13.7h-12.83v-13.71c-8.56-0.01-17.12 0-25.68-0.01v-10.002c0-1.4232 0.65709-2.7608 1.4832-4.0052m8.747 3.6973c5.14-0.04 10.3 0 15.45-0.03l-0.07-26.3c-5.32 8.66-10.18 17.6-15.38 26.33z" fill="#55e424"/>
 <path id="e" d="m908.97 228.67c4.97-4.22 11.93-4.39 18.1-3.82 6.21 0.62 12.42 4.16 15.1 9.96 1.69 3.7 1.75 7.97 1.03 11.92-0.72 3.61-3.48 6.22-6.08 8.59 4.68 2.89 8.5 7.73 8.48 13.45 0.68 7.05-2.29 14.33-7.99 18.59-4.89 3.83-11.42 4.31-17.39 4.03-6.09-0.22-12.42-2.72-15.9-7.92-2.98-4.05-3.38-9.23-4.07-14.04l13.2 0.01c0.44 2.43 0.36 5.11 1.77 7.26 2.3 3.78 7.74 4.95 11.58 2.93 5.64-2.47 6.77-10.92 2.64-15.22-3.37-2.81-8.04-2.55-12.14-2.85l0.01-9.41c4.12-0.54 9.41-0.1 11.98-4.09 1.21-2.41 1.07-5.37 0.44-7.92-1.97-5.08-9.15-5.95-13.01-2.61-2.13 2.21-2.41 5.43-2.84 8.31h-12.37c0.32-6.34 2.28-13.09 7.46-17.17z" fill="#55e424"/>
 <path id="f" d="m634.5 249.96c9.34 0.02 18.67-0.05 28.01 0.03 0.02 2.34 0.03 4.67 0.04 7.01-6.5 0.1-13 0.05-19.5 0.04-0.08 8.65-0.03 17.29-0.04 25.94 6.49 0.01 12.99-0.04 19.48 0.04 0.04 2.35 0.05 4.7 0.09 7.06-9.36 0.05-18.72 0.03-28.08 0.01 0.04-13.38 0.04-26.76 0-40.13z" fill="#55e424"/>
 <path id="g" d="m667.1 249.95c2.83 0 5.66 0 8.5 0.01-0.04 5.5-0.03 11-0.01 16.51 3.9 0.02 7.81 0.02 11.72 0 0.03-5.51 0.01-11.01 0.03-16.51 2.59 0 5.2 0 7.8 0.02 0.12 13.37 0.04 26.75 0.05 40.12-2.63 0-5.25 0-7.87-0.01 0.02-5.47 0.02-10.93 0-16.4-3.91-0.01-7.82-0.01-11.73 0-0.02 5.47-0.03 10.93 0.01 16.39-2.85 0.02-5.69 0.02-8.52 0.03 0.03-13.39-0.01-26.77 0.02-40.16z" fill="#55e424"/>
 <path id="h" d="m700.12 249.96c9.35 0 18.69-0.03 28.05 0.02 0.12 13.37 0.03 26.75 0.04 40.12-2.62 0-5.24 0-7.85-0.01 0.03-5.46 0.02-10.93 0.01-16.39-3.92-0.02-7.84-0.02-11.75-0.01-0.03 5.47-0.03 10.93 0 16.4-2.84 0.01-5.68 0.01-8.52 0.02 0.03-13.39-0.01-26.77 0.02-40.15m8.47 7.1c0.01 3.14 0.02 6.28 0.01 9.43 3.92-0.01 7.85-0.01 11.78 0-0.01-3.15-0.02-6.3 0.02-9.44-3.94 0.01-7.88 0.01-11.81 0.01z" fill="#55e424"/>
 <path id="i" d="m733.16 249.93c2.76 0.06 5.58-0.22 8.31 0.34 4.2 6.61 7.4 13.84 11.78 20.35 0.34-6.88 0.12-13.78 0.16-20.67 2.58 0 5.17 0.01 7.77 0.02 0.16 13.39 0.04 26.78 0.06 40.16-2.56-0.19-5.37 0.49-7.75-0.56-4.27-6.64-7.27-14.05-11.66-20.63-0.38 7.04-0.14 14.1-0.17 21.15-2.85 0.01-5.69 0.01-8.53 0.02 0.04-13.4-0.02-26.79 0.03-40.18z" fill="#55e424"/>
 <path id="j" d="m765.9 249.93c2.69 0.02 5.39 0.02 8.09 0.01 4.05 7.07 7.9 14.24 12.02 21.27 0.09-7.09 0.03-14.18 0.05-21.28 2.59 0.02 5.18 0.04 7.77 0.07 0.07 13.37-0.01 26.73 0.05 40.1-2.57 0-5.14 0-7.7-0.01-3.93-7.28-7.79-14.6-11.9-21.78-0.19 7.27-0.03 14.53-0.1 21.8-2.77 0-5.53 0-8.28-0.01-0.02-13.39-0.02-26.78 0-40.17z" fill="#55e424"/>
 <path id="k" d="m798.94 249.92c9.3 0.09 18.61-0.03 27.91 0.07 0.02 2.35 0.03 4.69 0.06 7.04-6.56 0.04-13.12 0.04-19.67 0.01-0.01 3.15-0.01 6.3 0 9.46 6.55-0.01 13.11-0.06 19.66 0.04-0.02 2.36-0.03 4.73-0.05 7.09-6.54 0.1-13.08 0.04-19.61 0.06-0.01 3.09-0.01 6.19-0.01 9.29 6.53 0.01 13.07-0.04 19.6 0.04 0.03 2.35 0.05 4.71 0.09 7.07-9.33 0.03-18.66 0.01-27.98 0.02-0.01-13.4-0.02-26.79 0-40.19z" fill="#55e424"/>
 <path id="l" d="m832.02 249.93c2.74 0.02 5.49 0.02 8.25 0.01 0.01 11.01 0.01 22.02 0 33.04 6.53 0.01 13.05-0.03 19.59 0.03 0.03 2.36 0.05 4.72 0.09 7.08-9.32 0.03-18.64 0-27.95 0.02 0.03-13.39-0.02-26.79 0.02-40.18z" fill="#55e424"/>
 <path id="m" d="m867.45 22.52c2.53 0.5 5.41 1.02 5.81 4.07 0.64-0.18 1.93-0.56 2.57-0.74-0.24 0.58-0.72 1.75-0.96 2.34 3.67-2.69 7.57 0 10.45 2.48-1.16 1.06-2.35 2.08-3.43 3.21 0.68 1.2 1.86 1.94 2.93 2.79-1 2.09-1.85 4.25-2.91 6.3-0.12-1.69-0.15-3.39-0.07-5.08-1.52-1.45-2.87-3.06-4.29-4.59-1.45 4.43 2.2 8.73 0.1 13.11 0.15 0.03 0.44 0.09 0.59 0.12 0.37-1.61 0.75-3.23 1.25-4.81 0.63 3.07 0.88 6.2 1.24 9.31-0.64 0.11-1.93 0.33-2.58 0.44-0.83 4.92 2.32 9.42 1.06 14.29-0.6 3.68-2.34 7.03-3.26 10.61-0.64 3.4-0.75 6.87-1.39 10.27-0.71-0.04-2.15-0.13-2.86-0.17-0.07 3.57-1.28 7.42 0.43 10.76-0.92 0.54-1.83 1.08-2.72 1.62 0.28 0.71 0.84 2.14 1.11 2.85-1.03 0.46-2.05 0.93-3.07 1.39-0.13 3.33 0.71 6.92-0.86 10.02-1.12 2.1-1.19 5.05-3.86 5.84-0.22-2.63-1.26-5.07-2.32-7.45 0.19 2.13 2.4 4.88 0.09 6.51-1.5 1.35-3.44 2.07-5.16 3.06 1.31 2.53 3.18 4.7 5.32 6.58 1.4-2.18 2.64-4.47 4.05-6.65 0.88 4.02 0.32 9.53-4.47 10.66 0.1 1.34 0.19 2.69 0.28 4.04-0.81-0.08-2.45-0.26-3.26-0.34 0.8-2.12 1.67-4.23 2.23-6.43-2.95 1.91-3.79 5.26-3.66 8.57 1.01 0.07 3.04 0.19 4.05 0.26-0.58 1.9-1.11 3.82-1.88 5.66-0.76-1.18-1.22-2.49-1.64-3.81 0.18 3.23-1.83 5.69-3.1 8.42-0.58 6.38-10.12 5.48-10.96 11.83-0.7-0.46-1.38-0.91-2.06-1.36-0.25 0.73-0.75 2.17-1 2.9-1.67-1.17-3.54-2.31-4.27-4.32-1.37-4.26-0.86-8.85-1.87-13.17-0.93-1.7-2.87-2.58-4.08-4.07-2.62-3.07-3.75-7.05-5.28-10.71-1-2.81-4.34-3.83-5.42-6.57-2.05-4.87-4.94-9.33-6.79-14.28-1.24-3.19-4.14-5.26-5.88-8.12-1.42-3.31-1.37-7.26-3.79-10.11-1.36-1.48-1.9-3.45-2.96-5.11-4.14-2.48-6.01-7.29-8.28-11.35 4.42-0.16 8.88 1.72 13.19-0.02 1.75 1.32 3.55 3.45 6.02 2.89 2.81-0.13 3.38-3.31 4.74-5.2 1.67 2.57 2.96 5.38 2.22 8.52 0.7 5.99 3.19 11.69 5.71 17.14 0.87-0.22 1.76-0.43 2.65-0.65 0.01 4.18 2.64 7.59 3.78 11.47 0.77 2.17 1.3 4.54 2.82 6.35 1.25 1.53 3.32 1.85 5.07 2.58 0.11 1.81 0.27 3.63 0.47 5.45 0.78-0.3 1.57-0.59 2.36-0.89 0.07 2.96 0.94 5.82 2.79 8.16 1.59-6.32 0.18-14.3 5.91-18.78-0.74-1.23-1.5-2.45-2.25-3.66 0.62-0.1 1.86-0.28 2.48-0.38-0.58-1.38-1.11-2.78-1.61-4.19 2.59 0.45 4.01 2.64 5.4 4.64 0.97-2.31 2.32-4.41 3.87-6.38-0.7 0.16-2.1 0.47-2.8 0.62-1.26-1.9-3.3-2.81-5.23-3.82 0.32-3.51 1.89-6.86 5-8.74 0.11 1.04 0.33 3.12 0.44 4.17 0.48-0.11 1.46-0.33 1.95-0.44 0.71-3.15 1.76-6.22 2.31-9.41 1.06 1.07 2.13 2.16 3.33 3.12 0.78-2.79-0.22-6.08-2.46-7.95-0.29 1.1-0.88 3.3-1.17 4.4-2.39-3.05-0.63-6.77 0.44-9.96 1 0.38 2.02 0.76 3.05 1.15-0.53-0.45-1.58-1.34-2.1-1.79 1.9-1.07 3.81-2.14 5.72-3.2-0.32-3.03-0.67-6.05-0.99-9.07-0.51 0.7-1 1.4-1.48 2.1-1.97-0.28-3.93-0.57-5.88-0.87 1.03-0.86 2.08-1.7 3.14-2.54-0.92-0.52-1.82-1.03-2.71-1.55 2.05-1.83 4.24-3.49 6.48-5.1-0.66-1.04-2-1.81-2.01-3.14-0.33-2.6 2.03-4.34 3.53-6.1-0.8-0.68-1.6-1.36-2.38-2.04 1.52-2.08 0.98-4.74 1.67-7.1-1.47-0.25-2.93-0.53-4.38-0.83 1.9-1.13 3.97-1.97 5.86-3.14 1.13-1.54 1.45-3.8 3.7-4.12-0.63-0.91-1.24-1.84-1.82-2.77m11.28 6.62c-1.28 0.4-1.85 2.74-0.15 2.96 2.37 0.74 2.51-3.81 0.15-2.96m-13.47 17.71c-1.27 1.33 1.24 2.08 2.07 1.15 1.31-1.22-1.33-2.04-2.07-1.15m-5.33 8.88c1.18 0.86 2.39 1.71 3.6 2.56 0.57-1.14 1.15-2.29 1.74-3.44-1.79 0.3-3.57 0.6-5.34 0.88m8.21 5.46c0.8 0.02 2.4 0.07 3.19 0.09-0.59-1.46-1.19-2.91-1.77-4.36-0.52 1.41-0.96 2.84-1.42 4.27m-0.91 4.74c-1.34 0.69-1.36 1.37-0.06 2.03 1.31-0.7 1.33-1.38 0.06-2.03m-2.69 5.22-0.04 1.6c2.73 2.11 2.71-4.45 0.04-1.6m-7.39 37.9c-1.55 2.98 3.31 0.16 0 0m-26.13 7.96c-0.67 1.75 3.08 3.16 3.55 1.35-0.7-1-2.39-2.11-3.55-1.35m9.26 37.04c0.55 0.55 0.55 0.55 0 0z" fill="#fff"/>
 <path id="n" d="m0 47.17h62.33v16.11h-44.6v21.9h44.6v15.28h-44.6v21.9h44.6l-0.01 15.7h-62.32z" fill="#fff"/>
 <path id="o" d="m74.71 47.17 55.82 0.03 6.56 11.53v68.15l-6.25 11.17-56.13 0.01v-90.89m17.77 16.09v59.11l28.08-0.02v-59.06z" fill="#fff"/>
 <path id="p" d="m149.45 47.18 17.75-0.01v75.19h28.09l-0.01-75.19h16.52l0.01 90.9h-62.35z" fill="#fff"/>
 <path id="q" d="m224.18 47.17 57.91-0.02 4.45 0.46-0.01 15.66-44.57 0.01v59.08h44.56l0.01 15.7-62.35 0.01z" fill="#fff"/>
 <path id="r" d="m298.93 47.17h62.34v90.88l-16.5 0.02-0.01-37.62h-28.08l-0.01 37.62-17.73-0.01-0.01-90.89m18.52 16.19-0.76 0.36-0.01 21.47h28.08v-21.92z" fill="#fff"/>
 <path id="s" d="m373.65 47.17h62.38v16.1l-21.06 0.01-0.01 74.78-17.77 0.01-0.01-74.79-23.48-0.07z" fill="#fff"/>
 <path id="t" d="m448.4 47.17h17.73v90.89l-17.73 0.01z" fill="#fff"/>
 <path id="u" d="m478.1 47.17h62.38l-0.01 90.89h-62.37v-90.89m17.78 16.1v59.09l28.1 0.01-0.01-59.1z" fill="#fff"/>
 <path id="v" d="m552.87 47.17 17.65 0.03 28.1 50.21 0.06-50.24h16.52l-0.01 90.89-16.08-0.07-2.21-3.13-26.29-48.32v51.52l-17.74-0.01z" fill="#fff"/>
 <path id="w" d="m755.32 55.42c2-1.86 3.89-3.84 5.86-5.73 0.12 1.67 0.21 3.34 0.31 5.02 1.77-1.26 3.47-2.65 5.5-3.49 1.22 0.47 2.43 0.99 3.63 1.56-0.95 1.95-2.68 3.2-4.68 3.91 0.57 1.07 1.13 2.16 1.68 3.26 0.75-0.02 2.25-0.04 3-0.05-0.6-0.95-1.19-1.9-1.78-2.84 1.38-1.07 2.74-2.17 4.09-3.29-0.37-1.09-0.72-2.19-1.04-3.29 0.72 0.16 2.16 0.48 2.88 0.63 0.07 2.59-1.51 4.73-2.57 6.96 1.7-0.32 3.39-0.71 5.09-1.09 0.73 1.74 1.33 3.52 1.89 5.33 1.58 0.52 3.16 1.07 4.72 1.69 0.05 1.5 0.07 3 0.05 4.5-1.53 0.03-3.04 0.02-4.55-0.05-0.26-1.58-0.64-3.12-1.14-4.63-0.04 1.65 0.11 3.29 0.45 4.92-1.5 0.45-2.85 1.79-4.45 1.56-5.13-1.44-9.65 4.11-14.71 1.44-0.36 0.77-1.09 2.3-1.46 3.07-0.66-0.45-2-1.36-2.67-1.82-0.37 0.78-1.1 2.33-1.46 3.1-2.65 0.09-5.3 0.16-7.93-0.14-0.88 1.9-2.17 3.94-1.17 6.08 1.45 3.75 0.3 7.71 0.6 11.58-1.44 1.15-2.83 2.37-4.08 3.71 0.61 0.06 1.84 0.19 2.45 0.25-0.79 3.32-0.04 6.74 0.02 10.11 0.89-1.58 1.39-3.33 1.94-5.06 1.15 3.77 2.48 7.52 1.97 11.54-1.35-0.65-2.67-1.33-4-1.96 0.63 3.57 2.94 6.69 6.77 7.07-1.48 2.71-4.27 5.02-4.05 8.35-0.08 1.36-0.28 2.72-0.3 4.09 0.65 2.21 3.21 2.08 5.02 2.54-1.71 1.88-3.37 3.84-5.59 5.13-0.79 5.57 0.35 11.29 2.54 16.41-1.12 3.27-4.03 5.87-3.47 9.6-1.71-0.93-3.31-2.01-4.89-3.11-1.66 0.39-3.3 0.81-4.95 1.19-2.26-4.18-2.46-9.02-2.78-13.64-0.31-3.51 0.92-7 0.24-10.49-0.96-2.24-1.72-4.57-2.26-6.95 1.36-0.18 2.74-0.36 4.12-0.54 0.12-0.69 0.35-2.08 0.46-2.78-1.57 1.08-3.09 2.23-4.63 3.33-0.25-4.16 0.55-8.28 2.21-12.09l-2.88 0.16c-0.64-2.78-1.62-5.56-1.38-8.45 0.55-1.23 1.9-1.74 2.91-2.53-1.16-2.7-0.4-5.6-0.1-8.39-3.87-2.02-5.5-6.25-5.25-10.45-0.02-2.46 0.27-7.25-3.42-6.74-5.72 0.8-11.28 2.5-16.99 3.35-1.46-0.23-2.67-1.18-3.96-1.81-0.06 0.68-0.19 2.04-0.26 2.72-3.77 0.53-7.54 1.04-11.33 1.4-1.22-1.37-2.52-2.66-3.75-4.02 1.45-0.83 4.53-0.49 4.2-2.89-0.07-1.78-0.63-3.54-1.66-4.99-2.25-2.87-2.67-6.73-2.68-10.25 1.8-0.69 3.71-1.02 5.58-1.49 0.88 0.78 1.77 1.55 2.68 2.31 0.49-1.2 1-2.38 1.54-3.56 0.67 0.58 1.35 1.17 2.02 1.78 1.26-1.17 2.79-1.92 4.44-2.38-0.24 1.28-0.49 2.57-0.74 3.86 1.21-0.99 2.44-1.98 3.68-2.96 0.04 2.31 0.03 4.63 0.29 6.93 0.89-2.23 1.6-4.54 2.39-6.81 1.62 0.83 3.3 1.58 5.07 2.1 0.24 1.17 0.5 2.34 0.79 3.51 2.16-2.43 4.19-5.02 6.86-6.92 0.64 2 1.05 4.07 1.33 6.17 1.81-2.43 3.72-4.79 5.26-7.41 0.45 1.45 0.9 2.91 1.37 4.37 0.56-0.06 1.7-0.18 2.27-0.24-0.09-2.08 0.69-3.97 1.75-5.72 0.24 1.17 0.74 3.51 0.99 4.67 0.76-0.77 1.54-1.54 2.34-2.3 0.1 1.15 0.3 3.47 0.4 4.62 4.17-2.49 3.28-7.76 2.53-11.77-1.69-0.26-3.39-0.46-5.06-0.73 2.42-1.02 4.89-1.93 7.34-2.89-0.08 2.87 0.16 5.73 0.42 8.58 0.65-0.21 1.94-0.62 2.59-0.83 0.16-2.64-0.65-5.08-2.09-7.26 2.03 0.62 4.05 1.35 6.05 2.13 0.44 3.12 1.15 6.19 2.22 9.16 0.81-0.09 2.43-0.26 3.24-0.35-0.05-2.02-0.11-4.03-0.16-6.04-0.7-0.03-2.11-0.08-2.81-0.1 1.58-1.98 2.65-4.27 3.68-6.57 0.71 0.06 2.14 0.2 2.85 0.27-0.49 1.29-0.97 2.58-1.44 3.87m20.74 5.38c-1.56 2.98 3.3 0.19 0 0m-33.47 1.08c-0.95 1.23 1.2 2.39 2.02 1.3 0.91-1.24-1.22-2.4-2.02-1.3m28.68 0.18c0.54 0.55 0.54 0.55 0 0m-23.75 0.76c-1.39 0.16-1.79 2.9-0.15 2.93 1.46-0.12 1.71-2.81 0.15-2.93m12.78-0.47c0.8 1.95 0.02 6.26 3.35 4.9-1.07-1.67-2.23-3.27-3.35-4.9m-12.06 4.67c0.64 0.64 0.64 0.64 0 0m-60.71 0.85c-0.47 1.39 0.01 1.87 1.42 1.42 0.45-1.41-0.02-1.88-1.42-1.42m8.95 0.85c0.05 0.77 0.15 2.29 0.2 3.06 1.19-0.94 2.38-1.88 3.57-2.83-1.26-0.08-2.52-0.16-3.77-0.23m41.91-0.15c-1.03 0.73-1.75 2.91-0.36 3.62 1.95 0.2 2.64-4.24 0.36-3.62m4.49 1.45c-1.17 0.94-0.21 3.93 1.41 2.66 1.19-0.92 0.15-3.93-1.41-2.66m-53.18 4.82c1.39-0.04 2.79-0.07 4.19-0.11-0.37-1.58-0.75-3.15-1.13-4.72-1.05 1.59-2.07 3.2-3.06 4.83m48.58-1.81c0.61 0.61 0.61 0.61 0 0m-40.17 1.15c-1.58 2.94 3.33 0.21 0 0m9.26 0.07c-0.89 0.47-1.65 2.41-0.28 2.74 1.77 0.26 2.38-3.48 0.28-2.74m-14.3 1.94c-1.17 1.01 0.39 3.21 1.71 2.24 1.21-0.99-0.45-3.15-1.71-2.24m0.59 7.89c-1.72 0.56-1.5 3.73 0.64 2.88 1.9-0.33 1.29-3.66-0.64-2.88z" fill="#fff"/>
</svg>
