<?xml version="1.0" encoding="UTF-8"?>
<!-- Created with Inkscape (http://www.inkscape.org/) -->
<svg id="svg2" width="100" height="100" version="1.1" xmlns="http://www.w3.org/2000/svg" xmlns:cc="http://creativecommons.org/ns#" xmlns:dc="http://purl.org/dc/elements/1.1/" xmlns:rdf="http://www.w3.org/1999/02/22-rdf-syntax-ns#">
 <metadata id="metadata7">
  <rdf:RDF>
   <cc:Work rdf:about="">
    <dc:format>image/svg+xml</dc:format>
    <dc:type rdf:resource="http://purl.org/dc/dcmitype/StillImage"/>
    <dc:title/>
   </cc:Work>
  </rdf:RDF>
 </metadata>
 <g id="layer1" transform="translate(-210.11 -220.07)">
  <g id="g2877" transform="translate(-61.2 -43.013)">
   <g id="g2886" transform="matrix(.495 0 0 .495 153.07 118.86)">
    <path id="rect2832" d="m294 292.36h92c29.916 0 54 24.084 54 54v92c0 29.916-24.084 54-54 54h-92c-29.916 0-54-24.084-54-54v-92c0-29.916 24.084-54 54-54z" fill="#5a006d"/>
    <path id="path2834" d="m332 365.38-44 25v41c0 12.204 9.8497 22.094 22 22.094 12.15 0 22-9.89 22-22.094v-66z" fill="#fff"/>
    <path id="path2840" d="m310 335.38c-3.9595 0-7.6654 1.0362-10.875 2.875l-20.219 11.625c-6.5205 3.8347-10.906 10.956-10.906 19.094 0 8.2613 4.3146 14.741 11 18.532l53-29.639c0-12.204-9.8497-22.487-22-22.487z" fill="#fff"/>
    <g id="g2869" transform="translate(-.8)" fill="#fff">
     <path id="path2865" d="m404 365.38-44 25v41c0 12.204 9.8497 22.094 22 22.094 12.15 0 22-9.89 22-22.094v-66z"/>
     <path id="path2867" d="m382 335.38c-3.9595 0-7.6654 1.0362-10.875 2.875l-20.219 11.625c-6.5205 3.8347-10.906 10.956-10.906 19.094 0 8.2613 4.3146 14.741 11 18.532l53-29.639c0-12.204-9.8497-22.487-22-22.487z"/>
    </g>
   </g>
  </g>
 </g>
</svg>
