<?xml version="1.0" encoding="UTF-8" standalone="no"?>
<!-- Created with Inkscape (http://www.inkscape.org/) -->

<svg
   xmlns:dc="http://purl.org/dc/elements/1.1/"
   xmlns:cc="http://creativecommons.org/ns#"
   xmlns:rdf="http://www.w3.org/1999/02/22-rdf-syntax-ns#"
   xmlns:svg="http://www.w3.org/2000/svg"
   xmlns="http://www.w3.org/2000/svg"
   xmlns:sodipodi="http://sodipodi.sourceforge.net/DTD/sodipodi-0.dtd"
   xmlns:inkscape="http://www.inkscape.org/namespaces/inkscape"
   width="100"
   height="100"
   id="svg2"
   version="1.1"
   inkscape:version="0.47 r22583"
   sodipodi:docname="New document 1">
  <defs
     id="defs4">
    <inkscape:perspective
       sodipodi:type="inkscape:persp3d"
       inkscape:vp_x="0 : 526.18109 : 1"
       inkscape:vp_y="0 : 1000 : 0"
       inkscape:vp_z="744.09448 : 526.18109 : 1"
       inkscape:persp3d-origin="372.04724 : 350.78739 : 1"
       id="perspective10" />
    <inkscape:perspective
       id="perspective2824"
       inkscape:persp3d-origin="0.5 : 0.33333333 : 1"
       inkscape:vp_z="1 : 0.5 : 1"
       inkscape:vp_y="0 : 1000 : 0"
       inkscape:vp_x="0 : 0.5 : 1"
       sodipodi:type="inkscape:persp3d" />
  </defs>
  <sodipodi:namedview
     id="base"
     pagecolor="#ffffff"
     bordercolor="#666666"
     borderopacity="1.0"
     inkscape:pageopacity="0.0"
     inkscape:pageshadow="2"
     inkscape:zoom="4.005"
     inkscape:cx="66.682786"
     inkscape:cy="44.618406"
     inkscape:document-units="px"
     inkscape:current-layer="g2877"
     showgrid="false"
     inkscape:window-width="1280"
     inkscape:window-height="944"
     inkscape:window-x="-8"
     inkscape:window-y="-8"
     inkscape:window-maximized="1">
    <inkscape:grid
       type="xygrid"
       id="grid2830"
       empspacing="5"
       visible="true"
       enabled="true"
       snapvisiblegridlinesonly="true" />
  </sodipodi:namedview>
  <metadata
     id="metadata7">
    <rdf:RDF>
      <cc:Work
         rdf:about="">
        <dc:format>image/svg+xml</dc:format>
        <dc:type
           rdf:resource="http://purl.org/dc/dcmitype/StillImage" />
        <dc:title></dc:title>
      </cc:Work>
    </rdf:RDF>
  </metadata>
  <g
     inkscape:label="Layer 1"
     inkscape:groupmode="layer"
     id="layer1"
     transform="translate(-210.106,-220.07083)">
    <g
       id="g2877"
       transform="translate(-61.2,-43.012817)">
      <g
         id="g2886"
         transform="matrix(0.495,0,0,0.495,153.0678,118.86499)">
        <path
           id="rect2832"
           d="m 294,292.36218 92,0 c 29.916,0 54,24.084 54,54 l 0,92 c 0,29.916 -24.084,54 -54,54 l -92,0 c -29.916,0 -54,-24.084 -54,-54 l 0,-92 c 0,-29.916 24.084,-54 54,-54 z"
           style="fill:#5a006d;fill-opacity:1;fill-rule:nonzero;stroke:none" />
        <path
           style="fill:#ffffff;fill-opacity:1;fill-rule:nonzero;stroke:none"
           d="m 332,365.375 -44,25 c 0,0 0,41 0,41 0,12.2037 9.84974,22.09375 22,22.09375 12.15027,0 22,-9.89005 22,-22.09375 l 0,-66 z"
           id="path2834"
           sodipodi:nodetypes="cccscc" />
        <path
           style="fill:#ffffff;fill-opacity:1;fill-rule:nonzero;stroke:none"
           d="m 310,335.375 c -3.95946,0 -7.66539,1.03623 -10.875,2.875 l -20.21875,11.625 C 272.38572,353.70974 268,360.83144 268,368.96875 c 0,8.26131 4.31462,14.74083 11.00023,18.53215 L 332,357.86218 C 332,345.65849 322.15027,335.375 310,335.375 z"
           id="path2840"
           sodipodi:nodetypes="cccsccc" />
        <g
           id="g2869"
           transform="translate(-0.8,0)"
           style="fill:#ffffff;stroke:none">
          <path
             style="fill:#ffffff;fill-opacity:1;fill-rule:nonzero;stroke:none"
             d="m 404,365.375 -44,25 c 0,0 0,41 0,41 0,12.2037 9.84974,22.09375 22,22.09375 12.15027,0 22,-9.89005 22,-22.09375 l 0,-66 z"
             id="path2865"
             sodipodi:nodetypes="cccscc" />
          <path
             style="fill:#ffffff;fill-opacity:1;fill-rule:nonzero;stroke:none"
             d="m 382,335.375 c -3.95946,0 -7.66539,1.03623 -10.875,2.875 l -20.21875,11.625 C 344.38572,353.70974 340,360.83144 340,368.96875 c 0,8.26131 4.31462,14.74083 11.00023,18.53215 L 404,357.86218 C 404,345.65849 394.15027,335.375 382,335.375 z"
             id="path2867"
             sodipodi:nodetypes="cccsccc" />
        </g>
      </g>
    </g>
  </g>
</svg>
