<svg height="400.00043pt" viewBox="0 0 599.62744 400.00043" width="599.62744pt" xmlns="http://www.w3.org/2000/svg"><path d="m583.1874 120.49365h-.004l-10.84747-21.393744c-34.67228-59.21956-98.9158-99.02040958-172.49332-99.09979958-110.46694-.11272-200.11047 89.33409958-200.2193 199.80814358-.0332 32.11573 7.52257 62.4649 20.94697 89.37168l11.42375 19.93239c35.64908 54.6663 97.30725 90.81297 167.4438 90.88801 110.44994.10855 200.07682-89.3256 200.18953-199.79042.0291-28.33237-5.84341-55.29019-16.43996-79.71584" fill="#aa198e"/><path d="m0 20.909625c1.35-10.75 11-19.99999987 22.02-19.8399999 68.588233.3154432 134.31032-.50762652 200.08.07 8.56.24 16.5 6.1 19.66 13.9799999 2.14 5.35 2.01 11.31 1.54 16.95-13.43 13.09-25.89 27.33-36.07 43.13-21.46 32.620005-34.3 70.840005-36.85 109.800005-.77 19.9-.4 40 3.84 59.55-49.4.12-98.81-.15-148.21 0-4.95.14-10.1-.43-14.43-3.01-6.39-3.49-10.53-10.18-11.58-17.3z" fill="#aa198e"/><g fill="#fff"><path d="m326.62166 295.29519v-14.31186c0-3.22334-2.04161-4.31504-3.90884-4.31504-1.86226 0-3.95633 1.0917-3.95633 4.31504v14.31186h-5.90296v-23.66997h5.7711v2.18339c1.54539-1.64038 3.72382-2.45773 5.90793-2.45773 2.36345 0 4.26825.77056 5.59104 2.08911 1.9048 1.90976 2.40599 4.13072 2.40599 6.72598v15.12922z"/><path d="m357.30685 278.70849c-.63304-1.40361-1.94733-2.45278-3.95137-2.45278-1.99909 0-3.31763 1.04917-3.95138 2.45278-.36366.86981-.50048 1.50782-.54798 2.54776h9.00438c-.0525-1.03994-.18503-1.67795-.55365-2.54776m-8.45073 6.59342c0 3.04399 1.86723 5.27488 5.18982 5.27488 2.58037 0 3.85709-.73229 5.35498-2.23089l3.59197 3.50265c-2.41024 2.40527-4.7262 3.72452-8.9987 3.72452-5.59176 0-10.95667-2.5428-10.95667-12.13343 0-7.72339 4.18815-12.09018 10.31796-12.09018 6.59412 0 10.31866 4.81623 10.31866 11.31537v2.63708z"/><path d="m381.86081 295.29519c-4.81198 0-6.85855-3.40269-6.85855-6.76781v-11.72227h-2.50027v-4.50431h2.50027v-6.99537h5.90792v6.99537h4.18319v4.50431h-4.18319v11.3579c0 1.371.63871 2.1366 2.04232 2.1366h2.14087v4.99558z"/><path d="m421.38519 295.29519h-4.86372l-4.95304-14.85487-4.95375 14.85487h-4.86372l-7.28318-23.66997h6.28151l3.81881 14.63299 4.81623-14.63299h4.32071l4.85875 14.63299 3.81882-14.63299h6.22976z"/><path d="m449.75654 277.71391c-.68549-.68054-1.58863-1.04916-2.7746-1.04916-1.17677 0-2.04658.36862-2.72286 1.04916-1.23348 1.22922-1.36605 3.27084-1.36605 5.72857 0 2.44852.13257 4.53763 1.36605 5.76685.67628.68479 1.54609 1.0442 2.72286 1.0442 1.18597 0 2.08911-.35941 2.7746-1.0442 1.22427-1.22922 1.36108-3.31833 1.36108-5.76685 0-2.45773-.13681-4.49935-1.36108-5.72857m4.58938 14.95483c-1.45606 1.53617-3.87126 2.90717-7.36398 2.90717-3.50265 0-5.86114-1.371-7.31224-2.90717-2.14086-2.23585-2.68955-4.91547-2.68955-9.22626 0-4.27747.54869-6.96205 2.68955-9.17876 1.4511-1.55035 3.80959-2.91142 7.31224-2.91142 3.49272 0 5.90792 1.36107 7.36398 2.91142 2.13591 2.21671 2.67962 4.90129 2.67962 9.17876 0 4.31079-.54371 6.99041-2.67962 9.22626"/><path d="m479.94338 278.07615c-.91235-.90738-1.67795-1.40857-3.13402-1.40857-1.81973 0-3.81882 1.36108-3.81882 4.36253v14.26508h-5.90366v-23.67068h5.76685v2.27343c1.13848-1.36605 3.40765-2.54777 5.95542-2.54777 2.32021 0 3.95563.58625 5.58679 2.22167z"/><path d="m507.77385 295.29519-5.81364-9.85434-2.50452 2.81219v7.04215h-5.90367v-32.35251h5.90367v18.36249l7.86447-9.67995h7.13714l-8.46065 9.54242 9.08944 14.12755z"/><path d="m441.53408 203.54234c-.2715 1.16896-.57633 2.30107-.88966 3.4041.46787-1.45394.88966-2.97026 1.25687-4.56102.53097-2.22664.98608-4.58371 1.42488-7.03506.21692-1.24908.42604-2.45632.60114-3.6423-.21266 1.24907-.44306 2.52295-.69329 3.8344-.52601 2.78596-1.08178 5.46416-1.69994 7.99988"/><path d="m445.20545 180.46784c-.0376 2.19331-.26725 4.54897-.6139 7.08043-.18786 1.34831-.40975 2.73562-.66424 4.15979-.1751 1.18598-.38422 2.39322-.60114 3.6423-.4388 2.45135-.89391 4.80842-1.42488 7.03506-.36721 1.59076-.789 3.10708-1.25687 4.56102-.37146 1.31571-.76418 2.58959-1.20724 3.80038-.81027 2.24294-1.729 4.3278-2.85259 6.20283-1.11155 1.87148-2.41024 3.53809-3.95138 4.96225-.83933.79325-1.73324 1.49081-2.64417 2.10116-.91873.63021-1.88353 1.14416-2.88591 1.5617-1.00663.40903-2.05083.73937-3.16167.96055-1.08177.21337-2.24294.33034-3.44593.36366-1.22001.0121-2.34785-.0794-3.38355-.27151-1.02293-.20061-1.97569-.49339-2.84834-.88115-.85209-.39273-1.63329-.88966-2.33084-1.49151-.71811-.58909-1.33626-1.27814-1.90834-2.03807-.94-1.42417-1.57517-3.07448-1.95938-4.92044-.37997-1.87502-.5097-3.94286-.44661-6.19857.0666-2.25073.29632-4.69429.67629-7.25056.3672-2.57329.8691-5.27985 1.41637-8.06651.53876-2.83203 1.09807-5.52157 1.70772-8.05303.63517-2.53572 1.31996-4.95375 2.13873-7.14282.81878-2.23018 1.77508-4.25195 2.90292-6.0894 1.13211-1.83816 2.43931-3.45444 3.99746-4.84529.84359-.7812 1.70418-1.45748 2.60235-2.04657.89321-.57633 1.82469-1.06476 2.78595-1.47025.97261-.37997 1.99199-.68479 3.05675-.8769 1.09028-.20062 2.21813-.29278 3.41687-.29278 1.19023 0 2.29753.0922 3.32897.29278 1.02364.19211 1.97569.48843 2.84833.8854.85635.38423 1.65881.87266 2.35991 1.45749.70606.58484 1.34123 1.24057 1.88424 2.02177.96056 1.38659 1.59572 3.01138 1.97994 4.81977.39627 1.80484.53876 3.8259.48418 6.02702zm21.18884-14.49759c-.94354-2.49744-2.25074-4.80773-3.96768-7.01309-1.1399-1.51988-2.53571-2.99012-4.19382-4.36041-1.66236-1.36604-3.59196-2.63567-5.81009-3.68767-2.21317-1.05696-4.71556-1.95087-7.53058-2.56052-2.79872-.63943-5.92281-.99458-9.36875-1.00663-3.46649-.0503-6.72031.263-9.76927.85634-3.04115.56357-5.86822 1.42842-8.48333 2.4471-2.60589 1.05697-4.99983 2.27697-7.19244 3.63805-2.18835 1.35328-4.15624 2.83628-5.90154 4.34835-2.56478 2.21388-4.73896 4.55678-6.64659 7.06697-1.90055 2.53146-3.48776 5.24227-4.88711 8.20757-1.37384 2.98657-2.5265 6.21913-3.5544 9.8033-1.01514 3.5629-1.9048 7.4767-2.71081 11.80379-.789 4.36962-1.37809 8.30824-1.69993 11.94628-.34239 3.61324-.38847 6.90463-.14178 9.94508.26726 3.01988.83934 5.78528 1.78358 8.36636.96906 2.58108 2.27626 4.94525 4.03007 7.2215 1.19873 1.54539 2.63992 3.06172 4.34409 4.46958 1.69568 1.3951 3.68413 2.64347 5.94267 3.70893 2.26207 1.05696 4.83465 1.92536 7.72481 2.50594 2.88236.58484 6.07735.89392 9.62395.83153 3.54589-.0291 6.8706-.4388 9.97839-1.08602 3.09078-.69755 5.94762-1.60848 8.60385-2.72782 2.63991-1.10233 5.05866-2.43505 7.24277-3.84646 2.19331-1.42842 4.15199-2.95751 5.89799-4.52346 2.51019-2.27271 4.65672-4.67444 6.49064-7.23851 1.8339-2.55202 3.37079-5.28835 4.68224-8.28272 1.31571-2.98657 2.40173-6.24039 3.34598-9.79478.93503-3.55865 1.72049-7.44694 2.44285-11.72511.72732-4.25265 1.26183-8.08706 1.53333-11.60389.27931-3.50406.30058-6.6955.0121-9.61898-.28355-2.93624-.86414-5.59247-1.82114-8.0906"/><path d="m245.05902 300.64096c2.85273-2.53146 5.29203-5.18769 7.46387-8.14519 2.10116-2.85259 3.88446-5.93486 5.45926-9.39781 1.49095-3.32897 2.77327-6.99608 3.92189-11.2062.9188-3.34172 1.54546-6.54096 2.26825-10.37111l3.09057-16.16421 11.97137-66.55522 12.96425.0794 6.53317-22.12033-15.85158.0546 1.48726-10.50085c.0539-.27576.29207-1.60352.54301-3.06171.31333-1.77082.66424-3.77982.73513-4.10521.6224-2.71506 1.28239-4.99983 2.01751-6.99253.7975-2.20111 1.73324-4.15199 2.8696-5.94336 1.19803-1.86297 2.54352-3.41687 4.11371-4.74109.8606-.73937 1.77933-1.4114 2.72783-2.00475.98536-.59689 1.95442-1.06476 2.95679-1.44473.0709-.0298.14675-.0546.22118-.0709l.17155-.0546c1.35328-.54301 2.65198-.93999 3.98469-1.20299 1.50782-.29632 3.07022-.45511 4.67374-.45511l.14603-.009c1.53334 0 2.99083.15454 4.33985.44235 1.28665.26797 2.5024.66424 3.60473 1.17819.15879.0794.30482.16304.45156.23818l.30058.17935 7.25056-23.268737-.18785-.05459c-1.10234-.338142-2.2472-.676992-3.49201-.931487-3.11985-.676284-6.52821-1.015134-10.12868-1.015134h-.46362c-3.6423 0-7.26758.350903-10.77164 1.056961-3.19569.655725-6.37438 1.608479-9.44814 2.861094-2.83629 1.169675-5.52158 2.556272-7.99066 4.152003-2.33863 1.47804-4.53975 3.1411-6.54521 4.91618-2.7817 2.46411-5.17493 5.06221-7.32578 7.97718-2.03836 2.7739-3.7884 5.78103-5.35052 9.21846-.97331 2.18056-1.86723 4.55677-2.73584 7.25978-.6056 1.79138-1.1528 3.72524-1.72105 6.08515-.70138 2.82352-1.40311 6.82523-2.0173 10.35056l-.32566 1.84596c-.142.80176-.25918 1.5702-.38019 2.3514l-1.10679 5.72645-10.37949.0418-6.50743 21.99982 13.24469-.017c-.9105 4.94525-16.08083 87.51793-16.16859 87.98154-.63056 2.75689-1.30316 5.09624-2.05495 7.13857-.81026 2.24293-1.76259 4.23067-2.92808 6.05607-.0626.10492-.13377.19637-.1919.29703l-.12959.1751c-2.39336 3.90955-5.81434 6.89612-9.79882 8.70876 3.43345 6.87911 7.25092 13.53278 11.42347 19.93197 2.23053-1.01088 4.37742-2.16354 6.39054-3.45018 2.34324-1.49506 4.59037-3.17869 6.67473-5.02039"/><path d="m352.79191 203.54234c-.27577 1.1484-.57208 2.26775-.88542 3.34952.45937-1.43693.88542-2.93199 1.24482-4.50644.52246-2.22664.97686-4.58371 1.41992-7.03081.21692-1.24057.42604-2.45206.60965-3.62174-.21693 1.24056-.44661 2.51019-.6933 3.81385-.53025 2.7817-1.08957 5.4599-1.69567 7.99562"/><path d="m356.45476 180.46784c-.0369 2.18481-.263 4.55322-.61745 7.08043-.18431 1.36107-.40974 2.75618-.65643 4.1846-.18361 1.16968-.39273 2.38117-.60965 3.62174-.44306 2.4471-.89746 4.80417-1.41992 7.03081-.3594 1.57445-.78545 3.06951-1.24482 4.50644-.37571 1.33626-.77269 2.62716-1.22355 3.86347-.80601 2.24294-1.7375 4.31929-2.85684 6.19432-1.11154 1.87573-2.40599 3.53809-3.94712 4.96225-.84004.79325-1.7297 1.49081-2.64843 2.10896-.91093.62241-1.87927 1.13636-2.87385 1.5539-1.01089.41754-2.06714.73937-3.16167.96906-1.10304.19636-2.25995.32608-3.45019.35515-1.21504.0121-2.34715-.0794-3.38284-.26725-1.02364-.20487-1.97214-.49765-2.84479-.88541-.8606-.39273-1.65385-.88966-2.3429-1.49151-.70606-.58909-1.33272-1.27814-1.89204-2.03807-.95275-1.41637-1.57941-3.07448-1.97568-4.9332-.38068-1.86226-.50544-3.9301-.43455-6.18155.0539-2.25499.30056-4.695.66848-7.26333.37146-2.55627.8684-5.27134 1.42417-8.058.53025-2.83203 1.09028-5.52157 1.70418-8.05303.62666-2.53926 1.31996-4.95375 2.14653-7.14282.80247-2.23018 1.75877-4.25195 2.89087-6.0894 1.12714-1.83816 2.44711-3.45444 3.99249-4.85805.85635-.75993 1.72545-1.44472 2.61511-2.02956.88966-.57633 1.81264-1.06901 2.78596-1.4745.96906-.38847 1.99624-.68479 3.0532-.8769 1.08603-.20062 2.21813-.29278 3.41616-.29278 1.19094.009 2.30178.10067 3.32968.28427 1.02719.20062 1.96718.50544 2.83983.89391.86485.39699 1.67086.87266 2.37267 1.45749.69755.58484 1.33201 1.24057 1.88352 2.02177.9485 1.38659 1.59148 3.01138 1.96719 4.81977.40548 1.80484.54727 3.8259.49268 6.02702zm21.18955-14.49759c-.95275-2.50595-2.25996-4.80773-3.96839-7.01309-1.14841-1.51988-2.53926-2.99012-4.20161-4.36041-1.65386-1.35328-3.57921-2.61866-5.80159-3.68767-2.22239-1.05696-4.71131-1.95087-7.53484-2.55627-2.80296-.64368-5.92281-.99883-9.36874-1.01088-3.4672-.0503-6.72031.263-9.76147.84783-3.04045.57208-5.87673 1.43693-8.48759 2.46412-2.6144 1.04846-5.01613 2.26846-7.20023 3.62954-2.18056 1.36178-4.15199 2.84054-5.90225 4.34835-2.55202 2.21388-4.73612 4.55678-6.63242 7.06697-1.89204 2.52295-3.48776 5.24227-4.87861 8.20757-1.37454 2.98657-2.53145 6.21913-3.55084 9.80755-1.02294 3.55865-1.90055 7.47245-2.71081 11.80734-.79751 4.36182-1.3866 8.30044-1.70773 11.93848-.3346 3.61324-.38422 6.90463-.13823 9.93232.2637 3.03264.83578 5.79804 1.77932 8.37912.95701 2.56478 2.28051 4.96226 4.03502 7.2215 1.19875 1.5539 2.63142 3.06597 4.3356 4.46958 1.70418 1.3951 3.67136 2.64347 5.94336 3.70043 2.25571 1.07752 4.83253 1.94236 7.71915 2.5187 2.8696.58058 6.07735.88966 9.62749.83507 3.53809-.0368 6.8706-.45511 9.96989-1.09382 3.08652-.68904 5.95612-1.60423 8.60455-2.72782 2.64772-1.10233 5.05796-2.43505 7.25057-3.83866 2.18481-1.43622 4.14348-2.9568 5.88523-4.53126 2.51871-2.27271 4.66169-4.67444 6.5034-7.23071 1.82966-2.55131 3.37079-5.29615 4.67445-8.29052 1.315-2.98657 2.40953-6.24039 3.34101-9.79478.93149-3.5544 1.7297-7.44694 2.44356-11.72511.73087-4.25265 1.26538-8.08706 1.53688-11.60389.28001-3.50406.30908-6.69905.0128-9.61047-.28001-2.93624-.8769-5.59318-1.81689-8.09911"/><path d="m533.25291 180.37214c-.0418 2.21812-.2715 4.59859-.6224 7.15486-.18786 1.35753-.41329 2.76539-.65999 4.19382-.1836 1.19874-.39627 2.42654-.61815 3.68341-.44235 2.46908-.90171 4.85096-1.43622 7.11446-.37217 1.60423-.79821 3.12409-1.26608 4.5986-.37572 1.32846-.77695 2.61936-1.22355 3.84717-.81878 2.26349-1.75452 4.36465-2.88237 6.26095-1.11934 1.87927-2.4308 3.5629-3.98894 5.00408-.85139.81381-1.7453 1.51632-2.66474 2.13022-.93574.63021-1.90834 1.15692-2.91922 1.57871-1.02364.40903-2.0721.73867-3.19144.96055-1.09808.21692-2.26776.33814-3.48351.36721-1.22355.0128-2.36771-.0752-3.41191-.27151-1.0442-.20416-1.99695-.48843-2.88236-.89746-.86485-.38847-1.65385-.88612-2.3514-1.49576-.72307-.59264-1.35328-1.28594-1.92535-2.06714-.95276-1.42062-1.58793-3.09149-1.9842-4.96225-.37571-1.90055-.5182-3.98895-.45156-6.26096.0673-2.28476.30553-4.74108.6855-7.32216.37146-2.60235.8769-5.33372 1.42842-8.15441.55152-2.8611 1.11509-5.57545 1.72899-8.12818.63517-2.56407 1.33272-4.99132 2.16354-7.21725.82303-2.24294 1.78358-4.28951 2.92419-6.15249 1.14416-1.84242 2.46412-3.48776 4.03857-4.88711.85209-.7805 1.72545-1.47805 2.62362-2.07139.91022-.57633 1.85021-1.07327 2.82352-1.48301.98111-.37996 2.00475-.6933 3.08653-.8769 1.09807-.20912 2.23443-.30482 3.44593-.31333 1.20654.009 2.31808.10846 3.35803.31333 1.0357.1836 2.00475.48418 2.87811.89391.86839.38422 1.67866.87691 2.38472 1.45749.71811.59689 1.35328 1.26963 1.90905 2.05083.96481 1.39936 1.60352 3.0362 1.99199 4.87436.40123 1.80838.54727 3.85922.49268 6.07735zm20.93861-70.89365c-1.23631 1.30365-2.37622 2.7108-3.40412 4.23989-.55506.84358-1.07751 1.72899-1.58295 2.62291-.22969.40548-.42605.77269-.6054 1.11083-.0461.0794-.0922.1673-.13824.25095-.2715.53451-.46361.93503-.59263 1.21079-.46007.96481-.90668 1.94237-1.32421 2.96601-1.22852 2.96956-2.28902 6.21913-3.27935 9.64025-.95204 3.41616-1.84596 7.05421-2.72286 10.89712-.88116 3.77132-1.69142 7.43914-2.32659 10.93469-.25095 1.38731-.45085 2.74058-.63517 4.07685-1.03144-1.55389-2.14653-2.91922-3.3956-4.07685-1.40786-1.28593-2.94474-2.35565-4.62766-3.19498-1.69142-.85209-3.54234-1.49506-5.53859-1.94237-1.98845-.47213-4.1605-.75214-6.47433-.88541-2.23868-.12547-4.46886-.0539-6.65793.20487-2.17985.28781-4.32708.71811-6.38643 1.36178-2.05437.62596-4.02226 1.41992-5.87672 2.37197-1.84171.96905-3.5707 2.06784-5.11609 3.32045-2.81502 2.20963-5.15437 4.90839-7.10525 7.90701-1.96718 2.98657-3.5629 6.30277-4.89491 9.79903-1.34123 3.48776-2.41875 7.13786-3.35378 10.83049-.92794 3.67561-1.71269 7.40511-2.46482 10.98927-.75143 3.60898-1.51207 7.33918-2.12597 11.08214-.5891 3.74651-1.04846 7.48876-1.17323 11.11829-.10066 3.6423.10776 7.13432.81027 10.33355.69684 3.22476 1.9126 6.18652 3.78833 8.70877 1.03995 1.38659 2.31383 2.66473 3.77557 3.78832 1.47024 1.13211 3.1241 2.14299 4.95375 2.97027 1.81265.83933 3.80535 1.48655 5.898 1.97498 2.09194.48063 4.29306.75639 6.57854.84429 2.47687.0879 4.78645-.008 7.00033-.31333 2.1926-.30482 4.28101-.81877 6.29426-1.55389 2.01752-.75214 3.97194-1.729 5.9058-2.97382 1.08177-.68904 2.15503-1.47024 3.23326-2.32659.36721-.28851.73513-.58058 1.09383-.89391.0213-.004.0255-.0248.0376-.0333.3509-.28426.6855-.58909 1.0279-.90667.13327-.11697.2715-.23819.41328-.35445l.0666-.11342c.6933-.65998 1.36605-1.34902 2.02177-2.08769 1.47875-1.71269 2.70656-3.48776 3.72595-5.2841.83153 2.8696 2.07139 5.52158 3.86347 7.79004 1.11509 1.3866 2.46411 2.66898 4.00951 3.79258 1.01938.73513 2.14298 1.37384 3.31691 1.98349.30057.18005.58413.37996.89392.54301 1.6744.8691 3.50406 1.51632 5.4918 1.9927 2.00971.48418 4.19807.76419 6.5835.84784.66352.0163 1.31499-.0128 1.97072-.0206l6.32404-20.27933c-.14603-.0368-.30057-.0368-.4388-.0744-.86839-.18431-1.66661-.43881-2.40173-.79822-.71386-.35515-1.37809-.789-1.95868-1.30719-.58909-.51821-1.10233-1.11935-1.56595-1.77508-.77694-1.22-1.28239-2.64842-1.57516-4.23139-.22117-1.21504-.26725-2.54776-.25449-3.93861-.0128-.0794-.0255-.15028-.0461-.22968 0 0 .0503-1.05696.0794-1.58721.0248-.39273.0794-.91873.15029-1.52058.13398-1.33626.29632-2.71081.54301-4.14774.0581-.31687.12548-.65998.1836-.99387.10421-.66423.18361-1.11934.18361-1.11934s3.13685-17.8776 3.14536-17.8776c2.30957-13.77948 5.20045-30.76671 5.54284-32.54178.56003-2.97381 1.14841-5.80159 1.77507-8.46632.66424-2.66544 1.3866-5.19619 2.2472-7.51002.85209-2.3436 1.85446-4.46958 3.03265-6.39919 1.19023-1.92535 2.55981-3.6423 4.19736-5.09978.88115-.81027 1.79633-1.53688 2.71931-2.14299.9478-.6217 1.92961-1.13139 2.95326-1.56169 1.00592-.40124 2.07564-.71457 3.20349-.92723h.004c-3.19994-7.37676-6.82948-14.51886-10.85175-21.393722-8.26145 1.490812-14.18 5.997962-18.14414 10.378922"/><path d="m326.95839 294.86843v-14.2516c0-3.212-2.03453-4.30157-3.88474-4.30157-1.85447 0-3.94287 1.08957-3.94287 4.30157v14.2516h-5.87673v-23.56576h5.74346v2.16355c1.54114-1.62053 3.71319-2.43931 5.88524-2.43931 2.34715 0 4.24344.76419 5.55914 2.08841 1.90055 1.88778 2.39749 4.10591 2.39749 6.68345v15.06966z"/><path d="m357.50321 278.34483c-.6302-1.3866-1.93811-2.42655-3.93436-2.42655-1.98419 0-3.29919 1.03995-3.93436 2.42655-.35941.86484-.49339 1.50781-.54301 2.535h8.959c-.0461-1.02719-.17935-1.67016-.54727-2.535zm-8.41173 6.57002c0 3.0284 1.85447 5.25008 5.16216 5.25008 2.57329 0 3.84292-.72662 5.33443-2.22168l3.57495 3.4835c-2.40173 2.39323-4.70705 3.70894-8.959 3.70894-5.55986 0-10.90208-2.53075-10.90208-12.07956 0-7.68086 4.1605-12.02922 10.26691-12.02922 6.56223 0 10.27117 4.79142 10.27117 11.25653v2.63141z"/><path d="m381.94658 294.86843c-4.79141 0-6.82948-3.39134-6.82948-6.74583v-11.66556h-2.48538v-4.47737h2.48538v-6.97127h5.88098v6.97127h4.16051v4.47737h-4.16051v11.30261c0 1.35753.63517 2.12597 2.03453 2.12597h2.12598v4.98281z"/><path d="m421.28878 294.86843h-4.84529l-4.92397-14.79036-4.9332 14.79036h-4.84033l-7.25269-23.56576h6.25599l3.79896 14.55643 4.79496-14.55643h4.30228l4.83678 14.55643 3.79684-14.55643h6.20211z"/><path d="m449.52828 277.35946c-.67628-.68124-1.58296-1.0442-2.75688-1.0442-1.17748 0-2.04233.36296-2.71861 1.0442-1.22852 1.23206-1.35754 3.25737-1.35754 5.69667 0 2.43931.12902 4.52416 1.35754 5.74772.67628.68054 1.54113 1.0442 2.71861 1.0442 1.17392 0 2.0806-.36366 2.75688-1.0442 1.21576-1.22356 1.35753-3.30841 1.35753-5.74772 0-2.4393-.14177-4.46461-1.35753-5.69667zm4.56528 14.89032c-1.44898 1.53263-3.84646 2.88591-7.32216 2.88591-3.49131 0-5.83845-1.35328-7.28814-2.88591-2.12598-2.22664-2.66899-4.89987-2.66899-9.19365 0-4.24343.54301-6.92518 2.66899-9.1348 1.44969-1.53263 3.79683-2.89442 7.28814-2.89442 3.4757 0 5.87318 1.36179 7.32216 2.89442 2.13022 2.20962 2.66899 4.89137 2.66899 9.1348 0 4.29378-.53877 6.96701-2.66899 9.19365"/><path d="m479.58043 277.72242c-.91022-.90597-1.67441-1.40716-3.1241-1.40716-1.81264 0-3.80038 1.36108-3.80038 4.3519v14.20127h-5.87744v-23.56576h5.74346v2.2557c1.1321-1.35753 3.39135-2.53146 5.92706-2.53146 2.30958 0 3.93436.5891 5.55915 2.21388z"/><path d="m507.28188 294.86843-5.7938-9.81959-2.48892 2.80226v7.01733h-5.87673v-32.21143h5.87673v18.27741l7.82689-9.63174h7.10525l-8.42095 9.49847 9.05116 14.06729z"/><g transform="matrix(1.0223249 0 0 .97299599 -155.72657 -204.15146)"><path d="m182.37826 346.59814c10.13052-9.73786 19.35792-23.00961 26.17049-38.6962 6.81258-15.70622 10.18942-31.5106 10.36611-45.56767l-.1178.1178c-10.09125 9.71822-19.27939 22.95071-26.07232 38.59803-6.77331 15.62769-10.15015 31.37318-10.36611 45.39098"/><path d="m193.34192 368.63462c13.64685-13.06265 26.07527-30.86362 35.27139-51.95442 9.19623-21.11027 13.77879-42.34482 14.06433-61.24857l-.17612.15474c-13.58834 13.04351-25.97771 30.82525-35.13443 51.83839-9.15673 21.01314-13.73883 42.16982-14.06298 61.01492"/><path d="m208.21437 399.5065c18.55911-17.75864 35.49077-41.94935 47.99581-70.60485 12.52504-28.65528 18.79834-57.53941 19.20179-83.23133l-.24197.19716c-18.47896 17.73954-35.33003 41.87119-47.814 70.42702-12.48397 28.55581-18.73598 57.3203-19.19826 82.91165"/><path d="m228.74286 439.94168c24.95743-23.97263 47.67792-56.67299 64.42367-95.32534 16.78549-38.67198 25.1127-77.62178 25.55423-112.25044l-.31829.27585c-24.83857 23.9732-47.45941 56.55515-64.16499 95.08884-16.70559 38.53368-25.01384 77.66189-25.51424 112.17137"/></g></g></svg>