<?xml version="1.0" encoding="UTF-8"?>
<svg id="svg2" width="599.63pt" height="400pt" version="1.1" viewBox="0 0 599.63 400" xmlns="http://www.w3.org/2000/svg" xmlns:cc="http://creativecommons.org/ns#" xmlns:dc="http://purl.org/dc/elements/1.1/" xmlns:rdf="http://www.w3.org/1999/02/22-rdf-syntax-ns#">
 <metadata id="metadata48">
  <rdf:RDF>
   <cc:Work rdf:about="">
    <dc:format>image/svg+xml</dc:format>
    <dc:type rdf:resource="http://purl.org/dc/dcmitype/StillImage"/>
    <dc:title/>
   </cc:Work>
  </rdf:RDF>
 </metadata>
 <path id="path108-4" d="m583.19 120.49h-4e-3l-10.847-21.394c-34.672-59.22-98.916-99.02-172.49-99.1-110.47-0.11272-200.11 89.334-200.22 199.81-0.0332 32.116 7.5226 62.465 20.947 89.372l11.424 19.932c35.649 54.666 97.307 90.813 167.44 90.888 110.45 0.10855 200.08-89.326 200.19-199.79 0.0291-28.332-5.8434-55.29-16.44-79.716" fill="#aa198e"/>
 <path id="path7" d="m0 20.91c1.35-10.75 11-20 22.02-19.84 68.588 0.31544 134.31-0.50763 200.08 0.07 8.56 0.24 16.5 6.1 19.66 13.98 2.14 5.35 2.01 11.31 1.54 16.95-13.43 13.09-25.89 27.33-36.07 43.13-21.46 32.62-34.3 70.84-36.85 109.8-0.77 19.9-0.4 40 3.84 59.55-49.4 0.12-98.81-0.15-148.21 0-4.95 0.14-10.1-0.43-14.43-3.01-6.39-3.49-10.53-10.18-11.58-17.3v-203.33" fill="#aa198e"/>
 <path id="path22-7" d="m326.62 295.3v-14.312c0-3.2233-2.0416-4.315-3.9088-4.315-1.8623 0-3.9563 1.0917-3.9563 4.315v14.312h-5.903v-23.67h5.7711v2.1834c1.5454-1.6404 3.7238-2.4577 5.9079-2.4577 2.3634 0 4.2682 0.77056 5.591 2.0891 1.9048 1.9098 2.406 4.1307 2.406 6.726v15.129h-5.9079" fill="#fff"/>
 <path id="path24-8" d="m357.31 278.71c-0.63304-1.4036-1.9473-2.4528-3.9514-2.4528-1.9991 0-3.3176 1.0492-3.9514 2.4528-0.36366 0.86981-0.50048 1.5078-0.54798 2.5478h9.0044c-0.0525-1.0399-0.18503-1.678-0.55365-2.5478m-8.4507 6.5934c0 3.044 1.8672 5.2749 5.1898 5.2749 2.5804 0 3.8571-0.73229 5.355-2.2309l3.592 3.5026c-2.4102 2.4053-4.7262 3.7245-8.9987 3.7245-5.5918 0-10.957-2.5428-10.957-12.133 0-7.7234 4.1882-12.09 10.318-12.09 6.5941 0 10.319 4.8162 10.319 11.315v2.6371h-14.818" fill="#fff"/>
 <path id="path26-9" d="m381.86 295.3c-4.812 0-6.8586-3.4027-6.8586-6.7678v-11.722h-2.5003v-4.5043h2.5003v-6.9954h5.9079v6.9954h4.1832v4.5043h-4.1832v11.358c0 1.371 0.63871 2.1366 2.0423 2.1366h2.1409v4.9956h-3.2326" fill="#fff"/>
 <path id="path28-0" d="m421.39 295.3h-4.8637l-4.953-14.855-4.9538 14.855h-4.8637l-7.2832-23.67h6.2815l3.8188 14.633 4.8162-14.633h4.3207l4.8588 14.633 3.8188-14.633h6.2298l-7.2272 23.67" fill="#fff"/>
 <path id="path30-6" d="m449.76 277.71c-0.68549-0.68054-1.5886-1.0492-2.7746-1.0492-1.1768 0-2.0466 0.36862-2.7229 1.0492-1.2335 1.2292-1.366 3.2708-1.366 5.7286 0 2.4485 0.13257 4.5376 1.366 5.7668 0.67628 0.68479 1.5461 1.0442 2.7229 1.0442 1.186 0 2.0891-0.35941 2.7746-1.0442 1.2243-1.2292 1.3611-3.3183 1.3611-5.7668 0-2.4577-0.13681-4.4994-1.3611-5.7286m4.5894 14.955c-1.4561 1.5362-3.8713 2.9072-7.364 2.9072-3.5026 0-5.8611-1.371-7.3122-2.9072-2.1409-2.2358-2.6896-4.9155-2.6896-9.2263 0-4.2775 0.54869-6.962 2.6896-9.1788 1.4511-1.5504 3.8096-2.9114 7.3122-2.9114 3.4927 0 5.9079 1.3611 7.364 2.9114 2.1359 2.2167 2.6796 4.9013 2.6796 9.1788 0 4.3108-0.54371 6.9904-2.6796 9.2263" fill="#fff"/>
 <path id="path32-3" d="m479.94 278.08c-0.91235-0.90738-1.678-1.4086-3.134-1.4086-1.8197 0-3.8188 1.3611-3.8188 4.3625v14.265h-5.9037v-23.671h5.7668v2.2734c1.1385-1.366 3.4076-2.5478 5.9554-2.5478 2.3202 0 3.9556 0.58625 5.5868 2.2217l-4.4526 4.5043" fill="#fff"/>
 <path id="path34-3" d="m507.77 295.3-5.8136-9.8543-2.5045 2.8122v7.0422h-5.9037v-32.353h5.9037v18.362l7.8645-9.68h7.1371l-8.4606 9.5424 9.0894 14.128h-7.3122" fill="#fff"/>
 <path id="path118" d="m441.53 203.54c-0.2715 1.169-0.57633 2.3011-0.88966 3.4041 0.46787-1.4539 0.88966-2.9703 1.2569-4.561 0.53097-2.2266 0.98608-4.5837 1.4249-7.0351 0.21692-1.2491 0.42604-2.4563 0.60114-3.6423-0.21266 1.2491-0.44306 2.523-0.69329 3.8344-0.52601 2.786-1.0818 5.4642-1.6999 7.9999" fill="#fff"/>
 <path id="path120" d="m445.21 180.47c-0.0376 2.1933-0.26725 4.549-0.6139 7.0804-0.18786 1.3483-0.40975 2.7356-0.66424 4.1598-0.1751 1.186-0.38422 2.3932-0.60114 3.6423-0.4388 2.4514-0.89391 4.8084-1.4249 7.0351-0.36721 1.5908-0.789 3.1071-1.2569 4.561-0.37146 1.3157-0.76418 2.5896-1.2072 3.8004-0.81027 2.2429-1.729 4.3278-2.8526 6.2028-1.1116 1.8715-2.4102 3.5381-3.9514 4.9622-0.83933 0.79325-1.7332 1.4908-2.6442 2.1012-0.91873 0.63021-1.8835 1.1442-2.8859 1.5617-1.0066 0.40903-2.0508 0.73937-3.1617 0.96055-1.0818 0.21337-2.2429 0.33034-3.4459 0.36366-1.22 0.0121-2.3478-0.0794-3.3836-0.27151-1.0229-0.20061-1.9757-0.49339-2.8483-0.88115-0.85209-0.39273-1.6333-0.88966-2.3308-1.4915-0.71811-0.58909-1.3363-1.2781-1.9083-2.0381-0.94-1.4242-1.5752-3.0745-1.9594-4.9204-0.37997-1.875-0.5097-3.9429-0.44661-6.1986 0.0666-2.2507 0.29632-4.6943 0.67629-7.2506 0.3672-2.5733 0.8691-5.2798 1.4164-8.0665 0.53876-2.832 1.0981-5.5216 1.7077-8.053 0.63517-2.5357 1.32-4.9538 2.1387-7.1428 0.81878-2.2302 1.7751-4.252 2.9029-6.0894 1.1321-1.8382 2.4393-3.4544 3.9975-4.8453 0.84359-0.7812 1.7042-1.4575 2.6024-2.0466 0.89321-0.57633 1.8247-1.0648 2.786-1.4702 0.97261-0.37997 1.992-0.68479 3.0568-0.8769 1.0903-0.20062 2.2181-0.29278 3.4169-0.29278 1.1902 0 2.2975 0.0922 3.329 0.29278 1.0236 0.19211 1.9757 0.48843 2.8483 0.8854 0.85635 0.38423 1.6588 0.87266 2.3599 1.4575 0.70606 0.58484 1.3412 1.2406 1.8842 2.0218 0.96056 1.3866 1.5957 3.0114 1.9799 4.8198 0.39627 1.8048 0.53876 3.8259 0.48418 6.027zm21.189-14.498c-0.94354-2.4974-2.2507-4.8077-3.9677-7.0131-1.1399-1.5199-2.5357-2.9901-4.1938-4.3604-1.6624-1.366-3.592-2.6357-5.8101-3.6877-2.2132-1.057-4.7156-1.9509-7.5306-2.5605-2.7987-0.63943-5.9228-0.99458-9.3688-1.0066-3.4665-0.0503-6.7203 0.263-9.7693 0.85634-3.0412 0.56357-5.8682 1.4284-8.4833 2.4471-2.6059 1.057-4.9998 2.277-7.1924 3.638-2.1884 1.3533-4.1562 2.8363-5.9015 4.3484-2.5648 2.2139-4.739 4.5568-6.6466 7.067-1.9006 2.5315-3.4878 5.2423-4.8871 8.2076-1.3738 2.9866-2.5265 6.2191-3.5544 9.8033-1.0151 3.5629-1.9048 7.4767-2.7108 11.804-0.789 4.3696-1.3781 8.3082-1.6999 11.946-0.34239 3.6132-0.38847 6.9046-0.14178 9.9451 0.26726 3.0199 0.83934 5.7853 1.7836 8.3664 0.96906 2.5811 2.2763 4.9452 4.0301 7.2215 1.1987 1.5454 2.6399 3.0617 4.3441 4.4696 1.6957 1.3951 3.6841 2.6435 5.9427 3.7089 2.2621 1.057 4.8346 1.9254 7.7248 2.5059 2.8824 0.58484 6.0774 0.89392 9.624 0.83153 3.5459-0.0291 6.8706-0.4388 9.9784-1.086 3.0908-0.69755 5.9476-1.6085 8.6038-2.7278 2.6399-1.1023 5.0587-2.435 7.2428-3.8465 2.1933-1.4284 4.152-2.9575 5.898-4.5235 2.5102-2.2727 4.6567-4.6744 6.4906-7.2385 1.8339-2.552 3.3708-5.2884 4.6822-8.2827 1.3157-2.9866 2.4017-6.2404 3.346-9.7948 0.93503-3.5586 1.7205-7.4469 2.4428-11.725 0.72732-4.2526 1.2618-8.0871 1.5333-11.604 0.27931-3.5041 0.30058-6.6955 0.0121-9.619-0.28355-2.9362-0.86414-5.5925-1.8211-8.0906" fill="#fff"/>
 <path id="path122" d="m245.06 300.64c2.8527-2.5315 5.292-5.1877 7.4639-8.1452 2.1012-2.8526 3.8845-5.9349 5.4593-9.3978 1.491-3.329 2.7733-6.9961 3.9219-11.206 0.9188-3.3417 1.5455-6.541 2.2682-10.371l3.0906-16.164 11.971-66.555 12.964 0.0794 6.5332-22.12-15.852 0.0546 1.4873-10.501c0.0539-0.27576 0.29207-1.6035 0.54301-3.0617 0.31333-1.7708 0.66424-3.7798 0.73513-4.1052 0.6224-2.7151 1.2824-4.9998 2.0175-6.9925 0.7975-2.2011 1.7332-4.152 2.8696-5.9434 1.198-1.863 2.5435-3.4169 4.1137-4.7411 0.8606-0.73937 1.7793-1.4114 2.7278-2.0048 0.98536-0.59689 1.9544-1.0648 2.9568-1.4447 0.0709-0.0298 0.14675-0.0546 0.22118-0.0709l0.17155-0.0546c1.3533-0.54301 2.652-0.93999 3.9847-1.203 1.5078-0.29632 3.0702-0.45511 4.6737-0.45511l0.14603-9e-3c1.5333 0 2.9908 0.15454 4.3398 0.44235 1.2866 0.26797 2.5024 0.66424 3.6047 1.1782 0.15879 0.0794 0.30482 0.16304 0.45156 0.23818l0.30058 0.17935 7.2506-23.269-0.18785-0.05459c-1.1023-0.33814-2.2472-0.67699-3.492-0.93149-3.1198-0.67628-6.5282-1.0151-10.129-1.0151h-0.46362c-3.6423 0-7.2676 0.3509-10.772 1.057-3.1957 0.65572-6.3744 1.6085-9.4481 2.8611-2.8363 1.1697-5.5216 2.5563-7.9907 4.152-2.3386 1.478-4.5398 3.1411-6.5452 4.9162-2.7817 2.4641-5.1749 5.0622-7.3258 7.9772-2.0384 2.7739-3.7884 5.781-5.3505 9.2185-0.97331 2.1806-1.8672 4.5568-2.7358 7.2598-0.6056 1.7914-1.1528 3.7252-1.721 6.0852-0.70138 2.8235-1.4031 6.8252-2.0173 10.351l-0.32566 1.846c-0.142 0.80176-0.25918 1.5702-0.38019 2.3514l-1.1068 5.7264-10.379 0.0418-6.5074 22 13.245-0.017c-0.9105 4.9452-16.081 87.518-16.169 87.982-0.63056 2.7569-1.3032 5.0962-2.055 7.1386-0.81026 2.2429-1.7626 4.2307-2.9281 6.0561-0.0626 0.10492-0.13377 0.19637-0.1919 0.29703l-0.12959 0.1751c-2.3934 3.9096-5.8143 6.8961-9.7988 8.7088 3.4334 6.8791 7.2509 13.533 11.423 19.932 2.2305-1.0109 4.3774-2.1635 6.3905-3.4502 2.3432-1.4951 4.5904-3.1787 6.6747-5.0204" fill="#fff"/>
 <path id="path124" d="m352.79 203.54c-0.27577 1.1484-0.57208 2.2678-0.88542 3.3495 0.45937-1.4369 0.88542-2.932 1.2448-4.5064 0.52246-2.2266 0.97686-4.5837 1.4199-7.0308 0.21692-1.2406 0.42604-2.4521 0.60965-3.6217-0.21693 1.2406-0.44661 2.5102-0.6933 3.8138-0.53025 2.7817-1.0896 5.4599-1.6957 7.9956" fill="#fff"/>
 <path id="path126" d="m356.45 180.47c-0.0369 2.1848-0.263 4.5532-0.61745 7.0804-0.18431 1.3611-0.40974 2.7562-0.65643 4.1846-0.18361 1.1697-0.39273 2.3812-0.60965 3.6217-0.44306 2.4471-0.89746 4.8042-1.4199 7.0308-0.3594 1.5744-0.78545 3.0695-1.2448 4.5064-0.37571 1.3363-0.77269 2.6272-1.2236 3.8635-0.80601 2.2429-1.7375 4.3193-2.8568 6.1943-1.1115 1.8757-2.406 3.5381-3.9471 4.9622-0.84004 0.79325-1.7297 1.4908-2.6484 2.109-0.91093 0.62241-1.8793 1.1364-2.8738 1.5539-1.0109 0.41754-2.0671 0.73937-3.1617 0.96906-1.103 0.19636-2.26 0.32608-3.4502 0.35515-1.215 0.0121-2.3472-0.0794-3.3828-0.26725-1.0236-0.20487-1.9721-0.49765-2.8448-0.88541-0.8606-0.39273-1.6538-0.88966-2.3429-1.4915-0.70606-0.58909-1.3327-1.2781-1.892-2.0381-0.95275-1.4164-1.5794-3.0745-1.9757-4.9332-0.38068-1.8623-0.50544-3.9301-0.43455-6.1816 0.0539-2.255 0.30056-4.695 0.66848-7.2633 0.37146-2.5563 0.8684-5.2713 1.4242-8.058 0.53025-2.832 1.0903-5.5216 1.7042-8.053 0.62666-2.5393 1.32-4.9538 2.1465-7.1428 0.80247-2.2302 1.7588-4.252 2.8909-6.0894 1.1271-1.8382 2.4471-3.4544 3.9925-4.858 0.85635-0.75993 1.7254-1.4447 2.6151-2.0296 0.88966-0.57633 1.8126-1.069 2.786-1.4745 0.96906-0.38847 1.9962-0.68479 3.0532-0.8769 1.086-0.20062 2.2181-0.29278 3.4162-0.29278 1.1909 9e-3 2.3018 0.10067 3.3297 0.28427 1.0272 0.20062 1.9672 0.50544 2.8398 0.89391 0.86485 0.39699 1.6709 0.87266 2.3727 1.4575 0.69755 0.58484 1.332 1.2406 1.8835 2.0218 0.9485 1.3866 1.5915 3.0114 1.9672 4.8198 0.40548 1.8048 0.54727 3.8259 0.49268 6.027zm21.19-14.498c-0.95275-2.506-2.26-4.8077-3.9684-7.0131-1.1484-1.5199-2.5393-2.9901-4.2016-4.3604-1.6539-1.3533-3.5792-2.6187-5.8016-3.6877-2.2224-1.057-4.7113-1.9509-7.5348-2.5563-2.803-0.64368-5.9228-0.99883-9.3687-1.0109-3.4672-0.0503-6.7203 0.263-9.7615 0.84783-3.0404 0.57208-5.8767 1.4369-8.4876 2.4641-2.6144 1.0485-5.0161 2.2685-7.2002 3.6295-2.1806 1.3618-4.152 2.8405-5.9022 4.3484-2.552 2.2139-4.7361 4.5568-6.6324 7.067-1.892 2.523-3.4878 5.2423-4.8786 8.2076-1.3745 2.9866-2.5314 6.2191-3.5508 9.8076-1.0229 3.5586-1.9006 7.4724-2.7108 11.807-0.79751 4.3618-1.3866 8.3004-1.7077 11.938-0.3346 3.6132-0.38422 6.9046-0.13823 9.9323 0.2637 3.0326 0.83578 5.798 1.7793 8.3791 0.95701 2.5648 2.2805 4.9623 4.035 7.2215 1.1988 1.5539 2.6314 3.066 4.3356 4.4696 1.7042 1.3951 3.6714 2.6435 5.9434 3.7004 2.2557 1.0775 4.8325 1.9424 7.7192 2.5187 2.8696 0.58058 6.0774 0.88966 9.6275 0.83507 3.5381-0.0368 6.8706-0.45511 9.9699-1.0938 3.0865-0.68904 5.9561-1.6042 8.6046-2.7278 2.6477-1.1023 5.058-2.435 7.2506-3.8387 2.1848-1.4362 4.1435-2.9568 5.8852-4.5313 2.5187-2.2727 4.6617-4.6744 6.5034-7.2307 1.8297-2.5513 3.3708-5.2962 4.6744-8.2905 1.315-2.9866 2.4095-6.2404 3.341-9.7948 0.93149-3.5544 1.7297-7.4469 2.4436-11.725 0.73087-4.2526 1.2654-8.0871 1.5369-11.604 0.28001-3.5041 0.30908-6.699 0.0128-9.6105-0.28001-2.9362-0.8769-5.5932-1.8169-8.0991" fill="#fff"/>
 <path id="path128" d="m533.25 180.37c-0.0418 2.2181-0.2715 4.5986-0.6224 7.1549-0.18786 1.3575-0.41329 2.7654-0.65999 4.1938-0.1836 1.1987-0.39627 2.4265-0.61815 3.6834-0.44235 2.4691-0.90171 4.851-1.4362 7.1145-0.37217 1.6042-0.79821 3.1241-1.2661 4.5986-0.37572 1.3285-0.77695 2.6194-1.2236 3.8472-0.81878 2.2635-1.7545 4.3646-2.8824 6.261-1.1193 1.8793-2.4308 3.5629-3.9889 5.0041-0.85139 0.81381-1.7453 1.5163-2.6647 2.1302-0.93574 0.63021-1.9083 1.1569-2.9192 1.5787-1.0236 0.40903-2.0721 0.73867-3.1914 0.96055-1.0981 0.21692-2.2678 0.33814-3.4835 0.36721-1.2236 0.0128-2.3677-0.0752-3.4119-0.27151-1.0442-0.20416-1.997-0.48843-2.8824-0.89746-0.86485-0.38847-1.6538-0.88612-2.3514-1.4958-0.72307-0.59264-1.3533-1.2859-1.9254-2.0671-0.95276-1.4206-1.5879-3.0915-1.9842-4.9622-0.37571-1.9006-0.5182-3.989-0.45156-6.261 0.0673-2.2848 0.30553-4.7411 0.6855-7.3222 0.37146-2.6024 0.8769-5.3337 1.4284-8.1544 0.55152-2.8611 1.1151-5.5754 1.729-8.1282 0.63517-2.5641 1.3327-4.9913 2.1635-7.2172 0.82303-2.2429 1.7836-4.2895 2.9242-6.1525 1.1442-1.8424 2.4641-3.4878 4.0386-4.8871 0.85209-0.7805 1.7254-1.478 2.6236-2.0714 0.91022-0.57633 1.8502-1.0733 2.8235-1.483 0.98111-0.37996 2.0048-0.6933 3.0865-0.8769 1.0981-0.20912 2.2344-0.30482 3.4459-0.31333 1.2065 9e-3 2.3181 0.10846 3.358 0.31333 1.0357 0.1836 2.0048 0.48418 2.8781 0.89391 0.86839 0.38422 1.6787 0.87691 2.3847 1.4575 0.71811 0.59689 1.3533 1.2696 1.909 2.0508 0.96481 1.3994 1.6035 3.0362 1.992 4.8744 0.40123 1.8084 0.54727 3.8592 0.49268 6.0774zm20.939-70.894c-1.2363 1.3036-2.3762 2.7108-3.4041 4.2399-0.55506 0.84358-1.0775 1.729-1.583 2.6229-0.22969 0.40548-0.42605 0.77269-0.6054 1.1108-0.0461 0.0794-0.0922 0.1673-0.13824 0.25095-0.2715 0.53451-0.46361 0.93503-0.59263 1.2108-0.46007 0.96481-0.90668 1.9424-1.3242 2.966-1.2285 2.9696-2.289 6.2191-3.2794 9.6402-0.95204 3.4162-1.846 7.0542-2.7229 10.897-0.88116 3.7713-1.6914 7.4391-2.3266 10.935-0.25095 1.3873-0.45085 2.7406-0.63517 4.0768-1.0314-1.5539-2.1465-2.9192-3.3956-4.0768-1.4079-1.2859-2.9447-2.3556-4.6277-3.195-1.6914-0.85209-3.5423-1.4951-5.5386-1.9424-1.9884-0.47213-4.1605-0.75214-6.4743-0.88541-2.2387-0.12547-4.4689-0.0539-6.6579 0.20487-2.1798 0.28781-4.3271 0.71811-6.3864 1.3618-2.0544 0.62596-4.0223 1.4199-5.8767 2.372-1.8417 0.96905-3.5707 2.0678-5.1161 3.3204-2.815 2.2096-5.1544 4.9084-7.1052 7.907-1.9672 2.9866-3.5629 6.3028-4.8949 9.799-1.3412 3.4878-2.4188 7.1379-3.3538 10.83-0.92794 3.6756-1.7127 7.4051-2.4648 10.989-0.75143 3.609-1.5121 7.3392-2.126 11.082-0.5891 3.7465-1.0485 7.4888-1.1732 11.118-0.10066 3.6423 0.10776 7.1343 0.81027 10.334 0.69684 3.2248 1.9126 6.1865 3.7883 8.7088 1.04 1.3866 2.3138 2.6647 3.7756 3.7883 1.4702 1.1321 3.1241 2.143 4.9538 2.9703 1.8126 0.83933 3.8054 1.4866 5.898 1.975 2.0919 0.48063 4.2931 0.75639 6.5785 0.84429 2.4769 0.0879 4.7864-8e-3 7.0003-0.31333 2.1926-0.30482 4.281-0.81877 6.2943-1.5539 2.0175-0.75214 3.9719-1.729 5.9058-2.9738 1.0818-0.68904 2.155-1.4702 3.2333-2.3266 0.36721-0.28851 0.73513-0.58058 1.0938-0.89391 0.0213-4e-3 0.0255-0.0248 0.0376-0.0333 0.3509-0.28426 0.6855-0.58909 1.0279-0.90667 0.13327-0.11697 0.2715-0.23819 0.41328-0.35445l0.0666-0.11342c0.6933-0.65998 1.366-1.349 2.0218-2.0877 1.4788-1.7127 2.7066-3.4878 3.726-5.2841 0.83153 2.8696 2.0714 5.5216 3.8635 7.79 1.1151 1.3866 2.4641 2.669 4.0095 3.7926 1.0194 0.73513 2.143 1.3738 3.3169 1.9835 0.30057 0.18005 0.58413 0.37996 0.89392 0.54301 1.6744 0.8691 3.5041 1.5163 5.4918 1.9927 2.0097 0.48418 4.1981 0.76419 6.5835 0.84784 0.66352 0.0163 1.315-0.0128 1.9707-0.0206l6.324-20.279c-0.14603-0.0368-0.30057-0.0368-0.4388-0.0744-0.86839-0.18431-1.6666-0.43881-2.4017-0.79822-0.71386-0.35515-1.3781-0.789-1.9587-1.3072-0.58909-0.51821-1.1023-1.1194-1.566-1.7751-0.77694-1.22-1.2824-2.6484-1.5752-4.2314-0.22117-1.215-0.26725-2.5478-0.25449-3.9386-0.0128-0.0794-0.0255-0.15028-0.0461-0.22968 0 0 0.0503-1.057 0.0794-1.5872 0.0248-0.39273 0.0794-0.91873 0.15029-1.5206 0.13398-1.3363 0.29632-2.7108 0.54301-4.1477 0.0581-0.31687 0.12548-0.65998 0.1836-0.99387 0.10421-0.66423 0.18361-1.1193 0.18361-1.1193s3.1368-17.878 3.1454-17.878c2.3096-13.779 5.2004-30.767 5.5428-32.542 0.56003-2.9738 1.1484-5.8016 1.7751-8.4663 0.66424-2.6654 1.3866-5.1962 2.2472-7.51 0.85209-2.3436 1.8545-4.4696 3.0326-6.3992 1.1902-1.9254 2.5598-3.6423 4.1974-5.0998 0.88115-0.81027 1.7963-1.5369 2.7193-2.143 0.9478-0.6217 1.9296-1.1314 2.9533-1.5617 1.0059-0.40124 2.0756-0.71457 3.2035-0.92723h4e-3c-3.1999-7.3768-6.8295-14.519-10.852-21.394-8.2614 1.4908-14.18 5.998-18.144 10.379" fill="#fff"/>
 <path id="path130" d="m326.96 294.87v-14.252c0-3.212-2.0345-4.3016-3.8847-4.3016-1.8545 0-3.9429 1.0896-3.9429 4.3016v14.252h-5.8767v-23.566h5.7435v2.1636c1.5411-1.6205 3.7132-2.4393 5.8852-2.4393 2.3472 0 4.2434 0.76419 5.5591 2.0884 1.9006 1.8878 2.3975 4.1059 2.3975 6.6834v15.07h-5.881" fill="#fff"/>
 <path id="path132" d="m357.5 278.34c-0.6302-1.3866-1.9381-2.4266-3.9344-2.4266-1.9842 0-3.2992 1.04-3.9344 2.4266-0.35941 0.86484-0.49339 1.5078-0.54301 2.535h8.959c-0.0461-1.0272-0.17935-1.6702-0.54727-2.535zm-8.4117 6.57c0 3.0284 1.8545 5.2501 5.1622 5.2501 2.5733 0 3.8429-0.72662 5.3344-2.2217l3.575 3.4835c-2.4017 2.3932-4.707 3.7089-8.959 3.7089-5.5599 0-10.902-2.5308-10.902-12.08 0-7.6809 4.1605-12.029 10.267-12.029 6.5622 0 10.271 4.7914 10.271 11.257v2.6314h-14.749" fill="#fff"/>
 <path id="path134" d="m381.95 294.87c-4.7914 0-6.8295-3.3913-6.8295-6.7458v-11.666h-2.4854v-4.4774h2.4854v-6.9713h5.881v6.9713h4.1605v4.4774h-4.1605v11.303c0 1.3575 0.63517 2.126 2.0345 2.126h2.126v4.9828h-3.212" fill="#fff"/>
 <path id="path136" d="m421.29 294.87h-4.8453l-4.924-14.79-4.9332 14.79h-4.8403l-7.2527-23.566h6.256l3.799 14.556 4.795-14.556h4.3023l4.8368 14.556 3.7968-14.556h6.2021l-7.1924 23.566" fill="#fff"/>
 <path id="path138" d="m449.53 277.36c-0.67628-0.68124-1.583-1.0442-2.7569-1.0442-1.1775 0-2.0423 0.36296-2.7186 1.0442-1.2285 1.2321-1.3575 3.2574-1.3575 5.6967 0 2.4393 0.12902 4.5242 1.3575 5.7477 0.67628 0.68054 1.5411 1.0442 2.7186 1.0442 1.1739 0 2.0806-0.36366 2.7569-1.0442 1.2158-1.2236 1.3575-3.3084 1.3575-5.7477 0-2.4393-0.14177-4.4646-1.3575-5.6967zm4.5653 14.89c-1.449 1.5326-3.8465 2.8859-7.3222 2.8859-3.4913 0-5.8384-1.3533-7.2881-2.8859-2.126-2.2266-2.669-4.8999-2.669-9.1936 0-4.2434 0.54301-6.9252 2.669-9.1348 1.4497-1.5326 3.7968-2.8944 7.2881-2.8944 3.4757 0 5.8732 1.3618 7.3222 2.8944 2.1302 2.2096 2.669 4.8914 2.669 9.1348 0 4.2938-0.53877 6.967-2.669 9.1936" fill="#fff"/>
 <path id="path140" d="m479.58 277.72c-0.91022-0.90597-1.6744-1.4072-3.1241-1.4072-1.8126 0-3.8004 1.3611-3.8004 4.3519v14.201h-5.8774v-23.566h5.7435v2.2557c1.1321-1.3575 3.3914-2.5315 5.9271-2.5315 2.3096 0 3.9344 0.5891 5.5592 2.2139l-4.4278 4.4816" fill="#fff"/>
 <path id="path142" d="m507.28 294.87-5.7938-9.8196-2.4889 2.8023v7.0173h-5.8767v-32.211h5.8767v18.277l7.8269-9.6317h7.1052l-8.421 9.4985 9.0512 14.067h-7.2796" fill="#fff"/>
 <g id="g3049" transform="matrix(1.0223 0 0 .973 -155.73 -204.15)" fill="#fff">
  <path id="path25087" d="m182.38 346.6c10.131-9.7379 19.358-23.01 26.17-38.696 6.8126-15.706 10.189-31.511 10.366-45.568l-0.1178 0.1178c-10.091 9.7182-19.279 22.951-26.072 38.598-6.7733 15.628-10.15 31.373-10.366 45.391"/>
  <path id="path25091" d="m193.34 368.63c13.647-13.063 26.075-30.864 35.271-51.954 9.1962-21.11 13.779-42.345 14.064-61.249l-0.17612 0.15474c-13.588 13.044-25.978 30.825-35.134 51.838-9.1567 21.013-13.739 42.17-14.063 61.015"/>
  <path id="path25095" d="m208.21 399.51c18.559-17.759 35.491-41.949 47.996-70.605 12.525-28.655 18.798-57.539 19.202-83.231l-0.24197 0.19716c-18.479 17.74-35.33 41.871-47.814 70.427-12.484 28.556-18.736 57.32-19.198 82.912"/>
  <path id="path25101" d="m228.74 439.94c24.957-23.973 47.678-56.673 64.424-95.325 16.785-38.672 25.113-77.622 25.554-112.25l-0.31829 0.27585c-24.839 23.973-47.459 56.555-64.165 95.089-16.706 38.534-25.014 77.662-25.514 112.17"/>
 </g>
</svg>
