<svg height="59.152821" viewBox="0 0 198.3573 55.455769" width="211.58112" xmlns="http://www.w3.org/2000/svg" xmlns:xlink="http://www.w3.org/1999/xlink"><radialGradient id="a" cx="176.6123" cy="21.034201" gradientTransform="matrix(1 0 0 .9896 -160.042 -3.4983)" gradientUnits="userSpaceOnUse" r="17.041"><stop offset="0" stop-color="#ed1c24"/><stop offset=".4039" stop-color="#ea1b24"/><stop offset=".6639" stop-color="#e21a24"/><stop offset=".8826" stop-color="#d31725"/><stop offset=".9945" stop-color="#c81525"/></radialGradient><linearGradient id="b" gradientUnits="userSpaceOnUse" x1="160.04201" x2="184.8232" y1="4.2534" y2="4.2534"><stop offset=".0165" stop-color="#a50d12"/><stop offset=".6868" stop-color="#ef462c"/></linearGradient><linearGradient id="c" gradientUnits="userSpaceOnUse" x1="167.2686" x2="177.64751" y1="16.2153" y2="16.2153"><stop offset="0" stop-color="#b3101f"/><stop offset=".7253" stop-color="#ca171e"/></linearGradient><linearGradient id="d" gradientUnits="userSpaceOnUse" x1="177.4424" x2="184.8232" y1="10.2476" y2="10.2476"><stop offset=".0385" stop-color="#ed1c24"/><stop offset=".6347" stop-color="#980b0e"/><stop offset="1" stop-color="#620000"/></linearGradient><linearGradient id="e" gradientUnits="userSpaceOnUse" x1="165.5264" x2="185.8037" y1="21.4268" y2="21.4268"><stop offset=".0385" stop-color="#ed1c24"/><stop offset=".7741" stop-color="#98070c"/><stop offset="1" stop-color="#7d0004"/></linearGradient><linearGradient id="f" gradientUnits="userSpaceOnUse" x1="165.5264" x2="180.38181" y1="38.553699" y2="38.553699"><stop offset="0" stop-color="#ad1015"/><stop offset="1" stop-color="#920411"/></linearGradient><linearGradient id="g" gradientUnits="userSpaceOnUse" x1="185.8037" x2="193.1826" y1="10.2627" y2="10.2627"><stop offset=".0165" stop-color="#ef382d"/><stop offset=".8566" stop-color="#9a0912"/><stop offset="1" stop-color="#8b010d"/></linearGradient><linearGradient id="h" gradientUnits="userSpaceOnUse" x1="179.9678" x2="193.1826" y1="27.564899" y2="27.564899"><stop offset=".0385" stop-color="#ed1c24"/><stop offset=".3396" stop-color="#eb1b23"/><stop offset=".5017" stop-color="#e31a21"/><stop offset=".6308" stop-color="#d5171d"/><stop offset=".7424" stop-color="#c21218"/><stop offset=".8427" stop-color="#a90d11"/><stop offset=".9336" stop-color="#8a0608"/><stop offset="1" stop-color="#6f0000"/></linearGradient><radialGradient id="i" cx="28.16801" cy="-1.235" gradientUnits="userSpaceOnUse" r="45.978802"><stop offset="0" stop-color="#fdddce"/><stop offset=".0629" stop-color="#fabab0"/><stop offset=".1615" stop-color="#f68a85"/><stop offset=".2597" stop-color="#f36362"/><stop offset=".3559" stop-color="#f04447"/><stop offset=".4492" stop-color="#ee2e34"/><stop offset=".5386" stop-color="#ed2128"/><stop offset=".6196" stop-color="#ed1c24"/></radialGradient><radialGradient id="j" cx="184.707" cy="1.0386" gradientUnits="userSpaceOnUse" r="48.719101"><stop offset=".02" stop-color="#fdddce"/><stop offset=".0784" stop-color="#fabab0"/><stop offset=".1699" stop-color="#f68a85"/><stop offset=".2611" stop-color="#f36362"/><stop offset=".3503" stop-color="#f04447"/><stop offset=".4369" stop-color="#ee2e34"/><stop offset=".5199" stop-color="#ed2128"/><stop offset=".5951" stop-color="#ed1c24"/></radialGradient><linearGradient id="k" gradientUnits="userSpaceOnUse" x1="160.04201" x2="184.8232" y1="4.2534" y2="4.2534"><stop offset=".0165" stop-color="#90191c"/><stop offset=".2086" stop-color="#be2326"/><stop offset=".3988" stop-color="#ea5b3f"/><stop offset=".6564" stop-color="#ef8566"/><stop offset=".908" stop-color="#fbbea7"/></linearGradient><linearGradient id="l" gradientUnits="userSpaceOnUse" x1="177.4424" x2="184.8232" y1="10.2476" y2="10.2476"><stop offset=".0385" stop-color="#e41f28"/><stop offset=".2638" stop-color="#d82b29"/><stop offset=".4663" stop-color="#d14236"/><stop offset=".6748" stop-color="#d45647"/><stop offset="1" stop-color="#f4a391"/></linearGradient><linearGradient id="m" gradientUnits="userSpaceOnUse" x1="178.5625" x2="185.9227" y1="16.757299" y2="4.0855"><stop offset=".0385" stop-color="#e41f28"/><stop offset=".2638" stop-color="#d82b29"/><stop offset=".4663" stop-color="#d14236"/><stop offset=".6871" stop-color="#cc5344"/><stop offset="1" stop-color="#f4a391"/></linearGradient><linearGradient id="n" gradientUnits="userSpaceOnUse" x1="185.8037" x2="193.1826" y1="10.2627" y2="10.2627"><stop offset=".0165" stop-color="#fbbea7"/><stop offset=".3865" stop-color="#ef8566"/><stop offset=".6503" stop-color="#ea5b3f"/><stop offset=".8221" stop-color="#cd272b"/><stop offset="1" stop-color="#bf272e"/></linearGradient><g transform="translate(-72.496372 -401.83507)"><g fill="#ee3124"><path d="m95.02923 427.89663v-8.25715h19.89033v16.92039c-3.80763 2.47262-7.17473 4.15566-10.10147 5.04904-2.9267.89344-6.398038 1.34009-10.413948 1.34009-4.944175 0-8.974315-.80311-12.090418-2.40945-3.116224-1.60631-5.531468-3.99775-7.245791-7.17422-1.714354-3.17654-2.571561-6.82232-2.571561-10.93736 0-4.33164.937722-8.09922 2.813076-11.30283 1.875384-3.20358 4.622115-5.63561 8.240282-7.29608 2.822503-1.28136 6.620613-1.92209 11.394302-1.92215 4.603142.00006 8.046048.39699 10.328718 1.19118 2.28262.7942 4.17697 2.026 5.68292 3.69544 1.50596 1.66951 2.63779 3.78566 3.39563 6.34854l-12.41728 2.11168c-.51149-1.49803-1.37813-2.64412-2.599932-3.43826-1.221867-.79413-2.779964-1.19118-4.674201-1.19121-2.822562.00003-5.072093.93406-6.7485 2.80205-1.676498 1.868-2.514732 4.82341-2.514732 8.86628 0 4.29555.84772 7.36374 2.543101 9.20466 1.695441 1.84101 4.058599 2.76144 7.089474 2.76144 1.439696 0 2.813076-.19844 4.120141-.59561 1.307099-.39696 2.803589-1.07389 4.489579-2.03044v-3.73603z"/><path d="m115.67668 401.89769h12.41049l4.47358 22.62556 6.52268-22.62556h12.38168l6.55157 22.62556 4.47357-22.62556h12.35277l-9.32234 40.4995h-12.81455l-7.41742-25.49865-7.38854 25.49865h-12.8146z"/><path d="m176.25711 401.83507h12.18927l15.90666 22.39206v-22.39206h12.30456v40.47686h-12.30456l-15.82017-22.22638v22.22638h-12.27576z"/><path d="m72.496372 457.29084v-13.32471h143.906738l-6.33142 13.32471z"/></g><g transform="matrix(1.599529013583 0 0 1.599529013583 217.843672833062 401.837147885222)"><path d="m25.762 0-20.277 34.635h14.855l12.801-22.358zm-8.157 12.277 7.176-12.276h-24.781l7.227 12.276z" fill="url(#a)"/><g transform="translate(-160.042 -4.109)"><path d="m167.476 16.045-6.875-11.648-.559-.288 7.227 12.277z" fill="#ed1e24"/><path d="m184.257 4.397h-23.656l-.559-.288h24.781z" fill="url(#b)"/><path d="m177.442 16.045h-9.966l-.207.341h10.378z" fill="url(#c)"/><path d="m184.267 4.397-6.825 11.648.205.341 7.176-12.277z" fill="url(#d)"/><path d="m185.804 4.747-19.555 33.616-.723.381 20.278-34.635z" fill="url(#e)"/><path d="m166.249 38.363h13.719l.414.381h-14.856z" fill="url(#f)"/><path d="m192.72 16.416-6.916-11.669v-.638l7.379 12.277z" fill="url(#g)"/><path d="m179.968 38.363 12.752-21.947.463-.03-12.801 22.358z" fill="url(#h)"/></g><path d="m12.721 22.276c3.566 2.35 7.701 3.907 12.154 4.432l8.266-14.431-7.379-12.276z" fill="url(#i)"/><path d="m184.823 4.109h-24.781l7.227 12.277h10.378z" fill="url(#j)" transform="translate(-160.042 -4.109)"/><path d="m184.257 4.397h-23.656l-.559-.288h24.781z" fill="url(#k)" transform="translate(-160.042 -4.109)"/><path d="m184.267 4.397-6.825 11.648.205.341 7.176-12.277z" fill="url(#l)" transform="translate(-160.042 -4.109)"/><path d="m185.804 4.747-19.555 33.616-.723.381 20.278-34.635z" fill="url(#m)" transform="translate(-160.042 -4.109)"/><path d="m192.72 16.416-6.916-11.669v-.638l7.379 12.277z" fill="url(#n)" transform="translate(-160.042 -4.109)"/><path d="m25.762 0-20.277 34.635h14.855l12.801-22.358zm-8.157 12.277 7.176-12.276h-24.781l7.227 12.276z" fill="#ed1c24" opacity=".25"/></g></g></svg>