<svg id="a" width="879.38pt" height="214.5pt" version="1.1" viewBox="0 0 879.38 214.5" xmlns="http://www.w3.org/2000/svg">
 <path id="b" d="m239.23 3.5184v165.86h-22.83v-165.86z" fill="#ac1e2a"/>
 <path id="c" d="m483.71 55.848c16.33-1.41 27.19 13.6 29.15 27.98 3.7 24.54 5.44 51.05-4.83 74.3-4.03 9.55-14.04 14.31-24.69 13.38-8.28-0.99-13.49-6.53-18.87-11.34-0.43 18.07 0.19 36.15-0.22 54.22-6.96 0.13-14 0.17-20.94-0.01v-156.9h18.99v8.49c4.11-5.83 14.23-9.67 21.41-10.12m-6.97 20c-5.8443 1.2053-9.1833 6.2329-10.43 11.58-4.2234 18.113-3.1478 37.191 0.72 55.33 2.0684 9.7 17.105 13.635 21.09 5.46 8.1567-16.733 7.2361-37.006 4.8-55.41-1.0997-8.3077-6.2605-19.006-16.18-16.96z" fill="#ac1e2a"/>
 <path id="d" d="m711.67 55.858v21.88c-9.59-1.12-23.11 3.16-24.64 14.37-1.94 12.74-1.64 11.95-1.74 77.27h-19.88v-111.9h18.7v15.11c5.2-9.19 16.62-16.47 27.56-16.73z" fill="#ac1e2a"/>
 <path id="e" d="m834.71 55.848c9.5054-1.0128 18.73 4.05 23.76 11.85v-10.22h20.75c0.27 36.89 0.12 75.01 0.07 111.9h-20.82v-9.07c-6.51 7.81-16.61 13.92-27.12 11.16-11.35-2.72-17.77-13.84-20.54-24.41-4.54-22.52-5.3-46.26 0.63-68.59 3.2-10.71 10.9-21.704 23.27-22.62m6.02 19.99c-5.4362 1.2034-8.4702 6.5627-9.63 11.45-3.7003 15.593-3.0095 31.782-1.16 47.54 0.65434 5.575 2.0753 12.271 7.41 15.61 6.4028 4.0079 15.682 0.60701 17.96-7 4.7346-15.809 2.7145-32.531 2.53-48.61-0.10551-9.1943-5.6744-21.521-17.11-18.99z" fill="#ac1e2a"/>
 <path id="f" d="m324.74 56.908c10.87-2.47 21.66 3.84 27.54 12.77 8.05-12.49 26.31-17.4 39.05-9.21 7.87 4.66 9.55 14.64 9.96 22.97v85.94h-20.89v-81.88c-0.42412-9.2609-10.44-12.94-16.75-11.75-6.88 1.52-10.436 8.9159-10.38 15.69v77.94h-20.81v-81.88c0.27105-12.073-14.88-15.99-21.39-8.34-3.02 2.82-3.78 7.38-3.82 11.28v78.94h-20.83v-111.9h19.67v9.61c4.06-5.47 11.89-9.25 18.65-10.18z" fill="#ac1e2a"/>
 <path id="g" d="m747.4 57.478h20.89v156.91l-20.89-0.01z" fill="#ac1e2a"/>
 <circle id="h" cx="757.26" cy="24.733" r="13.546" fill="#ac1e2a"/>
 <path id="i" d="m577.53 55.848c9.5054-1.0128 18.73 4.05 23.76 11.85v-10.22h20.75c0.27 36.89 0.12 75.01 0.07 111.9h-20.82v-9.07c-6.51 7.81-16.61 13.92-27.12 11.16-11.35-2.72-17.77-13.84-20.54-24.41-4.54-22.52-5.3-46.26 0.63-68.59 3.2-10.71 10.9-21.704 23.27-22.62m6.02 19.99c-5.4362 1.2034-8.4702 6.5627-9.63 11.45-3.7003 15.593-3.0095 31.782-1.16 47.54 0.65434 5.575 2.0753 12.271 7.41 15.61 6.4028 4.0079 15.682 0.60701 17.96-7 4.7346-15.809 2.7145-32.531 2.53-48.61-0.10551-9.1943-5.6744-21.521-17.11-18.99z" fill="#ac1e2a"/>
 <circle id="j" cx="89.935" cy="146.81" r="23.493" fill="#ac1e2a"/>
 <circle id="k" cx="89.935" cy="85.194" r="23.493" fill="#ac1e2a"/>
 <circle id="l" cx="89.935" cy="23.493" r="23.493" fill="#ac1e2a"/>
 <circle id="m" cx="23.493" cy="146.81" r="23.493" fill="#ac1e2a"/>
 <circle id="n" cx="23.493" cy="85.194" r="23.493" fill="#ac1e2a"/>
 <circle id="o" cx="23.493" cy="23.493" r="23.493" fill="#ac1e2a"/>
 <circle id="p" cx="155.43" cy="146.81" r="23.493" fill="#ac1e2a"/>
 <circle id="q" cx="155.43" cy="85.194" r="23.493" fill="#ac1e2a"/>
 <circle id="r" cx="155.43" cy="23.493" r="23.493" fill="#ac1e2a"/>
</svg>
