<?xml version="1.0" encoding="UTF-8" standalone="no"?>
<svg
   xmlns:dc="http://purl.org/dc/elements/1.1/"
   xmlns:cc="http://creativecommons.org/ns#"
   xmlns:rdf="http://www.w3.org/1999/02/22-rdf-syntax-ns#"
   xmlns:svg="http://www.w3.org/2000/svg"
   xmlns="http://www.w3.org/2000/svg"
   xmlns:sodipodi="http://sodipodi.sourceforge.net/DTD/sodipodi-0.dtd"
   xmlns:inkscape="http://www.inkscape.org/namespaces/inkscape"
   width="879.37878pt"
   height="214.49992pt"
   viewBox="0 0 879.37878 214.49992"
   version="1.1"
   id="svg2"
   inkscape:version="0.91 r13725"
   sodipodi:docname="Imparja Television - Dark.svg">
  <metadata
     id="metadata44">
    <rdf:RDF>
      <cc:Work
         rdf:about="">
        <dc:format>image/svg+xml</dc:format>
        <dc:type
           rdf:resource="http://purl.org/dc/dcmitype/StillImage" />
        <dc:title></dc:title>
      </cc:Work>
    </rdf:RDF>
  </metadata>
  <defs
     id="defs42" />
  <sodipodi:namedview
     pagecolor="#ffffff"
     bordercolor="#666666"
     borderopacity="1"
     objecttolerance="10"
     gridtolerance="10"
     guidetolerance="10"
     inkscape:pageopacity="0"
     inkscape:pageshadow="2"
     inkscape:window-width="1920"
     inkscape:window-height="1017"
     id="namedview40"
     showgrid="false"
     fit-margin-top="0"
     fit-margin-left="0"
     fit-margin-right="0"
     fit-margin-bottom="0"
     inkscape:zoom="0.35355339"
     inkscape:cx="314.84476"
     inkscape:cy="708.15265"
     inkscape:window-x="-8"
     inkscape:window-y="-8"
     inkscape:window-maximized="1"
     inkscape:current-layer="svg2" />
  <g
     id="#fefdfdff"
     transform="translate(-53.647997,-57.561602)" />
  <path
     style="opacity:1;fill:#ac1e2a"
     inkscape:connector-curvature="0"
     id="path12"
     d="m 239.232,3.5183984 0,165.8600016 -22.8296,0 0,-165.8600016 z"
     sodipodi:nodetypes="ccccc" />
  <path
     style="opacity:1;fill:#ac1e2a"
     inkscape:connector-curvature="0"
     id="path16"
     d="m 483.712,55.848398 c 16.33,-1.41 27.19,13.6 29.15,27.98 3.7,24.540002 5.44,51.050002 -4.83,74.300002 -4.03,9.55 -14.04,14.31 -24.69,13.38 -8.28,-0.99 -13.49,-6.53 -18.87,-11.34 -0.43,18.07 0.19,36.15 -0.22,54.22 -6.96,0.13 -14,0.17 -20.94,-0.01 l 0,-156.900002 18.9896,0 0,8.49 c 4.11,-5.83 14.2304,-9.67 21.4104,-10.12 m -6.97,20 c -5.84429,1.20531 -9.18326,6.23291 -10.43,11.58 -4.22335,18.113302 -3.14781,37.191072 0.72,55.330002 2.06835,9.69998 17.10466,13.63549 21.09,5.46 8.15672,-16.7326 7.23613,-37.00636 4.8,-55.410002 -1.09971,-8.30774 -6.26049,-19.00578 -16.18,-16.96 z"
     sodipodi:nodetypes="cccccccccccssssss" />
  <path
     style="opacity:1;fill:#ac1e2a"
     inkscape:connector-curvature="0"
     id="path20"
     d="m 711.672,55.858398 0,21.88 c -9.59,-1.12 -23.11,3.16 -24.64,14.37 -1.94,12.740002 -1.64,11.950002 -1.74,77.270002 l -19.88,0 0,-111.900002 18.7,0 0,15.11 c 5.2,-9.19 16.62,-16.47 27.56,-16.73 z"
     sodipodi:nodetypes="ccccccccc" />
  <path
     style="opacity:1;fill:#ac1e2a"
     inkscape:connector-curvature="0"
     id="path22"
     d="m 834.712,55.848398 c 9.50536,-1.01277 18.73,4.05 23.76,11.85 l 0,-10.22 20.75,0 c 0.27,36.89 0.12,75.010002 0.07,111.900002 l -20.82,0 0,-9.07 c -6.51,7.81 -16.61,13.92 -27.12,11.16 -11.35,-2.72 -17.77,-13.84 -20.54,-24.41 -4.54,-22.52 -5.3,-46.26 0.63,-68.590002 3.2,-10.71 10.9,-21.70431 23.27,-22.62 m 6.02,19.99 c -5.43617,1.20338 -8.47023,6.56273 -9.63,11.45 -3.70026,15.592852 -3.00949,31.782322 -1.16,47.540002 0.65434,5.57502 2.07532,12.2707 7.41,15.61 6.40283,4.00792 15.68181,0.60701 17.96,-7 4.73459,-15.80905 2.71452,-32.53106 2.53,-48.610002 -0.10551,-9.19429 -5.67443,-21.52144 -17.11,-18.99 z"
     sodipodi:nodetypes="cccccccccccsssssss" />
  <path
     style="opacity:1;fill:#ac1e2a"
     inkscape:connector-curvature="0"
     id="path24"
     d="m 324.742,56.908398 c 10.87,-2.47 21.66,3.84 27.54,12.77 8.05,-12.49 26.31,-17.4 39.05,-9.21 7.87,4.66 9.55,14.64 9.96,22.97 l 0,85.940002 -20.8896,0 0,-81.880002 c -0.42412,-9.26093 -10.4404,-12.94 -16.7504,-11.75 -6.88,1.52 -10.43645,8.91593 -10.38,15.69 l 0,77.940002 -20.8096,0 0,-81.880002 c 0.27105,-12.07258 -14.8804,-15.99 -21.3904,-8.34 -3.02,2.82 -3.78,7.38 -3.82,11.28 l 0,78.940002 -20.8304,0 0,-111.900002 19.6704,0 0,9.61 c 4.06,-5.47 11.89,-9.25 18.65,-10.18 z"
     sodipodi:nodetypes="cccccccccccccccccccc" />
  <path
     style="opacity:1;fill:#ac1e2a"
     inkscape:connector-curvature="0"
     id="path26"
     d="m 747.4024,57.478398 20.8896,0 0,156.910002 -20.8896,-0.01 z"
     sodipodi:nodetypes="ccccc" />
  <circle
     style="opacity:1;fill:#ac1e2a;fill-opacity:1;stroke:none;stroke-opacity:1"
     id="path4204"
     cx="757.25598"
     cy="24.732801"
     r="13.5456" />
  <path
     style="opacity:1;fill:#ac1e2a"
     inkscape:connector-curvature="0"
     id="path22-6"
     d="m 577.5298,55.848368 c 9.50536,-1.01277 18.73,4.05 23.76,11.85 l 0,-10.22 20.75,0 c 0.27,36.89 0.12,75.010002 0.07,111.900002 l -20.82,0 0,-9.07 c -6.51,7.81 -16.61,13.92 -27.12,11.16 -11.35,-2.72 -17.77,-13.84 -20.54,-24.41 -4.54,-22.52 -5.3,-46.26 0.63,-68.590002 3.2,-10.71 10.9,-21.70431 23.27,-22.62 m 6.02,19.99 c -5.43617,1.20338 -8.47023,6.56273 -9.63,11.45 -3.70026,15.592852 -3.00949,31.782322 -1.16,47.540002 0.65434,5.57502 2.07532,12.2707 7.41,15.61 6.40283,4.00792 15.68181,0.60701 17.96,-7 4.73459,-15.80905 2.71452,-32.53106 2.53,-48.610002 -0.10551,-9.19429 -5.67443,-21.52144 -17.11,-18.99 z"
     sodipodi:nodetypes="cccccccccccsssssss" />
  <circle
     style="opacity:1;fill:#ac1e2a;fill-opacity:1;stroke:none;stroke-opacity:1"
     id="path4204-3"
     cx="89.934799"
     cy="146.80521"
     r="23.4932" />
  <circle
     style="opacity:1;fill:#ac1e2a;fill-opacity:1;stroke:none;stroke-opacity:1"
     id="path4204-3-6"
     cx="89.934799"
     cy="85.194"
     r="23.4932" />
  <circle
     style="opacity:1;fill:#ac1e2a;fill-opacity:1;stroke:none;stroke-opacity:1"
     id="path4204-3-5"
     cx="89.934799"
     cy="23.4932"
     r="23.4932" />
  <circle
     style="opacity:1;fill:#ac1e2a;fill-opacity:1;stroke:none;stroke-opacity:1"
     id="path4204-3-9"
     cx="23.4932"
     cy="146.80521"
     r="23.4932" />
  <circle
     style="opacity:1;fill:#ac1e2a;fill-opacity:1;stroke:none;stroke-opacity:1"
     id="path4204-3-6-1"
     cx="23.4932"
     cy="85.194"
     r="23.4932" />
  <circle
     style="opacity:1;fill:#ac1e2a;fill-opacity:1;stroke:none;stroke-opacity:1"
     id="path4204-3-5-0"
     cx="23.4932"
     cy="23.4932"
     r="23.4932" />
  <circle
     style="opacity:1;fill:#ac1e2a;fill-opacity:1;stroke:none;stroke-opacity:1"
     id="path4204-3-9-2"
     cx="155.4348"
     cy="146.80521"
     r="23.4932" />
  <circle
     style="opacity:1;fill:#ac1e2a;fill-opacity:1;stroke:none;stroke-opacity:1"
     id="path4204-3-6-1-9"
     cx="155.4348"
     cy="85.194016"
     r="23.4932" />
  <circle
     style="opacity:1;fill:#ac1e2a;fill-opacity:1;stroke:none;stroke-opacity:1"
     id="path4204-3-5-0-8"
     cx="155.4348"
     cy="23.4932"
     r="23.4932" />
</svg>
