<svg height="214.49992pt" viewBox="0 0 879.37878 214.49992" width="879.37878pt" xmlns="http://www.w3.org/2000/svg"><g fill="#ff071b"><path d="m239.232 3.5183984v165.8600016h-22.8296v-165.8600016z"/><path d="m483.712 55.848398c16.33-1.41 27.19 13.6 29.15 27.98 3.7 24.540002 5.44 51.050002-4.83 74.300002-4.03 9.55-14.04 14.31-24.69 13.38-8.28-.99-13.49-6.53-18.87-11.34-.43 18.07.19 36.15-.22 54.22-6.96.13-14 .17-20.94-.01v-156.900002h18.9896v8.49c4.11-5.83 14.2304-9.67 21.4104-10.12m-6.97 20c-5.84429 1.20531-9.18326 6.23291-10.43 11.58-4.22335 18.113302-3.14781 37.191072.72 55.330002 2.06835 9.69998 17.10466 13.63549 21.09 5.46 8.15672-16.7326 7.23613-37.00636 4.8-55.410002-1.09971-8.30774-6.26049-19.00578-16.18-16.96z"/><path d="m711.672 55.858398v21.88c-9.59-1.12-23.11 3.16-24.64 14.37-1.94 12.740002-1.64 11.950002-1.74 77.270002h-19.88v-111.900002h18.7v15.11c5.2-9.19 16.62-16.47 27.56-16.73z"/><path d="m834.712 55.848398c9.50536-1.01277 18.73 4.05 23.76 11.85v-10.22h20.75c.27 36.89.12 75.010002.07 111.900002h-20.82v-9.07c-6.51 7.81-16.61 13.92-27.12 11.16-11.35-2.72-17.77-13.84-20.54-24.41-4.54-22.52-5.3-46.26.63-68.590002 3.2-10.71 10.9-21.70431 23.27-22.62m6.02 19.99c-5.43617 1.20338-8.47023 6.56273-9.63 11.45-3.70026 15.592852-3.00949 31.782322-1.16 47.540002.65434 5.57502 2.07532 12.2707 7.41 15.61 6.40283 4.00792 15.68181.60701 17.96-7 4.73459-15.80905 2.71452-32.53106 2.53-48.610002-.10551-9.19429-5.67443-21.52144-17.11-18.99z"/><path d="m324.742 56.908398c10.87-2.47 21.66 3.84 27.54 12.77 8.05-12.49 26.31-17.4 39.05-9.21 7.87 4.66 9.55 14.64 9.96 22.97v85.940002h-20.8896v-81.880002c-.42412-9.26093-10.4404-12.94-16.7504-11.75-6.88 1.52-10.43645 8.91593-10.38 15.69v77.940002h-20.8096v-81.880002c.27105-12.07258-14.8804-15.99-21.3904-8.34-3.02 2.82-3.78 7.38-3.82 11.28v78.940002h-20.8304v-111.900002h19.6704v9.61c4.06-5.47 11.89-9.25 18.65-10.18z"/><path d="m747.4024 57.478398h20.8896v156.910002l-20.8896-.01z"/><circle cx="757.25598" cy="24.732801" r="13.5456"/><path d="m577.5298 55.848368c9.50536-1.01277 18.73 4.05 23.76 11.85v-10.22h20.75c.27 36.89.12 75.010002.07 111.900002h-20.82v-9.07c-6.51 7.81-16.61 13.92-27.12 11.16-11.35-2.72-17.77-13.84-20.54-24.41-4.54-22.52-5.3-46.26.63-68.590002 3.2-10.71 10.9-21.70431 23.27-22.62m6.02 19.99c-5.43617 1.20338-8.47023 6.56273-9.63 11.45-3.70026 15.592852-3.00949 31.782322-1.16 47.540002.65434 5.57502 2.07532 12.2707 7.41 15.61 6.40283 4.00792 15.68181.60701 17.96-7 4.73459-15.80905 2.71452-32.53106 2.53-48.610002-.10551-9.19429-5.67443-21.52144-17.11-18.99z"/><circle cx="89.934799" cy="146.80521" r="23.4932"/><circle cx="89.934799" cy="85.194" r="23.4932"/><circle cx="89.934799" cy="23.4932" r="23.4932"/><circle cx="23.4932" cy="146.80521" r="23.4932"/><circle cx="23.4932" cy="85.194" r="23.4932"/><circle cx="23.4932" cy="23.4932" r="23.4932"/><circle cx="155.4348" cy="146.80521" r="23.4932"/><circle cx="155.4348" cy="85.194016" r="23.4932"/><circle cx="155.4348" cy="23.4932" r="23.4932"/></g></svg>