<?xml version="1.0" encoding="UTF-8" standalone="no"?>
<!-- Created with Inkscape (http://www.inkscape.org/) -->

<svg
   xmlns:dc="http://purl.org/dc/elements/1.1/"
   xmlns:cc="http://creativecommons.org/ns#"
   xmlns:rdf="http://www.w3.org/1999/02/22-rdf-syntax-ns#"
   xmlns:svg="http://www.w3.org/2000/svg"
   xmlns="http://www.w3.org/2000/svg"
   xmlns:sodipodi="http://sodipodi.sourceforge.net/DTD/sodipodi-0.dtd"
   xmlns:inkscape="http://www.inkscape.org/namespaces/inkscape"
   width="21.194096mm"
   height="31.630003mm"
   viewBox="0 0 75.097189 112.07481"
   id="svg4369"
   version="1.1"
   inkscape:version="0.91 r13725"
   sodipodi:docname="Indigenous Community Television.svg">
  <defs
     id="defs4371">
    <clipPath
       clipPathUnits="userSpaceOnUse"
       id="clipPath64">
      <path
         d="m 452.641,482.669 60.079,0 0,85.443 -60.079,0 0,-85.443 z"
         id="path66"
         inkscape:connector-curvature="0" />
    </clipPath>
    <clipPath
       clipPathUnits="userSpaceOnUse"
       id="clipPath76">
      <path
         d="m 447.165,482.669 78.812,0 0,104.102 -78.812,0 0,-104.102 z"
         id="path78"
         inkscape:connector-curvature="0" />
    </clipPath>
  </defs>
  <sodipodi:namedview
     id="base"
     pagecolor="#ffffff"
     bordercolor="#666666"
     borderopacity="1.0"
     inkscape:pageopacity="0.0"
     inkscape:pageshadow="2"
     inkscape:zoom="3.959798"
     inkscape:cx="-44.765564"
     inkscape:cy="38.287142"
     inkscape:document-units="px"
     inkscape:current-layer="layer1"
     showgrid="false"
     fit-margin-top="0"
     fit-margin-left="0"
     fit-margin-right="0"
     fit-margin-bottom="0"
     inkscape:window-width="1920"
     inkscape:window-height="1017"
     inkscape:window-x="-8"
     inkscape:window-y="-8"
     inkscape:window-maximized="1" />
  <metadata
     id="metadata4374">
    <rdf:RDF>
      <cc:Work
         rdf:about="">
        <dc:format>image/svg+xml</dc:format>
        <dc:type
           rdf:resource="http://purl.org/dc/dcmitype/StillImage" />
        <dc:title />
      </cc:Work>
    </rdf:RDF>
  </metadata>
  <g
     inkscape:label="Layer 1"
     inkscape:groupmode="layer"
     id="layer1"
     transform="translate(-319.59379,-378.96043)">
    <path
       inkscape:connector-curvature="0"
       id="path70"
       style="fill:#8d1900;fill-opacity:1;fill-rule:nonzero;stroke:none"
       d="m 393.7946,418.89918 c 0.615,8.19125 -1.8975,13.8 -5.0125,18.595 -3.68,5.66 -8.53875,9.9925 -15.37875,12.48 -6.69375,2.43 -15.98875,3.1225 -24.09,1.5875 -15.335,-2.895 -25.2,-12.28375 -28.6775,-27.01625 -0.89375,-3.76875 -1.3825,-8.1075 -0.7675,-12.59375 0.53375,-3.91375 1.65625,-7.52375 3.135,-10.7725 2.905,-6.38875 7.27625,-11.635 12.53,-15.30875 4.18,-2.9125 8.83125,-5.0575 14.6675,-6.205 6.3825,-1.25625 14.39625,-0.78 20.05,1.0025 7.71375,2.4425 13.90625,6.845 17.795,13.06875 1.9475,3.1225 3.48375,7.525 3.375,12.7975 0,2.55 -1.91625,-1.3775 -2.2775,-1.10375 0.60875,3.02625 2.31,7.315 0.2475,10.2325 -0.425,0.14 -1.0025,-2.37875 -1.8775,-3.39375 -0.65375,-0.77375 -2.24,3.19125 -2.595,1.61125 -0.43125,-1.96 -0.78625,-4.13 -1.73875,-6.7 -1.63625,-4.40875 -1.1925,-3.71125 -3.78125,-7.7525 -3.8825,-6.065 -9.40875,-9.4725 -18.5575,-10.43 -10.01125,-1.06 -14.2625,1.58625 -19.68,5.52625 -3.02,2.195 -5.5775,4.87875 -7.455,8.26625 -3.02,5.4625 -3.1975,6.7825 -3.42625,11.8575 -0.22875,5.21 0.7875,8.08375 2.3925,11.6175 1.38875,3.05125 3.03875,5.65875 4.555,7.22 4.35875,4.485 7.70125,7.36625 18.88125,8.7425 4.91625,0.59625 12.55,-0.825 16.20375,-3.0075 5.92625,-3.51375 7.5875,-5.665 9.7575,-9.39 1.46,-2.5125 1.91625,-5.53125 2.70875,-8.45625 0.81875,-3.0075 2.51875,-2.2975 3.2875,-1.50375 0.96375,1.00875 0.1775,4.60625 -0.21625,6.59125 -0.33,1.6625 -0.425,3.35625 0.15875,3.4075 0.90125,-0.6025 1.1225,-1.95375 1.57375,-3.10875 1.1675,-2.995 1.33875,-5.99625 2.245,-9.4525 0.17125,-0.64875 0.7425,-1.56875 1.2375,-1.51125 0.4125,0.0513 0.65375,2.10625 0.73,3.1025" />
    <path
       inkscape:connector-curvature="0"
       id="path82"
       style="fill:#e76801;fill-opacity:1;fill-rule:nonzero;stroke:none"
       d="m 372.1851,415.98068 c 1.96,0.0437 1.63625,5.13875 0.8125,7.06125 -1.675,3.90875 -4.835,7.02375 -8.82625,8.53375 -2.99375,1.13625 -6.12125,1.815 -10.55,0.755 -4.07375,-0.9775 -6.06625,-2.72125 -7.8675,-4.66375 -1.89,-2.0175 -3.28625,-4.6625 -4.06,-7.58125 -0.8625,-3.27375 -0.2725,-7.7975 0.90625,-10.455 2.095,-4.69625 7.96875,-9.3775 14.605,-9.73875 4.125,-0.21625 7.545,1.16625 9.98125,2.84875 2.6825,1.83875 4.71375,5.60125 4.085,9.40125 -0.285,0.16 -0.48125,-0.2025 -0.78125,-0.215 0.3,1.0525 0.7375,3.445 -0.3925,3.6925 -0.40625,0.0888 -1.06625,-0.26 -1.33875,-0.5075 -1.0025,-0.8825 -1.6175,-2.24 -2.20125,-3.4775 -0.60875,-1.275 -1.49125,-2.36625 -2.38625,-3.14625 -2.5875,-2.29 -7.63125,-2.71625 -10.83625,-1.0025 -2.82875,1.51 -5.1825,4.78375 -4.91,8.83125 0.18375,2.8175 1.28125,5 2.88,6.51 1.6125,1.54125 3.655,2.3475 6.7125,2.36 3.10875,0.0187 5.3675,-1.4025 6.91,-2.95625 1.135,-1.13 2.0675,-2.05625 2.70875,-3.9275 0.11375,-0.32375 0.24625,-1.58 0.84375,-1.57375 0.64125,0.02 0.77375,1.5925 0.72375,2.525 -0.0325,0.705 -0.255,1.24375 -0.1075,1.84 1.0325,-0.21625 1.26125,-1.54125 1.67375,-2.5125 0.4375,-1.02125 0.5075,-2.15625 1.415,-2.60125" />
    <path
       d="m 321.55473,490.0753 -0.7725,0 0,-3.515 0.7725,0 0,3.515 z m 1.1225,-2.545 0,0.35375 0.015,0 c 0.0875,-0.1475 0.2025,-0.255 0.34375,-0.32125 0.14125,-0.0675 0.28625,-0.10125 0.43375,-0.10125 0.1875,0 0.34,0.025 0.46,0.0763 0.12,0.0512 0.21375,0.12125 0.2825,0.21125 0.07,0.09 0.1175,0.2 0.14625,0.33 0.0275,0.13 0.0412,0.27375 0.0412,0.43125 l 0,1.565 -0.69875,0 0,-1.4375 c 0,-0.21 -0.0325,-0.36625 -0.0987,-0.47 -0.065,-0.10375 -0.18125,-0.155 -0.34875,-0.155 -0.19125,0 -0.32875,0.0562 -0.41375,0.16875 -0.085,0.11375 -0.12875,0.3 -0.12875,0.56 l 0,1.33375 -0.69875,0 0,-2.545 0.665,0 z m 3.88375,0.9625 -0.10125,-0.25625 -0.185,-0.18 c -0.075,-0.045 -0.17,-0.0688 -0.285,-0.0688 -0.115,0 -0.21125,0.0238 -0.29,0.0688 l -0.19,0.1825 -0.10375,0.25875 -0.0312,0.3025 0.0337,0.295 0.11125,0.26375 0.19125,0.1875 0.27875,0.07 c 0.115,0 0.21125,-0.0225 0.2875,-0.0688 l 0.185,-0.18375 0.0987,-0.26375 0.0288,-0.305 -0.0288,-0.3025 m 0.0288,1.2575 c -0.0812,0.1375 -0.18875,0.2375 -0.3225,0.29875 -0.1325,0.06 -0.2825,0.09 -0.45,0.09 -0.19,0 -0.3575,-0.0375 -0.5025,-0.11125 -0.14375,-0.0738 -0.2625,-0.1725 -0.35625,-0.3 -0.0937,-0.12625 -0.16375,-0.27125 -0.2125,-0.435 -0.0462,-0.165 -0.0712,-0.335 -0.0712,-0.5125 0,-0.17125 0.025,-0.33625 0.0712,-0.49375 0.0488,-0.16 0.11875,-0.3 0.2125,-0.42125 0.0937,-0.1225 0.21,-0.22 0.3525,-0.29375 0.14,-0.0738 0.305,-0.11 0.49125,-0.11 0.15125,0 0.295,0.0312 0.43125,0.095 0.13625,0.065 0.24375,0.15875 0.3225,0.28375 l 0.009,0 0,-1.28 0.7,0 0,3.515 -0.665,0 0,-0.325 -0.01,0 z m 1.0725,-3.19 0.69875,0 0,0.57625 -0.69875,0 0,-0.57625 z m 0.7,3.515 -0.69875,0 0,-2.545 0.69875,0 0,2.545 z m 1.85,-0.66 0.1875,-0.1575 0.11,-0.22375 0.0375,-0.26375 -0.03,-0.2975 -0.0975,-0.24875 -0.1825,-0.1725 c -0.0763,-0.0413 -0.17125,-0.0638 -0.285,-0.0638 l -0.25375,0.0588 -0.1775,0.16125 -0.10375,0.23 -0.0312,0.27375 0.0263,0.2725 0.0937,0.24375 0.175,0.1775 0.27125,0.0687 0.26,-0.0587 m 0.9575,0.84625 c -0.0275,0.1325 -0.0875,0.25375 -0.17875,0.3675 -0.0925,0.1125 -0.225,0.20875 -0.4,0.2875 -0.17375,0.0788 -0.40625,0.11875 -0.69875,0.11875 -0.125,0 -0.25125,-0.0163 -0.38125,-0.0475 -0.13,-0.0312 -0.2475,-0.08 -0.35375,-0.145 l -0.26625,-0.25375 c -0.07,-0.1025 -0.11125,-0.2275 -0.12,-0.37125 l 0.69375,0 c 0.0325,0.13125 0.0962,0.2225 0.19125,0.2725 0.0962,0.0512 0.205,0.0763 0.33,0.0763 0.1975,0 0.34125,-0.0588 0.43125,-0.17625 0.09,-0.11875 0.1325,-0.2675 0.13,-0.4475 l 0,-0.335 -0.01,0 c -0.075,0.13375 -0.1825,0.23375 -0.3225,0.2975 -0.14,0.0637 -0.28625,0.0962 -0.44,0.0962 -0.19,0 -0.355,-0.0337 -0.4925,-0.10125 -0.1375,-0.0675 -0.25125,-0.15875 -0.34,-0.275 -0.0875,-0.1175 -0.1525,-0.25375 -0.19375,-0.40875 -0.0412,-0.15625 -0.0612,-0.32125 -0.0612,-0.495 0,-0.165 0.0238,-0.3225 0.0713,-0.475 0.0475,-0.1525 0.1175,-0.2875 0.20875,-0.40375 0.0925,-0.11625 0.20625,-0.20875 0.3425,-0.27875 0.13625,-0.0688 0.2925,-0.1025 0.47,-0.1025 0.1675,0 0.31375,0.0312 0.44,0.0937 0.12625,0.0625 0.2325,0.16625 0.3175,0.315 l 0.01,0 0,-0.34 0.665,0 0,2.3825 c 0,0.10125 -0.015,0.2175 -0.0425,0.34875 m 1.99375,-2.13625 c -0.0838,-0.0913 -0.21125,-0.1375 -0.38125,-0.1375 l -0.27875,0.0575 -0.17625,0.13875 -0.0937,0.1775 -0.0325,0.16875 1.1375,0 c -0.0337,-0.1775 -0.0913,-0.3125 -0.175,-0.405 m -0.79,1.34 c 0.105,0.10125 0.25625,0.15125 0.4525,0.15125 0.14125,0 0.2625,-0.035 0.36375,-0.105 l 0.1875,-0.22375 0.615,0 c -0.0975,0.305 -0.24875,0.52375 -0.4525,0.655 -0.20375,0.13125 -0.45,0.19625 -0.7375,0.19625 -0.20125,0 -0.38125,-0.0325 -0.5425,-0.0962 -0.16,-0.0638 -0.29625,-0.155 -0.40875,-0.2725 -0.11125,-0.11875 -0.1975,-0.25875 -0.2575,-0.42375 -0.0612,-0.16375 -0.0913,-0.34375 -0.0913,-0.54125 0,-0.19 0.0312,-0.3675 0.0925,-0.53125 0.0637,-0.165 0.15125,-0.30625 0.26625,-0.42625 0.115,-0.12 0.2525,-0.21375 0.41125,-0.28375 0.15875,-0.0688 0.335,-0.1025 0.53,-0.1025 0.215,0 0.405,0.0412 0.565,0.125 0.16125,0.0838 0.2925,0.19625 0.39625,0.3375 0.10375,0.14125 0.1775,0.3025 0.22375,0.4825 0.0462,0.18 0.0625,0.36875 0.05,0.56625 l -1.83625,0 c 0.01,0.22625 0.0675,0.39 0.1725,0.4925 m 2.59375,-1.935 0,0.35375 0.015,0 c 0.0888,-0.1475 0.20375,-0.255 0.34375,-0.32125 0.14125,-0.0675 0.28625,-0.10125 0.43375,-0.10125 0.18625,0 0.34,0.025 0.46,0.0763 0.12,0.0512 0.21375,0.12125 0.28375,0.21125 0.0687,0.09 0.11625,0.2 0.145,0.33 0.0275,0.13 0.0412,0.27375 0.0412,0.43125 l 0,1.565 -0.69875,0 0,-1.4375 c 0,-0.21 -0.0325,-0.36625 -0.0987,-0.47 -0.065,-0.10375 -0.1825,-0.155 -0.34875,-0.155 -0.19125,0 -0.32875,0.0562 -0.41375,0.16875 -0.0863,0.11375 -0.12875,0.3 -0.12875,0.56 l 0,1.33375 -0.69875,0 0,-2.545 0.665,0 z m 2.75625,1.5725 0.10125,0.26125 0.18875,0.18375 c 0.0787,0.0462 0.1775,0.0688 0.29625,0.0688 0.1175,0 0.21625,-0.0225 0.2975,-0.0688 l 0.19125,-0.18375 0.10125,-0.26125 0.0288,-0.2975 -0.0288,-0.30125 -0.10125,-0.26 -0.19125,-0.185 c -0.0813,-0.0475 -0.18,-0.0713 -0.2975,-0.0713 -0.11875,0 -0.2175,0.0238 -0.29625,0.0713 l -0.18875,0.185 -0.10125,0.26 -0.03,0.30125 0.03,0.2975 m -0.635,-0.85125 c 0.0625,-0.165 0.15125,-0.30625 0.265,-0.42375 0.115,-0.11625 0.25375,-0.20625 0.41375,-0.27125 0.16125,-0.0638 0.34125,-0.095 0.5425,-0.095 0.2,0 0.38125,0.0312 0.54375,0.095 0.1625,0.065 0.3,0.155 0.415,0.27125 0.115,0.1175 0.20375,0.25875 0.26625,0.42375 0.0625,0.16625 0.0937,0.35 0.0937,0.55375 0,0.20375 -0.0312,0.38625 -0.0937,0.55125 -0.0625,0.16375 -0.15125,0.30375 -0.26625,0.42125 -0.115,0.115 -0.2525,0.205 -0.415,0.2675 -0.1625,0.0613 -0.34375,0.0937 -0.54375,0.0937 -0.20125,0 -0.38125,-0.0325 -0.5425,-0.0937 -0.16,-0.0625 -0.29875,-0.1525 -0.41375,-0.2675 -0.11375,-0.1175 -0.2025,-0.2575 -0.265,-0.42125 -0.0625,-0.165 -0.0937,-0.3475 -0.0937,-0.55125 0,-0.20375 0.0312,-0.3875 0.0937,-0.55375 m 4.5675,1.82375 0,-0.355 -0.015,0 c -0.0888,0.14875 -0.20375,0.255 -0.34375,0.32 -0.14125,0.0663 -0.28625,0.0987 -0.43375,0.0987 -0.1875,0 -0.34,-0.025 -0.46,-0.0738 -0.12,-0.05 -0.21375,-0.11875 -0.28375,-0.20875 -0.0675,-0.0913 -0.1175,-0.2 -0.145,-0.33 -0.0275,-0.13 -0.0413,-0.27375 -0.0413,-0.43125 l 0,-1.565 0.69875,0 0,1.4375 c 0,0.21 0.0325,0.36625 0.0987,0.47 0.065,0.1025 0.18125,0.155 0.34875,0.155 0.19125,0 0.32875,-0.0575 0.41375,-0.17 0.085,-0.11375 0.12875,-0.29875 0.12875,-0.55875 l 0,-1.33375 0.69875,0 0,2.545 -0.665,0 z m 1.63625,-0.6325 0.12125,0.1325 0.17,0.0762 0.19875,0.025 0.155,-0.0175 0.1475,-0.0537 0.11125,-0.0987 0.0437,-0.155 c 0,-0.105 -0.07,-0.18375 -0.20875,-0.23625 -0.14,-0.0525 -0.33375,-0.105 -0.58375,-0.1575 l -0.2975,-0.0813 -0.25875,-0.12375 -0.18125,-0.19125 -0.07,-0.28375 c 0,-0.16375 0.0325,-0.2975 0.0962,-0.40375 l 0.25375,-0.2475 c 0.105,-0.06 0.2225,-0.10375 0.35375,-0.12875 0.13125,-0.0238 0.26625,-0.0362 0.405,-0.0362 0.1375,0 0.27125,0.0125 0.4,0.0387 0.13,0.0263 0.24625,0.0713 0.3475,0.13375 l 0.25375,0.2475 c 0.0675,0.10375 0.1075,0.235 0.12,0.3925 l -0.665,0 c -0.009,-0.135 -0.06,-0.22625 -0.15125,-0.27375 -0.0925,-0.0475 -0.20125,-0.0712 -0.325,-0.0712 l -0.12875,0.007 -0.125,0.0312 -0.0962,0.0725 -0.0388,0.125 0.0688,0.1525 0.17875,0.0962 0.25375,0.0663 0.29125,0.0638 0.2975,0.0837 0.2575,0.13 0.1825,0.2025 c 0.0462,0.08 0.0688,0.17875 0.0688,0.2975 0,0.1675 -0.0338,0.3075 -0.1,0.42125 -0.0675,0.11375 -0.155,0.20375 -0.26375,0.27375 -0.10875,0.0687 -0.2325,0.11625 -0.37125,0.145 -0.14,0.0275 -0.28125,0.0412 -0.42625,0.0412 -0.1475,0 -0.2925,-0.015 -0.43375,-0.0437 -0.14,-0.03 -0.26625,-0.08 -0.375,-0.14875 -0.11,-0.0688 -0.20125,-0.15875 -0.27125,-0.2725 -0.0712,-0.11375 -0.11,-0.255 -0.11625,-0.42625 l 0.665,0 0.0463,0.195 m 5.45625,-1.945 -0.1725,-0.19375 -0.23375,-0.13 -0.2725,-0.0475 c -0.17375,0 -0.3225,0.0337 -0.4425,0.10125 -0.1225,0.0675 -0.22125,0.1575 -0.29625,0.27 -0.0763,0.11375 -0.13125,0.2425 -0.165,0.38625 -0.0337,0.145 -0.0512,0.29375 -0.0512,0.44875 0,0.1475 0.0175,0.29125 0.0512,0.43125 0.0337,0.13875 0.0888,0.26375 0.165,0.375 0.075,0.1125 0.17375,0.20125 0.29625,0.26875 0.12,0.0675 0.26875,0.10125 0.4425,0.10125 0.23625,0 0.42,-0.0725 0.55375,-0.21625 0.1325,-0.145 0.21375,-0.335 0.24375,-0.57125 l 0.7475,0 c -0.0188,0.22 -0.07,0.4175 -0.1525,0.59625 -0.0825,0.17625 -0.19,0.3275 -0.325,0.4525 -0.135,0.12375 -0.2925,0.21875 -0.4725,0.285 -0.18,0.065 -0.37875,0.0987 -0.595,0.0987 -0.27,0 -0.51125,-0.0475 -0.72625,-0.14125 -0.215,-0.0925 -0.39625,-0.22125 -0.54375,-0.385 -0.1475,-0.165 -0.26125,-0.3575 -0.34,-0.57875 -0.0787,-0.22125 -0.11875,-0.46 -0.11875,-0.71625 0,-0.2625 0.04,-0.50625 0.11875,-0.73125 0.0788,-0.225 0.1925,-0.42125 0.34,-0.58875 0.1475,-0.1675 0.32875,-0.2975 0.54375,-0.3925 0.215,-0.095 0.45625,-0.14375 0.72625,-0.14375 0.19375,0 0.37625,0.0288 0.54875,0.0838 0.1725,0.0563 0.32625,0.1375 0.4625,0.24375 0.13625,0.10625 0.2475,0.23875 0.33625,0.39625 0.0888,0.15875 0.145,0.33875 0.1675,0.54125 l -0.7475,0 -0.0888,-0.24375 m 1.82125,1.605 0.10125,0.26125 0.18875,0.18375 c 0.0788,0.0462 0.1775,0.0688 0.29625,0.0688 0.1175,0 0.2175,-0.0225 0.2975,-0.0688 l 0.19125,-0.18375 0.10125,-0.26125 0.03,-0.2975 -0.03,-0.30125 -0.10125,-0.26 -0.19125,-0.185 c -0.08,-0.0475 -0.18,-0.0713 -0.2975,-0.0713 -0.11875,0 -0.2175,0.0238 -0.29625,0.0713 l -0.18875,0.185 -0.10125,0.26 -0.03,0.30125 0.03,0.2975 m -0.635,-0.85125 c 0.0625,-0.165 0.15125,-0.30625 0.26625,-0.42375 0.11375,-0.11625 0.2525,-0.20625 0.4125,-0.27125 0.16125,-0.0638 0.34125,-0.095 0.5425,-0.095 0.2,0 0.38125,0.0312 0.54375,0.095 0.1625,0.065 0.3,0.155 0.415,0.27125 0.115,0.1175 0.20375,0.25875 0.26625,0.42375 0.0625,0.16625 0.0937,0.35 0.0937,0.55375 0,0.20375 -0.0312,0.38625 -0.0937,0.55125 -0.0625,0.16375 -0.15125,0.30375 -0.26625,0.42125 -0.115,0.115 -0.2525,0.205 -0.415,0.2675 -0.1625,0.0613 -0.34375,0.0937 -0.54375,0.0937 -0.20125,0 -0.38125,-0.0325 -0.5425,-0.0937 -0.16,-0.0625 -0.29875,-0.1525 -0.4125,-0.2675 -0.115,-0.1175 -0.20375,-0.2575 -0.26625,-0.42125 -0.0625,-0.165 -0.0937,-0.3475 -0.0937,-0.55125 0,-0.20375 0.0312,-0.3875 0.0937,-0.55375 m 3.52375,-0.72125 0,0.34375 0.01,0 c 0.0925,-0.13125 0.2025,-0.2325 0.3325,-0.30375 0.13,-0.0725 0.27875,-0.10875 0.445,-0.10875 0.16125,0 0.30875,0.0312 0.44125,0.0937 0.1325,0.0625 0.23375,0.1725 0.3025,0.32875 0.075,-0.11125 0.1775,-0.20875 0.3075,-0.295 0.13,-0.085 0.2825,-0.1275 0.46,-0.1275 0.135,0 0.26,0.0163 0.37375,0.0487 0.115,0.0325 0.21375,0.085 0.29625,0.1575 0.0813,0.0725 0.145,0.1675 0.19125,0.2825 0.0463,0.1175 0.0688,0.2575 0.0688,0.4225 l 0,1.7025 -0.69875,0 0,-1.4425 -0.01,-0.24125 -0.0537,-0.1975 -0.13,-0.1325 -0.23375,-0.0487 -0.23875,0.0562 -0.1425,0.1475 -0.07,0.2075 -0.0163,0.23375 0,1.4175 -0.7,0 0,-1.4275 -0.004,-0.22375 -0.0425,-0.20375 -0.1225,-0.15125 -0.25375,-0.0562 -0.13125,0.0225 -0.1575,0.0838 -0.13,0.17625 c -0.0362,0.0775 -0.0538,0.17875 -0.0538,0.30375 l 0,1.47625 -0.69875,0 0,-2.545 0.65875,0 z m 4.3125,0 0,0.34375 0.01,0 c 0.0913,-0.13125 0.20125,-0.2325 0.33125,-0.30375 0.13,-0.0725 0.27875,-0.10875 0.44625,-0.10875 0.16,0 0.3075,0.0312 0.44,0.0937 0.13375,0.0625 0.23375,0.1725 0.3025,0.32875 0.075,-0.11125 0.1775,-0.20875 0.30875,-0.295 0.12875,-0.085 0.2825,-0.1275 0.46,-0.1275 0.13375,0 0.2575,0.0163 0.3725,0.0487 0.11625,0.0325 0.21375,0.085 0.29625,0.1575 0.0813,0.0725 0.14625,0.1675 0.19125,0.2825 0.0462,0.1175 0.07,0.2575 0.07,0.4225 l 0,1.7025 -0.69875,0 0,-1.4425 -0.0112,-0.24125 -0.0538,-0.1975 -0.13,-0.1325 -0.23375,-0.0487 -0.23875,0.0562 -0.1425,0.1475 -0.0687,0.2075 -0.0175,0.23375 0,1.4175 -0.69875,0 0,-1.4275 -0.005,-0.22375 -0.0425,-0.20375 -0.1225,-0.15125 -0.2525,-0.0562 -0.13125,0.0225 -0.1575,0.0838 -0.13125,0.17625 c -0.035,0.0775 -0.0537,0.17875 -0.0537,0.30375 l 0,1.47625 -0.69875,0 0,-2.545 0.66,0 z m 5.355,2.545 0,-0.355 -0.015,0 c -0.0888,0.14875 -0.20375,0.255 -0.345,0.32 -0.14,0.0663 -0.285,0.0987 -0.4325,0.0987 -0.1875,0 -0.34125,-0.025 -0.46,-0.0738 -0.12,-0.05 -0.215,-0.11875 -0.28375,-0.20875 -0.0687,-0.0913 -0.1175,-0.2 -0.145,-0.33 -0.0275,-0.13 -0.0412,-0.27375 -0.0412,-0.43125 l 0,-1.565 0.69875,0 0,1.4375 c 0,0.21 0.0325,0.36625 0.0975,0.47 0.0663,0.1025 0.1825,0.155 0.35,0.155 0.19125,0 0.3275,-0.0575 0.41375,-0.17 0.085,-0.11375 0.1275,-0.29875 0.1275,-0.55875 l 0,-1.33375 0.69875,0 0,2.545 -0.66375,0 z m 1.7125,-2.545 0,0.35375 0.015,0 c 0.0888,-0.1475 0.2025,-0.255 0.34375,-0.32125 0.14125,-0.0675 0.28625,-0.10125 0.43375,-0.10125 0.1875,0 0.34,0.025 0.46,0.0763 0.12,0.0512 0.21375,0.12125 0.2825,0.21125 0.07,0.09 0.1175,0.2 0.14625,0.33 0.0275,0.13 0.0412,0.27375 0.0412,0.43125 l 0,1.565 -0.69875,0 0,-1.4375 c 0,-0.21 -0.0325,-0.36625 -0.0987,-0.47 -0.065,-0.10375 -0.18125,-0.155 -0.34875,-0.155 -0.19,0 -0.32875,0.0562 -0.41375,0.16875 -0.085,0.11375 -0.12875,0.3 -0.12875,0.56 l 0,1.33375 -0.69875,0 0,-2.545 0.665,0 z m 2.12625,-0.97 0.7,0 0,0.57625 -0.7,0 0,-0.57625 z m 0.69875,3.515 -0.7,0 0,-2.545 0.7,0 0,2.545 z m 1.80125,-2.545 0,0.4675 -0.51125,0 0,1.26 c 0,0.11875 0.0188,0.1975 0.0587,0.23625 0.0387,0.04 0.1175,0.0587 0.23625,0.0587 l 0.11375,-0.005 0.1025,-0.0138 0,0.54125 -0.19625,0.02 -0.2125,0.005 -0.3075,-0.0225 -0.255,-0.0863 -0.175,-0.1825 c -0.0425,-0.0788 -0.065,-0.18125 -0.065,-0.31 l 0,-1.50125 -0.4225,0 0,-0.4675 0.4225,0 0,-0.7625 0.7,0 0,0.7625 0.51125,0 z m 1.1275,3.3025 c -0.135,0.0888 -0.3225,0.13375 -0.56125,0.13375 l -0.21375,-0.009 -0.21375,-0.0175 0,-0.575 0.20125,0.02 0.20625,0.005 0.205,-0.10875 0.0663,-0.20625 -0.03,-0.1575 -0.89,-2.3875 0.7425,0 0.57625,1.7425 0.01,0 0.55625,-1.7425 0.7225,0 -1.0625,2.86 c -0.075,0.20625 -0.18,0.35375 -0.315,0.4425 m 2.48625,-3.6225 0,-0.65 2.87875,0 0,0.65 -1.05375,0 0,2.865 -0.7725,0 0,-2.865 -1.0525,0 z m 4.0525,0.915 c -0.0838,-0.0913 -0.21125,-0.1375 -0.38125,-0.1375 l -0.2775,0.0575 -0.17875,0.13875 -0.0925,0.1775 -0.0325,0.16875 1.1375,0 c -0.0325,-0.1775 -0.0913,-0.3125 -0.175,-0.405 m -0.79,1.34 c 0.105,0.10125 0.25625,0.15125 0.4525,0.15125 0.14125,0 0.2625,-0.035 0.365,-0.105 l 0.18625,-0.22375 0.61625,0 c -0.0987,0.305 -0.25,0.52375 -0.45375,0.655 -0.2025,0.13125 -0.44875,0.19625 -0.73875,0.19625 -0.2,0 -0.37875,-0.0325 -0.54,-0.0962 -0.1625,-0.0638 -0.2975,-0.155 -0.40875,-0.2725 -0.1125,-0.11875 -0.1975,-0.25875 -0.25875,-0.42375 -0.0612,-0.16375 -0.0912,-0.34375 -0.0912,-0.54125 0,-0.19 0.0312,-0.3675 0.0937,-0.53125 0.0625,-0.165 0.15,-0.30625 0.265,-0.42625 0.115,-0.12 0.2525,-0.21375 0.41125,-0.28375 0.16,-0.0688 0.33625,-0.1025 0.52875,-0.1025 0.2175,0 0.40625,0.0412 0.5675,0.125 0.16,0.0838 0.2925,0.19625 0.395,0.3375 0.10375,0.14125 0.17875,0.3025 0.225,0.4825 0.045,0.18 0.0612,0.36875 0.0487,0.56625 l -1.83625,0 c 0.01,0.22625 0.0675,0.39 0.1725,0.4925 m 2.6475,0.61 -0.69875,0 0,-3.515 0.69875,0 0,3.515 z m 1.9425,-1.95 c -0.0837,-0.0913 -0.21125,-0.1375 -0.38125,-0.1375 l -0.27875,0.0575 -0.1775,0.13875 -0.0925,0.1775 -0.0325,0.16875 1.13625,0 c -0.0325,-0.1775 -0.0913,-0.3125 -0.17375,-0.405 m -0.79,1.34 c 0.105,0.10125 0.25625,0.15125 0.4525,0.15125 0.14125,0 0.2625,-0.035 0.36375,-0.105 l 0.1875,-0.22375 0.61625,0 c -0.0987,0.305 -0.25,0.52375 -0.45375,0.655 -0.20375,0.13125 -0.45,0.19625 -0.73875,0.19625 -0.2,0 -0.38,-0.0325 -0.54125,-0.0962 -0.16,-0.0638 -0.2975,-0.155 -0.40875,-0.2725 -0.11,-0.11875 -0.1975,-0.25875 -0.2575,-0.42375 -0.0612,-0.16375 -0.0913,-0.34375 -0.0913,-0.54125 0,-0.19 0.03,-0.3675 0.0937,-0.53125 0.0613,-0.165 0.15,-0.30625 0.26625,-0.42625 0.11375,-0.12 0.25125,-0.21375 0.41,-0.28375 0.15875,-0.0688 0.335,-0.1025 0.52875,-0.1025 0.2175,0 0.405,0.0412 0.56625,0.125 0.16125,0.0838 0.2925,0.19625 0.39625,0.3375 0.10375,0.14125 0.1775,0.3025 0.22375,0.4825 0.0462,0.18 0.0625,0.36875 0.05,0.56625 l -1.83625,0 c 0.01,0.22625 0.0675,0.39 0.1725,0.4925 m 2.56,0.61 -0.87125,-2.545 0.7325,0 0.53625,1.7375 0.01,0 0.53625,-1.7375 0.69375,0 -0.86,2.545 -0.7775,0 z m 1.80125,-3.515 0.69875,0 0,0.57625 -0.69875,0 0,-0.57625 z m 0.69875,3.515 -0.69875,0 0,-2.545 0.69875,0 0,2.545 z m 0.99125,-0.6325 0.12125,0.1325 0.17,0.0762 0.19875,0.025 0.155,-0.0175 0.1475,-0.0537 0.11125,-0.0987 0.0437,-0.155 c 0,-0.105 -0.07,-0.18375 -0.20875,-0.23625 -0.14,-0.0525 -0.33375,-0.105 -0.58375,-0.1575 l -0.2975,-0.0813 -0.25875,-0.12375 -0.1825,-0.19125 -0.0675,-0.28375 c 0,-0.16375 0.0312,-0.2975 0.095,-0.40375 l 0.25375,-0.2475 c 0.105,-0.06 0.22375,-0.10375 0.355,-0.12875 0.13,-0.0238 0.265,-0.0362 0.4025,-0.0362 0.13875,0 0.27125,0.0125 0.40125,0.0387 0.13,0.0263 0.245,0.0713 0.3475,0.13375 l 0.25375,0.2475 c 0.0663,0.10375 0.1075,0.235 0.12,0.3925 l -0.665,0 c -0.009,-0.135 -0.06,-0.22625 -0.1525,-0.27375 -0.0913,-0.0475 -0.2,-0.0712 -0.325,-0.0712 l -0.1275,0.007 -0.125,0.0312 -0.0962,0.0725 -0.04,0.125 0.07,0.1525 0.17875,0.0962 0.25375,0.0663 0.29,0.0638 0.29875,0.0837 0.2575,0.13 0.1825,0.2025 c 0.0463,0.08 0.0688,0.17875 0.0688,0.2975 0,0.1675 -0.0337,0.3075 -0.1,0.42125 -0.0675,0.11375 -0.155,0.20375 -0.26375,0.27375 -0.10875,0.0687 -0.2325,0.11625 -0.3725,0.145 -0.13875,0.0275 -0.28125,0.0412 -0.425,0.0412 -0.1475,0 -0.2925,-0.015 -0.4325,-0.0437 -0.1425,-0.03 -0.2675,-0.08 -0.3775,-0.14875 -0.11,-0.0688 -0.2,-0.15875 -0.27,-0.2725 -0.0713,-0.11375 -0.10875,-0.255 -0.11625,-0.42625 l 0.665,0 0.0462,0.195 m 1.9275,-2.8825 0.69875,0 0,0.57625 -0.69875,0 0,-0.57625 z m 0.69875,3.515 -0.7,0 0,-2.545 0.7,0 0,2.545 z m 1.0525,-0.9725 0.10125,0.26125 0.19,0.18375 c 0.0775,0.0462 0.17625,0.0688 0.295,0.0688 0.1175,0 0.2175,-0.0225 0.2975,-0.0688 l 0.1925,-0.18375 0.1,-0.26125 0.03,-0.2975 -0.03,-0.30125 -0.1,-0.26 -0.1925,-0.185 c -0.08,-0.0475 -0.18,-0.0713 -0.2975,-0.0713 -0.11875,0 -0.2175,0.0238 -0.295,0.0713 l -0.19,0.185 -0.10125,0.26 -0.0288,0.30125 0.0288,0.2975 m -0.63375,-0.85125 c 0.0612,-0.165 0.15,-0.30625 0.265,-0.42375 0.115,-0.11625 0.2525,-0.20625 0.41375,-0.27125 0.16,-0.0638 0.34125,-0.095 0.54125,-0.095 0.2,0 0.38125,0.0312 0.54375,0.095 0.1625,0.065 0.30125,0.155 0.41625,0.27125 0.11375,0.1175 0.2025,0.25875 0.265,0.42375 0.0625,0.16625 0.0937,0.35 0.0937,0.55375 0,0.20375 -0.0312,0.38625 -0.0937,0.55125 -0.0625,0.16375 -0.15125,0.30375 -0.265,0.42125 -0.115,0.115 -0.25375,0.205 -0.41625,0.2675 -0.1625,0.0613 -0.34375,0.0937 -0.54375,0.0937 -0.2,0 -0.38125,-0.0325 -0.54125,-0.0937 -0.16125,-0.0625 -0.29875,-0.1525 -0.41375,-0.2675 -0.115,-0.1175 -0.20375,-0.2575 -0.265,-0.42125 -0.0638,-0.165 -0.095,-0.3475 -0.095,-0.55125 0,-0.20375 0.0312,-0.3875 0.095,-0.55375 m 3.50875,-0.72125 0,0.35375 0.015,0 c 0.0888,-0.1475 0.20375,-0.255 0.34375,-0.32125 0.14125,-0.0675 0.285,-0.10125 0.43375,-0.10125 0.18625,0 0.34125,0.025 0.46,0.0763 0.12,0.0512 0.21375,0.12125 0.2825,0.21125 0.07,0.09 0.1175,0.2 0.14625,0.33 0.0275,0.13 0.0412,0.27375 0.0412,0.43125 l 0,1.565 -0.69875,0 0,-1.4375 c 0,-0.21 -0.0325,-0.36625 -0.0987,-0.47 -0.065,-0.10375 -0.1825,-0.155 -0.34875,-0.155 -0.19125,0 -0.32875,0.0562 -0.41375,0.16875 -0.085,0.11375 -0.12875,0.3 -0.12875,0.56 l 0,1.33375 -0.69875,0 0,-2.545 0.665,0 z"
       style="fill:#e76801;fill-opacity:1;fill-rule:nonzero;stroke:none"
       id="path84"
       inkscape:connector-curvature="0" />
    <path
       d="m 326.59473,482.4428 -5.375,0 0,-24.44375 5.375,0 0,24.44375 z m 18.69375,-17.9225 c -0.32,-0.51375 -0.72,-0.96375 -1.19875,-1.3525 -0.47875,-0.3875 -1.02125,-0.69 -1.62625,-0.9075 -0.605,-0.21625 -1.23875,-0.325 -1.9,-0.325 -1.21,0 -2.2375,0.235 -3.08125,0.7025 -0.845,0.46625 -1.52875,1.095 -2.05375,1.8825 -0.525,0.7875 -0.9075,1.68375 -1.1475,2.6875 -0.23875,1.005 -0.35875,2.0425 -0.35875,3.115 0,1.0275 0.12,2.02625 0.35875,2.99625 0.24,0.97 0.6225,1.8425 1.1475,2.61875 0.525,0.77625 1.20875,1.39875 2.05375,1.86625 0.84375,0.4675 1.87125,0.70125 3.08125,0.70125 1.64375,0 2.9275,-0.50125 3.85125,-1.50625 0.925,-1.00375 1.49,-2.3275 1.695,-3.97125 l 5.20375,0 c -0.13625,1.53 -0.49125,2.91 -1.06125,4.1425 -0.57125,1.2325 -1.32375,2.2825 -2.25875,3.15 -0.93625,0.8675 -2.0325,1.52875 -3.2875,1.985 -1.255,0.45625 -2.63625,0.685 -4.1425,0.685 -1.8725,0 -3.555,-0.325 -5.05,-0.975 -1.495,-0.65125 -2.75625,-1.54625 -3.7825,-2.68875 -1.0275,-1.14 -1.815,-2.48125 -2.3625,-4.0225 -0.5475,-1.54 -0.82125,-3.2 -0.82125,-4.98125 0,-1.825 0.27375,-3.52 0.82125,-5.08375 0.5475,-1.56375 1.335,-2.92625 2.3625,-4.09125 1.02625,-1.165 2.2875,-2.07625 3.7825,-2.73875 1.495,-0.66125 3.1775,-0.9925 5.05,-0.9925 1.34625,0 2.61875,0.19375 3.8175,0.5825 1.19875,0.3875 2.27125,0.9525 3.2175,1.69375 0.9475,0.74125 1.73,1.66 2.34625,2.75625 0.61625,1.095 1.00375,2.35125 1.16375,3.765 l -5.20375,0 c -0.0925,-0.615 -0.2975,-1.18 -0.61625,-1.69375 m 6.05875,-2.00375 0,-4.5175 20.02875,0 0,4.5175 -7.32625,0 0,19.92625 -5.375,0 0,-19.92625 -7.3275,0 z m 29.17,19.92625 -7.90875,-24.44375 5.5125,0 5.44375,17.18625 0.0675,0 5.5125,-17.18625 5.54625,0 -8.11375,24.44375 -6.06,0 z"
       style="fill:#e76801;fill-opacity:1;fill-rule:nonzero;stroke:none"
       id="path86"
       inkscape:connector-curvature="0" />
  </g>
</svg>
