<svg id="d" version="1.1" viewBox="0 0 1000 1000" xmlns="http://www.w3.org/2000/svg" xmlns:xlink="http://www.w3.org/1999/xlink">
 <link id="e" href="" rel="stylesheet" type="text/css"/>
 <style id="f" type="text/css"/>
 <defs id="g">
  <filter id="b" color-interpolation-filters="sRGB">
   <feFlood id="h" flood-color="rgb(0,0,0)" flood-opacity=".45" result="flood"/>
   <feComposite id="i" in="flood" in2="SourceGraphic" operator="in" result="composite1"/>
   <feGaussianBlur id="j" result="blur" stdDeviation="7"/>
   <feOffset id="k" dx="7" dy="7" result="offset"/>
   <feComposite id="l" in="SourceGraphic" in2="offset" result="composite2"/>
  </filter>
  <filter id="c" color-interpolation-filters="sRGB">
   <feFlood id="m" flood-color="rgb(0,0,0)" flood-opacity=".4" result="flood"/>
   <feComposite id="n" in="flood" in2="SourceGraphic" operator="in" result="composite1"/>
   <feGaussianBlur id="o" result="blur" stdDeviation="8"/>
   <feOffset id="p" dx="4" dy="11" result="offset"/>
   <feComposite id="q" in="SourceGraphic" in2="offset" result="composite2"/>
  </filter>
  <linearGradient id="a" x1="178.95" x2="743.37" y1="1991.5" y2="2464.7" gradientUnits="userSpaceOnUse">
   <stop id="r" stop-color="#06b0fe" offset="0"/>
   <stop id="s" stop-color="#0283fa" offset=".25"/>
   <stop id="t" stop-color="#0164f6" offset=".5"/>
   <stop id="u" stop-color="#0052f4" offset=".75"/>
   <stop id="v" stop-color="#0047f3" offset="1"/>
  </linearGradient>
 </defs>
 <g id="w" transform="translate(-23.416 -1662.8)">
  <g id="x" transform="translate(9.1169 1105.3)">
   <g id="y">
    <circle id="z" transform="matrix(1.3508 0 0 1.3508 -94.487 -1960.7)" cx="450.69" cy="2234.4" r="370.16" fill="url(#a)"/>
    <path id="aa" transform="matrix(1.2644 0 0 1.2644 -91.912 -1320.3)" d="m562.09 1694c-77.563 0-137.11 46.605-163.09 98v-91l-117 69v290.5h117v-90.5c21.802 43.811 78.73 98.094 162.62 98.094 107.59 0 186.44-87.222 186.44-185.06 0-116.48-92.998-189.03-185.97-189.03zm0.625 117.03c37.4 0 68.906 30.907 68.906 69.813 0 35.706-27.902 70.156-68.844 70.156-40.716 0-69.969-33.399-69.969-70.031 0-34.669 26.701-69.938 69.906-69.938z" fill="#fff" filter="url(#c)"/>
    <path id="ab" transform="matrix(1.2644 0 0 1.2644 -91.912 -1320.3)" d="m213 1889v-117.28c26.456 0 69-19.562 69-70.721h117c0 106.13-83.701 188-186 188z" fill="#fff" filter="url(#b)"/>
   </g>
  </g>
 </g>
</svg>
