<svg height="251pt" viewBox="0 0 250 251" width="250pt" xmlns="http://www.w3.org/2000/svg"><g fill="#94c947"><path d="m0 0h250v251h-250zm44.5 159.79c-5.36 1.11-10.55 3.38-14.68 7.02-15.46 13.62-14.32 41.76 2.56 53.78 2.53 1.62 5.37 3.74 8.56 2.92 11.86-2.3 23.83-4.06 35.85-5.24 2.78 0 4.47-2.46 5.97-4.45 6.2-8.13 6.88-18.99 5.6-28.78-1.23-8.98-6.69-17.36-14.73-21.67-8.81-4.77-19.41-5.57-29.13-3.58m69.96 8.31c.01-2.62-.09-5.23-.14-7.85-7.99.19-15.97.05-23.95.08 0 18.88.04 37.75-.01 56.63 8.33-.41 16.66-.64 24.98-1.05-.03-8.33.01-16.66-.03-24.99-.05-3.15.42-6.54 2.48-9.05 2.65-3.35 7.81-4.13 11.48-2.09 2.86 2.04 3.23 5.91 3.3 9.14.07 9.05-.07 18.1.06 27.14 8.31.07 16.61.52 24.91.9.05-12.3-.15-24.6.02-36.9.13-7.61-3.83-15.44-10.87-18.77-10.55-5.08-25.06-2.98-32.23 6.81m55.36-1.29c-13.81 11.84-15.18 35-3.44 48.72 1 1.05 1.92 2.64 3.56 2.65 13.76 1.42 27.5 3.25 41.02 6.2 8.77-3.37 15.01-11.17 17.78-19.98-7.67-.52-15.39-.21-23.07-.17-3.61 7.29-14.96 8.34-20.16 2.27-1.97-2.24-2.72-5.21-3.24-8.07 15.78-.1 31.56 0 47.35-.05-.46-9.72-1.7-20.12-7.87-28.05-5.31-7.07-14.12-10.43-22.68-11.31-10.23-1.36-21.38.79-29.25 7.79z"/><path d="m187.04 177.1c4.6-3.15 11.82-3.24 15.6 1.27 1.9 1.81 2.4 4.46 2.98 6.91-7.78.03-15.56.02-23.34.01.97-3.01 2.01-6.31 4.76-8.19z"/><path d="m50.44 177.52c3.84-1.39 8.73-.62 11.22 2.85 2.82 3.9 2.95 8.96 2.89 13.59-.14 4.14-.71 8.7-3.66 11.86-4.32 4.33-12.68 3.14-15.23-2.57-2.32-5.42-2.41-11.62-1.3-17.35.64-3.48 2.55-7.14 6.08-8.38z"/></g><path d="m44.5 159.79c9.72-1.99 20.32-1.19 29.13 3.58 8.04 4.31 13.5 12.69 14.73 21.67 1.28 9.79.6 20.65-5.6 28.78-1.5 1.99-3.19 4.45-5.97 4.45-12.02 1.18-23.99 2.94-35.85 5.24-3.19.82-6.03-1.3-8.56-2.92-16.88-12.02-18.02-40.16-2.56-53.78 4.13-3.64 9.32-5.91 14.68-7.02m5.94 17.73c-3.53 1.24-5.44 4.9-6.08 8.38-1.11 5.73-1.02 11.93 1.3 17.35 2.55 5.71 10.91 6.9 15.23 2.57 2.95-3.16 3.52-7.72 3.66-11.86.06-4.63-.07-9.69-2.89-13.59-2.49-3.47-7.38-4.24-11.22-2.85z" fill="#fff"/><path d="m114.46 168.1c7.17-9.79 21.68-11.89 32.23-6.81 7.04 3.33 11 11.16 10.87 18.77-.17 12.3.03 24.6-.02 36.9-8.3-.38-16.6-.83-24.91-.9-.13-9.04.01-18.09-.06-27.14-.07-3.23-.44-7.1-3.3-9.14-3.67-2.04-8.83-1.26-11.48 2.09-2.06 2.51-2.53 5.9-2.48 9.05.04 8.33 0 16.66.03 24.99-8.32.41-16.65.64-24.98 1.05.05-18.88.01-37.75.01-56.63 7.98-.03 15.96.11 23.95-.08.05 2.62.15 5.23.14 7.85z" fill="#fff"/><path d="m169.82 166.81c7.87-7 19.02-9.15 29.25-7.79 8.56.88 17.37 4.24 22.68 11.31 6.17 7.93 7.41 18.33 7.87 28.05-15.79.05-31.57-.05-47.35.05.52 2.86 1.27 5.83 3.24 8.07 5.2 6.07 16.55 5.02 20.16-2.27 7.68-.04 15.4-.35 23.07.17-2.77 8.81-9.01 16.61-17.78 19.98-13.52-2.95-27.26-4.78-41.02-6.2-1.64-.01-2.56-1.6-3.56-2.65-11.74-13.72-10.37-36.88 3.44-48.72m17.22 10.29c-2.75 1.88-3.79 5.18-4.76 8.19 7.78.01 15.56.02 23.34-.01-.58-2.45-1.08-5.1-2.98-6.91-3.78-4.51-11-4.42-15.6-1.27z" fill="#fff"/></svg>