<?xml version="1.0" encoding="UTF-8" ?>
<!DOCTYPE svg PUBLIC "-//W3C//DTD SVG 1.1//EN" "http://www.w3.org/Graphics/SVG/1.1/DTD/svg11.dtd">
<svg width="250pt" height="251pt" viewBox="0 0 250 251" version="1.1" xmlns="http://www.w3.org/2000/svg">
<g id="#94c947ff">
<path fill="#94c947" opacity="1.00" d=" M 0.00 0.00 L 250.00 0.00 L 250.00 251.00 L 0.00 251.00 L 0.00 0.00 M 44.50 159.79 C 39.14 160.90 33.95 163.17 29.82 166.81 C 14.36 180.43 15.50 208.57 32.38 220.59 C 34.91 222.21 37.75 224.33 40.94 223.51 C 52.80 221.21 64.77 219.45 76.79 218.27 C 79.57 218.27 81.26 215.81 82.76 213.82 C 88.96 205.69 89.64 194.83 88.36 185.04 C 87.13 176.06 81.67 167.68 73.63 163.37 C 64.82 158.60 54.22 157.80 44.50 159.79 M 114.46 168.10 C 114.47 165.48 114.37 162.87 114.32 160.25 C 106.33 160.44 98.35 160.30 90.37 160.33 C 90.37 179.21 90.41 198.08 90.36 216.96 C 98.69 216.55 107.02 216.32 115.34 215.91 C 115.31 207.58 115.35 199.25 115.31 190.92 C 115.26 187.77 115.73 184.38 117.79 181.87 C 120.44 178.52 125.60 177.74 129.27 179.78 C 132.13 181.82 132.50 185.69 132.57 188.92 C 132.64 197.97 132.50 207.02 132.63 216.06 C 140.94 216.13 149.24 216.58 157.54 216.96 C 157.59 204.66 157.39 192.36 157.56 180.06 C 157.69 172.45 153.73 164.62 146.69 161.29 C 136.14 156.21 121.63 158.31 114.46 168.10 M 169.82 166.81 C 156.01 178.65 154.64 201.81 166.38 215.53 C 167.38 216.58 168.30 218.17 169.94 218.18 C 183.70 219.60 197.44 221.43 210.96 224.38 C 219.73 221.01 225.97 213.21 228.74 204.40 C 221.07 203.88 213.35 204.19 205.67 204.23 C 202.06 211.52 190.71 212.57 185.51 206.50 C 183.54 204.26 182.79 201.29 182.27 198.43 C 198.05 198.33 213.83 198.43 229.62 198.38 C 229.16 188.66 227.92 178.26 221.75 170.33 C 216.44 163.26 207.63 159.90 199.07 159.02 C 188.84 157.66 177.69 159.81 169.82 166.81 Z" />
<path fill="#94c947" opacity="1.00" d=" M 187.04 177.10 C 191.64 173.95 198.86 173.86 202.64 178.37 C 204.54 180.18 205.04 182.83 205.62 185.28 C 197.84 185.31 190.06 185.30 182.28 185.29 C 183.25 182.28 184.29 178.98 187.04 177.10 Z" />
<path fill="#94c947" opacity="1.00" d=" M 50.44 177.52 C 54.28 176.13 59.17 176.90 61.66 180.37 C 64.48 184.27 64.61 189.33 64.55 193.96 C 64.41 198.10 63.84 202.66 60.89 205.82 C 56.57 210.15 48.21 208.96 45.66 203.25 C 43.34 197.83 43.25 191.63 44.36 185.90 C 45.00 182.42 46.91 178.76 50.44 177.52 Z" />
</g>
<g id="#ffffffff">
<path fill="#ffffff" opacity="1.00" d=" M 44.50 159.79 C 54.22 157.80 64.82 158.60 73.63 163.37 C 81.67 167.68 87.13 176.06 88.36 185.04 C 89.64 194.83 88.96 205.69 82.76 213.82 C 81.26 215.81 79.57 218.27 76.79 218.27 C 64.77 219.45 52.80 221.21 40.94 223.51 C 37.75 224.33 34.91 222.21 32.38 220.59 C 15.50 208.57 14.36 180.43 29.82 166.81 C 33.95 163.17 39.14 160.90 44.50 159.79 M 50.44 177.52 C 46.91 178.76 45.00 182.42 44.36 185.90 C 43.25 191.63 43.34 197.83 45.66 203.25 C 48.21 208.96 56.57 210.15 60.89 205.82 C 63.84 202.66 64.41 198.10 64.55 193.96 C 64.61 189.33 64.48 184.27 61.66 180.37 C 59.17 176.90 54.28 176.13 50.44 177.52 Z" />
<path fill="#ffffff" opacity="1.00" d=" M 114.46 168.10 C 121.63 158.31 136.14 156.21 146.69 161.29 C 153.73 164.62 157.69 172.45 157.56 180.06 C 157.39 192.36 157.59 204.66 157.54 216.96 C 149.24 216.58 140.94 216.13 132.63 216.06 C 132.50 207.02 132.64 197.97 132.57 188.92 C 132.50 185.69 132.13 181.82 129.27 179.78 C 125.60 177.74 120.44 178.52 117.79 181.87 C 115.73 184.38 115.26 187.77 115.31 190.92 C 115.35 199.25 115.31 207.58 115.34 215.91 C 107.02 216.32 98.69 216.55 90.36 216.96 C 90.41 198.08 90.37 179.21 90.37 160.33 C 98.35 160.30 106.33 160.44 114.32 160.25 C 114.37 162.87 114.47 165.48 114.46 168.10 Z" />
<path fill="#ffffff" opacity="1.00" d=" M 169.82 166.81 C 177.69 159.81 188.84 157.66 199.07 159.02 C 207.63 159.90 216.44 163.26 221.75 170.33 C 227.92 178.26 229.16 188.66 229.62 198.38 C 213.83 198.43 198.05 198.33 182.27 198.43 C 182.79 201.29 183.54 204.26 185.51 206.50 C 190.71 212.57 202.06 211.52 205.67 204.23 C 213.35 204.19 221.07 203.88 228.74 204.40 C 225.97 213.21 219.73 221.01 210.96 224.38 C 197.44 221.43 183.70 219.60 169.94 218.18 C 168.30 218.17 167.38 216.58 166.38 215.53 C 154.64 201.81 156.01 178.65 169.82 166.81 M 187.04 177.10 C 184.29 178.98 183.25 182.28 182.28 185.29 C 190.06 185.30 197.84 185.31 205.62 185.28 C 205.04 182.83 204.54 180.18 202.64 178.37 C 198.86 173.86 191.64 173.95 187.04 177.10 Z" />
</g>
</svg>
