<?xml version="1.0" encoding="UTF-8" standalone="no"?>
<svg
   xmlns:dc="http://purl.org/dc/elements/1.1/"
   xmlns:cc="http://creativecommons.org/ns#"
   xmlns:rdf="http://www.w3.org/1999/02/22-rdf-syntax-ns#"
   xmlns:svg="http://www.w3.org/2000/svg"
   xmlns="http://www.w3.org/2000/svg"
   xmlns:sodipodi="http://sodipodi.sourceforge.net/DTD/sodipodi-0.dtd"
   xmlns:inkscape="http://www.inkscape.org/namespaces/inkscape"
   width="210.68716pt"
   height="65.763489pt"
   viewBox="0 0 210.68716 65.763489"
   version="1.1"
   id="svg2"
   inkscape:version="0.91 r13725"
   sodipodi:docname="One.svg">
  <metadata
     id="metadata22">
    <rdf:RDF>
      <cc:Work
         rdf:about="">
        <dc:format>image/svg+xml</dc:format>
        <dc:type
           rdf:resource="http://purl.org/dc/dcmitype/StillImage" />
        <dc:title></dc:title>
      </cc:Work>
    </rdf:RDF>
  </metadata>
  <defs
     id="defs20" />
  <sodipodi:namedview
     pagecolor="#ffffff"
     bordercolor="#666666"
     borderopacity="1"
     objecttolerance="10"
     gridtolerance="10"
     guidetolerance="10"
     inkscape:pageopacity="0"
     inkscape:pageshadow="2"
     inkscape:window-width="1920"
     inkscape:window-height="1017"
     id="namedview18"
     showgrid="false"
     fit-margin-top="0"
     fit-margin-left="0"
     fit-margin-right="0"
     fit-margin-bottom="0"
     inkscape:zoom="0.75219124"
     inkscape:cx="132.58396"
     inkscape:cy="123.6"
     inkscape:window-x="-8"
     inkscape:window-y="-8"
     inkscape:window-maximized="1"
     inkscape:current-layer="svg2" />
  <path
     style="opacity:1;fill:#94c947;fill-opacity:1"
     inkscape:connector-curvature="0"
     id="path12"
     d="m 25.567166,1.1734911 c 9.72,-1.99000003 20.32,-1.19000003 29.13,3.58 8.04,4.31 13.5,12.6899999 14.73,21.6699999 1.28,9.79 0.6,20.65 -5.6,28.78 -1.5,1.99 -3.19,4.45 -5.97,4.45 -12.02,1.18 -23.99,2.94 -35.85,5.24 -3.19,0.82 -6.03,-1.3 -8.56,-2.92 -16.8800003,-12.02 -18.0200003,-40.16 -2.56,-53.7799999 4.13,-3.64 9.32,-5.91 14.68,-7.02 m 5.94,17.7299999 c -3.53,1.24 -5.44,4.9 -6.08,8.38 -1.11,5.73 -1.02,11.93 1.3,17.35 2.55,5.71 10.91,6.9 15.23,2.57 2.95,-3.16 3.52,-7.72 3.66,-11.86 0.06,-4.63 -0.07,-9.69 -2.89,-13.59 -2.49,-3.47 -7.38,-4.24 -11.22,-2.85 z" />
  <path
     style="opacity:1;fill:#94c947;fill-opacity:1"
     inkscape:connector-curvature="0"
     id="path14"
     d="m 95.527166,9.4834911 c 7.170004,-9.79000003 21.680004,-11.89 32.230004,-6.81 7.04,3.33 11,11.1599999 10.87,18.7699999 -0.17,12.3 0.03,24.6 -0.02,36.9 -8.3,-0.38 -16.6,-0.83 -24.91,-0.9 -0.13,-9.04 0.01,-18.09 -0.06,-27.14 -0.07,-3.23 -0.44,-7.1 -3.3,-9.14 -3.67,-2.04 -8.83,-1.26 -11.480004,2.09 -2.06,2.51 -2.53,5.9 -2.48,9.05 0.04,8.33 0,16.66 0.03,24.99 -8.32,0.41 -16.65,0.64 -24.98,1.05 0.05,-18.88 0.01,-37.75 0.01,-56.6299999 7.98,-0.03 15.96,0.11 23.95,-0.08 0.05,2.62 0.15,5.23 0.14,7.85 z" />
  <path
     style="opacity:1;fill:#94c947;fill-opacity:1"
     inkscape:connector-curvature="0"
     id="path16"
     d="m 150.88717,8.1934911 c 7.87,-7 19.02,-9.15000003 29.25,-7.79000003 8.56,0.88000003 17.37,4.24000003 22.68,11.30999993 6.17,7.93 7.41,18.33 7.87,28.05 -15.79,0.05 -31.57,-0.05 -47.35,0.05 0.52,2.86 1.27,5.83 3.24,8.07 5.2,6.07 16.55,5.02 20.16,-2.27 7.68,-0.04 15.4,-0.35 23.07,0.17 -2.77,8.81 -9.01,16.61 -17.78,19.98 -13.52,-2.95 -27.26,-4.78 -41.02,-6.2 -1.64,-0.01 -2.56,-1.6 -3.56,-2.65 -11.74,-13.72 -10.37,-36.88 3.44,-48.7199999 m 17.22,10.2899999 c -2.75,1.88 -3.79,5.18 -4.76,8.19 7.78,0.01 15.56,0.02 23.34,-0.01 -0.58,-2.45 -1.08,-5.1 -2.98,-6.91 -3.78,-4.51 -11,-4.42 -15.6,-1.27 z" />
</svg>
