<svg height="65.763489pt" viewBox="0 0 210.68716 65.763489" width="210.68716pt" xmlns="http://www.w3.org/2000/svg"><g fill="#94c947"><path d="m25.567166 1.1734911c9.72-1.99000003 20.32-1.19000003 29.13 3.58 8.04 4.31 13.5 12.6899999 14.73 21.6699999 1.28 9.79.6 20.65-5.6 28.78-1.5 1.99-3.19 4.45-5.97 4.45-12.02 1.18-23.99 2.94-35.85 5.24-3.19.82-6.03-1.3-8.56-2.92-16.8800003-12.02-18.0200003-40.16-2.56-53.7799999 4.13-3.64 9.32-5.91 14.68-7.02m5.94 17.7299999c-3.53 1.24-5.44 4.9-6.08 8.38-1.11 5.73-1.02 11.93 1.3 17.35 2.55 5.71 10.91 6.9 15.23 2.57 2.95-3.16 3.52-7.72 3.66-11.86.06-4.63-.07-9.69-2.89-13.59-2.49-3.47-7.38-4.24-11.22-2.85z"/><path d="m95.527166 9.4834911c7.170004-9.79000003 21.680004-11.89 32.230004-6.81 7.04 3.33 11 11.1599999 10.87 18.7699999-.17 12.3.03 24.6-.02 36.9-8.3-.38-16.6-.83-24.91-.9-.13-9.04.01-18.09-.06-27.14-.07-3.23-.44-7.1-3.3-9.14-3.67-2.04-8.83-1.26-11.480004 2.09-2.06 2.51-2.53 5.9-2.48 9.05.04 8.33 0 16.66.03 24.99-8.32.41-16.65.64-24.98 1.05.05-18.88.01-37.75.01-56.6299999 7.98-.03 15.96.11 23.95-.08.05 2.62.15 5.23.14 7.85z"/><path d="m150.88717 8.1934911c7.87-7 19.02-9.15000003 29.25-7.79000003 8.56.88000003 17.37 4.24000003 22.68 11.30999993 6.17 7.93 7.41 18.33 7.87 28.05-15.79.05-31.57-.05-47.35.05.52 2.86 1.27 5.83 3.24 8.07 5.2 6.07 16.55 5.02 20.16-2.27 7.68-.04 15.4-.35 23.07.17-2.77 8.81-9.01 16.61-17.78 19.98-13.52-2.95-27.26-4.78-41.02-6.2-1.64-.01-2.56-1.6-3.56-2.65-11.74-13.72-10.37-36.88 3.44-48.7199999m17.22 10.2899999c-2.75 1.88-3.79 5.18-4.76 8.19 7.78.01 15.56.02 23.34-.01-.58-2.45-1.08-5.1-2.98-6.91-3.78-4.51-11-4.42-15.6-1.27z"/></g></svg>