<svg width="600pt" height="278.98pt" version="1.1" viewBox="0 0 600 278.98" xmlns="http://www.w3.org/2000/svg">
 <path d="m219.73 1.9697c14.974-3.8325 31.339-1.9691 45.111 5.0396 11.798 5.9518 21.51 15.764 27.701 27.412 10.324 19.43 11.392 43.365 3.5933 63.862-6.3968 16.927-19.88 31.222-36.851 37.763-14.045 5.4623-30.11 6.1187-44.372 1.0457-10.813-3.827-20.245-11.142-27.036-20.342v-92.926c7.7429-10.596 19.093-18.601 31.853-21.855m4.6001 26.811c-12.332 1.2794-23.946 8.4494-30.332 19.124-9.6842 15.797-7.7986 38.025 5.1453 51.48 12.399 13.35 33.831 16.398 49.812 7.9877 7.9821-4.1385 14.435-11.097 18.022-19.335 4.7781-10.869 4.8838-23.69 0.37268-34.66-3.1984-7.7819-8.8832-14.529-16.087-18.89-7.9821-4.9005-17.661-6.775-26.933-5.7071z" fill="#d72485" stroke-width=".55624"/>
 <path d="m386.49 0.0016122c-2.5422-0.0163-5.0825 0.091-7.6079 0.32185-19.274 1.5241-37.992 10.913-49.979 26.21-13.428 16.749-17.838 39.832-12.921 60.58 1.3248 5.2589 3.2252 10.376 5.6711 15.214l135.54-42.414c-2.1304-15.836-9.9013-30.888-21.827-41.563-13.214-12.075-31.083-18.235-48.878-18.35zm-0.94029 28.491c7.186-0.0581 14.386 1.6328 20.699 5.0885 5.518 2.9926 10.273 7.3371 13.844 12.494l-75.46 23.63c0.10012-8.733 2.7424-17.494 7.8988-24.586 4.945-6.903 12.187-12.104 20.291-14.635 4.1072-1.2912 8.4141-1.9558 12.726-1.9906z" fill="#d72485" stroke-width=".55624"/>
 <path d="m521.79 5.2014c10.407-4.8059 22.211-6.0241 33.519-4.6613 9.1002 1.1292 18.05 4.3498 25.387 9.9345 6.6304 4.9784 11.792 11.82 14.963 19.463 3.0649 7.3257 4.3415 15.297 4.3415 23.212v84.199h-29.539v-75.861c-0.14463-9.0334-3.3486-18.339-10.101-24.564-6.9419-6.5637-16.904-9.0223-26.255-8.3325-8.2547 0.47837-16.554 3.4932-22.55 9.3115-4.7003 4.5056-7.793 10.546-9.0835 16.899-0.94562 4.3888-0.89804 8.8999-0.90917 13.361v-46.419c5.2565-7.0365 12.223-12.883 20.228-16.543z" fill="#d72485" stroke-width=".55624"/>
 <path d="m112.9 65.56 29.481-9.1947c2.9648 15.764 0.8733 32.574-6.5637 46.841-6.7417 13.061-17.889 23.735-31.144 30.043-17.166 8.2324-37.435 9.4172-55.613 3.9605-19.035-5.6292-35.416-19.813-43.209-38.131l29.097-9.0946c3.5933 7.0142 9.2559 12.955 16.153 16.787 10.402 5.8294 23.279 6.8307 34.548 3.0538 8.6997-2.898 16.315-8.9222 21.121-16.737 5.1063-8.1434 7.0031-18.017 6.1298-27.529z" fill="#d72485" stroke-width=".55624"/>
 <g transform="translate(-3.4757e-8 -261.02)">
  <path d="m457.85 334.42-10.896 3.3937c-0.35044 3.0927-0.8347 6.1798-1.5856 9.2057-3.8937 16.387-14.991 30.933-29.948 38.743-19.413 10.268-44.372 9.5114-62.872-2.4534-8.8387-5.6514-16.014-13.784-20.72-23.146l-10.17 3.1826c2.2677 4.4857 5.0031 8.7322 8.2011 12.621 10.291 12.621 25.254 21.16 41.218 24.163 21.543 4.1718 45.178-0.73432 62.172-14.957 15.063-12.304 24.013-31.378 24.602-50.752zm-20.926 6.5584-11.219 3.4768c-3.293 10.413-10.78 19.485-20.648 24.274-11.108 5.4901-24.636 5.796-35.994 0.86208-7.3573-3.181-13.675-8.6689-17.892-15.481l-10.082 3.1598c4.8616 8.9611 12.544 16.365 21.716 20.821 18.534 9.0557 42.503 6.313 57.922-7.6209 8.5717-7.5983 14.284-18.223 16.198-29.492z" fill="#1769b4" stroke-width=".55624"/>
 </g>
 <g transform="translate(-3.4757e-8 -261.02)" fill="#1769b4" stroke-width=".55624">
  <path d="m36.246 269.66c15.174-8.11 33.163-10.38 50.023-7.309 15.197 2.7478 29.542 10.457 39.855 22.011 5.3733 5.9852 9.662 12.938 12.61 20.425l-10.19 3.2151c-5.1731-13.695-15.541-25.37-28.686-31.867-14.14-7.0754-30.966-8.2825-46.102-3.877-13.667 3.9493-25.799 12.972-33.397 25.009-8.8777 13.828-11.603 31.172-8.3882 47.197l-10.174 3.1762c-3.4376-15.48-1.9858-32.151 4.7003-46.585 6.1131-13.355 16.765-24.536 29.748-31.394z"/>
  <path d="m47.271 285.16c11.815-6.191 25.988-7.4592 38.826-4.0383 14.996 3.9104 27.745 15.302 33.313 29.759l-9.8233 3.0649c-3.5544-8.2936-9.9234-15.38-17.933-19.585-15.096-8.0822-35.194-5.9685-47.887 5.6792-10.663 9.4728-15.247 24.636-12.916 38.559l-9.7398 3.0371c-2.2695-12.299-0.4895-25.437 5.6125-36.406 4.6891-8.5105 11.915-15.603 20.548-20.069z"/>
 </g>
 <g transform="translate(-3.4757e-8 -261.02)" fill="#1769b4">
  <path d="m381.19 424.04h9.6647v35.828c4.1329-5.7293 10.624-9.5452 17.583-10.613 8.6663-1.4407 18.3 0.17799 25.031 6.1354 5.7349 4.9617 8.6524 12.593 8.7636 20.069v40.842h-9.6564v-38.573c-0.10012-5.0229-1.8217-10.163-5.3761-13.806-3.2874-3.432-7.971-5.2732-12.655-5.6403-5.9407-0.52843-12.276 0.87887-16.888 4.8115-4.4333 3.6935-6.7194 9.4895-6.8029 15.18v38.028h-9.6647z" stroke-width=".55624"/>
  <path d="m342.95 449.6c7.6929-2.0526 16.715-0.4005 22.272 5.5736 3.6545 3.7546 5.34 9.0779 5.1286 14.262h-9.7843c0.11681-2.759-0.52843-5.6459-2.3863-7.7596-4.4722-5.3733-14.017-5.123-18.111 0.57293-2.2862 3.0705-2.008 7.6261 0.49506 10.485 2.9648 3.4543 7.5093 4.8894 11.787 5.9351 5.5791 1.4518 11.242 3.8603 15.007 8.3937 6.0742 7.3702 4.7781 19.446-2.5532 25.515-8.9555 7.5204-23.907 7.0365-31.962-1.6298-3.649-3.8603-5.3844-9.2587-5.1341-14.526h9.9401c-0.41718 4.1774 1.6465 8.4799 5.3177 10.583 5.3566 3.1873 13.361 2.136 16.932-3.2318 2.631-3.9493 1.3628-9.6453-2.4364-12.371-4.8226-3.9048-11.303-4.1106-16.765-6.6638-3.6212-1.6242-7.0365-3.9883-9.267-7.3257-3.1372-4.7003-3.5933-10.914-1.7855-16.192 2.0192-5.8628 7.3758-10.146 13.305-11.62z" stroke-width=".55624"/>
  <path d="m485.9 448.76a34.846 34.534 0 0 0-34.846 34.533 34.846 34.534 0 0 0 34.846 34.534 34.846 34.534 0 0 0 34.846-34.534 34.846 34.534 0 0 0-34.846-34.533zm0 9.4086a25.352 25.125 0 0 1 25.352 25.125 25.352 25.125 0 0 1-25.352 25.126 25.352 25.125 0 0 1-25.353-25.126 25.352 25.125 0 0 1 25.353-25.125z" style="paint-order:stroke fill markers"/>
  <path d="m557.95 449.82c9.2003-2.3418 19.413-0.77318 27.312 4.5668 6.5581 4.3554 11.32 11.214 13.383 18.79 2.6477 9.6786 1.4518 20.509-3.8492 29.097-3.8603 6.3078-9.9401 11.219-16.932 13.628-8.7887 3.0482-18.912 2.5476-27.111-1.9802-4.272-2.2973-7.857-5.7182-10.677-9.6342v35.711h-9.6008v-89.75h9.6008v12.093c4.2274-6.1242 10.638-10.708 17.875-12.521m2.5198 8.7497c-9.2448 1.4462-17.21 8.6885-19.469 17.778-2.1248 7.9877-0.48393 17.071 4.9394 23.418 4.7837 5.7682 12.365 8.8943 19.813 8.6329 7.6039-0.0946 15.163-3.7992 19.591-10.04 7.1422-9.7621 6.1521-24.681-2.5921-33.147-5.7349-5.7293-14.373-8.06-22.283-6.6416z" stroke-width=".55624"/>
 </g>
 <g transform="translate(-3.4757e-8 -261.02)" fill="#1769b4">
  <path d="m158.36 264.19h10.138v184.18h-10.138z" stroke-width=".55624"/>
  <path d="m177.75 264.19h10.138v184.18h-10.138z" stroke-width=".55624"/>
 </g>
 <g transform="translate(-3.4757e-8 -261.02)" fill="#1769b4">
  <path d="m472.14 264.19h10.09v134.18h-10.09z" stroke-width=".55624"/>
  <path d="m491.47 264.19h10.091l-2.9e-4 134.18h-10.09z" stroke-width=".55624"/>
 </g>
</svg>
