<?xml version="1.0" encoding="UTF-8"?>
<!-- Created with Inkscape (http://www.inkscape.org/) -->
<svg id="svg2906" width="211.41" height="62.453" version="1.1" viewBox="0 0 198.2 58.55" xmlns="http://www.w3.org/2000/svg" xmlns:cc="http://creativecommons.org/ns#" xmlns:dc="http://purl.org/dc/elements/1.1/" xmlns:rdf="http://www.w3.org/1999/02/22-rdf-syntax-ns#">
 <metadata id="metadata2911">
  <rdf:RDF>
   <cc:Work rdf:about="">
    <dc:format>image/svg+xml</dc:format>
    <dc:type rdf:resource="http://purl.org/dc/dcmitype/StillImage"/>
    <dc:title/>
   </cc:Work>
  </rdf:RDF>
 </metadata>
 <g id="g1139" transform="translate(-.0031108)" fill="#ed1c24">
  <g id="g3014" transform="matrix(.3193 0 0 .3193 .003 0)">
   <g id="g3016" fill="#ed1c24">
    <g id="g3064">
     <path id="path3066" d="m93.3 73.667c0-6.9-1-12.9-2.9-18-1.9-4.9-4.8-8.9-8.7-12.2-3.9-3.2-8.8-5.5-14.7-7-5.6-1.4-12.5-2.1-20.7-2.1h-46.3v107.6h38.7v-31.7h12.3c7.1 0 13.3-0.7 18.6-2.1 5.5-1.4 9.9-3.6 13.2-6.5 3.5-2.9 6.1-6.7 7.9-11.3 1.7-4.7 2.6-10.2 2.6-16.7zm-43.4-8.8c1.3 0.4 2.5 1 3.6 1.9s1.8 1.8 2.1 2.8c0.5 1.1 0.8 2.3 0.8 3.7 0 1.5-0.3 2.8-0.8 3.8-0.3 1-1 1.9-2.1 2.8-1.1 0.8-2.3 1.4-3.6 1.8l-5 0.6h-6v-18h6z" fill="#ed1c24"/>
    </g>
    <g id="g3068">
     <path id="path3070" d="m148.1 34.367h-48.7v107.6h38v-35.5l18.8 35.5h43.4l-28.8-43.8c3.2-0.4 6-1.3 8.5-2.7 2.6-1.5 4.8-3.5 6.6-5.9 1.8-2.3 3.2-5.1 4.2-8.4s1.5-6.8 1.5-10.5c0-5.7-0.9-10.8-2.8-15.4s-4.6-8.4-8.2-11.4c-3.7-3.2-8.2-5.6-13.5-7.1-5.4-1.6-11.7-2.4-19-2.4zm-4.7 27.7 5 0.7c1.3 0.5 2.5 1.2 3.6 2.1 1 0.9 1.7 2.1 2.1 3.4 0.5 1.3 0.8 2.8 0.8 4.5 0 1.6-0.3 3.1-0.8 4.4s-1.3 2.4-2.2 3.2c-0.9 0.9-2.1 1.6-3.6 2l-4.9 0.8h-6v-21.1z" fill="#ed1c24"/>
    </g>
    <g id="g3072">
     <path id="path3074" d="m204.8 34.367v107.6h39.3v-107.6z" fill="#ed1c24"/>
    </g>
    <g id="g3076">
     <path id="path3078" d="m307.6 34.367h-39.9l-18.4 107.6h38l6.3-62.3 4.8 21 12.3 41.3h23.1l12.4-41.3 4.8-21 6.3 62.3h37.9l-17-107.6h-39.9l-13.7 48.1-1.6 10h-0.6l-3.4-18.4z" fill="#ed1c24"/>
    </g>
    <g id="g3080">
     <path id="path3082" d="m469.2 73.967h-30.8v-10.4h34v-29.2h-72v107.6h72.9v-29.2h-34.9v-11.3h30.8z" fill="#ed1c24"/>
    </g>
   </g>
  </g>
  <path id="path3092" d="m77.935 0h-12.517v8.685h12.517z" stroke-width=".3193"/>
  <g id="g3098" transform="matrix(.3193 0 0 .3193 .003 0)">
   <path id="path3100" d="m244.07 0h-39.2v27.2h39.2z" fill="#ed1c24"/>
  </g>
  <path id="path2878" d="m3e-3 58.55v-11.897l150.49 3.2e-4 -7.2702 11.897z"/>
 </g>
 <g id="g931" transform="matrix(1.6499 0 0 1.6499 169.65 -3.2579)" fill="#ed1c24" fill-rule="evenodd">
  <polygon id="Fill-1" transform="translate(-10.141 8.4507)" points="16.836 28.946 27.442 10.392 21.332 0.2028 4.5453 28.946"/>
  <polygon id="Fill-2" transform="translate(-10.141 8.4507)" points="14.576 10.392 20.513 0.2028 0 0.2028 5.985 10.392"/>
 </g>
</svg>
