<?xml version="1.0" encoding="UTF-8" standalone="no"?>
<!-- Created with Inkscape (http://www.inkscape.org/) -->

<svg
   xmlns:dc="http://purl.org/dc/elements/1.1/"
   xmlns:cc="http://creativecommons.org/ns#"
   xmlns:rdf="http://www.w3.org/1999/02/22-rdf-syntax-ns#"
   xmlns:svg="http://www.w3.org/2000/svg"
   xmlns="http://www.w3.org/2000/svg"
   xmlns:xlink="http://www.w3.org/1999/xlink"
   xmlns:sodipodi="http://sodipodi.sourceforge.net/DTD/sodipodi-0.dtd"
   xmlns:inkscape="http://www.inkscape.org/namespaces/inkscape"
   width="198"
   height="58.548912"
   id="svg2906"
   version="1.1"
   inkscape:version="0.91 r13725"
   sodipodi:docname="Prime7.svg">
  <defs
     id="defs2908">
    <linearGradient
       id="linearGradient2881">
      <stop
         id="stop2883"
         offset="0"
         style="stop-color:#fefcf8;stop-opacity:1" />
      <stop
         style="stop-color:#feedd1;stop-opacity:1"
         offset="0.1"
         id="stop2885" />
      <stop
         style="stop-color:#fedeac;stop-opacity:1"
         offset="0.2"
         id="stop2887" />
      <stop
         style="stop-color:#fbc590;stop-opacity:1"
         offset="0.30000001"
         id="stop2889" />
      <stop
         style="stop-color:#f7a47c;stop-opacity:1"
         offset="0.40429688"
         id="stop2891" />
      <stop
         style="stop-color:#f3876a;stop-opacity:1"
         offset="0.5"
         id="stop2893" />
      <stop
         style="stop-color:#f06957;stop-opacity:1"
         offset="0.60000002"
         id="stop2895" />
      <stop
         style="stop-color:#ec4b45;stop-opacity:1"
         offset="0.69999999"
         id="stop2897" />
      <stop
         style="stop-color:#eb3d3c;stop-opacity:1"
         offset="0.80000001"
         id="stop2899" />
      <stop
         style="stop-color:#eb3d3c;stop-opacity:1"
         offset="0.89999998"
         id="stop2901" />
      <stop
         id="stop2903"
         offset="1"
         style="stop-color:#eb3d3c;stop-opacity:1" />
    </linearGradient>
    <inkscape:perspective
       sodipodi:type="inkscape:persp3d"
       inkscape:vp_x="0 : 526.18109 : 1"
       inkscape:vp_y="0 : 1000 : 0"
       inkscape:vp_z="744.09448 : 526.18109 : 1"
       inkscape:persp3d-origin="372.04724 : 350.78739 : 1"
       id="perspective2914" />
    <inkscape:perspective
       id="perspective3108"
       inkscape:persp3d-origin="236.64999 : 47.322332 : 1"
       inkscape:vp_z="473.29999 : 70.983498 : 1"
       inkscape:vp_y="0 : 1000 : 0"
       inkscape:vp_x="0 : 70.983498 : 1"
       sodipodi:type="inkscape:persp3d" />
    <inkscape:perspective
       id="perspective3165"
       inkscape:persp3d-origin="0.5 : 0.33333333 : 1"
       inkscape:vp_z="1 : 0.5 : 1"
       inkscape:vp_y="0 : 1000 : 0"
       inkscape:vp_x="0 : 0.5 : 1"
       sodipodi:type="inkscape:persp3d" />
    <inkscape:perspective
       id="perspective3220"
       inkscape:persp3d-origin="0.5 : 0.33333333 : 1"
       inkscape:vp_z="1 : 0.5 : 1"
       inkscape:vp_y="0 : 1000 : 0"
       inkscape:vp_x="0 : 0.5 : 1"
       sodipodi:type="inkscape:persp3d" />
    <linearGradient
       inkscape:collect="always"
       xlink:href="#linearGradient2880"
       id="linearGradient2886"
       x1="75.999992"
       y1="448.36218"
       x2="276"
       y2="448.36218"
       gradientUnits="userSpaceOnUse"
       gradientTransform="matrix(0.2343365,0,0,0.23360648,331.67656,225.83459)" />
    <linearGradient
       id="linearGradient2880">
      <stop
         style="stop-color:#fffffd;stop-opacity:1"
         offset="0"
         id="stop2882" />
      <stop
         id="stop2904"
         offset="0.1"
         style="stop-color:#f7e9c2;stop-opacity:1" />
      <stop
         id="stop2902"
         offset="0.2"
         style="stop-color:#f6d796;stop-opacity:1" />
      <stop
         id="stop2900"
         offset="0.30000001"
         style="stop-color:#f7c161;stop-opacity:1" />
      <stop
         id="stop2898"
         offset="0.40429688"
         style="stop-color:#f9ab2f;stop-opacity:1" />
      <stop
         id="stop2896"
         offset="0.5"
         style="stop-color:#fb9608;stop-opacity:1" />
      <stop
         id="stop2894"
         offset="0.60000002"
         style="stop-color:#ef680a;stop-opacity:1" />
      <stop
         id="stop2892"
         offset="0.69999999"
         style="stop-color:#e82813;stop-opacity:1" />
      <stop
         id="stop2890"
         offset="0.80000001"
         style="stop-color:#e80010;stop-opacity:1" />
      <stop
         id="stop2888"
         offset="0.89999998"
         style="stop-color:#e80010;stop-opacity:1" />
      <stop
         style="stop-color:#d40716;stop-opacity:1"
         offset="1"
         id="stop2884" />
    </linearGradient>
    <linearGradient
       y2="448.36218"
       x2="276"
       y1="448.36221"
       x1="55.660408"
       gradientTransform="matrix(1.003125,0,0,1,41.815665,-131.52156)"
       gradientUnits="userSpaceOnUse"
       id="linearGradient3238"
       xlink:href="#linearGradient2880"
       inkscape:collect="always" />
    <inkscape:perspective
       id="perspective3301"
       inkscape:persp3d-origin="142.562 : 100 : 1"
       inkscape:vp_z="285.12399 : 150 : 1"
       inkscape:vp_y="0 : 1000 : 0"
       inkscape:vp_x="0 : 150 : 1"
       sodipodi:type="inkscape:persp3d" />
    <inkscape:perspective
       id="perspective2874"
       inkscape:persp3d-origin="0.5 : 0.33333333 : 1"
       inkscape:vp_z="1 : 0.5 : 1"
       inkscape:vp_y="0 : 1000 : 0"
       inkscape:vp_x="0 : 0.5 : 1"
       sodipodi:type="inkscape:persp3d" />
    <radialGradient
       id="SVGID_74_"
       cx="184.707"
       cy="1.0386"
       r="48.719101"
       gradientUnits="userSpaceOnUse">
      <stop
         offset="0.02"
         style="stop-color:#FDDDCE"
         id="stop1167" />
      <stop
         offset="0.0784"
         style="stop-color:#FABAB0"
         id="stop1169" />
      <stop
         offset="0.1699"
         style="stop-color:#F68A85"
         id="stop1171" />
      <stop
         offset="0.2611"
         style="stop-color:#F36362"
         id="stop1173" />
      <stop
         offset="0.3503"
         style="stop-color:#F04447"
         id="stop1175" />
      <stop
         offset="0.4369"
         style="stop-color:#EE2E34"
         id="stop1177" />
      <stop
         offset="0.5199"
         style="stop-color:#ED2128"
         id="stop1179" />
      <stop
         offset="0.5951"
         style="stop-color:#ED1C24"
         id="stop1181" />
    </radialGradient>
    <radialGradient
       id="SVGID_71_"
       cx="188.21001"
       cy="2.8740001"
       r="45.978802"
       gradientUnits="userSpaceOnUse"
       gradientTransform="matrix(1.3692219,0,0,1.3692219,27.738584,270.91227)">
      <stop
         offset="0"
         style="stop-color:#FDDDCE"
         id="stop1106" />
      <stop
         offset="0.0629"
         style="stop-color:#FABAB0"
         id="stop1108" />
      <stop
         offset="0.1615"
         style="stop-color:#F68A85"
         id="stop1110" />
      <stop
         offset="0.2597"
         style="stop-color:#F36362"
         id="stop1112" />
      <stop
         offset="0.3559"
         style="stop-color:#F04447"
         id="stop1114" />
      <stop
         offset="0.4492"
         style="stop-color:#EE2E34"
         id="stop1116" />
      <stop
         offset="0.5386"
         style="stop-color:#ED2128"
         id="stop1118" />
      <stop
         offset="0.6196"
         style="stop-color:#ED1C24"
         id="stop1120" />
    </radialGradient>
    <radialGradient
       id="SVGID_61_"
       cx="176.6123"
       cy="21.034201"
       r="17.041"
       gradientTransform="matrix(1.3692219,0,0,1.3549819,27.738584,271.74845)"
       gradientUnits="userSpaceOnUse">
      <stop
         offset="0"
         style="stop-color:#ED1C24"
         id="stop982" />
      <stop
         offset="0.4039"
         style="stop-color:#EA1B24"
         id="stop984" />
      <stop
         offset="0.6639"
         style="stop-color:#E21A24"
         id="stop986" />
      <stop
         offset="0.8826"
         style="stop-color:#D31725"
         id="stop988" />
      <stop
         offset="0.9945"
         style="stop-color:#C81525"
         id="stop990" />
    </radialGradient>
  </defs>
  <sodipodi:namedview
     id="base"
     pagecolor="#ffffff"
     bordercolor="#666666"
     borderopacity="1.0"
     inkscape:pageopacity="0.0"
     inkscape:pageshadow="2"
     inkscape:zoom="2.275"
     inkscape:cx="43.859514"
     inkscape:cy="89.995585"
     inkscape:document-units="px"
     inkscape:current-layer="g3090"
     showgrid="false"
     inkscape:window-width="1920"
     inkscape:window-height="1017"
     inkscape:window-x="-8"
     inkscape:window-y="-8"
     inkscape:window-maximized="1"
     fit-margin-top="0"
     fit-margin-left="0"
     fit-margin-right="0"
     fit-margin-bottom="0">
    <inkscape:grid
       type="xygrid"
       id="grid3200"
       empspacing="5"
       visible="true"
       enabled="true"
       snapvisiblegridlinesonly="true"
       originx="-0.98900758"
       originy="-0.76922485" />
  </sodipodi:namedview>
  <metadata
     id="metadata2911">
    <rdf:RDF>
      <cc:Work
         rdf:about="">
        <dc:format>image/svg+xml</dc:format>
        <dc:type
           rdf:resource="http://purl.org/dc/dcmitype/StillImage" />
        <dc:title />
      </cc:Work>
    </rdf:RDF>
  </metadata>
  <g
     inkscape:label="Layer 1"
     inkscape:groupmode="layer"
     id="layer1"
     transform="translate(-237.29256,-724.04403)">
    <g
       id="g3111"
       transform="translate(143.34999,458.52154)">
      <g
         id="g3088">
        <g
           id="g3090">
          <g
             id="g3183"
             transform="matrix(0.31930216,0,0,0.31930216,93.942568,265.52249)"
             style="fill:#ee3124;fill-opacity:1">
            <g
               id="g3014"
               style="fill:#ee3124;fill-opacity:1">
              <g
                 id="g3016"
                 style="fill:#ee3124;fill-opacity:1">
                <g
                   id="g3064"
                   style="fill:#ee3124;fill-opacity:1">
                  <path
                     inkscape:connector-curvature="0"
                     style="fill:#ee3124;fill-opacity:1"
                     d="m 93.3,73.667 c 0,-6.9 -1,-12.9 -2.9,-18 -1.9,-4.9 -4.8,-8.9 -8.7,-12.2 -3.9,-3.2 -8.8,-5.5 -14.7,-7 -5.6,-1.4 -12.5,-2.1 -20.7,-2.1 l -46.3,0 0,107.6 38.7,0 0,-31.7 12.3,0 c 7.1,0 13.3,-0.7 18.6,-2.1 5.5,-1.4 9.9,-3.6 13.2,-6.5 3.5,-2.9 6.1,-6.7 7.9,-11.3 1.7,-4.7 2.6,-10.2 2.6,-16.7 z m -43.4,-8.8 c 1.3,0.4 2.5,1 3.6,1.9 1.1,0.9 1.8,1.8 2.1,2.8 0.5,1.1 0.8,2.3 0.8,3.7 0,1.5 -0.3,2.8 -0.8,3.8 -0.3,1 -1,1.9 -2.1,2.8 -1.1,0.8 -2.3,1.4 -3.6,1.8 l -5,0.6 -6,0 0,-18 6,0 5,0.6 z"
                     id="path3066" />
                </g>
                <g
                   id="g3068"
                   style="fill:#ee3124;fill-opacity:1">
                  <path
                     inkscape:connector-curvature="0"
                     style="fill:#ee3124;fill-opacity:1"
                     d="m 148.1,34.367 -48.7,0 0,107.6 38,0 0,-35.5 18.8,35.5 43.4,0 -28.8,-43.8 c 3.2,-0.4 6,-1.3 8.5,-2.7 2.6,-1.5 4.8,-3.5 6.6,-5.9 1.8,-2.3 3.2,-5.1 4.2,-8.4 1,-3.3 1.5,-6.8 1.5,-10.5 0,-5.7 -0.9,-10.8 -2.8,-15.4 -1.9,-4.6 -4.6,-8.4 -8.2,-11.4 -3.7,-3.2 -8.2,-5.6 -13.5,-7.1 -5.4,-1.6 -11.7,-2.4 -19,-2.4 z m -4.7,27.7 5,0.7 c 1.3,0.5 2.5,1.2 3.6,2.1 1,0.9 1.7,2.1 2.1,3.4 0.5,1.3 0.8,2.8 0.8,4.5 0,1.6 -0.3,3.1 -0.8,4.4 -0.5,1.3 -1.3,2.4 -2.2,3.2 -0.9,0.9 -2.1,1.6 -3.6,2 l -4.9,0.8 -6,0 0,-21.1 6,0 z"
                     id="path3070" />
                </g>
                <g
                   id="g3072"
                   style="fill:#ee3124;fill-opacity:1">
                  <path
                     inkscape:connector-curvature="0"
                     style="fill:#ee3124;fill-opacity:1"
                     d="m 204.8,34.367 0,107.6 39.3,0 0,-107.6 -39.3,0 z"
                     id="path3074" />
                </g>
                <g
                   id="g3076"
                   style="fill:#ee3124;fill-opacity:1">
                  <path
                     inkscape:connector-curvature="0"
                     style="fill:#ee3124;fill-opacity:1"
                     d="m 307.6,34.367 -39.9,0 -18.4,107.6 38,0 6.3,-62.3 4.8,21 12.3,41.3 23.1,0 12.4,-41.3 4.8,-21 6.3,62.3 37.9,0 -17,-107.6 -39.9,0 -13.7,48.1 -1.6,10 -0.6,0 -3.4,-18.4 -11.4,-39.7 z"
                     id="path3078" />
                </g>
                <g
                   id="g3080"
                   style="fill:#ee3124;fill-opacity:1">
                  <path
                     inkscape:connector-curvature="0"
                     style="fill:#ee3124;fill-opacity:1"
                     d="m 469.2,73.967 -30.8,0 0,-10.4 34,0 0,-29.2 -72,0 0,107.6 72.9,0 0,-29.2 -34.9,0 0,-11.3 30.8,0 0,-27.5 z"
                     id="path3082" />
                </g>
              </g>
            </g>
            <path
               inkscape:connector-curvature="0"
               style="fill:#ee3124;fill-opacity:1"
               d="m 244.067,0 -39.2,0 0,27.2 39.2,0 0,-27.2 z"
               id="path3092" />
            <g
               id="g3098"
               style="fill:#ee3124;fill-opacity:1">
              <path
                 inkscape:connector-curvature="0"
                 style="fill:#ee3124;fill-opacity:1"
                 d="m 244.067,0 -39.2,0 0,27.2 39.2,0 0,-27.2 z"
                 id="path3100" />
            </g>
          </g>
          <path
             inkscape:connector-curvature="0"
             style="font-style:normal;font-variant:normal;font-weight:normal;font-stretch:normal;font-size:10px;line-height:125%;font-family:'Arial Black';-inkscape-font-specification:'Arial Black';text-align:start;writing-mode:lr-tb;text-anchor:start;fill:#ee3124;fill-opacity:1;stroke:none"
             d="m 93.94257,324.07141 0,-11.89701 150.49076,3.2e-4 -7.2702,11.89669 z"
             id="path2878"
             sodipodi:nodetypes="ccccc" />
          <path
             d="m 282.14546,276.5384 -27.76371,47.423 20.33979,0 17.52741,-30.61306 -10.10349,-16.80994 z m -11.16874,16.80994 9.82554,-16.80857 -33.93069,0 9.89537,16.80857 14.20978,0 z"
             id="path992"
             style="fill:url(#SVGID_61_)"
             inkscape:connector-curvature="0" />
          <path
             d="m 264.28944,307.03919 c 4.88265,3.21767 10.54438,5.34955 16.64152,6.06839 l 11.31799,-19.75924 -10.10349,-16.80857 -17.85602,30.49942 z"
             id="path1122"
             style="fill:url(#SVGID_71_)"
             inkscape:connector-curvature="0" />
          <polygon
             points="167.269,16.386 177.647,16.386 184.823,4.109 160.042,4.109 "
             id="polygon1183"
             style="fill:url(#SVGID_74_)"
             transform="matrix(1.3692219,0,0,1.3692219,27.738584,270.91227)" />
          <path
             style="opacity:0.25;fill:#ed1c24"
             inkscape:connector-curvature="0"
             id="path1379"
             d="m 282.14546,276.5384 -27.76371,47.423 20.33979,0 17.52741,-30.61306 -10.10349,-16.80994 z m -11.16874,16.80994 9.82554,-16.80857 -33.93069,0 9.89537,16.80857 14.20978,0 z" />
        </g>
      </g>
    </g>
  </g>
</svg>
