<svg height="62.452179" viewBox="0 0 198.30639 58.548919" width="211.52681" xmlns="http://www.w3.org/2000/svg" xmlns:xlink="http://www.w3.org/1999/xlink"><radialGradient id="a" cx="176.6123" cy="21.034201" gradientTransform="matrix(1 0 0 .9896 -160.042 -3.4983)" gradientUnits="userSpaceOnUse" r="17.041"><stop offset="0" stop-color="#ed1c24"/><stop offset=".4039" stop-color="#ea1b24"/><stop offset=".6639" stop-color="#e21a24"/><stop offset=".8826" stop-color="#d31725"/><stop offset=".9945" stop-color="#c81525"/></radialGradient><linearGradient id="b" gradientUnits="userSpaceOnUse" x1="160.04201" x2="184.8232" y1="4.2534" y2="4.2534"><stop offset=".0165" stop-color="#a50d12"/><stop offset=".6868" stop-color="#ef462c"/></linearGradient><linearGradient id="c" gradientUnits="userSpaceOnUse" x1="167.2686" x2="177.64751" y1="16.2153" y2="16.2153"><stop offset="0" stop-color="#b3101f"/><stop offset=".7253" stop-color="#ca171e"/></linearGradient><linearGradient id="d" gradientUnits="userSpaceOnUse" x1="177.4424" x2="184.8232" y1="10.2476" y2="10.2476"><stop offset=".0385" stop-color="#ed1c24"/><stop offset=".6347" stop-color="#980b0e"/><stop offset="1" stop-color="#620000"/></linearGradient><linearGradient id="e" gradientUnits="userSpaceOnUse" x1="165.5264" x2="185.8037" y1="21.4268" y2="21.4268"><stop offset=".0385" stop-color="#ed1c24"/><stop offset=".7741" stop-color="#98070c"/><stop offset="1" stop-color="#7d0004"/></linearGradient><linearGradient id="f" gradientUnits="userSpaceOnUse" x1="165.5264" x2="180.38181" y1="38.553699" y2="38.553699"><stop offset="0" stop-color="#ad1015"/><stop offset="1" stop-color="#920411"/></linearGradient><linearGradient id="g" gradientUnits="userSpaceOnUse" x1="185.8037" x2="193.1826" y1="10.2627" y2="10.2627"><stop offset=".0165" stop-color="#ef382d"/><stop offset=".8566" stop-color="#9a0912"/><stop offset="1" stop-color="#8b010d"/></linearGradient><linearGradient id="h" gradientUnits="userSpaceOnUse" x1="179.9678" x2="193.1826" y1="27.564899" y2="27.564899"><stop offset=".0385" stop-color="#ed1c24"/><stop offset=".3396" stop-color="#eb1b23"/><stop offset=".5017" stop-color="#e31a21"/><stop offset=".6308" stop-color="#d5171d"/><stop offset=".7424" stop-color="#c21218"/><stop offset=".8427" stop-color="#a90d11"/><stop offset=".9336" stop-color="#8a0608"/><stop offset="1" stop-color="#6f0000"/></linearGradient><radialGradient id="i" cx="28.16801" cy="-1.235" gradientUnits="userSpaceOnUse" r="45.978802"><stop offset="0" stop-color="#fdddce"/><stop offset=".0629" stop-color="#fabab0"/><stop offset=".1615" stop-color="#f68a85"/><stop offset=".2597" stop-color="#f36362"/><stop offset=".3559" stop-color="#f04447"/><stop offset=".4492" stop-color="#ee2e34"/><stop offset=".5386" stop-color="#ed2128"/><stop offset=".6196" stop-color="#ed1c24"/></radialGradient><radialGradient id="j" cx="184.707" cy="1.0386" gradientUnits="userSpaceOnUse" r="48.719101"><stop offset=".02" stop-color="#fdddce"/><stop offset=".0784" stop-color="#fabab0"/><stop offset=".1699" stop-color="#f68a85"/><stop offset=".2611" stop-color="#f36362"/><stop offset=".3503" stop-color="#f04447"/><stop offset=".4369" stop-color="#ee2e34"/><stop offset=".5199" stop-color="#ed2128"/><stop offset=".5951" stop-color="#ed1c24"/></radialGradient><linearGradient id="k" gradientUnits="userSpaceOnUse" x1="160.04201" x2="184.8232" y1="4.2534" y2="4.2534"><stop offset=".0165" stop-color="#90191c"/><stop offset=".2086" stop-color="#be2326"/><stop offset=".3988" stop-color="#ea5b3f"/><stop offset=".6564" stop-color="#ef8566"/><stop offset=".908" stop-color="#fbbea7"/></linearGradient><linearGradient id="l" gradientUnits="userSpaceOnUse" x1="177.4424" x2="184.8232" y1="10.2476" y2="10.2476"><stop offset=".0385" stop-color="#e41f28"/><stop offset=".2638" stop-color="#d82b29"/><stop offset=".4663" stop-color="#d14236"/><stop offset=".6748" stop-color="#d45647"/><stop offset="1" stop-color="#f4a391"/></linearGradient><linearGradient id="m" gradientUnits="userSpaceOnUse" x1="178.5625" x2="185.9227" y1="16.757299" y2="4.0855"><stop offset=".0385" stop-color="#e41f28"/><stop offset=".2638" stop-color="#d82b29"/><stop offset=".4663" stop-color="#d14236"/><stop offset=".6871" stop-color="#cc5344"/><stop offset="1" stop-color="#f4a391"/></linearGradient><linearGradient id="n" gradientUnits="userSpaceOnUse" x1="185.8037" x2="193.1826" y1="10.2627" y2="10.2627"><stop offset=".0165" stop-color="#fbbea7"/><stop offset=".3865" stop-color="#ef8566"/><stop offset=".6503" stop-color="#ea5b3f"/><stop offset=".8221" stop-color="#cd272b"/><stop offset="1" stop-color="#bf272e"/></linearGradient><g transform="translate(-93.94257 -265.52249)"><g fill="#ee3124" transform="matrix(.31930216 0 0 .31930216 93.942568 265.52249)"><g><path d="m93.3 73.667c0-6.9-1-12.9-2.9-18-1.9-4.9-4.8-8.9-8.7-12.2-3.9-3.2-8.8-5.5-14.7-7-5.6-1.4-12.5-2.1-20.7-2.1h-46.3v107.6h38.7v-31.7h12.3c7.1 0 13.3-.7 18.6-2.1 5.5-1.4 9.9-3.6 13.2-6.5 3.5-2.9 6.1-6.7 7.9-11.3 1.7-4.7 2.6-10.2 2.6-16.7zm-43.4-8.8c1.3.4 2.5 1 3.6 1.9s1.8 1.8 2.1 2.8c.5 1.1.8 2.3.8 3.7 0 1.5-.3 2.8-.8 3.8-.3 1-1 1.9-2.1 2.8-1.1.8-2.3 1.4-3.6 1.8l-5 .6h-6v-18h6z"/><path d="m148.1 34.367h-48.7v107.6h38v-35.5l18.8 35.5h43.4l-28.8-43.8c3.2-.4 6-1.3 8.5-2.7 2.6-1.5 4.8-3.5 6.6-5.9 1.8-2.3 3.2-5.1 4.2-8.4s1.5-6.8 1.5-10.5c0-5.7-.9-10.8-2.8-15.4s-4.6-8.4-8.2-11.4c-3.7-3.2-8.2-5.6-13.5-7.1-5.4-1.6-11.7-2.4-19-2.4zm-4.7 27.7 5 .7c1.3.5 2.5 1.2 3.6 2.1 1 .9 1.7 2.1 2.1 3.4.5 1.3.8 2.8.8 4.5 0 1.6-.3 3.1-.8 4.4s-1.3 2.4-2.2 3.2c-.9.9-2.1 1.6-3.6 2l-4.9.8h-6v-21.1z"/><path d="m204.8 34.367v107.6h39.3v-107.6z"/><path d="m307.6 34.367h-39.9l-18.4 107.6h38l6.3-62.3 4.8 21 12.3 41.3h23.1l12.4-41.3 4.8-21 6.3 62.3h37.9l-17-107.6h-39.9l-13.7 48.1-1.6 10h-.6l-3.4-18.4z"/><path d="m469.2 73.967h-30.8v-10.4h34v-29.2h-72v107.6h72.9v-29.2h-34.9v-11.3h30.8z"/></g><path d="m244.067 0h-39.2v27.2h39.2z"/><path d="m244.067 0h-39.2v27.2h39.2z"/></g><path d="m93.94257 324.07141v-11.89701l150.49076.00032-7.2702 11.89669z" fill="#ee3124"/><g transform="matrix(1.369234555867 0 0 1.369234555867 246.871150193117 276.537963549557)"><path d="m25.762 0-20.277 34.635h14.855l12.801-22.358zm-8.157 12.277 7.176-12.276h-24.781l7.227 12.276z" fill="url(#a)"/><g transform="translate(-160.042 -4.109)"><path d="m167.476 16.045-6.875-11.648-.559-.288 7.227 12.277z" fill="#ed1e24"/><path d="m184.257 4.397h-23.656l-.559-.288h24.781z" fill="url(#b)"/><path d="m177.442 16.045h-9.966l-.207.341h10.378z" fill="url(#c)"/><path d="m184.267 4.397-6.825 11.648.205.341 7.176-12.277z" fill="url(#d)"/><path d="m185.804 4.747-19.555 33.616-.723.381 20.278-34.635z" fill="url(#e)"/><path d="m166.249 38.363h13.719l.414.381h-14.856z" fill="url(#f)"/><path d="m192.72 16.416-6.916-11.669v-.638l7.379 12.277z" fill="url(#g)"/><path d="m179.968 38.363 12.752-21.947.463-.03-12.801 22.358z" fill="url(#h)"/></g><path d="m12.721 22.276c3.566 2.35 7.701 3.907 12.154 4.432l8.266-14.431-7.379-12.276z" fill="url(#i)"/><path d="m184.823 4.109h-24.781l7.227 12.277h10.378z" fill="url(#j)" transform="translate(-160.042 -4.109)"/><path d="m184.257 4.397h-23.656l-.559-.288h24.781z" fill="url(#k)" transform="translate(-160.042 -4.109)"/><path d="m184.267 4.397-6.825 11.648.205.341 7.176-12.277z" fill="url(#l)" transform="translate(-160.042 -4.109)"/><path d="m185.804 4.747-19.555 33.616-.723.381 20.278-34.635z" fill="url(#m)" transform="translate(-160.042 -4.109)"/><path d="m192.72 16.416-6.916-11.669v-.638l7.379 12.277z" fill="url(#n)" transform="translate(-160.042 -4.109)"/><path d="m25.762 0-20.277 34.635h14.855l12.801-22.358zm-8.157 12.277 7.176-12.276h-24.781l7.227 12.276z" fill="#ed1c24" opacity=".25"/></g></g></svg>