<?xml version="1.0" encoding="UTF-8" standalone="no"?>
<!-- Generator: Adobe Illustrator 19.2.1, SVG Export Plug-In . SVG Version: 6.00 Build 0)  -->

<svg
   xmlns:dc="http://purl.org/dc/elements/1.1/"
   xmlns:cc="http://creativecommons.org/ns#"
   xmlns:rdf="http://www.w3.org/1999/02/22-rdf-syntax-ns#"
   xmlns:svg="http://www.w3.org/2000/svg"
   xmlns="http://www.w3.org/2000/svg"
   xmlns:sodipodi="http://sodipodi.sourceforge.net/DTD/sodipodi-0.dtd"
   xmlns:inkscape="http://www.inkscape.org/namespaces/inkscape"
   version="1.1"
   id="Layer_1"
   x="0px"
   y="0px"
   viewBox="0 0 129.46134 50.300001"
   xml:space="preserve"
   width="93.744637"
   height="35.864529"
   sodipodi:docname="Racing.com.svg"
   inkscape:version="0.92.0 r15299"><metadata
     id="metadata31"><rdf:RDF><cc:Work
         rdf:about=""><dc:format>image/svg+xml</dc:format><dc:type
           rdf:resource="http://purl.org/dc/dcmitype/StillImage" /><dc:title></dc:title></cc:Work></rdf:RDF></metadata><defs
     id="defs29" /><sodipodi:namedview
     pagecolor="#ffffff"
     bordercolor="#666666"
     borderopacity="1"
     objecttolerance="10"
     gridtolerance="10"
     guidetolerance="10"
     inkscape:pageopacity="0"
     inkscape:pageshadow="2"
     inkscape:window-width="1920"
     inkscape:window-height="1017"
     id="namedview27"
     showgrid="false"
     fit-margin-top="0"
     fit-margin-left="0"
     fit-margin-right="0"
     fit-margin-bottom="0"
     inkscape:zoom="2.84"
     inkscape:cx="46.436262"
     inkscape:cy="17.789661"
     inkscape:window-x="-8"
     inkscape:window-y="-8"
     inkscape:window-maximized="1"
     inkscape:current-layer="Layer_1" /><style
     type="text/css"
     id="style2">
	.st0{fill:#E52320;}
</style><g
     id="g24"
     transform="translate(-4.9981424,-2.7)"><path
       class="st0"
       d="m 28.4,2.7 c 6.9,0 9,3.8 8.3,7.6 -0.5,2.7 -2.4,4.8 -5.3,5.9 l 0.3,0.8 c 1.3,2.8 2.2,3.7 4.3,3.5 l -1,4.9 C 30.3,26.3 27.9,24.7 25.9,20 L 25,17.9 c -0.6,0 -1.2,-0.1 -1.8,-0.1 l -1.5,7.7 H 15.6 L 19.7,4.2 C 23.4,3 25.4,2.7 28.4,2.7 Z m -3.3,5.2 -1,5.3 c 0.7,0.1 1.5,0.1 2.2,0.1 2,0 3.7,-0.9 4.1,-3 C 30.6,9 30,7.7 27.5,7.7 c -1,0 -1.7,0.1 -2.4,0.2 z"
       id="path4"
       inkscape:connector-curvature="0"
       style="fill:#e52320" /><path
       class="st0"
       d="m 54.7,3.2 c 3.3,6 4.6,13.2 3.4,19.4 l -0.6,2.9 h -6.3 l 0.6,-2.9 C 51.9,22 52,21.5 52.1,20.9 h -7.8 c -0.2,0.6 -0.3,1.2 -0.4,1.7 l -0.6,2.9 H 37 l 0.6,-2.9 C 38.8,16.4 42.9,9.2 48.5,3.2 Z m -8.8,12.9 h 6.3 C 52.1,13.5 51.5,10.8 50.6,8.3 h -0.1 c -1.9,2.6 -3.4,5.2 -4.6,7.8 z"
       id="path6"
       inkscape:connector-curvature="0"
       style="fill:#e52320" /><path
       class="st0"
       d="m 75,2.7 c 2.3,0 4.5,0.5 5.7,1.4 l -1,5.1 C 77.7,8.3 76.3,8 74.5,8 c -5,0 -6.7,3.3 -7.3,6.2 -0.6,3 -0.1,6.2 4.9,6.2 1.8,0 3.3,-0.3 5.7,-1.2 l -1,5.1 c -1.6,0.9 -4,1.4 -6.3,1.4 C 62,25.7 59.6,20.3 60.8,14.2 62,8.1 66.4,2.7 75,2.7 Z"
       id="path8"
       inkscape:connector-curvature="0"
       style="fill:#e52320" /><path
       class="st0"
       d="M 90.3,3.2 86,25.4 H 79.7 L 84,3.1 h 6.3 z"
       id="path10"
       inkscape:connector-curvature="0"
       style="fill:#e52320" /><path
       class="st0"
       d="m 97.5,12.2 c -0.2,1.9 -0.4,3.6 -0.7,4.9 l -1.6,8.3 H 89.4 L 93.7,3.1 H 99 l 6.5,9.3 c 0.3,0.4 0.6,1 0.8,1.5 0.2,-1.7 0.3,-3.3 0.6,-4.5 l 1.2,-6.3 h 5.8 l -4.3,22.3 h -4.4 c -0.4,-2 -1.1,-3.7 -2,-5.1 z"
       id="path12"
       inkscape:connector-curvature="0"
       style="fill:#e52320" /><path
       class="st0"
       d="m 134,14.9 -1.8,9.4 c -2.2,0.9 -6.1,1.4 -7.9,1.4 -9.4,0 -11.5,-5.2 -10.3,-11.3 1.2,-6.3 6,-11.7 15.3,-11.7 2.4,0 4.9,0.5 6.1,1.4 l -1,5.1 C 132.4,8.3 131,8 128.3,8 c -4.9,0 -7.2,2.7 -7.9,6.5 -0.6,3 -0.1,6.3 4.9,6.3 0.6,0 1.1,0 1.6,-0.1 l 1.1,-5.8 z"
       id="path14"
       inkscape:connector-curvature="0"
       style="fill:#e52320" /><path
       class="st0"
       d="m 8.1,46.2 c 1.9,0 3.1,1.5 2.7,3.4 C 10.4,51.5 8.6,53 6.7,53 4.8,53 3.6,51.5 4,49.6 4.4,47.7 6.2,46.2 8.1,46.2 Z"
       id="path16"
       inkscape:connector-curvature="0"
       style="fill:#e52320" /><path
       class="st0"
       d="m 26.6,29.9 c 2.3,0 4.5,0.5 5.7,1.4 l -1,5.1 c -2.1,-0.9 -3.4,-1.3 -5.2,-1.3 -5,0 -6.7,3.3 -7.3,6.2 -0.6,3 -0.1,6.2 4.9,6.2 1.8,0 3.3,-0.3 5.7,-1.2 l -1,5.1 c -1.6,0.9 -4,1.4 -6.3,1.4 -8.5,0 -10.9,-5.4 -9.7,-11.5 1.2,-5.9 5.7,-11.4 14.2,-11.4 z"
       id="path18"
       inkscape:connector-curvature="0"
       style="fill:#e52320" /><path
       class="st0"
       d="M 54.7,41.4 C 53.5,47.7 48.7,53 41.2,53 33.6,53 30.9,47.8 32.1,41.4 33.3,35.1 38,30 45.6,30 c 7.6,-0.1 10.3,5.1 9.1,11.4 z M 42.1,48 c 3.1,0 5.4,-2.6 6.1,-6.6 0.8,-4 -0.5,-6.5 -3.6,-6.5 -3.1,0 -5.4,2.5 -6.1,6.5 -0.8,4 0.5,6.6 3.6,6.6 z"
       id="path20"
       inkscape:connector-curvature="0"
       style="fill:#e52320" /><path
       class="st0"
       d="m 62.9,38.3 c -0.2,2.2 -0.4,4.2 -0.7,5.8 l -1.6,8.5 H 54.8 L 59,30.4 h 7.4 l 3,8.9 c 0.2,0.7 0.4,1.5 0.5,2.2 0.4,-0.8 0.9,-1.5 1.4,-2.2 l 6.4,-8.9 H 85 L 80.8,52.7 H 75 l 1.6,-8.5 c 0.3,-1.6 0.9,-3.8 1.6,-6.1 l -3.3,4.7 c -3.9,5.5 -4,7 -4.6,8.7 h -4.5 c 0,-1.6 0.1,-3.1 -1.6,-8.7 z"
       id="path22"
       inkscape:connector-curvature="0"
       style="fill:#e52320" /></g></svg>