<svg height="35.864529" viewBox="0 0 129.46134 50.300001" width="93.744637" xmlns="http://www.w3.org/2000/svg"><g fill="#e52320" transform="translate(-4.998142 -2.7)"><path d="m28.4 2.7c6.9 0 9 3.8 8.3 7.6-.5 2.7-2.4 4.8-5.3 5.9l.3.8c1.3 2.8 2.2 3.7 4.3 3.5l-1 4.9c-4.7.9-7.1-.7-9.1-5.4l-.9-2.1c-.6 0-1.2-.1-1.8-.1l-1.5 7.7h-6.1l4.1-21.3c3.7-1.2 5.7-1.5 8.7-1.5zm-3.3 5.2-1 5.3c.7.1 1.5.1 2.2.1 2 0 3.7-.9 4.1-3 .2-1.3-.4-2.6-2.9-2.6-1 0-1.7.1-2.4.2z"/><path d="m54.7 3.2c3.3 6 4.6 13.2 3.4 19.4l-.6 2.9h-6.3l.6-2.9c.1-.6.2-1.1.3-1.7h-7.8c-.2.6-.3 1.2-.4 1.7l-.6 2.9h-6.3l.6-2.9c1.2-6.2 5.3-13.4 10.9-19.4zm-8.8 12.9h6.3c-.1-2.6-.7-5.3-1.6-7.8h-.1c-1.9 2.6-3.4 5.2-4.6 7.8z"/><path d="m75 2.7c2.3 0 4.5.5 5.7 1.4l-1 5.1c-2-.9-3.4-1.2-5.2-1.2-5 0-6.7 3.3-7.3 6.2-.6 3-.1 6.2 4.9 6.2 1.8 0 3.3-.3 5.7-1.2l-1 5.1c-1.6.9-4 1.4-6.3 1.4-8.5 0-10.9-5.4-9.7-11.5s5.6-11.5 14.2-11.5z"/><path d="m90.3 3.2-4.3 22.2h-6.3l4.3-22.3h6.3z"/><path d="m97.5 12.2c-.2 1.9-.4 3.6-.7 4.9l-1.6 8.3h-5.8l4.3-22.3h5.3l6.5 9.3c.3.4.6 1 .8 1.5.2-1.7.3-3.3.6-4.5l1.2-6.3h5.8l-4.3 22.3h-4.4c-.4-2-1.1-3.7-2-5.1z"/><path d="m134 14.9-1.8 9.4c-2.2.9-6.1 1.4-7.9 1.4-9.4 0-11.5-5.2-10.3-11.3 1.2-6.3 6-11.7 15.3-11.7 2.4 0 4.9.5 6.1 1.4l-1 5.1c-2-.9-3.4-1.2-6.1-1.2-4.9 0-7.2 2.7-7.9 6.5-.6 3-.1 6.3 4.9 6.3.6 0 1.1 0 1.6-.1l1.1-5.8z"/><path d="m8.1 46.2c1.9 0 3.1 1.5 2.7 3.4s-2.2 3.4-4.1 3.4-3.1-1.5-2.7-3.4 2.2-3.4 4.1-3.4z"/><path d="m26.6 29.9c2.3 0 4.5.5 5.7 1.4l-1 5.1c-2.1-.9-3.4-1.3-5.2-1.3-5 0-6.7 3.3-7.3 6.2-.6 3-.1 6.2 4.9 6.2 1.8 0 3.3-.3 5.7-1.2l-1 5.1c-1.6.9-4 1.4-6.3 1.4-8.5 0-10.9-5.4-9.7-11.5 1.2-5.9 5.7-11.4 14.2-11.4z"/><path d="m54.7 41.4c-1.2 6.3-6 11.6-13.5 11.6-7.6 0-10.3-5.2-9.1-11.6 1.2-6.3 5.9-11.4 13.5-11.4 7.6-.1 10.3 5.1 9.1 11.4zm-12.6 6.6c3.1 0 5.4-2.6 6.1-6.6.8-4-.5-6.5-3.6-6.5s-5.4 2.5-6.1 6.5c-.8 4 .5 6.6 3.6 6.6z"/><path d="m62.9 38.3c-.2 2.2-.4 4.2-.7 5.8l-1.6 8.5h-5.8l4.2-22.2h7.4l3 8.9c.2.7.4 1.5.5 2.2.4-.8.9-1.5 1.4-2.2l6.4-8.9h7.3l-4.2 22.3h-5.8l1.6-8.5c.3-1.6.9-3.8 1.6-6.1l-3.3 4.7c-3.9 5.5-4 7-4.6 8.7h-4.5c0-1.6.1-3.1-1.6-8.7z"/></g></svg>