<?xml version="1.0" encoding="UTF-8" standalone="no"?>
<svg
   xmlns:dc="http://purl.org/dc/elements/1.1/"
   xmlns:cc="http://creativecommons.org/ns#"
   xmlns:rdf="http://www.w3.org/1999/02/22-rdf-syntax-ns#"
   xmlns:svg="http://www.w3.org/2000/svg"
   xmlns="http://www.w3.org/2000/svg"
   xmlns:sodipodi="http://sodipodi.sourceforge.net/DTD/sodipodi-0.dtd"
   xmlns:inkscape="http://www.inkscape.org/namespaces/inkscape"
   version="1.1"
   id="Layer_1"
   x="0px"
   y="0px"
   viewBox="0 0 487.7 55.9"
   style="enable-background:new 0 0 487.7 55.9;"
   xml:space="preserve"
   inkscape:version="0.91 r13725"
   sodipodi:docname="Racing.com.svg"><metadata
     id="metadata29"><rdf:RDF><cc:Work
         rdf:about=""><dc:format>image/svg+xml</dc:format><dc:type
           rdf:resource="http://purl.org/dc/dcmitype/StillImage" /></cc:Work></rdf:RDF></metadata><defs
     id="defs27" /><sodipodi:namedview
     pagecolor="#ffffff"
     bordercolor="#666666"
     borderopacity="1"
     objecttolerance="10"
     gridtolerance="10"
     guidetolerance="10"
     inkscape:pageopacity="0"
     inkscape:pageshadow="2"
     inkscape:window-width="1920"
     inkscape:window-height="1017"
     id="namedview25"
     showgrid="false"
     inkscape:zoom="0.59052695"
     inkscape:cx="243.85001"
     inkscape:cy="27.950001"
     inkscape:window-x="-8"
     inkscape:window-y="-8"
     inkscape:window-maximized="1"
     inkscape:current-layer="Layer_1" /><g
     id="g3"
     style="fill:#ed1c24;fill-opacity:1"><path
       d="M300.1,39.4c-4.6,0-8.9,3.7-9.8,8.3c-0.9,4.6,2,8.2,6.6,8.2c4.6,0,9-3.6,9.9-8.2C307.7,43.1,304.7,39.4,300.1,39.4z"
       id="path5"
       style="fill:#ed1c24;fill-opacity:1" /><path
       d="M344.6,12.8c4.4,0,7.7,0.8,12.7,3l2.4-12.4c-3-2.2-8.4-3.5-14-3.5C325,0,314,13.2,311.2,28c-2.9,14.8,2.9,28,23.7,28c5.6,0,11.5-1.2,15.3-3.4l2.4-12.4c-5.9,2.3-9.5,3-13.9,3c-12.2,0-13.3-7.9-11.9-15.2C328.2,20.7,332.3,12.8,344.6,12.8z"
       id="path7"
       style="fill:#ed1c24;fill-opacity:1" /><path
       d="M391.9,0C373.4,0,362,12.5,359,27.8c-3,15.4,3.5,28.1,22,28.1c18.3,0,29.9-12.7,32.9-28.1C416.8,12.5,410.2,0,391.9,0z M398.3,27.8c-1.9,9.7-7.3,16-14.9,16c-7.6,0-10.7-6.3-8.8-16c1.9-9.6,7.3-15.7,14.9-15.7C397.2,12.1,400.1,18.2,398.3,27.8z"
       id="path9"
       style="fill:#ed1c24;fill-opacity:1" /><path
       d="M469.8,1.1l-15.5,21.7c-1.3,1.8-2.4,3.6-3.4,5.5c-0.3-1.8-0.7-3.7-1.3-5.5l-7.3-21.7h-17.9l-10.3,54.2h14l3.9-20.7c0.7-3.8,1.3-8.7,1.8-14l3.1,10.5c4,13.5,3.9,17.1,3.9,21.1h11c1.5-4,1.8-7.8,11.2-21.1l8.1-11.3c-1.7,5.7-3.1,10.9-3.8,14.9l-4,20.7h14.1l10.3-54.2H469.8z"
       id="path11"
       style="fill:#ed1c24;fill-opacity:1" /><path
       d="M80.1,1.1C66.5,15.6,56.6,33.1,53.7,48.1l-1.4,7.1h15.2l1.4-7.1c0.3-1.3,0.5-2.8,1-4.2h19c-0.2,1.4-0.4,2.8-0.7,4.2l-1.4,7.1h15.2l1.4-7.1c2.9-15-0.2-32.6-8.2-47.1H80.1z M73.8,32.6c2.9-6.4,6.7-12.8,11.3-19h0.3c2.3,6.2,3.6,12.5,3.9,19H73.8z"
       id="path13"
       style="fill:#ed1c24;fill-opacity:1" /><path
       d="M31.3,0c-7.4,0-12.2,0.6-21.3,3.4L0,55.2h14.9l3.6-18.7c1.5,0.1,2.9,0.3,4.5,0.3l2.3,5.3c4.9,11.4,10.9,15.4,22.2,13.1l2.3-12c-5.1,0.5-7.3-1.6-10.4-8.4L38.6,33c6.9-2.8,11.6-7.8,12.9-14.4C53.3,9.2,48,0,31.3,0zM36.1,18.6c-1,5.1-5.1,7.3-10.1,7.3c-1.8,0-3.7-0.1-5.4-0.4l2.5-13c1.8-0.3,3.6-0.4,5.8-0.4C35.2,12.1,36.7,15.2,36.1,18.6z"
       id="path15"
       style="fill:#ed1c24;fill-opacity:1" /><path
       d="M225.1,1.1l-3,15.2c-0.6,3-1,6.9-1.4,11c-0.5-1.3-1.2-2.5-1.9-3.6L203.1,1.1h-12.9l-10.5,54.2h14.2l3.9-20.3c0.6-3.2,1.2-7.4,1.6-12l13.7,20c2.2,3.4,3.9,7.4,4.9,12.3h10.8l10.5-54.2H225.1z"
       id="path17"
       style="fill:#ed1c24;fill-opacity:1" /><path
       d="M143.4,12.8c4.4,0,7.7,0.8,12.7,3l2.4-12.4c-3-2.2-8.4-3.5-14-3.5c-20.7,0-31.7,13.2-34.5,28c-2.9,14.8,2.9,28,23.7,28c5.6,0,11.5-1.2,15.3-3.4l2.4-12.4c-5.9,2.3-9.5,3-13.9,3c-12.2,0-13.3-7.9-11.9-15.2C127,20.7,131.2,12.8,143.4,12.8z"
       id="path19"
       style="fill:#ed1c24;fill-opacity:1" /><path
       d="M274.3,12.8c6.6,0,9.9,0.8,14.9,3l2.4-12.4c-3-2.2-9-3.5-14.8-3.5c-22.7,0-34.3,13.1-37.3,28.5c-2.9,14.8,2.2,27.4,25,27.4c4.4,0,14-1.3,19.3-3.5l4.4-22.9h-14.5l-2.7,14.1c-1.3,0.1-2.7,0.2-4,0.2c-12.2,0-13.3-8.1-11.9-15.3C256.8,19.3,262.4,12.8,274.3,12.8z"
       id="path21"
       style="fill:#ed1c24;fill-opacity:1" /><polygon
       points="166.7,1.1 156.2,55.2 171.4,55.2 181.9,1.1"
       id="polygon23"
       style="fill:#ed1c24;fill-opacity:1" /></g></svg>