<?xml version="1.0" encoding="UTF-8"?>
<!-- Generator: Adobe Illustrator 19.2.1, SVG Export Plug-In . SVG Version: 6.00 Build 0)  -->
<svg id="Layer_1" width="93.745" height="35.865" version="1.1" viewBox="0 0 129.46 50.3" xml:space="preserve" xmlns="http://www.w3.org/2000/svg" xmlns:cc="http://creativecommons.org/ns#" xmlns:dc="http://purl.org/dc/elements/1.1/" xmlns:rdf="http://www.w3.org/1999/02/22-rdf-syntax-ns#"><metadata id="metadata31"><rdf:RDF><cc:Work rdf:about=""><dc:format>image/svg+xml</dc:format><dc:type rdf:resource="http://purl.org/dc/dcmitype/StillImage"/><dc:title/></cc:Work></rdf:RDF></metadata><style id="style2" type="text/css">
	.st0{fill:#E52320;}
</style><g id="g24" transform="translate(-4.9981 -2.7)" fill="#e52320"><path id="path4" class="st0" d="m28.4 2.7c6.9 0 9 3.8 8.3 7.6-0.5 2.7-2.4 4.8-5.3 5.9l0.3 0.8c1.3 2.8 2.2 3.7 4.3 3.5l-1 4.9c-4.7 0.9-7.1-0.7-9.1-5.4l-0.9-2.1c-0.6 0-1.2-0.1-1.8-0.1l-1.5 7.7h-6.1l4.1-21.3c3.7-1.2 5.7-1.5 8.7-1.5zm-3.3 5.2-1 5.3c0.7 0.1 1.5 0.1 2.2 0.1 2 0 3.7-0.9 4.1-3 0.2-1.3-0.4-2.6-2.9-2.6-1 0-1.7 0.1-2.4 0.2z"/><path id="path6" class="st0" d="m54.7 3.2c3.3 6 4.6 13.2 3.4 19.4l-0.6 2.9h-6.3l0.6-2.9c0.1-0.6 0.2-1.1 0.3-1.7h-7.8c-0.2 0.6-0.3 1.2-0.4 1.7l-0.6 2.9h-6.3l0.6-2.9c1.2-6.2 5.3-13.4 10.9-19.4zm-8.8 12.9h6.3c-0.1-2.6-0.7-5.3-1.6-7.8h-0.1c-1.9 2.6-3.4 5.2-4.6 7.8z"/><path id="path8" class="st0" d="m75 2.7c2.3 0 4.5 0.5 5.7 1.4l-1 5.1c-2-0.9-3.4-1.2-5.2-1.2-5 0-6.7 3.3-7.3 6.2-0.6 3-0.1 6.2 4.9 6.2 1.8 0 3.3-0.3 5.7-1.2l-1 5.1c-1.6 0.9-4 1.4-6.3 1.4-8.5 0-10.9-5.4-9.7-11.5s5.6-11.5 14.2-11.5z"/><path id="path10" class="st0" d="m90.3 3.2-4.3 22.2h-6.3l4.3-22.3h6.3z"/><path id="path12" class="st0" d="m97.5 12.2c-0.2 1.9-0.4 3.6-0.7 4.9l-1.6 8.3h-5.8l4.3-22.3h5.3l6.5 9.3c0.3 0.4 0.6 1 0.8 1.5 0.2-1.7 0.3-3.3 0.6-4.5l1.2-6.3h5.8l-4.3 22.3h-4.4c-0.4-2-1.1-3.7-2-5.1z"/><path id="path14" class="st0" d="m134 14.9-1.8 9.4c-2.2 0.9-6.1 1.4-7.9 1.4-9.4 0-11.5-5.2-10.3-11.3 1.2-6.3 6-11.7 15.3-11.7 2.4 0 4.9 0.5 6.1 1.4l-1 5.1c-2-0.9-3.4-1.2-6.1-1.2-4.9 0-7.2 2.7-7.9 6.5-0.6 3-0.1 6.3 4.9 6.3 0.6 0 1.1 0 1.6-0.1l1.1-5.8z"/><path id="path16" class="st0" d="m8.1 46.2c1.9 0 3.1 1.5 2.7 3.4s-2.2 3.4-4.1 3.4-3.1-1.5-2.7-3.4 2.2-3.4 4.1-3.4z"/><path id="path18" class="st0" d="m26.6 29.9c2.3 0 4.5 0.5 5.7 1.4l-1 5.1c-2.1-0.9-3.4-1.3-5.2-1.3-5 0-6.7 3.3-7.3 6.2-0.6 3-0.1 6.2 4.9 6.2 1.8 0 3.3-0.3 5.7-1.2l-1 5.1c-1.6 0.9-4 1.4-6.3 1.4-8.5 0-10.9-5.4-9.7-11.5 1.2-5.9 5.7-11.4 14.2-11.4z"/><path id="path20" class="st0" d="m54.7 41.4c-1.2 6.3-6 11.6-13.5 11.6-7.6 0-10.3-5.2-9.1-11.6 1.2-6.3 5.9-11.4 13.5-11.4 7.6-0.1 10.3 5.1 9.1 11.4zm-12.6 6.6c3.1 0 5.4-2.6 6.1-6.6 0.8-4-0.5-6.5-3.6-6.5s-5.4 2.5-6.1 6.5c-0.8 4 0.5 6.6 3.6 6.6z"/><path id="path22" class="st0" d="m62.9 38.3c-0.2 2.2-0.4 4.2-0.7 5.8l-1.6 8.5h-5.8l4.2-22.2h7.4l3 8.9c0.2 0.7 0.4 1.5 0.5 2.2 0.4-0.8 0.9-1.5 1.4-2.2l6.4-8.9h7.3l-4.2 22.3h-5.8l1.6-8.5c0.3-1.6 0.9-3.8 1.6-6.1l-3.3 4.7c-3.9 5.5-4 7-4.6 8.7h-4.5c0-1.6 0.1-3.1-1.6-8.7z"/></g></svg>
