<?xml version="1.0" encoding="UTF-8"?>
<svg id="Layer_1" enable-background="new 0 0 487.7 55.9" version="1.1" viewBox="0 0 487.7 55.9" xml:space="preserve" xmlns="http://www.w3.org/2000/svg" xmlns:cc="http://creativecommons.org/ns#" xmlns:dc="http://purl.org/dc/elements/1.1/" xmlns:rdf="http://www.w3.org/1999/02/22-rdf-syntax-ns#"><metadata id="metadata29"><rdf:RDF><cc:Work rdf:about=""><dc:format>image/svg+xml</dc:format><dc:type rdf:resource="http://purl.org/dc/dcmitype/StillImage"/></cc:Work></rdf:RDF></metadata><g id="g3" fill="#ed1c24"><path id="path5" d="m300.1 39.4c-4.6 0-8.9 3.7-9.8 8.3s2 8.2 6.6 8.2 9-3.6 9.9-8.2-2.1-8.3-6.7-8.3z"/><path id="path7" d="m344.6 12.8c4.4 0 7.7 0.8 12.7 3l2.4-12.4c-3-2.2-8.4-3.5-14-3.5-20.7 0.1-31.7 13.3-34.5 28.1-2.9 14.8 2.9 28 23.7 28 5.6 0 11.5-1.2 15.3-3.4l2.4-12.4c-5.9 2.3-9.5 3-13.9 3-12.2 0-13.3-7.9-11.9-15.2s5.5-15.2 17.8-15.2z"/><path id="path9" d="m391.9 0c-18.5 0-29.9 12.5-32.9 27.8-3 15.4 3.5 28.1 22 28.1 18.3 0 29.9-12.7 32.9-28.1 2.9-15.3-3.7-27.8-22-27.8zm6.4 27.8c-1.9 9.7-7.3 16-14.9 16s-10.7-6.3-8.8-16c1.9-9.6 7.3-15.7 14.9-15.7 7.7 0 10.6 6.1 8.8 15.7z"/><path id="path11" d="m469.8 1.1-15.5 21.7c-1.3 1.8-2.4 3.6-3.4 5.5-0.3-1.8-0.7-3.7-1.3-5.5l-7.3-21.7h-17.9l-10.3 54.2h14l3.9-20.7c0.7-3.8 1.3-8.7 1.8-14l3.1 10.5c4 13.5 3.9 17.1 3.9 21.1h11c1.5-4 1.8-7.8 11.2-21.1l8.1-11.3c-1.7 5.7-3.1 10.9-3.8 14.9l-4 20.7h14.1l10.3-54.2h-17.9z"/><path id="path13" d="m80.1 1.1c-13.6 14.5-23.5 32-26.4 47l-1.4 7.1h15.2l1.4-7.1c0.3-1.3 0.5-2.8 1-4.2h19c-0.2 1.4-0.4 2.8-0.7 4.2l-1.4 7.1h15.2l1.4-7.1c2.9-15-0.2-32.6-8.2-47.1h-15.1zm-6.3 31.5c2.9-6.4 6.7-12.8 11.3-19h0.3c2.3 6.2 3.6 12.5 3.9 19h-15.5z"/><path id="path15" d="m31.3 0c-7.4 0-12.2 0.6-21.3 3.4l-10 51.8h14.9l3.6-18.7c1.5 0.1 2.9 0.3 4.5 0.3l2.3 5.3c4.9 11.4 10.9 15.4 22.2 13.1l2.3-12c-5.1 0.5-7.3-1.6-10.4-8.4l-0.8-1.8c6.9-2.8 11.6-7.8 12.9-14.4 1.8-9.4-3.5-18.6-20.2-18.6zm4.8 18.6c-1 5.1-5.1 7.3-10.1 7.3-1.8 0-3.7-0.1-5.4-0.4l2.5-13c1.8-0.3 3.6-0.4 5.8-0.4 6.3 0 7.8 3.1 7.2 6.5z"/><path id="path17" d="m225.1 1.1-3 15.2c-0.6 3-1 6.9-1.4 11-0.5-1.3-1.2-2.5-1.9-3.6l-15.7-22.6h-12.9l-10.5 54.2h14.2l3.9-20.3c0.6-3.2 1.2-7.4 1.6-12l13.7 20c2.2 3.4 3.9 7.4 4.9 12.3h10.8l10.5-54.2h-14.2z"/><path id="path19" d="m143.4 12.8c4.4 0 7.7 0.8 12.7 3l2.4-12.4c-3-2.2-8.4-3.5-14-3.5-20.7 0-31.7 13.2-34.5 28-2.9 14.8 2.9 28 23.7 28 5.6 0 11.5-1.2 15.3-3.4l2.4-12.4c-5.9 2.3-9.5 3-13.9 3-12.2 0-13.3-7.9-11.9-15.2 1.4-7.2 5.6-15.1 17.8-15.1z"/><path id="path21" d="m274.3 12.8c6.6 0 9.9 0.8 14.9 3l2.4-12.4c-3-2.2-9-3.5-14.8-3.5-22.7 0-34.3 13.1-37.3 28.5-2.9 14.8 2.2 27.4 25 27.4 4.4 0 14-1.3 19.3-3.5l4.4-22.9h-14.5l-2.7 14.1c-1.3 0.1-2.7 0.2-4 0.2-12.2 0-13.3-8.1-11.9-15.3 1.7-9.1 7.3-15.6 19.2-15.6z"/><polygon id="polygon23" points="166.7 1.1 156.2 55.2 171.4 55.2 181.9 1.1"/></g></svg>
