<svg width="800" height="313" space="preserve" version="1.1" viewBox="0 0 800 313" xmlns="http://www.w3.org/2000/svg">
 <g transform="matrix(1.7234 0 0 1.7234 -158.67 920.08)">
  <g transform="matrix(1.4437 0 0 1.4437 -105.43 -917.76)" fill="#010101">
   <path class="st0" d="m136.8 335.2c6.2-6 11.7-14 15.8-23.5 4.2-9.5 6.2-19 6.2-27.8-6 6-11.7 14-15.8 23.5-4.2 9.6-6.2 19.1-6.2 27.8"/>
   <path class="st0" d="m143.3 348.5c8.2-8 15.8-18.8 21.5-31.5 5.5-12.8 8.2-25.8 8.5-37.2-8.3 8-15.8 18.8-21.2 31.5-5.8 12.9-8.6 25.7-8.8 37.2"/>
   <path class="st0" d="m152.3 367.2c11.2-10.7 21.5-25.5 29-42.7s11.5-35 11.7-50.5h-0.3c-11.2 10.8-21.5 25.5-29 42.8s-11.2 34.7-11.4 50.4"/>
   <path class="st0" d="m164.8 391.7c15.3-14.5 29-34.3 39-57.8 10.3-23.5 15.3-47 15.5-68l-0.3 0.2c-15 14.5-28.7 34.2-39 57.8-10 23.1-15 46.8-15.2 67.8"/>
  </g>
 </g>
 <g transform="matrix(.75615 0 0 .75615 -.0018707 .17249)">
  <path d="m491.8 346.1h-43.3l-17.5-59.4-20 59.7h-35.7l-20-59.7-17.5 59.4h-42.6l40.5-124.6h36.1l21.7 61.5 21.7-61.5h36.1z"/>
  <path d="m556.3 348.2c-9.5 0-18.4-1.7-26.6-4.9-8.2-3.3-15.3-7.8-21.4-13.6s-10.8-12.6-14.2-20.4-5.1-16.2-5.1-25.2v-0.4c0-9 1.7-17.3 5.2-25.2 3.5-7.8 8.2-14.7 14.3-20.5s13.2-10.4 21.5-13.8c8.2-3.4 17.1-5 26.7-5s18.4 1.7 26.6 4.9c8.2 3.3 15.3 7.8 21.4 13.6s10.8 12.6 14.2 20.4 5.1 16.2 5.1 25.2v0.4c0 9-1.7 17.4-5.2 25.2s-8.3 14.7-14.3 20.5c-6.1 5.8-13.2 10.4-21.5 13.8s-17.2 5-26.7 5zm0.3-36.6c3.9 0 7.4-0.8 10.6-2.3s5.9-3.6 8.1-6.1 3.9-5.4 5.1-8.7 1.8-6.8 1.8-10.4v-0.4c0-3.6-0.6-7.2-1.9-10.5-1.2-3.4-3-6.3-5.2-8.9s-5-4.7-8.1-6.2c-3.2-1.5-6.8-2.3-10.8-2.3-3.9 0-7.4 0.8-10.6 2.3s-5.9 3.6-8.1 6.1-4 5.5-5.1 8.7c-1.2 3.3-1.8 6.8-1.8 10.4v0.4c0 3.7 0.6 7.2 1.9 10.5s3 6.3 5.2 8.9 4.9 4.7 8.1 6.2c3.2 1.6 6.8 2.3 10.8 2.3z"/>
  <path d="m621 221.9h46.3l24 69.5 24-69.5h45.6l-50.2 124.6h-39.6z"/>
  <path d="m770.1 221.9h41.4v123.7h-41.4z"/>
  <path d="m829.2 221.9h105.5v33.9h-64.9v12.5h60.4v29.9h-60.4v13.4h65.8v33.9h-106.4z"/>
  <path d="m1003.3 347.9c-12.6 0-24.4-1.7-35.3-5.2s-20.3-8.7-28.2-15.6l22.1-26.3c6.7 5.2 13.8 8.9 21.2 11.1s14.8 3.4 22.1 3.4c3.8 0 6.5-0.5 8.1-1.4s2.5-2.2 2.5-3.9v-0.4c0-1.8-1.2-3.2-3.6-4.4s-6.9-2.4-13.5-3.7c-7-1.4-13.6-3.1-19.9-4.9-6.3-1.9-11.8-4.3-16.6-7.2s-8.6-6.6-11.4-11-4.2-9.9-4.2-16.5v-0.4c0-5.9 1.1-11.4 3.4-16.4 2.3-5.1 5.7-9.5 10.1-13.3s9.9-6.7 16.4-8.8 14.1-3.2 22.5-3.2c12 0 22.5 1.4 31.6 4.2 9 2.8 17.1 7.1 24.3 12.7l-20.1 27.9c-5.9-4.2-12.1-7.3-18.6-9.3-6.5-1.9-12.7-2.9-18.5-2.9-3.1 0-5.3 0.5-6.8 1.4s-2.2 2.2-2.2 3.7v0.4c0 0.8 0.2 1.6 0.7 2.3s1.3 1.4 2.6 2c1.2 0.6 2.9 1.3 5 1.9s4.8 1.2 8.1 1.8c7.9 1.4 15.1 3.1 21.6 5.1s12 4.6 16.7 7.7 8.2 6.9 10.8 11.2c2.5 4.4 3.8 9.7 3.8 15.9v0.4c0 6.5-1.3 12.3-3.9 17.5s-6.2 9.6-11 13.2c-4.7 3.6-10.5 6.4-17.2 8.3-6.9 1.7-14.4 2.7-22.6 2.7z"/>
  <path d="m335.7 221.5-40.5 124.6h42.6l35.5-120.3-1.6-4.3z" fill="#939598"/>
 </g>
 <g transform="matrix(.75615 0 0 .75615 -.0018707 .17249)">
  <path d="m295.2 63.7h43.3l17.5 59.4 20-59.7h35.7l20 59.7 17.5-59.4h42.6l-40.5 124.6h-36.1l-21.7-61.5-21.7 61.5h-36.1z"/>
  <path d="m554.5 190c-9.5 0-18.4-1.7-26.6-4.9-8.2-3.3-15.3-7.8-21.4-13.6s-10.8-12.6-14.2-20.4-5.1-16.2-5.1-25.2v-0.4c0-9 1.7-17.3 5.2-25.2 3.5-7.8 8.2-14.7 14.3-20.5s13.2-10.4 21.5-13.8c8.2-3.4 17.1-5 26.7-5s18.4 1.7 26.6 4.9c8.2 3.3 15.3 7.8 21.4 13.6s10.8 12.6 14.2 20.4 5.1 16.2 5.1 25.2v0.4c0 9-1.7 17.4-5.2 25.2s-8.3 14.7-14.3 20.5c-6.1 5.8-13.2 10.4-21.5 13.8s-17.2 5-26.7 5zm0.4-36.5c3.9 0 7.4-0.8 10.6-2.3s5.9-3.6 8.1-6.1 3.9-5.4 5.1-8.7 1.8-6.8 1.8-10.4v-0.4c0-3.7-0.6-7.2-1.9-10.5-1.2-3.4-3-6.3-5.2-8.9s-5-4.7-8.1-6.2c-3.2-1.5-6.8-2.3-10.8-2.3-3.9 0-7.4 0.8-10.6 2.3s-5.9 3.6-8.1 6.1-4 5.5-5.1 8.7c-1.2 3.3-1.8 6.8-1.8 10.4v0.4c0 3.7 0.6 7.2 1.9 10.5 1.2 3.4 3 6.3 5.2 8.9s4.9 4.7 8.1 6.2 6.7 2.3 10.8 2.3z"/>
  <path d="m633.5 63.7h60.5c11.1 0 20.2 1.3 27.3 3.8s12.9 6 17.2 10.3c3.8 3.8 6.6 8 8.5 12.7s2.8 10.3 2.8 16.6v0.4c0 9.1-2.2 16.7-6.5 23-4.4 6.2-10.3 11.2-17.9 14.8l28.8 42.1h-47.2l-23.3-35.4h-8.9v35.4h-41.4v-123.7zm59.2 58.8c4.9 0 8.8-1.1 11.7-3.2 2.8-2.1 4.2-5.1 4.2-8.8v-0.4c0-4-1.4-7-4.2-8.9s-6.7-2.9-11.5-2.9h-18v24.2z"/>
  <path d="m765.5 63.7h41.4v88.3h58.1v35.4h-99.5z"/>
  <path d="m875 63.7h47.4c12.3 0 23 1.4 32.3 4.3 9.2 2.9 16.9 7 23.1 12.3 6.1 5.3 10.7 11.7 13.8 19.2s4.6 15.8 4.6 25v0.4c0 9.2-1.6 17.6-4.7 25.3s-7.8 14.3-14.1 19.8-14.1 9.8-23.5 12.9-20.3 4.6-32.8 4.6h-46v-123.8zm48.2 87.6c9.5 0 17.1-2 22.7-6.1s8.4-10.6 8.4-19.5v-0.4c0-9-2.8-15.5-8.4-19.5-5.6-4.1-13.2-6.1-22.7-6.1h-6.9v51.6z"/>
  <path d="m451.3 188.3 40.5-124.6h-42.6l-35.5 120.3 1.5 4.3z" fill="#939598"/>
 </g>
</svg>
