<svg height="728.88849" viewBox="0 0 1000.0001 683.33295" width="1066.6667" xmlns="http://www.w3.org/2000/svg"><g transform="translate(-149.91046 110.88711)"><g fill="#e52927"><g transform="matrix(3.287150979311 0 0 3.287150979311 -449.029892988324 -874.208908566488)"><path d="m182.37826 346.59814c10.13052-9.73786 19.35792-23.00961 26.17049-38.6962 6.81258-15.70622 10.18942-31.5106 10.36611-45.56767l-.1178.1178c-10.09125 9.71822-19.27939 22.95071-26.07232 38.59803-6.77331 15.62769-10.15015 31.37318-10.36611 45.39098"/><path d="m193.34192 368.63462c13.64685-13.06265 26.07527-30.86362 35.27139-51.95442 9.19623-21.11027 13.77879-42.34482 14.06433-61.24857l-.17612.15474c-13.58834 13.04351-25.97771 30.82525-35.13443 51.83839-9.15673 21.01314-13.73883 42.16982-14.06298 61.01492"/><path d="m208.21437 399.5065c18.55911-17.75864 35.49077-41.94935 47.99581-70.60485 12.52504-28.65528 18.79834-57.53941 19.20179-83.23133l-.24197.19716c-18.47896 17.73954-35.33003 41.87119-47.814 70.42702-12.48397 28.55581-18.73598 57.3203-19.19826 82.91165"/><path d="m228.74286 439.94168c24.95743-23.97263 47.67792-56.67299 64.42367-95.32534 16.78549-38.67198 25.1127-77.62178 25.55423-112.25044l-.31829.27585c-24.83857 23.9732-47.45941 56.55515-64.16499 95.08884-16.70559 38.53368-25.01384 77.66189-25.51424 112.17137"/></g><path d="m703.57778 185.78249h39.82005c-.93811-43.82677-34.38014-73.69492-88.25038-73.69492-46.01739 0-82.77808 27.20808-82.77808 66.91747 0 88.63535 137.22093 45.63874 137.22093 104.83144 0 23.22971-23.19717 34.95251-47.59675 34.95251-33.35925 0-56.89841-16.105-58.46993-48.76697h-39.44201c0 60.34982 48.74818 80.77422 93.94254 80.77422 52.85752 0 91.48529-24.90007 91.48529-70.00012 0-91.44569-137.66898-50.68365-137.66898-106.35479 0-18.92299 17.55838-29.23498 42.15129-29.23498 36.53991 0 47.65192 19.03905 49.58603 40.57614z"/><path d="m764.6641 117.54423v227.68937h111.14088c43.98931 0 77.48554-21.43604 77.48554-63.25495 0-29.14747-10.25438-48.93024-42.54946-59.27039 17.89789-7.75936 31.73421-19.80818 31.73421-49.30898 0-37.63632-24.98961-55.85505-66.38568-55.85505zm39.63218 31.87652h64.67802c25.17561 0 34.72262 14.3355 34.72262 31.94766 0 19.93798-13.3862 31.80536-32.44573 31.80536h-66.95491zm.0003 92.44229h69.76644c27.82931 0 39.95108 15.38303 39.95108 35.84643 0 22.49162-18.15081 35.64762-38.77835 35.64762h-70.93947z"/><path d="m1103.4788 185.78249h39.82c-.9381-43.82677-34.3801-73.69492-88.2503-73.69492-46.0174 0-82.77812 27.20808-82.77812 66.91747 0 88.63535 137.22092 45.63874 137.22092 104.83144 0 23.22971-23.1972 34.95251-47.5967 34.95251-33.3593 0-56.8984-16.105-58.47-48.76697h-39.44197c0 60.34982 48.74817 80.77422 93.94257 80.77422 52.8575 0 91.4853-24.90007 91.4853-70.00012 0-91.44569-137.669-50.68365-137.669-106.35479 0-18.92299 17.5584-29.23498 42.1513-29.23498 36.5399 0 47.6519 19.03905 49.586 40.57614z"/></g><g transform="matrix(1.766568 0 0 1.766568 12.770907 -326.59597)"><path d="m312.08 416.32742h331.3368v92.59258h-331.3368z" fill="#e52927"/><path d="m494.52231 442.28023c7.89633.37086 16.69664-1.20531 23.65808 3.48458 5.68659 3.84773 6.84555 11.27275 6.87645 17.64699.0618 6.60603-.81126 14.38646-6.62921 18.55869-6.96144 4.92169-15.95491 3.32233-23.95941 3.63911.0464-14.44055-.0618-28.8811.0541-43.32937z" fill="#e52927"/></g><path d="m659.87695 586.9375c-3.36314.00013-6.72669.007-10.08984.0293.0292 38.14474.00058 76.28973.0156 114.41992 6.72629.015 13.45146.0156 20.17774.0156.015-17.19425-.0286-34.37411.0156-51.56836 17.31073-.015 34.60724-.015 51.91797 0 0 17.16515.0435 34.31534-.0293 51.48047 6.71173.13096 13.4241.0879 20.15039.0879.015-38.1593 0-76.30447 0-114.44922-6.69717-.015-13.41025-.015-20.10743 0-.015 15.15598-.015 30.31277 0 45.46876-17.32529 0-34.63459.0286-51.94531-.0156-.015-15.15598.0286-30.29714-.0156-45.45313-3.36315-.008-6.7267-.0158-10.08985-.0156zm105.48047.0156c-.029 38.13019.0148 76.25848-.0293 114.38868 16.88853-.0437 33.79206.36467 50.66602-.20313 14.06404-.29118 28.28851-6.65284 36.4707-18.34375 10.01663-14.3698 11.99655-32.86113 10.00196-49.85156-1.79077-14.87936-8.4588-30.2823-21.63477-38.40625-9.08484-6.02746-20.19345-7.52573-30.86523-7.58399-14.87937-.029-29.74456 0-44.60938 0zm20.20703 16.36329 17.48962.0573c9.54084.0313 18.97809 1.04383 27.09046 6.50909 10.71547 7.25043 12.90076 21.24072 12.95899 33.25196.11644 12.448-1.52921 27.11076-12.49219 34.97265-7.23569 5.11558-15.63123 6.77405-24.24719 6.79782l-20.90125.0576z" fill="#f6f6f6" stroke-width="1.884339" transform="matrix(.93750001 0 0 .93750001 149.91046 -110.88711)"/></g></svg>