<?xml version="1.0" encoding="UTF-8" standalone="no"?>
<svg
   xmlns:dc="http://purl.org/dc/elements/1.1/"
   xmlns:cc="http://creativecommons.org/ns#"
   xmlns:rdf="http://www.w3.org/1999/02/22-rdf-syntax-ns#"
   xmlns:svg="http://www.w3.org/2000/svg"
   xmlns="http://www.w3.org/2000/svg"
   xmlns:sodipodi="http://sodipodi.sourceforge.net/DTD/sodipodi-0.dtd"
   xmlns:inkscape="http://www.inkscape.org/namespaces/inkscape"
   width="331.40121pt"
   height="688.02301pt"
   viewBox="0 0 331.40121 688.02301"
   version="1.1"
   id="svg2"
   inkscape:version="0.91 r13725"
   sodipodi:docname="vfs.svg">
  <metadata
     id="metadata95">
    <rdf:RDF>
      <cc:Work
         rdf:about="">
        <dc:format>image/svg+xml</dc:format>
        <dc:type
           rdf:resource="http://purl.org/dc/dcmitype/StillImage" />
        <dc:title></dc:title>
      </cc:Work>
    </rdf:RDF>
  </metadata>
  <defs
     id="defs93" />
  <sodipodi:namedview
     pagecolor="#ffffff"
     bordercolor="#666666"
     borderopacity="1"
     objecttolerance="10"
     gridtolerance="10"
     guidetolerance="10"
     inkscape:pageopacity="0"
     inkscape:pageshadow="2"
     inkscape:window-width="690"
     inkscape:window-height="480"
     id="namedview91"
     showgrid="false"
     fit-margin-top="0"
     fit-margin-left="0"
     fit-margin-right="0"
     fit-margin-bottom="0"
     inkscape:zoom="0.27010014"
     inkscape:cx="207.50153"
     inkscape:cy="428.15375"
     inkscape:window-x="0"
     inkscape:window-y="0"
     inkscape:window-maximized="0"
     inkscape:current-layer="svg2" />
  <g
     id="#ef7622ff"
     transform="translate(-4.9987755,-4)" />
  <g
     id="#fb952bff"
     transform="translate(-4.9987755,-4)" />
  <g
     id="#ffffffff"
     transform="translate(-4.9987755,-4)">
    <path
       d="M 279.72,46.19 C 292.31,31.32 305.43,16.8 320.15,4 c 0.24,18.7 -1.46,37.37 -3.67,55.92 -5.48,43.59 -15.36,86.6 -28.73,128.43 1.61,-1.22 3.23,-2.44 4.93,-3.53 -1.77,2.5 -5.08,3.83 -5.97,6.9 -1.87,5.46 -3.32,11.07 -5.71,16.34 -3.88,2.07 -7.47,4.86 -11.93,5.58 1.15,-2.08 2.46,-4.08 4.04,-5.86 -1.73,1.59 -3.64,2.98 -5.75,4.01 0.61,-4.44 5.58,-6.01 7.53,-9.75 -2.26,1.58 -4.23,3.81 -7.07,4.32 1.43,-1.65 2.95,-3.22 4.36,-4.89 -3.09,0.3 -4.54,4.88 -7.69,3.84 -0.05,-0.59 -0.14,-1.77 -0.18,-2.36 -0.84,1.49 -1.75,2.93 -2.61,4.4 0.1,-0.87 0.3,-2.61 0.4,-3.48 -1.09,1.39 -2.27,2.69 -3.48,3.97 -0.11,0.53 -0.33,1.59 -0.43,2.13 3.05,-1.56 6.26,-2.76 9.47,-3.95 -1.01,3.2 -1.72,6.49 -2.08,9.84 0.55,-0.11 1.63,-0.34 2.18,-0.45 0.32,0.54 0.98,1.63 1.3,2.17 0.29,-0.36 0.85,-1.06 1.13,-1.42 1.92,1.18 2.97,0 3.55,-2 0.2,0.64 0.6,1.92 0.8,2.57 1.24,-0.68 2.52,-1.29 3.8,-1.89 -1.38,-0.55 -2.72,-1.07 -4.09,-1.61 2.2,-1.39 4.21,-3.21 6.75,-3.96 0.05,1.61 -1.03,2.95 -1.6,4.38 1.59,0.96 3.28,0.35 4.84,-0.33 -0.16,0.44 -0.47,1.32 -0.63,1.76 -2.58,1.11 -5.34,2.12 -7.28,4.24 -2.24,2.18 -4.2,5.93 -1.21,8.36 2.23,0.01 4.46,0.08 6.69,0.27 -1.93,1.87 -4.96,2.24 -6.08,4.98 0.21,1.24 0.43,2.49 0.64,3.74 1.8,1.45 3.63,2.88 5.5,4.26 2.19,-0.96 4.52,-0.77 6.77,-0.08 -0.6,4.22 -5.46,2.58 -8.41,3.65 6.43,15.73 10.36,32.53 11.12,49.53 0.85,16.79 0.05,33.89 -4.8,50.08 -1.53,7.27 -3.8,14.4 -7.47,20.9 -3.52,7.29 -7.23,14.52 -11.79,21.24 -6.93,10.79 -15.75,20.18 -23.04,30.71 5.65,2.19 11.81,2.03 17.77,2.48 8.2,-0.09 16.06,-2.81 23.88,-4.98 4.61,-1.22 8.72,-3.78 13.33,-4.99 -3.37,2.21 -6.7,4.79 -8.36,8.6 2.86,-1.17 5.57,-2.66 8.17,-4.31 -4.84,4.86 -10.15,9.72 -17.07,11.23 0.92,0.08 1.83,0.17 2.76,0.27 1.81,-0.91 3.64,-1.79 5.49,-2.63 1.68,2.7 4.04,-0.17 5.99,-0.89 1.61,-0.15 3.23,-0.29 4.85,-0.42 -2.32,1.56 -4.48,3.35 -6.55,5.23 -2.8,2.54 -6.29,4.15 -9.12,6.66 5.72,-1.77 11.35,-3.83 17.21,-5.14 -1.29,1.65 -2.53,3.33 -3.7,5.08 3.61,-0.71 6.67,-2.81 10.13,-3.95 -2.59,2.95 -6.39,4.78 -8.16,8.42 0.94,-0.16 2.8,-0.47 3.74,-0.63 -3.97,3.72 -8.6,6.62 -12.81,10.05 -2.23,1.95 -5.73,2.16 -7.22,4.95 1.36,-0.44 2.71,-0.89 4.06,-1.36 0.01,0.71 0.04,2.12 0.05,2.83 0.91,-0.88 1.04,-2.05 0.79,-3.24 1.17,-0.53 2.35,-1.05 3.54,-1.57 -0.5,0.7 -1.51,2.08 -2.02,2.78 5.19,-1.54 10.29,-3.58 14.73,-6.73 2.34,-1.67 4.62,-3.44 7.15,-4.81 -1.11,1.62 -2.17,3.31 -3.53,4.74 -1.4,1.18 -3.41,1.4 -4.75,2.66 -0.85,1.16 -1.55,2.42 -2.28,3.66 2.3,-1.45 4.68,-2.81 7.29,-3.63 4.4,-1.22 7.23,-5.2 11.52,-6.68 -0.85,0.86 -1.71,1.72 -2.57,2.57 0.53,0.46 1.59,1.36 2.12,1.82 -3.97,2.88 -7.71,6.08 -11.34,9.39 -0.65,0.05 -1.94,0.15 -2.58,0.2 0.29,0.85 0.59,1.71 0.89,2.58 -2.67,0.97 -4.98,2.63 -6.75,4.86 -0.92,-0.29 -1.84,-0.58 -2.75,-0.86 -4.94,2.23 -9.17,5.72 -14.04,8.08 -1.23,0.39 -1.71,1.61 -2.27,2.64 6,-2.71 11.53,-6.4 16.91,-10.18 0.02,0.82 0.06,2.45 0.08,3.26 3.3,-2.06 6.57,-4.19 9.77,-6.41 4.33,-3.06 9.34,-5 13.54,-8.27 3.03,-3.42 7,-5.78 10.28,-8.93 1.32,-0.09 2.65,-0.17 3.98,-0.24 -4.64,7.32 -13.31,11.17 -17.01,19.16 -1.26,1.22 -2.92,1.9 -4.39,2.81 0.98,1.45 2.37,1.94 4.19,1.48 -2,1.58 -3.88,3.31 -5.55,5.23 6.66,-3.4 11.98,-8.79 18.18,-12.9 -0.48,4.76 -5.4,6.95 -8.55,9.88 0.92,-0.16 1.85,-0.31 2.78,-0.45 1.75,-2.11 4.36,-2.4 6.92,-2.06 -1.42,2.16 -3.37,3.86 -5.26,5.59 -0.48,3.4 -3.4,6.17 -6.74,6.76 0.47,0.77 0.96,1.54 1.44,2.32 -0.81,0.12 -2.42,0.35 -3.23,0.47 -0.19,0.53 -0.59,1.58 -0.79,2.11 -0.6,0.15 -1.8,0.44 -2.4,0.59 -0.08,1.43 -0.14,2.87 -0.2,4.31 1.55,-1.29 3.08,-2.6 4.57,-3.94 0.56,0.05 1.66,0.16 2.21,0.21 2.52,-1.71 5.11,-3.53 6.31,-6.44 -0.29,3.48 -2.57,6.12 -5.03,8.38 -3.23,3.21 -6.12,6.81 -9.79,9.56 -5.63,4.46 -10.9,9.34 -17.08,13.06 4.05,0.77 7.93,-0.84 11.21,-3.11 1.78,-1.14 3.51,-2.35 5.26,-3.53 0.89,-0.6 1.8,-1.17 2.63,-1.86 2.45,-2.25 5.15,-4.23 8.2,-5.61 -1.93,2.46 -4.36,4.46 -7.23,5.72 -0.89,2.77 -2.85,4.83 -5.23,6.4 2.71,-0.75 5.43,-1.83 7.16,-4.17 2.91,-1.51 5.87,-2.93 8.77,-4.46 0.21,-1.01 0.42,-2 0.64,-2.99 0.54,-0.12 1.61,-0.35 2.15,-0.47 -0.42,0.85 -0.82,1.73 -1.22,2.61 -1.1,2.03 -2.57,3.81 -4.3,5.34 -0.23,1.15 -0.46,2.3 -0.68,3.46 -0.22,-0.66 -0.67,-1.99 -0.89,-2.65 -0.38,0.62 -0.75,1.26 -1.11,1.9 0.12,0.9 0.24,1.81 0.37,2.72 -1.1,-1.01 -2.28,-1.23 -3.54,-0.66 0.79,0.34 2.38,1.02 3.17,1.36 -1.15,1.21 -2.29,2.44 -3.42,3.68 -0.73,-0.16 -2.21,-0.5 -2.94,-0.66 1.08,-1.26 2.17,-2.51 3.23,-3.78 -3.03,1.9 -5.95,4.01 -8.33,6.69 1.44,-0.88 2.85,-1.81 4.26,-2.74 0.97,0.75 1.95,1.5 2.93,2.25 2.93,-2.02 5.85,-4.1 9.04,-5.72 -2.25,2.53 -4.76,4.85 -7.74,6.5 0.23,0.34 0.7,1.02 0.94,1.36 -3.97,2.95 -7.66,6.3 -11.91,8.85 -0.61,-0.06 -1.83,-0.17 -2.44,-0.23 0.46,0.57 1.39,1.73 1.85,2.3 -21.8,15.42 -49.84,18.41 -75.77,15.65 -11.52,-1.54 -22.73,-4.74 -33.93,-7.75 -9.37,-3.02 -19.25,-4.37 -28.37,-8.16 3.41,-0.34 6.85,-0.11 10.16,0.77 0.54,-0.37 1.61,-1.1 2.15,-1.47 1.49,-0.06 2.99,-0.15 4.49,-0.25 -6.73,-0.92 -13.6,0.49 -20.29,-0.74 -2.1,-0.63 -1.62,-3.17 -1.42,-4.81 2.64,-1.66 5.88,-2.31 8.1,-4.64 -3.44,-1.09 -7.02,-0.62 -10.52,-0.21 1.54,-1.85 3.14,-3.64 4.71,-5.45 -7.65,0.67 -13.77,8.88 -21.82,5.74 0.95,-1.63 1.77,-3.33 2.26,-5.15 -3.07,1.41 -5.03,4.87 -8.53,5.27 -2.63,-0.8 -6.15,-3.97 -8.06,-0.34 0.73,3.9 2.67,7.55 4.95,10.78 6.03,6.99 15.3,9.89 22.03,16.03 -0.04,0.19 -0.12,0.57 -0.16,0.75 -2.21,0.4 -3.98,-1.65 -5.8,-2.61 -4.67,-3.57 -10.16,-5.82 -14.84,-9.36 -1.92,-1.54 -4.48,-1.52 -6.79,-1.82 -0.78,0.91 -1.56,1.82 -2.34,2.74 -1.74,-1.94 -2.92,-5.27 -5.98,-5.26 -3.68,-0.1 -5.32,4.65 -9.09,4.34 -5.58,0.05 -11.02,-1.39 -16.52,-2.16 0.08,0.45 0.23,1.36 0.31,1.81 -1.7,0.37 -3.39,0.78 -5.07,1.24 1.04,4.09 4.23,6.95 6.51,10.33 -4.61,-1.37 -5.83,-7.03 -7.17,-11.07 -4.72,0.54 -8.66,2.98 -12.58,5.44 -0.42,0.9 -0.85,1.8 -1.27,2.72 -3.99,-0.09 -6.58,3.23 -10.28,4.04 0.67,1.79 0.4,3.27 -1.53,3.9 -0.5,-2.17 -1.2,-4.32 -3.2,-5.56 -2.23,0.58 -4.49,1.01 -6.76,1.37 -0.29,-0.55 -0.86,-1.65 -1.14,-2.2 -0.49,-0.13 -1.46,-0.39 -1.94,-0.52 -1.84,2.55 -4.82,1.8 -7.44,1.15 -0.47,-3.73 -1.67,-7.39 -4.37,-10.11 -0.8,-2.27 -2.15,-4.24 -3.81,-5.95 -2.33,-2.5 -2.49,-6.08 -3.59,-9.15 -0.41,-2.23 -3.12,-2.19 -4.66,-3.32 -0.36,-6.17 -3.48,-12.03 -8.03,-16.14 0.08,-0.6 0.23,-1.79 0.31,-2.39 -0.82,-0.87 -1.64,-1.73 -2.46,-2.59 -0.46,-2.18 -0.95,-4.35 -1.49,-6.51 -1.84,-0.82 -3.73,-1.57 -5.43,-2.64 -0.49,-1.02 0.14,-2.16 0.18,-3.2 -0.78,-3.39 -1.11,-6.85 -1.73,-10.25 -0.22,-2.93 -4.71,-2.95 -4.67,-5.98 -0.39,-3.35 0.22,-6.71 0.99,-9.95 1.66,-7.03 4.68,-13.63 8.46,-19.76 3.77,-6.01 9.01,-10.9 14.32,-15.54 10.37,-8.03 22.22,-13.81 33.44,-20.53 5.01,-2.82 9.16,-6.88 14.01,-9.95 0.46,-0.33 1.38,-0.98 1.84,-1.31 2.56,-1.95 5.08,-3.95 7.69,-5.85 0.34,-0.25 1.01,-0.75 1.35,-1 7.78,-6.5 15.95,-12.51 23.85,-18.85 3.85,-3.04 7.69,-6.09 11.55,-9.11 3.4,-2.54 6.24,-5.98 10.33,-7.46 0.3,-0.5 0.89,-1.5 1.19,-1.99 0.66,0.32 1.33,0.66 2.01,1 2.21,-1.53 4.39,-3.29 5.25,-5.94 4.13,-0.33 8.06,0.88 11.77,2.56 -1.83,-1.22 -3.7,-2.38 -5.56,-3.54 2.38,-0.72 5.08,-2.49 7.52,-1 6.9,3.39 14.02,7.64 21.98,7.26 -6.7,-1.65 -13.2,-4.03 -19.34,-7.15 -0.4,-1.06 -0.76,-2.13 -1.06,-3.21 0.64,-0.04 1.91,-0.11 2.55,-0.15 -0.58,-0.22 -1.76,-0.67 -2.35,-0.89 0.27,-0.59 0.8,-1.77 1.06,-2.36 1.8,0.15 3.61,0.31 5.41,0.41 -1.57,-0.59 -3.18,-1.07 -4.68,-1.81 -1.05,-2.34 1.12,-4.13 2.12,-6.01 0.27,1.72 0.53,3.47 0.78,5.21 0.12,-2.67 -1,-6.21 2.1,-7.71 l -0.61,1.81 c 1.53,-0.66 3.19,-0.54 4.81,-0.63 1.66,-0.67 3.24,-1.52 4.94,-2.11 5.4,-4.25 12.74,-3.04 19.13,-3.39 5.02,-0.65 10,-1.56 15.04,-2.05 5.4,-0.39 10.44,-3.02 15.93,-2.58 1.96,0.27 2.62,-1.91 3.44,-3.23 -1.42,-0.12 -2.83,-0.22 -4.25,-0.3 -4.44,3.17 -10.13,2.63 -15.25,3.53 -3.88,0.72 -7.81,1.11 -11.76,1.21 -5.81,0.19 -11.24,3.02 -17.1,2.68 -2.86,-0.42 -6.85,-1.79 -6.23,-5.46 -0.56,-2.58 1.94,-3.96 3.5,-5.47 -1.67,-1.47 -3.72,-2.37 -5.81,-3.07 3.56,-1.99 7.25,-3.78 11.27,-4.6 -1.25,1.44 -2.5,2.89 -3.75,4.34 3.18,-0.93 6.19,-2.33 9.13,-3.84 -1.55,0.01 -3.1,0.02 -4.64,0.03 0.86,-0.85 1.72,-1.7 2.58,-2.55 -5.48,0.81 -10.08,4.02 -15.14,6.02 -0.64,-0.95 -1.28,-1.9 -1.91,-2.85 3.73,-3.83 8.2,-6.79 12.25,-10.25 -3.44,2.07 -6.55,4.7 -10.32,6.18 2.88,-4.92 5.85,-10.14 10.8,-13.28 7.2,-4.53 13.48,-10.29 20.21,-15.44 -2.16,0.52 -3.77,2.07 -5.42,3.45 -5.16,3.86 -10.61,7.3 -16.01,10.82 -1.96,3.19 -5.35,4.95 -9,5.47 1.37,-1.74 2.83,-3.41 4.27,-5.08 -5.43,4.1 -9.67,9.81 -16.24,12.33 0.31,-1.39 0.92,-2.67 1.9,-3.71 2.05,-2.34 3.25,-5.32 5.54,-7.46 3.29,-3.06 5.88,-6.76 8.83,-10.12 -2.52,1.75 -5.12,3.51 -6.85,6.11 -2.89,4.06 -6.79,7.33 -10.96,10 -1.95,0.06 -3.79,-0.68 -5.64,-1.14 -0.78,-3.12 -1.55,-6.28 -3.22,-9.06 1.34,-2.54 2.71,-5.06 3.93,-7.65 -3.74,0.12 -5.9,3.45 -8.56,5.59 0.2,-2.24 0.43,-4.47 0.59,-6.7 -5.58,4.86 -5.6,14.36 -13.2,17.29 -0.72,-1.5 0.23,-4.55 -1.88,-4.91 -0.79,2.45 -0.84,5.17 -2.1,7.46 -1.37,2.13 -4.06,1.54 -6.17,1.49 -0.19,-2.14 -0.4,-4.33 -1.58,-6.18 0.29,1.69 0.65,3.39 1.02,5.07 -0.53,-0.03 -1.6,-0.08 -2.13,-0.11 0.89,0.63 1.8,1.25 2.73,1.84 -0.6,0.05 -1.79,0.16 -2.39,0.21 -0.37,4.37 -2.11,8.4 -5.06,11.64 -0.59,-0.32 -1.78,-0.97 -2.37,-1.3 -0.51,-0.28 -1.53,-0.83 -2.03,-1.11 -0.07,0.95 -0.19,2.84 -0.25,3.79 -1.4,-0.11 -2.97,0.16 -4.13,-0.82 -4.41,-2.95 -7.5,-7.36 -11.57,-10.71 2.47,4.73 5.87,8.86 9.47,12.77 -3.98,-0.55 -7.96,-1.14 -11.98,-1.27 4.59,1.86 9.72,1.79 14.16,4.07 0.64,1.61 1.3,3.21 1.96,4.82 -0.58,0.91 -1.15,1.83 -1.72,2.75 -1.28,2.08 -2.43,4.25 -3.83,6.26 -4.14,5.62 -6.91,12.1 -10.82,17.87 0,-2.8 0.26,-5.59 0.52,-8.36 -0.73,1.75 -1.44,3.52 -2.15,5.29 -0.78,-0.24 -1.56,-0.47 -2.33,-0.7 -0.26,0.5 -0.77,1.49 -1.02,1.99 -0.38,-1.46 -0.76,-2.92 -1.14,-4.37 -2.25,0.96 -4.66,0.88 -6.99,0.28 -0.35,-0.39 -1.05,-1.16 -1.4,-1.55 -3.17,-0.52 -5.94,-2.14 -8.48,-4.01 -0.36,-1.64 -0.68,-3.28 -1.16,-4.88 -1.7,1.22 -2.14,3.46 -3.14,5.2 0.15,-2.38 0.35,-4.75 0.53,-7.12 -1.9,0.21 -4.14,-0.13 -5.3,1.82 -0.26,-0.99 -0.52,-1.97 -0.78,-2.96 -0.58,-0.04 -1.74,-0.12 -2.32,-0.17 -1.53,-2.27 -3.33,-4.35 -5.36,-6.19 -1.07,2.14 -1.66,4.48 -2,6.85 -0.7,-3.63 -0.87,-7.6 -2.99,-10.76 -1.45,-2.28 -4.18,-2.92 -6.55,-3.79 -2.95,-1.05 -5.33,-3.14 -7.75,-5.03 -0.32,-0.95 -0.65,-1.89 -0.97,-2.82 -2.2,-0.16 -4.4,-0.32 -6.6,-0.46 -1.6,-4.99 -4.03,-9.82 -8.09,-13.26 -1.28,-0.32 -2.55,-0.64 -3.82,-0.97 -0.35,-2.31 -0.81,-4.61 -0.88,-6.95 -0.11,-20.51 3.13,-40.91 8.13,-60.75 7.16,-28.11 18.05,-55.23 32.09,-80.6 0.78,-1.4 1.57,-2.79 2.37,-4.18 11.56,-19.6 24.64,-38.63 41.21,-54.35 -0.12,32.13 -8.51,63.55 -18.73,93.79 15.35,-33.47 34.37,-65.42 57.78,-93.9 4.77,-5.67 9.62,-11.29 15.05,-16.34 -4.44,32.45 -9.11,64.87 -13.64,97.31 22.16,-41.82 48.85,-81.68 82.35,-115.31 1.47,-1.4 2.84,-3.07 4.83,-3.75 0.59,10.36 0.12,20.76 -0.58,31.11 -2.42,33.57 -9.4,66.66 -18.86,98.91 20.95,-40.14 45.62,-78.42 74.27,-113.5 1.45,-1.76 2.91,-3.51 4.37,-5.26 m -6.59,153.97 c -0.05,3.33 3.06,-1.44 0,0 m -74.82,33.12 c -1.27,1.35 0.99,3.44 2.23,2.06 1.65,-1.38 -0.94,-3.65 -2.23,-2.06 m 8.13,19.91 c -0.88,0.25 -2.27,2.24 -0.8,2.56 1.64,0.17 3.47,-3.58 0.8,-2.56 m -3.08,4.25 c -0.51,1.61 0.06,2.14 1.7,1.61 0.51,-1.6 -0.05,-2.14 -1.7,-1.61 m -26.15,6.88 c 0.53,0.49 0.53,0.49 0,0 m -66.68,0.29 c 1.17,3.4 3.14,6.66 5.98,8.92 -1.55,-3.19 -2.89,-6.89 -5.98,-8.92 m 68.68,5.6 c -0.58,1.4 -0.15,1.84 1.31,1.32 0.58,-1.4 0.14,-1.84 -1.31,-1.32 m -6.86,2.9 c 0.24,3.31 2.96,-1.6 0,0 m 2.92,1.08 c -0.58,1.44 -0.16,1.86 1.28,1.26 0.58,-1.45 0.16,-1.87 -1.28,-1.26 m 5.95,8.02 c -1.35,0.68 -1.4,1.36 -0.14,2.04 1.35,-0.69 1.39,-1.37 0.14,-2.04 m -67.23,1.26 c -0.31,1.37 0.24,1.85 1.64,1.44 0.3,-1.39 -0.25,-1.87 -1.64,-1.44 m -2.18,5.5 c -2.47,2.61 3.3,5.85 3.75,2.11 0.73,-2.22 -2.2,-3.31 -3.75,-2.11 m -34.64,1.19 c -1.32,0.96 0.04,3.7 1.55,2.53 1.37,-0.98 -0.02,-3.68 -1.55,-2.53 m 108.04,0.94 c 0.04,3.28 3.1,-1.42 0,0 m 4.08,0.06 c -1.66,0.26 -1.21,2.73 0.46,1.8 1.68,-0.25 1.21,-2.79 -0.46,-1.8 m 12.92,3.84 c 0.58,0.36 1.74,1.07 2.32,1.43 1.6,0.08 1.77,-1.55 2.1,-2.72 -1.94,-1.47 -3.42,-0.8 -4.42,1.29 m -126.77,2 c -0.41,1.39 0.09,1.9 1.48,1.52 0.41,-1.41 -0.08,-1.92 -1.48,-1.52 m -7.01,1.26 c 0.07,1.28 2.16,1.13 3.06,1.56 0.61,0.38 2.93,0.2 1.72,-0.89 -1.33,-0.9 -3.29,-1.53 -4.78,-0.67 m 12.53,0.05 c 2.69,0.84 5.53,2.67 8.34,1.18 -2.73,-0.72 -5.54,-0.89 -8.34,-1.18 m 9.21,21.3 c 0.15,2.59 3.05,2.82 4.96,3.54 -0.92,-1.19 -1.85,-2.37 -2.78,-3.54 -0.55,0 -1.64,0 -2.18,0 m 88.05,4.13 c -1.94,2.55 -1.97,5.76 -0.06,8.34 1.28,0.2 2.57,0.37 3.87,0.5 2.67,-0.99 3.95,-4.44 2.31,-6.83 -1.23,-2.19 -4.02,-1.76 -6.12,-2.01 m -9.01,4.63 c -1.5,0.39 -0.88,3.02 0.67,2.55 1.62,-0.4 0.92,-3.06 -0.67,-2.55 m -37.96,25.11 c 0.33,0.72 0.7,1.44 1.09,2.14 1.83,0.58 2.77,-1.56 3.8,-2.63 -1.66,-0.81 -3.33,-0.22 -4.89,0.49 m 12.07,5.65 c 0.22,3.27 3.01,-1.57 0,0 m -14.53,5.89 c 0.15,2.4 2.76,1.91 4.41,1.92 -0.14,-2.17 -3.87,-5.63 -4.41,-1.92 m 149.45,63.18 c 0.51,0.53 0.51,0.53 0,0 m 18.07,6.07 c 0.57,0.46 0.57,0.46 0,0 m -24.97,1 c -2.78,1.54 0.94,2.46 2.04,0.87 1.54,-1.31 -1.37,-1.64 -2.04,-0.87 m 10.99,2 c 0.47,0.54 0.47,0.54 0,0 m 16.1,-0.13 c -0.28,0.28 -0.84,0.86 -1.11,1.14 1.32,3.08 5.24,-2.28 1.11,-1.14 m -19.22,1.05 c -0.58,1.62 -0.05,2.16 1.6,1.61 0.58,-1.63 0.05,-2.16 -1.6,-1.61 m 31.05,29.1 c 0.51,0.5 0.51,0.5 0,0 m -5.1,6.93 c -1.54,2.99 3.31,0.17 0,0 m -166.05,22.25 c 1.68,-2.57 1.4,-5.83 1.93,-8.74 -3.51,0.99 -1.55,6.01 -1.93,8.74 m 172.02,-3.23 c 0.08,3.31 3.04,-1.49 0,0 m -172.03,4 c -1.59,2.97 3.3,0.22 0,0 m 166.24,0.04 c -0.59,1.42 -0.17,1.85 1.28,1.3 0.59,-1.43 0.16,-1.86 -1.28,-1.3 m -3,2.72 c -0.1,3.31 3.1,-1.37 0,0 m -166.01,5.98 c -1.11,1.17 -1.97,3.19 -1.75,4.8 1.67,-0.14 3.58,-4.01 1.75,-4.8 m 47.97,3.05 c -0.6,0.09 -2.87,1.45 -1.33,1.88 1.18,0.12 2.27,-0.15 3.26,-0.8 1.27,-1.2 -1.2,-1.73 -1.93,-1.08 m -8.65,6.64 c 3.42,0.27 7.3,-0.38 9.88,-2.78 -3.42,0.4 -6.7,1.51 -9.88,2.78 m 123.25,2.14 c 1.43,0.69 3.85,-0.92 3.77,-2.45 -1.44,-0.5 -4.36,0.6 -3.77,2.45 m -84.59,2.4 c -1.59,0.71 -1.29,3.04 0.52,3.17 2.6,0.03 1.4,-3.49 -0.52,-3.17 m -39.32,1.33 c 6.01,0.41 12.04,0.09 18.06,0.34 0.2,0.66 0.61,1.97 0.81,2.63 1.99,-1.71 4.58,-2.17 7.06,-2.74 -8.62,-0.9 -17.3,-0.69 -25.93,-0.23 m 13.21,1.54 c -2.72,1.3 0.92,2.8 2.01,1.05 1.25,-1.19 -1.32,-1.6 -2.01,-1.05 m 112.06,2.15 c 0.09,0.49 0.28,1.49 0.38,1.99 -4.29,3.11 -9.83,3.9 -14.07,6.94 3.03,-0.76 5.98,-1.76 8.93,-2.76 2.27,-1.58 4.95,-2.37 7.35,-3.71 -1.04,-0.65 -1.89,-1.49 -2.59,-2.46 z"
       id="path7"
       inkscape:connector-curvature="0"
       style="opacity:1;fill:#ef7622" />
    <path
       d="m 285.09,203.34 c 1.92,-0.7 2.94,2.46 0.89,2.94 -1.78,0.57 -2.6,-2.44 -0.89,-2.94 z"
       id="path9"
       inkscape:connector-curvature="0"
       style="opacity:1;fill:#ef7622" />
    <path
       d="m 281.87,209 c 0.18,-1.6 2,-1.7 3.13,-2.35 l -0.98,2.31 c 0.75,-0.14 2.24,-0.41 2.99,-0.55 -1.55,0.24 -4.13,2.69 -5.14,0.59 z"
       id="path11"
       inkscape:connector-curvature="0"
       style="opacity:1;fill:#ef7622" />
    <path
       d="m 284.55,245.48 c 3.32,-0.6 6.7,-0.86 10.05,-1.32 -3.55,0.97 -7.07,2.2 -10.74,2.64 0.17,-0.33 0.52,-0.99 0.69,-1.32 z"
       id="path13"
       inkscape:connector-curvature="0"
       style="opacity:1;fill:#ef7622" />
    <path
       d="m 160.09,543.07 c 0.68,-1.45 3.42,-0.15 4.57,0.34 0.64,1.06 1.13,2.19 1.75,3.27 1.44,1.91 4.73,1.78 5.49,4.26 -2.01,-0.86 -3.87,-2.02 -5.74,-3.13 -1.47,0.87 -2.94,1.75 -4.4,2.65 -3.22,-1.14 -2.07,-4.83 -1.67,-7.39 z"
       id="path15"
       inkscape:connector-curvature="0"
       style="opacity:1;fill:#ef7622" />
    <path
       d="m 31.77,562.77 c 12.27,-6.35 26.78,-7.5 40.22,-4.87 10.72,2.09 21.2,7.43 27.81,16.33 5.12,6.74 7.42,15.26 7.42,23.65 -2.41,0 -4.82,-0.01 -7.23,-0.01 -2.39,0 -4.77,0 -7.15,0.01 -2.61,0 -5.21,0 -7.82,0 -0.54,-6.61 -2.84,-13.57 -8.41,-17.61 -7.25,-5.26 -16.85,-5.81 -25.44,-4.66 -5.5,0.92 -11.29,3.19 -14.45,8.04 -3.71,5.93 -2.96,14.54 2.24,19.37 3.06,2.92 7.08,4.52 11.09,5.64 11.96,3.24 23.96,6.34 35.87,9.77 8.81,2.51 16.56,8.65 20.8,16.79 5.31,9.92 5.19,22.21 0.85,32.45 -4.03,9.42 -12.55,16.27 -21.96,19.89 -12.87,4.93 -27.17,5.52 -40.64,3.02 -12.7,-2.44 -25.16,-9.38 -31.6,-20.95 -4.17,-7.19 -5.86,-15.57 -6.02,-23.82 7.43,0.09 14.86,-0.19 22.28,0.15 0.01,7.22 2.2,14.83 7.74,19.76 7.15,6.44 17.29,8.05 26.6,7.72 7.37,-0.31 15.41,-2.21 20.41,-8.05 6.86,-7.82 5.25,-22.66 -5.07,-26.73 -11.02,-4.41 -22.77,-6.61 -34.15,-9.91 -9.4,-2.3 -19.18,-5.71 -25.71,-13.24 -7.48,-8.47 -8.81,-20.92 -5.83,-31.51 2.6,-9.3 9.66,-16.87 18.15,-21.23 z"
       id="path17"
       inkscape:connector-curvature="0"
       style="opacity:1;fill:#ef7622" />
    <path
       d="m 263.26,559.26 c 13.14,-4 27.54,-3.46 40.47,1.08 12.15,4.49 22.54,14.56 25.33,27.48 0.73,3.3 0.98,6.68 1.15,10.06 -7.41,0 -14.82,0 -22.22,-0.01 -0.57,-7.53 -3.82,-15.44 -10.79,-19.14 -8.15,-4.23 -18.01,-4.52 -26.8,-2.28 -6.76,1.63 -13.03,7.23 -13.01,14.61 -0.8,7.63 4.99,14.26 11.99,16.43 13.51,4.17 27.36,7.21 40.87,11.4 8,2.64 15.01,8.28 19.07,15.69 6.38,11.39 5.58,26.05 -0.89,37.22 -7.94,12.67 -23.05,18.51 -37.38,19.83 -16.38,1.45 -34.47,-1.15 -47.11,-12.51 -9.42,-8.28 -13.52,-21.05 -13.67,-33.31 7.43,0.05 14.85,-0.14 22.28,0.13 0.13,6.73 1.83,13.83 6.72,18.74 6.59,6.83 16.56,8.85 25.71,8.81 7.58,-0.09 15.87,-1.55 21.44,-7.13 5.45,-5.33 6.41,-14.19 3.22,-20.94 -2.07,-4.37 -6.59,-6.76 -10.99,-8.19 -12.75,-4.21 -25.96,-6.85 -38.77,-10.85 -9.21,-2.96 -18.11,-8.88 -22.05,-18.03 -4.79,-11.38 -3.33,-25.44 4.3,-35.25 5.26,-6.8 12.99,-11.35 21.13,-13.84 z"
       id="path19"
       inkscape:connector-curvature="0"
       style="opacity:1;fill:#ef7622" />
    <path
       d="m 166.59,560.65 c 5.66,-1.49 11.57,-1.01 17.36,-0.93 9.75,0.35 20.17,2.91 27.13,10.17 6.19,6.33 8.23,15.59 7.71,24.19 -0.35,6.92 -3.14,13.77 -8.14,18.62 -2.84,2.9 -6.46,4.79 -9.9,6.84 6.63,1.51 12.95,5 17.06,10.53 6.14,8.15 7.58,18.99 6.29,28.9 -1.14,8.98 -6.38,17.33 -14.04,22.17 -9.75,6.27 -21.68,7.85 -33.05,7.81 -19.17,-0.09 -38.35,0.15 -57.52,-0.12 0.11,-22.37 0.02,-44.73 0.08,-67.09 0,-2.25 0,-4.49 0,-6.73 -0.03,-15 0.01,-30 -0.03,-44.99 -0.26,-1.33 0.53,-2.35 1.34,-3.27 3.58,0.57 6.3,-2.01 9.22,-3.55 3.01,0.68 6.49,0.59 8.51,3.41 3.52,0.9 5.21,-2.57 7.36,-4.56 3.53,-0.08 6.43,2.89 10.05,2.49 -1.77,0.87 -3.46,1.87 -5.17,2.85 3.18,0.78 6.17,2.19 8.93,3.93 2.26,0.02 4.78,-0.3 6.58,1.39 2.48,2.08 6.12,2.6 7.98,5.38 -10.82,0.22 -21.65,0.05 -32.47,0.09 -0.08,11.86 -0.11,23.72 0.01,35.59 12.41,-0.07 24.81,0.06 37.22,-0.06 6,-0.11 12.28,-2.95 15.17,-8.43 2.51,-4.23 2.52,-9.31 2.14,-14.06 3.19,1.55 6.87,2.37 9.35,5.08 1.33,1.91 3.65,0.9 5.46,0.49 -0.85,-1.4 -1.98,-2.57 -3.22,-3.6 -4.8,0.17 -8.64,-3.12 -12.53,-5.45 -1.59,-4.56 -5.63,-8.06 -10.43,-8.78 -6.16,-0.84 -11.84,-3.68 -17.07,-6.9 -2.6,-1.55 -3.69,-4.48 -4.74,-7.14 1.13,-1.4 1.84,-3.24 3.36,-4.27 m -7.4,13.93 c 2.34,0.59 5.38,0.82 7.24,-1.03 -1.44,-0.71 -2.89,-1.4 -4.34,-2.09 -1.14,0.91 -4.63,1.07 -2.9,3.12 m -17.32,55.55 c -0.12,13.43 -0.03,26.86 -0.05,40.29 12.72,0.04 25.43,0 38.15,0.02 5.06,0.02 10.38,-0.72 14.64,-3.67 4.26,-2.86 6.77,-7.78 7.4,-12.78 0.83,-6.09 -0.07,-12.9 -4.31,-17.62 -4.15,-4.67 -10.67,-6.27 -16.7,-6.23 -13.04,0 -26.09,-0.02 -39.13,-0.01 z"
       id="path21"
       inkscape:connector-curvature="0"
       style="opacity:1;fill:#ef7622" />
  </g>
  <g
     id="#fbd13cff"
     transform="translate(-4.9987755,-4)" />
  <g
     id="#fb9a2cff"
     transform="translate(-4.9987755,-4)" />
  <g
     id="#fbd43dff"
     transform="translate(-4.9987755,-4)" />
  <g
     id="#fb942bff"
     transform="translate(-4.9987755,-4)" />
  <g
     id="#fb982cff"
     transform="translate(-4.9987755,-4)" />
  <g
     id="#f4a36aff"
     transform="translate(-4.9987755,-4)" />
  <g
     id="#f49e61ff"
     transform="translate(-4.9987755,-4)" />
  <g
     id="#f7b689ff"
     transform="translate(-4.9987755,-4)" />
  <g
     id="#fce4d4ff"
     transform="translate(-4.9987755,-4)">
    <path
       d="m 293.3,200.31 c 0.54,0.57 0.54,0.57 0,0 z"
       id="path32"
       inkscape:connector-curvature="0"
       style="opacity:1;fill:#fce4d4" />
  </g>
  <g
     id="#f5aa75ff"
     transform="translate(-4.9987755,-4)" />
  <g
     id="#f28c46ff"
     transform="translate(-4.9987755,-4)" />
  <g
     id="#f39554ff"
     transform="translate(-4.9987755,-4)" />
  <g
     id="#fbd9c3ff"
     transform="translate(-4.9987755,-4)" />
  <g
     id="#f9caaaff"
     transform="translate(-4.9987755,-4)">
    <path
       d="m 177.21,264.32 c 0.53,0.49 0.53,0.49 0,0 z"
       id="path39"
       inkscape:connector-curvature="0"
       style="opacity:1;fill:#f9caaa" />
  </g>
  <g
     id="#fdd7bcff"
     transform="translate(-4.9987755,-4)" />
  <g
     id="#fbdfccff"
     transform="translate(-4.9987755,-4)" />
  <g
     id="#fbdac3ff"
     transform="translate(-4.9987755,-4)" />
  <g
     id="#f6aa76ff"
     transform="translate(-4.9987755,-4)" />
  <g
     id="#fbddc8ff"
     transform="translate(-4.9987755,-4)" />
  <g
     id="#f9cbacff"
     transform="translate(-4.9987755,-4)" />
  <g
     id="#fb8426ff"
     transform="translate(-4.9987755,-4)" />
  <g
     id="#f58130ff"
     transform="translate(-4.9987755,-4)" />
  <g
     id="#f18a43ff"
     transform="translate(-4.9987755,-4)" />
  <g
     id="#f5a975ff"
     transform="translate(-4.9987755,-4)" />
  <g
     id="#fbd9c1ff"
     transform="translate(-4.9987755,-4)" />
  <g
     id="#f28e49ff"
     transform="translate(-4.9987755,-4)" />
  <g
     id="#fbd7beff"
     transform="translate(-4.9987755,-4)" />
  <g
     id="#fb9129ff"
     transform="translate(-4.9987755,-4)" />
  <g
     id="#f6a66fff"
     transform="translate(-4.9987755,-4)" />
  <g
     id="#fba532ff"
     transform="translate(-4.9987755,-4)" />
  <g
     id="#fbdd41ff"
     transform="translate(-4.9987755,-4)" />
  <g
     id="#fb9b2cff"
     transform="translate(-4.9987755,-4)" />
  <g
     id="#fba42fff"
     transform="translate(-4.9987755,-4)" />
  <g
     id="#f7ba90ff"
     transform="translate(-4.9987755,-4)">
    <path
       d="m 278.24,428.2 c 0.51,0.53 0.51,0.53 0,0 z"
       id="path61"
       inkscape:connector-curvature="0"
       style="opacity:1;fill:#f7ba90" />
  </g>
  <g
     id="#fb8326ff"
     transform="translate(-4.9987755,-4)" />
  <g
     id="#f8bf98ff"
     transform="translate(-4.9987755,-4)">
    <path
       d="m 296.31,434.27 c 0.57,0.46 0.57,0.46 0,0 z"
       id="path65"
       inkscape:connector-curvature="0"
       style="opacity:1;fill:#f8bf98" />
  </g>
  <g
     id="#fad0b3ff"
     transform="translate(-4.9987755,-4)">
    <path
       d="m 282.33,437.27 c 0.47,0.54 0.47,0.54 0,0 z"
       id="path68"
       inkscape:connector-curvature="0"
       style="opacity:1;fill:#fad0b3" />
  </g>
  <g
     id="#f5ac7aff"
     transform="translate(-4.9987755,-4)" />
  <g
     id="#fbdac4ff"
     transform="translate(-4.9987755,-4)" />
  <g
     id="#facfb2ff"
     transform="translate(-4.9987755,-4)">
    <path
       d="m 310.26,467.29 c 0.51,0.5 0.51,0.5 0,0 z"
       id="path73"
       inkscape:connector-curvature="0"
       style="opacity:1;fill:#facfb2" />
  </g>
  <g
     id="#f39451ff"
     transform="translate(-4.9987755,-4)" />
  <g
     id="#fad6bdff"
     transform="translate(-4.9987755,-4)" />
  <g
     id="#f5a56fff"
     transform="translate(-4.9987755,-4)" />
  <g
     id="#f87d24ff"
     transform="translate(-4.9987755,-4)" />
  <g
     id="#f07c2cff"
     transform="translate(-4.9987755,-4)" />
  <g
     id="#fcd6bdff"
     transform="translate(-4.9987755,-4)" />
  <g
     id="#fad4b9ff"
     transform="translate(-4.9987755,-4)" />
  <g
     id="#f8942bff"
     transform="translate(-4.9987755,-4)" />
  <g
     id="#f8c39dff"
     transform="translate(-4.9987755,-4)" />
  <g
     id="#fde2ceff"
     transform="translate(-4.9987755,-4)" />
  <g
     id="#fddbadff"
     transform="translate(-4.9987755,-4)" />
  <g
     id="#fad7beff"
     transform="translate(-4.9987755,-4)" />
  <g
     id="#f27a23ff"
     transform="translate(-4.9987755,-4)" />
  <g
     id="#fb8c29ff"
     transform="translate(-4.9987755,-4)" />
  <g
     id="#fb8827ff"
     transform="translate(-4.9987755,-4)" />
  <g
     id="#f07622ff"
     transform="translate(-4.9987755,-4)" />
</svg>
