<?xml version="1.0" encoding="UTF-8"?>
<!-- Created with Inkscape (http://www.inkscape.org/) -->
<svg id="svg2" width="1066.7" height="728.89" version="1.1" viewBox="0 0 1e3 683.33" xmlns="http://www.w3.org/2000/svg" xmlns:cc="http://creativecommons.org/ns#" xmlns:dc="http://purl.org/dc/elements/1.1/" xmlns:rdf="http://www.w3.org/1999/02/22-rdf-syntax-ns#">
 <metadata id="metadata7">
  <rdf:RDF>
   <cc:Work rdf:about="">
    <dc:format>image/svg+xml</dc:format>
    <dc:type rdf:resource="http://purl.org/dc/dcmitype/StillImage"/>
    <dc:title/>
   </cc:Work>
  </rdf:RDF>
 </metadata>
 <g id="layer1" transform="translate(-149.91 110.89)">
  <g id="layer1-7" transform="matrix(2.2769 0 0 2.2769 -208.98 1215.4)">
   <g id="g3049" transform="matrix(1.4437 0 0 1.4437 -105.43 -917.76)" fill="#e52927">
    <path id="path25087" d="m182.38 346.6c10.131-9.7379 19.358-23.01 26.17-38.696 6.8126-15.706 10.189-31.511 10.366-45.568l-0.1178 0.1178c-10.091 9.7182-19.279 22.951-26.072 38.598-6.7733 15.628-10.15 31.373-10.366 45.391"/>
    <path id="path25091" d="m193.34 368.63c13.647-13.063 26.075-30.864 35.271-51.954 9.1962-21.11 13.779-42.345 14.064-61.249l-0.17612 0.15474c-13.588 13.044-25.978 30.825-35.134 51.838-9.1567 21.013-13.739 42.17-14.063 61.015"/>
    <path id="path25095" d="m208.21 399.51c18.559-17.759 35.491-41.949 47.996-70.605 12.525-28.655 18.798-57.539 19.202-83.231l-0.24197 0.19716c-18.479 17.74-35.33 41.871-47.814 70.427-12.484 28.556-18.736 57.32-19.198 82.912"/>
    <path id="path25101" d="m228.74 439.94c24.957-23.973 47.678-56.673 64.424-95.325 16.785-38.672 25.113-77.622 25.554-112.25l-0.31829 0.27585c-24.839 23.973-47.459 56.555-64.165 95.089-16.706 38.534-25.014 77.662-25.514 112.17"/>
   </g>
  </g>
  <g id="g4143" fill="#e52927">
   <path id="path2998" d="m703.58 185.78h39.82c-0.93811-43.827-34.38-73.695-88.25-73.695-46.017 0-82.778 27.208-82.778 66.917 0 88.635 137.22 45.639 137.22 104.83 0 23.23-23.197 34.953-47.597 34.953-33.359 0-56.898-16.105-58.47-48.767h-39.442c0 60.35 48.748 80.774 93.943 80.774 52.858 0 91.485-24.9 91.485-70 0-91.446-137.67-50.684-137.67-106.35 0-18.923 17.558-29.235 42.151-29.235 36.54 0 47.652 19.039 49.586 40.576z"/>
   <path id="path3055" d="m764.66 117.54v227.69h111.14c43.989 0 77.486-21.436 77.486-63.255 0-29.147-10.254-48.93-42.549-59.27 17.898-7.7594 31.734-19.808 31.734-49.309 0-37.636-24.99-55.855-66.386-55.855zm39.632 31.877h64.678c25.176 0 34.723 14.336 34.723 31.948 0 19.938-13.386 31.805-32.446 31.805h-66.955zm3e-4 92.442h69.766c27.829 0 39.951 15.383 39.951 35.846 0 22.492-18.151 35.648-38.778 35.648h-70.939z"/>
   <path id="path3061" d="m1103.5 185.78h39.82c-0.9381-43.827-34.38-73.695-88.25-73.695-46.017 0-82.778 27.208-82.778 66.917 0 88.635 137.22 45.639 137.22 104.83 0 23.23-23.197 34.953-47.597 34.953-33.359 0-56.898-16.105-58.47-48.767h-39.442c0 60.35 48.748 80.774 93.943 80.774 52.858 0 91.485-24.9 91.485-70 0-91.446-137.67-50.684-137.67-106.35 0-18.923 17.558-29.235 42.151-29.235 36.54 0 47.652 19.039 49.586 40.576z"/>
  </g>
  <g id="g4160" transform="matrix(1.7666 0 0 1.7666 12.771 -326.6)" fill="#e52927">
   <path id="path13" d="m312.08 416.33h331.34v92.593h-331.34v-92.593"/>
   <path id="path15" d="m494.52 442.28c7.8963 0.37086 16.697-1.2053 23.658 3.4846 5.6866 3.8477 6.8456 11.273 6.8764 17.647 0.0618 6.606-0.81126 14.386-6.6292 18.559-6.9614 4.9217-15.955 3.3223-23.959 3.6391 0.0464-14.441-0.0618-28.881 0.0541-43.329z"/>
  </g>
  <path id="path13-3" transform="matrix(.9375 0 0 .9375 149.91 -110.89)" d="m659.88 586.94c-3.3631 1.3e-4 -6.7267 7e-3 -10.09 0.0293 0.0292 38.145 5.8e-4 76.29 0.0156 114.42 6.7263 0.015 13.451 0.0156 20.178 0.0156 0.015-17.194-0.0286-34.374 0.0156-51.568 17.311-0.015 34.607-0.015 51.918 0 0 17.165 0.0435 34.315-0.0293 51.48 6.7117 0.13096 13.424 0.0879 20.15 0.0879 0.015-38.159 0-76.304 0-114.45-6.6972-0.015-13.41-0.015-20.107 0-0.015 15.156-0.015 30.313 0 45.469-17.325 0-34.635 0.0286-51.945-0.0156-0.015-15.156 0.0286-30.297-0.0156-45.453-3.3632-8e-3 -6.7267-0.0158-10.09-0.0156zm105.48 0.0156c-0.029 38.13 0.0148 76.258-0.0293 114.39 16.889-0.0437 33.792 0.36467 50.666-0.20313 14.064-0.29118 28.289-6.6528 36.471-18.344 10.017-14.37 11.997-32.861 10.002-49.852-1.7908-14.879-8.4588-30.282-21.635-38.406-9.0848-6.0275-20.193-7.5257-30.865-7.584-14.879-0.029-29.745 0-44.609 0zm20.207 16.363 17.49 0.0573c9.5408 0.0313 18.978 1.0438 27.09 6.5091 10.715 7.2504 12.901 21.241 12.959 33.252 0.11644 12.448-1.5292 27.111-12.492 34.973-7.2357 5.1156-15.631 6.774-24.247 6.7978l-20.901 0.0576z" fill="#f6f6f6" stroke-width="1.8843"/>
 </g>
</svg>
