<?xml version="1.0" encoding="UTF-8"?>
<!-- Generator: Adobe Illustrator 22.1.0, SVG Export Plug-In . SVG Version: 6.00 Build 0)  -->
<svg id="Layer_1" width="479.86" height="254.28" version="1.1" viewBox="0 0 479.86 254.28" xml:space="preserve" xmlns="http://www.w3.org/2000/svg" xmlns:cc="http://creativecommons.org/ns#" xmlns:dc="http://purl.org/dc/elements/1.1/" xmlns:rdf="http://www.w3.org/1999/02/22-rdf-syntax-ns#"><metadata id="metadata22"><rdf:RDF><cc:Work rdf:about=""><dc:format>image/svg+xml</dc:format><dc:type rdf:resource="http://purl.org/dc/dcmitype/StillImage"/><dc:title/></cc:Work></rdf:RDF></metadata>
<link id="dark-mode" href="" rel="stylesheet" type="text/css"/>
<g id="layer1" transform="translate(-150.05 110.45)">
	<path id="path2998" d="m310.8-40.4h16.4c-0.4-18-14.1-30.3-36.3-30.3-18.9 0-34.1 11.2-34.1 27.5 0 36.5 56.5 18.8 56.5 43.1 0 9.6-9.5 14.4-19.6 14.4-13.7 0-23.4-6.6-24.1-20.1h-16.2c0 24.8 20.1 33.2 38.7 33.2 21.8 0 37.6-10.2 37.6-28.8 0-37.6-56.7-20.9-56.7-43.8 0-7.8 7.2-12 17.3-12 15.2 0.1 19.7 8 20.5 16.8z"/>
	<g id="layer1-7" transform="matrix(2.2792,0,0,2.2792,-209.84,1216.6)">
		<g id="g3049" transform="matrix(1.4437,0,0,1.4437,-105.43,-917.76)">
			<path id="path25087" d="m182.4 260.1c2.5-2.4 4.7-5.6 6.3-9.4 1.7-3.8 2.5-7.6 2.5-11.1-2.4 2.4-4.7 5.6-6.3 9.4-1.7 3.8-2.5 7.6-2.5 11.1"/>
			<path id="path25091" d="m185 265.4c3.3-3.2 6.3-7.5 8.6-12.6 2.2-5.1 3.3-10.3 3.4-14.9-3.3 3.2-6.3 7.5-8.5 12.6-2.3 5.2-3.4 10.3-3.5 14.9"/>
			<path id="path25095" d="m188.6 272.9c4.5-4.3 8.6-10.2 11.6-17.1s4.6-14 4.7-20.2h-0.1c-4.5 4.3-8.6 10.2-11.6 17.1s-4.5 13.9-4.6 20.2"/>
			<path id="path25101" d="m193.6 282.7c6.1-5.8 11.6-13.7 15.6-23.1 4.1-9.4 6.1-18.8 6.2-27.2l-0.1 0.1c-6 5.8-11.5 13.7-15.6 23.1-4 9.2-6 18.7-6.1 27.1"/>
		</g>
	</g>
	<path id="path3055" d="m336-68.5v93.7h45.7c18.1 0 31.9-8.8 31.9-26 0-12-4.2-20.1-17.5-24.4 7.4-3.2 13.1-8.2 13.1-20.3 0-15.5-10.3-23-27.3-23zm16.3 13.2h26.6c10.4 0 14.3 5.9 14.3 13.1 0 8.2-5.5 13.1-13.4 13.1h-27.6v-26.2zm0 38h28.7c11.5 0 16.4 6.3 16.4 14.8 0 9.3-7.5 14.7-16 14.7h-29.2v-29.5z"/>
	<path id="path3061" d="m475.4-40.4h16.4c-0.4-18-14.1-30.3-36.3-30.3-18.9 0-34.1 11.2-34.1 27.5 0 36.5 56.5 18.8 56.5 43.1 0 9.6-9.5 14.4-19.6 14.4-13.7 0-23.4-6.6-24.1-20.1h-16.2c0 24.8 20.1 33.2 38.7 33.2 21.8 0 37.6-10.2 37.6-28.8 0-37.6-56.7-20.9-56.7-43.8 0-7.8 7.2-12 17.3-12 15.1 0.1 19.7 8 20.5 16.8z"/>
</g>
<g id="g841" transform="translate(-.13769 -.1192)" fill="#96c321">
	<path id="path14" d="m170.6 171.3h-42.4v24.3h35.9c3.1 0 5.3 0.7 6.8 2.1s2.3 3.2 2.3 5.5-0.8 4.1-2.3 5.5c-1.5 1.3-3.8 2-6.8 2h-35.9v31.5c0 4.1-0.9 7.2-2.8 9.2s-4.8 3-7.7 3c-3 0-5.9-1-7.7-3-1.9-2-2.8-5.1-2.8-9.2v-76c0-2.9 0.4-5.2 1.3-7s2.2-3.1 4-4c1.8-0.8 4.1-1.2 7-1.2h51.2c3.2 0 5.6 0.7 7.1 2.1s2.3 4.3 2.3 6.6-0.8 5.2-2.3 6.6c-1.6 1.2-4 2-7.2 2z"/>
	<path id="path16" d="m230.3 152.1c10.2 0 19 2.1 26.4 6.2 7.3 4.2 12.9 10.1 16.7 17.7 3.8 7.7 5.7 16.7 5.7 27 0 7.6-1 14.6-3.1 20.8s-5.2 11.7-9.3 16.2-9.2 8.1-15.2 10.5-12.9 3.6-20.7 3.6c-7.7 0-14.6-1.2-20.8-3.7-6.1-2.5-11.2-6-15.3-10.5s-7.2-10-9.3-16.4-3.1-13.3-3.1-20.7c0-7.6 1.1-14.6 3.3-20.9s5.3-11.7 9.5-16.2c4.1-4.4 9.2-7.9 15.1-10.2 5.8-2.2 12.5-3.4 20.1-3.4zm28.4 50.8c0-7.2-1.2-13.5-3.5-18.8s-5.7-9.3-10-12-9.3-4.1-14.9-4.1c-4 0-7.7 0.8-11.1 2.3s-6.3 3.7-8.8 6.6c-2.4 2.9-4.4 6.5-5.8 11s-2.1 9.5-2.1 15.1 0.7 10.7 2.1 15.2 3.4 8.3 6 11.3 5.5 5.2 8.9 6.7c3.3 1.5 7 2.2 11 2.2 5.1 0 9.8-1.3 14.1-3.8 4.3-2.6 7.7-6.5 10.2-11.9 2.6-5.4 3.9-11.9 3.9-19.8z"/>
	<path id="path18" d="m406.8 153.8h27.1c6.8 0 12.6 0.6 17.5 1.9s9.3 3.6 13.2 7.1c10.3 8.8 15.4 22.2 15.4 40.2 0 5.9-0.5 11.3-1.5 16.2s-2.6 9.3-4.8 13.2-4.9 7.4-8.3 10.5c-2.7 2.4-5.5 4.3-8.7 5.7-3.1 1.4-6.5 2.4-10.1 3s-7.7 0.9-12.2 0.9h-27.1c-3.6 0-6.4-0.5-8.2-1.7-1.8-1.1-3-2.7-3.6-4.7s-0.8-4.6-0.8-7.8v-72.4c0-4.3 1-7.4 2.9-9.4 1.7-1.7 4.9-2.7 9.2-2.7zm8.7 16.9v64h15.2c3.3 0 5.9-0.1 7.8-0.3s3.8-0.6 5.9-1.3c2-0.7 3.8-1.7 5.3-3 6.7-5.7 10-13.4 10-27.2 0-9.7-1.5-16-4.4-20.9s-6.6-7.9-10.9-9.3c-4.3-1.3-9.5-2-15.6-2z"/>
	<path id="path20" d="m378.5 176.1c-3.8-7.7-9.3-13.6-16.7-17.7-7.3-4.2-16.1-6.2-26.4-6.2-7.5 0-14.3 1.2-20.2 3.5-5.9 2.4-11 5.8-15.1 10.2s-7.3 9.8-9.5 16.2-3.3 13.3-3.3 20.9c0 7.4 1 14.3 3.1 20.7s5.2 11.8 9.3 16.4c4.1 4.5 9.2 8.1 15.3 10.5 6.1 2.5 13 3.7 20.8 3.7s14.7-1.2 20.7-3.6 11.1-5.9 15.2-10.5 7.2-10 9.3-16.2 3.1-13.2 3.1-20.8c0.1-10.5-1.8-19.4-5.6-27.1zm-53.5 21.3c-8.3 2.2-16.9-2.7-19.1-11 8.3-2.2 16.9 2.7 19.1 11zm-18.9 22.7c2.2-8.3 10.8-13.3 19.1-11-2.2 8.3-10.8 13.3-19.1 11zm28.9-50.7c6.1 6.1 6.1 16 0 22.1-6.1-6.2-6.1-16 0-22.1zm0.4 67.4c-6.1-6.1-6.1-16 0-22.1 6.1 6.2 6.1 16 0 22.1zm28.9-50.7c-2.2 8.3-10.8 13.3-19.1 11 2.2-8.3 10.8-13.3 19.1-11zm-18.9 22.7c8.3-2.2 16.9 2.7 19.1 11-8.3 2.2-16.9-2.7-19.1-11z"/>
</g>
</svg>
