<svg id="a" width="589.76pt" height="158.44pt" version="1.1" viewBox="0 0 589.76 158.44" xmlns="http://www.w3.org/2000/svg">
 <g id="b" transform="matrix(.76329 0 0 .76329 -139.19 -177.36)">
  <path id="c" d="m182.38 346.6c10.131-9.7379 19.358-23.01 26.17-38.696 6.8126-15.706 10.189-31.511 10.366-45.568l-0.1178 0.1178c-10.091 9.7182-19.279 22.951-26.072 38.598-6.7733 15.628-10.15 31.373-10.366 45.391"/>
  <path id="d" d="m193.34 368.63c13.647-13.063 26.075-30.864 35.271-51.954 9.1962-21.11 13.779-42.345 14.064-61.249l-0.17612 0.15474c-13.588 13.044-25.978 30.825-35.134 51.838-9.1567 21.013-13.739 42.17-14.063 61.015"/>
  <path id="e" d="m208.21 399.51c18.559-17.759 35.491-41.949 47.996-70.605 12.525-28.655 18.798-57.539 19.202-83.231l-0.24197 0.19716c-18.479 17.74-35.33 41.871-47.814 70.427s-18.736 57.32-19.198 82.912"/>
  <path id="f" d="m228.74 439.94c24.957-23.973 47.678-56.673 64.424-95.325 16.785-38.672 25.113-77.622 25.554-112.25l-0.31829 0.27585c-24.839 23.973-47.459 56.555-64.165 95.089s-25.014 77.662-25.514 112.17"/>
 </g>
 <g id="g" transform="matrix(.50382 0 0 .50382 106.09 -61.967)">
  <path id="h" d="m0 216.8h41.9l22.1 84 22.9-84.2h41.9l-43.8 126.6h-41.8z"/>
  <path id="i" d="m134.9 343.2v-126.4h41.6v126.6h-41.6z"/>
  <path id="j" d="m276.5 265.1c-1.3-13.1-9.6-20.8-22.4-20.8-14.7 0-23.5 12.5-23.5 37.1 0 17.9 4 34.4 25.1 34.4 13.3 0 19.7-9.3 21.3-21.3h40c-4 32.5-27.5 52.3-60.8 52.3-41.9 0-67.2-25.6-67.2-66.9 0-40.8 27.7-66.4 63.2-66.4 38.7 0 60.2 19.2 63.7 51.7h-39.4z"/>
  <path id="k" d="m330.6 343.2v-126.4h103.2v29.6h-61.8v18.1h56.3v29.6h-56.3v20h64.2v29.6h-105.6z"/>
  <path id="l" d="m454.3 343.2v-126.4h41.6v97h57.1v29.6h-98.6v-0.2z"/>
  <path id="m" d="m559.3 343.2 45.3-126.6h42.1l45.3 126.6h-41.3l-4.8-16.8h-41.3l-4.8 16.8zm66.1-88.3-12.8 45.3h26.1z"/>
  <path id="n" d="m782.7 285.9-1.6-28.8v-40.3h39.7v126.6h-38.9l-45.3-69 1.6 28.8v40h-39.7v-126.4h38.9z"/>
  <path id="o" d="m838.4 343.2v-126.4h55.5c40.8 0 66.1 18.9 66.1 60.8 0 47.7-26.7 65.8-67.2 65.8h-54.4zm41.6-29.3h8.8c19.5 0 29.9-10.1 29.9-34.1 0-26.4-8.5-33.3-30.7-33.3h-8z"/>
 </g>
</svg>
