<?xml version="1.0" encoding="UTF-8" standalone="no"?>
<!-- Created with Inkscape (http://www.inkscape.org/) -->

<svg
   xmlns:dc="http://purl.org/dc/elements/1.1/"
   xmlns:cc="http://creativecommons.org/ns#"
   xmlns:rdf="http://www.w3.org/1999/02/22-rdf-syntax-ns#"
   xmlns:svg="http://www.w3.org/2000/svg"
   xmlns="http://www.w3.org/2000/svg"
   xmlns:sodipodi="http://sodipodi.sourceforge.net/DTD/sodipodi-0.dtd"
   xmlns:inkscape="http://www.inkscape.org/namespaces/inkscape"
   width="1066.6667"
   height="728.88849"
   id="svg2"
   version="1.1"
   inkscape:version="0.92.0 r15299"
   sodipodi:docname="SBS HD.svg"
   inkscape:export-filename="C:\Users\Jasmeet\Downloads\SBS HD.png"
   inkscape:export-xdpi="359.99997"
   inkscape:export-ydpi="359.99997"
   viewBox="0 0 1000.0001 683.33295">
  <defs
     id="defs4" />
  <sodipodi:namedview
     id="base"
     pagecolor="#ffffff"
     bordercolor="#666666"
     borderopacity="1.0"
     inkscape:pageopacity="0.0"
     inkscape:pageshadow="2"
     inkscape:zoom="0.56464844"
     inkscape:cx="831.10302"
     inkscape:cy="570.98806"
     inkscape:document-units="px"
     inkscape:current-layer="layer1"
     showgrid="false"
     fit-margin-left="0.5"
     fit-margin-bottom="0.5"
     fit-margin-top="0.5"
     fit-margin-right="0.5"
     inkscape:window-width="1920"
     inkscape:window-height="1017"
     inkscape:window-x="-8"
     inkscape:window-y="-8"
     inkscape:window-maximized="1">
    <inkscape:grid
       type="xygrid"
       id="grid2996"
       empspacing="5"
       visible="true"
       enabled="true"
       snapvisiblegridlinesonly="true"
       originx="-149.91046"
       originy="-479.91636"
       spacingx="1"
       spacingy="0.99999999" />
  </sodipodi:namedview>
  <metadata
     id="metadata7">
    <rdf:RDF>
      <cc:Work
         rdf:about="">
        <dc:format>image/svg+xml</dc:format>
        <dc:type
           rdf:resource="http://purl.org/dc/dcmitype/StillImage" />
        <dc:title />
      </cc:Work>
    </rdf:RDF>
  </metadata>
  <g
     inkscape:label="Layer 1"
     inkscape:groupmode="layer"
     id="layer1"
     transform="translate(-149.91046,110.88711)">
    <g
       transform="matrix(2.2768937,0,0,2.2768937,-208.98036,1215.4336)"
       id="layer1-7"
       inkscape:label="Layer 1">
      <g
         id="g3049"
         transform="matrix(1.4436998,0,0,1.4436998,-105.42852,-917.76024)">
        <path
           inkscape:connector-curvature="0"
           id="path25087"
           d="m 182.37826,346.59814 c 10.13052,-9.73786 19.35792,-23.00961 26.17049,-38.6962 6.81258,-15.70622 10.18942,-31.5106 10.36611,-45.56767 l -0.1178,0.1178 c -10.09125,9.71822 -19.27939,22.95071 -26.07232,38.59803 -6.77331,15.62769 -10.15015,31.37318 -10.36611,45.39098"
           style="fill:#e52927;fill-rule:nonzero;stroke:none" />
        <path
           inkscape:connector-curvature="0"
           id="path25091"
           d="m 193.34192,368.63462 c 13.64685,-13.06265 26.07527,-30.86362 35.27139,-51.95442 9.19623,-21.11027 13.77879,-42.34482 14.06433,-61.24857 l -0.17612,0.15474 c -13.58834,13.04351 -25.97771,30.82525 -35.13443,51.83839 -9.15673,21.01314 -13.73883,42.16982 -14.06298,61.01492"
           style="fill:#e52927;fill-rule:nonzero;stroke:none" />
        <path
           inkscape:connector-curvature="0"
           style="fill:#e52927;fill-rule:nonzero;stroke:none"
           d="m 208.21437,399.5065 c 18.55911,-17.75864 35.49077,-41.94935 47.99581,-70.60485 12.52504,-28.65528 18.79834,-57.53941 19.20179,-83.23133 l -0.24197,0.19716 c -18.47896,17.73954 -35.33003,41.87119 -47.814,70.42702 -12.48397,28.55581 -18.73598,57.3203 -19.19826,82.91165"
           id="path25095" />
        <path
           inkscape:connector-curvature="0"
           id="path25101"
           d="m 228.74286,439.94168 c 24.95743,-23.97263 47.67792,-56.67299 64.42367,-95.32534 16.78549,-38.67198 25.1127,-77.62178 25.55423,-112.25044 l -0.31829,0.27585 c -24.83857,23.9732 -47.45941,56.55515 -64.16499,95.08884 -16.70559,38.53368 -25.01384,77.66189 -25.51424,112.17137"
           style="fill:#e52927;fill-rule:nonzero;stroke:none" />
      </g>
    </g>
    <g
       id="g4143">
      <path
         sodipodi:nodetypes="ccccccccccccc"
         inkscape:connector-curvature="0"
         id="path2998"
         d="m 703.57778,185.78249 h 39.82005 c -0.93811,-43.82677 -34.38014,-73.69492 -88.25038,-73.69492 -46.01739,0 -82.77808,27.20808 -82.77808,66.91747 0,88.63535 137.22093,45.63874 137.22093,104.83144 0,23.22971 -23.19717,34.95251 -47.59675,34.95251 -33.35925,0 -56.89841,-16.105 -58.46993,-48.76697 h -39.44201 c 0,60.34982 48.74818,80.77422 93.94254,80.77422 52.85752,0 91.48529,-24.90007 91.48529,-70.00012 0,-91.44569 -137.66898,-50.68365 -137.66898,-106.35479 0,-18.92299 17.55838,-29.23498 42.15129,-29.23498 36.53991,0 47.65192,19.03905 49.58603,40.57614 z"
         style="fill:#e52927;fill-opacity:1;stroke:none" />
      <path
         sodipodi:nodetypes="ccsscssccssscccssscc"
         inkscape:connector-curvature="0"
         id="path3055"
         d="M 764.6641,117.54423 V 345.2336 h 111.14088 c 43.98931,0 77.48554,-21.43604 77.48554,-63.25495 0,-29.14747 -10.25438,-48.93024 -42.54946,-59.27039 17.89789,-7.75936 31.73421,-19.80818 31.73421,-49.30898 0,-37.63632 -24.98961,-55.85505 -66.38568,-55.85505 z m 39.63218,31.87652 h 64.67802 c 25.17561,0 34.72262,14.3355 34.72262,31.94766 0,19.93798 -13.3862,31.80536 -32.44573,31.80536 h -66.95491 z m 3e-4,92.44229 h 69.76644 c 27.82931,0 39.95108,15.38303 39.95108,35.84643 0,22.49162 -18.15081,35.64762 -38.77835,35.64762 h -70.93947 z"
         style="fill:#e52927;fill-opacity:1;stroke:none" />
      <path
         style="fill:#e52927;fill-opacity:1;stroke:none"
         d="m 1103.4788,185.78249 h 39.82 c -0.9381,-43.82677 -34.3801,-73.69492 -88.2503,-73.69492 -46.0174,0 -82.77812,27.20808 -82.77812,66.91747 0,88.63535 137.22092,45.63874 137.22092,104.83144 0,23.22971 -23.1972,34.95251 -47.5967,34.95251 -33.3593,0 -56.8984,-16.105 -58.47,-48.76697 h -39.44197 c 0,60.34982 48.74817,80.77422 93.94257,80.77422 52.8575,0 91.4853,-24.90007 91.4853,-70.00012 0,-91.44569 -137.669,-50.68365 -137.669,-106.35479 0,-18.92299 17.5584,-29.23498 42.1513,-29.23498 36.5399,0 47.6519,19.03905 49.586,40.57614 z"
         id="path3061"
         inkscape:connector-curvature="0"
         sodipodi:nodetypes="ccccccccccccc" />
    </g>
    <g
       transform="matrix(1.766568,0,0,1.766568,12.770907,-326.59597)"
       id="g4160">
      <path
         d="M 312.08,416.32742 H 643.4168 V 508.92 H 312.08 v -92.59258"
         id="path13"
         inkscape:connector-curvature="0"
         style="opacity:1;fill:#e52927"
         sodipodi:nodetypes="ccccc" />
      <path
         d="m 494.52231,442.28023 c 7.89633,0.37086 16.69664,-1.20531 23.65808,3.48458 5.68659,3.84773 6.84555,11.27275 6.87645,17.64699 0.0618,6.60603 -0.81126,14.38646 -6.62921,18.55869 -6.96144,4.92169 -15.95491,3.32233 -23.95941,3.63911 0.0464,-14.44055 -0.0618,-28.8811 0.0541,-43.32937 z"
         id="path15"
         inkscape:connector-curvature="0"
         style="opacity:1;fill:#e52927" />
    </g>
    <path
       style="opacity:1;fill:#f6f6f6;fill-opacity:1;stroke-width:1.88433909"
       d="m 659.87695,586.9375 c -3.36314,1.3e-4 -6.72669,0.007 -10.08984,0.0293 0.0292,38.14474 5.8e-4,76.28973 0.0156,114.41992 6.72629,0.015 13.45146,0.0156 20.17774,0.0156 0.015,-17.19425 -0.0286,-34.37411 0.0156,-51.56836 17.31073,-0.015 34.60724,-0.015 51.91797,0 0,17.16515 0.0435,34.31534 -0.0293,51.48047 6.71173,0.13096 13.4241,0.0879 20.15039,0.0879 0.015,-38.1593 0,-76.30447 0,-114.44922 -6.69717,-0.015 -13.41025,-0.015 -20.10743,0 -0.015,15.15598 -0.015,30.31277 0,45.46876 -17.32529,0 -34.63459,0.0286 -51.94531,-0.0156 -0.015,-15.15598 0.0286,-30.29714 -0.0156,-45.45313 -3.36315,-0.008 -6.7267,-0.0158 -10.08985,-0.0156 z m 105.48047,0.0156 c -0.029,38.13019 0.0148,76.25848 -0.0293,114.38868 16.88853,-0.0437 33.79206,0.36467 50.66602,-0.20313 14.06404,-0.29118 28.28851,-6.65284 36.4707,-18.34375 10.01663,-14.3698 11.99655,-32.86113 10.00196,-49.85156 -1.79077,-14.87936 -8.4588,-30.2823 -21.63477,-38.40625 -9.08484,-6.02746 -20.19345,-7.52573 -30.86523,-7.58399 -14.87937,-0.029 -29.74456,0 -44.60938,0 z m 20.20703,16.36329 17.48962,0.0573 c 9.54084,0.0313 18.97809,1.04383 27.09046,6.50909 10.71547,7.25043 12.90076,21.24072 12.95899,33.25196 0.11644,12.448 -1.52921,27.11076 -12.49219,34.97265 -7.23569,5.11558 -15.63123,6.77405 -24.24719,6.79782 l -20.90125,0.0576 z"
       transform="matrix(0.93750001,0,0,0.93750001,149.91046,-110.88711)"
       id="path13-3"
       inkscape:connector-curvature="0"
       sodipodi:nodetypes="sccccccccccccscccccccccscccscc" />
  </g>
</svg>
