<?xml version="1.0" encoding="UTF-8" standalone="no"?>
<svg
   xmlns:dc="http://purl.org/dc/elements/1.1/"
   xmlns:cc="http://creativecommons.org/ns#"
   xmlns:rdf="http://www.w3.org/1999/02/22-rdf-syntax-ns#"
   xmlns:svg="http://www.w3.org/2000/svg"
   xmlns="http://www.w3.org/2000/svg"
   xmlns:sodipodi="http://sodipodi.sourceforge.net/DTD/sodipodi-0.dtd"
   xmlns:inkscape="http://www.inkscape.org/namespaces/inkscape"
   width="817.4281pt"
   height="326.48026pt"
   viewBox="0 0 817.4281 326.48026"
   version="1.1"
   id="svg22"
   sodipodi:docname="SBS Viceland.svg"
   inkscape:version="0.92.0 r15299">
  <metadata
     id="metadata28">
    <rdf:RDF>
      <cc:Work
         rdf:about="">
        <dc:format>image/svg+xml</dc:format>
        <dc:type
           rdf:resource="http://purl.org/dc/dcmitype/StillImage" />
        <dc:title></dc:title>
      </cc:Work>
    </rdf:RDF>
  </metadata>
  <defs
     id="defs26" />
  <sodipodi:namedview
     pagecolor="#ffffff"
     bordercolor="#666666"
     borderopacity="1"
     objecttolerance="10"
     gridtolerance="10"
     guidetolerance="10"
     inkscape:pageopacity="0"
     inkscape:pageshadow="2"
     inkscape:window-width="1920"
     inkscape:window-height="1017"
     id="namedview24"
     showgrid="false"
     fit-margin-top="0"
     fit-margin-left="0"
     fit-margin-right="0"
     fit-margin-bottom="0"
     inkscape:zoom="0.39333333"
     inkscape:cx="406.46031"
     inkscape:cy="193.92102"
     inkscape:window-x="-8"
     inkscape:window-y="-8"
     inkscape:window-maximized="1"
     inkscape:current-layer="svg22" />
  <path
     sodipodi:nodetypes="ccccccc"
     style="opacity:1;fill:#ffffff;fill-opacity:1;stroke-width:0.24119473"
     inkscape:connector-curvature="0"
     id="path13-5"
     d="m 268.36871,200.36146 h 31.34568 l 0.007,73.2653 h 42.93025 l -0.005,22.3732 h -74.27768 z" />
  <path
     sodipodi:nodetypes="cccccccccccccc"
     style="opacity:1;fill:#ffffff;fill-opacity:1;stroke-width:0.24137513"
     inkscape:connector-curvature="0"
     id="path15-9"
     d="m 438.00894,200.36736 31.89289,-0.01 c 11.39048,31.9074 22.84133,63.7955 34.23181,95.7028 h -31.22912 l -3.68336,-12.5756 -31.16637,-0.038 -3.5772,12.6143 -30.70771,-0.046 c 11.42186,-31.8808 22.82443,-63.7688 34.23906,-95.6545 m 14.88321,31.7915 c -2.92547,10.4492 -5.94026,20.8765 -8.82225,31.3353 l 19.65756,-0.019 -10.01704,-34.0797 z" />
  <path
     sodipodi:nodetypes="ccccccccccccccccc"
     style="opacity:1;fill:#ffffff;fill-opacity:1;stroke-width:0.24142249"
     inkscape:connector-curvature="0"
     id="path17-1"
     d="m 558.77181,200.35828 29.3787,0.024 c 10.44637,16.086 20.97246,32.1213 31.44779,48.1879 0.85462,1.2433 1.59338,2.5711 2.52277,3.7614 -0.23891,-5.0313 -0.5456,-10.0625 -0.80876,-15.0938 -0.11587,-2.6605 -0.37903,-5.3137 -0.32588,-7.979 0,-9.6327 -0.01,-19.2679 0.005,-28.9006 h 29.99193 v 95.7192 l -29.34256,0.01 c -10.98473,-16.7716 -21.96456,-33.5432 -32.94935,-50.3149 -0.35964,-0.5287 -0.66633,-1.0985 -1.0984,-1.5716 0.35731,5.8858 0.64694,11.7766 0.98254,17.6624 0.30183,4.0173 0.14,8.0491 0.1811,12.0736 0,7.3827 0.005,14.7654 -0.005,22.1481 h -29.98221 z" />
  <path
     sodipodi:nodetypes="ccccccccccccccccccccc"
     style="opacity:1;fill:#ffffff;fill-opacity:1;stroke-width:0.24111721"
     inkscape:connector-curvature="0"
     id="path19-3"
     d="m 725.74563,200.38617 h 32.60867 c 6.19678,0.041 12.41273,-0.1905 18.58535,0.4967 8.8562,0.9524 17.79687,3.5035 25.01104,8.8997 6.04488,4.4413 10.45485,10.9057 12.78648,18.0018 1.68782,4.9453 2.40882,10.1582 2.6909,15.3567 v 6.2812 c -0.35685,8.5982 -1.84934,17.3483 -5.92905,25.0159 -3.48182,6.662 -9.07565,12.1667 -15.76913,15.5809 -8.88031,4.5933 -19.04341,5.9098 -28.92681,5.9725 -13.68576,-0.01 -27.36921,-0.01 -41.05502,-0.01 v -95.6029 m 31.28492,22.3636 v 50.8758 c 2.92952,-0.034 5.86399,0.072 8.79356,-0.065 3.43106,-0.2026 6.89832,-0.897 9.95574,-2.5294 3.57817,-1.8325 6.32686,-5.0658 7.88213,-8.7453 2.07118,-4.8513 2.51236,-10.2089 2.47626,-15.4267 -0.15676,-5.3672 -0.49193,-10.9804 -3.05014,-15.8197 -1.67574,-3.2575 -4.75,-5.6421 -8.2076,-6.7633 -5.74832,-1.9096 -11.8895,-1.4684 -17.84995,-1.5263 z" />
  <path
     sodipodi:nodetypes="ccccccccccccc"
     style="opacity:1;fill:#ffffff;fill-opacity:1;stroke-width:0.24157795"
     inkscape:connector-curvature="0"
     id="path11-2"
     d="m 725.74364,30.34964 77.97171,-0.0268 0.009,22.40634 -46.62696,0.007 -0.005,13.62987 42.53222,0.0314 c -0.0167,7.44302 -0.004,14.88604 -0.007,22.32663 l -42.52013,0.007 v 14.96819 l 48.49675,0.005 -0.004,22.40873 -79.81737,0.007 z" />
  <path
     sodipodi:nodetypes="ccccccccccccccccccccccccccc"
     style="opacity:1;fill:#ffffff;fill-opacity:1;stroke-width:0.24046841"
     inkscape:connector-curvature="0"
     id="path5-7"
     d="m 601.98946,28.07959 h 5.52596 c 9.23159,0.38236 18.66035,2.26041 26.60302,7.18281 6.3676,3.88118 11.41984,9.79428 14.38484,16.62841 2.11129,4.76369 3.2968,9.90248 3.82104,15.07495 l -29.65217,0.005 c -0.39438,-4.2515 -1.94299,-8.58472 -5.16046,-11.51846 -3.10685,-2.86638 -7.42085,-4.06631 -11.57615,-4.05426 -3.25595,-0.0577 -6.57681,0.85846 -9.1907,2.83512 -2.83031,2.09686 -4.73963,5.20373 -5.98526,8.45247 -1.92134,5.06186 -2.43835,10.52771 -2.52732,15.90215 0.0168,5.12921 0.28616,10.36662 1.98387,15.25292 1.15905,3.34494 3.20303,6.49986 6.2137,8.45247 3.42186,2.26278 7.65892,2.89043 11.68917,2.7173 3.65752,-0.16835 7.32948,-1.58951 9.85199,-4.2996 3.00104,-3.18138 4.40057,-7.52666 4.95605,-11.78536 h 30.05856 c -0.84887,7.75994 -3.35693,15.4381 -7.88738,21.84419 -4.12643,5.91552 -9.96018,10.58301 -16.55383,13.47102 -5.78327,2.57542 -12.09076,3.80182 -18.39103,4.11683 h -5.53559 c -6.67059,-0.30301 -13.3508,-1.45726 -19.5645,-3.9557 -7.40402,-2.94095 -14.05057,-7.8874 -18.73249,-14.35837 -5.22538,-7.11308 -8.02203,-15.77958 -8.93821,-24.49896 -1.03161,-10.0323 -0.0866,-20.43739 3.89077,-29.77958 3.179,-7.55555 8.38755,-14.28622 15.07978,-19.0499 7.42566,-5.38171 16.51777,-8.1952 25.63634,-8.63282 z" />
  <path
     sodipodi:nodetypes="ccccc"
     style="opacity:1;fill:#ffffff;fill-opacity:1;stroke-width:0.24180363"
     inkscape:connector-curvature="0"
     id="path9-6"
     d="m 439.0291,30.24507 31.36919,-0.005 -0.003,95.88 h -31.36435 z" />
  <path
     sodipodi:nodetypes="cccccccccc"
     style="opacity:1;fill:#ffffff;fill-opacity:1;stroke-width:0.24131073"
     inkscape:connector-curvature="0"
     id="path7-5"
     d="m 258.76364,30.33486 31.5755,-0.005 16.69147,63.4406 17.35506,-63.4406 31.61654,0.007 c -11.03514,31.89647 -22.12095,63.77604 -33.16575,95.67009 l -31.47898,0.007 C 282.46277,99.93819 273.56082,73.86701 264.6661,47.79098 262.68012,42.08155 260.81719,36.32871 258.76364,30.64341 Z" />
  <g
     transform="matrix(1.5728241,0,0,1.5728244,-286.81805,-365.47076)"
     id="g3049"
     style="fill:#ffffff;fill-opacity:1">
    <path
       style="fill:#ffffff;fill-opacity:1;fill-rule:nonzero;stroke:none"
       d="m 182.37826,346.59814 c 10.13052,-9.73786 19.35792,-23.00961 26.17049,-38.6962 6.81258,-15.70622 10.18942,-31.5106 10.36611,-45.56767 l -0.1178,0.1178 c -10.09125,9.71822 -19.27939,22.95071 -26.07232,38.59803 -6.77331,15.62769 -10.15015,31.37318 -10.36611,45.39098"
       id="path25087"
       inkscape:connector-curvature="0" />
    <path
       style="fill:#ffffff;fill-opacity:1;fill-rule:nonzero;stroke:none"
       d="m 193.34192,368.63462 c 13.64685,-13.06265 26.07527,-30.86362 35.27139,-51.95442 9.19623,-21.11027 13.77879,-42.34482 14.06433,-61.24857 l -0.17612,0.15474 c -13.58834,13.04351 -25.97771,30.82525 -35.13443,51.83839 -9.15673,21.01314 -13.73883,42.16982 -14.06298,61.01492"
       id="path25091"
       inkscape:connector-curvature="0" />
    <path
       id="path25095"
       d="m 208.21437,399.5065 c 18.55911,-17.75864 35.49077,-41.94935 47.99581,-70.60485 12.52504,-28.65528 18.79834,-57.53941 19.20179,-83.23133 l -0.24197,0.19716 c -18.47896,17.73954 -35.33003,41.87119 -47.814,70.42702 -12.48397,28.55581 -18.73598,57.3203 -19.19826,82.91165"
       style="fill:#ffffff;fill-opacity:1;fill-rule:nonzero;stroke:none"
       inkscape:connector-curvature="0" />
    <path
       style="fill:#ffffff;fill-opacity:1;fill-rule:nonzero;stroke:none"
       d="m 228.74286,439.94168 c 24.95743,-23.97263 47.67792,-56.67299 64.42367,-95.32534 16.78549,-38.67198 25.1127,-77.62178 25.55423,-112.25044 l -0.31829,0.27585 c -24.83857,23.9732 -47.45941,56.55515 -64.16499,95.08884 -16.70559,38.53368 -25.01384,77.66189 -25.51424,112.17137"
       id="path25101"
       inkscape:connector-curvature="0" />
  </g>
  <g
     id="#f7f5f6ff"
     transform="translate(-42.786358,-287.36)" />
</svg>
