<svg width="800" height="78.357" space="preserve" version="1.1" viewBox="0 0 800 78.357" xmlns="http://www.w3.org/2000/svg">
 <link href="" rel="stylesheet" type="text/css"/>
 <style type="text/css"/>
 <g transform="scale(.82568)">
  <path d="m25.7 84.8c12.2 0 18.2-4.2 18.2-12.5 0-2.6-0.5-4.7-1.6-6.5s-2.5-3.4-4.4-4.7c-1.8-1.3-3.9-2.5-6.3-3.4-2.4-1-4.9-1.9-7.5-2.9-3-1-5.9-2.2-8.6-3.5s-5.1-2.9-7.1-4.7-3.6-3.9-4.7-6.4c-1.2-2.5-1.7-5.5-1.7-9 0-7.3 2.5-13 7.4-17 5-4.1 11.8-6.1 20.5-6.1 5 0 9.6 0.5 13.7 1.6s7.1 2.3 9.1 3.5l-3.7 9.5c-1.7-1-4.2-2.1-7.5-3.1s-7.2-1.5-11.6-1.5c-2.2 0-4.3 0.2-6.2 0.7s-3.7 1.2-5.1 2.2-2.6 2.2-3.4 3.7-1.3 3.2-1.3 5.2c0 2.2 0.4 4.1 1.3 5.6s2.1 2.9 3.7 4c1.6 1.2 3.5 2.2 5.6 3.2s4.5 1.9 7 2.9c3.6 1.4 6.9 2.9 9.9 4.3s5.6 3.2 7.8 5.2 3.9 4.4 5.1 7.1c1.2 2.8 1.8 6.1 1.8 10 0 7.3-2.7 12.9-8 16.8s-12.8 5.9-22.5 5.9c-3.3 0-6.3-0.2-9.1-0.7-2.8-0.4-5.2-1-7.4-1.6s-4-1.2-5.6-1.9c-1.4-0.6-2.6-1.2-3.5-1.7l3.5-9.6c1.8 1 4.6 2.2 8.4 3.5 3.7 1.3 8.3 1.9 13.8 1.9z"/>
  <path d="m92.9 93.8c-1.7 0-3.5 0-5.5-0.1s-3.9-0.2-5.9-0.4-3.9-0.4-5.8-0.6-3.7-0.6-5.3-1v-80.5c1.6-0.4 3.4-0.7 5.3-1s3.9-0.4 5.8-0.6c2-0.2 3.9-0.3 5.8-0.4s3.7-0.1 5.4-0.1c4.8 0 9.3 0.4 13.5 1.1s7.8 1.9 10.9 3.7c3.1 1.7 5.5 4 7.3 6.8s2.6 6.2 2.6 10.3c0 4.6-1.1 8.3-3.2 11.2-2.2 2.9-5 5.1-8.6 6.5 4.9 1.4 8.8 3.7 11.6 6.8 2.9 3.1 4.3 7.5 4.3 13.2 0 8.3-3.1 14.6-9.2 18.8-6 4.2-15.7 6.3-29 6.3zm-10.9-48.8h12.2c2.9 0 5.6-0.2 8.2-0.6s4.8-1.1 6.7-2.2c1.9-1 3.4-2.4 4.4-4.1s1.6-3.8 1.6-6.4c0-2.4-0.6-4.4-1.7-6.1-1.1-1.6-2.7-3-4.6-4-2-1-4.3-1.7-6.9-2.2s-5.4-0.7-8.4-0.7-5.3 0-7 0.1-3.2 0.2-4.6 0.4v25.8zm0 9.4v29.3c0.9 0.1 1.9 0.2 3.1 0.2 1 0.1 2.3 0.1 3.7 0.2 1.4 0 3 0.1 4.9 0.1 3.4 0 6.7-0.2 9.8-0.7 3.1-0.4 5.8-1.2 8.1-2.3s4.2-2.7 5.6-4.7 2.1-4.5 2.1-7.6c0-2.7-0.5-5-1.6-6.9-1-1.9-2.5-3.4-4.5-4.5s-4.3-1.9-7-2.4-5.8-0.7-9.1-0.7z"/>
  <path d="m167.2 84.8c12.2 0 18.2-4.2 18.2-12.5 0-2.6-0.5-4.7-1.6-6.5s-2.5-3.4-4.4-4.7c-1.8-1.3-3.9-2.5-6.3-3.4-2.4-1-4.9-1.9-7.5-2.9-3-1-5.9-2.2-8.6-3.5s-5.1-2.9-7.1-4.7-3.6-3.9-4.7-6.4c-1.2-2.5-1.7-5.5-1.7-9 0-7.3 2.5-13 7.4-17 5-4.1 11.8-6.1 20.5-6.1 5 0 9.6 0.5 13.7 1.6s7.1 2.3 9.1 3.5l-3.7 9.5c-1.7-1-4.2-2.1-7.5-3.1s-7.2-1.5-11.6-1.5c-2.2 0-4.3 0.2-6.2 0.7s-3.6 1.2-5 2.2-2.6 2.2-3.4 3.7-1.3 3.2-1.3 5.2c0 2.2 0.4 4.1 1.3 5.6s2.1 2.9 3.7 4c1.6 1.2 3.5 2.2 5.6 3.2s4.5 1.9 7 2.9c3.6 1.4 6.9 2.9 9.9 4.3s5.6 3.2 7.8 5.2 3.9 4.4 5.1 7.1c1.2 2.8 1.8 6.1 1.8 10 0 7.3-2.7 12.9-8 16.8s-12.8 5.9-22.5 5.9c-3.3 0-6.3-0.2-9.1-0.7-2.8-0.4-5.2-1-7.4-1.6s-4-1.2-5.6-1.9-2.8-1.3-3.7-1.7l3.5-9.6c1.8 1 4.6 2.2 8.4 3.5s8.4 1.9 13.9 1.9z"/>
  <path d="m287.5 36.7c-3.4 10.7-6.8 20.6-10.2 29.8-3.4 9.1-6.9 18-10.3 26.6h-11.6c-4.2-12.2-8-25.2-11.2-38.8s-6.3-28.4-9.1-44.4h12.2c1.1 6.2 2.3 12.5 3.5 18.7s2.4 12.3 3.7 18.2 2.6 11.5 3.8 16.9c1.3 5.4 2.6 10.3 4 14.9 3.2-8.4 6.6-17.6 10.2-27.7 3.6-10 7-20.4 10.1-31.1h10.1c3.1 10.7 6.5 21.1 10.2 31.1s7.1 19.3 10.3 27.7c1.3-4.5 2.6-9.4 3.8-14.8 1.3-5.4 2.5-11 3.8-16.9 1.2-5.9 2.5-12 3.7-18.2 1.2-6.3 2.4-12.5 3.5-18.8h11.9c-2.9 16-5.9 30.8-9.2 44.4-3.2 13.6-6.9 26.5-11.1 38.8h-11.6c-3.5-8.6-7-17.5-10.3-26.6-3.5-9.1-6.8-19.1-10.2-29.8z"/>
  <path d="m405.5 61.9c0 5-0.7 9.4-2.2 13.4-1.4 4-3.5 7.4-6.1 10.3s-5.7 5.1-9.3 6.7-7.5 2.3-11.8 2.3c-4.2 0-8.2-0.8-11.8-2.3s-6.7-3.8-9.3-6.7-4.6-6.3-6.1-10.3c-1.4-4-2.2-8.5-2.2-13.4s0.7-9.3 2.2-13.4c1.4-4 3.5-7.5 6.1-10.4s5.7-5.1 9.3-6.7 7.5-2.3 11.8-2.3c4.2 0 8.2 0.8 11.8 2.3 3.6 1.6 6.7 3.8 9.3 6.7s4.6 6.3 6.1 10.4 2.2 8.5 2.2 13.4zm-11.7 0c0-7-1.6-12.6-4.7-16.7-3.2-4.1-7.5-6.2-12.9-6.2s-9.7 2.1-12.9 6.2-4.7 9.7-4.7 16.7 1.6 12.6 4.7 16.7c3.2 4.1 7.5 6.2 12.9 6.2s9.7-2.1 12.9-6.2 4.7-9.6 4.7-16.7z"/>
  <path d="m444.5 29.4c1 0 2.1 0.1 3.3 0.2s2.5 0.3 3.7 0.5 2.3 0.4 3.3 0.6 1.7 0.4 2.2 0.5l-1.9 9.7c-0.9-0.3-2.3-0.7-4.4-1.1-2-0.4-4.7-0.7-7.9-0.7-2.1 0-4.1 0.2-6.2 0.7-2 0.4-3.4 0.7-4 0.9v52.4h-11.2v-59.7c2.6-1 5.9-1.9 9.8-2.7s8.4-1.3 13.3-1.3z"/>
  <path d="m486.7 94.3c-6.9-0.2-11.8-1.6-14.6-4.4-2.9-2.8-4.3-7.2-4.3-13.1v-74.9l11.1-1.9v75c0 1.8 0.2 3.4 0.5 4.6s0.8 2.2 1.6 2.9c0.7 0.7 1.7 1.3 2.9 1.6 1.2 0.4 2.7 0.7 4.4 0.9z"/>
  <path d="m538.7 1.9 11.1-1.9v91.3c-2.6 0.7-5.8 1.4-9.8 2.2-4 0.7-8.6 1.1-13.8 1.1-4.8 0-9.1-0.8-13-2.3-3.8-1.5-7.1-3.7-9.8-6.5s-4.8-6.2-6.3-10.3c-1.5-4-2.2-8.6-2.2-13.6 0-4.8 0.6-9.2 1.9-13.2 1.2-4 3.1-7.4 5.5-10.3s5.3-5.1 8.8-6.7 7.5-2.4 11.9-2.4c3.6 0 6.8 0.5 9.5 1.4 2.8 1 4.8 1.9 6.2 2.8zm0 42c-1.4-1.1-3.3-2.2-5.9-3.2s-5.4-1.6-8.4-1.6c-3.2 0-5.9 0.6-8.2 1.7-2.3 1.2-4.1 2.8-5.6 4.8-1.4 2-2.5 4.5-3.1 7.3s-1 5.8-1 9c0 7.3 1.8 12.9 5.4 16.9s8.4 5.9 14.4 5.9c3 0 5.6-0.1 7.6-0.4s3.6-0.6 4.7-0.9v-39.5z"/>
  <path d="m638.6 81.6c-0.8-1.9-1.9-4.4-3.2-7.3-1.3-3-2.7-6.2-4.3-9.6-1.5-3.4-3.1-7-4.9-10.6-1.7-3.6-3.3-7.1-4.9-10.3-1.5-3.2-2.9-6.1-4.3-8.7-1.3-2.6-2.4-4.5-3.2-5.9-0.9 9.4-1.6 19.7-2.2 30.7s-1 22.1-1.4 33.3h-11.2c0.3-7.2 0.7-14.5 1.1-21.8s0.9-14.5 1.4-21.6 1.1-14 1.7-20.7 1.3-13.1 2-19.1h10.2c2.2 3.5 4.5 7.7 7 12.5s5 9.8 7.4 15.1c2.5 5.2 4.9 10.5 7.2 15.7s4.4 10 6.4 14.3c1.9-4.3 4-9.1 6.4-14.3 2.3-5.2 4.7-10.5 7.2-15.7s5-10.3 7.4-15.1c2.5-4.8 4.8-9 7-12.5h10.2c2.7 26.8 4.8 54.5 6.1 83.2h-11.4c-0.4-11.2-0.9-22.3-1.4-33.3-0.6-11-1.3-21.2-2.2-30.7-0.8 1.4-1.9 3.3-3.2 5.9s-2.7 5.5-4.3 8.7c-1.5 3.2-3.1 6.7-4.9 10.3-1.7 3.6-3.3 7.2-4.9 10.6-1.5 3.4-2.9 6.6-4.3 9.6-1.3 3-2.4 5.4-3.2 7.3z"/>
  <path d="m759.5 61.9c0 5-0.7 9.4-2.2 13.4-1.4 4-3.5 7.4-6.1 10.3s-5.7 5.1-9.3 6.7-7.5 2.3-11.8 2.3c-4.2 0-8.2-0.8-11.8-2.3-3.6-1.6-6.7-3.8-9.3-6.7s-4.6-6.3-6.1-10.3c-1.4-4-2.2-8.5-2.2-13.4s0.7-9.3 2.2-13.4c1.4-4 3.5-7.5 6.1-10.4s5.7-5.1 9.3-6.7 7.5-2.3 11.8-2.3c4.2 0 8.2 0.8 11.8 2.3s6.7 3.8 9.3 6.7 4.6 6.3 6.1 10.4 2.2 8.5 2.2 13.4zm-11.7 0c0-7-1.6-12.6-4.7-16.7-3.2-4.1-7.5-6.2-12.9-6.2s-9.7 2.1-12.9 6.2-4.7 9.7-4.7 16.7 1.6 12.6 4.7 16.7c3.2 4.1 7.5 6.2 12.9 6.2s9.7-2.1 12.9-6.2c3.1-4.1 4.7-9.6 4.7-16.7z"/>
  <path d="m822.5 30.7c-3.1 11.7-6.8 22.9-11 33.6s-8.3 20.3-12.2 28.8h-10.1c-3.9-8.5-8-18.1-12.2-28.8s-7.9-21.9-11-33.6h12c1 3.9 2.1 8.1 3.4 12.5s2.7 8.8 4.2 13.2 3 8.6 4.5 12.7 3 7.7 4.3 10.9c1.4-3.2 2.8-6.8 4.3-10.9s3-8.3 4.5-12.7 2.9-8.8 4.2-13.2 2.5-8.6 3.4-12.5z"/>
  <path d="m839.1 19.4c-2 0-3.7-0.7-5.1-2s-2.1-3.1-2.1-5.3 0.7-4 2.1-5.3 3.1-2 5.1-2 3.7 0.7 5.1 2 2.1 3.1 2.1 5.3-0.7 4-2.1 5.3c-1.3 1.4-3.1 2-5.1 2zm5.7 73.7h-11.2v-62.4h11.2z"/>
  <path d="m859.8 62c0-5.5 0.8-10.3 2.4-14.5 1.6-4.1 3.7-7.5 6.4-10.3 2.6-2.7 5.7-4.8 9.1-6.1 3.4-1.4 7-2 10.6-2 8.4 0 14.8 2.6 19.3 7.9 4.5 5.2 6.7 13.2 6.7 23.9v1.9c0 0.8 0 1.5-0.1 2.1h-42.7c0.5 6.5 2.4 11.4 5.6 14.8 3.3 3.4 8.4 5 15.4 5 3.9 0 7.2-0.3 9.9-1s4.7-1.3 6.1-2l1.6 9.4c-1.4 0.7-3.7 1.5-7.1 2.3s-7.3 1.2-11.6 1.2c-5.4 0-10.1-0.8-14.1-2.5-4-1.6-7.2-3.9-9.8-6.8s-4.5-6.3-5.7-10.3c-1.4-3.9-2-8.2-2-13zm42.8-6.1c0.1-5-1.2-9.2-3.8-12.4s-6.2-4.9-10.7-4.9c-2.6 0-4.8 0.5-6.8 1.5s-3.6 2.3-5 3.9-2.4 3.4-3.2 5.5-1.3 4.2-1.5 6.4z"/>
  <path d="m944.1 85.1c4.6 0 7.9-0.6 10.1-1.8s3.3-3.1 3.3-5.8-1.1-4.9-3.2-6.5c-2.2-1.6-5.7-3.4-10.7-5.4-2.4-1-4.7-1.9-6.9-2.9s-4.1-2.2-5.7-3.5c-1.6-1.4-2.9-3-3.8-4.9-1-1.9-1.4-4.3-1.4-7.1 0-5.5 2-9.9 6.1-13.1s9.6-4.9 16.7-4.9c1.8 0 3.5 0.1 5.3 0.3s3.4 0.4 4.9 0.7 2.9 0.6 4 0.9c1.2 0.3 2.1 0.6 2.7 0.8l-2 9.6c-1.2-0.6-3.1-1.3-5.6-2-2.6-0.7-5.6-1-9.2-1-3.1 0-5.8 0.6-8.2 1.9-2.3 1.2-3.5 3.2-3.5 5.8 0 1.4 0.3 2.6 0.8 3.6s1.3 2 2.4 2.8 2.4 1.6 4 2.3 3.5 1.5 5.8 2.3c3 1.1 5.6 2.2 7.9 3.3s4.3 2.3 5.9 3.8c1.6 1.4 2.9 3.2 3.8 5.2s1.3 4.5 1.3 7.5c0 5.8-2.1 10.1-6.4 13.1s-10.4 4.4-18.3 4.4c-5.5 0-9.8-0.5-13-1.4-3.1-0.9-5.2-1.6-6.4-2.1l2-9.6c1.3 0.5 3.3 1.2 6.1 2.2 2.9 1 6.6 1.5 11.2 1.5z"/>
 </g>
</svg>
