<?xml version="1.0" encoding="UTF-8" standalone="no"?>
<svg
   xmlns:dc="http://purl.org/dc/elements/1.1/"
   xmlns:cc="http://creativecommons.org/ns#"
   xmlns:rdf="http://www.w3.org/1999/02/22-rdf-syntax-ns#"
   xmlns:svg="http://www.w3.org/2000/svg"
   xmlns="http://www.w3.org/2000/svg"
   xmlns:sodipodi="http://sodipodi.sourceforge.net/DTD/sodipodi-0.dtd"
   xmlns:inkscape="http://www.inkscape.org/namespaces/inkscape"
   width="657.68097pt"
   height="158.43974pt"
   viewBox="0 0 657.68097 158.43974"
   version="1.1"
   id="svg34"
   sodipodi:docname="SBS Viceland HD.svg"
   inkscape:version="0.92.0 r15299">
  <metadata
     id="metadata40">
    <rdf:RDF>
      <cc:Work
         rdf:about="">
        <dc:format>image/svg+xml</dc:format>
        <dc:type
           rdf:resource="http://purl.org/dc/dcmitype/StillImage" />
        <dc:title></dc:title>
      </cc:Work>
    </rdf:RDF>
  </metadata>
  <defs
     id="defs38" />
  <sodipodi:namedview
     pagecolor="#ffffff"
     bordercolor="#666666"
     borderopacity="1"
     objecttolerance="10"
     gridtolerance="10"
     guidetolerance="10"
     inkscape:pageopacity="0"
     inkscape:pageshadow="2"
     inkscape:window-width="1920"
     inkscape:window-height="1017"
     id="namedview36"
     showgrid="false"
     fit-margin-top="0"
     fit-margin-left="0"
     fit-margin-right="0"
     fit-margin-bottom="0"
     inkscape:zoom="1.2102273"
     inkscape:cx="404.30534"
     inkscape:cy="56.398138"
     inkscape:window-x="-8"
     inkscape:window-y="-8"
     inkscape:window-maximized="1"
     inkscape:current-layer="svg34" />
  <g
     transform="matrix(0.76328618,0,0,0.76328628,-139.19182,-177.3617)"
     id="g3049"
     style="fill:#ffffff;fill-opacity:1">
    <path
       style="fill:#ffffff;fill-opacity:1;fill-rule:nonzero;stroke:none"
       d="m 182.37826,346.59814 c 10.13052,-9.73786 19.35792,-23.00961 26.17049,-38.6962 6.81258,-15.70622 10.18942,-31.5106 10.36611,-45.56767 l -0.1178,0.1178 c -10.09125,9.71822 -19.27939,22.95071 -26.07232,38.59803 -6.77331,15.62769 -10.15015,31.37318 -10.36611,45.39098"
       id="path25087"
       inkscape:connector-curvature="0" />
    <path
       style="fill:#ffffff;fill-opacity:1;fill-rule:nonzero;stroke:none"
       d="m 193.34192,368.63462 c 13.64685,-13.06265 26.07527,-30.86362 35.27139,-51.95442 9.19623,-21.11027 13.77879,-42.34482 14.06433,-61.24857 l -0.17612,0.15474 c -13.58834,13.04351 -25.97771,30.82525 -35.13443,51.83839 -9.15673,21.01314 -13.73883,42.16982 -14.06298,61.01492"
       id="path25091"
       inkscape:connector-curvature="0" />
    <path
       id="path25095"
       d="m 208.21437,399.5065 c 18.55911,-17.75864 35.49077,-41.94935 47.99581,-70.60485 12.52504,-28.65528 18.79834,-57.53941 19.20179,-83.23133 l -0.24197,0.19716 c -18.47896,17.73954 -35.33003,41.87119 -47.814,70.42702 -12.48397,28.55581 -18.73598,57.3203 -19.19826,82.91165"
       style="fill:#ffffff;fill-opacity:1;fill-rule:nonzero;stroke:none"
       inkscape:connector-curvature="0" />
    <path
       style="fill:#ffffff;fill-opacity:1;fill-rule:nonzero;stroke:none"
       d="m 228.74286,439.94168 c 24.95743,-23.97263 47.67792,-56.67299 64.42367,-95.32534 16.78549,-38.67198 25.1127,-77.62178 25.55423,-112.25044 l -0.31829,0.27585 c -24.83857,23.9732 -47.45941,56.55515 -64.16499,95.08884 -16.70559,38.53368 -25.01384,77.66189 -25.51424,112.17137"
       id="path25101"
       inkscape:connector-curvature="0" />
  </g>
  <g
     id="g4530"
     style="fill:#ffffff;fill-opacity:1"
     transform="translate(-1.4629613,-7.5073853e-6)">
    <path
       sodipodi:nodetypes="cccccccccccccc"
       d="m 599.41,47.344005 h 7.15023 v 12.065999 h 12.5595 V 47.344005 h 7.37025 v 32.000249 h -7.37025 v -13.794 h -12.5595 v 13.794 h -7.1505 V 47.344005 Z"
       id="path29"
       inkscape:connector-curvature="0"
       style="opacity:1;fill:#ffffff;fill-opacity:1" />
    <path
       sodipodi:nodetypes="ccccscccccccssc"
       d="m 641.35033,47.344005 c 2.09794,0.0018 4.19517,0.04085 6.28967,0.195995 6.03,0.75 10.79,6.2 11.2,12.2 1.23,7.1 -1.2,16 -8.63,18.62 -2.91652,0.807086 -5.90453,0.984254 -8.91293,0.984254 H 630.64 l -0.03,-32.000249 m 7.16973,5.9835 v 19.784249 h 5.50822 c 2.45991,-0.01223 4.82849,-0.402671 6.52205,-2.391753 2.85,-3.97 2.59,-9.69 0.58,-13.96 -1.62459,-2.47473 -4.16125,-3.203131 -6.85382,-3.379995 -0.46294,-0.03041 -0.93045,-0.0525 -1.39881,-0.0525 z"
       id="path31"
       inkscape:connector-curvature="0"
       style="opacity:1;fill:#ffffff;fill-opacity:1" />
  </g>
  <g
     id="g18"
     style="fill:#ffffff;fill-opacity:1"
     transform="matrix(0.50381656,0,0,0.50381656,106.09304,-61.966837)">
    <path
       d="m 0,216.8 h 41.9 l 22.1,84 22.9,-84.2 h 41.9 L 85,343.2 H 43.2 Z"
       id="path2"
       style="fill:#ffffff;fill-opacity:1"
       inkscape:connector-curvature="0" />
    <path
       d="M 134.9,343.2 V 216.8 h 41.6 v 126.6 h -41.6 z"
       id="path4"
       style="fill:#ffffff;fill-opacity:1"
       inkscape:connector-curvature="0" />
    <path
       d="m 276.5,265.1 c -1.3,-13.1 -9.6,-20.8 -22.4,-20.8 -14.7,0 -23.5,12.5 -23.5,37.1 0,17.9 4,34.4 25.1,34.4 13.3,0 19.7,-9.3 21.3,-21.3 h 40 c -4,32.5 -27.5,52.3 -60.8,52.3 -41.9,0 -67.2,-25.6 -67.2,-66.9 0,-40.8 27.7,-66.4 63.2,-66.4 38.7,0 60.2,19.2 63.7,51.7 h -39.4 z"
       id="path6"
       style="fill:#ffffff;fill-opacity:1"
       inkscape:connector-curvature="0" />
    <path
       d="M 330.6,343.2 V 216.8 h 103.2 v 29.6 H 372 v 18.1 h 56.3 v 29.6 H 372 v 20 h 64.2 v 29.6 H 330.6 Z"
       id="path8"
       style="fill:#ffffff;fill-opacity:1"
       inkscape:connector-curvature="0" />
    <path
       d="M 454.3,343.2 V 216.8 h 41.6 v 97 H 553 v 29.6 h -98.6 v -0.2 z"
       id="path10"
       style="fill:#ffffff;fill-opacity:1"
       inkscape:connector-curvature="0" />
    <path
       d="m 559.3,343.2 45.3,-126.6 h 42.1 L 692,343.2 h -41.3 l -4.8,-16.8 h -41.3 l -4.8,16.8 z m 66.1,-88.3 -12.8,45.3 h 26.1 z"
       id="path12"
       style="fill:#ffffff;fill-opacity:1"
       inkscape:connector-curvature="0" />
    <path
       d="m 782.7,285.9 -1.6,-28.8 v -40.3 h 39.7 v 126.6 h -38.9 l -45.3,-69 1.6,28.8 v 40 H 698.5 V 216.8 h 38.9 z"
       id="path14"
       style="fill:#ffffff;fill-opacity:1"
       inkscape:connector-curvature="0" />
    <path
       d="M 838.4,343.2 V 216.8 h 55.5 c 40.8,0 66.1,18.9 66.1,60.8 0,47.7 -26.7,65.8 -67.2,65.8 H 838.4 Z M 880,313.9 h 8.8 c 19.5,0 29.9,-10.1 29.9,-34.1 0,-26.4 -8.5,-33.3 -30.7,-33.3 h -8 z"
       id="path16"
       style="fill:#ffffff;fill-opacity:1"
       inkscape:connector-curvature="0" />
  </g>
</svg>
