<svg space="preserve" version="1.1" viewBox="0 0 511.5 165.51" xmlns="http://www.w3.org/2000/svg">
 <link href="" rel="stylesheet" type="text/css"/>
 <style type="text/css"/>
 <g transform="translate(-149.91 110.57)">
  <path d="m310.66-40.512h16.4c-0.39999-18-14.1-30.3-36.3-30.3-18.9 0-34.1 11.2-34.1 27.5 0 36.5 56.5 18.8 56.5 43.1 0 9.6-9.5 14.4-19.6 14.4-13.7 0-23.4-6.6-24.1-20.1h-16.2c0 24.8 20.1 33.2 38.7 33.2 21.8 0 37.6-10.2 37.6-28.8 0-37.6-56.7-20.9-56.7-43.8 0-7.8 7.2-12 17.3-12 15.2 0.1 19.7 8 20.5 16.8z"/>
  <g transform="matrix(2.2792 0 0 2.2792 -209.84 1216.6)">
   <g transform="matrix(1.4437 0 0 1.4437 -105.43 -917.76)">
    <path d="m182.36 260.07c2.5-2.4 4.7-5.6 6.3-9.4 1.7-3.8 2.5-7.6 2.5-11.1-2.4 2.4-4.7 5.6-6.3 9.4-1.7 3.8-2.5 7.6-2.5 11.1"/>
    <path d="m184.96 265.37c3.3-3.2 6.3-7.5 8.6-12.6 2.2-5.1 3.3-10.3 3.4-14.9-3.3 3.2-6.3 7.5-8.5 12.6-2.3 5.2-3.4 10.3-3.5 14.9"/>
    <path d="m188.56 272.87c4.5-4.3 8.6-10.2 11.6-17.1s4.6-14 4.7-20.2h-0.10001c-4.5 4.3-8.6 10.2-11.6 17.1s-4.5 13.9-4.6 20.2"/>
    <path d="m193.56 282.67c6.1-5.8 11.6-13.7 15.6-23.1 4.1-9.4 6.1-18.8 6.2-27.2l-0.10001 0.10001c-6 5.8-11.5 13.7-15.6 23.1-4 9.2-6 18.7-6.1 27.1"/>
   </g>
  </g>
  <path d="m335.86-68.612v93.7h45.7c18.1 0 31.9-8.8 31.9-26 0-12-4.2-20.1-17.5-24.4 7.4-3.2 13.1-8.2 13.1-20.3 0-15.5-10.3-23-27.3-23h-45.9zm16.3 13.2h26.6c10.4 0 14.3 5.9 14.3 13.1 0 8.2-5.5 13.1-13.4 13.1h-27.6v-26.2zm0 38h28.7c11.5 0 16.4 6.3 16.4 14.8 0 9.3-7.5 14.7-16 14.7h-29.2z"/>
  <path d="m475.26-40.512h16.4c-0.39999-18-14.1-30.3-36.3-30.3-18.9 0-34.1 11.2-34.1 27.5 0 36.5 56.5 18.8 56.5 43.1 0 9.6-9.5 14.4-19.6 14.4-13.7 0-23.4-6.6-24.1-20.1h-16.2c0 24.8 20.1 33.2 38.7 33.2 21.8 0 37.6-10.2 37.6-28.8 0-37.6-56.7-20.9-56.7-43.8 0-7.8 7.2-12 17.3-12 15.1 0.1 19.7 8 20.5 16.8z"/>
 </g>
 <g transform="translate(.00018748 6.9736e-5)">
  <path d="m355.51 42.391h16.327v37.096h42.452v-37.096h16.327v93.263h-16.327v-42.06h-42.452v42.06h-16.327z"/>
  <path d="m441.07 42.391h29.283c7.1387 0 13.323 1.2207 18.548 3.6572 5.2246 2.439 9.4902 5.77 12.801 9.9927 3.3086 4.2246 5.7676 9.1655 7.3799 14.825 1.6104 5.6616 2.417 11.713 2.417 18.157 0 6.4443-0.80664 12.496-2.417 18.155-1.6123 5.6621-4.0713 10.604-7.3799 14.826-3.3106 4.2246-7.5762 7.5547-12.801 9.9922-5.2246 2.4385-11.409 3.6572-18.548 3.6572h-29.283zm16.328 79.939h6.685c6.3555 0 11.56-0.84863 15.608-2.5469 4.0498-1.6982 7.2275-4.0498 9.5352-7.0537 2.3066-3.0039 3.874-6.5312 4.7031-10.58 0.82617-4.0498 1.2402-8.4248 1.2402-13.127s-0.41406-9.0786-1.2402-13.128c-0.8291-4.0493-2.3965-7.5757-4.7031-10.58-2.3076-3.0044-5.4854-5.3555-9.5352-7.0537-4.0488-1.6978-9.2529-2.5469-15.608-2.5469h-6.685z"/>
 </g>
</svg>
