<svg height="158.43974pt" viewBox="0 0 589.75696 158.43974" width="589.75696pt" xmlns="http://www.w3.org/2000/svg"><g fill="#fff" transform="matrix(.76328618 0 0 .76328628 -139.19182 -177.3617)"><path d="m182.37826 346.59814c10.13052-9.73786 19.35792-23.00961 26.17049-38.6962 6.81258-15.70622 10.18942-31.5106 10.36611-45.56767l-.1178.1178c-10.09125 9.71822-19.27939 22.95071-26.07232 38.59803-6.77331 15.62769-10.15015 31.37318-10.36611 45.39098"/><path d="m193.34192 368.63462c13.64685-13.06265 26.07527-30.86362 35.27139-51.95442 9.19623-21.11027 13.77879-42.34482 14.06433-61.24857l-.17612.15474c-13.58834 13.04351-25.97771 30.82525-35.13443 51.83839-9.15673 21.01314-13.73883 42.16982-14.06298 61.01492"/><path d="m208.21437 399.5065c18.55911-17.75864 35.49077-41.94935 47.99581-70.60485 12.52504-28.65528 18.79834-57.53941 19.20179-83.23133l-.24197.19716c-18.47896 17.73954-35.33003 41.87119-47.814 70.42702-12.48397 28.55581-18.73598 57.3203-19.19826 82.91165"/><path d="m228.74286 439.94168c24.95743-23.97263 47.67792-56.67299 64.42367-95.32534 16.78549-38.67198 25.1127-77.62178 25.55423-112.25044l-.31829.27585c-24.83857 23.9732-47.45941 56.55515-64.16499 95.08884-16.70559 38.53368-25.01384 77.66189-25.51424 112.17137"/></g><g fill="#fff" transform="matrix(.50381656 0 0 .50381656 106.09304 -61.96684)"><path d="m0 216.8h41.9l22.1 84 22.9-84.2h41.9l-43.8 126.6h-41.8z"/><path d="m134.9 343.2v-126.4h41.6v126.6h-41.6z"/><path d="m276.5 265.1c-1.3-13.1-9.6-20.8-22.4-20.8-14.7 0-23.5 12.5-23.5 37.1 0 17.9 4 34.4 25.1 34.4 13.3 0 19.7-9.3 21.3-21.3h40c-4 32.5-27.5 52.3-60.8 52.3-41.9 0-67.2-25.6-67.2-66.9 0-40.8 27.7-66.4 63.2-66.4 38.7 0 60.2 19.2 63.7 51.7h-39.4z"/><path d="m330.6 343.2v-126.4h103.2v29.6h-61.8v18.1h56.3v29.6h-56.3v20h64.2v29.6h-105.6z"/><path d="m454.3 343.2v-126.4h41.6v97h57.1v29.6h-98.6v-.2z"/><path d="m559.3 343.2 45.3-126.6h42.1l45.3 126.6h-41.3l-4.8-16.8h-41.3l-4.8 16.8zm66.1-88.3-12.8 45.3h26.1z"/><path d="m782.7 285.9-1.6-28.8v-40.3h39.7v126.6h-38.9l-45.3-69 1.6 28.8v40h-39.7v-126.4h38.9z"/><path d="m838.4 343.2v-126.4h55.5c40.8 0 66.1 18.9 66.1 60.8 0 47.7-26.7 65.8-67.2 65.8h-54.4zm41.6-29.3h8.8c19.5 0 29.9-10.1 29.9-34.1 0-26.4-8.5-33.3-30.7-33.3h-8z"/></g></svg>