<?xml version="1.0" encoding="UTF-8"?>
<!-- Created with Inkscape (http://www.inkscape.org/) -->
<svg id="svg2" width="1e3" height="683.33" version="1.1" xmlns="http://www.w3.org/2000/svg" xmlns:cc="http://creativecommons.org/ns#" xmlns:dc="http://purl.org/dc/elements/1.1/" xmlns:rdf="http://www.w3.org/1999/02/22-rdf-syntax-ns#">
 <metadata id="metadata7">
  <rdf:RDF>
   <cc:Work rdf:about="">
    <dc:format>image/svg+xml</dc:format>
    <dc:type rdf:resource="http://purl.org/dc/dcmitype/StillImage"/>
    <dc:title/>
   </cc:Work>
  </rdf:RDF>
 </metadata>
 <g id="layer1" transform="translate(-149.91 110.89)">
  <path id="path2998" d="m703.58 185.78h39.82c-0.93811-43.827-34.38-73.695-88.25-73.695-46.017 0-82.778 27.208-82.778 66.917 0 88.635 137.22 45.639 137.22 104.83 0 23.23-23.197 34.953-47.597 34.953-33.359 0-56.898-16.105-58.47-48.767h-39.442c0 60.35 48.748 80.774 93.943 80.774 52.858 0 91.485-24.9 91.485-70 0-91.446-137.67-50.684-137.67-106.35 0-18.923 17.558-29.235 42.151-29.235 36.54 0 47.652 19.039 49.586 40.576z" fill="#e52927"/>
  <g id="layer1-7" transform="matrix(2.2769 0 0 2.2769 -208.98 1215.4)">
   <g id="g3049" transform="matrix(1.4437 0 0 1.4437 -105.43 -917.76)" fill="#e52927">
    <path id="path25087" d="m182.38 346.6c10.131-9.7379 19.358-23.01 26.17-38.696 6.8126-15.706 10.189-31.511 10.366-45.568l-0.1178 0.1178c-10.091 9.7182-19.279 22.951-26.072 38.598-6.7733 15.628-10.15 31.373-10.366 45.391"/>
    <path id="path25091" d="m193.34 368.63c13.647-13.063 26.075-30.864 35.271-51.954 9.1962-21.11 13.779-42.345 14.064-61.249l-0.17612 0.15474c-13.588 13.044-25.978 30.825-35.134 51.838-9.1567 21.013-13.739 42.17-14.063 61.015"/>
    <path id="path25095" d="m208.21 399.51c18.559-17.759 35.491-41.949 47.996-70.605 12.525-28.655 18.798-57.539 19.202-83.231l-0.24197 0.19716c-18.479 17.74-35.33 41.871-47.814 70.427-12.484 28.556-18.736 57.32-19.198 82.912"/>
    <path id="path25101" d="m228.74 439.94c24.957-23.973 47.678-56.673 64.424-95.325 16.785-38.672 25.113-77.622 25.554-112.25l-0.31829 0.27585c-24.839 23.973-47.459 56.555-64.165 95.089-16.706 38.534-25.014 77.662-25.514 112.17"/>
   </g>
  </g>
  <path id="path3055" d="m764.66 117.54v227.69h111.14c43.989 0 77.486-21.436 77.486-63.255 0-29.147-10.254-48.93-42.549-59.27 17.898-7.7594 31.734-19.808 31.734-49.309 0-37.636-24.99-55.855-66.386-55.855zm39.632 31.877h64.678c25.176 0 34.723 14.336 34.723 31.948 0 19.938-13.386 31.805-32.446 31.805h-66.955zm3e-4 92.442h69.766c27.829 0 39.951 15.383 39.951 35.846 0 22.492-18.151 35.648-38.778 35.648h-70.939z" fill="#e52927"/>
  <path id="path3061" d="m1103.5 185.78h39.82c-0.9381-43.827-34.38-73.695-88.25-73.695-46.017 0-82.778 27.208-82.778 66.917 0 88.635 137.22 45.639 137.22 104.83 0 23.23-23.197 34.953-47.597 34.953-33.359 0-56.898-16.105-58.47-48.767h-39.442c0 60.35 48.748 80.774 93.943 80.774 52.858 0 91.485-24.9 91.485-70 0-91.446-137.67-50.684-137.67-106.35 0-18.923 17.558-29.235 42.151-29.235 36.54 0 47.652 19.039 49.586 40.576z" fill="#e52927"/>
 </g>
</svg>
