<?xml version="1.0" encoding="UTF-8"?>
<!-- Generator: Adobe Illustrator 16.0.4, SVG Export Plug-In . SVG Version: 6.00 Build 0)  -->
<svg id="Layer_1" width="33.141" height="34.635" enable-background="new 0 0 197.351 66.888" version="1.1" viewBox="0 0 33.141 34.635" xml:space="preserve" xmlns="http://www.w3.org/2000/svg" xmlns:cc="http://creativecommons.org/ns#" xmlns:dc="http://purl.org/dc/elements/1.1/" xmlns:rdf="http://www.w3.org/1999/02/22-rdf-syntax-ns#"><metadata id="metadata1385"><rdf:RDF><cc:Work rdf:about=""><dc:format>image/svg+xml</dc:format><dc:type rdf:resource="http://purl.org/dc/dcmitype/StillImage"/><dc:title/></cc:Work></rdf:RDF></metadata><defs id="defs1383"><radialGradient id="SVGID_71_" cx="188.21" cy="2.874" r="45.979" gradientTransform="translate(-160.04 -4.109)" gradientUnits="userSpaceOnUse"><stop id="stop1096" stop-color="#FDDDCE" offset="0"/><stop id="stop1098" stop-color="#FABAB0" offset=".0629"/><stop id="stop1100" stop-color="#F68A85" offset=".1615"/><stop id="stop1102" stop-color="#F36362" offset=".2597"/><stop id="stop1104" stop-color="#F04447" offset=".3559"/><stop id="stop1106" stop-color="#EE2E34" offset=".4492"/><stop id="stop1108" stop-color="#ED2128" offset=".5386"/><stop id="stop1110" stop-color="#ED1C24" offset=".6196"/></radialGradient><radialGradient id="SVGID_74_" cx="184.71" cy="1.0386" r="48.719" gradientUnits="userSpaceOnUse"><stop id="stop1157" stop-color="#FDDDCE" offset=".02"/><stop id="stop1159" stop-color="#FABAB0" offset=".0784"/><stop id="stop1161" stop-color="#F68A85" offset=".1699"/><stop id="stop1163" stop-color="#F36362" offset=".2611"/><stop id="stop1165" stop-color="#F04447" offset=".3503"/><stop id="stop1167" stop-color="#EE2E34" offset=".4369"/><stop id="stop1169" stop-color="#ED2128" offset=".5199"/><stop id="stop1171" stop-color="#ED1C24" offset=".5951"/></radialGradient><linearGradient id="SVGID_77_" x1="160.04" x2="184.82" y1="4.2534" y2="4.2534" gradientUnits="userSpaceOnUse"><stop id="stop1210" stop-color="#90191C" offset=".0165"/><stop id="stop1212" stop-color="#BE2326" offset=".2086"/><stop id="stop1214" stop-color="#EA5B3F" offset=".3988"/><stop id="stop1216" stop-color="#EF8566" offset=".6564"/><stop id="stop1218" stop-color="#FBBEA7" offset=".908"/></linearGradient><linearGradient id="SVGID_80_" x1="177.44" x2="184.82" y1="10.248" y2="10.248" gradientUnits="userSpaceOnUse"><stop id="stop1257" stop-color="#E41F28" offset=".0385"/><stop id="stop1259" stop-color="#D82B29" offset=".2638"/><stop id="stop1261" stop-color="#D14236" offset=".4663"/><stop id="stop1263" stop-color="#D45647" offset=".6748"/><stop id="stop1265" stop-color="#F4A391" offset="1"/></linearGradient><linearGradient id="SVGID_83_" x1="178.56" x2="185.92" y1="16.757" y2="4.0855" gradientUnits="userSpaceOnUse"><stop id="stop1304" stop-color="#E41F28" offset=".0385"/><stop id="stop1306" stop-color="#D82B29" offset=".2638"/><stop id="stop1308" stop-color="#D14236" offset=".4663"/><stop id="stop1310" stop-color="#CC5344" offset=".6871"/><stop id="stop1312" stop-color="#F4A391" offset="1"/></linearGradient><linearGradient id="SVGID_86_" x1="185.8" x2="193.18" y1="10.263" y2="10.263" gradientUnits="userSpaceOnUse"><stop id="stop1353" stop-color="#FBBEA7" offset=".0165"/><stop id="stop1355" stop-color="#EF8566" offset=".3865"/><stop id="stop1357" stop-color="#EA5B3F" offset=".6503"/><stop id="stop1359" stop-color="#CD272B" offset=".8221"/><stop id="stop1361" stop-color="#BF272E" offset="1"/></linearGradient><radialGradient id="SVGID_61_" cx="176.61" cy="21.034" r="17.041" gradientTransform="matrix(1 0 0 .9896 -160.04 -3.4983)" gradientUnits="userSpaceOnUse"><stop id="stop968" stop-color="#ED1C24" offset="0"/><stop id="stop970" stop-color="#EA1B24" offset=".4039"/><stop id="stop972" stop-color="#E21A24" offset=".6639"/><stop id="stop974" stop-color="#D31725" offset=".8826"/><stop id="stop976" stop-color="#C81525" offset=".9945"/></radialGradient><linearGradient id="SVGID_62_" x1="160.04" x2="184.82" y1="4.2534" y2="4.2534" gradientUnits="userSpaceOnUse"><stop id="stop983" stop-color="#A50D12" offset=".0165"/><stop id="stop985" stop-color="#EF462C" offset=".6868"/></linearGradient><linearGradient id="SVGID_63_" x1="167.27" x2="177.65" y1="16.215" y2="16.215" gradientUnits="userSpaceOnUse"><stop id="stop990" stop-color="#B3101F" offset="0"/><stop id="stop992" stop-color="#CA171E" offset=".7253"/></linearGradient><linearGradient id="SVGID_64_" x1="177.44" x2="184.82" y1="10.248" y2="10.248" gradientUnits="userSpaceOnUse"><stop id="stop997" stop-color="#ED1C24" offset=".0385"/><stop id="stop999" stop-color="#980B0E" offset=".6347"/><stop id="stop1001" stop-color="#620000" offset="1"/></linearGradient><linearGradient id="SVGID_65_" x1="165.53" x2="185.8" y1="21.427" y2="21.427" gradientUnits="userSpaceOnUse"><stop id="stop1006" stop-color="#ED1C24" offset=".0385"/><stop id="stop1008" stop-color="#98070C" offset=".7741"/><stop id="stop1010" stop-color="#7D0004" offset="1"/></linearGradient><linearGradient id="SVGID_66_" x1="165.53" x2="180.38" y1="38.554" y2="38.554" gradientUnits="userSpaceOnUse"><stop id="stop1015" stop-color="#AD1015" offset="0"/><stop id="stop1017" stop-color="#920411" offset="1"/></linearGradient><linearGradient id="SVGID_67_" x1="185.8" x2="193.18" y1="10.263" y2="10.263" gradientUnits="userSpaceOnUse"><stop id="stop1022" stop-color="#EF382D" offset=".0165"/><stop id="stop1024" stop-color="#9A0912" offset=".8566"/><stop id="stop1026" stop-color="#8B010D" offset="1"/></linearGradient><linearGradient id="SVGID_68_" x1="179.97" x2="193.18" y1="27.565" y2="27.565" gradientUnits="userSpaceOnUse"><stop id="stop1031" stop-color="#ED1C24" offset=".0385"/><stop id="stop1033" stop-color="#EB1B23" offset=".3396"/><stop id="stop1035" stop-color="#E31A21" offset=".5017"/><stop id="stop1037" stop-color="#D5171D" offset=".6308"/><stop id="stop1039" stop-color="#C21218" offset=".7424"/><stop id="stop1041" stop-color="#A90D11" offset=".8427"/><stop id="stop1043" stop-color="#8A0608" offset=".9336"/><stop id="stop1045" stop-color="#6F0000" offset="1"/></linearGradient></defs><g id="g5018"><path id="path979" d="m25.762 0-20.277 34.635h14.855l12.801-22.358zm-8.157 12.277 7.176-12.276h-24.781l7.227 12.276z" fill="url(#SVGID_61_)"/><path id="polygon981" transform="translate(-160.04 -4.109)" d="m167.48 16.045-6.875-11.648-0.559-0.288 7.227 12.277z" fill="#ed1e24"/><path id="polygon988" transform="translate(-160.04 -4.109)" d="m184.26 4.397h-23.656l-0.559-0.288h24.781z" fill="url(#SVGID_62_)"/><path id="polygon995" transform="translate(-160.04 -4.109)" d="m177.44 16.045h-9.966l-0.207 0.341h10.378z" fill="url(#SVGID_63_)"/><path id="polygon1004" transform="translate(-160.04 -4.109)" d="m184.27 4.397-6.825 11.648 0.205 0.341 7.176-12.277z" fill="url(#SVGID_64_)"/><path id="polygon1013" transform="translate(-160.04 -4.109)" d="m185.8 4.747-19.555 33.616-0.723 0.381 20.278-34.635z" fill="url(#SVGID_65_)"/><path id="polygon1020" transform="translate(-160.04 -4.109)" d="m166.25 38.363h13.719l0.414 0.381h-14.856z" fill="url(#SVGID_66_)"/><path id="polygon1029" transform="translate(-160.04 -4.109)" d="m192.72 16.416-6.916-11.669v-0.638l7.379 12.277z" fill="url(#SVGID_67_)"/><path id="polygon1048" transform="translate(-160.04 -4.109)" d="m179.97 38.363 12.752-21.947 0.463-0.03-12.801 22.358z" fill="url(#SVGID_68_)"/><path id="path1113" d="m12.721 22.276c3.566 2.35 7.701 3.907 12.154 4.432l8.266-14.431-7.379-12.276z" fill="url(#SVGID_71_)"/><path id="polygon1174" transform="translate(-160.04 -4.109)" d="m184.82 4.109h-24.781l7.227 12.277h10.378z" fill="url(#SVGID_74_)"/><path id="polygon1221" transform="translate(-160.04 -4.109)" d="m184.26 4.397h-23.656l-0.559-0.288h24.781z" fill="url(#SVGID_77_)"/><path id="polygon1268" transform="translate(-160.04 -4.109)" d="m184.27 4.397-6.825 11.648 0.205 0.341 7.176-12.277z" fill="url(#SVGID_80_)"/><path id="polygon1315" transform="translate(-160.04 -4.109)" d="m185.8 4.747-19.555 33.616-0.723 0.381 20.278-34.635z" fill="url(#SVGID_83_)"/><path id="polygon1364" transform="translate(-160.04 -4.109)" d="m192.72 16.416-6.916-11.669v-0.638l7.379 12.277z" fill="url(#SVGID_86_)"/><path id="path1368" d="m25.762 0-20.277 34.635h14.855l12.801-22.358zm-8.157 12.277 7.176-12.276h-24.781l7.227 12.276z" fill="#ed1c24" opacity=".25"/></g></svg>
