<?xml version="1.0" encoding="UTF-8"?>
<!-- Generator: Adobe Illustrator 16.0.4, SVG Export Plug-In . SVG Version: 6.00 Build 0)  -->
<svg id="Layer_1" width="440.57" height="349.6" enable-background="new 0 0 197.351 66.888" version="1.1" viewBox="0 0 440.57 349.6" xml:space="preserve" xmlns="http://www.w3.org/2000/svg" xmlns:cc="http://creativecommons.org/ns#" xmlns:dc="http://purl.org/dc/elements/1.1/" xmlns:rdf="http://www.w3.org/1999/02/22-rdf-syntax-ns#"><metadata id="metadata1385"><rdf:RDF><cc:Work rdf:about=""><dc:format>image/svg+xml</dc:format><dc:type rdf:resource="http://purl.org/dc/dcmitype/StillImage"/><dc:title/></cc:Work></rdf:RDF></metadata><g id="g931" transform="matrix(8.8021 0 0 8.8021 188.77 -76.169)" fill="#ed1c24" fill-rule="evenodd"><polygon id="Fill-1" transform="translate(-10.141,8.4507)" points="4.5453 28.946 16.836 28.946 27.442 10.392 21.332 0.2028"/><polygon id="Fill-2" transform="translate(-10.141,8.4507)" points="5.985 10.392 14.576 10.392 20.513 0.2028 0 0.2028"/></g><g id="g875" transform="matrix(.26477 0 0 .26477 -53.084 277.11)" fill="#fff"><path id="path9" d="m1047 23.435h45.04l-119.11 250.36h-45.4z"/><path id="path11" d="m251.01 50.01c27.77-19.42 62.95-27.38 96.46-23.26 27.85 3.28 54.78 14.83 75.89 33.38l-35.17 37.2c-14.56-12.37-33-20.34-52.17-21.3-19.44-1.22-39.46 4.92-54.27 17.71-12.56 10.66-20.95 25.95-23.51 42.2-2.82 17.01 0.01 35.07 8.76 50.01 8.06 14 21.17 25.04 36.43 30.41 15.71 5.65 33.08 5.09 49.11 1.06 9.91-2.53 19.345-6.84 27.815-12.57v-31.395h-49.16v-38.905h101.04v100.68c-26.1 21.02-58.815 33.46-92.205 35.73-21.94 1.75-44.38-1.5-64.57-10.38-29.23-12.61-53.57-36.55-65.8-66.03-11.23-26.52-11.91-57.01-3.31-84.38 7.64-24.3 23.76-45.67 44.66-60.16z"/><path id="path13" d="m769.85 28.35c23.19-3.88 47.05-2.74 70.07 1.7 20.43 4.14 40.27 11.33 58.27 21.89l-22.88 41.99c-20.74-10.62-43.22-17.98-66.35-20.98-11.46-1.27-23.51-2.41-34.55 1.72-6.28 2.27-11.98 7.16-13.7 13.8-1.36 5.25-1.26 11.85 3.31 15.55 5.69 4.65 12.91 6.77 19.76 9.13 22.86 6.89 46.33 11.83 68.72 20.24 14.95 5.69 30.1 13.17 40.11 26.09 9.68 12.49 12.08 29.06 10.65 44.42-1.45 17.77-10 35.13-24.19 46.13-16.93 13.67-38.9 19.22-60.22 20.84-44.39 2.78-90.39-6.91-127.84-31.52l24.22-40.65c29.36 16.69 62.95 26.16 96.77 26.25 8.09-0.13 16.44-1.33 23.61-5.29 5.36-2.94 9.61-8.28 10.17-14.51 0.56-6.18-0.41-13.24-5.28-17.6-5.62-5.01-13.1-6.97-20.11-9.2-23.56-6.84-47.8-11.38-70.89-19.83-14.54-5.43-29.42-12.63-38.84-25.46-8.48-11.44-10.32-26.36-9.04-40.2 1.26-15.17 7.51-30.07 18.36-40.88 13.34-13.3 31.59-20.41 49.87-23.63z"/><path id="path15-9" d="m467.57 29.058h200.02v46.443h-72.704v192.5h-54.613v-192.5h-72.699z" stroke-width="1.0001"/><path id="path17-6" d="m1129 29.245h123.99c18.35 0.14 37.51 2.565 53.37 12.445 9.51 5.88 17.09 14.9 20.92 25.44 3.93 10.82 4.61 22.7 2.81 34.02-1.96 12.3-8.39 23.9-18.2 31.64-5.36 4.35-11.56 7.53-18 9.94 14.15 4.03 27.81 11.68 36.44 23.89 12.17 17.13 13.78 40.33 7.03 59.88-5.62 16.25-19.41 28.72-35.37 34.55-21.28 8.42-44.55 6.81-66.96 6.95h-106.03v-238.76m54.61 44.54v54.57h54.39c10-0.14 20.88-1.735 28.58-8.705 7.16-6.43 8.68-17.09 6.67-26.1-1.49-6.54-6.2-12.04-12.15-14.99-8.29-4.32-17.86-4.725-27.02-4.775h-50.47m0 91.145v59.04h52.46c8.99-0.04 18.19 0.43 26.94-2.11 7.51-2.04 14.7-6.6 18.37-13.65 3.95-7.65 4.26-17.01 1.27-25.03-2.68-7.13-8.93-12.41-15.97-14.98-10.39-4.01-21.71-3.19-32.62-3.27z"/><path id="path19" d="m1384.3 29.06h54.28v108.52l92.51-108.52h73.03l-87.02 98.61 90.1 140.34h-69.56l-56.38-96.935-42.68 46.07v50.865h-54.28z"/><path id="path13-4" d="m1642.9 29.058h56.694l111.25 150.17v-150.17h53.599v238.95h-56.669l-111.27-149.76v149.76h-53.599z" stroke-width="1.0001"/></g></svg>
