<?xml version="1.0" encoding="UTF-8"?>
<!-- Generator: Adobe Illustrator 16.0.4, SVG Export Plug-In . SVG Version: 6.00 Build 0)  -->
<svg id="Layer_1" width="454.74" height="349" enable-background="new 0 0 197.351 66.888" version="1.1" viewBox="0 0 454.74 349" xml:space="preserve" xmlns="http://www.w3.org/2000/svg" xmlns:cc="http://creativecommons.org/ns#" xmlns:dc="http://purl.org/dc/elements/1.1/" xmlns:rdf="http://www.w3.org/1999/02/22-rdf-syntax-ns#"><metadata id="metadata1385"><rdf:RDF><cc:Work rdf:about=""><dc:format>image/svg+xml</dc:format><dc:type rdf:resource="http://purl.org/dc/dcmitype/StillImage"/><dc:title/></cc:Work></rdf:RDF></metadata><g id="g931" transform="matrix(8.8021 0 0 8.8021 195.86 -76.169)" fill="#ed1c24" fill-rule="evenodd"><polygon id="Fill-1" transform="translate(-10.141,8.4507)" points="27.442 10.392 21.332 0.2028 4.5453 28.946 16.836 28.946"/><polygon id="Fill-2" transform="translate(-10.141,8.4507)" points="20.513 0.2028 0 0.2028 5.985 10.392 14.576 10.392"/></g><g id="g847" transform="translate(3.2114e-7 -451)"><g id="g910" transform="matrix(.26491 0 0 .26491 -53.114 728.11)"><path id="path9" d="m246.63 53.74c23.83-19.18 54.8-29.1 85.33-27.57 37.23 1.43 73.52 20.2 95.52 50.38l-46.79 26.6c-10.15-12.78-24.79-22.02-40.91-24.95-17.38-3.42-36.14-0.04-50.97 9.74-11.86 7.72-21.04 19.31-26.25 32.44-7.43 18.76-7.19 40.5 0.93 59 5.47 12.55 14.69 23.47 26.3 30.76 15.05 9.53 33.91 12.56 51.27 8.84 15.64-3.16 29.74-12.29 39.65-24.72l46.77 26.63c-16.36 22.23-40.41 38.56-67.01 45.84-27.76 7.71-58.13 5.83-84.62-5.56-28.05-11.89-51.56-34.31-64.3-62.03-11.16-23.9-13.93-51.53-8.02-77.21 6.04-26.77 21.65-51.13 43.1-68.19z"/><path id="path11" d="m470 29.055h191.12v48.825h-136.52v46.07h126.64v46.43h-126.64v48.81h138.93v48.805h-193.53z"/><path id="path13" d="m703.94 29.065h56.69l111.24 150.16v-150.16h53.595v238.94h-56.665l-111.26-149.75v149.75h-53.595z"/><path id="path15" d="m960.56 29.06h200v46.44h-72.7v192.49h-54.61v-192.49h-72.695z"/><path id="path17" d="m1198 29.245h98.025c21.31-0.12 42.99 0.355 63.58 6.405 14.28 4.11 28.14 11.63 37.06 23.82 8.53 11.34 12.02 25.57 13.17 39.49 1.29 19.47-0.02 40.35-10.62 57.32-8.58 13.86-23.42 22.5-38.73 27.05l56.64 84.685h-62.37l-50.63-77.32h-51.515v77.32h-54.61v-238.77m54.61 48.975v70.62h58.445c10.64-0.41 21.99-1.49 31.04-7.64 7.02-4.7 10.52-13.1 11.21-21.28 0.74-8.58 0.36-17.71-3.75-25.47-3.22-6.1-9.18-10.33-15.6-12.54-10.56-3.7-21.92-3.71-32.97-3.69z"/><path id="path19" d="m1534.2 29.05h70.99l98.32 238.87h-65.04l-18.58-47.01h-100.01l-18.27 47.01h-65.01l97.6-238.87m35.48 60.45-35.1 88.03h70.62z"/><path id="path21" d="m1741 29.065h54.61v190.12h121.5v48.82h-176.11z"/></g></g></svg>
