<?xml version="1.0" encoding="UTF-8"?>
<!-- Generator: Adobe Illustrator 16.0.4, SVG Export Plug-In . SVG Version: 6.00 Build 0)  -->
<svg id="Layer_1" width="401.01" height="348.12" enable-background="new 0 0 197.351 66.888" version="1.1" viewBox="0 0 401.01 348.12" xml:space="preserve" xmlns="http://www.w3.org/2000/svg" xmlns:cc="http://creativecommons.org/ns#" xmlns:dc="http://purl.org/dc/elements/1.1/" xmlns:rdf="http://www.w3.org/1999/02/22-rdf-syntax-ns#"><metadata id="metadata1385"><rdf:RDF><cc:Work rdf:about=""><dc:format>image/svg+xml</dc:format><dc:type rdf:resource="http://purl.org/dc/dcmitype/StillImage"/><dc:title/></cc:Work></rdf:RDF></metadata><g id="g931" transform="matrix(8.8021 0 0 8.8021 169 -76.169)" fill="#ed1c24" fill-rule="evenodd"><polygon id="Fill-1" transform="translate(-10.141,8.4507)" points="4.5453 28.946 16.836 28.946 27.442 10.392 21.332 0.2028"/><polygon id="Fill-2" transform="translate(-10.141,8.4507)" points="5.985 10.392 14.576 10.392 20.513 0.2028 0 0.2028"/></g><g id="g894" transform="matrix(1.3333 0 0 1.3333 -268 -9.4484)" fill="#fff"><path id="path11-6" d="m201 220.73h16.686c2.258 4e-3 4.5279-0.11717 6.77 0.20058 6.1444 0.77649 12.039 3.7673 16.088 8.4838 3.4734 3.9937 5.491 9.2166 5.5864 14.509 0.17079 5.5864-1.8191 11.193-5.4712 15.421-4.7622 5.6082-12.096 8.741-19.402 8.7966h-20.256v-47.411m10.843 9.6605v28.114h9.2623c5.0005-0.14696 9.8958-2.9888 12.285-7.4233 1.9561-3.5409 2.2282-7.9556 0.73678-11.713-1.0287-2.6234-2.9034-4.8953-5.2468-6.4522-2.4724-1.6622-5.4513-2.5152-8.4222-2.5251z" stroke-width=".19859"/><path id="path19-6" d="m267.76 220.69h14.104l19.534 47.459h-12.922l-3.6915-9.3401h-19.87l-3.6299 9.3401h-12.916l19.391-47.459m7.0493 12.01-6.9738 17.49h14.031z" stroke-width=".19868"/><path id="path17-0" d="m308.82 220.7h19.481c4.2349-0.0239 8.5434 0.0705 12.635 1.2729 2.8379 0.81678 5.5923 2.3112 7.3649 4.7338 1.6952 2.2536 2.3887 5.0815 2.6173 7.8478 0.25636 3.8693-4e-3 8.0188-2.1105 11.391-1.7051 2.7544-4.6543 4.4714-7.6968 5.3756l11.256 16.829h-12.395l-10.062-15.366h-10.238v15.366h-10.853v-47.451m10.853 9.7328v14.034h11.615c2.1145-0.0815 4.3701-0.29611 6.1686-1.5183 1.3951-0.93403 2.0906-2.6034 2.2278-4.229 0.14706-1.7051 0.0715-3.5195-0.74524-5.0616-0.63991-1.2123-1.8243-2.0529-3.1002-2.4921-2.0986-0.7353-4.3562-0.73729-6.5521-0.73331z" stroke-width=".19873"/><path id="path17-8" d="m355.42 220.72h12.066l9.7568 30.669 9.4907-30.669h10.646l9.4827 30.667 9.7647-30.667h12.066l-15.794 47.451h-11.115l-9.7627-30.53-9.6932 30.53h-11.183z" stroke-width=".19859"/><path id="path19-7" d="m436.13 220.76h10.844v47.383h-10.844z" stroke-width=".19859"/><path id="path13-4" d="m457.77 220.69h11.259l22.092 29.821v-29.821h10.644v47.452h-11.254l-22.097-29.74v29.74h-10.644z" stroke-width=".1986"/></g></svg>
