<svg enable-background="new 0 0 197.351 66.888" height="34.634998" viewBox="0 0 33.140999 34.634998" width="33.140999" xmlns="http://www.w3.org/2000/svg" xmlns:xlink="http://www.w3.org/1999/xlink"><radialGradient id="a" cx="28.16801" cy="-1.235" gradientUnits="userSpaceOnUse" r="45.978802"><stop offset="0" stop-color="#fdddce"/><stop offset=".0629" stop-color="#fabab0"/><stop offset=".1615" stop-color="#f68a85"/><stop offset=".2597" stop-color="#f36362"/><stop offset=".3559" stop-color="#f04447"/><stop offset=".4492" stop-color="#ee2e34"/><stop offset=".5386" stop-color="#ed2128"/><stop offset=".6196" stop-color="#ed1c24"/></radialGradient><radialGradient id="b" cx="184.707" cy="1.0386" gradientUnits="userSpaceOnUse" r="48.719101"><stop offset=".02" stop-color="#fdddce"/><stop offset=".0784" stop-color="#fabab0"/><stop offset=".1699" stop-color="#f68a85"/><stop offset=".2611" stop-color="#f36362"/><stop offset=".3503" stop-color="#f04447"/><stop offset=".4369" stop-color="#ee2e34"/><stop offset=".5199" stop-color="#ed2128"/><stop offset=".5951" stop-color="#ed1c24"/></radialGradient><linearGradient id="c" gradientUnits="userSpaceOnUse" x1="160.04201" x2="184.8232" y1="4.2534" y2="4.2534"><stop offset=".0165" stop-color="#90191c"/><stop offset=".2086" stop-color="#be2326"/><stop offset=".3988" stop-color="#ea5b3f"/><stop offset=".6564" stop-color="#ef8566"/><stop offset=".908" stop-color="#fbbea7"/></linearGradient><linearGradient id="d" gradientUnits="userSpaceOnUse" x1="177.4424" x2="184.8232" y1="10.2476" y2="10.2476"><stop offset=".0385" stop-color="#e41f28"/><stop offset=".2638" stop-color="#d82b29"/><stop offset=".4663" stop-color="#d14236"/><stop offset=".6748" stop-color="#d45647"/><stop offset="1" stop-color="#f4a391"/></linearGradient><linearGradient id="e" gradientUnits="userSpaceOnUse" x1="178.5625" x2="185.9227" y1="16.757299" y2="4.0855"><stop offset=".0385" stop-color="#e41f28"/><stop offset=".2638" stop-color="#d82b29"/><stop offset=".4663" stop-color="#d14236"/><stop offset=".6871" stop-color="#cc5344"/><stop offset="1" stop-color="#f4a391"/></linearGradient><linearGradient id="f" gradientUnits="userSpaceOnUse" x1="185.8037" x2="193.1826" y1="10.2627" y2="10.2627"><stop offset=".0165" stop-color="#fbbea7"/><stop offset=".3865" stop-color="#ef8566"/><stop offset=".6503" stop-color="#ea5b3f"/><stop offset=".8221" stop-color="#cd272b"/><stop offset="1" stop-color="#bf272e"/></linearGradient><radialGradient id="g" cx="176.6123" cy="21.034201" gradientTransform="matrix(1 0 0 .9896 -160.042 -3.4983)" gradientUnits="userSpaceOnUse" r="17.041"><stop offset="0" stop-color="#ed1c24"/><stop offset=".4039" stop-color="#ea1b24"/><stop offset=".6639" stop-color="#e21a24"/><stop offset=".8826" stop-color="#d31725"/><stop offset=".9945" stop-color="#c81525"/></radialGradient><linearGradient id="h" gradientUnits="userSpaceOnUse" x1="160.04201" x2="184.8232" y1="4.2534" y2="4.2534"><stop offset=".0165" stop-color="#a50d12"/><stop offset=".6868" stop-color="#ef462c"/></linearGradient><linearGradient id="i" gradientUnits="userSpaceOnUse" x1="167.2686" x2="177.64751" y1="16.2153" y2="16.2153"><stop offset="0" stop-color="#b3101f"/><stop offset=".7253" stop-color="#ca171e"/></linearGradient><linearGradient id="j" gradientUnits="userSpaceOnUse" x1="177.4424" x2="184.8232" y1="10.2476" y2="10.2476"><stop offset=".0385" stop-color="#ed1c24"/><stop offset=".6347" stop-color="#980b0e"/><stop offset="1" stop-color="#620000"/></linearGradient><linearGradient id="k" gradientUnits="userSpaceOnUse" x1="165.5264" x2="185.8037" y1="21.4268" y2="21.4268"><stop offset=".0385" stop-color="#ed1c24"/><stop offset=".7741" stop-color="#98070c"/><stop offset="1" stop-color="#7d0004"/></linearGradient><linearGradient id="l" gradientUnits="userSpaceOnUse" x1="165.5264" x2="180.38181" y1="38.553699" y2="38.553699"><stop offset="0" stop-color="#ad1015"/><stop offset="1" stop-color="#920411"/></linearGradient><linearGradient id="m" gradientUnits="userSpaceOnUse" x1="185.8037" x2="193.1826" y1="10.2627" y2="10.2627"><stop offset=".0165" stop-color="#ef382d"/><stop offset=".8566" stop-color="#9a0912"/><stop offset="1" stop-color="#8b010d"/></linearGradient><linearGradient id="n" gradientUnits="userSpaceOnUse" x1="179.9678" x2="193.1826" y1="27.564899" y2="27.564899"><stop offset=".0385" stop-color="#ed1c24"/><stop offset=".3396" stop-color="#eb1b23"/><stop offset=".5017" stop-color="#e31a21"/><stop offset=".6308" stop-color="#d5171d"/><stop offset=".7424" stop-color="#c21218"/><stop offset=".8427" stop-color="#a90d11"/><stop offset=".9336" stop-color="#8a0608"/><stop offset="1" stop-color="#6f0000"/></linearGradient><path d="m25.762 0-20.277 34.635h14.855l12.801-22.358zm-8.157 12.277 7.176-12.276h-24.781l7.227 12.276z" fill="url(#g)"/><g transform="translate(-160.042 -4.109)"><path d="m167.476 16.045-6.875-11.648-.559-.288 7.227 12.277z" fill="#ed1e24"/><path d="m184.257 4.397h-23.656l-.559-.288h24.781z" fill="url(#h)"/><path d="m177.442 16.045h-9.966l-.207.341h10.378z" fill="url(#i)"/><path d="m184.267 4.397-6.825 11.648.205.341 7.176-12.277z" fill="url(#j)"/><path d="m185.804 4.747-19.555 33.616-.723.381 20.278-34.635z" fill="url(#k)"/><path d="m166.249 38.363h13.719l.414.381h-14.856z" fill="url(#l)"/><path d="m192.72 16.416-6.916-11.669v-.638l7.379 12.277z" fill="url(#m)"/><path d="m179.968 38.363 12.752-21.947.463-.03-12.801 22.358z" fill="url(#n)"/></g><path d="m12.721 22.276c3.566 2.35 7.701 3.907 12.154 4.432l8.266-14.431-7.379-12.276z" fill="url(#a)"/><path d="m184.823 4.109h-24.781l7.227 12.277h10.378z" fill="url(#b)" transform="translate(-160.042 -4.109)"/><path d="m184.257 4.397h-23.656l-.559-.288h24.781z" fill="url(#c)" transform="translate(-160.042 -4.109)"/><path d="m184.267 4.397-6.825 11.648.205.341 7.176-12.277z" fill="url(#d)" transform="translate(-160.042 -4.109)"/><path d="m185.804 4.747-19.555 33.616-.723.381 20.278-34.635z" fill="url(#e)" transform="translate(-160.042 -4.109)"/><path d="m192.72 16.416-6.916-11.669v-.638l7.379 12.277z" fill="url(#f)" transform="translate(-160.042 -4.109)"/><path d="m25.762 0-20.277 34.635h14.855l12.801-22.358zm-8.157 12.277 7.176-12.276h-24.781l7.227 12.276z" fill="#ed1c24" opacity=".25"/></svg>