<svg height="146.672" viewBox="0 0 285.39828 137.505" width="304.42484" xmlns="http://www.w3.org/2000/svg" xmlns:xlink="http://www.w3.org/1999/xlink"><linearGradient id="a"><stop offset="0" stop-color="#fdddce"/><stop offset=".0629" stop-color="#fabab0"/><stop offset=".1615" stop-color="#f68a85"/><stop offset=".2597" stop-color="#f36362"/><stop offset=".3559" stop-color="#f04447"/><stop offset=".4492" stop-color="#ee2e34"/><stop offset=".5386" stop-color="#ed2128"/><stop offset=".6196" stop-color="#ed1c24"/></linearGradient><radialGradient id="b" cx="188.21001" cy="2.874" gradientTransform="matrix(3.9701274 0 0 3.9701167 -634.93013 -16.31297)" gradientUnits="userSpaceOnUse" r="45.978802" xlink:href="#a"/><radialGradient id="c" cx="172.32678" cy="21.823992" fx="172.32678" fy="21.823992" gradientTransform="matrix(5.3413791 -.02450387 .02041499 4.4500978 -810.66763 -98.251854)" gradientUnits="userSpaceOnUse" r="32.265625" xlink:href="#b"/><radialGradient id="d" cx="218.57555" cy="19.426439" fx="218.57555" fy="19.426439" gradientTransform="matrix(4.6204892 -.02191243 .01998961 4.2150966 -900.23318 -81.789681)" gradientUnits="userSpaceOnUse" r="34.220219" xlink:href="#b"/><radialGradient id="e" cx="176.6123" cy="21.034201" gradientTransform="matrix(1 0 0 .9896 -160.042 -3.4983)" gradientUnits="userSpaceOnUse" r="17.041"><stop offset="0" stop-color="#ed1c24"/><stop offset=".4039" stop-color="#ea1b24"/><stop offset=".6639" stop-color="#e21a24"/><stop offset=".8826" stop-color="#d31725"/><stop offset=".9945" stop-color="#c81525"/></radialGradient><linearGradient id="f" gradientUnits="userSpaceOnUse" x1="160.04201" x2="184.8232" y1="4.2534" y2="4.2534"><stop offset=".0165" stop-color="#a50d12"/><stop offset=".6868" stop-color="#ef462c"/></linearGradient><linearGradient id="g" gradientUnits="userSpaceOnUse" x1="167.2686" x2="177.64751" y1="16.2153" y2="16.2153"><stop offset="0" stop-color="#b3101f"/><stop offset=".7253" stop-color="#ca171e"/></linearGradient><linearGradient id="h" gradientUnits="userSpaceOnUse" x1="177.4424" x2="184.8232" y1="10.2476" y2="10.2476"><stop offset=".0385" stop-color="#ed1c24"/><stop offset=".6347" stop-color="#980b0e"/><stop offset="1" stop-color="#620000"/></linearGradient><linearGradient id="i" gradientUnits="userSpaceOnUse" x1="165.5264" x2="185.8037" y1="21.4268" y2="21.4268"><stop offset=".0385" stop-color="#ed1c24"/><stop offset=".7741" stop-color="#98070c"/><stop offset="1" stop-color="#7d0004"/></linearGradient><linearGradient id="j" gradientUnits="userSpaceOnUse" x1="165.5264" x2="180.38181" y1="38.553699" y2="38.553699"><stop offset="0" stop-color="#ad1015"/><stop offset="1" stop-color="#920411"/></linearGradient><linearGradient id="k" gradientUnits="userSpaceOnUse" x1="185.8037" x2="193.1826" y1="10.2627" y2="10.2627"><stop offset=".0165" stop-color="#ef382d"/><stop offset=".8566" stop-color="#9a0912"/><stop offset="1" stop-color="#8b010d"/></linearGradient><linearGradient id="l" gradientUnits="userSpaceOnUse" x1="179.9678" x2="193.1826" y1="27.564899" y2="27.564899"><stop offset=".0385" stop-color="#ed1c24"/><stop offset=".3396" stop-color="#eb1b23"/><stop offset=".5017" stop-color="#e31a21"/><stop offset=".6308" stop-color="#d5171d"/><stop offset=".7424" stop-color="#c21218"/><stop offset=".8427" stop-color="#a90d11"/><stop offset=".9336" stop-color="#8a0608"/><stop offset="1" stop-color="#6f0000"/></linearGradient><radialGradient id="m" cx="28.16801" cy="-1.235" gradientUnits="userSpaceOnUse" r="45.978802" xlink:href="#a"/><radialGradient id="n" cx="184.707" cy="1.0386" gradientUnits="userSpaceOnUse" r="48.719101"><stop offset=".02" stop-color="#fdddce"/><stop offset=".0784" stop-color="#fabab0"/><stop offset=".1699" stop-color="#f68a85"/><stop offset=".2611" stop-color="#f36362"/><stop offset=".3503" stop-color="#f04447"/><stop offset=".4369" stop-color="#ee2e34"/><stop offset=".5199" stop-color="#ed2128"/><stop offset=".5951" stop-color="#ed1c24"/></radialGradient><linearGradient id="o" gradientUnits="userSpaceOnUse" x1="160.04201" x2="184.8232" y1="4.2534" y2="4.2534"><stop offset=".0165" stop-color="#90191c"/><stop offset=".2086" stop-color="#be2326"/><stop offset=".3988" stop-color="#ea5b3f"/><stop offset=".6564" stop-color="#ef8566"/><stop offset=".908" stop-color="#fbbea7"/></linearGradient><linearGradient id="p" gradientUnits="userSpaceOnUse" x1="177.4424" x2="184.8232" y1="10.2476" y2="10.2476"><stop offset=".0385" stop-color="#e41f28"/><stop offset=".2638" stop-color="#d82b29"/><stop offset=".4663" stop-color="#d14236"/><stop offset=".6748" stop-color="#d45647"/><stop offset="1" stop-color="#f4a391"/></linearGradient><linearGradient id="q" gradientUnits="userSpaceOnUse" x1="178.5625" x2="185.9227" y1="16.757299" y2="4.0855"><stop offset=".0385" stop-color="#e41f28"/><stop offset=".2638" stop-color="#d82b29"/><stop offset=".4663" stop-color="#d14236"/><stop offset=".6871" stop-color="#cc5344"/><stop offset="1" stop-color="#f4a391"/></linearGradient><linearGradient id="r" gradientUnits="userSpaceOnUse" x1="185.8037" x2="193.1826" y1="10.2627" y2="10.2627"><stop offset=".0165" stop-color="#fbbea7"/><stop offset=".3865" stop-color="#ef8566"/><stop offset=".6503" stop-color="#ea5b3f"/><stop offset=".8221" stop-color="#cd272b"/><stop offset="1" stop-color="#bf272e"/></linearGradient><g transform="scale(3.970117)"><path d="m25.762 0-20.277 34.635h14.855l12.801-22.358zm-8.157 12.277 7.176-12.276h-24.781l7.227 12.276z" fill="url(#e)"/><g transform="translate(-160.042 -4.109)"><path d="m167.476 16.045-6.875-11.648-.559-.288 7.227 12.277z" fill="#ed1e24"/><path d="m184.257 4.397h-23.656l-.559-.288h24.781z" fill="url(#f)"/><path d="m177.442 16.045h-9.966l-.207.341h10.378z" fill="url(#g)"/><path d="m184.267 4.397-6.825 11.648.205.341 7.176-12.277z" fill="url(#h)"/><path d="m185.804 4.747-19.555 33.616-.723.381 20.278-34.635z" fill="url(#i)"/><path d="m166.249 38.363h13.719l.414.381h-14.856z" fill="url(#j)"/><path d="m192.72 16.416-6.916-11.669v-.638l7.379 12.277z" fill="url(#k)"/><path d="m179.968 38.363 12.752-21.947.463-.03-12.801 22.358z" fill="url(#l)"/></g><path d="m12.721 22.276c3.566 2.35 7.701 3.907 12.154 4.432l8.266-14.431-7.379-12.276z" fill="url(#m)"/><path d="m184.823 4.109h-24.781l7.227 12.277h10.378z" fill="url(#n)" transform="translate(-160.042 -4.109)"/><path d="m184.257 4.397h-23.656l-.559-.288h24.781z" fill="url(#o)" transform="translate(-160.042 -4.109)"/><path d="m184.267 4.397-6.825 11.648.205.341 7.176-12.277z" fill="url(#p)" transform="translate(-160.042 -4.109)"/><path d="m185.804 4.747-19.555 33.616-.723.381 20.278-34.635z" fill="url(#q)" transform="translate(-160.042 -4.109)"/><path d="m192.72 16.416-6.916-11.669v-.638l7.379 12.277z" fill="url(#r)" transform="translate(-160.042 -4.109)"/><path d="m25.762 0-20.277 34.635h14.855l12.801-22.358zm-8.157 12.277 7.176-12.276h-24.781l7.227 12.276z" fill="#ed1c24" opacity=".25"/></g><path d="m141.83284 33.93172v71.09375h19.3125v-27.75h25.875v27.75h19.34375v-27.75-17.125-26.21875h-19.34375v26.21875h-25.875v-26.21875z" fill="url(#c)"/><path d="m216.95784 33.93172v71.09375h34.625c45.48079-8.259062 44.69198-65.689138 0-71.09375zm19.65625 17.0625h14c18.08898 2.747236 18.0023 33.457563 0 36.125h-14z" fill="url(#d)"/><path d="m141.83265 33.93125v71.09375h19.3125v-27.75h25.875v27.75h19.34375v-27.75-17.125-26.21875h-19.34375v26.21875h-25.875v-26.21875z" fill="#ed1c24" fill-rule="evenodd" opacity=".25"/><path d="m216.95765 33.93125v71.09375h34.625c45.48079-8.25906 44.69198-65.68914 0-71.09375zm19.65625 17.0625h14c18.08898 2.74724 18.0023 33.45756 0 36.125h-14z" fill="#ed1c24" fill-rule="evenodd" opacity=".25"/></svg>