<?xml version="1.0" encoding="UTF-8"?>
<!-- Generator: Adobe Illustrator 16.0.4, SVG Export Plug-In . SVG Version: 6.00 Build 0)  -->
<svg id="Layer_1" width="527.94" height="348.96" enable-background="new 0 0 197.351 66.888" version="1.1" viewBox="0 0 527.94 348.96" xml:space="preserve" xmlns="http://www.w3.org/2000/svg" xmlns:cc="http://creativecommons.org/ns#" xmlns:dc="http://purl.org/dc/elements/1.1/" xmlns:rdf="http://www.w3.org/1999/02/22-rdf-syntax-ns#"><metadata id="metadata1385"><rdf:RDF><cc:Work rdf:about=""><dc:format>image/svg+xml</dc:format><dc:type rdf:resource="http://purl.org/dc/dcmitype/StillImage"/><dc:title/></cc:Work></rdf:RDF></metadata><g id="g931" transform="matrix(8.8021 0 0 8.8021 232.46 -76.169)" fill="#ed1c24" fill-rule="evenodd"><polygon id="Fill-1" transform="translate(-10.141,8.4507)" points="27.442 10.392 21.332 0.2028 4.5453 28.946 16.836 28.946"/><polygon id="Fill-2" transform="translate(-10.141,8.4507)" points="20.513 0.2028 0 0.2028 5.985 10.392 14.576 10.392"/></g><g id="g908" transform="matrix(.26477 0 0 .26477 -53.104 237.39)" fill="#fff"><path id="path13-1" d="m755.84 178.35c23.192-3.8803 47.054-2.7402 70.076 1.7001 20.432 4.1404 40.273 11.331 58.275 21.892l-22.882 41.993c-20.742-10.621-43.224-17.982-66.355-20.982-11.461-1.2701-23.512-2.4102-34.553 1.7201-6.2805 2.2702-11.981 7.1606-13.701 13.801-1.3601 5.2505-1.2601 11.851 3.3103 15.551 5.6904 4.6504 12.911 6.7705 19.762 9.1307 22.862 6.8906 46.334 11.831 68.726 20.242 14.951 5.6905 30.102 13.171 40.113 26.092 9.6808 12.491 12.081 29.062 10.651 44.424-1.45 17.771-10.001 35.133-24.192 46.134-16.931 13.671-38.903 19.222-60.225 20.842-44.394 2.7802-90.397-6.9106-127.85-31.523l24.222-40.653c29.362 16.691 62.955 26.162 96.778 26.252 8.0906-0.13 16.441-1.3301 23.612-5.2904 5.3604-2.9402 9.6108-8.2807 10.171-14.511 0.56005-6.1805-0.41002-13.241-5.2804-17.601-5.6204-5.0104-13.101-6.9706-20.112-9.2007-23.562-6.8406-47.804-11.381-70.896-19.832-14.541-5.4304-29.422-12.631-38.843-25.462-8.4807-11.441-10.321-26.362-9.0407-40.203 1.2601-15.171 7.5106-30.072 18.361-40.883 13.341-13.301 31.593-20.412 49.874-23.632z" stroke-width="1.0001"/><path id="path15-8" d="m200.57 179.06h200.02v46.443h-72.704v192.5h-54.613v-192.5h-72.699z" stroke-width="1.0001"/><path id="path19-8" d="m488.14 179.06h71.028l98.372 239h-65.074l-18.59-47.035h-100.06l-18.28 47.035h-65.044l97.652-239m35.499 60.482-35.119 88.077h70.657z" stroke-width="1.0005"/><path id="path17" d="m931.27 179.06h71.69l72.71 121.16 72.67-121.16h71.71v238.93h-53.6v-166.5l-81.24 136.81h-19.1l-81.225-136.81v166.5h-53.615z"/><path id="path19-8-7" d="m1355.1 179.05h71.028l98.372 239h-65.074l-18.59-47.035h-100.06l-18.28 47.035h-65.044l97.652-239m35.499 60.482-35.119 88.077h70.657z" stroke-width="1.0005"/><path id="path13-7" d="m1559.9 179.05h56.693l111.25 150.16v-150.16h53.598v238.95h-56.668l-111.27-149.76v149.76h-53.598z"/><path id="path19-1" d="m1835 179.4h54.606v238.6h-54.606z"/><path id="path19-8-9" d="m2025.1 179.05h71.028l98.372 239h-65.074l-18.59-47.035h-100.06l-18.28 47.035h-65.044l97.652-239m35.499 60.482-35.118 88.077h70.657z" stroke-width="1.0005"/></g></svg>
