<svg height="72mm" viewBox="0 0 182 72" width="182mm" xmlns="http://www.w3.org/2000/svg"><g transform="translate(15.875001 -239.1741)"><path d="m-15.875001 239.1741h182v72h-182z" fill="#fff" stroke-width=".317586"/><g fill="#505050" transform="matrix(2.2869795 0 0 2.2869795 -96.551098 88.847553)"><path d="m56.621867 86.418358q0 1.64951-.855763 2.964159-.843359 1.314648-2.480469 2.058789-1.637109.744141-3.881932.744141-2.69131 0-4.440039-1.016993-1.240234-.731737-2.021583-1.947166-.768945-1.227834-.768945-2.38125 0-.669727.458888-1.141016.471289-.483693 1.190625-.483693.582908 0 .979783.372071.409279.37207.694532 1.10381.347265.868164.74414 1.451072.409279.582912 1.141016.967383.731739.372071 1.922364.372071 1.63711 0 2.654102-.756542 1.029393-.768945 1.029393-1.909961 0-.905372-.558104-1.463476-.545703-.570508-1.426271-.868165-.868164-.297656-2.33164-.63252-1.959571-.458886-3.28662-1.066602-1.314649-.620117-2.095998-1.674315-.768945-1.066602-.768945-2.641701 0-1.500682.818555-2.666502.818555-1.16582 2.368849-1.785938 1.550291-.63252 3.646289-.63252 1.674315 0 2.889745.421679 1.227833.409279 2.033984 1.10381.806154.682128 1.178224 1.438672.37207.756542.37207 1.475878 0 .657325-.471289 1.190625-.458888.520898-1.153419.520898-.632518 0-.967383-.310057-.322461-.322461-.706932-1.041797-.496094-1.029396-1.190625-1.599904-.694531-.582909-2.232422-.582909-1.426271 0-2.306836.632519-.868164.620117-.868164 1.500685 0 .545703.297656.942578.297656.396875.818555.682127.520898.285255 1.054198.446485.533302.161231 1.761133.471289 1.53789.359669 2.778125.79375 1.252638.434083 2.120802 1.0542.880565.620117 1.364257 1.575096.496094.942579.496094 2.31924z"/><path d="m65.911221 89.13447-2.914549-11.583789v12.551172q0 1.041797-.471289 1.562695-.458888.520899-1.227834.520899-.74414 0-1.215429-.508495-.471289-.520899-.471289-1.575099v-14.386719q0-1.190625.620117-1.599901.620117-.421679 1.674318-.421679h1.141015q1.029393 0 1.488281.186033.471289.186037.694532.669727.223242.483693.508494 1.575099l2.641701 9.95908 2.641698-9.95908q.285255-1.091406.508497-1.575099.223242-.48369.682128-.669727.471289-.186033 1.500685-.186033h1.141015q1.054198 0 1.674315.421679.620117.409276.620117 1.599901v14.386719q0 1.041797-.471289 1.562695-.458885.520899-1.240234.520899-.731737 0-1.203026-.520899-.471289-.520898-.471289-1.562695v-12.551172l-2.914552 11.583789q-.285253 1.128615-.471289 1.661914-.173633.520898-.657323.954982-.483693.434081-1.339453.434081-.644922 0-1.091406-.285253-.446485-.272852-.694532-.706935-.248046-.434081-.396875-.954979-.136427-.533302-.285255-1.10381z"/><path d="m306.34766 278.52734c-2.28125 0-4.03126.51563-5.25 1.54688-1.1875 1.03125-1.78125 2.4375-1.78125 4.21875 0 1.71875.57812 3.10938 1.73437 4.17187 1.15625 1.03125 2.92188 1.54688 5.29688 1.54688h15.1875v49.92187c0 2.84375.64062 4.96875 1.92187 6.375 1.3125 1.40625 3 2.10938 5.0625 2.10938 2.03126 0 3.6875-.6875 4.96875-2.0625 1.28125-1.40625 1.92188-3.54688 1.92188-6.42188v-49.92187h23.53711c.23886.6057.47552 1.21342.69531 1.83789l16.35937 43.79687c.59374 1.69042 1.18751 3.28892 1.78125 4.79493.59378 1.506 1.28125 2.85797 2.0625 4.05664.8125 1.16792 1.85937 2.1056 3.14063 2.8125 1.31248.73763 2.90625 1.10742 4.78125 1.10742s3.45314-.36979 4.73437-1.10742c1.31251-.73764 2.35937-1.67532 3.14063-2.8125.78125-1.16793 1.46876-2.50376 2.0625-4.00977.59376-1.53674 1.18751-3.15138 1.78125-4.8418l16.64062-44.16601c.28125-.7991.56251-1.56705.84375-2.30469.2813-.76837.51566-1.53632.70313-2.30469.18746-.7991.28125-1.53672.28125-2.21289 0-.98351-.29689-1.95151-.89063-2.90429-.56249-.98352-1.35937-1.7676-2.39062-2.35157-.99999-.58396-2.09375-.875-3.28125-.875-1.62502 0-2.90625.38397-3.84375 1.15235-.9375.73763-1.60938 1.58238-2.01563 2.53515-.40625.92205-1.01562 2.5812-1.82812 4.97852l-15.60938 45.64062-15.5625-45.31836c-1.03124-3.13495-2.04687-5.40846-3.04687-6.82226-.96876-1.44454-2.64063-2.16602-5.01563-2.16602-.21423 0-.42269.01-.6289.0254-.29-.0177-.58954-.0254-.90039-.0254z" transform="scale(.26458333)"/></g><g transform="matrix(2.2869795 0 0 2.2869795 -99.551159 85.847556)"><path d="m56.621867 86.418358q0 1.64951-.855763 2.964159-.843359 1.314648-2.480469 2.058789-1.637109.744141-3.881932.744141-2.69131 0-4.440039-1.016993-1.240234-.731737-2.021583-1.947166-.768945-1.227834-.768945-2.38125 0-.669727.458888-1.141016.471289-.483693 1.190625-.483693.582908 0 .979783.372071.409279.37207.694532 1.10381.347265.868164.74414 1.451072.409279.582912 1.141016.967383.731739.372071 1.922364.372071 1.63711 0 2.654102-.756542 1.029393-.768945 1.029393-1.909961 0-.905372-.558104-1.463476-.545703-.570508-1.426271-.868165-.868164-.297656-2.33164-.63252-1.959571-.458886-3.28662-1.066602-1.314649-.620117-2.095998-1.674315-.768945-1.066602-.768945-2.641701 0-1.500682.818555-2.666502.818555-1.16582 2.368849-1.785938 1.550291-.63252 3.646289-.63252 1.674315 0 2.889745.421679 1.227833.409279 2.033984 1.10381.806154.682128 1.178224 1.438672.37207.756542.37207 1.475878 0 .657325-.471289 1.190625-.458888.520898-1.153419.520898-.632518 0-.967383-.310057-.322461-.322461-.706932-1.041797-.496094-1.029396-1.190625-1.599904-.694531-.582909-2.232422-.582909-1.426271 0-2.306836.632519-.868164.620117-.868164 1.500685 0 .545703.297656.942578.297656.396875.818555.682127.520898.285255 1.054198.446485.533302.161231 1.761133.471289 1.53789.359669 2.778125.79375 1.252638.434083 2.120802 1.0542.880565.620117 1.364257 1.575096.496094.942579.496094 2.31924z"/><path d="m65.911221 89.13447-2.914549-11.583789v12.551172q0 1.041797-.471289 1.562695-.458888.520899-1.227834.520899-.74414 0-1.215429-.508495-.471289-.520899-.471289-1.575099v-14.386719q0-1.190625.620117-1.599901.620117-.421679 1.674318-.421679h1.141015q1.029393 0 1.488281.186033.471289.186037.694532.669727.223242.483693.508494 1.575099l2.641701 9.95908 2.641698-9.95908q.285255-1.091406.508497-1.575099.223242-.48369.682128-.669727.471289-.186033 1.500685-.186033h1.141015q1.054198 0 1.674315.421679.620117.409276.620117 1.599901v14.386719q0 1.041797-.471289 1.562695-.458885.520899-1.240234.520899-.731737 0-1.203026-.520899-.471289-.520898-.471289-1.562695v-12.551172l-2.914552 11.583789q-.285253 1.128615-.471289 1.661914-.173633.520898-.657323.954982-.483693.434081-1.339453.434081-.644922 0-1.091406-.285253-.446485-.272852-.694532-.706935-.248046-.434081-.396875-.954979-.136427-.533302-.285255-1.10381z"/><path d="m306.34766 278.52734c-2.28125 0-4.03126.51563-5.25 1.54688-1.1875 1.03125-1.78125 2.4375-1.78125 4.21875 0 1.71875.57812 3.10938 1.73437 4.17187 1.15625 1.03125 2.92188 1.54688 5.29688 1.54688h15.1875v49.92187c0 2.84375.64062 4.96875 1.92187 6.375 1.3125 1.40625 3 2.10938 5.0625 2.10938 2.03126 0 3.6875-.6875 4.96875-2.0625 1.28125-1.40625 1.92188-3.54688 1.92188-6.42188v-49.92187h23.53711c.23886.6057.47552 1.21342.69531 1.83789l16.35937 43.79687c.59374 1.69042 1.18751 3.28892 1.78125 4.79493.59378 1.506 1.28125 2.85797 2.0625 4.05664.8125 1.16792 1.85937 2.1056 3.14063 2.8125 1.31248.73763 2.90625 1.10742 4.78125 1.10742s3.45314-.36979 4.73437-1.10742c1.31251-.73764 2.35937-1.67532 3.14063-2.8125.78125-1.16793 1.46876-2.50376 2.0625-4.00977.59376-1.53674 1.18751-3.15138 1.78125-4.8418l16.64062-44.16601c.28125-.7991.56251-1.56705.84375-2.30469.2813-.76837.51566-1.53632.70313-2.30469.18746-.7991.28125-1.53672.28125-2.21289 0-.98351-.29689-1.95151-.89063-2.90429-.56249-.98352-1.35937-1.7676-2.39062-2.35157-.99999-.58396-2.09375-.875-3.28125-.875-1.62502 0-2.90625.38397-3.84375 1.15235-.9375.73763-1.60938 1.58238-2.01563 2.53515-.40625.92205-1.01562 2.5812-1.82812 4.97852l-15.60938 45.64062-15.5625-45.31836c-1.03124-3.13495-2.04687-5.40846-3.04687-6.82226-.96876-1.44454-2.64063-2.16602-5.01563-2.16602-.21423 0-.42269.01-.6289.0254-.29-.0177-.58954-.0254-.90039-.0254z" transform="scale(.26458333)"/></g></g></svg>