<svg enable-background="new 0 0 300 276.585" height="333.92429" viewBox="0 0 296.25 313.05403" width="316" xmlns="http://www.w3.org/2000/svg" xmlns:xlink="http://www.w3.org/1999/xlink"><linearGradient id="a" gradientUnits="userSpaceOnUse" x1="48.752401" x2="180.0263" y1="127.4878" y2="127.4878"><stop offset="0" stop-color="#fff"/><stop offset=".0225" stop-color="#fde9e1"/><stop offset=".0484" stop-color="#fbd6c6"/><stop offset=".0783" stop-color="#f9c6b0"/><stop offset=".1131" stop-color="#f8ba9f"/><stop offset=".1562" stop-color="#f7b194"/><stop offset=".2167" stop-color="#f6ac8d"/><stop offset=".3846" stop-color="#f6ab8b"/><stop offset=".6703" stop-color="#dd0035"/><stop offset="1" stop-color="#dd0035"/></linearGradient><linearGradient id="b" gradientUnits="userSpaceOnUse" x1=".0004" x2="179.727" y1="136.7232" y2="136.7232"><stop offset="0" stop-color="#fff"/><stop offset=".0653" stop-color="#fffbf9"/><stop offset=".1544" stop-color="#fdeee7"/><stop offset=".257" stop-color="#fbd9cb"/><stop offset=".369" stop-color="#f8bca3"/><stop offset=".4286" stop-color="#f6ab8b"/><stop offset=".6703" stop-color="#dd0035"/><stop offset="1" stop-color="#dd0035"/></linearGradient><linearGradient id="c" gradientUnits="userSpaceOnUse" x1="16.1366" x2="180.5712" y1="109.8892" y2="109.8892"><stop offset="0" stop-color="#fff"/><stop offset=".0227" stop-color="#fef6f2"/><stop offset=".0988" stop-color="#fbdbcd"/><stop offset=".1748" stop-color="#f9c6b0"/><stop offset=".2501" stop-color="#f7b79c"/><stop offset=".3241" stop-color="#f6ae8f"/><stop offset=".3956" stop-color="#f6ab8b"/><stop offset=".7143" stop-color="#dd0035"/><stop offset="1" stop-color="#dd0035"/></linearGradient><g transform="scale(1.109401)"><g fill="#fff"><path d="m158.886 0-4.232 10.726c2.539-.735 5.278-1.442 7.602-2.13z"/><path d="m147.5 26.302c5.429-1.796 13.033-4.219 18.522-5.672l-3.549-8.998c-3.409 1.189-7.327 2.62-10.714 3.875z"/><path d="m141.035 42.672c9.61-3.416 19.888-6.621 29.834-9.772l-3.802-9.635c-7.224 2.503-14.411 5.197-21.542 8.034z"/><path d="m138.705 48.569-4.4 11.144c.025-.011.036-.011.058-.029 13.55-5.615 27.502-10.042 41.387-14.423l-3.779-9.563c-10.472 3.638-20.87 7.623-31.149 11.964-.706.309-1.419.62-2.117.907"/><path d="m102.559 50.739c-7.021 3.578-13.947 7.298-20.779 11.197l3.676 6.045c9.164-4.852 18.718-9.353 28.223-13.665z"/><path d="m85.08 45.112c-3.391 1.844-6.763 3.703-10.101 5.604l3.68 6.063c5.444-2.9 11.192-5.627 16.763-8.325z"/><path d="m202.526 203.402c2.803-1.078 5.661-1.905 8.498-2.921l-1.609-9c-5.052 2.012-10.054 4.142-14.995 6.397z"/><path d="m68.294 39.721 3.904 6.419c1.845-1.028 4.022-2.286 5.891-3.268z"/><path d="m212.805 210.418-.995-5.585c-1.501.613-2.989 1.215-4.483 1.859z"/><path d="m104.858 143.201 4.228.863c33.257-18.952 71.796-32.337 108.871-41.886l-6.123-3.801 3.688-6.981.006-.012c-13.584 3.9-38.928 12.201-62.147 23.117-27.783 12.814-51.308 28.116-51.308 28.116-7.774 4.967-15.403 10.202-22.881 15.687l2.623.539c7.533-5.472 15.207-10.693 23.043-15.642"/><path d="m99.226 90.648c25.997-13.674 53.383-24.298 81.404-33.036l-3.813-9.63c-41.89 14.406-81.657 34.518-118.358 59.981l2.374.76c11.63-8.005 23.556-15.487 35.764-22.404z"/><path d="m120.846 56.63c-11.478 5.627-32.121 16.708-32.121 16.708l3.657 6.041c13.083-6.884 26.5-13.201 40.223-18.953z"/><path d="m109.31 174.833c42.896-26.939 90.466-43.512 140.299-53.001l-13.62-8.452c-44.715 11.203-87.101 29.92-125.621 55.498z"/><path d="m106.077 192.97c33.901-21.601 79.524-47.334 159.999-60.867l-14.034-8.773c-52.191 11.244-101.339 32.94-144.977 64.025z"/><path d="m220.476 103.747c-37.654 10.661-73.592 26.548-106.904 47.258l-1.159 6.472c37.509-22.104 78.48-36.126 121.002-45.703z"/><path d="m103.676 206.274-1.088 6.103s47.052-33.817 101.375-51.496l-1.667-9.289c-35.229 13.117-68.416 31.485-98.62 54.682"/><path d="m207.04 178.138c-8.602 3.348-17.059 7.041-25.362 11.044l7.667 5.229c6.348-2.64 12.813-4.939 19.303-7.211z"/><path d="m206.316 174.08-1.646-9.221c-12.121 4.604-23.99 9.864-35.559 15.738l7.29 4.982c9.773-4.339 19.781-8.031 29.915-11.499"/><path d="m205.054 91.862c3.938-1.069 7.887-2.103 11.828-3.073l7.083-13.424s0 0-.011 0l .011-.022c-8.421 2.153-16.765 4.553-25.031 7.209z"/><path d="m195.796 77.677 1.46 2.246c9.278-2.601 18.614-4.949 28.001-7.027l6.967-13.228c-8.86 2.032-17.628 4.312-26.309 6.867z"/><path d="m240.272 44.36c-19.655 4.008-38.961 9.25-57.836 15.686l6.574 8.233c14.631-4.283 29.461-7.895 44.392-10.858z"/></g><g><path d="m181.151 98.882 8.548-11.987 14.492 5.201c-7.854 2.14-15.284 4.3-23.04 6.786" fill="#dd0035"/><path d="m48.752 165.323c39.433-32.988 83.688-58.608 131.049-76.177l.225 10.114c-31.212 10.168-62.338 23.724-90.201 40.83l-3.388-.695c-12.112 8.189-23.856 17.019-35.198 26.436z" fill="url(#a)"/><path d="m166.595 79.971 13.068 2.726.064 2.498c-38.159 12.243-74.899 29.137-108.358 51.106l-2.857-.599c-20.36 14.614-39.679 31.007-57.761 49.081-2.863 2.864-5.684 5.76-8.459 8.692l-2.292-.477c3.069-3.232 6.177-6.448 9.352-9.618 45.589-45.575 99.009-80.461 157.243-103.409" fill="url(#b)"/><path d="m48.528 131.545c40.243-30.71 84.767-54.528 132.043-70.856l-.666 10.353c-44.958 14.09-87.965 34.587-126.625 61.509l-2.207-.447c-11.19 8.469-22.042 17.461-32.538 26.986l-2.399-.5c10.439-9.514 21.237-18.529 32.354-27.02z" fill="url(#c)"/></g><g fill="#fff"><path d="m43.244 250c-3.407 0-5.644-.603-7.213-1.634l1.485-4.527c.887.604 2.531 1.272 4.434 1.286 2.292 0 3.705-1.32 3.705-3.291 0-1.748-1.05-2.839-3.846-4.067-4.293-1.938-5.488-4.932-5.488-7.612 0-4.648 3.374-8.498 8.723-8.483 2.968 0 5.133.718 6.447 1.599l-1.366 3.973c-.945-.602-2.426-1.189-4.108-1.189-2.165 0-3.331 1.189-3.331 3.138 0 1.997 1.398 3.004 3.719 4.044 5.325 2.411 6.077 5.318 6.077 8.13-.013 4.964-3.802 8.64-9.238 8.633"/><path d="m63.692 232.769c-2.558 0-3.095 3.138-3.095 6.712 0 3.625.56 6.552 3.095 6.56 2.568 0 3.102-2.935 3.102-6.56-.001-3.574-.527-6.712-3.102-6.712m0 17.209c-5.815 0-8.881-4.417-8.852-10.432 0-5.992 3.05-10.388 8.823-10.388 5.861 0 8.887 4.403 8.887 10.403 0 6.016-3.054 10.439-8.858 10.417z"/><path d="m84.103 250c-5.663 0-8.397-2.129-8.397-6.952v-13.51h5.799l-.007 13.911c0 1.459.796 2.622 2.768 2.622 1.042 0 1.761-.124 2.419-.452l.007-16.061h5.822l-.022 18.887c-1.867.922-4.612 1.555-8.389 1.555"/><path d="m103.182 249.934c-4.209 0-6.034-2.724-6.034-5.811v-10.815h-2.193l.015-3.75h2.179v-4.308l5.841-1.48v5.788h3.087v3.75h-3.095v10.379c0 1.541.548 2.339 1.867 2.339.484 0 .719-.065 1.228-.239l-.008 3.59c-.501.223-1.546.557-2.887.557"/><path d="m120.593 249.636.008-13.961c0-1.57-.704-2.841-2.968-2.841-.921 0-1.688.145-2.463.561l-.013 16.241h-5.816l.022-28.562h5.807v9.161c1.341-.604 2.739-.938 4.317-.938 5.036 0 6.939 2.906 6.939 6.268l-.015 14.093z"/><path d="m137.711 232.646c-2.383 0-3.86 2.041-3.69 6.174l7.006-1.037c-.001-3.591-1.173-5.137-3.316-5.137m-3.301 8.999c.407 2.942 1.888 4.388 4.833 4.388 2.343.008 4.135-.484 5.227-1.053l1.29 3.595c-1.555.792-3.795 1.453-7.169 1.453-6.167 0-9.723-4.067-9.702-10.481 0-6.29 3.281-10.35 9.059-10.35 5.826 0 8.757 3.965 8.487 10.728z"/><path d="m158.699 233.378c-1.413-.609-2.905-.552-3.875-.122v16.415l-5.822-.014.015-18.959c2.238-1.097 5.368-1.679 10.754-1.416z"/><path d="m172.817 249.695v-14.063c.015-1.404-.625-2.798-2.976-2.798-1.151 0-1.774.167-2.461.399v16.438h-5.821l.013-18.973c2.009-.885 4.85-1.497 8.419-1.497 6.359 0 8.66 2.724 8.66 6.385l-.022 14.108h-5.812"/><path d="m200.071 250.071c-7.438 0-10.838-6.702-10.838-14.164.008-7.328 3.483-14.156 10.908-14.156 2.668 0 4.588.596 5.941 1.599l-1.314 3.938c-.754-.479-1.722-.851-3.23-.851-4.269 0-5.608 4.708-5.608 9.437 0 4.685 1.555 9.252 5.546 9.252 1.526 0 2.277-.317 3.173-.827l1.46 4.147c-1.38 1.083-3.396 1.625-6.038 1.625"/><path d="m217.701 233.41c-1.412-.583-2.888-.554-3.845-.111l-.022 16.404-5.814-.008v-18.966c2.25-1.082 5.382-1.671 10.768-1.418z"/><path d="m227.855 232.864c-2.562-.008-3.079 3.131-3.079 6.713-.022 3.603.54 6.544 3.063 6.544 2.588 0 3.11-2.941 3.11-6.544.001-3.582-.513-6.713-3.094-6.713m-.015 17.201c-5.802 0-8.852-4.417-8.852-10.425s3.05-10.399 8.843-10.399c5.87 0 8.898 4.406 8.898 10.399-.013 6.008-3.044 10.431-8.889 10.425z"/><path d="m244.281 250.057c-2.448 0-4.635-.64-5.885-1.46l1.5-3.682c.737.603 2.112 1.146 3.578 1.146 1.495 0 2.497-.938 2.497-2.216 0-1.322-.71-2.076-2.572-2.817-3.696-1.452-4.498-3.488-4.498-5.601 0-3.421 2.662-6.169 6.693-6.169 2.493 0 4.225.481 5.786 1.439l-1.398 3.319c-.623-.464-1.769-1.039-3.081-1.039-1.529 0-2.302.923-2.302 2.086 0 1.358.995 2.107 2.563 2.766 3.876 1.65 4.777 3.533 4.777 5.894.001 3.487-2.887 6.334-7.658 6.334"/><path d="m259.385 250.065c-2.462 0-4.658-.647-5.891-1.468l1.481-3.682c.769.603 2.117 1.146 3.599 1.146 1.472 0 2.485-.938 2.485-2.191 0-1.331-.716-2.101-2.582-2.842-3.676-1.438-4.508-3.488-4.508-5.579 0-3.422 2.702-6.19 6.729-6.19 2.489 0 4.207.481 5.782 1.461l-1.434 3.298c-.604-.464-1.744-1.031-3.046-1.031-1.531 0-2.312.945-2.312 2.099 0 1.338 1.009 2.087 2.561 2.76 3.873 1.636 4.787 3.519 4.787 5.879.002 3.5-2.897 6.34-7.651 6.34"/></g></g><g fill="#fff" transform="matrix(.09420045 0 0 .09420045 108.73289 280.29768)"><path d="m67.58 72.41c11.97-8.67 26.71-12.92 41.4-13.2 16.35-.64 33.55 1.9 47.23 11.46 12.76 8.58 21.27 22.39 25.41 37 2.37 6.76 3.84 13.77 5.59 20.7l-33.86 8.49c-2.65-9.93-4.38-20.35-9.63-29.34-4.76-8.33-12.82-15.37-22.57-16.74-10.69-1.63-22.65-.2-31.14 7.04-11.07 9.14-16.06 23.39-18.85 37.03-3.17 18.19-3.82 36.74-3.14 55.16.96 16.45 2.22 33.39 9.33 48.52 4.02 8.37 9.9 16.24 18.05 20.94 8.62 4.61 18.9 5.2 28.37 3.4 12.76-2.43 22.01-13.81 25.43-25.84 3.61-10.61 3.92-21.93 4.2-33.03h-40.65v-30h75.37v118.5l-19.86-.02-4.76-28.95c-5.56 9.73-12.99 18.76-23.07 24.03-14.09 7.85-30.97 8.56-46.57 6.01-13.31-1.93-25.52-8.81-34.96-18.26-12.92-12.57-20.68-29.5-25.29-46.71-6.97-27.98-7.24-57.32-3.06-85.76 2.01-11.31 4.79-22.54 9.25-33.15 5.42-14.72 14.87-28.21 27.78-37.28z"/><path d="m401.11 63.83c12.96-4.77 27.1-5.46 40.74-4.08 15.57 1.42 30.52 8.8 41.06 20.35 8.82 9.45 13.62 21.7 17.33 33.89l-32.04 11.26c-3.62-9.72-8.04-19.57-15.55-26.94-7.27-7.04-18.01-8.32-27.68-8.06-10.3.12-20.29 6.32-24.96 15.48-3.54 7.44-4.35 16.48-.94 24.11 3.67 7.36 10.58 12.39 17.69 16.12 17.88 8.62 37.16 14.11 54.65 23.58 15.17 8.47 28.17 22.19 32.62 39.32 3.11 12.9 2.62 26.7-1.63 39.29-5.14 16.32-17.27 30.17-32.56 37.77-16.98 8.99-36.94 10.27-55.7 7.95-19-1.97-37.07-12.16-48.42-27.53-7.89-10.16-11.7-22.63-15-34.87l33.46-9.63c2.12 6.95 3.56 14.26 7.39 20.54 6.22 11.17 17.8 19.45 30.6 20.89 10.48 1.18 21.91.86 31.06-5.04 6.57-3.79 11.12-10.51 12.94-17.8 2.11-8.11 2-17.46-2.9-24.59-4.44-7-11.49-11.86-18.86-15.36-16.9-7.7-34.97-12.72-51.28-21.73-15.24-8.47-27.18-23.16-31.42-40.17-3.6-15.87-1.41-33.1 6.54-47.34 7.16-12.76 19.2-22.39 32.86-27.41z"/><path d="m205.62 63h138.5v31.75h-50.74v195.99l-37.63.01-.02-196.01h-50.11z"/><path d="m643.13 63.019752h25.91l-125.55 284.710508h-25.96z"/><path d="m712.12 63h64.88c15.21.68 31.12-.51 45.51 5.42 15.39 6.07 25.33 21.56 28.14 37.42 2.78 14.52 2.68 30.57-4.92 43.69-5.62 10.5-16.01 17.49-26.96 21.5 6.94 2.88 14.52 4.73 20.43 9.64 6.33 4.62 10.72 11.3 14.2 18.22 5.99 11.31 6.83 24.61 5.61 37.14-2.01 14.75-7.42 30.14-19.38 39.76-8.22 6-17.56 10.68-27.55 12.82-10.27 1.8-20.73 2.07-31.13 2.14h-68.82zm36.76 29.25v65.5c10.36-.11 20.72.27 31.07-.3 7.95-.28 16.23-1.77 22.83-6.49 6.31-4.65 9.97-12.19 10.64-19.92.86-9.66.61-20.66-6.22-28.31-5.87-7.42-15.71-10.11-24.8-10.36-11.17-.28-22.35-.04-33.52-.12m0 94.5v74c11.97-.06 23.95.11 35.92-.08 9.77-.73 20.65-2.85 27.33-10.69 8.55-9.48 9.91-23.28 8.11-35.42-1.38-10.36-8.75-19.36-18.13-23.66-7.8-3.8-16.61-4.07-25.11-4.16-9.37.02-18.75 0-28.12.01z"/><path d="m903.75 63h37.5l-.03 108.76 68.79-108.76h39.96l-58.86 83.83 68.58 143.9-40.55.04-50.78-112.57-27.12 38 .01 74.55h-37.5z"/><path d="m1082 63 44.27-.04 75.2 164.15.03-164.11h31.38l-.01 227.75-35.03.03-84.31-182.17-.04 182.15-31.48-.01z"/></g></svg>