<?xml version="1.0" encoding="UTF-8"?>
<!-- Generator: Adobe Illustrator 13.0.0, SVG Export Plug-In . SVG Version: 6.00 Build 14948)  -->
<svg id="Layer_1" width="292.77" height="249.79" enable-background="new 0 0 300 258.066" version="1.0" viewBox="0 0 292.77 249.79" xml:space="preserve" xmlns="http://www.w3.org/2000/svg" xmlns:cc="http://creativecommons.org/ns#" xmlns:dc="http://purl.org/dc/elements/1.1/" xmlns:rdf="http://www.w3.org/1999/02/22-rdf-syntax-ns#"><metadata id="metadata146"><rdf:RDF><cc:Work rdf:about=""><dc:format>image/svg+xml</dc:format><dc:type rdf:resource="http://purl.org/dc/dcmitype/StillImage"/><dc:title/></cc:Work></rdf:RDF></metadata><path id="path3" d="m158.89 0-4.232 10.726c2.539-0.735 5.278-1.442 7.602-2.13l-3.37-8.596" fill="#004990"/><path id="path5" d="m147.5 26.302c5.429-1.796 13.033-4.219 18.522-5.672l-3.549-8.998c-3.409 1.189-7.327 2.62-10.714 3.875l-4.259 10.795" fill="#004990"/><path id="path7" d="m141.04 42.672c9.61-3.416 19.888-6.621 29.834-9.772l-3.802-9.635c-7.224 2.503-14.411 5.197-21.542 8.034l-4.49 11.373" fill="#004990"/><path id="path9" d="m138.7 48.569-4.4 11.144c0.025-0.011 0.036-0.011 0.058-0.029 13.55-5.615 27.502-10.042 41.387-14.423l-3.779-9.563c-10.472 3.638-20.87 7.623-31.149 11.964-0.706 0.309-1.419 0.62-2.117 0.907" fill="#004990"/><path id="path11" d="m102.56 50.739c-7.021 3.578-13.947 7.298-20.779 11.197l3.676 6.045c9.164-4.852 18.718-9.353 28.223-13.665l-11.12-3.577" fill="#004990"/><path id="path13" d="m85.08 45.112c-3.391 1.844-6.763 3.703-10.101 5.604l3.68 6.063c5.444-2.9 11.192-5.627 16.763-8.325l-10.342-3.342" fill="#004990"/><path id="path15" d="m202.53 203.4c2.803-1.078 5.661-1.905 8.498-2.921l-1.609-9c-5.052 2.012-10.054 4.142-14.995 6.397l8.106 5.524" fill="#004990"/><path id="path17" d="m68.294 39.721 3.904 6.419c1.845-1.028 4.022-2.286 5.891-3.268l-9.795-3.151" fill="#004990"/><path id="path19" d="m212.8 210.42-0.995-5.585c-1.501 0.613-2.989 1.215-4.483 1.859l5.478 3.726" fill="#004990"/><path id="path21" d="m104.86 143.2 4.228 0.863c33.257-18.952 71.796-32.337 108.87-41.886l-6.123-3.801 3.688-6.981 6e-3 -0.012c-13.584 3.9-38.928 12.201-62.147 23.117-27.783 12.814-51.308 28.116-51.308 28.116-7.774 4.967-15.403 10.202-22.881 15.687l2.623 0.539c7.533-5.472 15.207-10.693 23.043-15.642" fill="#004990"/><path id="path23" d="m99.226 90.648c25.997-13.674 53.383-24.298 81.404-33.036l-3.813-9.63c-41.89 14.406-81.657 34.518-118.36 59.981l2.374 0.76c11.63-8.005 23.556-15.487 35.764-22.404l2.629 4.329" fill="#004990"/><path id="path25" d="m120.85 56.63c-11.478 5.627-32.121 16.708-32.121 16.708l3.657 6.041c13.083-6.884 26.5-13.201 40.223-18.953l-11.759-3.796" fill="#004990"/><path id="path27" d="m109.31 174.83c42.896-26.939 90.466-43.512 140.3-53.001l-13.62-8.452c-44.715 11.203-87.101 29.92-125.62 55.498l-1.058 5.955" fill="#004990"/><path id="path29" d="m106.08 192.97c33.901-21.601 79.524-47.334 160-60.867l-14.034-8.773c-52.191 11.244-101.34 32.94-144.98 64.025l-0.988 5.615" fill="#004990"/><path id="path31" d="m220.48 103.75c-37.654 10.661-73.592 26.548-106.9 47.258l-1.159 6.472c37.509-22.104 78.48-36.126 121-45.703l-12.939-8.027" fill="#004990"/><path id="path33" d="m103.68 206.27-1.088 6.103s47.052-33.817 101.38-51.496l-1.667-9.289c-35.229 13.117-68.416 31.485-98.62 54.682" fill="#004990"/><path id="path35" d="m207.04 178.14c-8.602 3.348-17.059 7.041-25.362 11.044l7.667 5.229c6.348-2.64 12.813-4.939 19.303-7.211l-1.608-9.062" fill="#004990"/><path id="path37" d="m206.32 174.08-1.646-9.221c-12.121 4.604-23.99 9.864-35.559 15.738l7.29 4.982c9.773-4.339 19.781-8.031 29.915-11.499" fill="#004990"/><path id="path39" d="m205.05 91.862c3.938-1.069 7.887-2.103 11.828-3.073l7.083-13.424h-0.011l0.011-0.022c-8.421 2.153-16.765 4.553-25.031 7.209l6.12 9.31" fill="#004990"/><path id="path41" d="m195.8 77.677 1.46 2.246c9.278-2.601 18.614-4.949 28.001-7.027l6.967-13.228c-8.86 2.032-17.628 4.312-26.309 6.867l-10.119 11.142" fill="#004990"/><path id="path43" d="m240.27 44.36c-19.655 4.008-38.961 9.25-57.836 15.686l6.574 8.233c14.631-4.283 29.461-7.895 44.392-10.858l6.87-13.061" fill="#004990"/><path id="path45" d="m17.206 249.7c-3.386 0-5.614-0.593-7.184-1.631l1.484-4.501c0.872 0.598 2.521 1.274 4.42 1.293 2.28 0 3.682-1.339 3.682-3.29 0-1.753-1.031-2.833-3.814-4.063-4.287-1.91-5.477-4.909-5.477-7.594 0-4.617 3.36-8.459 8.695-8.448 2.951 0 5.112 0.719 6.427 1.597l-1.365 3.969c-0.954-0.613-2.429-1.209-4.102-1.209-2.155 0-3.311 1.196-3.311 3.127 0 2.005 1.393 3.002 3.705 4.041 5.307 2.395 6.065 5.294 6.065 8.102-5e-3 4.948-3.804 8.625-9.225 8.607" fill="#004990"/><path id="path47" d="m37.594 232.52c-2.56 0-3.091 3.128-3.091 6.691 0 3.615 0.555 6.537 3.082 6.537 2.552 0 3.1-2.922 3.1-6.537-1e-3 -3.563-0.536-6.691-3.091-6.691m-9e-3 17.164c-5.79 0-8.837-4.429-8.831-10.4 0-5.975 3.053-10.363 8.79-10.363 5.856 0 8.874 4.403 8.874 10.393-1e-3 5.975-3.041 10.37-8.833 10.37z" fill="#004990"/><path id="path49" d="m57.935 249.7c-5.639-0.017-8.385-2.125-8.385-6.942l6e-3 -13.443h5.784v13.846c0 1.456 0.783 2.637 2.758 2.637 1.028 0 1.764-0.146 2.406-0.461l6e-3 -16.021 5.79 0.013v18.817c-1.868 0.916-4.598 1.554-8.365 1.554" fill="#004990"/><path id="path51" d="m76.943 249.63c-4.192 0-6.01-2.71-6.01-5.795l7e-3 -10.764h-2.193l0.012-3.745h2.185v-4.277l5.804-1.491v5.769h3.075l-7e-3 3.745h-3.067l-7e-3 10.336c0 1.52 0.543 2.322 1.852 2.322 0.483 0 0.735-0.067 1.223-0.209v3.557c-0.488 0.219-1.54 0.552-2.874 0.552" fill="#004990"/><path id="path53" d="m94.29 249.36 7e-3 -13.937c0-1.563-0.71-2.82-2.962-2.82-0.932 0-1.675 0.146-2.464 0.545v16.212h-5.79l0.012-28.485h5.782l-5e-3 9.125c1.364-0.588 2.759-0.932 4.308-0.932 5.022 0.016 6.929 2.897 6.929 6.258l-0.018 14.034h-5.799" fill="#004990"/><path id="path55" d="m111.36 232.39c-2.384 0-3.859 2.038-3.681 6.178l6.986-1.04c0-3.561-1.188-5.138-3.305-5.138m-3.309 8.977c0.421 2.947 1.878 4.388 4.825 4.388 2.335 0 4.129-0.505 5.202-1.055l1.288 3.595c-1.556 0.774-3.791 1.451-7.152 1.451-6.138 0-9.661-4.059-9.655-10.445 0-6.291 3.27-10.321 9.033-10.321 5.787 0.013 8.728 3.927 8.449 10.686l-11.99 1.701z" fill="#004990"/><path id="path57" d="m132.27 233.15c-1.412-0.612-2.904-0.577-3.869-0.126v16.354l-5.804-0.017 0.022-18.896c2.227-1.073 5.347-1.667 10.72-1.408l-1.069 4.093" fill="#004990"/><path id="path59" d="m146.34 249.39v-14.008c0-1.403-0.618-2.776-2.962-2.776-1.148 0-1.767 0.174-2.456 0.392v16.382h-5.787l0.011-18.913c1.99-0.867 4.834-1.475 8.382-1.463 6.344 0 8.623 2.71 8.623 6.348l-0.024 14.039h-5.787" fill="#004990"/><path id="path61" d="m173.5 249.79c-7.424 0-10.793-6.7-10.793-14.117 0.011-7.307 3.468-14.132 10.861-14.132 2.654 0 4.583 0.604 5.945 1.595l-1.329 3.928c-0.757-0.477-1.734-0.842-3.226-0.842-4.236 0-5.592 4.707-5.592 9.402 0 4.673 1.551 9.241 5.528 9.241 1.522 0 2.269-0.34 3.166-0.847l1.462 4.14c-1.382 1.08-3.38 1.632-6.022 1.632" fill="#004990"/><path id="path63" d="m191.08 233.18c-1.423-0.614-2.894-0.569-3.858-0.109v16.321h-5.81l0.013-18.893c2.219-1.08 5.35-1.678 10.726-1.401l-1.071 4.082" fill="#004990"/><path id="path65" d="m201.18 232.63c-2.543-0.018-3.065 3.106-3.065 6.683-0.012 3.589 0.537 6.527 3.054 6.527 2.566 0 3.101-2.938 3.101-6.527-2e-3 -3.576-0.531-6.683-3.09-6.683m-0.012 17.147c-5.777 0-8.818-4.413-8.818-10.389 0-5.995 3.046-10.364 8.796-10.364 5.857 0 8.878 4.382 8.878 10.364-0.014 5.976-3.04 10.389-8.856 10.389z" fill="#004990"/><path id="path67" d="m217.57 249.75c-2.458 0-4.641-0.627-5.879-1.452l1.491-3.683c0.748 0.6 2.107 1.162 3.566 1.162 1.482 0 2.486-0.917 2.486-2.198 0-1.328-0.701-2.068-2.557-2.82-3.68-1.447-4.482-3.486-4.482-5.569 0-3.422 2.664-6.167 6.683-6.149 2.471 0 4.19 0.479 5.745 1.432l-1.393 3.317c-0.609-0.499-1.768-1.045-3.068-1.045-1.521 0-2.282 0.93-2.282 2.089 0 1.321 0.993 2.074 2.544 2.729 3.863 1.648 4.771 3.53 4.771 5.879 0 3.478-2.878 6.308-7.625 6.308" fill="#004990"/><path id="path69" d="m232.6 249.76c-2.447 0-4.642-0.634-5.87-1.446l1.489-3.674c0.751 0.589 2.112 1.141 3.569 1.141 1.481 0 2.493-0.917 2.493-2.188 0-1.326-0.706-2.078-2.562-2.819-3.681-1.444-4.495-3.478-4.495-5.568 0-3.416 2.68-6.161 6.695-6.161 2.473 0 4.196 0.488 5.758 1.446l-1.413 3.313c-0.609-0.492-1.756-1.046-3.042-1.046-1.529 0-2.307 0.931-2.307 2.086 0 1.314 0.998 2.067 2.545 2.738 3.861 1.632 4.774 3.524 4.774 5.875 1e-3 3.477-2.886 6.303-7.634 6.303" fill="#004990"/><polyline id="polyline71" transform="translate(.288 -3.437)" points="254.61 228.12 254.61 252.82 250.98 252.82 250.98 228.12 245.58 228.12 245.58 225.68 260.02 225.68 260.02 228.12 254.61 228.12" fill="#004990"/><path id="path73" d="m266.66 230.96c-2.933 0-5.097 2.354-5.029 7.826l9.669-1.466c0-4.57-1.758-6.36-4.64-6.36m-4.914 9.586c0.36 4.577 2.509 6.816 6.144 6.816 2.285 0 3.94-0.546 4.989-1.161l0.856 2.176c-1.229 0.751-3.364 1.385-6.104 1.385-5.287 0-8.997-3.329-8.997-10.531 0-6.855 3.371-10.421 8.127-10.421 4.845 0 7.771 3.156 7.684 9.895l-12.699 1.841z" fill="#004990"/><path id="path75" d="m289.47 249.39v-14.503c0-1.878-0.798-3.926-4.243-3.926-1.864 0-2.772 0.263-3.825 0.703v17.726h-3.294v-19.144c1.798-0.867 4.158-1.435 7.386-1.435 5.625 0 7.269 3.111 7.269 6.001v14.577h-3.293" fill="#004990"/><path id="path77" d="m181.15 98.882 8.548-11.987 14.492 5.201c-7.854 2.14-15.284 4.3-23.04 6.786" fill="#ecc402"/><linearGradient id="SVGID_1_" x1="48.464" x2="179.74" y1="130.92" y2="130.92" gradientTransform="translate(.288 -3.437)" gradientUnits="userSpaceOnUse"><stop id="stop80" stop-color="#fff" offset="0"/><stop id="stop82" stop-color="#FCF5E0" offset=".0231"/><stop id="stop84" stop-color="#FAECC5" offset=".049"/><stop id="stop86" stop-color="#F8E5AF" offset=".0788"/><stop id="stop88" stop-color="#F6E09E" offset=".1136"/><stop id="stop90" stop-color="#F5DC93" offset=".1566"/><stop id="stop92" stop-color="#F4DA8C" offset=".217"/><stop id="stop94" stop-color="#F4D98A" offset=".3846"/><stop id="stop96" stop-color="#ECC402" offset=".6703"/><stop id="stop98" stop-color="#ECC402" offset="1"/></linearGradient><path id="path100" d="m48.752 165.32c39.433-32.988 83.688-58.608 131.05-76.177l0.225 10.114c-31.212 10.168-62.338 23.724-90.201 40.83l-3.388-0.695c-12.112 8.189-23.856 17.019-35.198 26.436l-2.487-0.508" fill="url(#SVGID_1_)"/><linearGradient id="SVGID_2_" x1="-.2876" x2="179.44" y1="140.16" y2="140.16" gradientTransform="translate(.288 -3.437)" gradientUnits="userSpaceOnUse"><stop id="stop103" stop-color="#fff" offset="0"/><stop id="stop105" stop-color="#FEFDF9" offset=".065"/><stop id="stop107" stop-color="#FDF7E7" offset=".1535"/><stop id="stop109" stop-color="#FAEECB" offset=".2556"/><stop id="stop111" stop-color="#F6E1A3" offset=".3671"/><stop id="stop113" stop-color="#F4D98A" offset=".4286"/><stop id="stop115" stop-color="#ECC402" offset=".6703"/><stop id="stop117" stop-color="#ECC402" offset="1"/></linearGradient><path id="path119" d="m166.6 79.971 13.068 2.726 0.064 2.498c-38.159 12.243-74.899 29.137-108.36 51.106l-2.857-0.599c-20.36 14.614-39.679 31.007-57.761 49.081-2.863 2.864-5.684 5.76-8.459 8.692l-2.292-0.477c3.069-3.232 6.177-6.448 9.352-9.618 45.589-45.575 99.009-80.461 157.24-103.41" fill="url(#SVGID_2_)"/><linearGradient id="SVGID_3_" x1="15.849" x2="180.28" y1="113.33" y2="113.33" gradientTransform="translate(.288 -3.437)" gradientUnits="userSpaceOnUse"><stop id="stop122" stop-color="#fff" offset="0"/><stop id="stop124" stop-color="#FEFBF1" offset=".0244"/><stop id="stop126" stop-color="#FAEFCC" offset=".1001"/><stop id="stop128" stop-color="#F8E5AF" offset=".1758"/><stop id="stop130" stop-color="#F6DE9B" offset=".2507"/><stop id="stop132" stop-color="#F4DA8E" offset=".3245"/><stop id="stop134" stop-color="#F4D98A" offset=".3956"/><stop id="stop136" stop-color="#ECC402" offset=".7143"/><stop id="stop138" stop-color="#ECC402" offset="1"/></linearGradient><path id="path140" d="m48.528 131.54c40.243-30.71 84.767-54.528 132.04-70.856l-0.666 10.353c-44.958 14.09-87.965 34.587-126.62 61.509l-2.207-0.447c-11.19 8.469-22.042 17.461-32.538 26.986l-2.399-0.5c10.439-9.514 21.237-18.529 32.354-27.02l0.038-0.025" fill="url(#SVGID_3_)"/></svg>
