<svg enable-background="new 0 0 300 276.585" height="289.69492" viewBox="0 0 267.03601 271.589" width="284.83841" xmlns="http://www.w3.org/2000/svg" xmlns:xlink="http://www.w3.org/1999/xlink"><linearGradient id="a" gradientUnits="userSpaceOnUse" x1="48.752401" x2="180.0263" y1="127.4878" y2="127.4878"><stop offset="0" stop-color="#fff"/><stop offset=".0225" stop-color="#fde9e1"/><stop offset=".0484" stop-color="#fbd6c6"/><stop offset=".0783" stop-color="#f9c6b0"/><stop offset=".1131" stop-color="#f8ba9f"/><stop offset=".1562" stop-color="#f7b194"/><stop offset=".2167" stop-color="#f6ac8d"/><stop offset=".3846" stop-color="#f6ab8b"/><stop offset=".6703" stop-color="#dd0035"/><stop offset="1" stop-color="#dd0035"/></linearGradient><linearGradient id="b" gradientUnits="userSpaceOnUse" x1=".0004" x2="179.727" y1="136.7232" y2="136.7232"><stop offset="0" stop-color="#fff"/><stop offset=".0653" stop-color="#fffbf9"/><stop offset=".1544" stop-color="#fdeee7"/><stop offset=".257" stop-color="#fbd9cb"/><stop offset=".369" stop-color="#f8bca3"/><stop offset=".4286" stop-color="#f6ab8b"/><stop offset=".6703" stop-color="#dd0035"/><stop offset="1" stop-color="#dd0035"/></linearGradient><linearGradient id="c" gradientUnits="userSpaceOnUse" x1="16.1366" x2="180.5712" y1="109.8892" y2="109.8892"><stop offset="0" stop-color="#fff"/><stop offset=".0227" stop-color="#fef6f2"/><stop offset=".0988" stop-color="#fbdbcd"/><stop offset=".1748" stop-color="#f9c6b0"/><stop offset=".2501" stop-color="#f7b79c"/><stop offset=".3241" stop-color="#f6ae8f"/><stop offset=".3956" stop-color="#f6ab8b"/><stop offset=".7143" stop-color="#dd0035"/><stop offset="1" stop-color="#dd0035"/></linearGradient><path d="m158.886 0-4.232 10.726c2.539-.735 5.278-1.442 7.602-2.13z" fill="#fff"/><path d="m147.5 26.302c5.429-1.796 13.033-4.219 18.522-5.672l-3.549-8.998c-3.409 1.189-7.327 2.62-10.714 3.875z" fill="#fff"/><path d="m141.035 42.672c9.61-3.416 19.888-6.621 29.834-9.772l-3.802-9.635c-7.224 2.503-14.411 5.197-21.542 8.034z" fill="#fff"/><path d="m138.705 48.569-4.4 11.144c.025-.011.036-.011.058-.029 13.55-5.615 27.502-10.042 41.387-14.423l-3.779-9.563c-10.472 3.638-20.87 7.623-31.149 11.964-.706.309-1.419.62-2.117.907" fill="#fff"/><path d="m102.559 50.739c-7.021 3.578-13.947 7.298-20.779 11.197l3.676 6.045c9.164-4.852 18.718-9.353 28.223-13.665z" fill="#fff"/><path d="m85.08 45.112c-3.391 1.844-6.763 3.703-10.101 5.604l3.68 6.063c5.444-2.9 11.192-5.627 16.763-8.325z" fill="#fff"/><path d="m202.526 203.402c2.803-1.078 5.661-1.905 8.498-2.921l-1.609-9c-5.052 2.012-10.054 4.142-14.995 6.397z" fill="#fff"/><path d="m68.294 39.721 3.904 6.419c1.845-1.028 4.022-2.286 5.891-3.268z" fill="#fff"/><path d="m212.805 210.418-.995-5.585c-1.501.613-2.989 1.215-4.483 1.859z" fill="#fff"/><path d="m104.858 143.201 4.228.863c33.257-18.952 71.796-32.337 108.871-41.886l-6.123-3.801 3.688-6.981.006-.012c-13.584 3.9-38.928 12.201-62.147 23.117-27.783 12.814-51.308 28.116-51.308 28.116-7.774 4.967-15.403 10.202-22.881 15.687l2.623.539c7.533-5.472 15.207-10.693 23.043-15.642" fill="#fff"/><path d="m99.226 90.648c25.997-13.674 53.383-24.298 81.404-33.036l-3.813-9.63c-41.89 14.406-81.657 34.518-118.358 59.981l2.374.76c11.63-8.005 23.556-15.487 35.764-22.404z" fill="#fff"/><path d="m120.846 56.63c-11.478 5.627-32.121 16.708-32.121 16.708l3.657 6.041c13.083-6.884 26.5-13.201 40.223-18.953z" fill="#fff"/><path d="m109.31 174.833c42.896-26.939 90.466-43.512 140.299-53.001l-13.62-8.452c-44.715 11.203-87.101 29.92-125.621 55.498z" fill="#fff"/><path d="m106.077 192.97c33.901-21.601 79.524-47.334 159.999-60.867l-14.034-8.773c-52.191 11.244-101.339 32.94-144.977 64.025z" fill="#fff"/><path d="m220.476 103.747c-37.654 10.661-73.592 26.548-106.904 47.258l-1.159 6.472c37.509-22.104 78.48-36.126 121.002-45.703z" fill="#fff"/><path d="m103.676 206.274-1.088 6.103s47.052-33.817 101.375-51.496l-1.667-9.289c-35.229 13.117-68.416 31.485-98.62 54.682" fill="#fff"/><path d="m207.04 178.138c-8.602 3.348-17.059 7.041-25.362 11.044l7.667 5.229c6.348-2.64 12.813-4.939 19.303-7.211z" fill="#fff"/><path d="m206.316 174.08-1.646-9.221c-12.121 4.604-23.99 9.864-35.559 15.738l7.29 4.982c9.773-4.339 19.781-8.031 29.915-11.499" fill="#fff"/><path d="m205.054 91.862c3.938-1.069 7.887-2.103 11.828-3.073l7.083-13.424s0 0-.011 0l .011-.022c-8.421 2.153-16.765 4.553-25.031 7.209z" fill="#fff"/><path d="m195.796 77.677 1.46 2.246c9.278-2.601 18.614-4.949 28.001-7.027l6.967-13.228c-8.86 2.032-17.628 4.312-26.309 6.867z" fill="#fff"/><path d="m240.272 44.36c-19.655 4.008-38.961 9.25-57.836 15.686l6.574 8.233c14.631-4.283 29.461-7.895 44.392-10.858z" fill="#fff"/><path d="m181.151 98.882 8.548-11.987 14.492 5.201c-7.854 2.14-15.284 4.3-23.04 6.786" fill="#dd0035"/><path d="m48.752 165.323c39.433-32.988 83.688-58.608 131.049-76.177l.225 10.114c-31.212 10.168-62.338 23.724-90.201 40.83l-3.388-.695c-12.112 8.189-23.856 17.019-35.198 26.436z" fill="url(#a)"/><path d="m166.595 79.971 13.068 2.726.064 2.498c-38.159 12.243-74.899 29.137-108.358 51.106l-2.857-.599c-20.36 14.614-39.679 31.007-57.761 49.081-2.863 2.864-5.684 5.76-8.459 8.692l-2.292-.477c3.069-3.232 6.177-6.448 9.352-9.618 45.589-45.575 99.009-80.461 157.243-103.409" fill="url(#b)"/><path d="m48.528 131.545c40.243-30.71 84.767-54.528 132.043-70.856l-.666 10.353c-44.958 14.09-87.965 34.587-126.625 61.509l-2.207-.447c-11.19 8.469-22.042 17.461-32.538 26.986l-2.399-.5c10.439-9.514 21.237-18.529 32.354-27.02z" fill="url(#c)"/><g fill="#fff"><path d="m40.563 263.381v11.425h-2.384v-11.425h-2.37v-1.611h7.147v1.611z" transform="translate(.288 -3.437)"/><path d="m61.188 274.806v-13.036h6.254v1.611h-3.889v3.95h3.449v1.592h-3.449v4.28h3.889v1.603z" transform="translate(.288 -3.437)"/><path d="m85.979 274.806v-13.036h2.372v11.433h3.555v1.603z" transform="translate(.288 -3.437)"/><path d="m110.14 274.806v-13.036h6.254v1.611h-3.876v3.95h3.443v1.592h-3.443v4.28h3.876v1.603z" transform="translate(.288 -3.437)"/><path d="m140.046 271.369h-2.051l-3.861-13.036h2.528l2.082 8.375c.194.771.337 1.653.337 1.653h.036s.157-.883.334-1.653l2.135-8.375h2.26z"/><path d="m161.795 258.33298h2.383v13.043h-2.383z"/><path d="m185.74 271.589c-1.511 0-2.461-.29-3.163-.757l.582-1.692c.445.298 1.175.609 2.148.609 1.265 0 2.046-.791 2.046-2.012 0-.987-.563-1.59-2.003-2.216-2.072-.886-2.653-2.281-2.653-3.553 0-2.056 1.488-3.842 3.859-3.842 1.28 0 2.231.329 2.825.733l-.54 1.489c-.446-.269-1.154-.574-1.964-.574-1.192 0-1.86.734-1.86 1.889 0 1.146.825 1.664 1.95 2.159 2.521 1.074 2.885 2.513 2.885 3.755-.001 2.317-1.71 4.012-4.112 4.012"/><path d="m208.43399 258.33298h2.383v13.043h-2.383z"/><path d="m234.267 259.727c-1.974 0-2.434 2.594-2.434 5.055 0 2.434.382 4.989 2.434 4.989 2.037 0 2.398-2.556 2.398-4.989.001-2.461-.42-5.055-2.398-5.055m0 11.862c-3.458 0-4.85-3.031-4.85-6.728 0-3.714 1.392-6.734 4.85-6.734 3.443 0 4.798 3.021 4.798 6.734 0 3.697-1.354 6.728-4.798 6.728z"/><path d="m264.587 271.369-4.884-8.417c-.431-.733-.749-1.468-.749-1.468h-.036s.063.747.063 1.526v8.358h-1.981v-13.035h2.23l4.604 7.923c.423.733.676 1.323.676 1.323h.042s-.056-.61-.056-1.38v-7.866h1.985v13.036z"/><path d="m43.244 250c-3.407 0-5.644-.603-7.213-1.634l1.485-4.527c.887.604 2.531 1.272 4.434 1.286 2.292 0 3.705-1.32 3.705-3.291 0-1.748-1.05-2.839-3.846-4.067-4.293-1.938-5.488-4.932-5.488-7.612 0-4.648 3.374-8.498 8.723-8.483 2.968 0 5.133.718 6.447 1.599l-1.366 3.973c-.945-.602-2.426-1.189-4.108-1.189-2.165 0-3.331 1.189-3.331 3.138 0 1.997 1.398 3.004 3.719 4.044 5.325 2.411 6.077 5.318 6.077 8.13-.013 4.964-3.802 8.64-9.238 8.633"/><path d="m63.692 232.769c-2.558 0-3.095 3.138-3.095 6.712 0 3.625.56 6.552 3.095 6.56 2.568 0 3.102-2.935 3.102-6.56-.001-3.574-.527-6.712-3.102-6.712m0 17.209c-5.815 0-8.881-4.417-8.852-10.432 0-5.992 3.05-10.388 8.823-10.388 5.861 0 8.887 4.403 8.887 10.403 0 6.016-3.054 10.439-8.858 10.417z"/><path d="m84.103 250c-5.663 0-8.397-2.129-8.397-6.952v-13.51h5.799l-.007 13.911c0 1.459.796 2.622 2.768 2.622 1.042 0 1.761-.124 2.419-.452l.007-16.061h5.822l-.022 18.887c-1.867.922-4.612 1.555-8.389 1.555"/><path d="m103.182 249.934c-4.209 0-6.034-2.724-6.034-5.811v-10.815h-2.193l.015-3.75h2.179v-4.308l5.841-1.48v5.788h3.087v3.75h-3.095v10.379c0 1.541.548 2.339 1.867 2.339.484 0 .719-.065 1.228-.239l-.008 3.59c-.501.223-1.546.557-2.887.557"/><path d="m120.593 249.636.008-13.961c0-1.57-.704-2.841-2.968-2.841-.921 0-1.688.145-2.463.561l-.013 16.241h-5.816l.022-28.562h5.807v9.161c1.341-.604 2.739-.938 4.317-.938 5.036 0 6.939 2.906 6.939 6.268l-.015 14.093z"/><path d="m137.711 232.646c-2.383 0-3.86 2.041-3.69 6.174l7.006-1.037c-.001-3.591-1.173-5.137-3.316-5.137m-3.301 8.999c.407 2.942 1.888 4.388 4.833 4.388 2.343.008 4.135-.484 5.227-1.053l1.29 3.595c-1.555.792-3.795 1.453-7.169 1.453-6.167 0-9.723-4.067-9.702-10.481 0-6.29 3.281-10.35 9.059-10.35 5.826 0 8.757 3.965 8.487 10.728z"/><path d="m158.699 233.378c-1.413-.609-2.905-.552-3.875-.122v16.415l-5.822-.014.015-18.959c2.238-1.097 5.368-1.679 10.754-1.416z"/><path d="m172.817 249.695v-14.063c.015-1.404-.625-2.798-2.976-2.798-1.151 0-1.774.167-2.461.399v16.438h-5.821l.013-18.973c2.009-.885 4.85-1.497 8.419-1.497 6.359 0 8.66 2.724 8.66 6.385l-.022 14.108h-5.812"/><path d="m200.071 250.071c-7.438 0-10.838-6.702-10.838-14.164.008-7.328 3.483-14.156 10.908-14.156 2.668 0 4.588.596 5.941 1.599l-1.314 3.938c-.754-.479-1.722-.851-3.23-.851-4.269 0-5.608 4.708-5.608 9.437 0 4.685 1.555 9.252 5.546 9.252 1.526 0 2.277-.317 3.173-.827l1.46 4.147c-1.38 1.083-3.396 1.625-6.038 1.625"/><path d="m217.701 233.41c-1.412-.583-2.888-.554-3.845-.111l-.022 16.404-5.814-.008v-18.966c2.25-1.082 5.382-1.671 10.768-1.418z"/><path d="m227.855 232.864c-2.562-.008-3.079 3.131-3.079 6.713-.022 3.603.54 6.544 3.063 6.544 2.588 0 3.11-2.941 3.11-6.544.001-3.582-.513-6.713-3.094-6.713m-.015 17.201c-5.802 0-8.852-4.417-8.852-10.425s3.05-10.399 8.843-10.399c5.87 0 8.898 4.406 8.898 10.399-.013 6.008-3.044 10.431-8.889 10.425z"/><path d="m244.281 250.057c-2.448 0-4.635-.64-5.885-1.46l1.5-3.682c.737.603 2.112 1.146 3.578 1.146 1.495 0 2.497-.938 2.497-2.216 0-1.322-.71-2.076-2.572-2.817-3.696-1.452-4.498-3.488-4.498-5.601 0-3.421 2.662-6.169 6.693-6.169 2.493 0 4.225.481 5.786 1.439l-1.398 3.319c-.623-.464-1.769-1.039-3.081-1.039-1.529 0-2.302.923-2.302 2.086 0 1.358.995 2.107 2.563 2.766 3.876 1.65 4.777 3.533 4.777 5.894.001 3.487-2.887 6.334-7.658 6.334"/><path d="m259.385 250.065c-2.462 0-4.658-.647-5.891-1.468l1.481-3.682c.769.603 2.117 1.146 3.599 1.146 1.472 0 2.485-.938 2.485-2.191 0-1.331-.716-2.101-2.582-2.842-3.676-1.438-4.508-3.488-4.508-5.579 0-3.422 2.702-6.19 6.729-6.19 2.489 0 4.207.481 5.782 1.461l-1.434 3.298c-.604-.464-1.744-1.031-3.046-1.031-1.531 0-2.312.945-2.312 2.099 0 1.338 1.009 2.087 2.561 2.76 3.873 1.636 4.787 3.519 4.787 5.879.002 3.5-2.897 6.34-7.651 6.34"/></g></svg>