<svg enable-background="new 0 0 300 276.585" height="286.17203" viewBox="0 0 553.74487 268.28629" width="590.66119" xmlns="http://www.w3.org/2000/svg" xmlns:xlink="http://www.w3.org/1999/xlink"><linearGradient id="a" gradientUnits="userSpaceOnUse" x1="48.752401" x2="180.0263" y1="127.4878" y2="127.4878"><stop offset="0" stop-color="#fff"/><stop offset=".0225" stop-color="#fde9e1"/><stop offset=".0484" stop-color="#fbd6c6"/><stop offset=".0783" stop-color="#f9c6b0"/><stop offset=".1131" stop-color="#f8ba9f"/><stop offset=".1562" stop-color="#f7b194"/><stop offset=".2167" stop-color="#f6ac8d"/><stop offset=".3846" stop-color="#f6ab8b"/><stop offset=".6703" stop-color="#dd0035"/><stop offset="1" stop-color="#dd0035"/></linearGradient><linearGradient id="b" gradientUnits="userSpaceOnUse" x1=".0004" x2="179.727" y1="136.7232" y2="136.7232"><stop offset="0" stop-color="#fff"/><stop offset=".0653" stop-color="#fffbf9"/><stop offset=".1544" stop-color="#fdeee7"/><stop offset=".257" stop-color="#fbd9cb"/><stop offset=".369" stop-color="#f8bca3"/><stop offset=".4286" stop-color="#f6ab8b"/><stop offset=".6703" stop-color="#dd0035"/><stop offset="1" stop-color="#dd0035"/></linearGradient><linearGradient id="c" gradientUnits="userSpaceOnUse" x1="16.1366" x2="180.5712" y1="109.8892" y2="109.8892"><stop offset="0" stop-color="#fff"/><stop offset=".0227" stop-color="#fef6f2"/><stop offset=".0988" stop-color="#fbdbcd"/><stop offset=".1748" stop-color="#f9c6b0"/><stop offset=".2501" stop-color="#f7b79c"/><stop offset=".3241" stop-color="#f6ae8f"/><stop offset=".3956" stop-color="#f6ab8b"/><stop offset=".7143" stop-color="#dd0035"/><stop offset="1" stop-color="#dd0035"/></linearGradient><g fill="#004990"><path d="m158.886 0-4.232 10.726c2.539-.735 5.278-1.442 7.602-2.13z"/><path d="m147.5 26.302c5.429-1.796 13.033-4.219 18.522-5.672l-3.549-8.998c-3.409 1.189-7.327 2.62-10.714 3.875z"/><path d="m141.035 42.672c9.61-3.416 19.888-6.621 29.834-9.772l-3.802-9.635c-7.224 2.503-14.411 5.197-21.542 8.034z"/><path d="m138.705 48.569-4.4 11.144c.025-.011.036-.011.058-.029 13.55-5.615 27.502-10.042 41.387-14.423l-3.779-9.563c-10.472 3.638-20.87 7.623-31.149 11.964-.706.309-1.419.62-2.117.907"/><path d="m102.559 50.739c-7.021 3.578-13.947 7.298-20.779 11.197l3.676 6.045c9.164-4.852 18.718-9.353 28.223-13.665z"/><path d="m85.08 45.112c-3.391 1.844-6.763 3.703-10.101 5.604l3.68 6.063c5.444-2.9 11.192-5.627 16.763-8.325z"/><path d="m202.526 203.402c2.803-1.078 5.661-1.905 8.498-2.921l-1.609-9c-5.052 2.012-10.054 4.142-14.995 6.397z"/><path d="m68.294 39.721 3.904 6.419c1.845-1.028 4.022-2.286 5.891-3.268z"/><path d="m212.805 210.418-.995-5.585c-1.501.613-2.989 1.215-4.483 1.859z"/><path d="m104.858 143.201 4.228.863c33.257-18.952 71.796-32.337 108.871-41.886l-6.123-3.801 3.688-6.981.006-.012c-13.584 3.9-38.928 12.201-62.147 23.117-27.783 12.814-51.308 28.116-51.308 28.116-7.774 4.967-15.403 10.202-22.881 15.687l2.623.539c7.533-5.472 15.207-10.693 23.043-15.642"/><path d="m99.226 90.648c25.997-13.674 53.383-24.298 81.404-33.036l-3.813-9.63c-41.89 14.406-81.657 34.518-118.358 59.981l2.374.76c11.63-8.005 23.556-15.487 35.764-22.404z"/><path d="m120.846 56.63c-11.478 5.627-32.121 16.708-32.121 16.708l3.657 6.041c13.083-6.884 26.5-13.201 40.223-18.953z"/><path d="m109.31 174.833c42.896-26.939 90.466-43.512 140.299-53.001l-13.62-8.452c-44.715 11.203-87.101 29.92-125.621 55.498z"/><path d="m106.077 192.97c33.901-21.601 79.524-47.334 159.999-60.867l-14.034-8.773c-52.191 11.244-101.339 32.94-144.977 64.025z"/><path d="m220.476 103.747c-37.654 10.661-73.592 26.548-106.904 47.258l-1.159 6.472c37.509-22.104 78.48-36.1257 121.002-45.7027z"/><path d="m103.676 206.274-1.088 6.103s47.052-33.817 101.375-51.496l-1.667-9.289c-35.229 13.117-68.416 31.4853-98.62 54.6823"/><path d="m207.04 178.138c-8.602 3.348-17.059 7.041-25.362 11.044l7.667 5.229c6.348-2.64 12.813-4.939 19.303-7.211z"/><path d="m206.316 174.08-1.646-9.221c-12.121 4.604-23.99 9.864-35.559 15.738l7.29 4.982c9.773-4.339 19.781-8.031 29.915-11.499"/><path d="m205.054 91.862c3.938-1.069 7.887-2.103 11.828-3.073l7.083-13.424s0 0-.011 0l .011-.022c-8.421 2.153-16.765 4.553-25.031 7.209z"/><path d="m195.796 77.677 1.46 2.246c9.278-2.601 18.614-4.949 28.001-7.027l6.967-13.228c-8.86 2.032-17.628 4.312-26.309 6.867z"/><path d="m240.272 44.36c-19.655 4.008-38.961 9.25-57.836 15.686l6.574 8.233c14.631-4.283 29.461-7.895 44.392-10.858l6.87-13.06139"/></g><path d="m181.151 98.882 8.548-11.987 14.492 5.201c-7.854 2.14-15.284 4.3-23.04 6.786" fill="#dd0035"/><path d="m48.752 165.323c39.433-32.988 83.688-58.608 131.049-76.177l.225 10.114c-31.212 10.168-62.338 23.724-90.201 40.83l-3.388-.695c-12.112 8.189-23.856 17.019-35.198 26.436z" fill="url(#a)"/><path d="m166.595 79.971 13.068 2.726.064 2.498c-38.159 12.243-74.899 29.137-108.358 51.106l-2.857-.599c-20.36 14.614-39.679 31.007-57.761 49.081-2.863 2.864-5.684 5.76-8.459 8.692l-2.292-.477c3.069-3.232 6.177-6.448 9.352-9.618 45.589-45.575 99.009-80.461 157.243-103.409" fill="url(#b)"/><path d="m48.528 131.545c40.243-30.71 84.767-54.528 132.043-70.856l-.666 10.353c-44.958 14.09-87.965 34.587-126.625 61.509l-2.207-.447c-11.19 8.469-22.042 17.461-32.538 26.986l-2.399-.5c10.439-9.514 21.237-18.529 32.354-27.02z" fill="url(#c)"/><path d="m354.77439 210.38868c11.24748-55.34234 21.77323-110.739999 33.2211-166.027027 30.93731.09679 46.933.01388 77.87031.02776 22.30801-.470173 45.45754 5.254896 63.43753 19.346314 13.31803 10.2747 22.05421 26.385103 23.87091 43.449693 2.57812 23.64702-3.56661 48.80138-18.70133 67.04139-13.34474 16.35932-32.64714 26.35746-52.47054 31.4464-12.26271 3.06996-24.87276 4.42518-37.46944 4.71558h-89.75854m73.43497-123.40707c-5.62374 26.85528-10.94027 53.79354-16.5106 80.66265 11.32769-.0691 22.6687.15212 34.00968-.11063 11.39446-.26275 23.02936-4.30072 31.24457-12.6809 11.78183-12.18306 16.003-31.2113 11.5414-47.68125-2.40447-8.532298-9.29726-15.17006-17.45904-17.645394-13.89239-4.328372-28.57291-1.936012-42.82601-2.544476z" fill="#004990" stroke-width="1.359134"/><path d="m264.0968 44.387159c-5.1837 24.204999-10.2809 48.430074-15.3497 72.661751l10.5505 6.53869 16.6645 10.41687c-11.2527 1.89231-21.912 3.99247-32.0618 6.25489-4.8705 23.37137-9.7267 46.7457-14.5971 70.11657 21.8358.0415 43.6864-.027 65.5224.0421 4.8539-21.96041 9.2788-44.01861 13.8977-66.02051 19.8446-.0278 39.7031.0131 59.5477-.0146-4.0243 22.08487-9.08521 43.99014-13.49661 66.00587 21.8498.0278 43.69901-.0398 65.56271.0293 11.9205-55.27441 23.0382-110.716201 34.9036-165.990607-22.0297 0-44.05822-.123009-66.07412.05676-3.4018 19.263762-8.04848 38.304989-11.78238 57.513437-19.9137-.0415-39.8272-.0139-59.7272 0 3.6785-19.249935 8.2284-38.31926 11.8378-57.583018-21.7944-.04164-43.6035.01402-65.398-.02747z" fill="#004990" stroke-width="1.382897"/><g fill="#004990" transform="matrix(1.62817837258 0 0 1.62817837258 -64.443459048989 -138.87391819908)"><path d="m109.80082 250c-3.407 0-5.644-.603-7.213-1.634l1.485-4.527c.887.604 2.531 1.272 4.434 1.286 2.292 0 3.705-1.32 3.705-3.291 0-1.748-1.05-2.839-3.846-4.067-4.293-1.938-5.488-4.932-5.488-7.612 0-4.648 3.374-8.498 8.723-8.483 2.968 0 5.133.718 6.447 1.599l-1.366 3.973c-.945-.602-2.426-1.189-4.108-1.189-2.165 0-3.331 1.189-3.331 3.138 0 1.997 1.398 3.004 3.719 4.044 5.325 2.411 6.077 5.318 6.077 8.13-.013 4.964-3.802 8.64-9.238 8.633"/><path d="m130.24882 232.769c-2.558 0-3.095 3.138-3.095 6.712 0 3.625.56 6.552 3.095 6.56 2.568 0 3.102-2.935 3.102-6.56-.001-3.574-.527-6.712-3.102-6.712m0 17.209c-5.815 0-8.881-4.417-8.852-10.432 0-5.992 3.05-10.388 8.823-10.388 5.861 0 8.887 4.403 8.887 10.403 0 6.016-3.054 10.439-8.858 10.417z"/><path d="m150.65982 250c-5.663 0-8.397-2.129-8.397-6.952v-13.51h5.799l-.007 13.911c0 1.459.796 2.622 2.768 2.622 1.042 0 1.761-.124 2.419-.452l.007-16.061h5.822l-.022 18.887c-1.867.922-4.612 1.555-8.389 1.555"/><path d="m169.73882 249.934c-4.209 0-6.034-2.724-6.034-5.811v-10.815h-2.193l.015-3.75h2.179v-4.308l5.841-1.48v5.788h3.087v3.75h-3.095v10.379c0 1.541.548 2.339 1.867 2.339.484 0 .719-.065 1.228-.239l-.008 3.59c-.501.223-1.546.557-2.887.557"/><path d="m187.14982 249.636.008-13.961c0-1.57-.704-2.841-2.968-2.841-.921 0-1.688.145-2.463.561l-.013 16.241h-5.816l.022-28.562h5.807v9.161c1.341-.604 2.739-.938 4.317-.938 5.036 0 6.939 2.906 6.939 6.268l-.015 14.093z"/><path d="m204.26782 232.646c-2.383 0-3.86 2.041-3.69 6.174l7.006-1.037c-.001-3.591-1.173-5.137-3.316-5.137m-3.301 8.999c.407 2.942 1.888 4.388 4.833 4.388 2.343.008 4.135-.484 5.227-1.053l1.29 3.595c-1.555.792-3.795 1.453-7.169 1.453-6.167 0-9.723-4.067-9.702-10.481 0-6.29 3.281-10.35 9.059-10.35 5.826 0 8.757 3.965 8.487 10.728z"/><path d="m225.25582 233.378c-1.413-.609-2.905-.552-3.875-.122v16.415l-5.822-.014.015-18.959c2.238-1.097 5.368-1.679 10.754-1.416z"/><path d="m239.37382 249.695v-14.063c.015-1.404-.625-2.798-2.976-2.798-1.151 0-1.774.167-2.461.399v16.438h-5.821l.013-18.973c2.009-.885 4.85-1.497 8.419-1.497 6.359 0 8.66 2.724 8.66 6.385l-.022 14.108h-5.812"/><path d="m266.62782 250.071c-7.438 0-10.838-6.702-10.838-14.164.008-7.328 3.483-14.156 10.908-14.156 2.668 0 4.588.596 5.941 1.599l-1.314 3.938c-.754-.479-1.722-.851-3.23-.851-4.269 0-5.608 4.708-5.608 9.437 0 4.685 1.555 9.252 5.546 9.252 1.526 0 2.277-.317 3.173-.827l1.46 4.147c-1.38 1.083-3.396 1.625-6.038 1.625"/><path d="m284.25782 233.41c-1.412-.583-2.888-.554-3.845-.111l-.022 16.404-5.814-.008v-18.966c2.25-1.082 5.382-1.671 10.768-1.418z"/><path d="m294.41182 232.864c-2.562-.008-3.079 3.131-3.079 6.713-.022 3.603.54 6.544 3.063 6.544 2.588 0 3.11-2.941 3.11-6.544.001-3.582-.513-6.713-3.094-6.713m-.015 17.201c-5.802 0-8.852-4.417-8.852-10.425s3.05-10.399 8.843-10.399c5.87 0 8.898 4.406 8.898 10.399-.013 6.008-3.044 10.431-8.889 10.425z"/><path d="m310.83782 250.057c-2.448 0-4.635-.64-5.885-1.46l1.5-3.682c.737.603 2.112 1.146 3.578 1.146 1.495 0 2.497-.938 2.497-2.216 0-1.322-.71-2.076-2.572-2.817-3.696-1.452-4.498-3.488-4.498-5.601 0-3.421 2.662-6.169 6.693-6.169 2.493 0 4.225.481 5.786 1.439l-1.398 3.319c-.623-.464-1.769-1.039-3.081-1.039-1.529 0-2.302.923-2.302 2.086 0 1.358.995 2.107 2.563 2.766 3.876 1.65 4.777 3.533 4.777 5.894.001 3.487-2.887 6.334-7.658 6.334"/><path d="m325.94182 250.065c-2.462 0-4.658-.647-5.891-1.468l1.481-3.682c.769.603 2.117 1.146 3.599 1.146 1.472 0 2.485-.938 2.485-2.191 0-1.331-.716-2.101-2.582-2.842-3.676-1.438-4.508-3.488-4.508-5.579 0-3.422 2.702-6.19 6.729-6.19 2.489 0 4.207.481 5.782 1.461l-1.434 3.298c-.604-.464-1.744-1.031-3.046-1.031-1.531 0-2.312.945-2.312 2.099 0 1.338 1.009 2.087 2.561 2.76 3.873 1.636 4.787 3.519 4.787 5.879.002 3.5-2.897 6.34-7.651 6.34"/></g><g transform="matrix(1.057539 0 0 1.057539 -6.807551822819 -4.911198589683)"><path d="m486.32 240.98744c-1.52474 0-2.7702.49819-3.73637 1.49454-.95107.98126-1.62287 2.46072-2.01537 4.43836-.39251 1.97764-.30948 3.46462.24909 4.46099.57366.98126 1.62286 1.4719 3.14761 1.4719 1.53983 0 2.78529-.49064 3.73636-1.4719.96617-.99637 1.64551-2.48335 2.03803-4.46099.3925-1.97764.30192-3.4571-.27175-4.43836-.55856-.99635-1.60777-1.49454-3.1476-1.49454zm9.03522-11.48085c-1.20772-.33211-2.41543-.49818-3.62315-.49818-2.59659 0-4.76293.72464-6.49901 2.17389-1.7361 1.43416-3.01174 3.57031-3.82695 6.40844 1.14733-.73973 2.33994-1.29075 3.57785-1.65306 1.23791-.37742 2.54376-.56612 3.91753-.56612 3.45708 0 6.03858 1.01147 7.74447 3.03439 1.72099 2.02293 2.25691 4.67234 1.60777 7.94826-.72462 3.62314-2.49091 6.5292-5.29885 8.7182-2.80793 2.17389-6.20463 3.26083-10.19009 3.26083-4.39306 0-7.49538-1.47945-9.30695-4.43835-1.81157-2.97401-2.17388-7.18591-1.08694-12.63572 1.11713-5.58568 3.40425-9.97119 6.86133-13.15653 3.45708-3.20045 7.63879-4.80068 12.54513-4.80068 1.24488 0 2.44136.0775 3.58947.23223z" fill="#004990"/><path d="m520.4834 240.73834q1.2681-6.3405.58876-8.92199-.67934-2.60414-3.48728-2.60414-2.80792 0-4.52892 2.60414-1.69835 2.58149-2.96645 8.92199-1.29074 6.40844-.61141 9.03521.67933 2.62679 3.48728 2.62679 2.78529 0 4.50629-2.62679 1.72099-2.62677 3.01173-9.03521zm8.69555.0679q-1.6757 8.40116-6.22728 12.97538-4.52892 4.55158-11.18646 4.55158-6.68018 0-9.39753-4.55158-2.69472-4.57422-1.01901-12.97539 1.67571-8.42381 6.20464-12.97538 4.55157-4.57422 11.23175-4.57422 6.65752 0 9.35222 4.57422 2.71737 4.55157 1.04167 12.97538z" fill="#004990"/></g></svg>