<?xml version="1.0" encoding="UTF-8" standalone="no"?>
<!-- Generator: Adobe Illustrator 13.0.0, SVG Export Plug-In . SVG Version: 6.00 Build 14948)  -->

<svg
   xmlns:dc="http://purl.org/dc/elements/1.1/"
   xmlns:cc="http://creativecommons.org/ns#"
   xmlns:rdf="http://www.w3.org/1999/02/22-rdf-syntax-ns#"
   xmlns:svg="http://www.w3.org/2000/svg"
   xmlns="http://www.w3.org/2000/svg"
   xmlns:sodipodi="http://sodipodi.sourceforge.net/DTD/sodipodi-0.dtd"
   xmlns:inkscape="http://www.inkscape.org/namespaces/inkscape"
   version="1.0"
   id="Layer_1"
   x="0px"
   y="0px"
   width="316"
   height="333.92429"
   viewBox="0 0 296.25 313.05403"
   enable-background="new 0 0 300 276.585"
   xml:space="preserve"
   inkscape:version="0.92.0 r15299"
   sodipodi:docname="Southern Cross GTS BKN.svg"><metadata
     id="metadata160"><rdf:RDF><cc:Work
         rdf:about=""><dc:format>image/svg+xml</dc:format><dc:type
           rdf:resource="http://purl.org/dc/dcmitype/StillImage" /><dc:title></dc:title></cc:Work></rdf:RDF></metadata><defs
     id="defs158" /><sodipodi:namedview
     pagecolor="#ffffff"
     bordercolor="#666666"
     borderopacity="1"
     objecttolerance="10"
     gridtolerance="10"
     guidetolerance="10"
     inkscape:pageopacity="0"
     inkscape:pageshadow="2"
     inkscape:window-width="1920"
     inkscape:window-height="1017"
     id="namedview156"
     showgrid="false"
     fit-margin-top="0"
     fit-margin-left="0"
     fit-margin-right="0"
     fit-margin-bottom="0"
     inkscape:zoom="1.7065279"
     inkscape:cx="102.64332"
     inkscape:cy="157.17795"
     inkscape:window-x="-8"
     inkscape:window-y="-8"
     inkscape:window-maximized="1"
     inkscape:current-layer="Layer_1" /><g
     id="g987"
     transform="scale(1.109401)"
     style="fill:#ffffff;fill-opacity:1"><path
       style="fill:#ffffff;fill-opacity:1"
       inkscape:connector-curvature="0"
       id="path3"
       d="m 158.886,0 -4.232,10.726 c 2.539,-0.735 5.278,-1.442 7.602,-2.13 L 158.886,0" /><path
       style="fill:#ffffff;fill-opacity:1"
       inkscape:connector-curvature="0"
       id="path5"
       d="m 147.5,26.302 c 5.429,-1.796 13.033,-4.219 18.522,-5.672 l -3.549,-8.998 c -3.409,1.189 -7.327,2.62 -10.714,3.875 L 147.5,26.302" /><path
       style="fill:#ffffff;fill-opacity:1"
       inkscape:connector-curvature="0"
       id="path7"
       d="m 141.035,42.672 c 9.61,-3.416 19.888,-6.621 29.834,-9.772 l -3.802,-9.635 c -7.224,2.503 -14.411,5.197 -21.542,8.034 l -4.49,11.373" /><path
       style="fill:#ffffff;fill-opacity:1"
       inkscape:connector-curvature="0"
       id="path9"
       d="m 138.705,48.569 -4.4,11.144 c 0.025,-0.011 0.036,-0.011 0.058,-0.029 13.55,-5.615 27.502,-10.042 41.387,-14.423 l -3.779,-9.563 c -10.472,3.638 -20.87,7.623 -31.149,11.964 -0.706,0.309 -1.419,0.62 -2.117,0.907" /><path
       style="fill:#ffffff;fill-opacity:1"
       inkscape:connector-curvature="0"
       id="path11"
       d="M 102.559,50.739 C 95.538,54.317 88.612,58.037 81.78,61.936 l 3.676,6.045 c 9.164,-4.852 18.718,-9.353 28.223,-13.665 l -11.12,-3.577" /><path
       style="fill:#ffffff;fill-opacity:1"
       inkscape:connector-curvature="0"
       id="path13"
       d="m 85.08,45.112 c -3.391,1.844 -6.763,3.703 -10.101,5.604 l 3.68,6.063 c 5.444,-2.9 11.192,-5.627 16.763,-8.325 L 85.08,45.112" /><path
       style="fill:#ffffff;fill-opacity:1"
       inkscape:connector-curvature="0"
       id="path15"
       d="m 202.526,203.402 c 2.803,-1.078 5.661,-1.905 8.498,-2.921 l -1.609,-9 c -5.052,2.012 -10.054,4.142 -14.995,6.397 l 8.106,5.524" /><path
       style="fill:#ffffff;fill-opacity:1"
       inkscape:connector-curvature="0"
       id="path17"
       d="m 68.294,39.721 3.904,6.419 c 1.845,-1.028 4.022,-2.286 5.891,-3.268 l -9.795,-3.151" /><path
       style="fill:#ffffff;fill-opacity:1"
       inkscape:connector-curvature="0"
       id="path19"
       d="m 212.805,210.418 -0.995,-5.585 c -1.501,0.613 -2.989,1.215 -4.483,1.859 l 5.478,3.726" /><path
       style="fill:#ffffff;fill-opacity:1"
       inkscape:connector-curvature="0"
       id="path21"
       d="m 104.858,143.201 4.228,0.863 c 33.257,-18.952 71.796,-32.337 108.871,-41.886 l -6.123,-3.801 3.688,-6.981 0.006,-0.012 c -13.584,3.9 -38.928,12.201 -62.147,23.117 -27.783,12.814 -51.308,28.116 -51.308,28.116 -7.774,4.967 -15.403,10.202 -22.881,15.687 l 2.623,0.539 c 7.533,-5.472 15.207,-10.693 23.043,-15.642" /><path
       style="fill:#ffffff;fill-opacity:1"
       inkscape:connector-curvature="0"
       id="path23"
       d="M 99.226,90.648 C 125.223,76.974 152.609,66.35 180.63,57.612 l -3.813,-9.63 C 134.927,62.388 95.16,82.5 58.459,107.963 l 2.374,0.76 c 11.63,-8.005 23.556,-15.487 35.764,-22.404 l 2.629,4.329" /><path
       style="fill:#ffffff;fill-opacity:1"
       inkscape:connector-curvature="0"
       id="path25"
       d="M 120.846,56.63 C 109.368,62.257 88.725,73.338 88.725,73.338 l 3.657,6.041 c 13.083,-6.884 26.5,-13.201 40.223,-18.953 L 120.846,56.63" /><path
       style="fill:#ffffff;fill-opacity:1"
       inkscape:connector-curvature="0"
       id="path27"
       d="m 109.31,174.833 c 42.896,-26.939 90.466,-43.512 140.299,-53.001 l -13.62,-8.452 c -44.715,11.203 -87.101,29.92 -125.621,55.498 l -1.058,5.955" /><path
       style="fill:#ffffff;fill-opacity:1"
       inkscape:connector-curvature="0"
       id="path29"
       d="m 106.077,192.97 c 33.901,-21.601 79.524,-47.334 159.999,-60.867 l -14.034,-8.773 c -52.191,11.244 -101.339,32.94 -144.977,64.025 l -0.988,5.615" /><path
       style="fill:#ffffff;fill-opacity:1"
       inkscape:connector-curvature="0"
       id="path31"
       d="m 220.476,103.747 c -37.654,10.661 -73.592,26.548 -106.904,47.258 l -1.159,6.472 c 37.509,-22.104 78.48,-36.126 121.002,-45.703 l -12.939,-8.027" /><path
       style="fill:#ffffff;fill-opacity:1"
       inkscape:connector-curvature="0"
       id="path33"
       d="m 103.676,206.274 -1.088,6.103 c 0,0 47.052,-33.817 101.375,-51.496 l -1.667,-9.289 c -35.229,13.117 -68.416,31.485 -98.62,54.682" /><path
       style="fill:#ffffff;fill-opacity:1"
       inkscape:connector-curvature="0"
       id="path35"
       d="m 207.04,178.138 c -8.602,3.348 -17.059,7.041 -25.362,11.044 l 7.667,5.229 c 6.348,-2.64 12.813,-4.939 19.303,-7.211 l -1.608,-9.062" /><path
       style="fill:#ffffff;fill-opacity:1"
       inkscape:connector-curvature="0"
       id="path37"
       d="m 206.316,174.08 -1.646,-9.221 c -12.121,4.604 -23.99,9.864 -35.559,15.738 l 7.29,4.982 c 9.773,-4.339 19.781,-8.031 29.915,-11.499" /><path
       style="fill:#ffffff;fill-opacity:1"
       inkscape:connector-curvature="0"
       id="path39"
       d="m 205.054,91.862 c 3.938,-1.069 7.887,-2.103 11.828,-3.073 l 7.083,-13.424 c 0,0 0,0 -0.011,0 l 0.011,-0.022 c -8.421,2.153 -16.765,4.553 -25.031,7.209 l 6.12,9.31" /><path
       style="fill:#ffffff;fill-opacity:1"
       inkscape:connector-curvature="0"
       id="path41"
       d="m 195.796,77.677 1.46,2.246 c 9.278,-2.601 18.614,-4.949 28.001,-7.027 l 6.967,-13.228 c -8.86,2.032 -17.628,4.312 -26.309,6.867 l -10.119,11.142" /><path
       style="fill:#ffffff;fill-opacity:1"
       inkscape:connector-curvature="0"
       id="path43"
       d="m 240.272,44.36 c -19.655,4.008 -38.961,9.25 -57.836,15.686 l 6.574,8.233 c 14.631,-4.283 29.461,-7.895 44.392,-10.858 l 6.87,-13.061" /></g><linearGradient
     id="SVGID_1_"
     gradientUnits="userSpaceOnUse"
     x1="48.464401"
     y1="130.9248"
     x2="179.7383"
     y2="130.9248"
     gradientTransform="translate(0.288,-3.437)"><stop
       offset="0"
       style="stop-color:#FFFFFF"
       id="stop48" /><stop
       offset="0.0225"
       style="stop-color:#FDE9E1"
       id="stop50" /><stop
       offset="0.0484"
       style="stop-color:#FBD6C6"
       id="stop52" /><stop
       offset="0.0783"
       style="stop-color:#F9C6B0"
       id="stop54" /><stop
       offset="0.1131"
       style="stop-color:#F8BA9F"
       id="stop56" /><stop
       offset="0.1562"
       style="stop-color:#F7B194"
       id="stop58" /><stop
       offset="0.2167"
       style="stop-color:#F6AC8D"
       id="stop60" /><stop
       offset="0.3846"
       style="stop-color:#F6AB8B"
       id="stop62" /><stop
       offset="0.6703"
       style="stop-color:#DD0035"
       id="stop64" /><stop
       offset="1"
       style="stop-color:#DD0035"
       id="stop66" /></linearGradient><linearGradient
     id="SVGID_2_"
     gradientUnits="userSpaceOnUse"
     x1="-0.28760001"
     y1="140.1602"
     x2="179.439"
     y2="140.1602"
     gradientTransform="translate(0.288,-3.437)"><stop
       offset="0"
       style="stop-color:#FFFFFF"
       id="stop71" /><stop
       offset="0.0653"
       style="stop-color:#FFFBF9"
       id="stop73" /><stop
       offset="0.1544"
       style="stop-color:#FDEEE7"
       id="stop75" /><stop
       offset="0.257"
       style="stop-color:#FBD9CB"
       id="stop77" /><stop
       offset="0.369"
       style="stop-color:#F8BCA3"
       id="stop79" /><stop
       offset="0.4286"
       style="stop-color:#F6AB8B"
       id="stop81" /><stop
       offset="0.6703"
       style="stop-color:#DD0035"
       id="stop83" /><stop
       offset="1"
       style="stop-color:#DD0035"
       id="stop85" /></linearGradient><linearGradient
     id="SVGID_3_"
     gradientUnits="userSpaceOnUse"
     x1="15.8486"
     y1="113.3262"
     x2="180.2832"
     y2="113.3262"
     gradientTransform="translate(0.288,-3.437)"><stop
       offset="0"
       style="stop-color:#FFFFFF"
       id="stop90" /><stop
       offset="0.0227"
       style="stop-color:#FEF6F2"
       id="stop92" /><stop
       offset="0.0988"
       style="stop-color:#FBDBCD"
       id="stop94" /><stop
       offset="0.1748"
       style="stop-color:#F9C6B0"
       id="stop96" /><stop
       offset="0.2501"
       style="stop-color:#F7B79C"
       id="stop98" /><stop
       offset="0.3241"
       style="stop-color:#F6AE8F"
       id="stop100" /><stop
       offset="0.3956"
       style="stop-color:#F6AB8B"
       id="stop102" /><stop
       offset="0.7143"
       style="stop-color:#DD0035"
       id="stop104" /><stop
       offset="1"
       style="stop-color:#DD0035"
       id="stop106" /></linearGradient><g
     id="g964"
     transform="scale(1.109401)"><path
       style="fill:#dd0035"
       inkscape:connector-curvature="0"
       id="path45"
       d="m 181.151,98.882 8.548,-11.987 14.492,5.201 c -7.854,2.14 -15.284,4.3 -23.04,6.786" /><path
       style="fill:url(#SVGID_1_)"
       inkscape:connector-curvature="0"
       id="path68"
       d="M 48.752,165.323 C 88.185,132.335 132.44,106.715 179.801,89.146 l 0.225,10.114 c -31.212,10.168 -62.338,23.724 -90.201,40.83 l -3.388,-0.695 c -12.112,8.189 -23.856,17.019 -35.198,26.436 l -2.487,-0.508" /><path
       style="fill:url(#SVGID_2_)"
       inkscape:connector-curvature="0"
       id="path87"
       d="m 166.595,79.971 13.068,2.726 0.064,2.498 c -38.159,12.243 -74.899,29.137 -108.358,51.106 l -2.857,-0.599 c -20.36,14.614 -39.679,31.007 -57.761,49.081 -2.863,2.864 -5.684,5.76 -8.459,8.692 L 0,192.998 c 3.069,-3.232 6.177,-6.448 9.352,-9.618 45.589,-45.575 99.009,-80.461 157.243,-103.409" /><path
       style="fill:url(#SVGID_3_)"
       inkscape:connector-curvature="0"
       id="path108"
       d="m 48.528,131.545 c 40.243,-30.71 84.767,-54.528 132.043,-70.856 l -0.666,10.353 C 134.947,85.132 91.94,105.629 53.28,132.551 l -2.207,-0.447 c -11.19,8.469 -22.042,17.461 -32.538,26.986 l -2.399,-0.5 c 10.439,-9.514 21.237,-18.529 32.354,-27.02 l 0.038,-0.025" /></g><g
     id="g1002"
     transform="scale(1.109401)"
     style="fill:#ffffff;fill-opacity:1"><path
       style="fill:#ffffff;fill-opacity:1"
       inkscape:connector-curvature="0"
       id="path130"
       d="m 43.244,250 c -3.407,0 -5.644,-0.603 -7.213,-1.634 l 1.485,-4.527 c 0.887,0.604 2.531,1.272 4.434,1.286 2.292,0 3.705,-1.32 3.705,-3.291 0,-1.748 -1.05,-2.839 -3.846,-4.067 -4.293,-1.938 -5.488,-4.932 -5.488,-7.612 0,-4.648 3.374,-8.498 8.723,-8.483 2.968,0 5.133,0.718 6.447,1.599 l -1.366,3.973 c -0.945,-0.602 -2.426,-1.189 -4.108,-1.189 -2.165,0 -3.331,1.189 -3.331,3.138 0,1.997 1.398,3.004 3.719,4.044 5.325,2.411 6.077,5.318 6.077,8.13 -0.013,4.964 -3.802,8.64 -9.238,8.633" /><path
       style="fill:#ffffff;fill-opacity:1"
       inkscape:connector-curvature="0"
       id="path132"
       d="m 63.692,232.769 c -2.558,0 -3.095,3.138 -3.095,6.712 0,3.625 0.56,6.552 3.095,6.56 2.568,0 3.102,-2.935 3.102,-6.56 -10e-4,-3.574 -0.527,-6.712 -3.102,-6.712 m 0,17.209 c -5.815,0 -8.881,-4.417 -8.852,-10.432 0,-5.992 3.05,-10.388 8.823,-10.388 5.861,0 8.887,4.403 8.887,10.403 0,6.016 -3.054,10.439 -8.858,10.417 z" /><path
       style="fill:#ffffff;fill-opacity:1"
       inkscape:connector-curvature="0"
       id="path134"
       d="m 84.103,250 c -5.663,0 -8.397,-2.129 -8.397,-6.952 v -13.51 h 5.799 l -0.007,13.911 c 0,1.459 0.796,2.622 2.768,2.622 1.042,0 1.761,-0.124 2.419,-0.452 l 0.007,-16.061 h 5.822 l -0.022,18.887 C 90.625,249.367 87.88,250 84.103,250" /><path
       style="fill:#ffffff;fill-opacity:1"
       inkscape:connector-curvature="0"
       id="path136"
       d="m 103.182,249.934 c -4.209,0 -6.034,-2.724 -6.034,-5.811 v -10.815 h -2.193 l 0.015,-3.75 h 2.179 v -4.308 l 5.841,-1.48 v 5.788 h 3.087 v 3.75 h -3.095 v 10.379 c 0,1.541 0.548,2.339 1.867,2.339 0.484,0 0.719,-0.065 1.228,-0.239 l -0.008,3.59 c -0.501,0.223 -1.546,0.557 -2.887,0.557" /><path
       style="fill:#ffffff;fill-opacity:1"
       inkscape:connector-curvature="0"
       id="path138"
       d="m 120.593,249.636 0.008,-13.961 c 0,-1.57 -0.704,-2.841 -2.968,-2.841 -0.921,0 -1.688,0.145 -2.463,0.561 l -0.013,16.241 h -5.816 l 0.022,-28.562 h 5.807 v 9.161 c 1.341,-0.604 2.739,-0.938 4.317,-0.938 5.036,0 6.939,2.906 6.939,6.268 l -0.015,14.093 -5.818,-0.022" /><path
       style="fill:#ffffff;fill-opacity:1"
       inkscape:connector-curvature="0"
       id="path140"
       d="m 137.711,232.646 c -2.383,0 -3.86,2.041 -3.69,6.174 l 7.006,-1.037 c -10e-4,-3.591 -1.173,-5.137 -3.316,-5.137 m -3.301,8.999 c 0.407,2.942 1.888,4.388 4.833,4.388 2.343,0.008 4.135,-0.484 5.227,-1.053 l 1.29,3.595 c -1.555,0.792 -3.795,1.453 -7.169,1.453 -6.167,0 -9.723,-4.067 -9.702,-10.481 0,-6.29 3.281,-10.35 9.059,-10.35 5.826,0 8.757,3.965 8.487,10.728 z" /><path
       style="fill:#ffffff;fill-opacity:1"
       inkscape:connector-curvature="0"
       id="path142"
       d="m 158.699,233.378 c -1.413,-0.609 -2.905,-0.552 -3.875,-0.122 v 16.415 l -5.822,-0.014 0.015,-18.959 c 2.238,-1.097 5.368,-1.679 10.754,-1.416 l -1.072,4.096" /><path
       style="fill:#ffffff;fill-opacity:1"
       inkscape:connector-curvature="0"
       id="path144"
       d="m 172.817,249.695 v -14.063 c 0.015,-1.404 -0.625,-2.798 -2.976,-2.798 -1.151,0 -1.774,0.167 -2.461,0.399 v 16.438 h -5.821 l 0.013,-18.973 c 2.009,-0.885 4.85,-1.497 8.419,-1.497 6.359,0 8.66,2.724 8.66,6.385 l -0.022,14.108 h -5.812" /><path
       style="fill:#ffffff;fill-opacity:1"
       inkscape:connector-curvature="0"
       id="path146"
       d="m 200.071,250.071 c -7.438,0 -10.838,-6.702 -10.838,-14.164 0.008,-7.328 3.483,-14.156 10.908,-14.156 2.668,0 4.588,0.596 5.941,1.599 l -1.314,3.938 c -0.754,-0.479 -1.722,-0.851 -3.23,-0.851 -4.269,0 -5.608,4.708 -5.608,9.437 0,4.685 1.555,9.252 5.546,9.252 1.526,0 2.277,-0.317 3.173,-0.827 l 1.46,4.147 c -1.38,1.083 -3.396,1.625 -6.038,1.625" /><path
       style="fill:#ffffff;fill-opacity:1"
       inkscape:connector-curvature="0"
       id="path148"
       d="m 217.701,233.41 c -1.412,-0.583 -2.888,-0.554 -3.845,-0.111 l -0.022,16.404 -5.814,-0.008 v -18.966 c 2.25,-1.082 5.382,-1.671 10.768,-1.418 l -1.087,4.099" /><path
       style="fill:#ffffff;fill-opacity:1"
       inkscape:connector-curvature="0"
       id="path150"
       d="m 227.855,232.864 c -2.562,-0.008 -3.079,3.131 -3.079,6.713 -0.022,3.603 0.54,6.544 3.063,6.544 2.588,0 3.11,-2.941 3.11,-6.544 10e-4,-3.582 -0.513,-6.713 -3.094,-6.713 m -0.015,17.201 c -5.802,0 -8.852,-4.417 -8.852,-10.425 0,-6.008 3.05,-10.399 8.843,-10.399 5.87,0 8.898,4.406 8.898,10.399 -0.013,6.008 -3.044,10.431 -8.889,10.425 z" /><path
       style="fill:#ffffff;fill-opacity:1"
       inkscape:connector-curvature="0"
       id="path152"
       d="m 244.281,250.057 c -2.448,0 -4.635,-0.64 -5.885,-1.46 l 1.5,-3.682 c 0.737,0.603 2.112,1.146 3.578,1.146 1.495,0 2.497,-0.938 2.497,-2.216 0,-1.322 -0.71,-2.076 -2.572,-2.817 -3.696,-1.452 -4.498,-3.488 -4.498,-5.601 0,-3.421 2.662,-6.169 6.693,-6.169 2.493,0 4.225,0.481 5.786,1.439 l -1.398,3.319 c -0.623,-0.464 -1.769,-1.039 -3.081,-1.039 -1.529,0 -2.302,0.923 -2.302,2.086 0,1.358 0.995,2.107 2.563,2.766 3.876,1.65 4.777,3.533 4.777,5.894 0.001,3.487 -2.887,6.334 -7.658,6.334" /><path
       style="fill:#ffffff;fill-opacity:1"
       inkscape:connector-curvature="0"
       id="path154"
       d="m 259.385,250.065 c -2.462,0 -4.658,-0.647 -5.891,-1.468 l 1.481,-3.682 c 0.769,0.603 2.117,1.146 3.599,1.146 1.472,0 2.485,-0.938 2.485,-2.191 0,-1.331 -0.716,-2.101 -2.582,-2.842 -3.676,-1.438 -4.508,-3.488 -4.508,-5.579 0,-3.422 2.702,-6.19 6.729,-6.19 2.489,0 4.207,0.481 5.782,1.461 l -1.434,3.298 c -0.604,-0.464 -1.744,-1.031 -3.046,-1.031 -1.531,0 -2.312,0.945 -2.312,2.099 0,1.338 1.009,2.087 2.561,2.76 3.873,1.636 4.787,3.519 4.787,5.879 0.002,3.5 -2.897,6.34 -7.651,6.34" /></g><g
     transform="matrix(0.09420045,0,0,0.09420045,108.73289,280.29768)"
     id="g4516"
     style="fill:#ffffff;fill-opacity:1"><g
       style="fill:#ffffff;fill-opacity:1"
       id="#000000ff"><path
         sodipodi:nodetypes="ccccccccccccccccccccccccccccc"
         inkscape:connector-curvature="0"
         style="opacity:1;fill:#ffffff;fill-opacity:1"
         id="path9-4"
         d="m 67.58,72.41 c 11.97,-8.67 26.71,-12.92 41.4,-13.2 16.35,-0.64 33.55,1.9 47.23,11.46 12.76,8.58 21.27,22.39 25.41,37 2.37,6.76 3.84,13.77 5.59,20.7 l -33.86,8.49 c -2.65,-9.93 -4.38,-20.35 -9.63,-29.34 -4.76,-8.33 -12.82,-15.37 -22.57,-16.74 -10.69,-1.63 -22.65,-0.2 -31.14,7.04 -11.07,9.14 -16.06,23.39 -18.85,37.03 -3.17,18.19 -3.82,36.74 -3.14,55.16 0.96,16.45 2.22,33.39 9.33,48.52 4.02,8.37 9.9,16.24 18.05,20.94 8.62,4.61 18.9,5.2 28.37,3.4 12.76,-2.43 22.01,-13.81 25.43,-25.84 3.61,-10.61 3.92,-21.93 4.2,-33.03 h -40.65 v -30 h 75.37 v 118.5 l -19.86,-0.02 -4.76,-28.95 c -5.56,9.73 -12.99,18.76 -23.07,24.03 -14.09,7.85 -30.97,8.56 -46.57,6.01 C 80.55,291.64 68.34,284.76 58.9,275.31 45.98,262.74 38.22,245.81 33.61,228.6 26.64,200.62 26.37,171.28 30.55,142.84 32.56,131.53 35.34,120.3 39.8,109.69 45.22,94.97 54.67,81.48 67.58,72.41 Z" /><path
         sodipodi:nodetypes="cccccccccccccccccccccccccccc"
         inkscape:connector-curvature="0"
         style="opacity:1;fill:#ffffff;fill-opacity:1"
         id="path11-9"
         d="m 401.11,63.83 c 12.96,-4.77 27.1,-5.46 40.74,-4.08 15.57,1.42 30.52,8.8 41.06,20.35 8.82,9.45 13.62,21.7 17.33,33.89 l -32.04,11.26 c -3.62,-9.72 -8.04,-19.57 -15.55,-26.94 -7.27,-7.04 -18.01,-8.32 -27.68,-8.06 -10.3,0.12 -20.29,6.32 -24.96,15.48 -3.54,7.44 -4.35,16.48 -0.94,24.11 3.67,7.36 10.58,12.39 17.69,16.12 17.88,8.62 37.16,14.11 54.65,23.58 15.17,8.47 28.17,22.19 32.62,39.32 3.11,12.9 2.62,26.7 -1.63,39.29 -5.14,16.32 -17.27,30.17 -32.56,37.77 -16.98,8.99 -36.94,10.27 -55.7,7.95 -19,-1.97 -37.07,-12.16 -48.42,-27.53 -7.89,-10.16 -11.7,-22.63 -15,-34.87 l 33.46,-9.63 c 2.12,6.95 3.56,14.26 7.39,20.54 6.22,11.17 17.8,19.45 30.6,20.89 10.48,1.18 21.91,0.86 31.06,-5.04 6.57,-3.79 11.12,-10.51 12.94,-17.8 2.11,-8.11 2,-17.46 -2.9,-24.59 -4.44,-7 -11.49,-11.86 -18.86,-15.36 -16.9,-7.7 -34.97,-12.72 -51.28,-21.73 -15.24,-8.47 -27.18,-23.16 -31.42,-40.17 -3.6,-15.87 -1.41,-33.1 6.54,-47.34 7.16,-12.76 19.2,-22.39 32.86,-27.41 z" /><path
         sodipodi:nodetypes="ccccccccc"
         inkscape:connector-curvature="0"
         style="opacity:1;fill:#ffffff;fill-opacity:1"
         id="path13-8"
         d="m 205.62,63 h 138.5 v 31.75 h -50.74 v 195.99 l -37.63,0.01 -0.02,-196.01 h -50.11 z" /><path
         sodipodi:nodetypes="ccccc"
         inkscape:connector-curvature="0"
         style="opacity:1;fill:#ffffff;fill-opacity:1"
         id="path15-6"
         d="m 643.13,63.019752 h 25.91 L 543.49,347.73026 h -25.96 z" /><path
         sodipodi:nodetypes="cccccccccccccccccccccccccccccc"
         inkscape:connector-curvature="0"
         style="opacity:1;fill:#ffffff;fill-opacity:1"
         id="path17-6"
         d="M 712.12,63 H 777 c 15.21,0.68 31.12,-0.51 45.51,5.42 15.39,6.07 25.33,21.56 28.14,37.42 2.78,14.52 2.68,30.57 -4.92,43.69 -5.62,10.5 -16.01,17.49 -26.96,21.5 6.94,2.88 14.52,4.73 20.43,9.64 6.33,4.62 10.72,11.3 14.2,18.22 5.99,11.31 6.83,24.61 5.61,37.14 -2.01,14.75 -7.42,30.14 -19.38,39.76 -8.22,6 -17.56,10.68 -27.55,12.82 -10.27,1.8 -20.73,2.07 -31.13,2.14 H 712.13 L 712.12,63 m 36.76,29.25 v 65.5 c 10.36,-0.11 20.72,0.27 31.07,-0.3 7.95,-0.28 16.23,-1.77 22.83,-6.49 6.31,-4.65 9.97,-12.19 10.64,-19.92 0.86,-9.66 0.61,-20.66 -6.22,-28.31 -5.87,-7.42 -15.71,-10.11 -24.8,-10.36 -11.17,-0.28 -22.35,-0.04 -33.52,-0.12 m 0,94.5 v 74 c 11.97,-0.06 23.95,0.11 35.92,-0.08 9.77,-0.73 20.65,-2.85 27.33,-10.69 8.55,-9.48 9.91,-23.28 8.11,-35.42 -1.38,-10.36 -8.75,-19.36 -18.13,-23.66 -7.8,-3.8 -16.61,-4.07 -25.11,-4.16 -9.37,0.02 -18.75,0 -28.12,0.01 z" /><path
         sodipodi:nodetypes="ccccccccccccc"
         inkscape:connector-curvature="0"
         style="opacity:1;fill:#ffffff;fill-opacity:1"
         id="path19-1"
         d="m 903.75,63 h 37.5 L 941.22,171.76 1010.01,63 h 39.96 l -58.86,83.83 68.58,143.9 -40.55,0.04 -50.78,-112.57 -27.12,38 0.01,74.55 h -37.5 z" /><path
         sodipodi:nodetypes="ccccccccccc"
         inkscape:connector-curvature="0"
         style="opacity:1;fill:#ffffff;fill-opacity:1"
         id="path21-2"
         d="m 1082,63 44.27,-0.04 75.2,164.15 L 1201.5,63 h 31.38 l -0.01,227.75 -35.03,0.03 -84.31,-182.17 -0.04,182.15 -31.48,-0.01 z" /></g></g></svg>