<?xml version="1.0" encoding="UTF-8"?>
<!-- Generator: Adobe Illustrator 13.0.0, SVG Export Plug-In . SVG Version: 6.00 Build 14948)  -->
<svg id="Layer_1" width="284.84" height="289.69" enable-background="new 0 0 300 276.585" version="1.0" viewBox="0 0 267.04 271.59" xml:space="preserve" xmlns="http://www.w3.org/2000/svg" xmlns:cc="http://creativecommons.org/ns#" xmlns:dc="http://purl.org/dc/elements/1.1/" xmlns:rdf="http://www.w3.org/1999/02/22-rdf-syntax-ns#"><metadata id="metadata160"><rdf:RDF><cc:Work rdf:about=""><dc:format>image/svg+xml</dc:format><dc:type rdf:resource="http://purl.org/dc/dcmitype/StillImage"/><dc:title/></cc:Work></rdf:RDF></metadata><path id="path3" d="m158.89 0-4.232 10.726c2.539-0.735 5.278-1.442 7.602-2.13l-3.37-8.596" fill="#fff"/><path id="path5" d="m147.5 26.302c5.429-1.796 13.033-4.219 18.522-5.672l-3.549-8.998c-3.409 1.189-7.327 2.62-10.714 3.875l-4.259 10.795" fill="#fff"/><path id="path7" d="m141.04 42.672c9.61-3.416 19.888-6.621 29.834-9.772l-3.802-9.635c-7.224 2.503-14.411 5.197-21.542 8.034l-4.49 11.373" fill="#fff"/><path id="path9" d="m138.7 48.569-4.4 11.144c0.025-0.011 0.036-0.011 0.058-0.029 13.55-5.615 27.502-10.042 41.387-14.423l-3.779-9.563c-10.472 3.638-20.87 7.623-31.149 11.964-0.706 0.309-1.419 0.62-2.117 0.907" fill="#fff"/><path id="path11" d="m102.56 50.739c-7.021 3.578-13.947 7.298-20.779 11.197l3.676 6.045c9.164-4.852 18.718-9.353 28.223-13.665l-11.12-3.577" fill="#fff"/><path id="path13" d="m85.08 45.112c-3.391 1.844-6.763 3.703-10.101 5.604l3.68 6.063c5.444-2.9 11.192-5.627 16.763-8.325l-10.342-3.342" fill="#fff"/><path id="path15" d="m202.53 203.4c2.803-1.078 5.661-1.905 8.498-2.921l-1.609-9c-5.052 2.012-10.054 4.142-14.995 6.397l8.106 5.524" fill="#fff"/><path id="path17" d="m68.294 39.721 3.904 6.419c1.845-1.028 4.022-2.286 5.891-3.268l-9.795-3.151" fill="#fff"/><path id="path19" d="m212.8 210.42-0.995-5.585c-1.501 0.613-2.989 1.215-4.483 1.859l5.478 3.726" fill="#fff"/><path id="path21" d="m104.86 143.2 4.228 0.863c33.257-18.952 71.796-32.337 108.87-41.886l-6.123-3.801 3.688-6.981 6e-3 -0.012c-13.584 3.9-38.928 12.201-62.147 23.117-27.783 12.814-51.308 28.116-51.308 28.116-7.774 4.967-15.403 10.202-22.881 15.687l2.623 0.539c7.533-5.472 15.207-10.693 23.043-15.642" fill="#fff"/><path id="path23" d="m99.226 90.648c25.997-13.674 53.383-24.298 81.404-33.036l-3.813-9.63c-41.89 14.406-81.657 34.518-118.36 59.981l2.374 0.76c11.63-8.005 23.556-15.487 35.764-22.404l2.629 4.329" fill="#fff"/><path id="path25" d="m120.85 56.63c-11.478 5.627-32.121 16.708-32.121 16.708l3.657 6.041c13.083-6.884 26.5-13.201 40.223-18.953l-11.759-3.796" fill="#fff"/><path id="path27" d="m109.31 174.83c42.896-26.939 90.466-43.512 140.3-53.001l-13.62-8.452c-44.715 11.203-87.101 29.92-125.62 55.498l-1.058 5.955" fill="#fff"/><path id="path29" d="m106.08 192.97c33.901-21.601 79.524-47.334 160-60.867l-14.034-8.773c-52.191 11.244-101.34 32.94-144.98 64.025l-0.988 5.615" fill="#fff"/><path id="path31" d="m220.48 103.75c-37.654 10.661-73.592 26.548-106.9 47.258l-1.159 6.472c37.509-22.104 78.48-36.126 121-45.703l-12.939-8.027" fill="#fff"/><path id="path33" d="m103.68 206.27-1.088 6.103s47.052-33.817 101.38-51.496l-1.667-9.289c-35.229 13.117-68.416 31.485-98.62 54.682" fill="#fff"/><path id="path35" d="m207.04 178.14c-8.602 3.348-17.059 7.041-25.362 11.044l7.667 5.229c6.348-2.64 12.813-4.939 19.303-7.211l-1.608-9.062" fill="#fff"/><path id="path37" d="m206.32 174.08-1.646-9.221c-12.121 4.604-23.99 9.864-35.559 15.738l7.29 4.982c9.773-4.339 19.781-8.031 29.915-11.499" fill="#fff"/><path id="path39" d="m205.05 91.862c3.938-1.069 7.887-2.103 11.828-3.073l7.083-13.424h-0.011l0.011-0.022c-8.421 2.153-16.765 4.553-25.031 7.209l6.12 9.31" fill="#fff"/><path id="path41" d="m195.8 77.677 1.46 2.246c9.278-2.601 18.614-4.949 28.001-7.027l6.967-13.228c-8.86 2.032-17.628 4.312-26.309 6.867l-10.119 11.142" fill="#fff"/><path id="path43" d="m240.27 44.36c-19.655 4.008-38.961 9.25-57.836 15.686l6.574 8.233c14.631-4.283 29.461-7.895 44.392-10.858l6.87-13.061" fill="#fff"/><path id="path45" d="m181.15 98.882 8.548-11.987 14.492 5.201c-7.854 2.14-15.284 4.3-23.04 6.786" fill="#dd0035"/><linearGradient id="SVGID_1_" x1="48.464" x2="179.74" y1="130.92" y2="130.92" gradientTransform="translate(.288 -3.437)" gradientUnits="userSpaceOnUse"><stop id="stop48" stop-color="#fff" offset="0"/><stop id="stop50" stop-color="#FDE9E1" offset=".0225"/><stop id="stop52" stop-color="#FBD6C6" offset=".0484"/><stop id="stop54" stop-color="#F9C6B0" offset=".0783"/><stop id="stop56" stop-color="#F8BA9F" offset=".1131"/><stop id="stop58" stop-color="#F7B194" offset=".1562"/><stop id="stop60" stop-color="#F6AC8D" offset=".2167"/><stop id="stop62" stop-color="#F6AB8B" offset=".3846"/><stop id="stop64" stop-color="#DD0035" offset=".6703"/><stop id="stop66" stop-color="#DD0035" offset="1"/></linearGradient><path id="path68" d="m48.752 165.32c39.433-32.988 83.688-58.608 131.05-76.177l0.225 10.114c-31.212 10.168-62.338 23.724-90.201 40.83l-3.388-0.695c-12.112 8.189-23.856 17.019-35.198 26.436l-2.487-0.508" fill="url(#SVGID_1_)"/><linearGradient id="SVGID_2_" x1="-.2876" x2="179.44" y1="140.16" y2="140.16" gradientTransform="translate(.288 -3.437)" gradientUnits="userSpaceOnUse"><stop id="stop71" stop-color="#fff" offset="0"/><stop id="stop73" stop-color="#FFFBF9" offset=".0653"/><stop id="stop75" stop-color="#FDEEE7" offset=".1544"/><stop id="stop77" stop-color="#FBD9CB" offset=".257"/><stop id="stop79" stop-color="#F8BCA3" offset=".369"/><stop id="stop81" stop-color="#F6AB8B" offset=".4286"/><stop id="stop83" stop-color="#DD0035" offset=".6703"/><stop id="stop85" stop-color="#DD0035" offset="1"/></linearGradient><path id="path87" d="m166.6 79.971 13.068 2.726 0.064 2.498c-38.159 12.243-74.899 29.137-108.36 51.106l-2.857-0.599c-20.36 14.614-39.679 31.007-57.761 49.081-2.863 2.864-5.684 5.76-8.459 8.692l-2.292-0.477c3.069-3.232 6.177-6.448 9.352-9.618 45.589-45.575 99.009-80.461 157.24-103.41" fill="url(#SVGID_2_)"/><linearGradient id="SVGID_3_" x1="15.849" x2="180.28" y1="113.33" y2="113.33" gradientTransform="translate(.288 -3.437)" gradientUnits="userSpaceOnUse"><stop id="stop90" stop-color="#fff" offset="0"/><stop id="stop92" stop-color="#FEF6F2" offset=".0227"/><stop id="stop94" stop-color="#FBDBCD" offset=".0988"/><stop id="stop96" stop-color="#F9C6B0" offset=".1748"/><stop id="stop98" stop-color="#F7B79C" offset=".2501"/><stop id="stop100" stop-color="#F6AE8F" offset=".3241"/><stop id="stop102" stop-color="#F6AB8B" offset=".3956"/><stop id="stop104" stop-color="#DD0035" offset=".7143"/><stop id="stop106" stop-color="#DD0035" offset="1"/></linearGradient><path id="path108" d="m48.528 131.54c40.243-30.71 84.767-54.528 132.04-70.856l-0.666 10.353c-44.958 14.09-87.965 34.587-126.62 61.509l-2.207-0.447c-11.19 8.469-22.042 17.461-32.538 26.986l-2.399-0.5c10.439-9.514 21.237-18.529 32.354-27.02l0.038-0.025" fill="url(#SVGID_3_)"/><polyline id="polyline110" transform="translate(.288 -3.437)" points="40.563 263.38 40.563 274.81 38.179 274.81 38.179 263.38 35.809 263.38 35.809 261.77 42.956 261.77 42.956 263.38 40.563 263.38" fill="#fff"/><polyline id="polyline112" transform="translate(.288 -3.437)" points="61.188 274.81 61.188 261.77 67.442 261.77 67.442 263.38 63.553 263.38 63.553 267.33 67.002 267.33 67.002 268.92 63.553 268.92 63.553 273.2 67.442 273.2 67.442 274.81 61.188 274.81" fill="#fff"/><polyline id="polyline114" transform="translate(.288 -3.437)" points="85.979 274.81 85.979 261.77 88.351 261.77 88.351 273.2 91.906 273.2 91.906 274.81 85.979 274.81" fill="#fff"/><polyline id="polyline116" transform="translate(.288 -3.437)" points="110.14 274.81 110.14 261.77 116.39 261.77 116.39 263.38 112.52 263.38 112.52 267.33 115.96 267.33 115.96 268.92 112.52 268.92 112.52 273.2 116.39 273.2 116.39 274.81 110.14 274.81" fill="#fff"/><path id="path118" d="m140.05 271.37h-2.051l-3.861-13.036h2.528l2.082 8.375c0.194 0.771 0.337 1.653 0.337 1.653h0.036s0.157-0.883 0.334-1.653l2.135-8.375h2.26l-3.8 13.036" fill="#fff"/><rect id="rect120" x="161.8" y="258.33" width="2.383" height="13.043" fill="#fff"/><path id="path122" d="m185.74 271.59c-1.511 0-2.461-0.29-3.163-0.757l0.582-1.692c0.445 0.298 1.175 0.609 2.148 0.609 1.265 0 2.046-0.791 2.046-2.012 0-0.987-0.563-1.59-2.003-2.216-2.072-0.886-2.653-2.281-2.653-3.553 0-2.056 1.488-3.842 3.859-3.842 1.28 0 2.231 0.329 2.825 0.733l-0.54 1.489c-0.446-0.269-1.154-0.574-1.964-0.574-1.192 0-1.86 0.734-1.86 1.889 0 1.146 0.825 1.664 1.95 2.159 2.521 1.074 2.885 2.513 2.885 3.755-1e-3 2.317-1.71 4.012-4.112 4.012" fill="#fff"/><rect id="rect124" x="208.43" y="258.33" width="2.383" height="13.043" fill="#fff"/><path id="path126" d="m234.27 259.73c-1.974 0-2.434 2.594-2.434 5.055 0 2.434 0.382 4.989 2.434 4.989 2.037 0 2.398-2.556 2.398-4.989 1e-3 -2.461-0.42-5.055-2.398-5.055m0 11.862c-3.458 0-4.85-3.031-4.85-6.728 0-3.714 1.392-6.734 4.85-6.734 3.443 0 4.798 3.021 4.798 6.734 0 3.697-1.354 6.728-4.798 6.728z" fill="#fff"/><path id="path128" d="m264.59 271.37-4.884-8.417c-0.431-0.733-0.749-1.468-0.749-1.468h-0.036s0.063 0.747 0.063 1.526v8.358h-1.981v-13.035h2.23l4.604 7.923c0.423 0.733 0.676 1.323 0.676 1.323h0.042s-0.056-0.61-0.056-1.38v-7.866h1.985v13.036h-1.894" fill="#fff"/><path id="path130" d="m43.244 250c-3.407 0-5.644-0.603-7.213-1.634l1.485-4.527c0.887 0.604 2.531 1.272 4.434 1.286 2.292 0 3.705-1.32 3.705-3.291 0-1.748-1.05-2.839-3.846-4.067-4.293-1.938-5.488-4.932-5.488-7.612 0-4.648 3.374-8.498 8.723-8.483 2.968 0 5.133 0.718 6.447 1.599l-1.366 3.973c-0.945-0.602-2.426-1.189-4.108-1.189-2.165 0-3.331 1.189-3.331 3.138 0 1.997 1.398 3.004 3.719 4.044 5.325 2.411 6.077 5.318 6.077 8.13-0.013 4.964-3.802 8.64-9.238 8.633" fill="#fff"/><path id="path132" d="m63.692 232.77c-2.558 0-3.095 3.138-3.095 6.712 0 3.625 0.56 6.552 3.095 6.56 2.568 0 3.102-2.935 3.102-6.56-1e-3 -3.574-0.527-6.712-3.102-6.712m0 17.209c-5.815 0-8.881-4.417-8.852-10.432 0-5.992 3.05-10.388 8.823-10.388 5.861 0 8.887 4.403 8.887 10.403 0 6.016-3.054 10.439-8.858 10.417z" fill="#fff"/><path id="path134" d="m84.103 250c-5.663 0-8.397-2.129-8.397-6.952v-13.51h5.799l-7e-3 13.911c0 1.459 0.796 2.622 2.768 2.622 1.042 0 1.761-0.124 2.419-0.452l7e-3 -16.061h5.822l-0.022 18.887c-1.867 0.922-4.612 1.555-8.389 1.555" fill="#fff"/><path id="path136" d="m103.18 249.93c-4.209 0-6.034-2.724-6.034-5.811v-10.815h-2.193l0.015-3.75h2.179v-4.308l5.841-1.48v5.788h3.087v3.75h-3.095v10.379c0 1.541 0.548 2.339 1.867 2.339 0.484 0 0.719-0.065 1.228-0.239l-8e-3 3.59c-0.501 0.223-1.546 0.557-2.887 0.557" fill="#fff"/><path id="path138" d="m120.59 249.64 8e-3 -13.961c0-1.57-0.704-2.841-2.968-2.841-0.921 0-1.688 0.145-2.463 0.561l-0.013 16.241h-5.816l0.022-28.562h5.807v9.161c1.341-0.604 2.739-0.938 4.317-0.938 5.036 0 6.939 2.906 6.939 6.268l-0.015 14.093-5.818-0.022" fill="#fff"/><path id="path140" d="m137.71 232.65c-2.383 0-3.86 2.041-3.69 6.174l7.006-1.037c-1e-3 -3.591-1.173-5.137-3.316-5.137m-3.301 8.999c0.407 2.942 1.888 4.388 4.833 4.388 2.343 8e-3 4.135-0.484 5.227-1.053l1.29 3.595c-1.555 0.792-3.795 1.453-7.169 1.453-6.167 0-9.723-4.067-9.702-10.481 0-6.29 3.281-10.35 9.059-10.35 5.826 0 8.757 3.965 8.487 10.728z" fill="#fff"/><path id="path142" d="m158.7 233.38c-1.413-0.609-2.905-0.552-3.875-0.122v16.415l-5.822-0.014 0.015-18.959c2.238-1.097 5.368-1.679 10.754-1.416l-1.072 4.096" fill="#fff"/><path id="path144" d="m172.82 249.7v-14.063c0.015-1.404-0.625-2.798-2.976-2.798-1.151 0-1.774 0.167-2.461 0.399v16.438h-5.821l0.013-18.973c2.009-0.885 4.85-1.497 8.419-1.497 6.359 0 8.66 2.724 8.66 6.385l-0.022 14.108h-5.812" fill="#fff"/><path id="path146" d="m200.07 250.07c-7.438 0-10.838-6.702-10.838-14.164 8e-3 -7.328 3.483-14.156 10.908-14.156 2.668 0 4.588 0.596 5.941 1.599l-1.314 3.938c-0.754-0.479-1.722-0.851-3.23-0.851-4.269 0-5.608 4.708-5.608 9.437 0 4.685 1.555 9.252 5.546 9.252 1.526 0 2.277-0.317 3.173-0.827l1.46 4.147c-1.38 1.083-3.396 1.625-6.038 1.625" fill="#fff"/><path id="path148" d="m217.7 233.41c-1.412-0.583-2.888-0.554-3.845-0.111l-0.022 16.404-5.814-8e-3v-18.966c2.25-1.082 5.382-1.671 10.768-1.418l-1.087 4.099" fill="#fff"/><path id="path150" d="m227.86 232.86c-2.562-8e-3 -3.079 3.131-3.079 6.713-0.022 3.603 0.54 6.544 3.063 6.544 2.588 0 3.11-2.941 3.11-6.544 1e-3 -3.582-0.513-6.713-3.094-6.713m-0.015 17.201c-5.802 0-8.852-4.417-8.852-10.425s3.05-10.399 8.843-10.399c5.87 0 8.898 4.406 8.898 10.399-0.013 6.008-3.044 10.431-8.889 10.425z" fill="#fff"/><path id="path152" d="m244.28 250.06c-2.448 0-4.635-0.64-5.885-1.46l1.5-3.682c0.737 0.603 2.112 1.146 3.578 1.146 1.495 0 2.497-0.938 2.497-2.216 0-1.322-0.71-2.076-2.572-2.817-3.696-1.452-4.498-3.488-4.498-5.601 0-3.421 2.662-6.169 6.693-6.169 2.493 0 4.225 0.481 5.786 1.439l-1.398 3.319c-0.623-0.464-1.769-1.039-3.081-1.039-1.529 0-2.302 0.923-2.302 2.086 0 1.358 0.995 2.107 2.563 2.766 3.876 1.65 4.777 3.533 4.777 5.894 1e-3 3.487-2.887 6.334-7.658 6.334" fill="#fff"/><path id="path154" d="m259.38 250.06c-2.462 0-4.658-0.647-5.891-1.468l1.481-3.682c0.769 0.603 2.117 1.146 3.599 1.146 1.472 0 2.485-0.938 2.485-2.191 0-1.331-0.716-2.101-2.582-2.842-3.676-1.438-4.508-3.488-4.508-5.579 0-3.422 2.702-6.19 6.729-6.19 2.489 0 4.207 0.481 5.782 1.461l-1.434 3.298c-0.604-0.464-1.744-1.031-3.046-1.031-1.531 0-2.312 0.945-2.312 2.099 0 1.338 1.009 2.087 2.561 2.76 3.873 1.636 4.787 3.519 4.787 5.879 2e-3 3.5-2.897 6.34-7.651 6.34" fill="#fff"/></svg>
