<?xml version="1.0" encoding="UTF-8"?>
<!-- Generator: Adobe Illustrator 13.0.0, SVG Export Plug-In . SVG Version: 6.00 Build 14948)  -->
<svg id="Layer_1" width="590.66" height="286.17" enable-background="new 0 0 300 276.585" version="1.0" viewBox="0 0 553.74 268.29" xml:space="preserve" xmlns="http://www.w3.org/2000/svg" xmlns:cc="http://creativecommons.org/ns#" xmlns:dc="http://purl.org/dc/elements/1.1/" xmlns:rdf="http://www.w3.org/1999/02/22-rdf-syntax-ns#"><metadata id="metadata160"><rdf:RDF><cc:Work rdf:about=""><dc:format>image/svg+xml</dc:format><dc:type rdf:resource="http://purl.org/dc/dcmitype/StillImage"/><dc:title/></cc:Work></rdf:RDF></metadata><linearGradient id="SVGID_1_" x1="48.464" x2="179.74" y1="130.92" y2="130.92" gradientTransform="translate(.288 -3.437)" gradientUnits="userSpaceOnUse"><stop id="stop48" stop-color="#fff" offset="0"/><stop id="stop50" stop-color="#FDE9E1" offset=".0225"/><stop id="stop52" stop-color="#FBD6C6" offset=".0484"/><stop id="stop54" stop-color="#F9C6B0" offset=".0783"/><stop id="stop56" stop-color="#F8BA9F" offset=".1131"/><stop id="stop58" stop-color="#F7B194" offset=".1562"/><stop id="stop60" stop-color="#F6AC8D" offset=".2167"/><stop id="stop62" stop-color="#F6AB8B" offset=".3846"/><stop id="stop64" stop-color="#DD0035" offset=".6703"/><stop id="stop66" stop-color="#DD0035" offset="1"/></linearGradient><linearGradient id="SVGID_2_" x1="-.2876" x2="179.44" y1="140.16" y2="140.16" gradientTransform="translate(.288 -3.437)" gradientUnits="userSpaceOnUse"><stop id="stop71" stop-color="#fff" offset="0"/><stop id="stop73" stop-color="#FFFBF9" offset=".0653"/><stop id="stop75" stop-color="#FDEEE7" offset=".1544"/><stop id="stop77" stop-color="#FBD9CB" offset=".257"/><stop id="stop79" stop-color="#F8BCA3" offset=".369"/><stop id="stop81" stop-color="#F6AB8B" offset=".4286"/><stop id="stop83" stop-color="#DD0035" offset=".6703"/><stop id="stop85" stop-color="#DD0035" offset="1"/></linearGradient><linearGradient id="SVGID_3_" x1="15.849" x2="180.28" y1="113.33" y2="113.33" gradientTransform="translate(.288 -3.437)" gradientUnits="userSpaceOnUse"><stop id="stop90" stop-color="#fff" offset="0"/><stop id="stop92" stop-color="#FEF6F2" offset=".0227"/><stop id="stop94" stop-color="#FBDBCD" offset=".0988"/><stop id="stop96" stop-color="#F9C6B0" offset=".1748"/><stop id="stop98" stop-color="#F7B79C" offset=".2501"/><stop id="stop100" stop-color="#F6AE8F" offset=".3241"/><stop id="stop102" stop-color="#F6AB8B" offset=".3956"/><stop id="stop104" stop-color="#DD0035" offset=".7143"/><stop id="stop106" stop-color="#DD0035" offset="1"/></linearGradient><path id="path3" d="m158.89 0-4.232 10.726c2.539-0.735 5.278-1.442 7.602-2.13l-3.37-8.596" fill="#fff"/><path id="path5" d="m147.5 26.302c5.429-1.796 13.033-4.219 18.522-5.672l-3.549-8.998c-3.409 1.189-7.327 2.62-10.714 3.875l-4.259 10.795" fill="#fff"/><path id="path7" d="m141.04 42.672c9.61-3.416 19.888-6.621 29.834-9.772l-3.802-9.635c-7.224 2.503-14.411 5.197-21.542 8.034l-4.49 11.373" fill="#fff"/><path id="path9" d="m138.7 48.569-4.4 11.144c0.025-0.011 0.036-0.011 0.058-0.029 13.55-5.615 27.502-10.042 41.387-14.423l-3.779-9.563c-10.472 3.638-20.87 7.623-31.149 11.964-0.706 0.309-1.419 0.62-2.117 0.907" fill="#fff"/><path id="path11" d="m102.56 50.739c-7.021 3.578-13.947 7.298-20.779 11.197l3.676 6.045c9.164-4.852 18.718-9.353 28.223-13.665l-11.12-3.577" fill="#fff"/><path id="path13" d="m85.08 45.112c-3.391 1.844-6.763 3.703-10.101 5.604l3.68 6.063c5.444-2.9 11.192-5.627 16.763-8.325l-10.342-3.342" fill="#fff"/><path id="path15" d="m202.53 203.4c2.803-1.078 5.661-1.905 8.498-2.921l-1.609-9c-5.052 2.012-10.054 4.142-14.995 6.397l8.106 5.524" fill="#fff"/><path id="path17" d="m68.294 39.721 3.904 6.419c1.845-1.028 4.022-2.286 5.891-3.268l-9.795-3.151" fill="#fff"/><path id="path19" d="m212.8 210.42-0.995-5.585c-1.501 0.613-2.989 1.215-4.483 1.859l5.478 3.726" fill="#fff"/><path id="path21" d="m104.86 143.2 4.228 0.863c33.257-18.952 71.796-32.337 108.87-41.886l-6.123-3.801 3.688-6.981 6e-3 -0.012c-13.584 3.9-38.928 12.201-62.147 23.117-27.783 12.814-51.308 28.116-51.308 28.116-7.774 4.967-15.403 10.202-22.881 15.687l2.623 0.539c7.533-5.472 15.207-10.693 23.043-15.642" fill="#fff"/><path id="path23" d="m99.226 90.648c25.997-13.674 53.383-24.298 81.404-33.036l-3.813-9.63c-41.89 14.406-81.657 34.518-118.36 59.981l2.374 0.76c11.63-8.005 23.556-15.487 35.764-22.404l2.629 4.329" fill="#fff"/><path id="path25" d="m120.85 56.63c-11.478 5.627-32.121 16.708-32.121 16.708l3.657 6.041c13.083-6.884 26.5-13.201 40.223-18.953l-11.759-3.796" fill="#fff"/><path id="path27" d="m109.31 174.83c42.896-26.939 90.466-43.512 140.3-53.001l-13.62-8.452c-44.715 11.203-87.101 29.92-125.62 55.498l-1.058 5.955" fill="#fff"/><path id="path29" d="m106.08 192.97c33.901-21.601 79.524-47.334 160-60.867l-14.034-8.773c-52.191 11.244-101.34 32.94-144.98 64.025l-0.988 5.615" fill="#fff"/><path id="path31" d="m220.48 103.75c-37.654 10.661-73.592 26.548-106.9 47.258l-1.159 6.472c37.509-22.104 78.48-36.126 121-45.703l-12.939-8.0273" fill="#fff"/><path id="path33" d="m103.68 206.27-1.088 6.103s47.052-33.817 101.38-51.496l-1.667-9.289c-35.229 13.117-68.416 31.485-98.62 54.682" fill="#fff"/><path id="path35" d="m207.04 178.14c-8.602 3.348-17.059 7.041-25.362 11.044l7.667 5.229c6.348-2.64 12.813-4.939 19.303-7.211l-1.608-9.062" fill="#fff"/><path id="path37" d="m206.32 174.08-1.646-9.221c-12.121 4.604-23.99 9.864-35.559 15.738l7.29 4.982c9.773-4.339 19.781-8.031 29.915-11.499" fill="#fff"/><path id="path39" d="m205.05 91.862c3.938-1.069 7.887-2.103 11.828-3.073l7.083-13.424h-0.011l0.011-0.022c-8.421 2.153-16.765 4.553-25.031 7.209l6.12 9.31" fill="#fff"/><path id="path41" d="m195.8 77.677 1.46 2.246c9.278-2.601 18.614-4.949 28.001-7.027l6.967-13.228c-8.86 2.032-17.628 4.312-26.309 6.867l-10.119 11.142" fill="#fff"/><path id="path43" d="m240.27 44.36c-19.655 4.008-38.961 9.25-57.836 15.686l6.574 8.233c14.631-4.283 29.461-7.895 44.392-10.858l6.87-13.061" fill="#fff"/><path id="path45" d="m181.15 98.882 8.548-11.987 14.492 5.201c-7.854 2.14-15.284 4.3-23.04 6.786" fill="#dd0035"/><path id="path68" d="m48.752 165.32c39.433-32.988 83.688-58.608 131.05-76.177l0.225 10.114c-31.212 10.168-62.338 23.724-90.201 40.83l-3.388-0.695c-12.112 8.189-23.856 17.019-35.198 26.436l-2.487-0.508" fill="url(#SVGID_1_)"/><path id="path87" d="m166.6 79.971 13.068 2.726 0.064 2.498c-38.159 12.243-74.899 29.137-108.36 51.106l-2.857-0.599c-20.36 14.614-39.679 31.007-57.761 49.081-2.863 2.864-5.684 5.76-8.459 8.692l-2.292-0.477c3.069-3.232 6.177-6.448 9.352-9.618 45.589-45.575 99.009-80.461 157.24-103.41" fill="url(#SVGID_2_)"/><path id="path108" d="m48.528 131.54c40.243-30.71 84.767-54.528 132.04-70.856l-0.666 10.353c-44.958 14.09-87.965 34.587-126.62 61.509l-2.207-0.447c-11.19 8.469-22.042 17.461-32.538 26.986l-2.399-0.5c10.439-9.514 21.237-18.529 32.354-27.02l0.038-0.025" fill="url(#SVGID_3_)"/><path id="path20" d="m354.77 210.39c11.247-55.342 21.773-110.74 33.221-166.03 30.937 0.09679 46.933 0.01388 77.87 0.02776 22.308-0.47017 45.458 5.2549 63.438 19.346 13.318 10.275 22.054 26.385 23.871 43.45 2.5781 23.647-3.5666 48.801-18.701 67.041-13.345 16.359-32.647 26.357-52.471 31.446-12.263 3.07-24.873 4.4252-37.469 4.7156h-89.759m73.435-123.41c-5.6237 26.855-10.94 53.794-16.511 80.663 11.328-0.0691 22.669 0.15212 34.01-0.11063 11.394-0.26275 23.029-4.3007 31.245-12.681 11.782-12.183 16.003-31.211 11.541-47.681-2.4045-8.5323-9.2973-15.17-17.459-17.645-13.892-4.3284-28.573-1.936-42.826-2.5445z" fill="#fff" stroke-width="1.3591"/><path id="path18-0" d="m264.1 44.387c-5.1837 24.205-10.281 48.43-15.35 72.662l10.55 6.5387 16.664 10.417c-11.253 1.8923-21.912 3.9925-32.062 6.2549-4.8705 23.371-9.7267 46.746-14.597 70.117 21.836 0.0415 43.686-0.027 65.522 0.0421 4.8539-21.96 9.2788-44.019 13.898-66.021 19.845-0.0278 39.703 0.0131 59.548-0.0146-4.0243 22.085-9.0852 43.99-13.497 66.006 21.85 0.0278 43.699-0.0398 65.563 0.0293 11.92-55.274 23.038-110.72 34.904-165.99-22.03 0-44.058-0.12301-66.074 0.05676-3.4018 19.264-8.0485 38.305-11.782 57.513-19.914-0.0415-39.827-0.0139-59.727 0 3.6785-19.25 8.2284-38.319 11.838-57.583-21.794-0.04164-43.604 0.01402-65.398-0.02747z" fill="#fff" stroke-width="1.3829"/><g id="g1353" transform="matrix(1.0575 0 0 1.0575 -5.9028 -12.72)" fill="#fff"><g id="g1250" transform="matrix(1.5396 0 0 1.5396 -55.356 -119.29)"><path id="path130" d="m109.8 250c-3.407 0-5.644-0.603-7.213-1.634l1.485-4.527c0.887 0.604 2.531 1.272 4.434 1.286 2.292 0 3.705-1.32 3.705-3.291 0-1.748-1.05-2.839-3.846-4.067-4.293-1.938-5.488-4.932-5.488-7.612 0-4.648 3.374-8.498 8.723-8.483 2.968 0 5.133 0.718 6.447 1.599l-1.366 3.973c-0.945-0.602-2.426-1.189-4.108-1.189-2.165 0-3.331 1.189-3.331 3.138 0 1.997 1.398 3.004 3.719 4.044 5.325 2.411 6.077 5.318 6.077 8.13-0.013 4.964-3.802 8.64-9.238 8.633"/><path id="path132" d="m130.25 232.77c-2.558 0-3.095 3.138-3.095 6.712 0 3.625 0.56 6.552 3.095 6.56 2.568 0 3.102-2.935 3.102-6.56-1e-3 -3.574-0.527-6.712-3.102-6.712m0 17.209c-5.815 0-8.881-4.417-8.852-10.432 0-5.992 3.05-10.388 8.823-10.388 5.861 0 8.887 4.403 8.887 10.403 0 6.016-3.054 10.439-8.858 10.417z"/><path id="path134" d="m150.66 250c-5.663 0-8.397-2.129-8.397-6.952v-13.51h5.799l-7e-3 13.911c0 1.459 0.796 2.622 2.768 2.622 1.042 0 1.761-0.124 2.419-0.452l7e-3 -16.061h5.822l-0.022 18.887c-1.867 0.922-4.612 1.555-8.389 1.555"/><path id="path136" d="m169.74 249.93c-4.209 0-6.034-2.724-6.034-5.811v-10.815h-2.193l0.015-3.75h2.179v-4.308l5.841-1.48v5.788h3.087v3.75h-3.095v10.379c0 1.541 0.548 2.339 1.867 2.339 0.484 0 0.719-0.065 1.228-0.239l-8e-3 3.59c-0.501 0.223-1.546 0.557-2.887 0.557"/><path id="path138" d="m187.15 249.64 8e-3 -13.961c0-1.57-0.704-2.841-2.968-2.841-0.921 0-1.688 0.145-2.463 0.561l-0.013 16.241h-5.816l0.022-28.562h5.807v9.161c1.341-0.604 2.739-0.938 4.317-0.938 5.036 0 6.939 2.906 6.939 6.268l-0.015 14.093-5.818-0.022"/><path id="path140" d="m204.27 232.65c-2.383 0-3.86 2.041-3.69 6.174l7.006-1.037c-1e-3 -3.591-1.173-5.137-3.316-5.137m-3.301 8.999c0.407 2.942 1.888 4.388 4.833 4.388 2.343 8e-3 4.135-0.484 5.227-1.053l1.29 3.595c-1.555 0.792-3.795 1.453-7.169 1.453-6.167 0-9.723-4.067-9.702-10.481 0-6.29 3.281-10.35 9.059-10.35 5.826 0 8.757 3.965 8.487 10.728z"/><path id="path142" d="m225.26 233.38c-1.413-0.609-2.905-0.552-3.875-0.122v16.415l-5.822-0.014 0.015-18.959c2.238-1.097 5.368-1.679 10.754-1.416l-1.072 4.096"/><path id="path144" d="m239.37 249.7v-14.063c0.015-1.404-0.625-2.798-2.976-2.798-1.151 0-1.774 0.167-2.461 0.399v16.438h-5.821l0.013-18.973c2.009-0.885 4.85-1.497 8.419-1.497 6.359 0 8.66 2.724 8.66 6.385l-0.022 14.108h-5.812"/><path id="path146" d="m266.63 250.07c-7.438 0-10.838-6.702-10.838-14.164 8e-3 -7.328 3.483-14.156 10.908-14.156 2.668 0 4.588 0.596 5.941 1.599l-1.314 3.938c-0.754-0.479-1.722-0.851-3.23-0.851-4.269 0-5.608 4.708-5.608 9.437 0 4.685 1.555 9.252 5.546 9.252 1.526 0 2.277-0.317 3.173-0.827l1.46 4.147c-1.38 1.083-3.396 1.625-6.038 1.625"/><path id="path148" d="m284.26 233.41c-1.412-0.583-2.888-0.554-3.845-0.111l-0.022 16.404-5.814-8e-3v-18.966c2.25-1.082 5.382-1.671 10.768-1.418l-1.087 4.099"/><path id="path150" d="m294.41 232.86c-2.562-8e-3 -3.079 3.131-3.079 6.713-0.022 3.603 0.54 6.544 3.063 6.544 2.588 0 3.11-2.941 3.11-6.544 1e-3 -3.582-0.513-6.713-3.094-6.713m-0.015 17.201c-5.802 0-8.852-4.417-8.852-10.425s3.05-10.399 8.843-10.399c5.87 0 8.898 4.406 8.898 10.399-0.013 6.008-3.044 10.431-8.889 10.425z"/><path id="path152" d="m310.84 250.06c-2.448 0-4.635-0.64-5.885-1.46l1.5-3.682c0.737 0.603 2.112 1.146 3.578 1.146 1.495 0 2.497-0.938 2.497-2.216 0-1.322-0.71-2.076-2.572-2.817-3.696-1.452-4.498-3.488-4.498-5.601 0-3.421 2.662-6.169 6.693-6.169 2.493 0 4.225 0.481 5.786 1.439l-1.398 3.319c-0.623-0.464-1.769-1.039-3.081-1.039-1.529 0-2.302 0.923-2.302 2.086 0 1.358 0.995 2.107 2.563 2.766 3.876 1.65 4.777 3.533 4.777 5.894 1e-3 3.487-2.887 6.334-7.658 6.334"/><path id="path154" d="m325.94 250.06c-2.462 0-4.658-0.647-5.891-1.468l1.481-3.682c0.769 0.603 2.117 1.146 3.599 1.146 1.472 0 2.485-0.938 2.485-2.191 0-1.331-0.716-2.101-2.582-2.842-3.676-1.438-4.508-3.488-4.508-5.579 0-3.422 2.702-6.19 6.729-6.19 2.489 0 4.207 0.481 5.782 1.461l-1.434 3.298c-0.604-0.464-1.744-1.031-3.046-1.031-1.531 0-2.312 0.945-2.312 2.099 0 1.338 1.009 2.087 2.561 2.76 3.873 1.636 4.787 3.519 4.787 5.879 2e-3 3.5-2.897 6.34-7.651 6.34"/></g><g id="g1334" transform="translate(-.85552 7.3843)"><path id="path858" d="m486.32 240.99c-1.5247 0-2.7702 0.49819-3.7364 1.4945-0.95107 0.98126-1.6229 2.4607-2.0154 4.4384-0.39251 1.9776-0.30948 3.4646 0.24909 4.461 0.57366 0.98126 1.6229 1.4719 3.1476 1.4719 1.5398 0 2.7853-0.49064 3.7364-1.4719 0.96617-0.99637 1.6455-2.4834 2.038-4.461 0.3925-1.9776 0.30192-3.4571-0.27175-4.4384-0.55856-0.99635-1.6078-1.4945-3.1476-1.4945zm9.0352-11.481c-1.2077-0.33211-2.4154-0.49818-3.6232-0.49818-2.5966 0-4.7629 0.72464-6.499 2.1739-1.7361 1.4342-3.0117 3.5703-3.827 6.4084 1.1473-0.73973 2.3399-1.2908 3.5778-1.6531 1.2379-0.37742 2.5438-0.56612 3.9175-0.56612 3.4571 0 6.0386 1.0115 7.7445 3.0344 1.721 2.0229 2.2569 4.6723 1.6078 7.9483-0.72462 3.6231-2.4909 6.5292-5.2988 8.7182-2.8079 2.1739-6.2046 3.2608-10.19 3.2608-4.3931 0-7.4954-1.4794-9.307-4.4384-1.8116-2.974-2.1739-7.1859-1.0869-12.636 1.1171-5.5857 3.4042-9.9712 6.8613-13.157 3.4571-3.2004 7.6388-4.8007 12.545-4.8007 1.2449 0 2.4414 0.0775 3.5895 0.23223z"/><path id="path860" d="m520.48 240.74q1.2681-6.3405 0.58876-8.922-0.67934-2.6041-3.4873-2.6041-2.8079 0-4.5289 2.6041-1.6984 2.5815-2.9664 8.922-1.2907 6.4084-0.61141 9.0352 0.67933 2.6268 3.4873 2.6268 2.7853 0 4.5063-2.6268 1.721-2.6268 3.0117-9.0352zm8.6956 0.0679q-1.6757 8.4012-6.2273 12.975-4.5289 4.5516-11.186 4.5516-6.6802 0-9.3975-4.5516-2.6947-4.5742-1.019-12.975 1.6757-8.4238 6.2046-12.975 4.5516-4.5742 11.232-4.5742 6.6575 0 9.3522 4.5742 2.7174 4.5516 1.0417 12.975z"/></g></g></svg>
