<?xml version="1.0" encoding="UTF-8" standalone="no"?>
<!-- Generator: Adobe Illustrator 13.0.0, SVG Export Plug-In . SVG Version: 6.00 Build 14948)  -->

<svg
   xmlns:dc="http://purl.org/dc/elements/1.1/"
   xmlns:cc="http://creativecommons.org/ns#"
   xmlns:rdf="http://www.w3.org/1999/02/22-rdf-syntax-ns#"
   xmlns:svg="http://www.w3.org/2000/svg"
   xmlns="http://www.w3.org/2000/svg"
   xmlns:sodipodi="http://sodipodi.sourceforge.net/DTD/sodipodi-0.dtd"
   xmlns:inkscape="http://www.inkscape.org/namespaces/inkscape"
   version="1.0"
   id="Layer_1"
   x="0px"
   y="0px"
   width="590.66119"
   height="286.17203"
   viewBox="0 0 553.74487 268.28629"
   enable-background="new 0 0 300 276.585"
   xml:space="preserve"
   inkscape:version="0.92.0 r15299"
   sodipodi:docname="Southern Cross HD.svg"><metadata
     id="metadata160"><rdf:RDF><cc:Work
         rdf:about=""><dc:format>image/svg+xml</dc:format><dc:type
           rdf:resource="http://purl.org/dc/dcmitype/StillImage" /><dc:title></dc:title></cc:Work></rdf:RDF></metadata><defs
     id="defs158"><linearGradient
       id="linearGradient1069"
       gradientUnits="userSpaceOnUse"
       x1="48.464401"
       y1="130.9248"
       x2="179.7383"
       y2="130.9248"
       gradientTransform="translate(0.288,-3.437)"><stop
         offset="0"
         style="stop-color:#FFFFFF"
         id="stop48-1" /><stop
         offset="0.0225"
         style="stop-color:#FDE9E1"
         id="stop50-8" /><stop
         offset="0.0484"
         style="stop-color:#FBD6C6"
         id="stop52-8" /><stop
         offset="0.0783"
         style="stop-color:#F9C6B0"
         id="stop54-0" /><stop
         offset="0.1131"
         style="stop-color:#F8BA9F"
         id="stop56-7" /><stop
         offset="0.1562"
         style="stop-color:#F7B194"
         id="stop58-3" /><stop
         offset="0.2167"
         style="stop-color:#F6AC8D"
         id="stop60-3" /><stop
         offset="0.3846"
         style="stop-color:#F6AB8B"
         id="stop62-8" /><stop
         offset="0.6703"
         style="stop-color:#DD0035"
         id="stop64-8" /><stop
         offset="1"
         style="stop-color:#DD0035"
         id="stop66-9" /></linearGradient><linearGradient
       id="linearGradient1079"
       gradientUnits="userSpaceOnUse"
       x1="-0.28760001"
       y1="140.1602"
       x2="179.439"
       y2="140.1602"
       gradientTransform="translate(0.288,-3.437)"><stop
         offset="0"
         style="stop-color:#FFFFFF"
         id="stop71-8" /><stop
         offset="0.0653"
         style="stop-color:#FFFBF9"
         id="stop73-7" /><stop
         offset="0.1544"
         style="stop-color:#FDEEE7"
         id="stop75-6" /><stop
         offset="0.257"
         style="stop-color:#FBD9CB"
         id="stop77-6" /><stop
         offset="0.369"
         style="stop-color:#F8BCA3"
         id="stop79-0" /><stop
         offset="0.4286"
         style="stop-color:#F6AB8B"
         id="stop81-8" /><stop
         offset="0.6703"
         style="stop-color:#DD0035"
         id="stop83-4" /><stop
         offset="1"
         style="stop-color:#DD0035"
         id="stop85-5" /></linearGradient><linearGradient
       id="linearGradient1090"
       gradientUnits="userSpaceOnUse"
       x1="15.8486"
       y1="113.3262"
       x2="180.2832"
       y2="113.3262"
       gradientTransform="translate(0.288,-3.437)"><stop
         offset="0"
         style="stop-color:#FFFFFF"
         id="stop90-1" /><stop
         offset="0.0227"
         style="stop-color:#FEF6F2"
         id="stop92-6" /><stop
         offset="0.0988"
         style="stop-color:#FBDBCD"
         id="stop94-1" /><stop
         offset="0.1748"
         style="stop-color:#F9C6B0"
         id="stop96-2" /><stop
         offset="0.2501"
         style="stop-color:#F7B79C"
         id="stop98-2" /><stop
         offset="0.3241"
         style="stop-color:#F6AE8F"
         id="stop100-1" /><stop
         offset="0.3956"
         style="stop-color:#F6AB8B"
         id="stop102-0" /><stop
         offset="0.7143"
         style="stop-color:#DD0035"
         id="stop104-4" /><stop
         offset="1"
         style="stop-color:#DD0035"
         id="stop106-9" /></linearGradient></defs><sodipodi:namedview
     pagecolor="#ffffff"
     bordercolor="#666666"
     borderopacity="1"
     objecttolerance="10"
     gridtolerance="10"
     guidetolerance="10"
     inkscape:pageopacity="0"
     inkscape:pageshadow="2"
     inkscape:window-width="1920"
     inkscape:window-height="1017"
     id="namedview156"
     showgrid="false"
     fit-margin-top="0"
     fit-margin-left="0"
     fit-margin-right="0"
     fit-margin-bottom="0"
     inkscape:zoom="1.203726"
     inkscape:cx="250.85537"
     inkscape:cy="148.80063"
     inkscape:window-x="-8"
     inkscape:window-y="-8"
     inkscape:window-maximized="1"
     inkscape:current-layer="Layer_1" /><linearGradient
     id="SVGID_1_"
     gradientUnits="userSpaceOnUse"
     x1="48.464401"
     y1="130.9248"
     x2="179.7383"
     y2="130.9248"
     gradientTransform="translate(0.288,-3.437)"><stop
       offset="0"
       style="stop-color:#FFFFFF"
       id="stop48" /><stop
       offset="0.0225"
       style="stop-color:#FDE9E1"
       id="stop50" /><stop
       offset="0.0484"
       style="stop-color:#FBD6C6"
       id="stop52" /><stop
       offset="0.0783"
       style="stop-color:#F9C6B0"
       id="stop54" /><stop
       offset="0.1131"
       style="stop-color:#F8BA9F"
       id="stop56" /><stop
       offset="0.1562"
       style="stop-color:#F7B194"
       id="stop58" /><stop
       offset="0.2167"
       style="stop-color:#F6AC8D"
       id="stop60" /><stop
       offset="0.3846"
       style="stop-color:#F6AB8B"
       id="stop62" /><stop
       offset="0.6703"
       style="stop-color:#DD0035"
       id="stop64" /><stop
       offset="1"
       style="stop-color:#DD0035"
       id="stop66" /></linearGradient><linearGradient
     id="SVGID_2_"
     gradientUnits="userSpaceOnUse"
     x1="-0.28760001"
     y1="140.1602"
     x2="179.439"
     y2="140.1602"
     gradientTransform="translate(0.288,-3.437)"><stop
       offset="0"
       style="stop-color:#FFFFFF"
       id="stop71" /><stop
       offset="0.0653"
       style="stop-color:#FFFBF9"
       id="stop73" /><stop
       offset="0.1544"
       style="stop-color:#FDEEE7"
       id="stop75" /><stop
       offset="0.257"
       style="stop-color:#FBD9CB"
       id="stop77" /><stop
       offset="0.369"
       style="stop-color:#F8BCA3"
       id="stop79" /><stop
       offset="0.4286"
       style="stop-color:#F6AB8B"
       id="stop81" /><stop
       offset="0.6703"
       style="stop-color:#DD0035"
       id="stop83" /><stop
       offset="1"
       style="stop-color:#DD0035"
       id="stop85" /></linearGradient><linearGradient
     id="SVGID_3_"
     gradientUnits="userSpaceOnUse"
     x1="15.8486"
     y1="113.3262"
     x2="180.2832"
     y2="113.3262"
     gradientTransform="translate(0.288,-3.437)"><stop
       offset="0"
       style="stop-color:#FFFFFF"
       id="stop90" /><stop
       offset="0.0227"
       style="stop-color:#FEF6F2"
       id="stop92" /><stop
       offset="0.0988"
       style="stop-color:#FBDBCD"
       id="stop94" /><stop
       offset="0.1748"
       style="stop-color:#F9C6B0"
       id="stop96" /><stop
       offset="0.2501"
       style="stop-color:#F7B79C"
       id="stop98" /><stop
       offset="0.3241"
       style="stop-color:#F6AE8F"
       id="stop100" /><stop
       offset="0.3956"
       style="stop-color:#F6AB8B"
       id="stop102" /><stop
       offset="0.7143"
       style="stop-color:#DD0035"
       id="stop104" /><stop
       offset="1"
       style="stop-color:#DD0035"
       id="stop106" /></linearGradient><path
     d="m 158.886,0 -4.232,10.726 c 2.539,-0.735 5.278,-1.442 7.602,-2.13 L 158.886,0"
     id="path3"
     inkscape:connector-curvature="0"
     style="fill:#ffffff;fill-opacity:1" /><path
     d="m 147.5,26.302 c 5.429,-1.796 13.033,-4.219 18.522,-5.672 l -3.549,-8.998 c -3.409,1.189 -7.327,2.62 -10.714,3.875 L 147.5,26.302"
     id="path5"
     inkscape:connector-curvature="0"
     style="fill:#ffffff;fill-opacity:1" /><path
     d="m 141.035,42.672 c 9.61,-3.416 19.888,-6.621 29.834,-9.772 l -3.802,-9.635 c -7.224,2.503 -14.411,5.197 -21.542,8.034 l -4.49,11.373"
     id="path7"
     inkscape:connector-curvature="0"
     style="fill:#ffffff;fill-opacity:1" /><path
     d="m 138.705,48.569 -4.4,11.144 c 0.025,-0.011 0.036,-0.011 0.058,-0.029 13.55,-5.615 27.502,-10.042 41.387,-14.423 l -3.779,-9.563 c -10.472,3.638 -20.87,7.623 -31.149,11.964 -0.706,0.309 -1.419,0.62 -2.117,0.907"
     id="path9"
     inkscape:connector-curvature="0"
     style="fill:#ffffff;fill-opacity:1" /><path
     d="M 102.559,50.739 C 95.538,54.317 88.612,58.037 81.78,61.936 l 3.676,6.045 c 9.164,-4.852 18.718,-9.353 28.223,-13.665 l -11.12,-3.577"
     id="path11"
     inkscape:connector-curvature="0"
     style="fill:#ffffff;fill-opacity:1" /><path
     d="m 85.08,45.112 c -3.391,1.844 -6.763,3.703 -10.101,5.604 l 3.68,6.063 c 5.444,-2.9 11.192,-5.627 16.763,-8.325 L 85.08,45.112"
     id="path13"
     inkscape:connector-curvature="0"
     style="fill:#ffffff;fill-opacity:1" /><path
     d="m 202.526,203.402 c 2.803,-1.078 5.661,-1.905 8.498,-2.921 l -1.609,-9 c -5.052,2.012 -10.054,4.142 -14.995,6.397 l 8.106,5.524"
     id="path15"
     inkscape:connector-curvature="0"
     style="fill:#ffffff;fill-opacity:1" /><path
     d="m 68.294,39.721 3.904,6.419 c 1.845,-1.028 4.022,-2.286 5.891,-3.268 l -9.795,-3.151"
     id="path17"
     inkscape:connector-curvature="0"
     style="fill:#ffffff;fill-opacity:1" /><path
     d="m 212.805,210.418 -0.995,-5.585 c -1.501,0.613 -2.989,1.215 -4.483,1.859 l 5.478,3.726"
     id="path19"
     inkscape:connector-curvature="0"
     style="fill:#ffffff;fill-opacity:1" /><path
     d="m 104.858,143.201 4.228,0.863 c 33.257,-18.952 71.796,-32.337 108.871,-41.886 l -6.123,-3.801 3.688,-6.981 0.006,-0.012 c -13.584,3.9 -38.928,12.201 -62.147,23.117 -27.783,12.814 -51.308,28.116 -51.308,28.116 -7.774,4.967 -15.403,10.202 -22.881,15.687 l 2.623,0.539 c 7.533,-5.472 15.207,-10.693 23.043,-15.642"
     id="path21"
     inkscape:connector-curvature="0"
     style="fill:#ffffff;fill-opacity:1" /><path
     d="M 99.226,90.648 C 125.223,76.974 152.609,66.35 180.63,57.612 l -3.813,-9.63 C 134.927,62.388 95.16,82.5 58.459,107.963 l 2.374,0.76 c 11.63,-8.005 23.556,-15.487 35.764,-22.404 l 2.629,4.329"
     id="path23"
     inkscape:connector-curvature="0"
     style="fill:#ffffff;fill-opacity:1" /><path
     d="M 120.846,56.63 C 109.368,62.257 88.725,73.338 88.725,73.338 l 3.657,6.041 c 13.083,-6.884 26.5,-13.201 40.223,-18.953 L 120.846,56.63"
     id="path25"
     inkscape:connector-curvature="0"
     style="fill:#ffffff;fill-opacity:1" /><path
     d="m 109.31,174.833 c 42.896,-26.939 90.466,-43.512 140.299,-53.001 l -13.62,-8.452 c -44.715,11.203 -87.101,29.92 -125.621,55.498 l -1.058,5.955"
     id="path27"
     inkscape:connector-curvature="0"
     style="fill:#ffffff;fill-opacity:1" /><path
     d="m 106.077,192.97 c 33.901,-21.601 79.524,-47.334 159.999,-60.867 l -14.034,-8.773 c -52.191,11.244 -101.339,32.94 -144.977,64.025 l -0.988,5.615"
     id="path29"
     inkscape:connector-curvature="0"
     style="fill:#ffffff;fill-opacity:1" /><path
     d="m 220.476,103.747 c -37.654,10.661 -73.592,26.548 -106.904,47.258 l -1.159,6.472 c 37.509,-22.104 78.48,-36.1257 121.002,-45.7027 l -12.939,-8.0273"
     id="path31"
     inkscape:connector-curvature="0"
     style="fill:#ffffff;fill-opacity:1"
     sodipodi:nodetypes="ccccc" /><path
     d="m 103.676,206.274 -1.088,6.103 c 0,0 47.052,-33.817 101.375,-51.496 l -1.667,-9.289 c -35.229,13.117 -68.416,31.4853 -98.62,54.6823"
     id="path33"
     inkscape:connector-curvature="0"
     style="fill:#ffffff;fill-opacity:1"
     sodipodi:nodetypes="ccccc" /><path
     d="m 207.04,178.138 c -8.602,3.348 -17.059,7.041 -25.362,11.044 l 7.667,5.229 c 6.348,-2.64 12.813,-4.939 19.303,-7.211 l -1.608,-9.062"
     id="path35"
     inkscape:connector-curvature="0"
     style="fill:#ffffff;fill-opacity:1" /><path
     d="m 206.316,174.08 -1.646,-9.221 c -12.121,4.604 -23.99,9.864 -35.559,15.738 l 7.29,4.982 c 9.773,-4.339 19.781,-8.031 29.915,-11.499"
     id="path37"
     inkscape:connector-curvature="0"
     style="fill:#ffffff;fill-opacity:1" /><path
     d="m 205.054,91.862 c 3.938,-1.069 7.887,-2.103 11.828,-3.073 l 7.083,-13.424 c 0,0 0,0 -0.011,0 l 0.011,-0.022 c -8.421,2.153 -16.765,4.553 -25.031,7.209 l 6.12,9.31"
     id="path39"
     inkscape:connector-curvature="0"
     style="fill:#ffffff;fill-opacity:1" /><path
     d="m 195.796,77.677 1.46,2.246 c 9.278,-2.601 18.614,-4.949 28.001,-7.027 l 6.967,-13.228 c -8.86,2.032 -17.628,4.312 -26.309,6.867 l -10.119,11.142"
     id="path41"
     inkscape:connector-curvature="0"
     style="fill:#ffffff;fill-opacity:1" /><path
     d="m 240.272,44.36 c -19.655,4.008 -38.961,9.25 -57.836,15.686 l 6.574,8.233 c 14.631,-4.283 29.461,-7.895 44.392,-10.858 l 6.87,-13.06139"
     id="path43"
     inkscape:connector-curvature="0"
     style="fill:#ffffff;fill-opacity:1"
     sodipodi:nodetypes="ccccc" /><path
     d="m 181.151,98.882 8.548,-11.987 14.492,5.201 c -7.854,2.14 -15.284,4.3 -23.04,6.786"
     id="path45"
     inkscape:connector-curvature="0"
     style="fill:#dd0035" /><path
     d="M 48.752,165.323 C 88.185,132.335 132.44,106.715 179.801,89.146 l 0.225,10.114 c -31.212,10.168 -62.338,23.724 -90.201,40.83 l -3.388,-0.695 c -12.112,8.189 -23.856,17.019 -35.198,26.436 l -2.487,-0.508"
     id="path68"
     inkscape:connector-curvature="0"
     style="fill:url(#SVGID_1_)" /><path
     d="m 166.595,79.971 13.068,2.726 0.064,2.498 c -38.159,12.243 -74.899,29.137 -108.358,51.106 l -2.857,-0.599 c -20.36,14.614 -39.679,31.007 -57.761,49.081 -2.863,2.864 -5.684,5.76 -8.459,8.692 L 0,192.998 c 3.069,-3.232 6.177,-6.448 9.352,-9.618 45.589,-45.575 99.009,-80.461 157.243,-103.409"
     id="path87"
     inkscape:connector-curvature="0"
     style="fill:url(#SVGID_2_)" /><path
     d="m 48.528,131.545 c 40.243,-30.71 84.767,-54.528 132.043,-70.856 l -0.666,10.353 C 134.947,85.132 91.94,105.629 53.28,132.551 l -2.207,-0.447 c -11.19,8.469 -22.042,17.461 -32.538,26.986 l -2.399,-0.5 c 10.439,-9.514 21.237,-18.529 32.354,-27.02 l 0.038,-0.025"
     id="path108"
     inkscape:connector-curvature="0"
     style="fill:url(#SVGID_3_)" /><path
     style="fill:#ffffff;fill-opacity:1;stroke-width:1.35913408"
     inkscape:connector-curvature="0"
     id="path20"
     d="m 354.77439,210.38868 c 11.24748,-55.34234 21.77323,-110.739999 33.2211,-166.027027 30.93731,0.09679 46.933,0.01388 77.87031,0.02776 22.30801,-0.470173 45.45754,5.254896 63.43753,19.346314 13.31803,10.2747 22.05421,26.385103 23.87091,43.449693 2.57812,23.64702 -3.56661,48.80138 -18.70133,67.04139 -13.34474,16.35932 -32.64714,26.35746 -52.47054,31.4464 -12.26271,3.06996 -24.87276,4.42518 -37.46944,4.71558 H 354.77439 M 428.20936,86.98172 c -5.62374,26.85528 -10.94027,53.79354 -16.5106,80.66265 11.32769,-0.0691 22.6687,0.15212 34.00968,-0.11063 11.39446,-0.26275 23.02936,-4.30072 31.24457,-12.6809 11.78183,-12.18306 16.003,-31.2113 11.5414,-47.68125 -2.40447,-8.532298 -9.29726,-15.17006 -17.45904,-17.645394 -13.89239,-4.328372 -28.57291,-1.936012 -42.82601,-2.544476 z"
     sodipodi:nodetypes="cccccccccccccccc" /><path
     style="fill:#ffffff;fill-opacity:1;stroke-width:1.38289738"
     d="m 264.0968,44.387159 c -5.1837,24.204999 -10.2809,48.430074 -15.3497,72.661751 l 10.5505,6.53869 16.6645,10.41687 c -11.2527,1.89231 -21.912,3.99247 -32.0618,6.25489 -4.8705,23.37137 -9.7267,46.7457 -14.5971,70.11657 21.8358,0.0415 43.6864,-0.027 65.5224,0.0421 4.8539,-21.96041 9.2788,-44.01861 13.8977,-66.02051 19.8446,-0.0278 39.7031,0.0131 59.5477,-0.0146 -4.0243,22.08487 -9.08521,43.99014 -13.49661,66.00587 21.8498,0.0278 43.69901,-0.0398 65.56271,0.0293 11.9205,-55.27441 23.0382,-110.716201 34.9036,-165.990607 -22.0297,0 -44.05822,-0.123009 -66.07412,0.05676 -3.4018,19.263762 -8.04848,38.304989 -11.78238,57.513437 -19.9137,-0.0415 -39.8272,-0.0139 -59.7272,0 3.6785,-19.249935 8.2284,-38.31926 11.8378,-57.583018 -21.7944,-0.04164 -43.6035,0.01402 -65.398,-0.02747 z"
     id="path18-0"
     inkscape:connector-curvature="0"
     sodipodi:nodetypes="cccccccccccccccccc" /><g
     id="g1353"
     transform="matrix(1.057539,0,0,1.057539,-5.9028053,-12.720387)"
     style="fill:#ffffff;fill-opacity:1"><g
       transform="matrix(1.5395918,0,0,1.5395918,-55.355551,-119.28972)"
       id="g1250"
       style="fill:#ffffff;fill-opacity:1"><path
         d="m 109.80082,250 c -3.407,0 -5.644,-0.603 -7.213,-1.634 l 1.485,-4.527 c 0.887,0.604 2.531,1.272 4.434,1.286 2.292,0 3.705,-1.32 3.705,-3.291 0,-1.748 -1.05,-2.839 -3.846,-4.067 -4.293,-1.938 -5.488,-4.932 -5.488,-7.612 0,-4.648 3.374,-8.498 8.723,-8.483 2.968,0 5.133,0.718 6.447,1.599 l -1.366,3.973 c -0.945,-0.602 -2.426,-1.189 -4.108,-1.189 -2.165,0 -3.331,1.189 -3.331,3.138 0,1.997 1.398,3.004 3.719,4.044 5.325,2.411 6.077,5.318 6.077,8.13 -0.013,4.964 -3.802,8.64 -9.238,8.633"
         id="path130"
         inkscape:connector-curvature="0"
         style="fill:#ffffff;fill-opacity:1" /><path
         d="m 130.24882,232.769 c -2.558,0 -3.095,3.138 -3.095,6.712 0,3.625 0.56,6.552 3.095,6.56 2.568,0 3.102,-2.935 3.102,-6.56 -0.001,-3.574 -0.527,-6.712 -3.102,-6.712 m 0,17.209 c -5.815,0 -8.881,-4.417 -8.852,-10.432 0,-5.992 3.05,-10.388 8.823,-10.388 5.861,0 8.887,4.403 8.887,10.403 0,6.016 -3.054,10.439 -8.858,10.417 z"
         id="path132"
         inkscape:connector-curvature="0"
         style="fill:#ffffff;fill-opacity:1" /><path
         d="m 150.65982,250 c -5.663,0 -8.397,-2.129 -8.397,-6.952 v -13.51 h 5.799 l -0.007,13.911 c 0,1.459 0.796,2.622 2.768,2.622 1.042,0 1.761,-0.124 2.419,-0.452 l 0.007,-16.061 h 5.822 l -0.022,18.887 c -1.867,0.922 -4.612,1.555 -8.389,1.555"
         id="path134"
         inkscape:connector-curvature="0"
         style="fill:#ffffff;fill-opacity:1" /><path
         d="m 169.73882,249.934 c -4.209,0 -6.034,-2.724 -6.034,-5.811 v -10.815 h -2.193 l 0.015,-3.75 h 2.179 v -4.308 l 5.841,-1.48 v 5.788 h 3.087 v 3.75 h -3.095 v 10.379 c 0,1.541 0.548,2.339 1.867,2.339 0.484,0 0.719,-0.065 1.228,-0.239 l -0.008,3.59 c -0.501,0.223 -1.546,0.557 -2.887,0.557"
         id="path136"
         inkscape:connector-curvature="0"
         style="fill:#ffffff;fill-opacity:1" /><path
         d="m 187.14982,249.636 0.008,-13.961 c 0,-1.57 -0.704,-2.841 -2.968,-2.841 -0.921,0 -1.688,0.145 -2.463,0.561 l -0.013,16.241 h -5.816 l 0.022,-28.562 h 5.807 v 9.161 c 1.341,-0.604 2.739,-0.938 4.317,-0.938 5.036,0 6.939,2.906 6.939,6.268 l -0.015,14.093 -5.818,-0.022"
         id="path138"
         inkscape:connector-curvature="0"
         style="fill:#ffffff;fill-opacity:1" /><path
         d="m 204.26782,232.646 c -2.383,0 -3.86,2.041 -3.69,6.174 l 7.006,-1.037 c -0.001,-3.591 -1.173,-5.137 -3.316,-5.137 m -3.301,8.999 c 0.407,2.942 1.888,4.388 4.833,4.388 2.343,0.008 4.135,-0.484 5.227,-1.053 l 1.29,3.595 c -1.555,0.792 -3.795,1.453 -7.169,1.453 -6.167,0 -9.723,-4.067 -9.702,-10.481 0,-6.29 3.281,-10.35 9.059,-10.35 5.826,0 8.757,3.965 8.487,10.728 z"
         id="path140"
         inkscape:connector-curvature="0"
         style="fill:#ffffff;fill-opacity:1" /><path
         d="m 225.25582,233.378 c -1.413,-0.609 -2.905,-0.552 -3.875,-0.122 v 16.415 l -5.822,-0.014 0.015,-18.959 c 2.238,-1.097 5.368,-1.679 10.754,-1.416 l -1.072,4.096"
         id="path142"
         inkscape:connector-curvature="0"
         style="fill:#ffffff;fill-opacity:1" /><path
         d="m 239.37382,249.695 v -14.063 c 0.015,-1.404 -0.625,-2.798 -2.976,-2.798 -1.151,0 -1.774,0.167 -2.461,0.399 v 16.438 h -5.821 l 0.013,-18.973 c 2.009,-0.885 4.85,-1.497 8.419,-1.497 6.359,0 8.66,2.724 8.66,6.385 l -0.022,14.108 h -5.812"
         id="path144"
         inkscape:connector-curvature="0"
         style="fill:#ffffff;fill-opacity:1" /><path
         d="m 266.62782,250.071 c -7.438,0 -10.838,-6.702 -10.838,-14.164 0.008,-7.328 3.483,-14.156 10.908,-14.156 2.668,0 4.588,0.596 5.941,1.599 l -1.314,3.938 c -0.754,-0.479 -1.722,-0.851 -3.23,-0.851 -4.269,0 -5.608,4.708 -5.608,9.437 0,4.685 1.555,9.252 5.546,9.252 1.526,0 2.277,-0.317 3.173,-0.827 l 1.46,4.147 c -1.38,1.083 -3.396,1.625 -6.038,1.625"
         id="path146"
         inkscape:connector-curvature="0"
         style="fill:#ffffff;fill-opacity:1" /><path
         d="m 284.25782,233.41 c -1.412,-0.583 -2.888,-0.554 -3.845,-0.111 l -0.022,16.404 -5.814,-0.008 v -18.966 c 2.25,-1.082 5.382,-1.671 10.768,-1.418 l -1.087,4.099"
         id="path148"
         inkscape:connector-curvature="0"
         style="fill:#ffffff;fill-opacity:1" /><path
         d="m 294.41182,232.864 c -2.562,-0.008 -3.079,3.131 -3.079,6.713 -0.022,3.603 0.54,6.544 3.063,6.544 2.588,0 3.11,-2.941 3.11,-6.544 10e-4,-3.582 -0.513,-6.713 -3.094,-6.713 m -0.015,17.201 c -5.802,0 -8.852,-4.417 -8.852,-10.425 0,-6.008 3.05,-10.399 8.843,-10.399 5.87,0 8.898,4.406 8.898,10.399 -0.013,6.008 -3.044,10.431 -8.889,10.425 z"
         id="path150"
         inkscape:connector-curvature="0"
         style="fill:#ffffff;fill-opacity:1" /><path
         d="m 310.83782,250.057 c -2.448,0 -4.635,-0.64 -5.885,-1.46 l 1.5,-3.682 c 0.737,0.603 2.112,1.146 3.578,1.146 1.495,0 2.497,-0.938 2.497,-2.216 0,-1.322 -0.71,-2.076 -2.572,-2.817 -3.696,-1.452 -4.498,-3.488 -4.498,-5.601 0,-3.421 2.662,-6.169 6.693,-6.169 2.493,0 4.225,0.481 5.786,1.439 l -1.398,3.319 c -0.623,-0.464 -1.769,-1.039 -3.081,-1.039 -1.529,0 -2.302,0.923 -2.302,2.086 0,1.358 0.995,2.107 2.563,2.766 3.876,1.65 4.777,3.533 4.777,5.894 0.001,3.487 -2.887,6.334 -7.658,6.334"
         id="path152"
         inkscape:connector-curvature="0"
         style="fill:#ffffff;fill-opacity:1" /><path
         d="m 325.94182,250.065 c -2.462,0 -4.658,-0.647 -5.891,-1.468 l 1.481,-3.682 c 0.769,0.603 2.117,1.146 3.599,1.146 1.472,0 2.485,-0.938 2.485,-2.191 0,-1.331 -0.716,-2.101 -2.582,-2.842 -3.676,-1.438 -4.508,-3.488 -4.508,-5.579 0,-3.422 2.702,-6.19 6.729,-6.19 2.489,0 4.207,0.481 5.782,1.461 l -1.434,3.298 c -0.604,-0.464 -1.744,-1.031 -3.046,-1.031 -1.531,0 -2.312,0.945 -2.312,2.099 0,1.338 1.009,2.087 2.561,2.76 3.873,1.636 4.787,3.519 4.787,5.879 0.002,3.5 -2.897,6.34 -7.651,6.34"
         id="path154"
         inkscape:connector-curvature="0"
         style="fill:#ffffff;fill-opacity:1" /></g><g
       transform="translate(-0.85552131,7.3843027)"
       id="g1334"
       style="fill:#ffffff;fill-opacity:1"><path
         style="font-style:italic;font-variant:normal;font-weight:bold;font-stretch:normal;font-size:medium;line-height:25px;font-family:sans-serif;-inkscape-font-specification:'sans-serif Bold Italic';letter-spacing:0px;word-spacing:0px;fill:#ffffff;fill-opacity:1;stroke:none;stroke-width:1.15940607px;stroke-linecap:butt;stroke-linejoin:miter;stroke-opacity:1"
         sodipodi:nodetypes="scscscccscscccscccscccscc"
         inkscape:connector-curvature="0"
         id="path858"
         d="m 486.32,240.98744 c -1.52474,0 -2.7702,0.49819 -3.73637,1.49454 -0.95107,0.98126 -1.62287,2.46072 -2.01537,4.43836 -0.39251,1.97764 -0.30948,3.46462 0.24909,4.46099 0.57366,0.98126 1.62286,1.4719 3.14761,1.4719 1.53983,0 2.78529,-0.49064 3.73636,-1.4719 0.96617,-0.99637 1.64551,-2.48335 2.03803,-4.46099 0.3925,-1.97764 0.30192,-3.4571 -0.27175,-4.43836 -0.55856,-0.99635 -1.60777,-1.49454 -3.1476,-1.49454 z m 9.03522,-11.48085 c -1.20772,-0.33211 -2.41543,-0.49818 -3.62315,-0.49818 -2.59659,0 -4.76293,0.72464 -6.49901,2.17389 -1.7361,1.43416 -3.01174,3.57031 -3.82695,6.40844 1.14733,-0.73973 2.33994,-1.29075 3.57785,-1.65306 1.23791,-0.37742 2.54376,-0.56612 3.91753,-0.56612 3.45708,0 6.03858,1.01147 7.74447,3.03439 1.72099,2.02293 2.25691,4.67234 1.60777,7.94826 -0.72462,3.62314 -2.49091,6.5292 -5.29885,8.7182 -2.80793,2.17389 -6.20463,3.26083 -10.19009,3.26083 -4.39306,0 -7.49538,-1.47945 -9.30695,-4.43835 -1.81157,-2.97401 -2.17388,-7.18591 -1.08694,-12.63572 1.11713,-5.58568 3.40425,-9.97119 6.86133,-13.15653 3.45708,-3.20045 7.63879,-4.80068 12.54513,-4.80068 1.24488,0 2.44136,0.0775 3.58947,0.23223 z" /><path
         inkscape:connector-curvature="0"
         id="path860"
         style="font-style:italic;font-variant:normal;font-weight:bold;font-stretch:normal;font-size:medium;line-height:25px;font-family:sans-serif;-inkscape-font-specification:'sans-serif Bold Italic';letter-spacing:0px;word-spacing:0px;fill:#ffffff;fill-opacity:1;stroke:none;stroke-width:1.15940607px;stroke-linecap:butt;stroke-linejoin:miter;stroke-opacity:1"
         d="m 520.4834,240.73834 q 1.2681,-6.3405 0.58876,-8.92199 -0.67934,-2.60414 -3.48728,-2.60414 -2.80792,0 -4.52892,2.60414 -1.69835,2.58149 -2.96645,8.92199 -1.29074,6.40844 -0.61141,9.03521 0.67933,2.62679 3.48728,2.62679 2.78529,0 4.50629,-2.62679 1.72099,-2.62677 3.01173,-9.03521 z m 8.69555,0.0679 q -1.6757,8.40116 -6.22728,12.97538 -4.52892,4.55158 -11.18646,4.55158 -6.68018,0 -9.39753,-4.55158 -2.69472,-4.57422 -1.01901,-12.97539 1.67571,-8.42381 6.20464,-12.97538 4.55157,-4.57422 11.23175,-4.57422 6.65752,0 9.35222,4.57422 2.71737,4.55157 1.04167,12.97538 z" /></g></g></svg>