<?xml version="1.0" encoding="UTF-8" standalone="no"?>
<!-- Generator: Adobe Illustrator 13.0.0, SVG Export Plug-In . SVG Version: 6.00 Build 14948)  -->

<svg
   xmlns:dc="http://purl.org/dc/elements/1.1/"
   xmlns:cc="http://creativecommons.org/ns#"
   xmlns:rdf="http://www.w3.org/1999/02/22-rdf-syntax-ns#"
   xmlns:svg="http://www.w3.org/2000/svg"
   xmlns="http://www.w3.org/2000/svg"
   xmlns:sodipodi="http://sodipodi.sourceforge.net/DTD/sodipodi-0.dtd"
   xmlns:inkscape="http://www.inkscape.org/namespaces/inkscape"
   version="1.0"
   id="Layer_1"
   x="0px"
   y="0px"
   width="312.28268"
   height="266.44266"
   viewBox="0 0 292.76501 249.78998"
   enable-background="new 0 0 300 258.066"
   xml:space="preserve"
   inkscape:version="0.92.0 r15299"
   sodipodi:docname="Southern Cross Ten.svg"><metadata
     id="metadata146"><rdf:RDF><cc:Work
         rdf:about=""><dc:format>image/svg+xml</dc:format><dc:type
           rdf:resource="http://purl.org/dc/dcmitype/StillImage" /><dc:title /></cc:Work></rdf:RDF></metadata><defs
     id="defs144" /><sodipodi:namedview
     pagecolor="#ffffff"
     bordercolor="#666666"
     borderopacity="1"
     objecttolerance="10"
     gridtolerance="10"
     guidetolerance="10"
     inkscape:pageopacity="0"
     inkscape:pageshadow="2"
     inkscape:window-width="1920"
     inkscape:window-height="1017"
     id="namedview142"
     showgrid="false"
     fit-margin-top="0"
     fit-margin-left="0"
     fit-margin-right="0"
     fit-margin-bottom="0"
     inkscape:zoom="1.8289894"
     inkscape:cx="196.68893"
     inkscape:cy="128.93707"
     inkscape:window-x="-8"
     inkscape:window-y="-8"
     inkscape:window-maximized="1"
     inkscape:current-layer="Layer_1" /><path
     d="m 158.886,0 -4.232,10.726 c 2.539,-0.735 5.278,-1.442 7.602,-2.13 L 158.886,0"
     id="path3"
     inkscape:connector-curvature="0"
     style="fill:#ffffff;fill-opacity:1" /><path
     d="m 147.5,26.302 c 5.429,-1.796 13.033,-4.219 18.522,-5.672 l -3.549,-8.998 c -3.409,1.189 -7.327,2.62 -10.714,3.875 L 147.5,26.302"
     id="path5"
     inkscape:connector-curvature="0"
     style="fill:#ffffff;fill-opacity:1" /><path
     d="m 141.035,42.672 c 9.61,-3.416 19.888,-6.621 29.834,-9.772 l -3.802,-9.635 c -7.224,2.503 -14.411,5.197 -21.542,8.034 l -4.49,11.373"
     id="path7"
     inkscape:connector-curvature="0"
     style="fill:#ffffff;fill-opacity:1" /><path
     d="m 138.705,48.569 -4.4,11.144 c 0.025,-0.011 0.036,-0.011 0.058,-0.029 13.55,-5.615 27.502,-10.042 41.387,-14.423 l -3.779,-9.563 c -10.472,3.638 -20.87,7.623 -31.149,11.964 -0.706,0.309 -1.419,0.62 -2.117,0.907"
     id="path9"
     inkscape:connector-curvature="0"
     style="fill:#ffffff;fill-opacity:1" /><path
     d="M 102.559,50.739 C 95.538,54.317 88.612,58.037 81.78,61.936 l 3.676,6.045 c 9.164,-4.852 18.718,-9.353 28.223,-13.665 l -11.12,-3.577"
     id="path11"
     inkscape:connector-curvature="0"
     style="fill:#ffffff;fill-opacity:1" /><path
     d="m 85.08,45.112 c -3.391,1.844 -6.763,3.703 -10.101,5.604 l 3.68,6.063 c 5.444,-2.9 11.192,-5.627 16.763,-8.325 L 85.08,45.112"
     id="path13"
     inkscape:connector-curvature="0"
     style="fill:#ffffff;fill-opacity:1" /><path
     d="m 202.526,203.402 c 2.803,-1.078 5.661,-1.905 8.498,-2.921 l -1.609,-9 c -5.052,2.012 -10.054,4.142 -14.995,6.397 l 8.106,5.524"
     id="path15"
     inkscape:connector-curvature="0"
     style="fill:#ffffff;fill-opacity:1" /><path
     d="m 68.294,39.721 3.904,6.419 c 1.845,-1.028 4.022,-2.286 5.891,-3.268 l -9.795,-3.151"
     id="path17"
     inkscape:connector-curvature="0"
     style="fill:#ffffff;fill-opacity:1" /><path
     d="m 212.805,210.418 -0.995,-5.585 c -1.501,0.613 -2.989,1.215 -4.483,1.859 l 5.478,3.726"
     id="path19"
     inkscape:connector-curvature="0"
     style="fill:#ffffff;fill-opacity:1" /><path
     d="m 104.858,143.201 4.228,0.863 c 33.257,-18.952 71.796,-32.337 108.871,-41.886 l -6.123,-3.801 3.688,-6.981 0.006,-0.012 c -13.584,3.9 -38.928,12.201 -62.147,23.117 -27.783,12.814 -51.308,28.116 -51.308,28.116 -7.774,4.967 -15.403,10.202 -22.881,15.687 l 2.623,0.539 c 7.533,-5.472 15.207,-10.693 23.043,-15.642"
     id="path21"
     inkscape:connector-curvature="0"
     style="fill:#ffffff;fill-opacity:1" /><path
     d="M 99.226,90.648 C 125.223,76.974 152.609,66.35 180.63,57.612 l -3.813,-9.63 C 134.927,62.388 95.16,82.5 58.459,107.963 l 2.374,0.76 c 11.63,-8.005 23.556,-15.487 35.764,-22.404 l 2.629,4.329"
     id="path23"
     inkscape:connector-curvature="0"
     style="fill:#ffffff;fill-opacity:1" /><path
     d="M 120.846,56.63 C 109.368,62.257 88.725,73.338 88.725,73.338 l 3.657,6.041 c 13.083,-6.884 26.5,-13.201 40.223,-18.953 L 120.846,56.63"
     id="path25"
     inkscape:connector-curvature="0"
     style="fill:#ffffff;fill-opacity:1" /><path
     d="m 109.31,174.833 c 42.896,-26.939 90.466,-43.512 140.299,-53.001 l -13.62,-8.452 c -44.715,11.203 -87.101,29.92 -125.621,55.498 l -1.058,5.955"
     id="path27"
     inkscape:connector-curvature="0"
     style="fill:#ffffff;fill-opacity:1" /><path
     d="m 106.077,192.97 c 33.901,-21.601 79.524,-47.334 159.999,-60.867 l -14.034,-8.773 c -52.191,11.244 -101.339,32.94 -144.977,64.025 l -0.988,5.615"
     id="path29"
     inkscape:connector-curvature="0"
     style="fill:#ffffff;fill-opacity:1" /><path
     d="m 220.476,103.747 c -37.654,10.661 -73.592,26.548 -106.904,47.258 l -1.159,6.472 c 37.509,-22.104 78.48,-36.126 121.002,-45.703 l -12.939,-8.027"
     id="path31"
     inkscape:connector-curvature="0"
     style="fill:#ffffff;fill-opacity:1" /><path
     d="m 103.676,206.274 -1.088,6.103 c 0,0 47.052,-33.817 101.375,-51.496 l -1.667,-9.289 c -35.229,13.117 -68.416,31.485 -98.62,54.682"
     id="path33"
     inkscape:connector-curvature="0"
     style="fill:#ffffff;fill-opacity:1" /><path
     d="m 207.04,178.138 c -8.602,3.348 -17.059,7.041 -25.362,11.044 l 7.667,5.229 c 6.348,-2.64 12.813,-4.939 19.303,-7.211 l -1.608,-9.062"
     id="path35"
     inkscape:connector-curvature="0"
     style="fill:#ffffff;fill-opacity:1" /><path
     d="m 206.316,174.08 -1.646,-9.221 c -12.121,4.604 -23.99,9.864 -35.559,15.738 l 7.29,4.982 c 9.773,-4.339 19.781,-8.031 29.915,-11.499"
     id="path37"
     inkscape:connector-curvature="0"
     style="fill:#ffffff;fill-opacity:1" /><path
     d="m 205.054,91.862 c 3.938,-1.069 7.887,-2.103 11.828,-3.073 l 7.083,-13.424 c 0,0 0,0 -0.011,0 l 0.011,-0.022 c -8.421,2.153 -16.765,4.553 -25.031,7.209 l 6.12,9.31"
     id="path39"
     inkscape:connector-curvature="0"
     style="fill:#ffffff;fill-opacity:1" /><path
     d="m 195.796,77.677 1.46,2.246 c 9.278,-2.601 18.614,-4.949 28.001,-7.027 l 6.967,-13.228 c -8.86,2.032 -17.628,4.312 -26.309,6.867 l -10.119,11.142"
     id="path41"
     inkscape:connector-curvature="0"
     style="fill:#ffffff;fill-opacity:1" /><path
     d="m 240.272,44.36 c -19.655,4.008 -38.961,9.25 -57.836,15.686 l 6.574,8.233 c 14.631,-4.283 29.461,-7.895 44.392,-10.858 l 6.87,-13.061"
     id="path43"
     inkscape:connector-curvature="0"
     style="fill:#ffffff;fill-opacity:1" /><path
     d="m 17.206,249.704 c -3.386,0 -5.614,-0.593 -7.184,-1.631 l 1.484,-4.501 c 0.872,0.598 2.521,1.274 4.42,1.293 2.28,0 3.682,-1.339 3.682,-3.29 0,-1.753 -1.031,-2.833 -3.814,-4.063 -4.287,-1.91 -5.477,-4.909 -5.477,-7.594 0,-4.617 3.36,-8.459 8.695,-8.448 2.951,0 5.112,0.719 6.427,1.597 l -1.365,3.969 c -0.954,-0.613 -2.429,-1.209 -4.102,-1.209 -2.155,0 -3.311,1.196 -3.311,3.127 0,2.005 1.393,3.002 3.705,4.041 5.307,2.395 6.065,5.294 6.065,8.102 -0.005,4.948 -3.804,8.625 -9.225,8.607"
     id="path45"
     style="fill:#ffffff;fill-opacity:1"
     inkscape:connector-curvature="0" /><path
     d="m 37.594,232.523 c -2.56,0 -3.091,3.128 -3.091,6.691 0,3.615 0.555,6.537 3.082,6.537 2.552,0 3.1,-2.922 3.1,-6.537 -0.001,-3.563 -0.536,-6.691 -3.091,-6.691 m -0.009,17.164 c -5.79,0 -8.837,-4.429 -8.831,-10.4 0,-5.975 3.053,-10.363 8.79,-10.363 5.856,0 8.874,4.403 8.874,10.393 -10e-4,5.975 -3.041,10.37 -8.833,10.37 z"
     id="path47"
     style="fill:#ffffff;fill-opacity:1"
     inkscape:connector-curvature="0" /><path
     d="m 57.935,249.704 c -5.639,-0.017 -8.385,-2.125 -8.385,-6.942 l 0.006,-13.443 h 5.784 v 13.846 c 0,1.456 0.783,2.637 2.758,2.637 1.028,0 1.764,-0.146 2.406,-0.461 l 0.006,-16.021 5.79,0.013 v 18.817 c -1.868,0.916 -4.598,1.554 -8.365,1.554"
     id="path49"
     style="fill:#ffffff;fill-opacity:1"
     inkscape:connector-curvature="0" /><path
     d="m 76.943,249.634 c -4.192,0 -6.01,-2.71 -6.01,-5.795 l 0.007,-10.764 h -2.193 l 0.012,-3.745 h 2.185 v -4.277 l 5.804,-1.491 v 5.769 h 3.075 l -0.007,3.745 h -3.067 l -0.007,10.336 c 0,1.52 0.543,2.322 1.852,2.322 0.483,0 0.735,-0.067 1.223,-0.209 v 3.557 c -0.488,0.219 -1.54,0.552 -2.874,0.552"
     id="path51"
     style="fill:#ffffff;fill-opacity:1"
     inkscape:connector-curvature="0" /><path
     d="m 94.29,249.36 0.007,-13.937 c 0,-1.563 -0.71,-2.82 -2.962,-2.82 -0.932,0 -1.675,0.146 -2.464,0.545 v 16.212 h -5.79 l 0.012,-28.485 h 5.782 L 88.87,230 c 1.364,-0.588 2.759,-0.932 4.308,-0.932 5.022,0.016 6.929,2.897 6.929,6.258 l -0.018,14.034 H 94.29"
     id="path53"
     style="fill:#ffffff;fill-opacity:1"
     inkscape:connector-curvature="0" /><path
     d="m 111.361,232.387 c -2.384,0 -3.859,2.038 -3.681,6.178 l 6.986,-1.04 c 0,-3.561 -1.188,-5.138 -3.305,-5.138 m -3.309,8.977 c 0.421,2.947 1.878,4.388 4.825,4.388 2.335,0 4.129,-0.505 5.202,-1.055 l 1.288,3.595 c -1.556,0.774 -3.791,1.451 -7.152,1.451 -6.138,0 -9.661,-4.059 -9.655,-10.445 0,-6.291 3.27,-10.321 9.033,-10.321 5.787,0.013 8.728,3.927 8.449,10.686 z"
     id="path55"
     style="fill:#ffffff;fill-opacity:1"
     inkscape:connector-curvature="0" /><path
     d="m 132.272,233.148 c -1.412,-0.612 -2.904,-0.577 -3.869,-0.126 v 16.354 l -5.804,-0.017 0.022,-18.896 c 2.227,-1.073 5.347,-1.667 10.72,-1.408 l -1.069,4.093"
     id="path57"
     style="fill:#ffffff;fill-opacity:1"
     inkscape:connector-curvature="0" /><path
     d="m 146.338,249.387 v -14.008 c 0,-1.403 -0.618,-2.776 -2.962,-2.776 -1.148,0 -1.767,0.174 -2.456,0.392 v 16.382 h -5.787 l 0.011,-18.913 c 1.99,-0.867 4.834,-1.475 8.382,-1.463 6.344,0 8.623,2.71 8.623,6.348 l -0.024,14.039 h -5.787"
     id="path59"
     style="fill:#ffffff;fill-opacity:1"
     inkscape:connector-curvature="0" /><path
     d="m 173.496,249.79 c -7.424,0 -10.793,-6.7 -10.793,-14.117 0.011,-7.307 3.468,-14.132 10.861,-14.132 2.654,0 4.583,0.604 5.945,1.595 l -1.329,3.928 c -0.757,-0.477 -1.734,-0.842 -3.226,-0.842 -4.236,0 -5.592,4.707 -5.592,9.402 0,4.673 1.551,9.241 5.528,9.241 1.522,0 2.269,-0.34 3.166,-0.847 l 1.462,4.14 c -1.382,1.08 -3.38,1.632 -6.022,1.632"
     id="path61"
     style="fill:#ffffff;fill-opacity:1"
     inkscape:connector-curvature="0" /><path
     d="m 191.077,233.185 c -1.423,-0.614 -2.894,-0.569 -3.858,-0.109 v 16.321 h -5.81 l 0.013,-18.893 c 2.219,-1.08 5.35,-1.678 10.726,-1.401 l -1.071,4.082"
     id="path63"
     style="fill:#ffffff;fill-opacity:1"
     inkscape:connector-curvature="0" /><path
     d="m 201.184,232.633 c -2.543,-0.018 -3.065,3.106 -3.065,6.683 -0.012,3.589 0.537,6.527 3.054,6.527 2.566,0 3.101,-2.938 3.101,-6.527 -0.002,-3.576 -0.531,-6.683 -3.09,-6.683 m -0.012,17.147 c -5.777,0 -8.818,-4.413 -8.818,-10.389 0,-5.995 3.046,-10.364 8.796,-10.364 5.857,0 8.878,4.382 8.878,10.364 -0.014,5.976 -3.04,10.389 -8.856,10.389 z"
     id="path65"
     style="fill:#ffffff;fill-opacity:1"
     inkscape:connector-curvature="0" /><path
     d="m 217.57,249.754 c -2.458,0 -4.641,-0.627 -5.879,-1.452 l 1.491,-3.683 c 0.748,0.6 2.107,1.162 3.566,1.162 1.482,0 2.486,-0.917 2.486,-2.198 0,-1.328 -0.701,-2.068 -2.557,-2.82 -3.68,-1.447 -4.482,-3.486 -4.482,-5.569 0,-3.422 2.664,-6.167 6.683,-6.149 2.471,0 4.19,0.479 5.745,1.432 l -1.393,3.317 c -0.609,-0.499 -1.768,-1.045 -3.068,-1.045 -1.521,0 -2.282,0.93 -2.282,2.089 0,1.321 0.993,2.074 2.544,2.729 3.863,1.648 4.771,3.53 4.771,5.879 0,3.478 -2.878,6.308 -7.625,6.308"
     id="path67"
     style="fill:#ffffff;fill-opacity:1"
     inkscape:connector-curvature="0" /><path
     d="m 232.597,249.761 c -2.447,0 -4.642,-0.634 -5.87,-1.446 l 1.489,-3.674 c 0.751,0.589 2.112,1.141 3.569,1.141 1.481,0 2.493,-0.917 2.493,-2.188 0,-1.326 -0.706,-2.078 -2.562,-2.819 -3.681,-1.444 -4.495,-3.478 -4.495,-5.568 0,-3.416 2.68,-6.161 6.695,-6.161 2.473,0 4.196,0.488 5.758,1.446 l -1.413,3.313 c -0.609,-0.492 -1.756,-1.046 -3.042,-1.046 -1.529,0 -2.307,0.931 -2.307,2.086 0,1.314 0.998,2.067 2.545,2.738 3.861,1.632 4.774,3.524 4.774,5.875 0.001,3.477 -2.886,6.303 -7.634,6.303"
     id="path69"
     style="fill:#ffffff;fill-opacity:1"
     inkscape:connector-curvature="0" /><polyline
     points="254.613,228.123 254.613,252.824 250.985,252.824 250.985,228.123 245.576,228.123   245.576,225.677 260.022,225.677 260.022,228.123 254.613,228.123 "
     id="polyline71"
     style="fill:#ffffff;fill-opacity:1"
     transform="translate(0.288,-3.437)" /><path
     d="m 266.66,230.959 c -2.933,0 -5.097,2.354 -5.029,7.826 l 9.669,-1.466 c 0,-4.57 -1.758,-6.36 -4.64,-6.36 m -4.914,9.586 c 0.36,4.577 2.509,6.816 6.144,6.816 2.285,0 3.94,-0.546 4.989,-1.161 l 0.856,2.176 c -1.229,0.751 -3.364,1.385 -6.104,1.385 -5.287,0 -8.997,-3.329 -8.997,-10.531 0,-6.855 3.371,-10.421 8.127,-10.421 4.845,0 7.771,3.156 7.684,9.895 z"
     id="path73"
     style="fill:#ffffff;fill-opacity:1"
     inkscape:connector-curvature="0" /><path
     d="m 289.472,249.387 v -14.503 c 0,-1.878 -0.798,-3.926 -4.243,-3.926 -1.864,0 -2.772,0.263 -3.825,0.703 v 17.726 h -3.294 v -19.144 c 1.798,-0.867 4.158,-1.435 7.386,-1.435 5.625,0 7.269,3.111 7.269,6.001 v 14.577 h -3.293"
     id="path75"
     style="fill:#ffffff;fill-opacity:1"
     inkscape:connector-curvature="0" /><path
     d="m 181.151,98.882 8.548,-11.987 14.492,5.201 c -7.854,2.14 -15.284,4.3 -23.04,6.786"
     id="path77"
     inkscape:connector-curvature="0"
     style="fill:#ffffff;fill-opacity:1" /><linearGradient
     id="SVGID_1_"
     gradientUnits="userSpaceOnUse"
     x1="48.464401"
     y1="130.9248"
     x2="179.7383"
     y2="130.9248"
     gradientTransform="translate(0.288,-3.437)"><stop
       offset="0"
       style="stop-color:#FFFFFF"
       id="stop80" /><stop
       offset="0.0231"
       style="stop-color:#FCF5E0"
       id="stop82" /><stop
       offset="0.049"
       style="stop-color:#FAECC5"
       id="stop84" /><stop
       offset="0.0788"
       style="stop-color:#F8E5AF"
       id="stop86" /><stop
       offset="0.1136"
       style="stop-color:#F6E09E"
       id="stop88" /><stop
       offset="0.1566"
       style="stop-color:#F5DC93"
       id="stop90" /><stop
       offset="0.217"
       style="stop-color:#F4DA8C"
       id="stop92" /><stop
       offset="0.3846"
       style="stop-color:#F4D98A"
       id="stop94" /><stop
       offset="0.6703"
       style="stop-color:#ECC402"
       id="stop96" /><stop
       offset="1"
       style="stop-color:#ECC402"
       id="stop98" /></linearGradient><path
     d="M 48.752,165.323 C 88.185,132.335 132.44,106.715 179.801,89.146 l 0.225,10.114 c -31.212,10.168 -62.338,23.724 -90.201,40.83 l -3.388,-0.695 c -12.112,8.189 -23.856,17.019 -35.198,26.436 l -2.487,-0.508"
     id="path100"
     inkscape:connector-curvature="0"
     style="fill:url(#SVGID_1_)" /><linearGradient
     id="SVGID_2_"
     gradientUnits="userSpaceOnUse"
     x1="-0.28760001"
     y1="140.1602"
     x2="179.439"
     y2="140.1602"
     gradientTransform="translate(0.288,-3.437)"><stop
       offset="0"
       style="stop-color:#FFFFFF"
       id="stop103" /><stop
       offset="0.065"
       style="stop-color:#FEFDF9"
       id="stop105" /><stop
       offset="0.1535"
       style="stop-color:#FDF7E7"
       id="stop107" /><stop
       offset="0.2556"
       style="stop-color:#FAEECB"
       id="stop109" /><stop
       offset="0.3671"
       style="stop-color:#F6E1A3"
       id="stop111" /><stop
       offset="0.4286"
       style="stop-color:#F4D98A"
       id="stop113" /><stop
       offset="0.6703"
       style="stop-color:#ECC402"
       id="stop115" /><stop
       offset="1"
       style="stop-color:#ECC402"
       id="stop117" /></linearGradient><path
     d="m 166.595,79.971 13.068,2.726 0.064,2.498 c -38.159,12.243 -74.899,29.137 -108.358,51.106 l -2.857,-0.599 c -20.36,14.614 -39.679,31.007 -57.761,49.081 -2.863,2.864 -5.684,5.76 -8.459,8.692 L 0,192.998 c 3.069,-3.232 6.177,-6.448 9.352,-9.618 45.589,-45.575 99.009,-80.461 157.243,-103.409"
     id="path119"
     inkscape:connector-curvature="0"
     style="fill:url(#SVGID_2_)" /><linearGradient
     id="SVGID_3_"
     gradientUnits="userSpaceOnUse"
     x1="15.8486"
     y1="113.3262"
     x2="180.2832"
     y2="113.3262"
     gradientTransform="translate(0.288,-3.437)"><stop
       offset="0"
       style="stop-color:#FFFFFF"
       id="stop122" /><stop
       offset="0.0244"
       style="stop-color:#FEFBF1"
       id="stop124" /><stop
       offset="0.1001"
       style="stop-color:#FAEFCC"
       id="stop126" /><stop
       offset="0.1758"
       style="stop-color:#F8E5AF"
       id="stop128" /><stop
       offset="0.2507"
       style="stop-color:#F6DE9B"
       id="stop130" /><stop
       offset="0.3245"
       style="stop-color:#F4DA8E"
       id="stop132" /><stop
       offset="0.3956"
       style="stop-color:#F4D98A"
       id="stop134" /><stop
       offset="0.7143"
       style="stop-color:#ECC402"
       id="stop136" /><stop
       offset="1"
       style="stop-color:#ECC402"
       id="stop138" /></linearGradient><path
     d="m 48.528,131.545 c 40.243,-30.71 84.767,-54.528 132.043,-70.856 l -0.666,10.353 C 134.947,85.132 91.94,105.629 53.28,132.551 l -2.207,-0.447 c -11.19,8.469 -22.042,17.461 -32.538,26.986 l -2.399,-0.5 c 10.439,-9.514 21.237,-18.529 32.354,-27.02 l 0.038,-0.025"
     id="path140"
     inkscape:connector-curvature="0"
     style="fill:url(#SVGID_3_)" /></svg>