<?xml version="1.0" encoding="UTF-8"?>
<svg id="svg2" width="516.22pt" height="600.65pt" version="1.1" viewBox="0 0 516.22 600.65" xmlns="http://www.w3.org/2000/svg" xmlns:cc="http://creativecommons.org/ns#" xmlns:dc="http://purl.org/dc/elements/1.1/" xmlns:rdf="http://www.w3.org/1999/02/22-rdf-syntax-ns#">
 <metadata id="metadata33">
  <rdf:RDF>
   <cc:Work rdf:about="">
    <dc:format>image/svg+xml</dc:format>
    <dc:type rdf:resource="http://purl.org/dc/dcmitype/StillImage"/>
    <dc:title/>
   </cc:Work>
  </rdf:RDF>
 </metadata>
 <path id="path6" d="m156.53 8.9732c5.18-5.86 13.06-9.41 20.92-8.93 4.61-0.13 8.58 2.49 12.62 4.32 3.94 1.8 6.65 5.48 8.45 9.31 2.74 5.94 0.56 12.88 3.23 18.83 1.99 4.14 5.56 7.15 8.8 10.28 5.32 5.02 10.27 10.41 15.6 15.41 5.69 5.31 10.49 11.51 16.42 16.56 2.77 2.55 6.68 2.66 10.21 3.06 6.24 0.69 12.87 0.94 18.74-1.68 5.28-2.49 8.47-7.58 12.46-11.61 11.13-10.17 21.56-21.12 31.39-32.53 1.56-4.88-0.31-10.43 1.76-15.3 2.84-6.99 8.42-13.74 16.25-15.02 5.1-0.75 10.46-0.69 15.39 0.94 5.83 2.16 9.37 7.75 11.9 13.12 5.06 10.46 1.57 24.75-8.77 30.64-4.84 3.1-10.81 2.45-16.27 2.98-4.05 0.27-7.66 2.5-10.47 5.3-4.36 4.31-8.21 9.12-12.51 13.5-2.77 2.84-6.03 5.25-8.23 8.6 40.077 8.7969 75.749 6.6598 111.41 14.6 6.49 1.43 12.93 3.04 19.31 4.93 8.13 2.26 16.57 4.4 23.57 9.33 4.08 2.95 8.6 5.28 12.42 8.59 12.91 11.61 20.36 27.78 26.11 43.85 6.13 19.64 10.12 39.9 12.71 60.29 2.02 13.41 2.38 26.98 3.77 40.46 1.35 22.75 3.3 45.55 2.14 68.36 0.54273 23.686-1.3529 46.77-2.21 68.75-1.77 24.21-4.72 48.38-10.05 72.08-3.05 16.32-8.51 32.21-15.96 47.04-6.7974 12.245-17.029 21.137-27.66 28.4-10.12 7.25-22.92 8.43-34.33 12.66-1.67 0.66-3.39 1.86-3.52 3.84-1.62 9.35 5.17 17.67 4.63 26.96-1.8396 8.8592-7.7316 14.026-16.33 13.73-15.63-0.78122-18.544-13.864-26.06-24.59-2.62-3.62-4.87-8.18-9.31-9.81-4.18-0.68-8.4 0.37-12.6 0.34-70.848 6.4596-143.29 5.7702-210.77-0.24-5.32-0.37-11.73-1.3-15.69 3.18-8.26 8.92-11.75 21.76-22 28.95-6.55 3.58-16.08 2.98-20.91-3.21-3.31-4.39-5-10.42-3.17-15.76 2.06-6.35 5.02-12.69 4.66-19.53-0.05-2.59-2.78-3.63-4.83-4.34-8.68-2.61-17.79-4.06-26.01-8.02-6.16-3.31-12.07-7.11-17.59-11.41-7.18-5.5-12.81-12.75-17.6-20.35-7.74-13.52-11.96-28.72-15.29-43.84-5.1-17.6-6.5-35.98-8.91-54.08-2.75-34.25-5.08-68.62-4.14-103 0.42-20.54 0.76-41.12 2.72-61.58 0.81-15.45 2.07-30.89 4.79-46.13 1.69-13.82 4.45-27.5 8.15-40.92 4.95-13.64 8.95-28.18 18.32-39.6 2.57-3.11 4.79-6.51 7.55-9.45 13.06-12.4 30.13-19.97 47.74-23.14 8.69-1.39 17.03-4.48 25.79-5.53 23.625-4.2884 49.102-5.6196 71.18-7.67 8-0.81 16.48-0.46 23.81-4.28-2.14-4.47-6.27-7.42-9.57-10.97-4.61-4.69-8.48-10.22-13.89-14.07-6.96-4.02-15.88-0.94-22.73-5.3-5.79-3.4-9.71-9.47-11.98-15.64-0.89-7.38-0.56-15.69 4.44-21.66" fill="#ff553e"/>
 <path id="path8" d="m183.05 452.37c1.25-2.86 4.95-3.59 7.72-2.74 2.48 0.77 5.51 1.56 6.88 3.97 1 3.57 0.95 8.68-2.9 10.55-3.44 1.06-7.22 1.16-10.67 0.06-1.57-3.71-1.67-7.92-1.03-11.84z" fill="#ff553e"/>
 <path id="path10" d="m130.74 451.01c4.18-1.49 10.45 0.09 12.08 4.68 3.55 7.16-7.79 15.36-13.46 10.02-0.73-4.46-0.75-9.11 0.05-13.56 0.33-0.29 1-0.86 1.33-1.14z" fill="#ff553e"/>
 <path id="path13" d="m190.27 171.55c7.57-2.64 16.92-0.98 22.29 5.24 1.72 1.89 2.06 4.53 2.64 6.92 0.7 3.37 1.61 6.72 1.71 10.17-0.08 61.7 0 123.4-0.03 185.09-2.7035 15.361-8.0823 20.837-23.46 20.64-5.14-0.07-10.46 0.39-15.39-1.38-4.56-1.55-8.31-4.93-11.01-8.84-2.68-3.96-2.17-8.96-2.32-13.49-0.05-39.66-0.07-79.32-0.02-118.99 0.01-6.6-0.1-13.21-0.74-19.78-6.26 0.23-11.27 4.6-17.15 6.23-4.58 1.28-9.82 3.05-14.33 0.59-7.56-3.55-12.1-11.3-14.26-19.07-0.6-6.33-1.31-13.77 3.28-18.89 5.21-5.93 12.63-9.15 19.56-12.6 16.26-7.61 32.38-15.58 49.23-21.84z" fill="#fdfcfc"/>
 <path id="path15" d="m258.94 176.46c5.35-2.75 11.53-3.29 17.46-3.35 22.67 0.07 45.34-0.04 68.02 0.01 6.23 0.08 12.84-0.82 18.64 2.08 6.93 2.59 11.13 9.85 12.02 16.92 0.49 7.06 0.43 15.17-4.87 20.58-4.39 5.69-12.04 6.81-18.76 7-12.01 0.06-24.02 0.04-36.03-0.05-5.02 0.06-10.2-0.26-15.04 1.25-1.89 0.62-2.01 2.9-2.37 4.54-0.81 7.12-0.77 14.31-1.64 21.42-0.32 3.5-0.8 7.18 0.55 10.54 5.38 1.77 11.02-0.21 16.53 0.35 14.09 1.37 28.79 3.33 41.01 11.04 6.62 4.2 13.88 7.98 18.44 14.61 4.99 7.17 9.54 14.93 11.34 23.58 2.46 11 2.2 22.44 0.62 33.54-2.6 16.2-11.25 31.46-24.45 41.35-17.916 14.298-36.744 16.577-57.08 19.17-10.35 1.28-20.63-0.75-30.88-1.91-12.06-1.83-23.09-7.49-33.02-14.36-3.52-2.39-4.25-6.97-4.55-10.89-0.66-7.86 1.04-16.25 6.03-22.51 4-4.31 9.27-8.5 15.5-8.14 6.16-0.23 11.82 2.49 17.53 4.4 10.55 4.07 21.93 7.06 33.32 5.44 7.78-0.91 15.07-5.51 19.33-12.06 3.49-6.88 4.3-15.13 2.54-22.61-2.31-6.67-6.9-13.14-13.73-15.68-19.238-8.2794-44.667 4.1901-59.83-2.1-6.82-2.16-9.71-9.46-10.72-15.93-1.03-13.27 0.52-26.54 1.48-39.77 1.78-17.29 2.36-34.68 4.21-51.96 0.52-6.27 2.68-13.12 8.4-16.5z" fill="#fdfcfc"/>
 <path id="path19" d="m78.792 434.44c7.36-0.77 15.71-0.63 21.57 4.55 3.93 3.17 3.99 10.6-0.95 12.84-6.18 2.81-12.64-3.92-18.73-0.77-2.9 1.63-1.37 5.32 0.93 6.7 6.7 4.54 13.92 8.54 19.68 14.3 4.95 4.78 3.92 12.24 3.47 18.45-0.67 7.39-7.46 12.24-13.81 14.8-7.46 2.25-15.55 1.42-23.07-0.16-6.5-1.16-10.77-11.23-4.54-15.36 5.88-2.66 11.72 2.23 17.67 1.63 3.61-0.82 7.97-5.24 4.8-8.81-5.1-5.58-13.11-7.26-18.35-12.71-3.76-4.09-7.31-9.14-6.93-14.98-0.87-10.4 8.36-19.29 18.26-20.48z" fill="#fdfcfc"/>
 <path id="path21" d="m118.76 436.11c5.45-1.27 11.12-0.46 16.66-0.68 6.64-0.31 13.09 2.25 18.49 5.95 5.64 4.67 7.89 12.47 6.85 19.58-0.4 6.48-4.67 11.81-9.15 16.14-6.01 4.96-14.8 3.61-21.1 7.88-3.93 5.79 1.29 14.52-4.18 19.78-4.26 1.26-10.94 2.44-13.52-2.28-1.69-2.51-1.78-5.64-1.75-8.56 0.17-11.34 0.06-22.68 0.1-34.01 0.07-5.88-0.43-11.83 0.74-17.62 0.6-3.33 3.91-5.22 6.86-6.18m11.98 14.9c-0.33 0.28-1 0.85-1.33 1.14-0.8 4.45-0.78 9.1-0.05 13.56 5.67 5.34 17.01-2.86 13.46-10.02-1.63-4.59-7.9-6.17-12.08-4.68z" fill="#fdfcfc"/>
 <path id="path23" d="m173.78 436.21c5.77-1.38 11.77-0.52 17.65-0.77 6.11-0.32 12.22 1.6 17.09 5.31 6.68 4.54 8.21 13.9 6.14 21.25-1.21 4.9-5.4 8.15-7.49 12.59-1.54 4.07 1.63 7.83 3.43 11.24 2.52 4.67 7.14 7.84 9.33 12.7 1.17 2.14 0.14 4.93-2.07 5.91-4.61 2.05-10.86 1.22-13.85-3.17-4.78-6.84-8.02-14.92-14.17-20.73-2.38-0.66-6.76-0.76-6.85 2.62-0.49 6.52 0.81 13.64-2.69 19.56-2.82 3.77-8.66 2.89-11.97 0.28-1.34-2.46-1.3-5.36-1.37-8.08 0.09-15.67 0.07-31.35 0.05-47.03 0.09-2.71 0.03-5.59 1.33-8.05 1.24-1.87 3.34-2.99 5.44-3.63m9.27 16.16c-0.64 3.92-0.54 8.13 1.03 11.84 3.45 1.1 7.23 1 10.67-0.06 3.85-1.87 3.9-6.98 2.9-10.55-1.37-2.41-4.4-3.2-6.88-3.97-2.77-0.85-6.47-0.12-7.72 2.74z" fill="#fdfcfc"/>
 <path id="path25" d="m277.65 441.89c-0.41-3.39 2.51-5.96 5.73-6.08 7.99-0.66 16.05-0.18 24.06-0.22 3.56 0.38 8.63 0.01 10.32 3.95 0.65 2.88 1.36 7.16-1.74 8.88-5.7 2.78-12.25 1.44-18.26 2.79-3.51 0.72-4.89 6.13-1.67 8.14 4.38 2.43 9.72 1.1 14.36 2.62 4.17 2.01 4.75 7.92 2.58 11.58-1.09 2.04-3.61 1.82-5.57 2.05-4.16 0.37-8.47 0.32-12.4 1.92-1.24 3.25-1.35 6.87-0.69 10.26 0.21 1.35 1.45 2.17 2.67 2.56 6.5 2.05 13.57-0.25 20.03 1.91 3.62 1.07 3.38 5.44 3.03 8.44-0.21 2.89-2.69 5.29-5.66 4.96-11.18-0.03-22.43 1.19-33.54-0.44-3.95-1.63-3.1-6.84-3.52-10.29 0.52-17.67 0.2-35.36 0.27-53.03z" fill="#fdfcfc"/>
 <path id="path27" transform="scale(.8)" d="m456.34 544.33-12.088 0.0137c-4.95 0.15-10.462 0.325-14.5 3.5625-2.675 3.5-3.1996 9.2625 0.71289 12.125 5.6875 5.0875 14.462 1.3121 20.324 5.7871 1.2125 3.7125 1.2387 7.6992 1.3262 11.574 0.0375 14.6-0.0504 29.201-0.0254 43.801 0.175 3.4375-0.0871 7.975 3.4004 9.9375 2.3958 0.90211 4.9836 1.1548 7.5625 1.0332 2.5789 0.12156 5.1667-0.13109 7.5625-1.0332 3.4875-1.9625 3.2254-6.5 3.4004-9.9375 0.025-14.6-0.0629-29.201-0.0254-43.801 0.0875-3.875 0.11172-7.8617 1.3242-11.574 5.8625-4.475 14.639-0.69961 20.326-5.7871 3.9125-2.8625 3.3859-8.625 0.71094-12.125-4.0375-3.2375-9.55-3.4125-14.5-3.5625-12.512 0.025-13.012 0.0988-25.512-0.0137z" fill="#fdfcfc"/>
 <path id="path25-2" d="m226.12 442.43c-0.41-3.39 2.51-5.96 5.73-6.08 7.99-0.66 16.05-0.18 24.06-0.22 3.56 0.38 8.63 0.01 10.32 3.95 0.65 2.88 1.36 7.16-1.74 8.88-5.7 2.78-12.25 1.44-18.26 2.79-3.51 0.72-4.89 6.13-1.67 8.14 4.38 2.43 9.72 1.1 14.36 2.62 4.17 2.01 4.75 7.92 2.58 11.58-1.09 2.04-3.61 1.82-5.57 2.05-4.16 0.37-8.47 0.32-12.4 1.92-1.24 3.25-1.35 6.87-0.69 10.26 0.21 1.35 1.45 2.17 2.67 2.56 6.5 2.05 13.57-0.25 20.03 1.91 3.62 1.07 3.38 5.44 3.03 8.44-0.21 2.89-2.69 5.29-5.66 4.96-11.18-0.03-22.43 1.19-33.54-0.44-3.95-1.63-3.1-6.84-3.52-10.29 0.52-17.67 0.2-35.36 0.27-53.03z" fill="#fdfcfc"/>
 <path id="path27-1" d="m405.97 435.47c-3.1518 0.0954-5.9575 1.5625-5.8712 4.7253 0.66043 8.1815 4.3171 15.781 7.4222 23.292 5.1909 12.548 11.298 26.583 16.138 37.911 2.8722 6.7304 14.225 4.8077 16.298 0 5.4476-12.637 10.895-25.274 16.343-37.911 3.105-7.5112 6.7617-15.111 7.4222-23.292 0.15345-5.6227-8.8311-5.8847-12.656-2.6122-4.2682 3.6373-5.659 9.3344-7.453 14.421l-7.59 20.967c-0.87399 2.4143-1.5636 6.5209-4.1123 6.5319-2.55-9e-3 -3.2396-4.1171-4.1138-6.5319l-7.59-20.967c-1.794-5.0863-3.1848-10.783-7.453-14.421-1.6732-1.4318-4.3331-2.1874-6.7845-2.1131z" fill="#fdfcfc"/>
</svg>
