<svg height="600.65265pt" viewBox="0 0 516.21582 600.65265" width="516.21582pt" xmlns="http://www.w3.org/2000/svg"><path d="m156.53201 8.9732488c5.18-5.86 13.06-9.41 20.92-8.93 4.61-.13 8.58 2.49 12.62 4.32 3.94 1.8 6.65 5.48 8.45 9.3100002 2.74 5.94.56 12.88 3.23 18.83 1.99 4.14 5.56 7.15 8.8 10.28 5.32 5.02 10.27 10.41 15.6 15.41 5.69 5.31 10.49 11.51 16.42 16.56 2.77 2.55 6.68 2.66 10.21 3.06 6.24.69 12.87.94 18.74-1.68 5.28-2.49 8.47-7.58 12.46-11.61 11.13-10.17 21.56-21.12 31.39-32.53 1.56-4.88-.31-10.43 1.76-15.3 2.84-6.9900002 8.42-13.7400002 16.25-15.0200002 5.1-.75 10.46-.69 15.39.94 5.83 2.16 9.37 7.7500002 11.9 13.1200002 5.06 10.46 1.57 24.75-8.77 30.64-4.84 3.1-10.81 2.45-16.27 2.98-4.05.27-7.66 2.5-10.47 5.3-4.36 4.31-8.21 9.12-12.51 13.5-2.77 2.84-6.03 5.25-8.23 8.6 40.07662 8.79686 75.74852 6.65981 111.41 14.6 6.49 1.43 12.93 3.04 19.31 4.93 8.13 2.26 16.57 4.400001 23.57 9.330001 4.08 2.95 8.6 5.28 12.42 8.59 12.91 11.61 20.36 27.78 26.11 43.85 6.13 19.64 10.12 39.9 12.71 60.29 2.02 13.41 2.38 26.98 3.77 40.46 1.35 22.75 3.3 45.55 2.14 68.36.54273 23.68647-1.35293 46.76973-2.21 68.75-1.77 24.21-4.72 48.38-10.05 72.08-3.05 16.32-8.51 32.21-15.96 47.04-6.79738 12.24478-17.0293 21.1369-27.66 28.4-10.12 7.25-22.92 8.43-34.33 12.66-1.67.66-3.39 1.86-3.52 3.84-1.62 9.35 5.17 17.67 4.63 26.96-1.83956 8.8592-7.73162 14.02589-16.33 13.73-15.63019-.78122-18.54361-13.86434-26.06-24.59-2.62-3.62-4.87-8.18-9.31-9.81-4.18-.68-8.4.37-12.6.34-70.84842 6.4596-143.29222 5.77021-210.77-.24-5.32-.37-11.73-1.3-15.69 3.18-8.26 8.92-11.75 21.76-22 28.95-6.55 3.58-16.079999 2.98-20.909999-3.21-3.31-4.39-5-10.42-3.17-15.76 2.06-6.35 5.02-12.69 4.66-19.53-.05-2.59-2.78-3.63-4.83-4.34-8.68-2.61-17.79-4.06-26.01-8.02-6.16-3.31-12.07-7.11-17.59-11.41-7.18-5.5-12.81-12.75-17.6-20.35-7.74-13.52-11.96-28.72-15.29-43.84-5.1000004-17.6-6.5000004-35.98-8.9100004-54.08-2.75-34.25-5.07999997-68.62-4.13999997-103 .42-20.54.76-41.12 2.71999997-61.58.81-15.45 2.07-30.89 4.79-46.13 1.69-13.82 4.4500004-27.5 8.1500004-40.92 4.95-13.64 8.95-28.18 18.32-39.6 2.57-3.11 4.79-6.51 7.55-9.45 13.06-12.4 30.13-19.970001 47.74-23.140001 8.69-1.39 17.029999-4.48 25.789999-5.53 23.62517-4.28844 49.10227-5.61964 71.18-7.67 8-.81 16.48-.46 23.81-4.28-2.14-4.47-6.27-7.42-9.57-10.97-4.61-4.69-8.48-10.22-13.89-14.07-6.96-4.02-15.88-.94-22.73-5.3-5.79-3.4-9.71-9.47-11.98-15.64-.89-7.38-.56-15.69 4.44-21.6600002" fill="#ff553e"/><path d="m183.05201 452.37325c1.25-2.86 4.95-3.59 7.72-2.74 2.48.77 5.51 1.56 6.88 3.97 1 3.57.95 8.68-2.9 10.55-3.44 1.06-7.22 1.16-10.67.06-1.57-3.71-1.67-7.92-1.03-11.84z" fill="#ff553e"/><path d="m130.74201 451.01325c4.18-1.49 10.45.09 12.08 4.68 3.55 7.16-7.79 15.36-13.46 10.02-.73-4.46-.75-9.11.05-13.56.33-.29 1-.86 1.33-1.14z" fill="#ff553e"/><g fill="#fdfcfc"><path d="m190.27201 171.55325c7.57-2.64 16.92-.98 22.29 5.24 1.72 1.89 2.06 4.53 2.64 6.92.7 3.37 1.61 6.72 1.71 10.17-.08 61.7 0 123.4-.03 185.09-2.70352 15.36122-8.08233 20.8373-23.46 20.64-5.14-.07-10.46.39-15.39-1.38-4.56-1.55-8.31-4.93-11.01-8.84-2.68-3.96-2.17-8.96-2.32-13.49-.05-39.66-.07-79.32-.02-118.99.01-6.6-.1-13.21-.74-19.78-6.26.23-11.27 4.6-17.15 6.23-4.58 1.28-9.82 3.05-14.33.59-7.56-3.55-12.1-11.3-14.26-19.07-.6-6.33-1.31-13.77 3.28-18.89 5.21-5.93 12.63-9.15 19.56-12.6 16.26-7.61 32.38-15.58 49.23-21.84z"/><path d="m258.94201 176.46325c5.35-2.75 11.53-3.29 17.46-3.35 22.67.07 45.34-.04 68.02.01 6.23.08 12.84-.82 18.64 2.08 6.93 2.59 11.13 9.85 12.02 16.92.49 7.06.43 15.17-4.87 20.58-4.39 5.69-12.04 6.81-18.76 7-12.01.06-24.02.04-36.03-.05-5.02.06-10.2-.26-15.04 1.25-1.89.62-2.01 2.9-2.37 4.54-.81 7.12-.77 14.31-1.64 21.42-.32 3.5-.8 7.18.55 10.54 5.38 1.77 11.02-.21 16.53.35 14.09 1.37 28.79 3.33 41.01 11.04 6.62 4.2 13.88 7.98 18.44 14.61 4.99 7.17 9.54 14.93 11.34 23.58 2.46 11 2.2 22.44.62 33.54-2.6 16.2-11.25 31.46-24.45 41.35-17.91596 14.29781-36.74442 16.57709-57.08 19.17-10.35 1.28-20.63-.75-30.88-1.91-12.06-1.83-23.09-7.49-33.02-14.36-3.52-2.39-4.25-6.97-4.55-10.89-.66-7.86 1.04-16.25 6.03-22.51 4-4.31 9.27-8.5 15.5-8.14 6.16-.23 11.82 2.49 17.53 4.4 10.55 4.07 21.93 7.06 33.32 5.44 7.78-.91 15.07-5.51 19.33-12.06 3.49-6.88 4.3-15.13 2.54-22.61-2.31-6.67-6.9-13.14-13.73-15.68-19.23847-8.27942-44.66743 4.19011-59.83-2.1-6.82-2.16-9.71-9.46-10.72-15.93-1.03-13.27.52-26.54 1.48-39.77 1.78-17.29 2.36-34.68 4.21-51.96.52-6.27 2.68-13.12 8.4-16.5z"/><path d="m78.792011 434.44325c7.36-.77 15.71-.63 21.569999 4.55 3.93 3.17 3.99 10.6-.949999 12.84-6.18 2.81-12.64-3.92-18.73-.77-2.9 1.63-1.37 5.32.93 6.7 6.7 4.54 13.92 8.54 19.679999 14.3 4.95 4.78 3.92 12.24 3.47 18.45-.67 7.39-7.459999 12.24-13.809999 14.8-7.46 2.25-15.55 1.42-23.07-.16-6.5-1.16-10.77-11.23-4.54-15.36 5.88-2.66 11.72 2.23 17.67 1.63 3.61-.82 7.97-5.24 4.8-8.81-5.1-5.58-13.11-7.26-18.35-12.71-3.76-4.09-7.31-9.14-6.93-14.98-.87-10.4 8.36-19.29 18.26-20.48z"/><path d="m118.76201 436.11325c5.45-1.27 11.12-.46 16.66-.68 6.64-.31 13.09 2.25 18.49 5.95 5.64 4.67 7.89 12.47 6.85 19.58-.4 6.48-4.67 11.81-9.15 16.14-6.01 4.96-14.8 3.61-21.1 7.88-3.93 5.79 1.29 14.52-4.18 19.78-4.26 1.26-10.94 2.44-13.52-2.28-1.69-2.51-1.78-5.64-1.75-8.56.17-11.34.06-22.68.1-34.01.07-5.88-.43-11.83.74-17.62.6-3.33 3.91-5.22 6.86-6.18m11.98 14.9c-.33.28-1 .85-1.33 1.14-.8 4.45-.78 9.1-.05 13.56 5.67 5.34 17.01-2.86 13.46-10.02-1.63-4.59-7.9-6.17-12.08-4.68z"/><path d="m173.78201 436.21325c5.77-1.38 11.77-.52 17.65-.77 6.11-.32 12.22 1.6 17.09 5.31 6.68 4.54 8.21 13.9 6.14 21.25-1.21 4.9-5.4 8.15-7.49 12.59-1.54 4.07 1.63 7.83 3.43 11.24 2.52 4.67 7.14 7.84 9.33 12.7 1.17 2.14.14 4.93-2.07 5.91-4.61 2.05-10.86 1.22-13.85-3.17-4.78-6.84-8.02-14.92-14.17-20.73-2.38-.66-6.76-.76-6.85 2.62-.49 6.52.81 13.64-2.69 19.56-2.82 3.77-8.66 2.89-11.97.28-1.34-2.46-1.3-5.36-1.37-8.08.09-15.67.07-31.35.05-47.03.09-2.71.03-5.59 1.33-8.05 1.24-1.87 3.34-2.99 5.44-3.63m9.27 16.16c-.64 3.92-.54 8.13 1.03 11.84 3.45 1.1 7.23 1 10.67-.06 3.85-1.87 3.9-6.98 2.9-10.55-1.37-2.41-4.4-3.2-6.88-3.97-2.77-.85-6.47-.12-7.72 2.74z"/><path d="m277.65201 441.89325c-.41-3.39 2.51-5.96 5.73-6.08 7.99-.66 16.05-.18 24.06-.22 3.56.38 8.63.01 10.32 3.95.65 2.88 1.36 7.16-1.74 8.88-5.7 2.78-12.25 1.44-18.26 2.79-3.51.72-4.89 6.13-1.67 8.14 4.38 2.43 9.72 1.1 14.36 2.62 4.17 2.01 4.75 7.92 2.58 11.58-1.09 2.04-3.61 1.82-5.57 2.05-4.16.37-8.47.32-12.4 1.92-1.24 3.25-1.35 6.87-.69 10.26.21 1.35 1.45 2.17 2.67 2.56 6.5 2.05 13.57-.25 20.03 1.91 3.62 1.07 3.38 5.44 3.03 8.44-.21 2.89-2.69 5.29-5.66 4.96-11.18-.03-22.43 1.19-33.54-.44-3.95-1.63-3.1-6.84-3.52-10.29.52-17.67.2-35.36.27-53.03z"/><path d="m456.33984 544.32812-12.08789.0137c-4.95.15-10.4625.325-14.5 3.5625-2.675 3.5-3.19961 9.2625.71289 12.125 5.6875 5.0875 14.46172 1.31211 20.32422 5.78711 1.21249 3.7125 1.23867 7.69921 1.32617 11.57421.0375 14.60001-.0504 29.20079-.0254 43.80079.175 3.4375-.0871 7.975 3.40039 9.9375 2.39577.90211 4.98364 1.15476 7.5625 1.0332 2.57887.12156 5.16673-.13109 7.5625-1.0332 3.4875-1.9625 3.22539-6.5 3.40039-9.9375.025-14.6-.0629-29.20079-.0254-43.80079.0875-3.875.11172-7.86171 1.32422-11.57421 5.8625-4.475 14.63867-.69961 20.32617-5.78711 3.91251-2.8625 3.38594-8.625.71094-12.125-4.0375-3.2375-9.55-3.4125-14.5-3.5625-12.5125.025-13.01172.0988-25.51172-.0137z" transform="scale(.8)"/><path d="m226.12241 442.42944c-.41-3.39 2.51-5.96 5.73-6.08 7.99-.66 16.05-.18 24.06-.22 3.56.38 8.63.01 10.32 3.95.65 2.88 1.36 7.16-1.74 8.88-5.7 2.78-12.25 1.44-18.26 2.79-3.51.72-4.89 6.13-1.67 8.14 4.38 2.43 9.72 1.1 14.36 2.62 4.17 2.01 4.75 7.92 2.58 11.58-1.09 2.04-3.61 1.82-5.57 2.05-4.16.37-8.47.32-12.4 1.92-1.24 3.25-1.35 6.87-.69 10.26.21 1.35 1.45 2.17 2.67 2.56 6.5 2.05 13.57-.25 20.03 1.91 3.62 1.07 3.38 5.44 3.03 8.44-.21 2.89-2.69 5.29-5.66 4.96-11.18-.03-22.43 1.19-33.54-.44-3.95-1.63-3.1-6.84-3.52-10.29.52-17.67.2-35.36.27-53.03z"/><path d="m405.96993 435.46725c-3.15185.0954-5.9575 1.56249-5.87119 4.72527.66043 8.18146 4.31714 15.78104 7.42215 23.29221 5.1909 12.54809 11.29816 26.58317 16.13837 37.91149 2.87219 6.73042 14.2254 4.8077 16.29791 0 5.44765-12.63716 10.89526-25.27433 16.34288-37.91149 3.10501-7.51117 6.76172-15.11075 7.42215-23.29221.15345-5.62271-8.83109-5.88473-12.65568-2.61215-4.26816 3.6373-5.65896 9.33444-7.45296 14.42075l-7.59003 20.96652c-.87399 2.4143-1.56357 6.52091-4.11228 6.53193-2.55002-.009-3.23965-4.11713-4.11384-6.53193l-7.59003-20.96652c-1.794-5.08631-3.18479-10.78345-7.45295-14.42075-1.67324-1.43176-4.33306-2.18738-6.7845-2.11312z"/></g></svg>