<svg width="372.75pt" height="446.51pt" version="1.1" viewBox="0 0 372.75 446.51" xmlns="http://www.w3.org/2000/svg">
 <defs>
  <linearGradient id="f" x1="153.51" x2="350.2" y1="28.649" y2="28.649" gradientTransform="matrix(.75191 0 0 .75191 -2.9946 -1.5084e-5)" gradientUnits="userSpaceOnUse">
   <stop stop-color="#1ec4db" offset="0"/>
   <stop stop-color="#1ec4db" offset="1"/>
  </linearGradient>
  <linearGradient id="e" x1="11.236" x2="361.51" y1="65.818" y2="439.41" gradientUnits="userSpaceOnUse">
   <stop stop-color="#1dc7e1" offset="0"/>
   <stop stop-color="#75fefa" offset=".46254"/>
   <stop stop-color="#01a1d5" offset="1"/>
  </linearGradient>
  <linearGradient id="d" x1="110.64" x2="340.86" y1="50.154" y2="306.57" gradientTransform="translate(-.00069 -.042825)" gradientUnits="userSpaceOnUse">
   <stop stop-color="#65f1f6" stop-opacity="0" offset="0"/>
   <stop stop-color="#65f1f6" offset=".082334"/>
   <stop stop-color="#16cae6" offset=".41167"/>
   <stop stop-color="#40d4ad" offset=".88809"/>
   <stop stop-color="#01a1d5" stop-opacity="0" offset="1"/>
  </linearGradient>
  <linearGradient id="c" x1="29.413" x2="346.15" y1="79.863" y2="416.94" gradientUnits="userSpaceOnUse">
   <stop stop-color="#1ac4df" offset="0"/>
   <stop stop-color="#1bc3db" offset=".29897"/>
   <stop stop-color="#1bbdd6" offset=".49828"/>
   <stop stop-color="#25c3e1" offset=".6488"/>
   <stop stop-color="#009bdb" offset="1"/>
  </linearGradient>
  <radialGradient id="b" cx="64.945" cy="417.34" r="176.62" gradientTransform="matrix(1.1283 .6161 -.98156 1.7977 366.49 -357.09)" gradientUnits="userSpaceOnUse">
   <stop stop-color="#9ef3f9" offset="0"/>
   <stop stop-color="#6cf0f2" offset=".12181"/>
   <stop stop-color="#2bd2df" offset=".38963"/>
   <stop stop-color="#2bd2df" stop-opacity="0" offset=".56741"/>
   <stop stop-color="#fff" stop-opacity="0" offset="1"/>
  </radialGradient>
  <radialGradient id="a" cx="143.06" cy="181.37" r="176.62" gradientTransform="matrix(-2.6746 .19741 -.19484 -2.6398 778.16 548.7)" gradientUnits="userSpaceOnUse">
   <stop stop-color="#cef6e7" offset="0"/>
   <stop stop-color="#cef6e7" offset=".012657"/>
   <stop stop-color="#75e4c8" offset=".085291"/>
   <stop stop-color="#33cdbb" offset=".22284"/>
   <stop stop-color="#2bc0c8" offset=".39256"/>
   <stop stop-color="#2bc0c8" stop-opacity="0" offset=".5564"/>
   <stop stop-color="#fff" stop-opacity="0" offset="1"/>
  </radialGradient>
 </defs>
 <path d="m185.31 1.4916e-5c-19.943 0.0375-39.466 8.8121-54.223 22.036-3.7601 2.8449-7.0178 6.3725-10.07 10.093-3.0862 3.4844-5.9583 7.1498-8.5845 10.953h25.557c4.143-2.767 6.8267-6.7001 11.037-9.437 7.9944-6.2773 17.455-10.626 27.407-12.658 2.9948-0.46558 6.0279-0.71339 9.0636-0.76108 0.60521-5e-3 1.1998-2e-3 1.7623 0 3.0357 0.0477 6.0677 0.2955 9.0625 0.76108 9.9522 2.032 19.412 6.3803 27.407 12.658 4.2107 2.7369 6.8955 6.67 11.038 9.437h25.556c-2.6262-3.8028-5.4984-7.4682-8.5845-10.953-3.0526-3.721-6.3102-7.2486-10.07-10.093-15.02-13.46-34.978-22.302-55.29-22.022-0.35601-5e-3 -0.71262-0.015-1.0684-0.0143z" fill="url(#f)" stroke-width=".75191"/>
 <path d="m16.692 55.905c-8.8389 0-16.692 7.7996-16.692 16.329v358.1c0 9.3317 9.1148 16.177 18.404 16.177h335.94c9.1504 0 18.404-6.5762 18.404-16.177v-358.1c0-9.4635-9.3053-16.177-18.404-16.177z" fill="url(#e)" stroke-width=".75191"/>
 <path d="m90.973 55.905 281.78 272.44v-256.15c0-9.4635-9.3059-16.176-18.404-16.176z" fill="url(#d)" stroke-width=".75191"/>
 <path d="m25.569 66.122c-8.3765 0-15.819 7.3916-15.819 15.474v339.37c0 8.8435 8.638 15.33 17.441 15.33h318.37c8.6717 0 17.441-6.2322 17.441-15.33v-339.37c0-8.9684-8.8185-15.33-17.441-15.33z" fill="url(#c)" stroke-width=".71257"/>
 <path d="m25.569 66.122c-8.3765 0-15.819 7.3916-15.819 15.474v339.37c0 8.8435 8.638 15.33 17.441 15.33h318.37c8.6717 0 17.441-6.2322 17.441-15.33v-339.37c0-8.9684-8.8185-15.33-17.441-15.33z" fill="url(#b)" stroke-width=".71257"/>
 <path d="m25.569 66.122c-8.3765 0-15.819 7.3916-15.819 15.474v339.37c0 8.8435 8.638 15.33 17.441 15.33h318.37c8.6717 0 17.441-6.2322 17.441-15.33v-339.37c0-8.9684-8.8185-15.33-17.441-15.33z" fill="url(#a)" stroke-width=".71257"/>
 <path d="m70.839 176.11v33.761l43.456-3e-5 21.557 65.438 21.557-65.438h26.986l-2.3535 7.5717c4.5774-3.1712 9.4997-5.9802 14.845-7.5198 5.8411-1.5326 12.156-1.845 17.913-1.6476 8.156 0.0359 16.308 1.0986 23.74 4.5356 4.3885 1.644 8.4688 3.9956 12.345 6.6123 1.1905 0.84608 2.3946 1.7305 3.1739 2.552l-11.523 16.435c-0.8788-0.60596-1.952-1.3267-2.9987-1.9934-7.3771-4.6919-15.969-8.3858-24.698-8.6127-3.0738-0.0799-6.0713 0.0834-9.2255 1.1577-4.9325 1.6467-7.0454 7.7296-4.1505 11.963 2.8196 3.2482 7.2484 4.2257 11.226 5.3235 10.963 2.4061 22.542 3.3385 32.588 8.7447 4.6627 2.315 7.8725 6.4965 10.609 10.707v-55.829h29.261v15.113c5.8154-7.002 12.663-11.783 20.575-14.509 9.4255-3.2049 20.071-3.0948 29.25 0.66639 8.6168 4.2257 12.73 13.903 12.888 23.068v74.123h-28.914v-63.859c-0.25565-5.2032-2.8685-10.662-8.3274-11.985-9.5943-1.6392-18.658 3.7969-25.471 9.94v65.905h-29.261v-18.061c-1.7962 3.1722-3.0903 4.6017-4.8272 6.6694-7.3003 8.1463-18.01 12.072-28.784 12.909-4.839 0.42528-11.275 0.50315-16.497 0.18429-13.456-0.85991-26.452-6.4011-37.157-14.559l11.369-16.301c4.95 3.3474 11.335 7.439 17.082 9.297 6.3439 2.0511 12.317 3.4884 18.475 3.329 2.4914-0.0645 4.9637-0.55106 7.319-1.3574 3.791-1.2979 7.0584-3.7067 7.5106-7.5775 0.41875-3.5849-1.3198-7.5121-4.6924-9.0447-10.279-4.5265-21.775-4.6242-32.385-8.1507-10.098-2.97-18.925-11.279-20.354-22.068l-23.294 64.732-29.851-2e-5 -27.871-77.274h-21.089v46.483c0 5.6304 0.81008 7.5927 3.9362 8.8048 6.0904 2.2632 13.016 2.6392 19.294 0.99252v20.978c-14.925 0.87973-31.527 3.8197-44.926-4.5716-6.5641-4.9175-7.6131-13.236-7.6131-20.903v-51.784h-16.568c0.03008-6.707-0.22557-14.497 0.08271-21.189h16.486v-33.761z" fill="#fff" stroke-width=".75191"/>
</svg>
