<svg height="107.02" width="150" xmlns="http://www.w3.org/2000/svg"><g fill="#fff" transform="translate(-204.92 -416.08)"><path d="m221.59 459.34v41.493c0 1.6382.31803 2.8462.95408 3.6319.63339.78304 1.3122 1.1759 2.0311 1.1759h.12294.12561c.66278-.0641 1.2694-.49174 1.8226-1.2748.55054-.78305.82848-1.9296.82848-3.4342v-41.592h16.666v40.809c0 1.7638.33139 3.1242.99417 4.0676.66278.94873 1.4111 1.4244 2.2369 1.4244h.2913c.0829 0 .17906-.0321.2913-.0962.66278-.20044 1.2694-.68683 1.8253-1.4752.55054-.78304.8258-1.828.8258-3.1375v-41.592h16.666v43.556c0 5.7539-1.6864 10.348-5.0564 13.782-3.3727 3.4315-7.0768 5.476-11.11 6.128-.49976.13096-.99684.2138-1.4912.24587-.49976.0321-.99685.0481-1.4939.0481-2.3759 0-4.602-.5051-6.6732-1.518-2.0739-1.0129-3.7736-2.5656-5.0991-4.6608-1.4939 2.0284-3.346 3.517-5.5535 4.4631-2.2128.94607-4.5085 1.4218-6.8844 1.4218-.32872 0-.64942-.016-.95408-.0481-.30199-.0321-.62002-.0508-.95141-.0508-4.2573-.457-8.1672-2.432-11.732-5.933-3.5651-3.4983-5.3477-8.3222-5.3477-14.469v-42.966h16.666z"/><path d="m280.45 476.81h-8.8727v-17.462h34.326v17.462h-8.7925v44.927h-16.66v-44.927z"/><path d="m326.77 459.34 5.3904 37.864 5.3076-37.864h17.243l-10.695 55.425c-.10957.52381-.28863 1.077-.53985 1.665-.24854.59062-.59329 1.1812-1.0316 1.7665-.88994 1.2427-2.1727 2.3732-3.8591 3.3834-1.6837 1.0156-3.827 1.5206-6.4247 1.5206-.5532 0-1.1091-.0321-1.657-.0962-.55053-.0668-1.1091-.1657-1.6596-.29665-2.0445-.52114-3.9232-1.4699-5.6363-2.8435-1.7158-1.3737-2.6805-3.2685-2.9023-5.6898l-10.033-54.834h16.497z"/><path d="m205.29 443.92h1.6142l1.9055 5.6416c.12294.37148.22717.69752.31001.97546.0855.28062.16035.54252.22449.78572.16035-.59062.32872-1.1679.50243-1.7318.0214-.0722.0374-.12027.0454-.14432l2.0231-5.9677 2.13 6.0826c.0989.29397.19242.58795.28329.8846.0882.29665.17371.59062.25121.89261.0454-.22983.1069-.48105.18441-.75632.0775-.27259.17905-.60131.30199-.97546l1.8895-5.6871h1.6276l-3.8938 11.609-2.293-6.3739c-.10423-.28329-.19509-.55588-.27794-.82046-.0802-.2619-.15501-.51045-.21915-.74295-.0775.29664-.155.5826-.2325.84183-.0775.26191-.15768.51312-.24053.75098l-2.2529 6.3445-3.8831-11.609z"/><path d="m222.23 455.1v-11.174h5.6122v1.542h-3.9767v2.8008h3.9767v1.5955h-3.9767v3.6079h3.9767v1.6276h-5.6122z"/><path d="m231.67 452.86 1.3042-.67347c.12561.49976.35277.87925.68149 1.1412.33139.2619.75097.39286 1.2641.39286.4864 0 .87124-.14966 1.1572-.45166.28596-.29664.43028-.70019.43028-1.2026 0-.65744-.48907-1.2427-1.4726-1.7558-.13363-.0748-.24053-.13362-.31268-.17104-1.1091-.59864-1.8494-1.1412-2.2155-1.6276-.3688-.48639-.55588-1.0797-.55588-1.7826 0-.90865.27794-1.6463.8365-2.2128.55588-.5639 1.2855-.84718 2.1888-.84718.74029 0 1.3603.15768 1.8601.47838.49976.31535.84719.77235 1.0396 1.3683l-1.2775.73226c-.20311-.3501-.42493-.60666-.66545-.76968-.24053-.16302-.51579-.24587-.82848-.24587-.43829 0-.78838.12828-1.0476.38217-.25923.25389-.38751.59597-.38751 1.0236 0 .6708.56924 1.2988 1.7051 1.8788.0855.0454.155.0802.20578.10422.99417.51045 1.6757 1.0075 2.0471 1.4939.37148.4864.55588 1.093.55588 1.82 0 1.0583-.30199 1.9002-.89796 2.5228-.60131.62269-1.4138.93537-2.432.93537-.86055 0-1.5607-.21647-2.1059-.65743-.55054-.43562-.90865-1.0637-1.077-1.8761"/><path d="m245.75 445.46v9.6317h-1.6329v-9.6317h-2.6752v-1.542h6.9672v1.542z"/><path d="m260.43 445.74v9.6317h-1.6356v-9.6317h-2.6725v-1.5394h6.9672v1.5394z"/><path d="m266.87 455.37v-11.174h5.6122v1.542h-3.9767v2.8008h3.9767v1.5955h-3.9767v3.6106h3.9767v1.6249h-5.6122z"/><path d="m276.89 455.37v-11.174h1.6356v9.5488h3.6533v1.6249h-5.2889z"/><path d="m286.04 455.37v-11.174h5.6122v1.542h-3.974v2.8008h3.974v1.5955h-3.974v3.6106h3.974v1.6249h-5.6122z"/><path d="m299.25 455.81-4.4871-11.609h1.697l2.2529 5.9517c.13362.34742.24587.66812.33139.95942.0855.29398.15767.57192.20578.8365.0615-.28062.13363-.56925.22716-.87124.0909-.29932.19777-.60933.3207-.92468l2.2502-5.9517h1.689l-4.4871 11.609z"/><path d="m307.31 444.2h1.6329v11.174h-1.6329z"/><path d="m313.25 453.14 1.3042-.67347c.12561.49976.35277.87925.67882 1.1412.33406.2619.75364.39286 1.2641.39286.48639 0 .87391-.14966 1.1572-.44898.28863-.302.43295-.70287.43295-1.2053 0-.65744-.49174-1.2427-1.4699-1.7585-.1363-.0748-.24587-.13095-.31535-.16837-1.1091-.59864-1.8467-1.1412-2.2155-1.6276-.37147-.48639-.55855-1.0824-.55855-1.7852 0-.90865.28061-1.6463.83649-2.2102.55856-.56657 1.2882-.84718 2.1914-.84718.74029 0 1.3603.15768 1.8601.47838.49976.31535.84719.77235 1.0369 1.3683l-1.2748.73226c-.20578-.3501-.4276-.60666-.66545-.76968-.2432-.16302-.51579-.24587-.82848-.24587-.44096 0-.78571.12828-1.0476.38217-.25656.25656-.38751.59597-.38751 1.0236 0 .6708.56657 1.2988 1.7051 1.8761.0855.0481.155.0829.20578.1069.99417.51045 1.673 1.0075 2.0471 1.4939.36881.48372.55588 1.093.55588 1.82 0 1.0583-.29932 1.8975-.90063 2.5202-.59864.62537-1.4084.93805-2.432.93805-.85788 0-1.5581-.22182-2.1059-.65743-.54519-.43829-.90331-1.0637-1.0744-1.8761"/><path d="m324.11 444.2h1.6382v11.174h-1.6382z"/><path d="m339.24 449.81c0-.56657-.0935-1.1011-.27527-1.6115-.18707-.50777-.457-.95943-.80175-1.3603-.33941-.39019-.73226-.69218-1.1786-.90063-.44898-.21113-.91934-.31803-1.4111-.31803-.49709 0-.96477.10423-1.4138.31268-.44631.20846-.84184.51312-1.1893.90598-.35009.39553-.61467.84451-.7964 1.3523-.18441.51045-.27794 1.0503-.27794 1.6195 0 .5639.0935 1.0984.27794 1.6008.18173.50777.44631.95675.7964 1.3523.34743.39821.74296.7002 1.1866.90865.44364.20846.91667.31269 1.4164.31269.48907 0 .95675-.10423 1.395-.31269.44364-.20845.83917-.51044 1.1946-.90865.34475-.39553.61468-.84718.80175-1.355.18173-.50511.27527-1.0396.27527-1.5982m1.7051 0c0 .79373-.13363 1.5447-.40355 2.2502-.26992.70821-.65476 1.3389-1.1706 1.8948-.51846.55588-1.1011.98081-1.7532 1.2748-.64942.29398-1.3309.44096-2.0445.44096-.72425 0-1.4138-.14966-2.0739-.4463-.65476-.29665-1.2374-.72158-1.7398-1.2694-.51312-.55588-.90331-1.1839-1.1679-1.8868-.26725-.70019-.40088-1.4538-.40088-2.2583 0-.79908.13363-1.5527.40088-2.2583.26457-.70822.65476-1.3443 1.1679-1.9028.51312-.55321 1.0957-.97547 1.7425-1.2668.65476-.28863 1.3389-.43294 2.0712-.43294.72425 0 1.4111.14431 2.0552.43294.64942.2913 1.2267.71356 1.7425 1.2668.5158.56657.90064 1.2026 1.1706 1.9135.26992.70821.40355 1.4592.40355 2.2476"/><path d="m345.35 455.37v-11.617l6.3846 6.8309c.17639.19509.35278.40088.53183.62002.17906.21915.36614.46769.56123.74028v-7.7476h1.5153v11.609l-6.5209-6.9538c-.17371-.18975-.34208-.38484-.5051-.5933-.16035-.21112-.31803-.4276-.46234-.65743v7.769h-1.5046z"/></g><path d="m86.11 11.11c0 6.1334-4.9708 11.107-11.107 11.107-6.1334 0-11.11-4.9735-11.11-11.107 0-6.1361 4.9762-11.11 11.11-11.11 6.1361 0 11.107 4.9735 11.107 11.11" fill="#8fd123"/><path d="m54.16 11.11c0 6.1334-4.9708 11.107-11.107 11.107-6.1361 0-11.107-4.9735-11.107-11.107 0-6.1361 4.9708-11.11 11.107-11.11 6.1361 0 11.107 4.9735 11.107 11.11" fill="#f7ba1d"/><path d="m22.22 11.11c0 6.1334-4.9735 11.107-11.11 11.107-6.1334 0-11.107-4.9735-11.107-11.107 0-6.1361 4.9735-11.11 11.107-11.11 6.1361 0 11.11 4.9735 11.11 11.11" fill="#e02e22"/><path d="m118.05 11.11c0 6.1334-4.9708 11.107-11.107 11.107-6.1361 0-11.107-4.9735-11.107-11.107 0-6.1361 4.9708-11.11 11.107-11.11 6.1361 0 11.107 4.9735 11.107 11.11" fill="#6cc"/><path d="m150 11.11c0 6.1334-4.9708 11.107-11.107 11.107-6.1361 0-11.107-4.9735-11.107-11.107 0-6.1361 4.9708-11.11 11.107-11.11 6.1361 0 11.107 4.9735 11.107 11.11" fill="#496ebf"/></svg>