<?xml version="1.0" encoding="UTF-8" standalone="no"?>
<svg
   xmlns:dc="http://purl.org/dc/elements/1.1/"
   xmlns:cc="http://creativecommons.org/ns#"
   xmlns:rdf="http://www.w3.org/1999/02/22-rdf-syntax-ns#"
   xmlns:svg="http://www.w3.org/2000/svg"
   xmlns="http://www.w3.org/2000/svg"
   xmlns:sodipodi="http://sodipodi.sourceforge.net/DTD/sodipodi-0.dtd"
   xmlns:inkscape="http://www.inkscape.org/namespaces/inkscape"
   width="150"
   version="1.1"
   height="107.02"
   id="svg2"
   inkscape:version="0.91 r13725"
   sodipodi:docname="West TV - Dark.svg">
  <metadata
     id="metadata56">
    <rdf:RDF>
      <cc:Work
         rdf:about="">
        <dc:format>image/svg+xml</dc:format>
        <dc:type
           rdf:resource="http://purl.org/dc/dcmitype/StillImage" />
      </cc:Work>
    </rdf:RDF>
  </metadata>
  <defs
     id="defs54" />
  <sodipodi:namedview
     pagecolor="#ffffff"
     bordercolor="#666666"
     borderopacity="1"
     objecttolerance="10"
     gridtolerance="10"
     guidetolerance="10"
     inkscape:pageopacity="0"
     inkscape:pageshadow="2"
     inkscape:window-width="1920"
     inkscape:window-height="1017"
     id="namedview52"
     showgrid="false"
     inkscape:zoom="1.92"
     inkscape:cx="75"
     inkscape:cy="53.509998"
     inkscape:window-x="-8"
     inkscape:window-y="-8"
     inkscape:window-maximized="1"
     inkscape:current-layer="svg2" />
  <g
     style="fill:#000000;fill-opacity:1"
     id="g6"
     transform="translate(-204.92,-416.08)">
    <path
       inkscape:connector-curvature="0"
       id="path8"
       d="m 221.59,459.34 0,41.493 c 0,1.6382 0.31803,2.8462 0.95408,3.6319 0.63339,0.78304 1.3122,1.1759 2.0311,1.1759 l 0.12294,0 0.12561,0 c 0.66278,-0.0641 1.2694,-0.49174 1.8226,-1.2748 0.55054,-0.78305 0.82848,-1.9296 0.82848,-3.4342 l 0,-41.592 16.666,0 0,40.809 c 0,1.7638 0.33139,3.1242 0.99417,4.0676 0.66278,0.94873 1.4111,1.4244 2.2369,1.4244 l 0.2913,0 c 0.0829,0 0.17906,-0.0321 0.2913,-0.0962 0.66278,-0.20044 1.2694,-0.68683 1.8253,-1.4752 0.55054,-0.78304 0.8258,-1.828 0.8258,-3.1375 l 0,-41.592 16.666,0 0,43.556 c 0,5.7539 -1.6864,10.348 -5.0564,13.782 -3.3727,3.4315 -7.0768,5.476 -11.11,6.128 -0.49976,0.13096 -0.99684,0.2138 -1.4912,0.24587 -0.49976,0.0321 -0.99685,0.0481 -1.4939,0.0481 -2.3759,0 -4.602,-0.5051 -6.6732,-1.518 -2.0739,-1.0129 -3.7736,-2.5656 -5.0991,-4.6608 -1.4939,2.0284 -3.346,3.517 -5.5535,4.4631 -2.2128,0.94607 -4.5085,1.4218 -6.8844,1.4218 -0.32872,0 -0.64942,-0.016 -0.95408,-0.0481 -0.30199,-0.0321 -0.62002,-0.0508 -0.95141,-0.0508 -4.2573,-0.457 -8.1672,-2.432 -11.732,-5.933 -3.5651,-3.4983 -5.3477,-8.3222 -5.3477,-14.469 l 0,-42.966 16.666,0 z"
       style="fill:#000000;fill-opacity:1" />
    <path
       inkscape:connector-curvature="0"
       id="path10"
       d="m 280.45,476.81 -8.8727,0 0,-17.462 34.326,0 0,17.462 -8.7925,0 0,44.927 -16.66,0 0,-44.927 z"
       style="fill:#000000;fill-opacity:1" />
    <path
       inkscape:connector-curvature="0"
       id="path12"
       d="m 326.77,459.34 5.3904,37.864 5.3076,-37.864 17.243,0 -10.695,55.425 c -0.10957,0.52381 -0.28863,1.077 -0.53985,1.665 -0.24854,0.59062 -0.59329,1.1812 -1.0316,1.7665 -0.88994,1.2427 -2.1727,2.3732 -3.8591,3.3834 -1.6837,1.0156 -3.827,1.5206 -6.4247,1.5206 -0.5532,0 -1.1091,-0.0321 -1.657,-0.0962 -0.55053,-0.0668 -1.1091,-0.1657 -1.6596,-0.29665 -2.0445,-0.52114 -3.9232,-1.4699 -5.6363,-2.8435 -1.7158,-1.3737 -2.6805,-3.2685 -2.9023,-5.6898 l -10.033,-54.834 16.497,0 z"
       style="fill:#000000;fill-opacity:1" />
    <path
       inkscape:connector-curvature="0"
       id="path14"
       d="m 205.29,443.92 1.6142,0 1.9055,5.6416 c 0.12294,0.37148 0.22717,0.69752 0.31001,0.97546 0.0855,0.28062 0.16035,0.54252 0.22449,0.78572 0.16035,-0.59062 0.32872,-1.1679 0.50243,-1.7318 0.0214,-0.0722 0.0374,-0.12027 0.0454,-0.14432 l 2.0231,-5.9677 2.13,6.0826 c 0.0989,0.29397 0.19242,0.58795 0.28329,0.8846 0.0882,0.29665 0.17371,0.59062 0.25121,0.89261 0.0454,-0.22983 0.1069,-0.48105 0.18441,-0.75632 0.0775,-0.27259 0.17905,-0.60131 0.30199,-0.97546 l 1.8895,-5.6871 1.6276,0 -3.8938,11.609 -2.293,-6.3739 c -0.10423,-0.28329 -0.19509,-0.55588 -0.27794,-0.82046 -0.0802,-0.2619 -0.15501,-0.51045 -0.21915,-0.74295 -0.0775,0.29664 -0.155,0.5826 -0.2325,0.84183 -0.0775,0.26191 -0.15768,0.51312 -0.24053,0.75098 l -2.2529,6.3445 -3.8831,-11.609 z"
       style="fill:#000000;fill-opacity:1" />
    <path
       inkscape:connector-curvature="0"
       id="path16"
       d="m 222.23,455.1 0,-11.174 5.6122,0 0,1.542 -3.9767,0 0,2.8008 3.9767,0 0,1.5955 -3.9767,0 0,3.6079 3.9767,0 0,1.6276 -5.6122,0 z"
       style="fill:#000000;fill-opacity:1" />
    <path
       inkscape:connector-curvature="0"
       id="path18"
       d="m 231.67,452.86 1.3042,-0.67347 c 0.12561,0.49976 0.35277,0.87925 0.68149,1.1412 0.33139,0.2619 0.75097,0.39286 1.2641,0.39286 0.4864,0 0.87124,-0.14966 1.1572,-0.45166 0.28596,-0.29664 0.43028,-0.70019 0.43028,-1.2026 0,-0.65744 -0.48907,-1.2427 -1.4726,-1.7558 -0.13363,-0.0748 -0.24053,-0.13362 -0.31268,-0.17104 -1.1091,-0.59864 -1.8494,-1.1412 -2.2155,-1.6276 -0.3688,-0.48639 -0.55588,-1.0797 -0.55588,-1.7826 0,-0.90865 0.27794,-1.6463 0.8365,-2.2128 0.55588,-0.5639 1.2855,-0.84718 2.1888,-0.84718 0.74029,0 1.3603,0.15768 1.8601,0.47838 0.49976,0.31535 0.84719,0.77235 1.0396,1.3683 l -1.2775,0.73226 c -0.20311,-0.3501 -0.42493,-0.60666 -0.66545,-0.76968 -0.24053,-0.16302 -0.51579,-0.24587 -0.82848,-0.24587 -0.43829,0 -0.78838,0.12828 -1.0476,0.38217 -0.25923,0.25389 -0.38751,0.59597 -0.38751,1.0236 0,0.6708 0.56924,1.2988 1.7051,1.8788 0.0855,0.0454 0.155,0.0802 0.20578,0.10422 0.99417,0.51045 1.6757,1.0075 2.0471,1.4939 0.37148,0.4864 0.55588,1.093 0.55588,1.82 0,1.0583 -0.30199,1.9002 -0.89796,2.5228 -0.60131,0.62269 -1.4138,0.93537 -2.432,0.93537 -0.86055,0 -1.5607,-0.21647 -2.1059,-0.65743 -0.55054,-0.43562 -0.90865,-1.0637 -1.077,-1.8761"
       style="fill:#000000;fill-opacity:1" />
    <path
       inkscape:connector-curvature="0"
       id="path20"
       d="m 245.75,445.46 0,9.6317 -1.6329,0 0,-9.6317 -2.6752,0 0,-1.542 6.9672,0 0,1.542 -2.6591,0 z"
       style="fill:#000000;fill-opacity:1" />
    <path
       inkscape:connector-curvature="0"
       id="path22"
       d="m 260.43,445.74 0,9.6317 -1.6356,0 0,-9.6317 -2.6725,0 0,-1.5394 6.9672,0 0,1.5394 -2.6591,0 z"
       style="fill:#000000;fill-opacity:1" />
    <path
       inkscape:connector-curvature="0"
       id="path24"
       d="m 266.87,455.37 0,-11.174 5.6122,0 0,1.542 -3.9767,0 0,2.8008 3.9767,0 0,1.5955 -3.9767,0 0,3.6106 3.9767,0 0,1.6249 -5.6122,0 z"
       style="fill:#000000;fill-opacity:1" />
    <path
       inkscape:connector-curvature="0"
       id="path26"
       d="m 276.89,455.37 0,-11.174 1.6356,0 0,9.5488 3.6533,0 0,1.6249 -5.2889,0 z"
       style="fill:#000000;fill-opacity:1" />
    <path
       inkscape:connector-curvature="0"
       id="path28"
       d="m 286.04,455.37 0,-11.174 5.6122,0 0,1.542 -3.974,0 0,2.8008 3.974,0 0,1.5955 -3.974,0 0,3.6106 3.974,0 0,1.6249 -5.6122,0 z"
       style="fill:#000000;fill-opacity:1" />
    <path
       inkscape:connector-curvature="0"
       id="path30"
       d="m 299.25,455.81 -4.4871,-11.609 1.697,0 2.2529,5.9517 c 0.13362,0.34742 0.24587,0.66812 0.33139,0.95942 0.0855,0.29398 0.15767,0.57192 0.20578,0.8365 0.0615,-0.28062 0.13363,-0.56925 0.22716,-0.87124 0.0909,-0.29932 0.19777,-0.60933 0.3207,-0.92468 l 2.2502,-5.9517 1.689,0 -4.4871,11.609 z"
       style="fill:#000000;fill-opacity:1" />
    <path
       inkscape:connector-curvature="0"
       id="path32"
       d="m 307.31,444.2 1.6329,0 0,11.174 -1.6329,0 0,-11.174 z"
       style="fill:#000000;fill-opacity:1" />
    <path
       inkscape:connector-curvature="0"
       id="path34"
       d="m 313.25,453.14 1.3042,-0.67347 c 0.12561,0.49976 0.35277,0.87925 0.67882,1.1412 0.33406,0.2619 0.75364,0.39286 1.2641,0.39286 0.48639,0 0.87391,-0.14966 1.1572,-0.44898 0.28863,-0.302 0.43295,-0.70287 0.43295,-1.2053 0,-0.65744 -0.49174,-1.2427 -1.4699,-1.7585 -0.1363,-0.0748 -0.24587,-0.13095 -0.31535,-0.16837 -1.1091,-0.59864 -1.8467,-1.1412 -2.2155,-1.6276 -0.37147,-0.48639 -0.55855,-1.0824 -0.55855,-1.7852 0,-0.90865 0.28061,-1.6463 0.83649,-2.2102 0.55856,-0.56657 1.2882,-0.84718 2.1914,-0.84718 0.74029,0 1.3603,0.15768 1.8601,0.47838 0.49976,0.31535 0.84719,0.77235 1.0369,1.3683 l -1.2748,0.73226 c -0.20578,-0.3501 -0.4276,-0.60666 -0.66545,-0.76968 -0.2432,-0.16302 -0.51579,-0.24587 -0.82848,-0.24587 -0.44096,0 -0.78571,0.12828 -1.0476,0.38217 -0.25656,0.25656 -0.38751,0.59597 -0.38751,1.0236 0,0.6708 0.56657,1.2988 1.7051,1.8761 0.0855,0.0481 0.155,0.0829 0.20578,0.1069 0.99417,0.51045 1.673,1.0075 2.0471,1.4939 0.36881,0.48372 0.55588,1.093 0.55588,1.82 0,1.0583 -0.29932,1.8975 -0.90063,2.5202 -0.59864,0.62537 -1.4084,0.93805 -2.432,0.93805 -0.85788,0 -1.5581,-0.22182 -2.1059,-0.65743 -0.54519,-0.43829 -0.90331,-1.0637 -1.0744,-1.8761"
       style="fill:#000000;fill-opacity:1" />
    <path
       inkscape:connector-curvature="0"
       id="path36"
       d="m 324.11,444.2 1.6382,0 0,11.174 -1.6382,0 0,-11.174 z"
       style="fill:#000000;fill-opacity:1" />
    <path
       inkscape:connector-curvature="0"
       id="path38"
       d="m 339.24,449.81 c 0,-0.56657 -0.0935,-1.1011 -0.27527,-1.6115 -0.18707,-0.50777 -0.457,-0.95943 -0.80175,-1.3603 -0.33941,-0.39019 -0.73226,-0.69218 -1.1786,-0.90063 -0.44898,-0.21113 -0.91934,-0.31803 -1.4111,-0.31803 -0.49709,0 -0.96477,0.10423 -1.4138,0.31268 -0.44631,0.20846 -0.84184,0.51312 -1.1893,0.90598 -0.35009,0.39553 -0.61467,0.84451 -0.7964,1.3523 -0.18441,0.51045 -0.27794,1.0503 -0.27794,1.6195 0,0.5639 0.0935,1.0984 0.27794,1.6008 0.18173,0.50777 0.44631,0.95675 0.7964,1.3523 0.34743,0.39821 0.74296,0.7002 1.1866,0.90865 0.44364,0.20846 0.91667,0.31269 1.4164,0.31269 0.48907,0 0.95675,-0.10423 1.395,-0.31269 0.44364,-0.20845 0.83917,-0.51044 1.1946,-0.90865 0.34475,-0.39553 0.61468,-0.84718 0.80175,-1.355 0.18173,-0.50511 0.27527,-1.0396 0.27527,-1.5982 m 1.7051,0 c 0,0.79373 -0.13363,1.5447 -0.40355,2.2502 -0.26992,0.70821 -0.65476,1.3389 -1.1706,1.8948 -0.51846,0.55588 -1.1011,0.98081 -1.7532,1.2748 -0.64942,0.29398 -1.3309,0.44096 -2.0445,0.44096 -0.72425,0 -1.4138,-0.14966 -2.0739,-0.4463 -0.65476,-0.29665 -1.2374,-0.72158 -1.7398,-1.2694 -0.51312,-0.55588 -0.90331,-1.1839 -1.1679,-1.8868 -0.26725,-0.70019 -0.40088,-1.4538 -0.40088,-2.2583 0,-0.79908 0.13363,-1.5527 0.40088,-2.2583 0.26457,-0.70822 0.65476,-1.3443 1.1679,-1.9028 0.51312,-0.55321 1.0957,-0.97547 1.7425,-1.2668 0.65476,-0.28863 1.3389,-0.43294 2.0712,-0.43294 0.72425,0 1.4111,0.14431 2.0552,0.43294 0.64942,0.2913 1.2267,0.71356 1.7425,1.2668 0.5158,0.56657 0.90064,1.2026 1.1706,1.9135 0.26992,0.70821 0.40355,1.4592 0.40355,2.2476"
       style="fill:#000000;fill-opacity:1" />
    <path
       inkscape:connector-curvature="0"
       id="path40"
       d="m 345.35,455.37 0,-11.617 6.3846,6.8309 c 0.17639,0.19509 0.35278,0.40088 0.53183,0.62002 0.17906,0.21915 0.36614,0.46769 0.56123,0.74028 l 0,-7.7476 1.5153,0 0,11.609 -6.5209,-6.9538 c -0.17371,-0.18975 -0.34208,-0.38484 -0.5051,-0.5933 -0.16035,-0.21112 -0.31803,-0.4276 -0.46234,-0.65743 l 0,7.769 -1.5046,0 z"
       style="fill:#000000;fill-opacity:1" />
  </g>
  <path
     style="fill:#8fd123"
     inkscape:connector-curvature="0"
     id="path42"
     d="m 86.11,11.11 c 0,6.1334 -4.9708,11.107 -11.107,11.107 -6.1334,0 -11.11,-4.9735 -11.11,-11.107 C 63.893,4.9739 68.8692,0 75.003,0 81.1391,0 86.11,4.9735 86.11,11.11" />
  <path
     style="fill:#f7ba1d"
     inkscape:connector-curvature="0"
     id="path44"
     d="m 54.16,11.11 c 0,6.1334 -4.9708,11.107 -11.107,11.107 -6.1361,0 -11.107,-4.9735 -11.107,-11.107 C 31.946,4.9739 36.9168,0 43.053,0 49.1891,0 54.16,4.9735 54.16,11.11" />
  <path
     style="fill:#e02e22"
     inkscape:connector-curvature="0"
     id="path46"
     d="m 22.22,11.11 c 0,6.1334 -4.9735,11.107 -11.11,11.107 C 4.9766,22.217 0.003,17.2435 0.003,11.11 0.003,4.9739 4.9765,0 11.11,0 17.2461,0 22.22,4.9735 22.22,11.11" />
  <path
     style="fill:#66cccc"
     inkscape:connector-curvature="0"
     id="path48"
     d="m 118.05,11.11 c 0,6.1334 -4.9708,11.107 -11.107,11.107 -6.1361,0 -11.107,-4.9735 -11.107,-11.107 0,-6.1361 4.9708,-11.11 11.107,-11.11 6.1361,0 11.107,4.9735 11.107,11.11" />
  <path
     style="fill:#496ebf"
     inkscape:connector-curvature="0"
     id="path50"
     d="m 150,11.11 c 0,6.1334 -4.9708,11.107 -11.107,11.107 -6.1361,0 -11.107,-4.9735 -11.107,-11.107 C 127.786,4.9739 132.7568,0 138.893,0 145.0291,0 150,4.9735 150,11.11" />
</svg>
