<svg id="a" enable-background="new 0 0 970.7 360" version="1.1" viewBox="0 0 970.7 360" xmlns="http://www.w3.org/2000/svg">
 <g id="b" fill="#e5113a">
  <path id="c" d="m402.7 98.5v162.7h100.3c3.2 0 5.6-1.1 7.2-2.9l20.7-20.6c2.8-2.7 4.5-5.3 4.5-8.4v-28.5c0-2.5-1.5-4.4-3.2-6.5l-14.2-14.2 13-13c3.1-3 4.6-5.9 4.5-8.6v-25.1c0-5.1-1-7.3-3.3-9.8l-19.4-19.3c-3.8-3.3-6.4-6-11.7-6l-98.4 0.2zm28.5 29.1h59.6c4.1 0 5.5 1.4 7.4 3.4l5.5 5.5c1.5 1.5 2.6 3.3 2.6 4.9v7c0 1.9-0.8 3.2-1.9 4.6l-9.7 9.6c-1.7 1.6-3 3.3-6.5 3.3h-57v-38.3zm0 66.7h57c3.5 0 4.8 1.7 6.5 3.3l9.7 9.6c1.2 1.4 1.9 2.7 1.9 4.6v7c0 1.6-1.1 3.4-2.6 4.9l-5.5 5.5c-1.9 2-3.3 3.4-7.4 3.4h-59.6v-38.3z"/>
  <path id="d" d="m591.8 98.5c-5.3 0-7.9 2.6-11.7 6l-19.4 19.3c-2.2 2.4-3.3 4.6-3.3 9.8v95.9c0 3.1 1.8 5.7 4.5 8.4l20.7 20.6c1.6 1.8 4 2.9 7.2 2.9h67.8c3.2 0 5.6-1.1 7.2-2.9l20.7-20.6c2.8-2.7 4.5-5.3 4.5-8.4v-95.9c0-5.1-1-7.3-3.3-9.8l-19.4-19.3c-3.8-3.3-6.4-6-11.7-6h-63.8zm9.8 29.1h44.7c4.1 0 5.5 1.4 7.4 3.4l5.5 5.5c1.5 1.5 2.6 3.3 2.6 4.9v77.6c0 1.6-1.1 3.4-2.6 4.9l-5.5 5.5c-1.9 2-3.3 3.4-7.4 3.4h-44.7c-4.1 0-5.5-1.4-7.4-3.4l-5.5-5.5c-1.5-1.5-2.6-3.3-2.6-4.9v-77.6c0-1.6 1.1-3.4 2.6-4.9l5.5-5.5c1.8-1.9 3.2-3.4 7.4-3.4z"/>
  <path id="e" d="m967.5 123.7-19.4-19.3c-3.8-3.3-6.4-6-11.7-6h-98.5v162.7h100.3c3.2 0 5.6-1.1 7.2-2.9l20.7-20.6c2.8-2.7 4.5-5.3 4.5-8.4v-95.9c0.1-5-0.9-7.2-3.1-9.6zm-25.9 95.3c0 1.6-1.1 3.4-2.6 4.9l-5.5 5.5c-1.9 2-3.3 3.4-7.4 3.4h-59.6v-105.2h59.5c4.1 0 5.5 1.4 7.4 3.4l5.5 5.5c1.5 1.5 2.6 3.3 2.6 4.9l0.1 77.6z"/>
  <path id="f" d="m741.1 98.5h-28.8v162.7h103.8v-28.5h-75.3l0.3-134.2z"/>
 </g>
 <g id="g" transform="matrix(.66201 0 0 .66201 557.46 1294.7)">
  <path id="h" d="m-298.2-1683.7c0 150.2-121.7 271.9-271.9 271.9s-271.9-121.7-271.9-271.9 121.7-271.9 271.9-271.9 271.9 121.7 271.9 271.9z" fill="#e5113a"/>
  <path id="i" transform="matrix(1.7977 0 0 1.7977 -348.04 1290.2)" d="m-161.7-1600h0.7c3.4 0 6.1-0.9 8-2.6s3.2-3.6 4-5.8c0.8-2.1 1.7-5.4 2.7-9.7l15.7-63.8c1-4 1.5-6.9 1.5-8.8 0-2.8-1-5.2-3-7.1s-4.4-2.9-7.3-2.9h-1.5c-2.9 0-5.1 0.8-6.6 2.3s-2.6 3.1-3.1 4.9-1.1 4-1.7 6.7l-10.5 51.3-11.7-47.5c-1.2-4.3-2.1-7.4-2.8-9.4s-2.1-3.8-4.1-5.6-4.7-2.6-8.3-2.6h-0.7s-0.5 0-0.7 0c-3.5 0-6.3 0.8-8.3 2.5-2.1 1.7-3.5 3.6-4.4 5.8s-1.8 5.3-2.8 9.3l-11.6 47.5-10.6-51.4c-0.9-4.1-2-7.4-3.3-10s-4-3.8-8-3.8h-0.7s-0.5 0-0.8 0c-2.9 0-5.3 1-7.3 2.9s-3 4.3-3 7.1c0 2.1 0.5 4.4 1.4 7.1l15.7 65.5c0.5 1.5 1 3.4 1.6 6 0.6 2.5 1.5 4.7 2.5 6.4 1 1.8 2.4 3.1 4.1 4.1s3.9 1.5 6.5 1.5h0.7s0.5 0 0.7 0c3.2 0 5.8-0.8 7.8-2.5s3.3-3.5 4.1-5.5 1.7-4.9 2.7-8.6l13.6-53.9 13.4 53.5c1.1 4.1 2.1 7.1 2.8 9.1s2.1 3.8 4.1 5.4 4.6 2.5 7.8 2.5c0.3 0.1 0.5 0.1 0.7 0.1zm52.5 0h0.7c3.4 0 6.1-1.1 8.2-3.3s3.2-5.5 3.2-9.7v-74.7c0-4.2-1.1-7.4-3.2-9.6s-4.8-3.3-8.2-3.3h-0.7s-0.5 0-0.7 0c-3.3 0-6 1.1-8.1 3.3s-3.1 5.4-3.1 9.6v74.7c0 4.3 1 7.5 3.1 9.7s4.8 3.3 8.1 3.3h0.7zm51.7-88.2c-1.2-1.8-2.3-3.5-3.3-5s-2-2.8-3.1-3.9c-1-1-2.3-1.9-3.7-2.5s-3.2-1-5.1-1h-1.5c-2.6 0-4.9 0.7-7.1 2.1s-3.8 3.3-4.8 5.7c-0.7 1.7-1.1 4.1-1.1 7.4v73.2c0 3.9 1 7 2.9 9.1s4.5 3.2 7.8 3.2h0.7s0.5 0 0.7 0c3.1 0 5.7-1.1 7.7-3.2s3-5.2 3-9.1v-51.9l33.2 52.6c1.2 1.7 2.3 3.2 3.3 4.5s2.1 2.6 3.5 3.8 2.8 2.1 4.4 2.6 3.3 0.8 5.3 0.8h0.7s0.5 0 0.7 0c8.1 0 12.1-4.6 12.1-13.8v-74.6c0-3.9-0.9-7-2.8-9.1s-4.5-3.1-7.8-3.1h-0.7s-0.5 0-0.7 0c-3.2 0-5.8 1.1-7.6 3.1-1.9 2.1-2.8 5.1-2.8 9.1v52.8l-33.9-52.8z" fill="#fff" stroke="#fff"/>
 </g>
</svg>
