<?xml version="1.0" encoding="UTF-8"?>
<svg id="svg17" width="1378.7pt" height="750pt" version="1.1" viewBox="0 0 1378.7 750" xmlns="http://www.w3.org/2000/svg" xmlns:cc="http://creativecommons.org/ns#" xmlns:dc="http://purl.org/dc/elements/1.1/" xmlns:rdf="http://www.w3.org/1999/02/22-rdf-syntax-ns#">
 <metadata id="metadata23">
  <rdf:RDF>
   <cc:Work rdf:about="">
    <dc:format>image/svg+xml</dc:format>
    <dc:type rdf:resource="http://purl.org/dc/dcmitype/StillImage"/>
    <dc:title/>
   </cc:Work>
  </rdf:RDF>
 </metadata>
 <defs id="defs21">
  <linearGradient id="linearGradient3421-1" x1="178.95" x2="743.37" y1="1991.5" y2="2464.7" gradientTransform="matrix(1.0131 0 0 1.0131 -81.583 -1888.6)" gradientUnits="userSpaceOnUse">
   <stop id="stop3079-2-8" stop-color="#06b0fe" offset="0"/>
   <stop id="stop3722-3" stop-color="#0283fa" offset=".25"/>
   <stop id="stop3716-5" stop-color="#0164f6" offset=".5"/>
   <stop id="stop3714-0-5" stop-color="#0052f4" offset=".75"/>
   <stop id="stop3081-2-9" stop-color="#0047f3" offset="1"/>
  </linearGradient>
  <filter id="filter3499-4-7" color-interpolation-filters="sRGB">
   <feFlood id="feFlood3501-5-6" flood-color="rgb(0,0,0)" flood-opacity=".4" result="flood"/>
   <feComposite id="feComposite3503-5-6" in="flood" in2="SourceGraphic" operator="in" result="composite1"/>
   <feGaussianBlur id="feGaussianBlur3505-1-0" result="blur" stdDeviation="8"/>
   <feOffset id="feOffset3507-7-3" dx="4" dy="11" result="offset"/>
   <feComposite id="feComposite3509-1-0" in="SourceGraphic" in2="offset" result="composite2"/>
  </filter>
 </defs>
 <g id="#262626ff" transform="matrix(9.2591 0 0 9.2591 -233.07 -.00643)" fill="#fff">
  <path id="path5" d="m115.66 22.02h8.6202v14.71h9.8295v-14.71h9.0602v36.96h-9.0602v-14.71h-9.8295v14.71h-8.6202z"/>
  <path id="path7" d="m146.31 22.02h11.046c4.4879 0 8.8818 0.41005 12.674 2.96 3.2285 2.2402 3.9304 5.8088 4.0365 9.4588l3e-3 11.948c-0.0847 3.7164-0.75682 7.3226-4.0398 9.6333-3.6689 2.4671-7.9011 2.96-12.237 2.96h-11.483v-36.96m8.94 7.6928v21.519h5.1678c1.2335 0 2.3689-0.35288 3.2078-1.1243 1.5523-1.7179 1.625-4.1879 1.6362-6.2619v-7.0062c-0.0979-2.2527-0.16052-4.9814-2.0742-6.2589-0.98772-0.63973-2.264-0.86773-3.5882-0.86773l-4.3494-2e-6z"/>
 </g>
 <circle id="path3074-2-9" cx="375" cy="375" r="375" fill="url(#linearGradient3421-1)" stroke-width="1.0131"/>
 <path id="path284" d="m284.21 503.23h1.8858c8.6207 0 15.625-2.1552 20.474-6.4655 4.8491-4.3103 8.3513-9.1595 10.237-14.817 1.8858-5.388 4.3104-13.739 7.0043-24.784l39.871-162.72c2.4246-10.237 3.7715-17.78 3.7715-22.36 0-7.2737-2.4245-13.2-7.5431-18.05s-11.315-7.2737-18.588-7.2737h-3.5022c-7.2737 0-12.931 1.8858-16.703 5.6573-3.7716 3.7715-6.4655 8.0819-8.0819 12.392-1.347 4.5798-2.9634 10.237-4.3103 16.972l-26.94 130.93-29.903-121.23c-2.9634-10.776-5.3879-18.858-7.2737-23.976-1.8858-5.1185-5.3879-9.6983-10.237-14.278-5.1185-4.5798-12.123-6.7349-21.282-6.7349h-3.7716c-8.8901 0-16.164 2.1552-21.282 6.4655-5.1185 4.3103-8.8901 9.1595-11.045 14.817-2.1552 5.6573-4.5797 13.47-7.2737 23.707l-29.634 121.23-26.94-130.93c-2.1552-10.506-5.1185-18.858-8.3513-25.323-3.5022-6.4655-10.237-9.6983-20.474-9.6983h-3.5022c-7.5431 0-13.739 2.4246-18.588 7.2737-5.1185 4.8491-7.5431 11.045-7.5431 18.05 0 5.1186 1.0776 11.315 3.5022 18.05l39.871 167.03c1.0776 3.7715 2.4246 8.8901 4.0409 15.086 1.6164 6.4655 3.7716 11.853 6.4655 16.433 2.694 4.5797 6.1961 8.0819 10.506 10.506 4.3103 2.4245 9.9677 3.7715 16.703 3.7715h3.7716c8.3513 0 14.817-2.1552 19.935-6.4655 5.1185-4.3104 8.6207-8.8901 10.506-14.009 1.8858-5.1185 4.3103-12.392 6.7349-22.091l34.752-137.39 33.944 136.58c2.9634 10.506 5.3879 18.319 7.2737 23.168 1.8858 5.1185 5.3879 9.6983 10.237 14.009 4.8491 4.3103 11.584 6.1961 19.935 6.1961 0.26942 0.26917 0.80819 0.26917 1.347 0.26917zm135.24 0h1.8858c8.6207 0 15.625-2.694 21.013-8.3513 5.388-5.6573 8.0819-14.009 8.0819-24.784v-190.46c0-10.776-2.694-18.858-8.0819-24.515-5.3879-5.6573-12.392-8.3513-21.013-8.3513h-3.7715c-8.6207 0-15.356 2.694-20.744 8.3513-5.388 5.6573-7.8125 13.739-7.8125 24.515v190.46c0 10.776 2.694 19.127 8.0819 24.784 5.388 5.6573 12.123 8.6207 20.474 8.6207 0.80817-0.26958 1.347-0.26958 1.8858-0.26958zm131.73-224.95c-2.9633-4.5798-5.9267-8.8901-8.3513-12.931-2.694-3.7715-5.1185-7.2737-7.8125-9.9677-2.694-2.694-5.9267-4.8492-9.4289-6.4655-3.7715-1.6164-8.0819-2.4245-13.2-2.4245h-3.5022c-6.4655 0-12.662 1.8858-18.05 5.3879-5.6573 3.5022-9.6982 8.3513-12.123 14.547-1.8858 4.3103-2.694 10.506-2.694 18.858v186.42c0 9.9677 2.4246 17.78 7.2737 23.168 4.8491 5.388 11.584 8.0819 19.666 8.0819h3.7715c8.0819 0 14.547-2.694 19.666-8.0819 5.1185-5.3879 7.5431-13.2 7.5431-23.438v-132.54l84.86 134.16c2.9634 4.3103 5.9267 8.0819 8.3513 11.584 2.4246 3.2328 5.3879 6.4655 8.8901 9.6982 3.5022 2.9634 7.2737 5.388 11.315 6.7349 4.041 1.347 8.6207 2.1552 13.47 2.1552h3.7715c20.474 0 30.711-11.853 30.711-35.291v-189.92c0-9.9677-2.4246-17.78-7.2737-23.168-4.8491-5.388-11.315-8.0819-19.935-8.0819h-3.7716c-8.0819 0-14.547 2.694-19.397 8.0819-4.8491 5.3879-7.0043 12.931-7.0043 23.168v134.7z" fill="#fff" filter="url(#filter3499-4-7)" stroke-width=".9483"/>
</svg>
