<?xml version="1.0" encoding="UTF-8"?>
<!-- Created with Inkscape (http://www.inkscape.org/) -->
<svg id="svg2" width="1e3" height="360.05" version="1.1" xmlns="http://www.w3.org/2000/svg" xmlns:cc="http://creativecommons.org/ns#" xmlns:dc="http://purl.org/dc/elements/1.1/" xmlns:rdf="http://www.w3.org/1999/02/22-rdf-syntax-ns#" xmlns:xlink="http://www.w3.org/1999/xlink">
 <metadata id="metadata7">
  <rdf:RDF>
   <cc:Work rdf:about="">
    <dc:format>image/svg+xml</dc:format>
    <dc:type rdf:resource="http://purl.org/dc/dcmitype/StillImage"/>
    <dc:title/>
   </cc:Work>
  </rdf:RDF>
 </metadata>
 <g id="layer1" transform="translate(-483.15 -1661.2)">
  <path id="path5243" d="m885.86 1759.7v162.75h100.28c3.2351 0 5.6025-1.0877 7.2467-2.8743l20.728-20.647c2.7541-2.7287 4.5342-5.3171 4.5342-8.3803v-28.501c0-2.4547-1.4515-4.4446-3.2387-6.4775l-14.25-14.25 12.955-12.955c3.1006-3.0342 4.6028-5.8931 4.5342-8.6231v-25.06c0-5.1117-1.0395-7.3305-3.2792-9.7566l-19.392-19.27c-3.8079-3.3197-6.3746-5.9513-11.659-5.9513h-98.458zm28.501 29.149h59.593c4.1447 0 5.5473 1.4305 7.4491 3.4007l5.5059 5.4654c1.4787 1.4801 2.591 3.2933 2.591 4.8985v7.0443c0 1.9431-0.75875 3.1997-1.9432 4.6152l-9.7162 9.6353c-1.7135 1.6171-2.9555 3.3197-6.4775 3.3197h-57.002v-38.379zm0 66.718h57.002c3.522 0 4.7639 1.7026 6.4775 3.3198l9.7162 9.6352c1.1845 1.4155 1.9432 2.6721 1.9432 4.6152v7.0443c0 1.6052-1.1123 3.4184-2.591 4.8986l-5.5059 5.4653c-1.9018 1.9702-3.3045 3.4007-7.4491 3.4007h-59.593v-38.379z" fill="#e5113a"/>
  <path id="path5587" d="m1075 1759.7c-5.2848 0-7.8516 2.6315-11.659 5.9512l-19.392 19.27c-2.2397 2.4261-3.2792 4.6451-3.2792 9.7567v95.867c0 3.0634 1.7801 5.6516 4.5342 8.3803l20.728 20.647c1.6441 1.7867 4.0115 2.8744 7.2466 2.8744h67.771c3.2351 0 5.6025-1.0877 7.2467-2.8744l20.728-20.647c2.7541-2.7287 4.5342-5.3169 4.5342-8.3803v-95.867c0-5.1116-1.0395-7.3306-3.2792-9.7567l-19.392-19.27c-3.8078-3.3197-6.3746-5.9512-11.659-5.9512h-64.127zm9.7162 29.149h44.695c4.1446 0 5.5473 1.4305 7.4491 3.4007l5.5058 5.4653c1.4787 1.4801 2.591 3.2935 2.591 4.8986v77.568c0 1.6052-1.1123 3.4183-2.591 4.8986l-5.5058 5.4653c-1.9018 1.9704-3.3045 3.4007-7.4491 3.4007h-44.695c-4.1446 0-5.5472-1.4303-7.4491-3.4007l-5.5058-5.4653c-1.4787-1.4803-2.591-3.2934-2.591-4.8986v-77.568c0-1.6051 1.1123-3.4185 2.591-4.8986l5.5058-5.4653c1.9019-1.9702 3.3045-3.4007 7.4491-3.4007z" fill="#e5113a"/>
  <path id="path5257" d="m1195.5 1794.7c0-5.1116 1.0395-7.3305 3.2793-9.7566l19.392-19.27c3.8079-3.3197 6.3747-5.9513 11.66-5.9513h64.127c5.2848 0 7.8516 2.6316 11.659 5.9513l22.741 22.57-20.341 20.486-16.327-16.458c-1.9018-1.9702-3.3045-3.4007-7.4491-3.4007h-44.695c-4.1446 0-5.5473 1.4305-7.4491 3.4007l-5.5058 5.4654c-1.4787 1.4801-2.591 3.2934-2.591 4.8985v15.404c0 3.3541 1.9685 4.5533 6.4775 5.182l80.806 9.9591c8.9787 0.8908 17.003 9.473 17.003 17.246v40.14c0 3.0634-1.7801 5.6516-4.5342 8.3803l-20.728 20.647c-1.6441 1.7866-4.0116 2.8743-7.2467 2.8743h-67.77c-3.2351 0-5.6026-1.0877-7.2468-2.8743l-25.424-25.364 20.08-20.242 16.68 16.578c1.9018 1.9704 3.3045 3.4007 7.4491 3.4007h44.695c4.1446 0 5.5473-1.4303 7.4491-3.4007l5.5058-5.4653c1.4787-1.4802 2.591-3.2934 2.591-4.8986v-15.28c0-3.9445-1.934-4.5513-7.4858-5.2437l-80.932-10.495c-7.9915-1.0668-15.87-8.6483-15.87-16.057v-38.427" fill="#e5113a"/>
  <path id="path5265" d="m1350.3 1794.7c0-5.1116 1.0395-7.3305 3.2791-9.7566l19.392-19.27c3.8079-3.3197 6.3747-5.9513 11.66-5.9513h64.127c5.2848 0 7.8516 2.6316 11.659 5.9513l22.741 22.57-20.341 20.486-16.327-16.458c-1.9017-1.9702-3.3044-3.4007-7.4491-3.4007h-44.695c-4.1447 0-5.5473 1.4305-7.4491 3.4007l-5.5058 5.4654c-1.4787 1.4801-2.591 3.2934-2.591 4.8985v15.404c0 3.3541 1.9683 4.5533 6.4775 5.182l80.806 9.9591c8.9787 0.8908 17.003 9.473 17.003 17.246v40.14c0 3.0634-1.7801 5.6516-4.5342 8.3803l-20.728 20.647c-1.6442 1.7866-4.0116 2.8743-7.2467 2.8743h-67.771c-3.2351 0-5.6025-1.0877-7.2466-2.8743l-25.424-25.364 20.08-20.242 16.68 16.578c1.9018 1.9704 3.3044 3.4007 7.4491 3.4007h44.695c4.1447 0 5.5474-1.4303 7.4491-3.4007l5.5059-5.4653c1.4787-1.4802 2.591-3.2934 2.591-4.8986v-15.28c0-3.9445-1.9342-4.5513-7.4858-5.2437l-80.932-10.495c-7.9917-1.0668-15.87-8.6483-15.87-16.057v-38.427" fill="#e5113a"/>
  <g id="layer1-9" transform="matrix(.66201 0 0 .66201 557.46 1294.7)">
   <path id="path3049" transform="matrix(12.086 0 0 12.086 -1453.8 -4393.9)" d="m156 431.86a22.5 22.5 0 0 1-22.5 22.5 22.5 22.5 0 0 1-22.5-22.5 22.5 22.5 0 0 1 22.5-22.5 22.5 22.5 0 0 1 22.5 22.5z" fill="#e5113a" fill-rule="evenodd"/>
   <g id="g3854" transform="matrix(1.7977 0 0 1.7977 -348.04 1290.2)" fill="#fff" stroke="#fff">
    <path id="path3846" d="m244.31-204.15c0.23235 0.01 0.46954 0.0146 0.71156 0.0146 3.4174 0 6.0797-0.85193 7.9821-2.551 1.9072-1.7039 3.2383-3.6256 3.9935-5.7651 0.75513-2.1444 1.67-5.3778 2.7398-9.7053l15.669-63.832c0.96811-3.9983 1.4522-6.9365 1.4522-8.8098 0-2.8172-0.99231-5.1794-2.9866-7.0866-1.9943-1.9072-4.4194-2.8608-7.2754-2.8608-0.26139 0-0.51794 5e-3 -0.76964 0.0193-0.22267-0.0146-0.45018-0.0193-0.68252-0.0193-2.8656 0-5.0584 0.75029-6.5735 2.2509s-2.5606 3.127-3.1318 4.8744c-0.57119 1.7474-1.1375 3.9789-1.699 6.6945l-10.548 51.305-11.724-47.534c-1.1521-4.2694-2.096-7.3915-2.8317-9.3713-0.73092-1.9798-2.0863-3.8434-4.0612-5.5957-1.9749-1.7523-4.7486-2.6236-8.3161-2.6236-0.24686 0-0.4889 0-0.72608 0.01-0.23719-0.01-0.47921-0.01-0.72609-0.01-3.5046 0-6.2879 0.84226-8.3451 2.5268-2.0572 1.6845-3.5142 3.6111-4.3662 5.7845-0.85193 2.1734-1.8007 5.2665-2.8366 9.2793l-11.612 47.51-10.552-51.373c-0.86645-4.1193-1.9701-7.4351-3.3158-9.9522-1.3457-2.5171-4.0273-3.7756-8.045-3.7756-0.22267 0-0.44533 5e-3 -0.66316 0.0146-0.25655-0.01-0.52277-0.0146-0.78901-0.0146-2.9092 0-5.3488 0.96328-7.3141 2.8946-1.9701 1.9314-2.9527 4.2839-2.9527 7.0527 0 2.0524 0.46953 4.4291 1.4134 7.1205l15.688 65.522c0.455 1.4522 1.002 3.4416 1.6361 5.9684 0.63411 2.5219 1.4618 4.6663 2.4832 6.4234 1.0214 1.7523 2.3912 3.1318 4.1096 4.129 1.7184 1.002 3.887 1.5006 6.5057 1.5006 0.24202 0 0.47921-5e-3 0.71156-0.0146 0.24202 0.01 0.48889 0.0146 0.7406 0.0146 3.2335 0 5.8329-0.83257 7.7933-2.4977 1.9653-1.6651 3.3303-3.5142 4.0951-5.5473 0.76481-2.0282 1.6603-4.9035 2.6914-8.6162l13.626-53.914 13.355 53.536c1.1472 4.0951 2.0911 7.135 2.8317 9.1293 0.74544 1.9895 2.096 3.8047 4.0612 5.4456 1.9653 1.641 4.5695 2.4638 7.8126 2.4638 0.25172 0 0.49858-5e-3 0.74061-0.0146zm52.466-5e-3c0.23718 0.01 0.47437 0.0193 0.7164 0.0193 3.3932 0 6.1378-1.1085 8.2386-3.3158 2.1008-2.2121 3.1512-5.4602 3.1512-9.7392v-74.699c0-4.1968-1.0504-7.3867-3.1512-9.5746-2.1056-2.1879-4.8502-3.2819-8.2386-3.2819-0.24203 0-0.48405 5e-3 -0.72124 0.0146-0.23718-0.01-0.48405-0.0146-0.73092-0.0146-3.3351 0-6.0362 1.094-8.0982 3.2916-2.0621 2.1976-3.0931 5.3875-3.0931 9.5649v74.699c0 4.25 1.0456 7.4883 3.1367 9.715 2.096 2.2267 4.7776 3.34 8.0547 3.34 0.2517 0 0.49374-0.01 0.73576-0.0193zm51.663-88.229c-1.1956-1.8297-2.3041-3.5046-3.3158-5.0293-1.0165-1.5248-2.0476-2.8124-3.1028-3.8579-1.0504-1.0407-2.2993-1.883-3.7369-2.5219-1.4425-0.63896-3.1512-0.9536-5.1358-0.9536-0.22751 0-0.45501 5e-3 -0.68252 0.0146-0.2517-0.01-0.50825-0.0146-0.76964-0.0146-2.5558 0-4.9277 0.68736-7.1253 2.0669-2.1928 1.3796-3.795 3.2771-4.8018 5.6828-0.71156 1.6603-1.0698 4.1193-1.0698 7.3673v73.15c0 3.9402 0.96811 6.9849 2.8995 9.1244 1.9314 2.1444 4.5211 3.219 7.7642 3.219 0.24203 0 0.47922-5e-3 0.71156-0.0193 0.24687 0.0146 0.49373 0.0193 0.7406 0.0193 3.1222 0 5.678-1.0698 7.6723-3.2044 1.9943-2.1347 2.9915-5.1842 2.9915-9.1486v-51.929l33.235 52.583c1.2053 1.7039 2.2944 3.2093 3.2625 4.5211 0.97294 1.3118 2.1492 2.5655 3.5288 3.7563 1.3796 1.1956 2.8462 2.0621 4.4146 2.6042 1.5635 0.54699 3.3351 0.81806 5.3101 0.81806 0.24687 0 0.4889-5e-3 0.72124-0.0146 0.24204 0.01 0.48407 0.0146 0.73094 0.0146 8.0547 0 12.082-4.613 12.082-13.834v-74.569c0-3.9402-0.94391-6.9607-2.8366-9.0615-1.8927-2.096-4.4872-3.1464-7.7885-3.1464-0.24202 0-0.47921 5e-3 -0.71639 0.0193-0.23719-0.0146-0.48406-0.0193-0.73577-0.0193-3.2141 0-5.7554 1.0504-7.6239 3.1464-1.8636 2.1008-2.7978 5.1213-2.7978 9.0615v52.786z" clip-rule="evenodd" fill="#fff" fill-rule="evenodd" stroke="#fff"/>
   </g>
  </g>
 </g>
</svg>
