<?xml version="1.0" encoding="UTF-8"?>
<svg id="Layer_1" width="207.65" height="28.701" data-name="Layer 1" version="1.1" viewBox="0 0 207.65 28.701" xmlns="http://www.w3.org/2000/svg" xmlns:cc="http://creativecommons.org/ns#" xmlns:dc="http://purl.org/dc/elements/1.1/" xmlns:rdf="http://www.w3.org/1999/02/22-rdf-syntax-ns#">
 <path id="polygon4" d="m0.02 0.32018-0.02 27.18h79.02l4.57-22.84-0.62-4.34z" fill="#2de0ca"/>
 <path id="path6" d="m7.42 24.01a8.72 8.72 0 0 0 1.29 0.47 5 5 0 0 0 1.39 0.21 3.9 3.9 0 0 0 2.4-0.72 11.3 11.3 0 0 0 1.91-1.86q-0.46-1.67-1-3.43t-1.06-3.48q-0.54-1.71-1.08-3.31t-1-2.94h-1.8a4.29 4.29 0 0 1-0.13-0.67 5.42 5.42 0 0 1 0-0.57 3.45 3.45 0 0 1 0.2-1.36 2.88 2.88 0 0 1 0.6-0.95h5.4q0.33 0.85 0.8 2.27t1 3q0.51 1.62 1 3.23t0.8 2.79a24.52 24.52 0 0 0 1.64-3.34 12.21 12.21 0 0 0 0.83-3.35 4.35 4.35 0 0 0 0-0.52v-0.51h-1.9a4.28 4.28 0 0 1-0.17-0.67 5.41 5.41 0 0 1 0-0.57 3.45 3.45 0 0 1 0.26-1.38 2.88 2.88 0 0 1 0.6-0.95h5.39a5.28 5.28 0 0 1 0.59 1.68 9.87 9.87 0 0 1 0.16 1.56 12.53 12.53 0 0 1-0.72 4 27.94 27.94 0 0 1-1.86 4.28 43 43 0 0 1-2.53 4.15q-1.39 2-2.69 3.57a18.2 18.2 0 0 1-1.67 1.71 9.59 9.59 0 0 1-1.73 1.27 8 8 0 0 1-2 0.8 9.89 9.89 0 0 1-2.43 0.28 7 7 0 0 1-0.9-0.07 10 10 0 0 1-1-0.18c-0.33-0.08-0.64-0.16-0.93-0.26a4.45 4.45 0 0 1-0.73-0.31z" fill="#3c3c3b"/>
 <path id="path8" d="m26 16.08a13 13 0 0 1 0.62-3.9 11.3 11.3 0 0 1 1.86-3.57 9.8 9.8 0 0 1 3.06-2.61 9 9 0 0 1 4.37-1 9.12 9.12 0 0 1 2.87 0.44 6.61 6.61 0 0 1 2.35 1.34 6.18 6.18 0 0 1 1.58 2.25 8.05 8.05 0 0 1 0.57 3.15 13 13 0 0 1-0.6 3.85 11.64 11.64 0 0 1-1.81 3.57 9.52 9.52 0 0 1-3.07 2.64 8.83 8.83 0 0 1-4.34 1 9.64 9.64 0 0 1-2.89-0.42 6.68 6.68 0 0 1-2.38-1.31 6.24 6.24 0 0 1-1.63-2.23 7.86 7.86 0 0 1-0.6-3.22m7.77 3.2a2.67 2.67 0 0 0 2-0.83 6.52 6.52 0 0 0 1.29-2 10 10 0 0 0 0.69-2.33 12.24 12.24 0 0 0 0.2-1.88 6.59 6.59 0 0 0-0.11-1.22 3.2 3.2 0 0 0-0.39-1.06 2.32 2.32 0 0 0-0.73-0.75 2.14 2.14 0 0 0-1.14-0.26 2.67 2.67 0 0 0-2 0.83 6.25 6.25 0 0 0-1.27 2 10.87 10.87 0 0 0-0.73 2.35 12.37 12.37 0 0 0-0.2 1.88 7.35 7.35 0 0 0 0.1 1.21 3.07 3.07 0 0 0 0.38 1.06 2.11 2.11 0 0 0 0.73 0.75 2.23 2.23 0 0 0 1.18 0.28" fill="#3c3c3b"/>
 <path id="path10" d="m46.27 8.9702h-1.73a4.18 4.18 0 0 1-0.16-0.7 4.53 4.53 0 0 1 0-0.54 3.27 3.27 0 0 1 0.22-1.38 3.54 3.54 0 0 1 0.59-0.95h7.25l-2.35 10.26q-0.16 0.65-0.24 1.17a6.12 6.12 0 0 0-0.08 0.95 1.22 1.22 0 0 0 0.31 0.88 1.14 1.14 0 0 0 0.87 0.33 2.16 2.16 0 0 0 1.22-0.44 4.94 4.94 0 0 0 1.26-1.4 13.25 13.25 0 0 0 1.19-2.48 25.71 25.71 0 0 0 1-3.67l1.14-5.55h5.35l-2.76 13.83h1.73a6.7 6.7 0 0 1 0.13 0.7 5.06 5.06 0 0 1 0 0.57 3.18 3.18 0 0 1-0.26 1.31 3.53 3.53 0 0 1-0.59 0.95h-6.2l0.46-2.91a10.42 10.42 0 0 1-2.59 2.4 6.36 6.36 0 0 1-3.54 1 4.87 4.87 0 0 1-3.17-1 3.4 3.4 0 0 1-1.21-2.81 10.2 10.2 0 0 1 0.13-1.63c0.09-0.54 0.2-1.1 0.33-1.67z" fill="#3c3c3b"/>
 <path id="path12" d="m65.33 8.9702h-1.73a4.17 4.17 0 0 1-0.13-0.67 5.41 5.41 0 0 1 0-0.57 3.44 3.44 0 0 1 0.21-1.38 2.88 2.88 0 0 1 0.6-0.95h6.46l-0.56 3.3a6.05 6.05 0 0 1 2.27-2.61 4.87 4.87 0 0 1 2.3-0.68 5.88 5.88 0 0 1 1.24 0.11 4.14 4.14 0 0 1 1.11 0.44l-1.49 4.39a6.8 6.8 0 0 0-0.9-0.29 4.18 4.18 0 0 0-1-0.1 3.13 3.13 0 0 0-1.39 0.33 3.69 3.69 0 0 0-1.22 1.06 7.82 7.82 0 0 0-1.06 2 18.34 18.34 0 0 0-0.83 3l-1.3 6.49h-5.37z" fill="#3c3c3b"/>
 <path id="polygon14" d="m155.82 0.32018-2.46 14.41-5.7-14.41h-7.65l-4.64 27.26h7.46l2.54-14.96 6.61 14.96h6.65l4.64-27.26z" fill="#fff"/>
 <path id="polygon16" d="m102.44 0.32018-7.78 12.84-4.11-12.84h-7.54l-4.41 27.18h7.02l2.46-13.48 2.62 9.32h4.72l5.14-9.39-2.47 13.55h7.09l4.42-27.18z" fill="#fff"/>
 <path id="polygon18" d="m199.21 0.32018-6.67 9.63-3.72-9.63h-23.3l-4.64 27.25h18.92l1.08-6.5h-11.97l0.7-4.08h11.91l1.04-6.12h-11.92l0.7-4.05h11.88l4.39 10.53-1.76 10.19h7.58l1.79-10.31 12.43-16.91z" fill="#fff"/>
 <path id="path20" d="m122.54 1.75e-4a14 14 0 1 1-13.93 14 14 14 0 0 1 13.93-14m0 7.35a6.67 6.67 0 1 0 6.67 6.67 6.65 6.65 0 0 0-6.67-6.67" fill="#fff"/>
</svg>
