<?xml version="1.0" encoding="UTF-8"?>
<svg id="Layer_1" width="800" height="110.57" data-name="Layer 1" version="1.1" viewBox="0 0 800 110.57" xmlns="http://www.w3.org/2000/svg" xmlns:cc="http://creativecommons.org/ns#" xmlns:dc="http://purl.org/dc/elements/1.1/" xmlns:rdf="http://www.w3.org/1999/02/22-rdf-syntax-ns#">
 <metadata id="metadata18">
  <rdf:RDF>
   <cc:Work rdf:about="">
    <dc:format>image/svg+xml</dc:format>
    <dc:type rdf:resource="http://purl.org/dc/dcmitype/StillImage"/>
   </cc:Work>
  </rdf:RDF>
 </metadata>
 <path id="polygon4" d="m302.81 105.95 19.233-87.994-2.243-16.72h-319.73l-0.077053 104.71z" fill="#2de0ca" stroke-width="3.8526"/>
 <g id="g841" transform="scale(3.8526)" fill="#3c3c3b">
  <path id="path6" d="m7.42 24.01c0.41698 0.19033 0.84832 0.34748 1.29 0.47 0.45113 0.13511 0.91909 0.20581 1.39 0.21 0.85742 0.03052 1.701-0.22254 2.4-0.72 0.70783-0.54246 1.349-1.1668 1.91-1.86-0.30667-1.1133-0.64-2.2567-1-3.43s-0.71333-2.3333-1.06-3.48c-0.36-1.14-0.72-2.2433-1.08-3.31s-0.69333-2.0467-1-2.94h-1.8c-0.061058-0.21953-0.10453-0.44357-0.13-0.67-0.017283-0.22281-0.014989-0.61028-0.0028667-0.88312 0.012934-0.35673 0.081183-0.70995 0.20287-1.0469 0.13569-0.35299 0.33957-0.6758 0.6-0.95h5.4c0.22 0.56667 0.48667 1.3233 0.8 2.27s0.64667 1.9467 1 3c0.34 1.08 0.67333 2.1567 1 3.23s0.59333 2.0033 0.8 2.79c0.63047-1.0702 1.1787-2.1867 1.64-3.34 0.43389-1.0717 0.71334-2.1997 0.83-3.35 0.01037-0.17318 0.01037-0.34682 0-0.52v-0.51h-1.9c-0.07464-0.21838-0.13149-0.44245-0.17-0.67-0.02707-0.22202-0.01415-0.5299 0.0036-0.80548 0.019506-0.39276 0.10602-0.77991 0.2564-1.1445 0.13569-0.35299 0.33957-0.6758 0.6-0.95h5.39c0.29036 0.52256 0.48986 1.0906 0.59 1.68 0.09462 0.51493 0.14813 1.0366 0.16 1.56-0.02072 1.3636-0.26392 2.7147-0.72 4-0.49956 1.476-1.1217 2.9077-1.86 4.28-0.76442 1.4299-1.6091 2.8155-2.53 4.15-0.92667 1.3333-1.8233 2.5233-2.69 3.57-0.5186 0.60598-1.0765 1.1772-1.67 1.71-0.52733 0.48673-1.1076 0.91273-1.73 1.27-0.62755 0.35561-1.3003 0.62472-2 0.8-0.79529 0.19353-1.6115 0.28758-2.43 0.28-0.30119-0.0039-0.60182-0.02733-0.9-0.07-0.33617-0.04302-0.66993-0.10309-1-0.18-0.33-0.08-0.64-0.16-0.93-0.26-0.25207-0.0814-0.49638-0.18515-0.73-0.31z"/>
  <path id="path8" d="m26 16.08c0.0069-1.324 0.21594-2.6392 0.62-3.9 0.40133-1.2917 1.0313-2.5009 1.86-3.57 0.82859-1.0722 1.8705-1.9609 3.06-2.61 1.349-0.69659 2.8523-1.0406 4.37-1 0.97402-0.00754 1.943 0.14101 2.87 0.44 0.86734 0.27988 1.6674 0.7361 2.35 1.34 0.68893 0.62185 1.229 1.3909 1.58 2.25 0.39896 1.0013 0.59279 2.0724 0.57 3.15-0.0054 1.3062-0.20772 2.6041-0.6 3.85-0.39267 1.2856-1.0051 2.4934-1.81 3.57-0.82219 1.09-1.8692 1.9903-3.07 2.64-1.3375 0.69869-2.8317 1.043-4.34 1-0.97907 0.0076-1.9536-0.13405-2.89-0.42-0.87469-0.26903-1.6848-0.71492-2.38-1.31-0.7031-0.61223-1.2601-1.3742-1.63-2.23-0.27328-0.65711-0.45534-1.3466-0.54264-2.0493-0.048113-0.3873-0.017363-1.1507-0.017363-1.1507zm8.3173 3.1291c0.53535-0.1069 1.0301-0.37652 1.4127-0.77911 0.54906-0.58188 0.98635-1.2598 1.29-2 0.32386-0.74573 0.55557-1.5282 0.69-2.33 0.11504-0.62057 0.1819-1.2491 0.2-1.88 0.0013-0.4092-0.03553-0.81763-0.11-1.22-0.06612-0.37366-0.19818-0.73258-0.39-1.06-0.18303-0.30234-0.43272-0.55887-0.73-0.75-0.3485-0.19081-0.74323-0.28084-1.14-0.26-0.75397-0.018219-1.4805 0.28328-2 0.83-0.54697 0.5796-0.97805 1.2585-1.27 2-0.3315 0.75318-0.5764 1.5416-0.73 2.35-0.11453 0.62065-0.18139 1.2491-0.2 1.88-9.3e-5 0.4054 0.03335 0.81012 0.1 1.21 0.06023 0.37374 0.18906 0.73312 0.38 1.06 0.17648 0.30734 0.42754 0.56528 0.73 0.75 0.35991 0.20055 0.76835 0.29747 1.18 0.28 0.17886-0.0044 0.37723-0.03486 0.58729-0.08089z"/>
  <path id="path10" d="m46.27 8.9702h-1.73c-0.07331-0.22831-0.12684-0.46251-0.16-0.7-0.02596-0.20017-0.02374-0.71127 0.0036-0.9693 0.02415-0.32513 0.09685-0.64564 0.21637-0.9507 0.14509-0.34593 0.34424-0.66659 0.59-0.95h7.25l-2.35 10.26c-0.10667 0.43333-0.18667 0.82333-0.24 1.17-0.05133 0.3141-0.07808 0.63174-0.08 0.95-0.01734 0.32282 0.09415 0.63933 0.31 0.88 0.22987 0.22873 0.54626 0.34874 0.87 0.33 0.44214-0.01824 0.868-0.17183 1.22-0.44 0.5059-0.38154 0.93368-0.85684 1.26-1.4 0.48163-0.78314 0.88045-1.6143 1.19-2.48 0.4235-1.197 0.75774-2.4237 1-3.67l1.14-5.55h5.35l-2.76 13.83h1.73c0.05571 0.23086 0.0991 0.46453 0.13 0.7 0.04055 0.28318 0.0075 0.70451-0.02057 0.98411-0.03553 0.30799-0.11597 0.60988-0.23943 0.89589-0.14494 0.346-0.3441 0.6667-0.59 0.95h-6.2l0.46-2.91c-0.72051 0.94152-1.5964 1.7532-2.59 2.4-1.0557 0.67475-2.2873 1.0226-3.54 1-1.1412 0.04875-2.2633-0.30521-3.17-1-0.82578-0.69204-1.2747-1.7345-1.21-2.81-3.58e-4 -0.54594 0.04312-1.091 0.13-1.63 0.09-0.54 0.2-1.1 0.33-1.67z"/>
  <path id="path12" d="m65.33 8.9702h-1.73c-0.06157-0.21941-0.10505-0.44349-0.13-0.67-0.02533-0.25684-0.01481-0.61949-0.0026-0.87948 0.01341-0.36522 0.08497-0.72665 0.21257-1.0705 0.13569-0.35299 0.33957-0.6758 0.6-0.95h6.46l-0.56 3.3c0.48653-1.0724 1.2754-1.9795 2.27-2.61 0.69799-0.41486 1.4886-0.64862 2.3-0.68 0.41606-0.00731 0.83172 0.02956 1.24 0.11 0.38932 0.09226 0.7632 0.24047 1.11 0.44l-1.49 4.39c-0.29291-0.11743-0.59363-0.21433-0.9-0.29-0.3281-0.07343-0.66386-0.107-1-0.1-0.48258 0.0014-0.9583 0.11432-1.39 0.33-0.48 0.25884-0.89666 0.62086-1.22 1.06-0.44846 0.61173-0.80553 1.2855-1.06 2-0.36118 0.97467-0.63885 1.9783-0.83 3l-1.3 6.49h-5.37z"/>
 </g>
 <g id="g848" transform="scale(3.8526)" fill="#3c3c3b">
  <path id="polygon14" transform="translate(-1.46 -.64982)" d="m144.29 28.23 2.54-14.96 6.61 14.96h6.65l4.64-27.26h-7.45l-2.46 14.41-5.7-14.41h-7.65l-4.64 27.26z" style=""/>
  <path id="polygon16" transform="translate(-1.46 -.64982)" d="m87.08 28.15 2.46-13.48 2.62 9.32h4.72l5.14-9.39-2.47 13.55h7.09l4.42-27.18h-7.16l-7.78 12.84-4.11-12.84h-7.5401l-4.41 27.18z"/>
  <path id="polygon18" transform="translate(-1.46 -.64982)" d="m181.26 28.22 1.08-6.5h-11.97l0.7-4.08h11.91l1.04-6.12h-11.92l0.7-4.05h11.88l4.39 10.53-1.76 10.19h7.58l1.79-10.31 12.43-16.91h-8.44l-6.67 9.63-3.72-9.63h-23.3l-4.64 27.25z" style=""/>
  <path id="path20" d="m122.54 1.75e-4a14 14 0 1 1-13.93 14 14 14 0 0 1 13.93-14m0 7.35a6.67 6.67 0 1 0 6.67 6.67 6.65 6.65 0 0 0-6.67-6.67"/>
 </g>
</svg>
